<?xml version="1.0" encoding="UTF-8"?>
<svg width="961px" height="652px" viewBox="0 0 961 652" version="1.1" xmlns="http://www.w3.org/2000/svg" xmlns:xlink="http://www.w3.org/1999/xlink">
    <!-- Generator: Sketch 49.1 (51147) - http://www.bohemiancoding.com/sketch -->
    <title>Group 2</title>
    <desc>Created with Sketch.</desc>
    <defs>
        <filter x="-1.2%" y="-1.1%" width="102.3%" height="103.4%" filterUnits="objectBoundingBox" id="filter-1">
            <feOffset dx="0" dy="4" in="SourceAlpha" result="shadowOffsetOuter1"></feOffset>
            <feGaussianBlur stdDeviation="3" in="shadowOffsetOuter1" result="shadowBlurOuter1"></feGaussianBlur>
            <feColorMatrix values="0 0 0 0 0.0901960784   0 0 0 0 0.192156863   0 0 0 0 0.270588235  0 0 0 0.16 0" type="matrix" in="shadowBlurOuter1" result="shadowMatrixOuter1"></feColorMatrix>
            <feMerge>
                <feMergeNode in="shadowMatrixOuter1"></feMergeNode>
                <feMergeNode in="SourceGraphic"></feMergeNode>
            </feMerge>
        </filter>
    </defs>
    <g id="Homepage" stroke="none" stroke-width="1" fill="none" fill-rule="evenodd">
        <g id="Desktop-HD-Copy-4" transform="translate(-32.000000, -693.000000)">
            <g id="Group-2" transform="translate(38.000000, 695.000000)">
                <g id="Group-24" filter="url(#filter-1)" fill-rule="nonzero">
                    <rect id="bg-screen-b" fill="#FFFFFF" x="0" y="0" width="948.523205" height="639.57101" rx="5.99039985"></rect>
                    <path d="M7.87156187,0 L940.651644,0 C944.998987,-8.68772388e-16 948.523205,3.83391725 948.523205,8.56329386 L948.523205,32.112352 L0,32.112352 L0,8.56329386 C-5.3239604e-16,3.83391725 3.52421829,8.68772388e-16 7.87156187,0 Z" id="Shape" fill-opacity="0.08" fill="#173145"></path>
                </g>
                <text id="Saved" font-family="BentonSans-Medium, BentonSans" font-size="10.0638718" font-weight="400" line-spacing="13.4184957" fill="#1B3141" fill-opacity="0.403306159">
                    <tspan x="208" y="71">Saved</tspan>
                </text>
                <path d="M199.399063,61.3017429 C199.755442,60.9100465 200.344503,60.898139 200.714767,61.2751468 C201.085032,61.6521547 201.096288,62.2753126 200.739908,62.6670091 L194.342628,69.6982582 C193.976581,70.1005806 193.36783,70.1005806 193.001783,69.6982582 L190.260092,66.6848657 C189.903712,66.2931693 189.914968,65.6700113 190.285233,65.2930035 C190.655497,64.9159957 191.244558,64.9279031 191.600937,65.3195996 L193.672206,67.5961306 L199.399063,61.3017429 Z" id="Shape" fill-opacity="0.395861639" fill="#1B3141" fill-rule="nonzero"></path>
                <text id="Acme-Opportunity" font-family="Roboto-Medium, Roboto" font-size="13.4184957" font-weight="400" line-spacing="20.1277435" fill="#173145" fill-opacity="0.801828578">
                    <tspan x="39" y="66">Acme Opportunity</tspan>
                </text>
                <rect id="Rectangle-11" x="14" y="52" width="24" height="24"></rect>
                <path d="M24.9341255,69.8661846 C25.0625412,70.2160637 24.9974778,70.6742402 24.7888022,70.8895505 C24.5801266,71.1048607 24.3068601,70.9957711 24.1784444,70.6458919 L22.0658122,64.8898537 C21.9780626,64.6507728 21.9780626,64.3492272 22.0658122,64.1101463 L24.1784444,58.3541081 C24.3068601,58.0042289 24.5801266,57.8951393 24.7888022,58.1104495 C24.9974778,58.3257598 25.0625412,58.7839363 24.9341255,59.1338154 L22.9645809,64.5 L24.9341255,69.8661846 Z" id="Shape" fill-opacity="0.235450634" fill="#173145" fill-rule="nonzero"></path>
                <g id="Group-30" transform="translate(151.000000, 110.000000)">
                    <path d="M146.596881,0 L221.07562,0 C223.29887,-4.08404263e-16 225.101169,1.80229962 225.101169,4.02554888 L225.101169,25.0877956 C225.101169,27.3110448 223.29887,29.1133444 221.07562,29.1133444 L146.596881,29.1133444 C146.041069,29.1133444 145.590494,28.6627695 145.590494,28.1069572 L145.590494,1.00638722 C145.590494,0.450574906 146.041069,5.46190276e-16 146.596881,4.4408921e-16 Z" id="Rectangle" fill-opacity="0.08" fill="#173145"></path>
                    <text id="Timeline" font-family="BentonSans-Medium, BentonSans" font-size="12.0766466" font-weight="400" line-spacing="16.1021955" fill="#173145" fill-opacity="0.644644475">
                        <tspan x="159.447085" y="17.2434294">Timeline</tspan>
                    </text>
                    <rect id="Rectangle" fill-opacity="0.4" fill="#173145" x="84.1667061" y="0" width="60.1702409" height="29.1133444" rx="1.00638722"></rect>
                    <text id="Cards" font-family="BentonSans-Medium, BentonSans" font-size="12.0766466" font-weight="400" line-spacing="16.1021955" fill="#FFFFFF">
                        <tspan x="95.5318091" y="17.2434294">Cards</tspan>
                    </text>
                    <path d="M4.02554888,0 L81.727694,0 C82.2835064,-1.02101066e-16 82.7340813,0.450574906 82.7340813,1.00638722 L82.7340813,28.1069572 C82.7340813,28.6627695 82.2835064,29.1133444 81.727694,29.1133444 L4.02554888,29.1133444 C1.80229962,29.1133444 4.91144678e-15,27.3110448 2.66453526e-15,25.0877956 L-8.8817842e-16,4.02554888 C-1.16044793e-15,1.80229962 1.80229962,-1.36795258e-15 4.02554888,-1.77635684e-15 Z" id="Rectangle" fill-opacity="0.08" fill="#173145"></path>
                    <text id="Overview" font-family="BentonSans-Medium, BentonSans" font-size="12.0766466" font-weight="400" line-spacing="16.1021955" fill="#173145" fill-opacity="0.644644475">
                        <tspan x="14.2689212" y="17.2434294">Overview</tspan>
                    </text>
                </g>
                <circle id="Oval" fill="#39ABBB" opacity="0.2" cx="897.5" cy="72.5" r="16.5"></circle>
                <text id="CA" font-family="BentonSans-Medium, BentonSans" font-size="10.0638718" font-weight="400" line-spacing="10.0638718" fill="#39ABBB">
                    <tspan x="889.963153" y="71.7149901">CA</tspan>
                </text>
                <rect id="Area-Copy-161" x="889" y="321" width="19" height="19"></rect>
                <path d="M891.517408,324.410072 C890.981262,324.410072 890.54352,324.804706 890.54352,325.278777 L890.54352,334.721223 C890.54352,335.195294 890.981262,335.589928 891.517408,335.589928 L905.482592,335.589928 C906.018738,335.589928 906.45648,335.195294 906.45648,334.721223 L906.45648,325.278777 C906.45648,324.804706 906.018738,324.410072 905.482592,324.410072 L891.517408,324.410072 Z M891.517408,323 L905.482592,323 C906.866658,323 908,324.021733 908,325.278777 L908,334.721223 C908,335.978267 906.866658,337 905.482592,337 L891.517408,337 C890.133342,337 889,335.978267 889,334.721223 L889,325.278777 C889,324.021733 890.133342,323 891.517408,323 Z" id="Shape" fill="#9CA7B0" fill-rule="nonzero"></path>
                <path d="M906.770388,323.150974 C907.113527,322.897339 907.596661,322.970772 907.8495,323.314991 C908.102339,323.659211 908.029137,324.143869 907.685998,324.397504 L898.957805,330.849076 C898.685563,331.050308 898.314437,331.050308 898.042195,330.849076 L889.314002,324.397504 C888.970863,324.143869 888.897661,323.659211 889.1505,323.314991 C889.403339,322.970772 889.886473,322.897339 890.229612,323.150974 L898.5,329.264153 L906.770388,323.150974 Z" id="Shape" fill="#9CA7B0" fill-rule="nonzero"></path>
                <rect id="Area-Copy-184" x="889" y="276" width="19" height="19"></rect>
                <path d="M906.616867,284.408412 C906.934282,284.107698 907.447762,284.108795 907.763756,284.410862 C908.07975,284.712928 908.078598,285.201579 907.761182,285.502293 L899.545239,293.285926 C897.132872,295.571358 893.223154,295.571358 890.810787,293.285926 C888.396404,290.998585 888.396404,287.288631 890.810787,285.001289 L899.02673,277.217656 C900.740444,275.594115 903.517422,275.594115 905.231137,277.217656 C906.946866,278.843106 906.946866,281.479924 905.230824,283.10567 L897.006253,290.889007 C895.991192,291.850658 894.346954,291.850658 893.331892,290.889007 C892.314816,289.925448 892.314816,288.361768 893.332231,287.397887 L900.922368,280.215601 C901.23997,279.915065 901.753449,279.91645 902.069256,280.218694 C902.385063,280.520938 902.383608,281.009587 902.066006,281.310123 L894.476208,288.492089 C894.095979,288.852311 894.095979,289.434905 894.476208,289.795127 C894.858452,290.157258 895.479694,290.157258 895.86225,289.794831 L904.086821,282.011493 C905.165703,280.98938 905.165703,279.333649 904.086821,278.311537 C903.005924,277.287515 901.251942,277.287515 900.171045,278.311537 L891.955102,286.09517 C890.177568,287.779174 890.177568,290.508042 891.955102,292.192045 C893.734652,293.877958 896.621374,293.877958 898.400923,292.192045 L906.616867,284.408412 Z" id="Shape" fill-opacity="0.4" fill="#173145" fill-rule="nonzero"></path>
                <text id="Emails" font-family="BentonSans-Medium, BentonSans" font-size="10.0638718" font-weight="400" line-spacing="13.4184957" fill="#173145" fill-opacity="0.235450634">
                    <tspan x="847.105685" y="336.069614">Emails</tspan>
                </text>
                <text id="Files" font-family="BentonSans-Medium, BentonSans" font-size="10.0638718" font-weight="400" line-spacing="13.4184957" fill="#173145" fill-opacity="0.235450634">
                    <tspan x="856.845232" y="291.069614">Files</tspan>
                </text>
                <text id="Tasks" font-family="BentonSans-Medium, BentonSans" font-size="10.0638718" font-weight="400" line-spacing="13.4184957" fill="#173145" fill-opacity="0.235450634">
                    <tspan x="850.810841" y="246.069614">Tasks</tspan>
                </text>
                <text id="Team" font-family="BentonSans-Medium, BentonSans" font-size="10.0638718" font-weight="400" line-spacing="13.4184957" fill="#173145" fill-opacity="0.235450634">
                    <tspan x="852.029513" y="194.069614">Team</tspan>
                </text>
                <rect id="Area-Copy-82" x="889" y="230" width="19" height="19"></rect>
                <path d="M906.45648,240.693186 C906.45648,240.266956 906.802009,239.92143 907.22824,239.92143 C907.654471,239.92143 908,240.266956 908,240.693186 L908,241.505295 C907.997594,245.712281 905.228174,249.416585 901.193591,250.609403 C897.159024,251.802218 892.820382,250.199424 890.530469,246.670186 C888.240541,243.140926 888.544872,238.525936 891.278423,235.327903 C894.011956,232.129893 898.523501,231.110638 902.366499,232.822861 C902.755835,232.996327 902.930831,233.452567 902.757364,233.8419 C902.583897,234.231234 902.127656,234.40623 901.73832,234.232764 C898.519692,232.798725 894.741132,233.652382 892.451734,236.330792 C890.162354,239.00918 889.907475,242.87426 891.825311,245.830048 C893.743161,248.785858 897.3769,250.128245 900.755975,249.129227 C904.135034,248.130213 906.454465,245.027802 906.45648,241.504854 L906.45648,240.693186 Z" id="Shape" fill-opacity="0.4" fill="#173145" fill-rule="nonzero"></path>
                <path d="M908.735741,234.225809 C909.029303,233.920159 909.500268,233.925468 909.787672,234.237668 C910.075075,234.549868 910.070082,235.050734 909.77652,235.356384 L900.731172,244.774192 C900.442002,245.075269 899.979564,245.075269 899.690393,244.774192 L897.22348,242.205698 C896.929918,241.900048 896.924925,241.399182 897.212328,241.086983 C897.499732,240.774783 897.970697,240.769474 898.264259,241.075124 L900.210783,243.101799 L908.735741,234.225809 Z" id="Shape" fill-opacity="0.4" fill="#173145" fill-rule="nonzero"></path>
                <rect id="Area-Copy-257" x="889" y="177" width="19" height="19"></rect>
                <path d="M903,197.050847 C903,197.57505 902.653153,198 902.225296,198 C901.797439,198 901.450593,197.57505 901.450593,197.050847 L901.450593,195.016949 C901.450593,193.281367 900.392284,191.898305 899.112648,191.898305 L892.887352,191.898305 C891.607716,191.898305 890.549407,193.281367 890.549407,195.016949 L890.549407,197.050847 C890.549407,197.57505 890.202561,198 889.774704,198 C889.346847,198 889,197.57505 889,197.050847 L889,195.016949 C889,192.259368 890.728852,190 892.887352,190 L899.112648,190 C901.271148,190 903,192.259368 903,195.016949 L903,197.050847 Z" id="Shape" fill-opacity="0.4" fill="#173145" fill-rule="nonzero"></path>
                <path d="M895,187 C892.790861,187 891,185.209139 891,183 C891,180.790861 892.790861,179 895,179 C897.209139,179 899,180.790861 899,183 C899,185.209139 897.209139,187 895,187 Z M895,185.451613 C896.353988,185.451613 897.451613,184.353988 897.451613,183 C897.451613,181.646012 896.353988,180.548387 895,180.548387 C893.646012,180.548387 892.548387,181.646012 892.548387,183 C892.548387,184.353988 893.646012,185.451613 895,185.451613 Z" id="Oval" fill-opacity="0.4" fill="#173145" fill-rule="nonzero"></path>
                <path d="M906,195.245529 C906,195.662212 905.758932,196 905.461559,196 C905.164186,196 904.923118,195.662212 904.923118,195.245529 L904.923118,193.716071 C904.922481,192.695953 904.319688,191.767855 903.4229,191.491491 C903.132468,191.401989 902.948807,190.99953 903.012682,190.592573 C903.076557,190.185616 903.363779,189.928268 903.654211,190.01777 C905.020156,190.438713 905.998894,191.945642 906,193.71541 L906,195.245529 Z" id="Shape" fill-opacity="0.4" fill="#173145" fill-rule="nonzero"></path>
                <path d="M900.41694,180.528486 C900.127253,180.431911 899.946866,180.015977 900.014035,179.599469 C900.081204,179.182962 900.370493,178.923605 900.66018,179.020179 C902.028118,179.476215 903,181.106464 903,183 C903,184.893536 902.028118,186.523785 900.66018,186.979821 C900.370493,187.076395 900.081204,186.817038 900.014035,186.400531 C899.946866,185.984023 900.127253,185.568089 900.41694,185.471514 C901.312116,185.173085 901.92312,184.148179 901.92312,183 C901.92312,181.851821 901.312116,180.826915 900.41694,180.528486 Z" id="Shape" fill-opacity="0.4" fill="#173145" fill-rule="nonzero"></path>
                <rect id="Rectangle" fill-opacity="0.8" fill="#39ABBB" x="908" y="163" width="19" height="14" rx="7"></rect>
                <text id="4" font-family="Roboto-Black, Roboto" font-size="9.22521581" font-weight="700" line-spacing="11.7411838" letter-spacing="-0.503193625" fill="#FFFFFF">
                    <tspan x="913.580428" y="174">4</tspan>
                </text>
                <rect id="Rectangle" fill-opacity="0.8" fill="#39ABBB" x="908" y="218" width="19" height="14" rx="7"></rect>
                <text id="2" font-family="Roboto-Black, Roboto" font-size="9.22521581" font-weight="700" line-spacing="11.7411838" letter-spacing="-0.503193625" fill="#FFFFFF">
                    <tspan x="913.580428" y="227">2</tspan>
                </text>
                <rect id="Rectangle" fill-opacity="0.8" fill="#39ABBB" x="908" y="309" width="19" height="14" rx="7"></rect>
                <text id="1" font-family="Roboto-Black, Roboto" font-size="9.22521581" font-weight="700" line-spacing="11.7411838" letter-spacing="-0.503193625" fill="#FFFFFF">
                    <tspan x="913.580428" y="319">1</tspan>
                </text>
            </g>
        </g>
    </g>
</svg>