<svg xmlns="http://www.w3.org/2000/svg" width="329" height="220" viewBox="0 0 329 220">
  <g fill="none" fill-rule="evenodd">
    <path fill="#173145" fill-opacity=".08" fill-rule="nonzero" d="M148.84972,147 C148.297435,147 147.84972,146.552285 147.84972,146 C147.84972,145.447715 148.297435,145 148.84972,145 C162.953988,145 169.909654,137.852955 170.031766,123.207634 C170.031766,106.20156 159.690501,97 138.882739,96.9995674 C121.841563,97.5009595 105.197937,108.651487 97.9308681,124.987495 C89.5751983,143.770623 94.2290298,166.478201 113.763354,188.944831 C160.708352,236.364083 257.025066,198.467161 258.000103,130.575578 C258.008034,130.02335 258.462132,129.58211 259.01436,129.590041 C259.566588,129.597972 260.007828,130.052071 259.999897,130.604298 C258.999254,200.278815 160.52715,239.0238 112.298112,190.304571 C92.2347213,167.232722 87.4136314,143.709035 96.10352,124.174599 C103.683257,107.135728 121.014653,95.5244237 138.85333,95 C160.746421,95 172.031766,105.041593 172.031731,123.215969 C171.900561,138.952134 164.068197,147 148.84972,147 Z"/>
    <g transform="translate(124 197)">
      <path fill="#C8CFD3" fill-rule="nonzero" d="M4.5,9 C2.01471863,9 0,6.98528137 0,4.5 C0,2.01471863 2.01471863,0 4.5,0 C6.98528137,0 9,2.01471863 9,4.5 C9,6.98528137 6.98528137,9 4.5,9 Z M4.5,7 C5.88071187,7 7,5.88071187 7,4.5 C7,3.11928813 5.88071187,2 4.5,2 C3.11928813,2 2,3.11928813 2,4.5 C2,5.88071187 3.11928813,7 4.5,7 Z"/>
      <path fill="#FFF" d="M4.5,7 C5.88071187,7 7,5.88071187 7,4.5 C7,3.11928813 5.88071187,2 4.5,2 C3.11928813,2 2,3.11928813 2,4.5 C2,5.88071187 3.11928813,7 4.5,7 Z"/>
    </g>
    <path fill="#DADEE1" d="M123,105 C126.313708,105 129,102.313708 129,99 C129,95.6862915 126.313708,93 123,93 C119.686292,93 117,95.6862915 117,99 C117,102.313708 119.686292,105 123,105 Z"/>
    <path fill="#173145" fill-opacity=".08" d="M115.665054,96 C116.620704,99.3362708 119.543107,101.764195 123,101.764195 C126.456893,101.764195 129.379296,99.3362708 130.334946,96 C130.445508,96.3709238 130.555304,96.7599136 130.664996,97.1676991 C132.368328,103.499934 127.23326,108 123,108 C118.76674,108 113.631672,103.499934 115.335004,97.1676991 C115.444696,96.7599136 115.554492,96.3709238 115.665054,96 Z"/>
    <path fill="#BAC2C7" fill-rule="nonzero" d="M8,14 C11.3137085,14 14,11.3137085 14,8 C14,4.6862915 11.3137085,2 8,2 C4.6862915,2 2,4.6862915 2,8 C2,11.3137085 4.6862915,14 8,14 Z M8,16 C3.581722,16 0,12.418278 0,8 C0,3.581722 3.581722,0 8,0 C12.418278,0 16,3.581722 16,8 C16,12.418278 12.418278,16 8,16 Z" transform="translate(115 91)"/>
    <path fill="#C8CFD3" fill-rule="nonzero" d="M229,194 C225.134007,194 222,190.865993 222,187 C222,183.134007 225.134007,180 229,180 C232.865993,180 236,183.134007 236,187 C236,190.865993 232.865993,194 229,194 Z M229,192 C231.761424,192 234,189.761424 234,187 C234,184.238576 231.761424,182 229,182 C226.238576,182 224,184.238576 224,187 C224,189.761424 226.238576,192 229,192 Z"/>
    <path fill="#FFF" d="M229,192 C231.761424,192 234,189.761424 234,187 C234,184.238576 231.761424,182 229,182 C226.238576,182 224,184.238576 224,187 C224,189.761424 226.238576,192 229,192 Z"/>
    <g transform="translate(87 151)">
      <path fill="#C8CFD3" fill-rule="nonzero" d="M7,14 C3.13400675,14 0,10.8659932 0,7 C0,3.13400675 3.13400675,0 7,0 C10.8659932,0 14,3.13400675 14,7 C14,10.8659932 10.8659932,14 7,14 Z M7,12 C9.76142375,12 12,9.76142375 12,7 C12,4.23857625 9.76142375,2 7,2 C4.23857625,2 2,4.23857625 2,7 C2,9.76142375 4.23857625,12 7,12 Z"/>
      <path fill="#FFF" d="M7,12 C9.76142375,12 12,9.76142375 12,7 C12,4.23857625 9.76142375,2 7,2 C4.23857625,2 2,4.23857625 2,7 C2,9.76142375 4.23857625,12 7,12 Z"/>
    </g>
    <path fill="#173145" fill-opacity=".08" fill-rule="nonzero" d="M96.9543945,109.625678 C96.680731,109.662595 96.4289554,109.470674 96.3920379,109.197011 C96.3551205,108.923347 96.5470411,108.671572 96.8207046,108.634654 C111.934731,106.595759 119.41085,99.1428511 119.41085,86.1783468 C119.41085,66.418506 106.228752,54.5 83.8916198,54.4997027 C65.8370747,55.1225986 49.1280978,66.5527799 41.6645926,83.6859414 C33.2857129,102.92043 37.2977597,126.44914 55.2410829,149.739124 C73.4265122,173.343356 109.758535,178.641927 145.51497,165.545101 C181.702132,152.29051 207.036718,124.029414 207.500052,91.8794007 C207.504031,91.603287 207.731091,91.3826784 208.007205,91.3866577 C208.283319,91.3906369 208.503927,91.6176971 208.499948,91.8938108 C208.029892,124.510267 182.401222,153.099417 145.858903,166.484095 C109.732454,179.716449 72.940293,174.350773 54.4489185,150.349432 C36.2930212,126.783532 32.2157954,102.872578 40.7478027,83.2865717 C48.3647963,65.8010632 65.4163732,54.1365181 83.8743797,53.5 C106.759818,53.5 120.41085,65.8424897 120.41085,86.1783468 C120.41085,99.6751168 112.538102,107.523422 96.9543945,109.625678 Z" transform="rotate(-180 122.487 113.522)"/>
    <g transform="translate(161 53)">
      <path fill="#FFF" d="M7.5,13 C10.5375661,13 13,10.5375661 13,7.5 C13,4.46243388 10.5375661,2 7.5,2 C4.46243388,2 2,4.46243388 2,7.5 C2,10.5375661 4.46243388,13 7.5,13 Z"/>
      <path fill="#173145" fill-opacity=".08" d="M1.58192227,6 C2.41811579,8.78022566 4.97521894,10.8034956 8,10.8034956 C11.0247811,10.8034956 13.5818842,8.78022566 14.4180777,6 C14.5148195,6.30910313 14.6108908,6.63326132 14.7068712,6.97308262 C16.197287,12.2499453 11.7041027,16 8,16 C4.29589734,16 -0.197286968,12.2499453 1.29312884,6.97308262 C1.38910918,6.63326132 1.48518049,6.30910313 1.58192227,6 Z"/>
      <path fill="#C8CFD3" fill-rule="nonzero" d="M7.5,15 C3.35786438,15 0,11.6421356 0,7.5 C0,3.35786438 3.35786438,0 7.5,0 C11.6421356,0 15,3.35786438 15,7.5 C15,11.6421356 11.6421356,15 7.5,15 Z M7.5,13 C10.5375661,13 13,10.5375661 13,7.5 C13,4.46243388 10.5375661,2 7.5,2 C4.46243388,2 2,4.46243388 2,7.5 C2,10.5375661 4.46243388,13 7.5,13 Z"/>
    </g>
    <g transform="translate(41 92)">
      <path fill="#C8CFD3" fill-rule="nonzero" d="M7,14 C3.13400675,14 0,10.8659932 0,7 C0,3.13400675 3.13400675,0 7,0 C10.8659932,0 14,3.13400675 14,7 C14,10.8659932 10.8659932,14 7,14 Z M7,12 C9.76142375,12 12,9.76142375 12,7 C12,4.23857625 9.76142375,2 7,2 C4.23857625,2 2,4.23857625 2,7 C2,9.76142375 4.23857625,12 7,12 Z"/>
      <path fill="#FFF" d="M7,12 C9.76142375,12 12,9.76142375 12,7 C12,4.23857625 9.76142375,2 7,2 C4.23857625,2 2,4.23857625 2,7 C2,9.76142375 4.23857625,12 7,12 Z"/>
    </g>
    <path fill="#DADEE1" fill-rule="nonzero" d="M86,64.4746717 C86,61.8759284 88.0720065,59.7692308 90.648695,59.7692308 L91.351305,59.7692308 C93.9187084,59.7692308 96,61.8812163 96,64.4746717 L96,67.6353121 C96,69.2752455 93.4079746,70 91.2012384,70 C88.9945022,70 86,69.1746927 86,67.5403377 L86,64.4746717 Z M90.985119,59.3879599 C88.6403112,59.3879599 86.7394689,57.5102511 86.7394689,55.1939799 C86.7394689,52.8777088 88.6403112,51 90.985119,51 C93.3299269,51 95.2307692,52.8777088 95.2307692,55.1939799 C95.2307692,57.5102511 93.3299269,59.3879599 90.985119,59.3879599 Z"/>
    <path fill="#FFF" d="M88.5171774 67.5266203C89.2482914 67.8196612 90.284062 68 91.2012384 68 92.1208977 68 93.0424676 67.8441584 93.6567987 67.5873602 93.807254 67.524468 93.9223846 67.462718 94 67.4112242L94 64.4746717C94 62.9782216 92.8065156 61.7692308 91.351305 61.7692308L90.648695 61.7692308C89.1858778 61.7692308 88 62.9712428 88 64.4746717L88 67.2632403C88.1150332 67.3427948 88.2905798 67.4357967 88.5171774 67.5266203zM90.985119 57.3879599C92.2308022 57.3879599 93.2307692 56.4001626 93.2307692 55.1939799 93.2307692 53.9877973 92.2308022 53 90.985119 53 89.7394359 53 88.7394689 53.9877973 88.7394689 55.1939799 88.7394689 56.4001626 89.7394359 57.3879599 90.985119 57.3879599z"/>
    <path fill="#DADEE1" fill-rule="nonzero" d="M205.517177,117.52662 C206.248291,117.819661 207.284062,118 208.201238,118 C209.120898,118 210.042468,117.844158 210.656799,117.58736 C210.807254,117.524468 210.922385,117.462718 211,117.411224 L211,114.474672 C211,112.978222 209.806516,111.769231 208.351305,111.769231 L207.648695,111.769231 C206.185878,111.769231 205,112.971243 205,114.474672 L205,117.26324 C205.115033,117.342795 205.29058,117.435797 205.517177,117.52662 Z M203,114.474672 C203,111.875928 205.072006,109.769231 207.648695,109.769231 L208.351305,109.769231 C210.918708,109.769231 213,111.881216 213,114.474672 L213,117.635312 C213,119.275245 210.407975,120 208.201238,120 C205.994502,120 203,119.174693 203,117.540338 L203,114.474672 Z M207.985119,107.38796 C209.230802,107.38796 210.230769,106.400163 210.230769,105.19398 C210.230769,103.987797 209.230802,103 207.985119,103 C206.739436,103 205.739469,103.987797 205.739469,105.19398 C205.739469,106.400163 206.739436,107.38796 207.985119,107.38796 Z M207.985119,109.38796 C205.640311,109.38796 203.739469,107.510251 203.739469,105.19398 C203.739469,102.877709 205.640311,101 207.985119,101 C210.329927,101 212.230769,102.877709 212.230769,105.19398 C212.230769,107.510251 210.329927,109.38796 207.985119,109.38796 Z"/>
    <path fill="#FFF" d="M205.517177 117.52662C206.248291 117.819661 207.284062 118 208.201238 118 209.120898 118 210.042468 117.844158 210.656799 117.58736 210.807254 117.524468 210.922385 117.462718 211 117.411224L211 114.474672C211 112.978222 209.806516 111.769231 208.351305 111.769231L207.648695 111.769231C206.185878 111.769231 205 112.971243 205 114.474672L205 117.26324C205.115033 117.342795 205.29058 117.435797 205.517177 117.52662zM207.985119 107.38796C209.230802 107.38796 210.230769 106.400163 210.230769 105.19398 210.230769 103.987797 209.230802 103 207.985119 103 206.739436 103 205.739469 103.987797 205.739469 105.19398 205.739469 106.400163 206.739436 107.38796 207.985119 107.38796z"/>
    <path fill="#B4BDC3" fill-rule="nonzero" d="M155,212.729831 C155,209.310432 157.693608,206.538462 161.043303,206.538462 L161.956697,206.538462 C165.294321,206.538462 168,209.31739 168,212.729831 L168,216.888569 C168,219.046376 164.630367,220 161.76161,220 C158.892853,220 155,218.914069 155,216.763602 L155,212.729831 Z M161.480655,206.036789 C158.432405,206.036789 155.96131,203.56612 155.96131,200.518395 C155.96131,197.470669 158.432405,195 161.480655,195 C164.528905,195 167,197.470669 167,200.518395 C167,203.56612 164.528905,206.036789 161.480655,206.036789 Z"/>
    <path fill="#FFF" d="M157.057597 216.752671C157.243948 216.936492 157.587578 217.144542 158.056872 217.334927 159.07983 217.749923 160.498906 218 161.76161 218 163.028732 218 164.301175 217.782211 165.177289 217.411536 165.821393 217.139022 166 216.944513 166 216.888569L166 212.729831C166 210.408529 164.176071 208.538462 161.956697 208.538462L161.043303 208.538462C158.813961 208.538462 157 210.399434 157 212.729831L157 216.719138C157.002445 216.703183 157.013703 216.709373 157.057597 216.752671zM161.480655 204.036789C163.424413 204.036789 165 202.461473 165 200.518395 165 198.575316 163.424413 197 161.480655 197 159.536897 197 157.96131 198.575316 157.96131 200.518395 157.96131 202.461473 159.536897 204.036789 161.480655 204.036789z"/>
    <path fill="#C8CFD3" fill-rule="nonzero" d="M125.5,60 C122.462434,60 120,57.5375661 120,54.5 C120,51.4624339 122.462434,49 125.5,49 C128.537566,49 131,51.4624339 131,54.5 C131,57.5375661 128.537566,60 125.5,60 Z"/>
    <path fill="#E6E9EC" d="M125.5,58 C127.432997,58 129,56.4329966 129,54.5 C129,52.5670034 127.432997,51 125.5,51 C123.567003,51 122,52.5670034 122,54.5 C122,56.4329966 123.567003,58 125.5,58 Z"/>
    <path fill="#C8CFD3" fill-rule="nonzero" d="M258.5,135 C260.432997,135 262,133.432997 262,131.5 C262,129.567003 260.432997,128 258.5,128 C256.567003,128 255,129.567003 255,131.5 C255,133.432997 256.567003,135 258.5,135 Z M258.5,137 C255.462434,137 253,134.537566 253,131.5 C253,128.462434 255.462434,126 258.5,126 C261.537566,126 264,128.462434 264,131.5 C264,134.537566 261.537566,137 258.5,137 Z"/>
    <path fill="#E6E9EC" d="M258.5,135 C260.432997,135 262,133.432997 262,131.5 C262,129.567003 260.432997,128 258.5,128 C256.567003,128 255,129.567003 255,131.5 C255,133.432997 256.567003,135 258.5,135 Z"/>
    <path fill="#173145" fill-opacity=".235" fill-rule="nonzero" d="M45.5 184C47.4329966 184 49 182.432997 49 180.5 49 178.567003 47.4329966 177 45.5 177 43.5670034 177 42 178.567003 42 180.5 42 182.432997 43.5670034 184 45.5 184zM45.5 186C42.4624339 186 40 183.537566 40 180.5 40 177.462434 42.4624339 175 45.5 175 48.5375661 175 51 177.462434 51 180.5 51 183.537566 48.5375661 186 45.5 186zM236.5 9C238.432997 9 240 7.43299662 240 5.5 240 3.56700338 238.432997 2 236.5 2 234.567003 2 233 3.56700338 233 5.5 233 7.43299662 234.567003 9 236.5 9zM236.5 11C233.462434 11 231 8.53756612 231 5.5 231 2.46243388 233.462434 0 236.5 0 239.537566 0 242 2.46243388 242 5.5 242 8.53756612 239.537566 11 236.5 11zM136.5 44C134.014719 44 132 41.9852814 132 39.5 132 37.0147186 134.014719 35 136.5 35 138.985281 35 141 37.0147186 141 39.5 141 41.9852814 138.985281 44 136.5 44zM136.5 42C137.880712 42 139 40.8807119 139 39.5 139 38.1192881 137.880712 37 136.5 37 135.119288 37 134 38.1192881 134 39.5 134 40.8807119 135.119288 42 136.5 42zM146.5 69C144.014719 69 142 66.9852814 142 64.5 142 62.0147186 144.014719 60 146.5 60 148.985281 60 151 62.0147186 151 64.5 151 66.9852814 148.985281 69 146.5 69zM146.5 67C147.880712 67 149 65.8807119 149 64.5 149 63.1192881 147.880712 62 146.5 62 145.119288 62 144 63.1192881 144 64.5 144 65.8807119 145.119288 67 146.5 67zM176.5 114C174.014719 114 172 111.985281 172 109.5 172 107.014719 174.014719 105 176.5 105 178.985281 105 181 107.014719 181 109.5 181 111.985281 178.985281 114 176.5 114zM176.5 112C177.880712 112 179 110.880712 179 109.5 179 108.119288 177.880712 107 176.5 107 175.119288 107 174 108.119288 174 109.5 174 110.880712 175.119288 112 176.5 112z"/>
    <g transform="translate(147 141)">
      <path fill="#C8CFD3" fill-rule="nonzero" d="M4.5,9 C2.01471863,9 0,6.98528137 0,4.5 C0,2.01471863 2.01471863,0 4.5,0 C6.98528137,0 9,2.01471863 9,4.5 C9,6.98528137 6.98528137,9 4.5,9 Z M4.5,7 C5.88071187,7 7,5.88071187 7,4.5 C7,3.11928813 5.88071187,2 4.5,2 C3.11928813,2 2,3.11928813 2,4.5 C2,5.88071187 3.11928813,7 4.5,7 Z"/>
      <path fill="#FFF" d="M4.5,7 C5.88071187,7 7,5.88071187 7,4.5 C7,3.11928813 5.88071187,2 4.5,2 C3.11928813,2 2,3.11928813 2,4.5 C2,5.88071187 3.11928813,7 4.5,7 Z"/>
    </g>
    <g transform="translate(204 127)">
      <path fill="#C8CFD3" fill-rule="nonzero" d="M4.5,9 C2.01471863,9 0,6.98528137 0,4.5 C0,2.01471863 2.01471863,0 4.5,0 C6.98528137,0 9,2.01471863 9,4.5 C9,6.98528137 6.98528137,9 4.5,9 Z M4.5,7 C5.88071187,7 7,5.88071187 7,4.5 C7,3.11928813 5.88071187,2 4.5,2 C3.11928813,2 2,3.11928813 2,4.5 C2,5.88071187 3.11928813,7 4.5,7 Z"/>
      <path fill="#FFF" d="M4.5,7 C5.88071187,7 7,5.88071187 7,4.5 C7,3.11928813 5.88071187,2 4.5,2 C3.11928813,2 2,3.11928813 2,4.5 C2,5.88071187 3.11928813,7 4.5,7 Z"/>
    </g>
    <g transform="translate(135 128)">
      <path fill="#C8CFD3" fill-rule="nonzero" d="M4.5,9 C2.01471863,9 0,6.98528137 0,4.5 C0,2.01471863 2.01471863,0 4.5,0 C6.98528137,0 9,2.01471863 9,4.5 C9,6.98528137 6.98528137,9 4.5,9 Z M4.5,7 C5.88071187,7 7,5.88071187 7,4.5 C7,3.11928813 5.88071187,2 4.5,2 C3.11928813,2 2,3.11928813 2,4.5 C2,5.88071187 3.11928813,7 4.5,7 Z"/>
      <path fill="#FFF" d="M4.5,7 C5.88071187,7 7,5.88071187 7,4.5 C7,3.11928813 5.88071187,2 4.5,2 C3.11928813,2 2,3.11928813 2,4.5 C2,5.88071187 3.11928813,7 4.5,7 Z"/>
    </g>
    <g transform="translate(142 113)">
      <path fill="#C8CFD3" fill-rule="nonzero" d="M4.5,9 C2.01471863,9 0,6.98528137 0,4.5 C0,2.01471863 2.01471863,0 4.5,0 C6.98528137,0 9,2.01471863 9,4.5 C9,6.98528137 6.98528137,9 4.5,9 Z M4.5,7 C5.88071187,7 7,5.88071187 7,4.5 C7,3.11928813 5.88071187,2 4.5,2 C3.11928813,2 2,3.11928813 2,4.5 C2,5.88071187 3.11928813,7 4.5,7 Z"/>
      <path fill="#FFF" d="M4.5,7 C5.88071187,7 7,5.88071187 7,4.5 C7,3.11928813 5.88071187,2 4.5,2 C3.11928813,2 2,3.11928813 2,4.5 C2,5.88071187 3.11928813,7 4.5,7 Z"/>
    </g>
    <path fill="#173145" fill-opacity=".235" fill-rule="nonzero" d="M249.5 185C247.014719 185 245 182.985281 245 180.5 245 178.014719 247.014719 176 249.5 176 251.985281 176 254 178.014719 254 180.5 254 182.985281 251.985281 185 249.5 185zM249.5 183C250.880712 183 252 181.880712 252 180.5 252 179.119288 250.880712 178 249.5 178 248.119288 178 247 179.119288 247 180.5 247 181.880712 248.119288 183 249.5 183zM33.5 111C31.0147186 111 29 108.985281 29 106.5 29 104.014719 31.0147186 102 33.5 102 35.9852814 102 38 104.014719 38 106.5 38 108.985281 35.9852814 111 33.5 111zM33.5 109C34.8807119 109 36 107.880712 36 106.5 36 105.119288 34.8807119 104 33.5 104 32.1192881 104 31 105.119288 31 106.5 31 107.880712 32.1192881 109 33.5 109z"/>
    <path fill="#ABAEAF" fill-rule="nonzero" d="M5.125,126 C5.125,125.447715 5.57271525,125 6.125,125 C6.67728475,125 7.125,125.447715 7.125,126 L7.125,135 C7.125,135.552285 6.67728475,136 6.125,136 C5.57271525,136 5.125,135.552285 5.125,135 L5.125,126 Z"/>
    <path fill="#DADCDD" fill-rule="nonzero" d="M245.125 113C245.125 112.447715 245.572715 112 246.125 112 246.677285 112 247.125 112.447715 247.125 113L247.125 122C247.125 122.552285 246.677285 123 246.125 123 245.572715 123 245.125 122.552285 245.125 122L245.125 113zM322.125 116C322.125 115.447715 322.572715 115 323.125 115 323.677285 115 324.125 115.447715 324.125 116L324.125 125C324.125 125.552285 323.677285 126 323.125 126 322.572715 126 322.125 125.552285 322.125 125L322.125 116zM195.125 49C195.125 48.4477153 195.572715 48 196.125 48 196.677285 48 197.125 48.4477153 197.125 49L197.125 58C197.125 58.5522847 196.677285 59 196.125 59 195.572715 59 195.125 58.5522847 195.125 58L195.125 49zM31.125 163C31.125 162.447715 31.5727153 162 32.125 162 32.6772847 162 33.125 162.447715 33.125 163L33.125 172C33.125 172.552285 32.6772847 173 32.125 173 31.5727153 173 31.125 172.552285 31.125 172L31.125 163z"/>
    <g transform="translate(70 135)">
      <path fill="#DADEE1" d="M5,8 C6.65685425,8 8,6.65685425 8,5 C8,3.34314575 6.65685425,2 5,2 C3.34314575,2 2,3.34314575 2,5 C2,6.65685425 3.34314575,8 5,8 Z"/>
      <path fill="#173145" fill-opacity=".08" d="M0.415658761,3 C1.01293985,5.22418053 2.8394421,6.84279651 5,6.84279651 C7.1605579,6.84279651 8.98706015,5.22418053 9.58434124,3 C9.65344251,3.24728251 9.72206487,3.50660905 9.79062225,3.7784661 C10.855205,7.99995624 7.64578761,11 5,11 C2.35421239,11 -0.855204977,7.99995624 0.209377746,3.7784661 C0.277935128,3.50660905 0.346557492,3.24728251 0.415658761,3 Z"/>
      <path fill="#BAC2C7" fill-rule="nonzero" d="M5,8 C6.65685425,8 8,6.65685425 8,5 C8,3.34314575 6.65685425,2 5,2 C3.34314575,2 2,3.34314575 2,5 C2,6.65685425 3.34314575,8 5,8 Z M5,10 C2.23857625,10 0,7.76142375 0,5 C0,2.23857625 2.23857625,0 5,0 C7.76142375,0 10,2.23857625 10,5 C10,7.76142375 7.76142375,10 5,10 Z"/>
    </g>
    <g transform="translate(216 205)">
      <path fill="#DADEE1" d="M5,8 C6.65685425,8 8,6.65685425 8,5 C8,3.34314575 6.65685425,2 5,2 C3.34314575,2 2,3.34314575 2,5 C2,6.65685425 3.34314575,8 5,8 Z"/>
      <path fill="#173145" fill-opacity=".08" d="M0.415658761,3 C1.01293985,5.22418053 2.8394421,6.84279651 5,6.84279651 C7.1605579,6.84279651 8.98706015,5.22418053 9.58434124,3 C9.65344251,3.24728251 9.72206487,3.50660905 9.79062225,3.7784661 C10.855205,7.99995624 7.64578761,11 5,11 C2.35421239,11 -0.855204977,7.99995624 0.209377746,3.7784661 C0.277935128,3.50660905 0.346557492,3.24728251 0.415658761,3 Z"/>
      <path fill="#BAC2C7" fill-rule="nonzero" d="M5,8 C6.65685425,8 8,6.65685425 8,5 C8,3.34314575 6.65685425,2 5,2 C3.34314575,2 2,3.34314575 2,5 C2,6.65685425 3.34314575,8 5,8 Z M5,10 C2.23857625,10 0,7.76142375 0,5 C0,2.23857625 2.23857625,0 5,0 C7.76142375,0 10,2.23857625 10,5 C10,7.76142375 7.76142375,10 5,10 Z"/>
    </g>
    <g fill="#173145" transform="translate(72 23)">
      <path fill-opacity=".235" fill-rule="nonzero" d="M7.5,15 C3.35786438,15 0,11.6421356 0,7.5 C0,3.35786438 3.35786438,0 7.5,0 C11.6421356,0 15,3.35786438 15,7.5 C15,11.6421356 11.6421356,15 7.5,15 Z M7.5,13 C10.5375661,13 13,10.5375661 13,7.5 C13,4.46243388 10.5375661,2 7.5,2 C4.46243388,2 2,4.46243388 2,7.5 C2,10.5375661 4.46243388,13 7.5,13 Z"/>
      <path fill-opacity=".08" d="M1.58192227,6 C2.41811579,8.78022566 4.97521894,10.8034956 8,10.8034956 C11.0247811,10.8034956 13.5818842,8.78022566 14.4180777,6 C14.5148195,6.30910313 14.6108908,6.63326132 14.7068712,6.97308262 C16.197287,12.2499453 11.7041027,16 8,16 C4.29589734,16 -0.197286968,12.2499453 1.29312884,6.97308262 C1.38910918,6.63326132 1.48518049,6.30910313 1.58192227,6 Z"/>
    </g>
    <g transform="translate(261 104)">
      <path fill="#FFF" d="M7.5,13 C10.5375661,13 13,10.5375661 13,7.5 C13,4.46243388 10.5375661,2 7.5,2 C4.46243388,2 2,4.46243388 2,7.5 C2,10.5375661 4.46243388,13 7.5,13 Z"/>
      <path fill="#173145" fill-opacity=".08" d="M1.58192227,6 C2.41811579,8.78022566 4.97521894,10.8034956 8,10.8034956 C11.0247811,10.8034956 13.5818842,8.78022566 14.4180777,6 C14.5148195,6.30910313 14.6108908,6.63326132 14.7068712,6.97308262 C16.197287,12.2499453 11.7041027,16 8,16 C4.29589734,16 -0.197286968,12.2499453 1.29312884,6.97308262 C1.38910918,6.63326132 1.48518049,6.30910313 1.58192227,6 Z"/>
      <path fill="#C8CFD3" fill-rule="nonzero" d="M7.5,15 C3.35786438,15 0,11.6421356 0,7.5 C0,3.35786438 3.35786438,0 7.5,0 C11.6421356,0 15,3.35786438 15,7.5 C15,11.6421356 11.6421356,15 7.5,15 Z M7.5,13 C10.5375661,13 13,10.5375661 13,7.5 C13,4.46243388 10.5375661,2 7.5,2 C4.46243388,2 2,4.46243388 2,7.5 C2,10.5375661 4.46243388,13 7.5,13 Z"/>
    </g>
    <g transform="translate(242 85)">
      <path fill="#DADEE1" d="M4,7 C5.65685425,7 7,5.65685425 7,4 C7,2.34314575 5.65685425,1 4,1 C2.34314575,1 1,2.34314575 1,4 C1,5.65685425 2.34314575,7 4,7 Z"/>
      <path fill="#173145" fill-opacity=".08" d="M1.29096113,3 C1.7090579,4.39011283 2.98760947,5.40174782 4.5,5.40174782 C6.01239053,5.40174782 7.2909421,4.39011283 7.70903887,3 C7.75740976,3.15455157 7.80544541,3.31663066 7.85343558,3.48654131 C8.59864348,6.12497265 6.35205133,8 4.5,8 C2.64794867,8 0.401356516,6.12497265 1.14656442,3.48654131 C1.19455459,3.31663066 1.24259024,3.15455157 1.29096113,3 Z"/>
      <path fill="#C8CFD3" fill-rule="nonzero" d="M4,8 C1.790861,8 0,6.209139 0,4 C0,1.790861 1.790861,0 4,0 C6.209139,0 8,1.790861 8,4 C8,6.209139 6.209139,8 4,8 Z M4,6.48333333 C5.37150713,6.48333333 6.48333333,5.37150713 6.48333333,4 C6.48333333,2.62849287 5.37150713,1.51666667 4,1.51666667 C2.62849287,1.51666667 1.51666667,2.62849287 1.51666667,4 C1.51666667,5.37150713 2.62849287,6.48333333 4,6.48333333 Z"/>
    </g>
    <g transform="translate(215 12)">
      <path fill="#FFF" d="M7.5,13 C10.5375661,13 13,10.5375661 13,7.5 C13,4.46243388 10.5375661,2 7.5,2 C4.46243388,2 2,4.46243388 2,7.5 C2,10.5375661 4.46243388,13 7.5,13 Z"/>
      <path fill="#173145" fill-opacity=".08" d="M1.58192227,6 C2.41811579,8.78022566 4.97521894,10.8034956 8,10.8034956 C11.0247811,10.8034956 13.5818842,8.78022566 14.4180777,6 C14.5148195,6.30910313 14.6108908,6.63326132 14.7068712,6.97308262 C16.197287,12.2499453 11.7041027,16 8,16 C4.29589734,16 -0.197286968,12.2499453 1.29312884,6.97308262 C1.38910918,6.63326132 1.48518049,6.30910313 1.58192227,6 Z"/>
      <path fill="#C8CFD3" fill-rule="nonzero" d="M7.5,15 C3.35786438,15 0,11.6421356 0,7.5 C0,3.35786438 3.35786438,0 7.5,0 C11.6421356,0 15,3.35786438 15,7.5 C15,11.6421356 11.6421356,15 7.5,15 Z M7.5,13 C10.5375661,13 13,10.5375661 13,7.5 C13,4.46243388 10.5375661,2 7.5,2 C4.46243388,2 2,4.46243388 2,7.5 C2,10.5375661 4.46243388,13 7.5,13 Z"/>
    </g>
    <path fill="#39ABBB" fill-rule="nonzero" d="M48.625 25C48.625 24.4477153 49.0727153 24 49.625 24 50.1772847 24 50.625 24.4477153 50.625 25L50.625 30C50.625 30.5522847 50.1772847 31 49.625 31 49.0727153 31 48.625 30.5522847 48.625 30L48.625 25zM255.625 66C255.625 65.4477153 256.072715 65 256.625 65 257.177285 65 257.625 65.4477153 257.625 66L257.625 71C257.625 71.5522847 257.177285 72 256.625 72 256.072715 72 255.625 71.5522847 255.625 71L255.625 66zM280.125 161C280.125 160.447715 280.572715 160 281.125 160 281.677285 160 282.125 160.447715 282.125 161L282.125 170C282.125 170.552285 281.677285 171 281.125 171 280.572715 171 280.125 170.552285 280.125 170L280.125 161z"/>
    <path fill="#ABAEAF" fill-rule="nonzero" d="M5.125,126 C5.125,125.447715 5.57271525,125 6.125,125 C6.67728475,125 7.125,125.447715 7.125,126 L7.125,135 C7.125,135.552285 6.67728475,136 6.125,136 C5.57271525,136 5.125,135.552285 5.125,135 L5.125,126 Z" transform="rotate(90 6.125 130.5)"/>
    <path fill="#DADCDD" fill-rule="nonzero" d="M245.125,113 C245.125,112.447715 245.572715,112 246.125,112 C246.677285,112 247.125,112.447715 247.125,113 L247.125,122 C247.125,122.552285 246.677285,123 246.125,123 C245.572715,123 245.125,122.552285 245.125,122 L245.125,113 Z" transform="rotate(90 246.125 117.5)"/>
    <path fill="#DADCDD" fill-rule="nonzero" d="M322.125,116 C322.125,115.447715 322.572715,115 323.125,115 C323.677285,115 324.125,115.447715 324.125,116 L324.125,125 C324.125,125.552285 323.677285,126 323.125,126 C322.572715,126 322.125,125.552285 322.125,125 L322.125,116 Z" transform="rotate(90 323.125 120.5)"/>
    <path fill="#DADCDD" fill-rule="nonzero" d="M195.125,49 C195.125,48.4477153 195.572715,48 196.125,48 C196.677285,48 197.125,48.4477153 197.125,49 L197.125,58 C197.125,58.5522847 196.677285,59 196.125,59 C195.572715,59 195.125,58.5522847 195.125,58 L195.125,49 Z" transform="rotate(90 196.125 53.5)"/>
    <path fill="#DADCDD" fill-rule="nonzero" d="M31.125,163 C31.125,162.447715 31.5727153,162 32.125,162 C32.6772847,162 33.125,162.447715 33.125,163 L33.125,172 C33.125,172.552285 32.6772847,173 32.125,173 C31.5727153,173 31.125,172.552285 31.125,172 L31.125,163 Z" transform="rotate(90 32.125 167.5)"/>
    <path fill="#39ABBB" fill-rule="nonzero" d="M48.625,25 C48.625,24.4477153 49.0727153,24 49.625,24 C50.1772847,24 50.625,24.4477153 50.625,25 L50.625,30 C50.625,30.5522847 50.1772847,31 49.625,31 C49.0727153,31 48.625,30.5522847 48.625,30 L48.625,25 Z" transform="rotate(90 49.625 27.5)"/>
    <path fill="#39ABBB" fill-rule="nonzero" d="M255.625,66 C255.625,65.4477153 256.072715,65 256.625,65 C257.177285,65 257.625,65.4477153 257.625,66 L257.625,71 C257.625,71.5522847 257.177285,72 256.625,72 C256.072715,72 255.625,71.5522847 255.625,71 L255.625,66 Z" transform="rotate(90 256.625 68.5)"/>
    <path fill="#39ABBB" fill-rule="nonzero" d="M280.125,161 C280.125,160.447715 280.572715,160 281.125,160 C281.677285,160 282.125,160.447715 282.125,161 L282.125,170 C282.125,170.552285 281.677285,171 281.125,171 C280.572715,171 280.125,170.552285 280.125,170 L280.125,161 Z" transform="rotate(90 281.125 165.5)"/>
    <path fill="#DADEE1" d="M156,136 C159.313708,136 162,133.313708 162,130 C162,126.686292 159.313708,124 156,124 C152.686292,124 150,126.686292 150,130 C150,133.313708 152.686292,136 156,136 Z"/>
    <path fill="#173145" fill-opacity=".08" d="M148.665054,127 C149.620704,130.336271 152.543107,132.764195 156,132.764195 C159.456893,132.764195 162.379296,130.336271 163.334946,127 C163.445508,127.370924 163.555304,127.759914 163.664996,128.167699 C165.368328,134.499934 160.23326,139 156,139 C151.76674,139 146.631672,134.499934 148.335004,128.167699 C148.444696,127.759914 148.554492,127.370924 148.665054,127 Z"/>
    <path fill="#BAC2C7" fill-rule="nonzero" d="M156,136 C159.313708,136 162,133.313708 162,130 C162,126.686292 159.313708,124 156,124 C152.686292,124 150,126.686292 150,130 C150,133.313708 152.686292,136 156,136 Z M156,138 C151.581722,138 148,134.418278 148,130 C148,125.581722 151.581722,122 156,122 C160.418278,122 164,125.581722 164,130 C164,134.418278 160.418278,138 156,138 Z"/>
    <g transform="translate(33 129)">
      <path fill="#C8CFD3" fill-rule="nonzero" d="M4.5,9 C2.01471863,9 0,6.98528137 0,4.5 C0,2.01471863 2.01471863,0 4.5,0 C6.98528137,0 9,2.01471863 9,4.5 C9,6.98528137 6.98528137,9 4.5,9 Z M4.5,7 C5.88071187,7 7,5.88071187 7,4.5 C7,3.11928813 5.88071187,2 4.5,2 C3.11928813,2 2,3.11928813 2,4.5 C2,5.88071187 3.11928813,7 4.5,7 Z"/>
      <path fill="#FFF" d="M4.5,7 C5.88071187,7 7,5.88071187 7,4.5 C7,3.11928813 5.88071187,2 4.5,2 C3.11928813,2 2,3.11928813 2,4.5 C2,5.88071187 3.11928813,7 4.5,7 Z"/>
    </g>
  </g>
</svg>
