<svg xmlns="http://www.w3.org/2000/svg" width="294" height="208" viewBox="0 0 294 208">
  <g fill="none" fill-rule="evenodd" transform="translate(-2 -22)">
    <path fill="#ABAEAF" fill-rule="nonzero" d="M258.5,113 C258.5,112.447715 258.947715,112 259.5,112 C260.052285,112 260.5,112.447715 260.5,113 L260.5,122 C260.5,122.552285 260.052285,123 259.5,123 C258.947715,123 258.5,122.552285 258.5,122 L258.5,113 Z"/>
    <path fill="#ABAEAF" fill-rule="nonzero" d="M258.5,113 C258.5,112.447715 258.947715,112 259.5,112 C260.052285,112 260.5,112.447715 260.5,113 L260.5,122 C260.5,122.552285 260.052285,123 259.5,123 C258.947715,123 258.5,122.552285 258.5,122 L258.5,113 Z" transform="rotate(90 259.5 117.5)"/>
    <path fill="#173145" fill-opacity=".08" fill-rule="nonzero" d="M127.787559,204.638586 C127.511416,204.638586 127.287559,204.414729 127.287559,204.138586 C127.287559,203.862444 127.511416,203.638586 127.787559,203.638586 C169.162662,203.638586 202.70381,170.097438 202.70381,128.722336 C202.70381,87.3472327 169.162662,53.8060847 127.787559,53.8060847 C86.4124559,53.8060847 52.8713079,87.3472327 52.8713079,128.722336 C52.8713079,141.338664 55.9929881,153.502698 61.870304,164.352818 C62.0018289,164.595626 61.9116159,164.899083 61.6688077,165.030608 C61.4259995,165.162133 61.1225426,165.07192 60.9910177,164.829111 C55.0349626,153.833631 51.8713079,141.506038 51.8713079,128.722336 C51.8713079,86.794948 85.8601712,52.8060847 127.787559,52.8060847 C169.714946,52.8060847 203.70381,86.794948 203.70381,128.722336 C203.70381,170.649723 169.714946,204.638586 127.787559,204.638586 Z" transform="rotate(-150 127.788 128.722)"/>
    <path fill="#FFF" d="M197,167 C202.522847,167 207,162.522847 207,157 C207,151.477153 202.522847,147 197,147 C191.477153,147 187,151.477153 187,157 C187,162.522847 191.477153,167 197,167 Z"/>
    <g transform="translate(185 145)">
      <path fill="#173145" fill-opacity=".08" d="M1.68113949,10.5545604 C3.18268547,14.3225406 7.00187151,17 11.4761905,17 C16.5911298,17 20.8499061,13.5009513 21.7687904,8.87368582 C22.0289918,9.61462381 22.2843847,10.4190831 22.539369,11.2915254 C24.881451,19.3050847 17.8207327,25 12,25 C6.17926725,25 -0.88145095,19.3050847 1.46063104,11.2915254 C1.53406494,11.0402674 1.60753272,10.7946479 1.68113949,10.5545604 Z"/>
      <path fill="#C8CFD3" fill-rule="nonzero" d="M12,22 C17.5228475,22 22,17.5228475 22,12 C22,6.4771525 17.5228475,2 12,2 C6.4771525,2 2,6.4771525 2,12 C2,17.5228475 6.4771525,22 12,22 Z M12,24 C5.372583,24 0,18.627417 0,12 C0,5.372583 5.372583,0 12,0 C18.627417,0 24,5.372583 24,12 C24,18.627417 18.627417,24 12,24 Z"/>
    </g>
    <path fill="#173145" fill-opacity=".08" fill-rule="nonzero" d="M127.501738,178.745699 C126.949453,178.745699 126.501738,178.297984 126.501738,177.745699 C126.501738,177.193414 126.949453,176.745699 127.501738,176.745699 C153.041572,176.745699 173.745699,156.041572 173.745699,130.501738 C173.745699,104.961903 153.041572,84.2577763 127.501738,84.2577763 C101.961903,84.2577763 81.2577763,104.961903 81.2577763,130.501738 C81.2577763,138.290196 83.184503,145.797937 86.8122283,152.495086 C87.075278,152.980702 86.8948521,153.587616 86.4092357,153.850666 C85.9236193,154.113715 85.3167055,153.933289 85.0536557,153.447673 C81.2684519,146.459803 79.2577763,138.624944 79.2577763,130.501738 C79.2577763,103.857334 100.857334,82.2577763 127.501738,82.2577763 C154.146142,82.2577763 175.745699,103.857334 175.745699,130.501738 C175.745699,157.146142 154.146142,178.745699 127.501738,178.745699 Z" transform="rotate(59 127.502 130.502)"/>
    <g transform="translate(108 110)">
      <path fill="#FFF" d="M21,39 C31.4989972,39 40,30.7115223 40,20.5 C40,10.2884777 31.4989972,2 21,2 C10.5010028,2 2,10.2884777 2,20.5 C2,30.7115223 10.5010028,39 21,39 Z"/>
      <ellipse cx="21" cy="24.5" fill="#F8F9FA" rx="20" ry="19.5"/>
      <path fill="#173145" fill-opacity=".08" d="M1.63008743,15 C3.85030139,23.2810906 11.6808029,29.4 21,29.4 C30.3191971,29.4 38.1496986,23.2810906 40.3699126,15 C40.781235,16.5341756 41,18.1425621 41,19.8 C41,30.4038672 32.045695,39 21,39 C9.954305,39 1,30.4038672 1,19.8 C1,18.1425621 1.21876502,16.5341756 1.63008743,15 Z"/>
      <path fill="#C8CFD3" fill-rule="nonzero" d="M21,41 C9.4076072,41 0,31.827583 0,20.5 C0,9.17241702 9.4076072,0 21,0 C32.5923928,0 42,9.17241702 42,20.5 C42,31.827583 32.5923928,41 21,41 Z M21,39 C31.4989972,39 40,30.7115223 40,20.5 C40,10.2884777 31.4989972,2 21,2 C10.5010028,2 2,10.2884777 2,20.5 C2,30.7115223 10.5010028,39 21,39 Z"/>
    </g>
    <path fill="#173145" fill-opacity=".08" fill-rule="nonzero" d="M150.02252,228.70616 C149.482767,228.823145 148.950376,228.480425 148.833391,227.940672 C148.716406,227.400919 149.059126,226.868528 149.598879,226.751543 C194.595374,216.999067 227.223622,177.014264 227.223622,130.377521 C227.223622,75.9157219 183.07361,31.7657103 128.611811,31.7657103 C74.1500117,31.7657103 30,75.9157219 30,130.377521 C30,146.984669 34.1089452,162.995709 41.8451232,177.277477 C42.1081729,177.763093 41.9277469,178.370007 41.4421305,178.633057 C40.9565141,178.896107 40.3496003,178.715681 40.0865506,178.230064 C32.1928941,163.657575 28,147.319417 28,130.377521 C28,74.8111524 73.0454422,29.7657103 128.611811,29.7657103 C184.17818,29.7657103 229.223622,74.8111524 229.223622,130.377521 C229.223622,177.960408 195.934327,218.755301 150.02252,228.70616 Z" transform="rotate(110 128.612 129.247)"/>
    <g transform="translate(16 145)">
      <ellipse cx="16" cy="15.5" fill="#F8F9FA" rx="15" ry="14.5"/>
      <path fill="#E7E9EB" d="M4.81944444,7 L7.94444444,8.90909091 C6.32407407,10.6909091 6.32407407,11.3272727 7.94444444,10.8181818 C10.375,10.0545455 12.1111111,9.29090909 12.1111111,10.0545455 C12.1111111,10.8181818 13.5,12.7272727 12.8055556,12.7272727 C12.1111111,12.7272727 10.4513889,13.1090909 9.68055556,13.8727273 C8.90972222,14.6363636 8.90972222,15.4 8.90972222,16.1636364 C8.90972222,16.9272727 8.98611111,21.1272727 9.68055556,21.1272727 C10.375,21.1272727 11.4166667,21.8909091 11.4166667,23.0363636 C11.4166667,23.8 11.1851852,24.8181818 10.7222222,26.0909091 L9.68055556,28 C8.52314815,27.4909091 7.94444444,26.8545455 7.94444444,26.0909091 C7.94444444,24.9454545 7.25,24.9454545 7.25,23.0363636 C7.25,21.1272727 7.94444444,19.6 7.94444444,19.6 C7.94444444,19.6 7.59722222,17.5 6.55555556,17.5 C5.51388889,17.5 6.20833333,18.8363636 4.81944444,17.5 C3.43055556,16.1636364 1,15.4 1,14.6363636 C1,13.8727273 2.73611111,9.67272727 2.73611111,8.90909091 C2.73611111,8.4 3.43055556,7.76363636 4.81944444,7 Z"/>
      <path fill="#173145" fill-opacity=".08" d="M10 2.51969981C10.7058824 4.03939962 11.0588235 4.79924953 11.0588235 4.79924953 11.0588235 4.79924953 14.2352941 6.31894934 14.5882353 5.93902439 14.9411765 5.55909944 15.6470588 5.33864916 16.3529412 4.79924953 17.0588235 4.25984991 19.1764706 4.79924953 19.8823529 4.79924953 20.5882353 4.79924953 22 4.86022514 22 4.25984991 22 3.65947467 22 3.27954972 22 2.89962477 22 2.51969981 21.2941176 1.37992495 20.2352941 1.37992495 19.1764706 1.37992495 15.2941176 1 14.9411765 1 14.5882353 1 12.4705882 1.37992495 12.1176471 1.37992495 11.8823529 1.37992495 11.1764706 1.75984991 10 2.51969981zM21.7715603 11.3489933C22.017652 10.3825503 22.2637437 9.77852349 22.5098355 9.53691275 22.7559272 9.29530201 23.86334 8.81208054 25.8320738 8.08724832 26.3242572 7.84563758 26.6933948 7.60402685 26.9394865 7.36241611 27.1855783 7.12080537 27.5547158 7 28.0468993 7L30.6308624 10.9865772 31 14.2483221 30.6308624 18.5973154C30.138679 17.6308725 29.8925872 17.0268456 29.8925872 16.7852349 29.8925872 16.4228188 29.8925872 15.6979866 29.8925872 14.9731544 29.8925872 14.2483221 28.4160369 13.885906 27.6777617 13.885906 26.9394865 13.885906 25.0937986 14.2483221 25.0937986 14.6107383 25.0937986 14.9731544 24.3555234 15.3355705 24.724661 16.4228188 25.0937986 17.5100671 24.3555234 18.9597315 23.9863858 18.9597315 23.6172482 18.9597315 22.5098355 19.3221477 21.7715603 17.8724832 21.0332851 16.4228188 20.6641475 16.4228188 21.4024227 15.3355705 22.1406979 14.2483221 22.1406979 12.7986577 22.1406979 12.4362416 22.1406979 12.1946309 22.017652 11.8322148 21.7715603 11.3489933zM23.7517161 21.3529412C25.0013075 21.1176471 25.7510623 21 26.0009806 21 26.375858 21 27.8753677 22.0588235 28.2502452 22.0588235 28.5001634 22.0588235 28.7500817 22.1764706 29 22.4117647 27.7504086 24.2941176 27.1256129 25.2352941 27.1256129 25.2352941 27.1256129 25.2352941 25.2512258 27 24.8763484 27 24.5014709 27 23.3768387 27 23.0019612 26.2941176 22.6270838 25.5882353 21.5024516 24.8823529 22.2522064 24 23.0019612 23.1176471 23.3768387 22.0588235 23.3768387 22.0588235 23.3768387 22.0588235 23.5017978 21.8235294 23.7517161 21.3529412z"/>
      <path fill="#173145" fill-opacity=".08" d="M1.28854216,12 C3.14011354,18.1164965 8.80227052,22.5676904 15.5,22.5676904 C22.1977295,22.5676904 27.8598865,18.1164965 29.7114578,12 C29.9256718,12.6800269 30.1384011,13.3931749 30.350929,14.1407818 C33.6511354,25.7498797 23.7019416,34 15.5,34 C7.2980584,34 -2.65113543,25.7498797 0.649071012,14.1407818 C0.861598895,13.3931749 1.07432822,12.6800269 1.28854216,12 Z"/>
      <path fill="#C8CFD3" fill-rule="nonzero" d="M16,31 C7.17088774,31 0,24.0681419 0,15.5 C0,6.93185815 7.17088774,0 16,0 C24.8291123,0 32,6.93185815 32,15.5 C32,24.0681419 24.8291123,31 16,31 Z M16,29 C23.7394302,29 30,22.9481159 30,15.5 C30,8.05188411 23.7394302,2 16,2 C8.26056977,2 2,8.05188411 2,15.5 C2,22.9481159 8.26056977,29 16,29 Z"/>
    </g>
    <path fill="#173145" fill-opacity=".16" fill-rule="nonzero" d="M199,37 C195.134007,37 192,33.8659932 192,30 C192,26.1340068 195.134007,23 199,23 C202.865993,23 206,26.1340068 206,30 C206,33.8659932 202.865993,37 199,37 Z M199,35 C201.761424,35 204,32.7614237 204,30 C204,27.2385763 201.761424,25 199,25 C196.238576,25 194,27.2385763 194,30 C194,32.7614237 196.238576,35 199,35 Z"/>
    <path fill="#113F63" fill-opacity=".03" d="M199,35 C201.761424,35 204,32.7614237 204,30 C204,27.2385763 201.761424,25 199,25 C196.238576,25 194,27.2385763 194,30 C194,32.7614237 196.238576,35 199,35 Z"/>
    <path fill="#EDEFF1" fill-rule="nonzero" d="M105,203.517073 C105,200.138707 107.693608,197.4 111.043303,197.4 L111.956697,197.4 C115.294321,197.4 118,200.145581 118,203.517073 L118,207.625906 C118,209.757819 114.630367,210.7 111.76161,210.7 C108.892853,210.7 105,209.627101 105,207.502439 L105,203.517073 Z M111.480655,196.904348 C108.432405,196.904348 105.96131,194.463326 105.96131,191.452174 C105.96131,188.441021 108.432405,186 111.480655,186 C114.528905,186 117,188.441021 117,191.452174 C117,194.463326 114.528905,196.904348 111.480655,196.904348 Z"/>
    <path fill="#FFF" d="M107.048978 207.466102C107.234836 207.647237 107.579007 207.853114 108.049105 208.041536 109.074279 208.45244 110.496131 208.7 111.76161 208.7 113.031514 208.7 114.306824 208.484339 115.185242 208.11715 115.826293 207.849182 116 207.66228 116 207.625906L116 203.517073C116 201.242039 114.181587 199.4 111.956697 199.4L111.043303 199.4C108.808442 199.4 107 201.233046 107 203.517073L107 207.43688C107.003697 207.426459 107.015538 207.433512 107.048978 207.466102zM111.480655 194.904348C113.42978 194.904348 115 193.353238 115 191.452174 115 189.55111 113.42978 188 111.480655 188 109.531529 188 107.96131 189.55111 107.96131 191.452174 107.96131 193.353238 109.531529 194.904348 111.480655 194.904348z"/>
    <path fill="#DADEE1" fill-rule="nonzero" d="M211.578947,87.2619137 C211.578947,84.7042032 213.618238,82.6307692 216.154242,82.6307692 L216.845758,82.6307692 C219.372623,82.6307692 221.421053,84.7094077 221.421053,87.2619137 L221.421053,90.3726493 C221.421053,91.986689 218.869954,92.7 216.698061,92.7 C214.526168,92.7 211.578947,91.8877239 211.578947,90.2791745 L211.578947,87.2619137 Z M216.485354,82.2555184 C214.177569,82.2555184 212.30674,80.4074577 212.30674,78.1277592 C212.30674,75.8480607 214.177569,74 216.485354,74 C218.793139,74 220.663968,75.8480607 220.663968,78.1277592 C220.663968,80.4074577 218.793139,82.2555184 216.485354,82.2555184 Z"/>
    <path fill="#FFF" d="M214.068129 90.2363616C214.783766 90.5231991 215.799216 90.7 216.698061 90.7 217.599286 90.7 218.502238 90.5473067 219.10267 90.2963187 219.240476 90.2387139 219.3472 90.1823975 219.421053 90.1350777L219.421053 87.2619137C219.421053 85.8064418 218.260459 84.6307692 216.845758 84.6307692L216.154242 84.6307692C214.732059 84.6307692 213.578947 85.799569 213.578947 87.2619137L213.578947 89.9898121C213.689826 90.0643676 213.855661 90.1512015 214.068129 90.2363616zM216.485354 80.2555184C217.694014 80.2555184 218.663968 79.2973691 218.663968 78.1277592 218.663968 76.9581493 217.694014 76 216.485354 76 215.276694 76 214.30674 76.9581493 214.30674 78.1277592 214.30674 79.2973691 215.276694 80.2555184 216.485354 80.2555184z"/>
    <path fill="#173145" fill-opacity=".235" fill-rule="nonzero" d="M58 43.7722326L58 48.7257036C58 49.4592433 61.0955904 50.7 64.4041062 50.7 66.0426897 50.7 67.6903579 50.4213719 68.8467619 49.9379804 69.8050066 49.537422 70.1578947 49.157727 70.1578947 48.8791622L70.1578947 43.7722326C70.1578947 40.6776355 67.6816626 38.1692308 64.6465823 38.1692308L63.5113124 38.1692308C60.4637723 38.1692308 58 40.6665235 58 43.7722326zM56 43.7722326C56 39.5732107 59.3479262 36.1692308 63.5113124 36.1692308L64.6465823 36.1692308C68.7949656 36.1692308 72.1578947 39.5817548 72.1578947 43.7722326L72.1578947 48.8791622C72.1578947 51.5289492 67.9697273 52.7 64.4041062 52.7 60.8384851 52.7 56 51.3664772 56 48.7257036L56 43.7722326zM64.0549029 33.5531773C66.744494 33.5531773 68.9149798 31.4091067 68.9149798 28.7765886 68.9149798 26.1440706 66.744494 24 64.0549029 24 61.3653118 24 59.194826 26.1440706 59.194826 28.7765886 59.194826 31.4091067 61.3653118 33.5531773 64.0549029 33.5531773zM64.0549029 35.5531773C60.266187 35.5531773 57.194826 32.5191952 57.194826 28.7765886 57.194826 25.0339821 60.266187 22 64.0549029 22 67.8436187 22 70.9149798 25.0339821 70.9149798 28.7765886 70.9149798 32.5191952 67.8436187 35.5531773 64.0549029 35.5531773zM224 224C219.581722 224 216 220.418278 216 216 216 211.581722 219.581722 208 224 208 228.418278 208 232 211.581722 232 216 232 220.418278 228.418278 224 224 224zM224 222C227.313708 222 230 219.313708 230 216 230 212.686292 227.313708 210 224 210 220.686292 210 218 212.686292 218 216 218 219.313708 220.686292 222 224 222z"/>
    <path fill="#C8CFD3" fill-rule="nonzero" d="M110,97 C104.477153,97 100,92.5228475 100,87 C100,81.4771525 104.477153,77 110,77 C115.522847,77 120,81.4771525 120,87 C120,92.5228475 115.522847,97 110,97 Z"/>
    <path fill="#FFF" fill-opacity=".394" d="M110,95 C114.418278,95 118,91.418278 118,87 C118,82.581722 114.418278,79 110,79 C105.581722,79 102,82.581722 102,87 C102,91.418278 105.581722,95 110,95 Z"/>
    <path fill="#173145" fill-opacity=".08" d="M101.780886,85 C102.90298,88.7069135 106.334376,91.4045674 110.393352,91.4045674 C114.452328,91.4045674 117.883723,88.7069135 119.005818,85 C119.135636,85.4121315 119.264555,85.8443361 119.393352,86.2974246 C121.393352,93.3331389 115.363915,98.3331389 110.393352,98.3331389 C105.422789,98.3331389 99.3933518,93.3331389 101.393352,86.2974246 C101.522148,85.8443361 101.651067,85.4121315 101.780886,85 Z"/>
    <path fill="#DADCDD" fill-rule="nonzero" d="M32.5,87 C32.5,86.4477153 32.9477153,86 33.5,86 C34.0522847,86 34.5,86.4477153 34.5,87 L34.5,96 C34.5,96.5522847 34.0522847,97 33.5,97 C32.9477153,97 32.5,96.5522847 32.5,96 L32.5,87 Z"/>
    <path fill="#DADCDD" fill-rule="nonzero" d="M32.5,87 C32.5,86.4477153 32.9477153,86 33.5,86 C34.0522847,86 34.5,86.4477153 34.5,87 L34.5,96 C34.5,96.5522847 34.0522847,97 33.5,97 C32.9477153,97 32.5,96.5522847 32.5,96 L32.5,87 Z" transform="rotate(90 33.5 91.5)"/>
    <path fill="#DADCDD" fill-rule="nonzero" d="M291.5,143 C291.5,142.447715 291.947715,142 292.5,142 C293.052285,142 293.5,142.447715 293.5,143 L293.5,148 C293.5,148.552285 293.052285,149 292.5,149 C291.947715,149 291.5,148.552285 291.5,148 L291.5,143 Z"/>
    <path fill="#DADCDD" fill-rule="nonzero" d="M291.5,143 C291.5,142.447715 291.947715,142 292.5,142 C293.052285,142 293.5,142.447715 293.5,143 L293.5,148 C293.5,148.552285 293.052285,149 292.5,149 C291.947715,149 291.5,148.552285 291.5,148 L291.5,143 Z" transform="rotate(90 292.5 145.5)"/>
    <path fill="#39ABBB" fill-rule="nonzero" d="M4.5,152 C4.5,151.447715 4.94771525,151 5.5,151 C6.05228475,151 6.5,151.447715 6.5,152 L6.5,157 C6.5,157.552285 6.05228475,158 5.5,158 C4.94771525,158 4.5,157.552285 4.5,157 L4.5,152 Z"/>
    <path fill="#39ABBB" fill-rule="nonzero" d="M4.5,152 C4.5,151.447715 4.94771525,151 5.5,151 C6.05228475,151 6.5,151.447715 6.5,152 L6.5,157 C6.5,157.552285 6.05228475,158 5.5,158 C4.94771525,158 4.5,157.552285 4.5,157 L4.5,152 Z" transform="rotate(90 5.5 154.5)"/>
    <path fill="#DADCDD" fill-rule="nonzero" d="M201.5,116 C201.5,115.447715 201.947715,115 202.5,115 C203.052285,115 203.5,115.447715 203.5,116 L203.5,121 C203.5,121.552285 203.052285,122 202.5,122 C201.947715,122 201.5,121.552285 201.5,121 L201.5,116 Z"/>
    <path fill="#DADCDD" fill-rule="nonzero" d="M201.5,116 C201.5,115.447715 201.947715,115 202.5,115 C203.052285,115 203.5,115.447715 203.5,116 L203.5,121 C203.5,121.552285 203.052285,122 202.5,122 C201.947715,122 201.5,121.552285 201.5,121 L201.5,116 Z" transform="rotate(90 202.5 118.5)"/>
    <path fill="#39ABBB" fill-rule="nonzero" d="M242.5,153 C242.5,152.447715 242.947715,152 243.5,152 C244.052285,152 244.5,152.447715 244.5,153 L244.5,162 C244.5,162.552285 244.052285,163 243.5,163 C242.947715,163 242.5,162.552285 242.5,162 L242.5,153 Z"/>
    <path fill="#39ABBB" fill-rule="nonzero" d="M242.5,153 C242.5,152.447715 242.947715,152 243.5,152 C244.052285,152 244.5,152.447715 244.5,153 L244.5,162 C244.5,162.552285 244.052285,163 243.5,163 C242.947715,163 242.5,162.552285 242.5,162 L242.5,153 Z" transform="rotate(90 243.5 157.5)"/>
  </g>
</svg>
