<svg xmlns="http://www.w3.org/2000/svg" xmlns:xlink="http://www.w3.org/1999/xlink" width="532" height="381" viewBox="0 0 532 381">
  <defs>
    <rect id="403-a" width="179" height="187"/>
  </defs>
  <g fill="none" fill-rule="evenodd">
    <path fill="#39ABBB" fill-opacity=".094" d="M169,142.009153 C169,133.167542 176.165131,126 185.002978,126 L333.997022,126 C342.835223,126 350,133.158952 350,142.009153 L350,380 L169,380 L169,142.009153 Z"/>
    <path fill="#39ABBB" fill-rule="nonzero" d="M283.400217,161.633223 L278.006337,181.734946 L309.927102,190.275974 L315.220834,170.547481 L298.472008,178.277537 C297.062724,178.927962 295.278988,178.452075 294.382978,177.183437 L283.400217,161.633223 Z M286.410211,160.689854 L296.838058,175.454378 C296.897681,175.538796 297.117933,175.597558 297.211602,175.554327 L313.635116,167.974412 L286.410211,160.689854 Z M280.93714,159.221422 C281.36602,157.623087 283.01226,156.674836 284.611238,157.102674 L316.540696,165.646029 C318.140964,166.074212 319.091864,167.712175 318.661681,169.315365 L312.827988,191.056167 C312.399108,192.654502 310.752868,193.602752 309.15389,193.174915 L277.224432,184.63156 C275.624164,184.203377 274.673264,182.565414 275.103447,180.962224 L280.93714,159.221422 Z" opacity=".347"/>
    <g transform="translate(171 193)">
      <mask id="403-b" fill="#fff">
        <use xlink:href="#403-a"/>
      </mask>
      <path fill="#B5DEE3" d="M-12.3043073,42.6697783 C-14.4736232,39.3694678 -15.7356828,35.4195222 -15.7356828,31.1747788 C-15.7356828,19.6024583 -6.35535802,10.2212389 5.21585903,10.2212389 C16.7870761,10.2212389 26.1674009,19.6024583 26.1674009,31.1747788 C26.1674009,31.2609199 26.1668811,31.3469396 26.1658446,31.432835 C28.6069802,29.6629793 31.608952,28.619469 34.8546256,28.619469 C38.3443069,28.619469 41.5522665,29.8257781 44.0843316,31.8441861 C43.7294556,30.3155979 43.5418502,28.7228514 43.5418502,27.0862832 C43.5418502,15.5139627 52.922175,6.13274336 64.4933921,6.13274336 C76.0646091,6.13274336 85.4449339,15.5139627 85.4449339,27.0862832 C85.4449339,34.1543663 81.9456412,40.405068 76.5851475,44.2001401 C77.6407084,44.0363322 78.7223224,43.9513274 79.8237885,43.9513274 C85.9288647,43.9513274 91.4240599,46.5627875 95.2534547,50.7296875 C94.8563626,49.3913305 94.6431718,47.9738829 94.6431718,46.5066372 C94.6431718,38.3213373 101.278036,31.6858407 109.462555,31.6858407 C117.647074,31.6858407 124.281938,38.3213373 124.281938,46.5066372 C124.281938,49.8148837 123.198115,52.8699656 121.366204,55.3361142 C124.877095,52.6810109 129.250251,51.1061947 133.991189,51.1061947 C135.099155,51.1061947 136.187033,51.1922056 137.248513,51.3579153 C134.886924,48.3264707 133.480176,44.5144797 133.480176,40.3738938 C133.480176,30.4950836 141.487771,22.4867257 151.365639,22.4867257 C155.758136,22.4867257 159.780803,24.0703056 162.893977,26.6977499 C162.374824,24.872372 162.096916,22.9454134 162.096916,20.9535398 C162.096916,9.38121932 171.477241,0 183.048458,0 C194.619675,0 204,9.38121932 204,20.9535398 C204,31.1087337 196.776405,39.5766055 187.187666,41.4982402 L202.977974,231 L-28,206.469027 L-19.8237885,49.0619469 L-12.3043073,42.6697783 Z" mask="url(#403-b)" opacity=".387"/>
    </g>
    <path fill="#4F5050" fill-rule="nonzero" d="M171.470564,142.50507 C171.485824,134.770499 177.766914,128.5 185.499526,128.5 L335.004584,128.5 C342.731155,128.5 348.981715,134.764584 348.966466,142.493232 L348.495896,380.994081 L351.49589,381 L351.96646,142.499151 C351.984981,133.111912 344.390893,125.5 335.004584,125.5 L185.499526,125.5 C176.111632,125.5 168.489093,133.110779 168.47057,142.499151 L168,381 L171.000006,381 L171.470564,142.50507 Z M171.470564,142.50507 C171.485824,134.770499 177.766914,128.5 185.499526,128.5 L335.004584,128.5 C342.731155,128.5 348.981715,134.764584 348.966466,142.493232 L348.495896,380.994081 L351.49589,381 L351.96646,142.499151 C351.984981,133.111912 344.390893,125.5 335.004584,125.5 L185.499526,125.5 C176.111632,125.5 168.489093,133.110779 168.47057,142.499151 L168,381 L171.000006,381 L171.470564,142.50507 Z"/>
    <path fill="#4F5050" d="M102 263.003072C102 260.792236 103.795356 259 106 259L106 259C108.209139 259 110 260.786478 110 263.003072L110 378.800003 102 378.800003 102 263.003072zM401 263.003072C401 260.792236 402.795356 259 405 259L405 259C407.209139 259 409 260.786478 409 263.003072L409 378.800003 401 378.800003 401 263.003072z"/>
    <circle cx="106" cy="253" r="5" fill="#4F5050"/>
    <circle cx="405" cy="253" r="5" fill="#4F5050"/>
    <path fill="#39ABBB" fill-rule="nonzero" d="M113.171632,263.500048 C113.591004,263.83894 114.35605,264.414885 115.471133,265.193488 C117.276681,266.454204 119.440914,267.848717 121.96813,269.342579 C129.119312,273.569711 137.773788,277.780856 147.964781,281.700105 C176.917511,292.83474 212.415103,299.5 254.705056,299.5 C297.003326,299.5 332.80405,292.644235 362.255597,281.194181 C372.616503,277.16611 381.453013,272.839181 388.78629,268.497149 C391.375932,266.963822 393.597995,265.533018 395.455261,264.240144 C396.60009,263.44321 397.385684,262.855013 397.814876,262.510908 C399.753897,260.956295 400.065521,258.124145 398.510908,256.185124 C396.956295,254.246103 394.124145,253.934479 392.185124,255.489092 C392.135979,255.528495 391.999504,255.634288 391.775374,255.802101 C391.376472,256.100771 390.889247,256.452728 390.31337,256.853606 C388.635397,258.02167 386.598798,259.333053 384.200894,260.752851 C377.28404,264.848319 368.889379,268.95889 358.994403,272.805819 C330.572004,283.855765 295.875888,290.5 254.705056,290.5 C213.525908,290.5 179.122868,284.04026 151.195332,273.299895 C141.478231,269.562894 133.274166,265.570914 126.547846,261.594921 C124.217937,260.217689 122.244611,258.946187 120.623604,257.814325 C120.068155,257.426484 119.599194,257.086277 119.216196,256.797947 C119.002189,256.636837 118.873087,256.53609 118.828368,256.499952 C116.895344,254.937888 114.062016,255.238609 112.499952,257.171632 C110.937888,259.104656 111.238609,261.937984 113.171632,263.500048 Z"/>
    <path fill="#4F5050" fill-rule="nonzero" d="M65 380C65 380.552285 65.4417264 381 66.004897 381L497.037506 381C497.592495 381 498.042403 380.556135 498.042403 380L498.042403 380C498.042403 379.447715 497.600676 379 497.037506 379L66.004897 379C65.4499077 379 65 379.443865 65 380L65 380zM51 380C51 380.552285 51.4433916 381 51.9905587 381L56.1747199 381C56.7217903 381 57.1652786 380.556135 57.1652786 380L57.1652786 380C57.1652786 379.447715 56.7218869 379 56.1747199 379L51.9905587 379C51.4434882 379 51 379.443865 51 380L51 380zM0 380C0 380.552285.450259845 381 1.00266158 381L43.0407955 381C43.5945502 381 44.0434571 380.556135 44.0434571 380L44.0434571 380C44.0434571 379.447715 43.5931973 379 43.0407955 379L1.00266158 379C.448906881 379 0 379.443865 0 380L0 380zM505 380C505 380.552285 505.446439 381 505.993701 381L531.026291 381C531.575097 381 532.019992 380.556135 532.019992 380L532.019992 380C532.019992 379.447715 531.573553 379 531.026291 379L505.993701 379C505.444895 379 505 379.443865 505 380L505 380z"/>
    <path fill="#39ABBB" fill-rule="nonzero" d="M377.618329 188.367647C377.618329 187.612316 378.231514 187 378.987916 187 379.744318 187 380.357503 187.612316 380.357503 188.367647L380.357503 197.632353C380.357503 198.387684 379.744318 199 378.987916 199 378.231514 199 377.618329 198.387684 377.618329 197.632353L377.618329 188.367647zM383.647434 191.632353C384.403836 191.632353 385.017021 192.244669 385.017021 193 385.017021 193.755331 384.403836 194.367647 383.647434 194.367647L374.369587 194.367647C373.613185 194.367647 373 193.755331 373 193 373 192.244669 373.613185 191.632353 374.369587 191.632353L383.647434 191.632353zM238.618329 191.367647C238.618329 190.612316 239.231514 190 239.987916 190 240.744318 190 241.357503 190.612316 241.357503 191.367647L241.357503 200.632353C241.357503 201.387684 240.744318 202 239.987916 202 239.231514 202 238.618329 201.387684 238.618329 200.632353L238.618329 191.367647zM244.647434 194.632353C245.403836 194.632353 246.017021 195.244669 246.017021 196 246.017021 196.755331 245.403836 197.367647 244.647434 197.367647L235.369587 197.367647C234.613185 197.367647 234 196.755331 234 196 234 195.244669 234.613185 194.632353 235.369587 194.632353L244.647434 194.632353zM256.618329 145.367647C256.618329 144.612316 257.231514 144 257.987916 144 258.744318 144 259.357503 144.612316 259.357503 145.367647L259.357503 154.632353C259.357503 155.387684 258.744318 156 257.987916 156 257.231514 156 256.618329 155.387684 256.618329 154.632353L256.618329 145.367647zM262.647434 148.632353C263.403836 148.632353 264.017021 149.244669 264.017021 150 264.017021 150.755331 263.403836 151.367647 262.647434 151.367647L253.369587 151.367647C252.613185 151.367647 252 150.755331 252 150 252 149.244669 252.613185 148.632353 253.369587 148.632353L262.647434 148.632353zM130.618329 146.367647C130.618329 145.612316 131.231514 145 131.987916 145 132.744318 145 133.357503 145.612316 133.357503 146.367647L133.357503 155.632353C133.357503 156.387684 132.744318 157 131.987916 157 131.231514 157 130.618329 156.387684 130.618329 155.632353L130.618329 146.367647zM136.647434 149.632353C137.403836 149.632353 138.017021 150.244669 138.017021 151 138.017021 151.755331 137.403836 152.367647 136.647434 152.367647L127.369587 152.367647C126.613185 152.367647 126 151.755331 126 151 126 150.244669 126.613185 149.632353 127.369587 149.632353L136.647434 149.632353z"/>
    <path fill="#C8E8EC" fill-rule="nonzero" d="M49.2988065,102.191176 C49.2988065,101.533308 49.8328708,101 50.4916726,101 C51.1504743,101 51.6845386,101.533308 51.6845386,102.191176 L51.6845386,108.808824 C51.6845386,109.466692 51.1504743,110 50.4916726,110 C49.8328708,110 49.2988065,109.466692 49.2988065,108.808824 L49.2988065,102.191176 Z M53.8198999,104.308824 C54.4787016,104.308824 55.012766,104.842131 55.012766,105.5 C55.012766,106.157869 54.4787016,106.691176 53.8198999,106.691176 L47.1928661,106.691176 C46.5340643,106.691176 46,106.157869 46,105.5 C46,104.842131 46.5340643,104.308824 47.1928661,104.308824 L53.8198999,104.308824 Z"/>
    <path fill="#4F5050" fill-rule="nonzero" d="M218.298806,172.191176 C218.298806,171.533308 218.832871,171 219.491673,171 C220.150474,171 220.684539,171.533308 220.684539,172.191176 L220.684539,178.808824 C220.684539,179.466692 220.150474,180 219.491673,180 C218.832871,180 218.298806,179.466692 218.298806,178.808824 L218.298806,172.191176 Z M222.8199,174.308824 C223.478702,174.308824 224.012766,174.842131 224.012766,175.5 C224.012766,176.157869 223.478702,176.691176 222.8199,176.691176 L216.192866,176.691176 C215.534064,176.691176 215,176.157869 215,175.5 C215,174.842131 215.534064,174.308824 216.192866,174.308824 L222.8199,174.308824 Z"/>
    <path fill="#4F5050" fill-rule="nonzero" d="M194.298806 311.191176C194.298806 310.533308 194.832871 310 195.491673 310 196.150474 310 196.684539 310.533308 196.684539 311.191176L196.684539 317.808824C196.684539 318.466692 196.150474 319 195.491673 319 194.832871 319 194.298806 318.466692 194.298806 317.808824L194.298806 311.191176zM198.8199 313.308824C199.478702 313.308824 200.012766 313.842131 200.012766 314.5 200.012766 315.157869 199.478702 315.691176 198.8199 315.691176L192.192866 315.691176C191.534064 315.691176 191 315.157869 191 314.5 191 313.842131 191.534064 313.308824 192.192866 313.308824L198.8199 313.308824zM16.2988065 246.191176C16.2988065 245.533308 16.8328708 245 17.4916726 245 18.1504743 245 18.6845386 245.533308 18.6845386 246.191176L18.6845386 252.808824C18.6845386 253.466692 18.1504743 254 17.4916726 254 16.8328708 254 16.2988065 253.466692 16.2988065 252.808824L16.2988065 246.191176zM20.8198999 248.308824C21.4787016 248.308824 22.012766 248.842131 22.012766 249.5 22.012766 250.157869 21.4787016 250.691176 20.8198999 250.691176L14.1928661 250.691176C13.5340643 250.691176 13 250.157869 13 249.5 13 248.842131 13.5340643 248.308824 14.1928661 248.308824L20.8198999 248.308824zM512.298806 229.191176C512.298806 228.533308 512.832871 228 513.491673 228 514.150474 228 514.684539 228.533308 514.684539 229.191176L514.684539 235.808824C514.684539 236.466692 514.150474 237 513.491673 237 512.832871 237 512.298806 236.466692 512.298806 235.808824L512.298806 229.191176zM516.8199 231.308824C517.478702 231.308824 518.012766 231.842131 518.012766 232.5 518.012766 233.157869 517.478702 233.691176 516.8199 233.691176L510.192866 233.691176C509.534064 233.691176 509 233.157869 509 232.5 509 231.842131 509.534064 231.308824 510.192866 231.308824L516.8199 231.308824z" opacity=".28"/>
    <path fill="#4F5050" fill-rule="nonzero" d="M312.298806,255.191176 C312.298806,254.533308 312.832871,254 313.491673,254 C314.150474,254 314.684539,254.533308 314.684539,255.191176 L314.684539,261.808824 C314.684539,262.466692 314.150474,263 313.491673,263 C312.832871,263 312.298806,262.466692 312.298806,261.808824 L312.298806,255.191176 Z M316.8199,257.308824 C317.478702,257.308824 318.012766,257.842131 318.012766,258.5 C318.012766,259.157869 317.478702,259.691176 316.8199,259.691176 L310.192866,259.691176 C309.534064,259.691176 309,259.157869 309,258.5 C309,257.842131 309.534064,257.308824 310.192866,257.308824 L316.8199,257.308824 Z" opacity=".206"/>
    <path fill="#4F5050" fill-rule="nonzero" d="M349.958568 59.2794118C349.958568 58.5728122 350.532192 58 351.239794 58 351.947396 58 352.521021 58.5728122 352.521021 59.2794118L352.521021 67.2205882C352.521021 67.9271878 351.947396 68.5 351.239794 68.5 350.532192 68.5 349.958568 67.9271878 349.958568 67.2205882L349.958568 59.2794118zM355.233667 61.9705882C355.941269 61.9705882 356.514894 62.5434004 356.514894 63.25 356.514894 63.9565996 355.941269 64.5294118 355.233667 64.5294118L347.281227 64.5294118C346.573625 64.5294118 346 63.9565996 346 63.25 346 62.5434004 346.573625 61.9705882 347.281227 61.9705882L355.233667 61.9705882zM135.298806 35.1911765C135.298806 34.5333079 135.832871 34 136.491673 34 137.150474 34 137.684539 34.5333079 137.684539 35.1911765L137.684539 41.8088235C137.684539 42.4666921 137.150474 43 136.491673 43 135.832871 43 135.298806 42.4666921 135.298806 41.8088235L135.298806 35.1911765zM139.8199 37.3088235C140.478702 37.3088235 141.012766 37.8421314 141.012766 38.5 141.012766 39.1578686 140.478702 39.6911765 139.8199 39.6911765L133.192866 39.6911765C132.534064 39.6911765 132 39.1578686 132 38.5 132 37.8421314 132.534064 37.3088235 133.192866 37.3088235L139.8199 37.3088235zM306.298806 1.19117647C306.298806.533307872 306.832871 0 307.491673 0 308.150474 0 308.684539.533307872 308.684539 1.19117647L308.684539 7.80882353C308.684539 8.46669213 308.150474 9 307.491673 9 306.832871 9 306.298806 8.46669213 306.298806 7.80882353L306.298806 1.19117647zM310.8199 3.30882353C311.478702 3.30882353 312.012766 3.8421314 312.012766 4.5 312.012766 5.1578686 311.478702 5.69117647 310.8199 5.69117647L304.192866 5.69117647C303.534064 5.69117647 303 5.1578686 303 4.5 303 3.8421314 303.534064 3.30882353 304.192866 3.30882353L310.8199 3.30882353z"/>
    <path fill="#DADBDC" fill-rule="nonzero" d="M160.298806,81.1911765 C160.298806,80.5333079 160.832871,80 161.491673,80 C162.150474,80 162.684539,80.5333079 162.684539,81.1911765 L162.684539,87.8088235 C162.684539,88.4666921 162.150474,89 161.491673,89 C160.832871,89 160.298806,88.4666921 160.298806,87.8088235 L160.298806,81.1911765 Z M164.8199,83.3088235 C165.478702,83.3088235 166.012766,83.8421314 166.012766,84.5 C166.012766,85.1578686 165.478702,85.6911765 164.8199,85.6911765 L158.192866,85.6911765 C157.534064,85.6911765 157,85.1578686 157,84.5 C157,83.8421314 157.534064,83.3088235 158.192866,83.3088235 L164.8199,83.3088235 Z"/>
    <path fill="#4F5050" fill-rule="nonzero" d="M246.298806,79.1911765 C246.298806,78.5333079 246.832871,78 247.491673,78 C248.150474,78 248.684539,78.5333079 248.684539,79.1911765 L248.684539,85.8088235 C248.684539,86.4666921 248.150474,87 247.491673,87 C246.832871,87 246.298806,86.4666921 246.298806,85.8088235 L246.298806,79.1911765 Z M250.8199,81.3088235 C251.478702,81.3088235 252.012766,81.8421314 252.012766,82.5 C252.012766,83.1578686 251.478702,83.6911765 250.8199,83.6911765 L244.192866,83.6911765 C243.534064,83.6911765 243,83.1578686 243,82.5 C243,81.8421314 243.534064,81.3088235 244.192866,81.3088235 L250.8199,81.3088235 Z" opacity=".206"/>
    <path fill="#DADBDC" fill-rule="nonzero" d="M474.373507 81.065139C474.373507 80.4072704 474.907572 79.8739626 475.566374 79.8739626 476.225175 79.8739626 476.75924 80.4072704 476.75924 81.065139L476.75924 87.6827861C476.75924 88.3406547 476.225175 88.8739626 475.566374 88.8739626 474.907572 88.8739626 474.373507 88.3406547 474.373507 87.6827861L474.373507 81.065139zM478.894601 83.1827861C479.553403 83.1827861 480.087467 83.716094 480.087467 84.3739626 480.087467 85.0318312 479.553403 85.565139 478.894601 85.565139L472.267567 85.565139C471.608765 85.565139 471.074701 85.0318312 471.074701 84.3739626 471.074701 83.716094 471.608765 83.1827861 472.267567 83.1827861L478.894601 83.1827861zM406.298806 116.191176C406.298806 115.533308 406.832871 115 407.491673 115 408.150474 115 408.684539 115.533308 408.684539 116.191176L408.684539 122.808824C408.684539 123.466692 408.150474 124 407.491673 124 406.832871 124 406.298806 123.466692 406.298806 122.808824L406.298806 116.191176zM410.8199 118.308824C411.478702 118.308824 412.012766 118.842131 412.012766 119.5 412.012766 120.157869 411.478702 120.691176 410.8199 120.691176L404.192866 120.691176C403.534064 120.691176 403 120.157869 403 119.5 403 118.842131 403.534064 118.308824 404.192866 118.308824L410.8199 118.308824z"/>
    <path fill="#4F5050" d="M313.316455,45.7244655 C312.847038,46.9900968 312.612333,48.1619601 312.612333,49.2400905 L312.612333,68.7869655 C312.612333,70.1932225 312.964391,71.6697703 313.668517,73.216653 C315.217594,76.2635432 317.869761,77.7869655 321.625099,77.7869655 C325.380437,77.7869655 328.032605,76.2635432 329.581682,73.216653 C330.285807,71.6697703 330.637865,70.1932225 330.637865,68.7869655 L330.637865,49.2400905 C330.637865,48.8650886 330.485307,48.5369669 330.180186,48.2557155 C329.875064,47.9744641 329.534742,47.8338405 329.159208,47.8338405 C328.736733,47.8338405 328.37294,47.9744641 328.067819,48.2557155 C327.762697,48.5369669 327.610139,48.8650886 327.610139,49.2400905 L327.610139,68.7869655 C327.610139,69.1619674 327.586668,69.4900891 327.539727,69.7713405 C327.398902,70.5682195 327.164196,71.2947747 326.835604,71.951028 C325.89677,73.9197878 324.159952,74.904153 321.625099,74.904153 C319.090246,74.904153 317.353428,73.9197878 316.414594,71.951028 C316.086002,71.2947747 315.851297,70.5682195 315.710471,69.7713405 C315.66353,69.4900891 315.640059,69.1619674 315.640059,68.7869655 L315.640059,49.2400905 C315.640059,48.9588391 315.66353,48.7010292 315.710471,48.466653 C315.804355,47.8103997 315.945178,47.2479053 316.132945,46.779153 C316.696246,45.372896 317.682007,44.669778 319.090259,44.669778 C320.545452,44.669778 321.554684,45.372896 322.117985,46.779153 C322.305752,47.2479053 322.446575,47.8103997 322.540458,48.466653 C322.5874,48.7010292 322.61087,48.9588391 322.61087,49.2400905 L322.61087,67.310403 C322.61087,67.6385296 322.540459,67.9666514 322.399634,68.294778 C322.258808,68.6697799 322.000633,68.857278 321.625099,68.857278 C321.249565,68.857278 320.99139,68.6697799 320.850565,68.294778 C320.709739,67.9666514 320.639328,67.6385296 320.639328,67.310403 L320.639328,49.2400905 C320.639328,48.8650886 320.48677,48.5369669 320.181648,48.2557155 C319.876527,47.9744641 319.512734,47.8338405 319.090259,47.8338405 C318.714725,47.8338405 318.374402,47.9744641 318.069281,48.2557155 C317.76416,48.5369669 317.611602,48.8650886 317.611602,49.2400905 L317.611602,67.310403 C317.611602,67.9197811 317.752425,68.5994618 318.034075,69.3494655 C318.738201,70.9432235 319.935197,71.7400905 321.625099,71.7400905 C323.315001,71.7400905 324.511997,70.9432235 325.216123,69.3494655 C325.497773,68.5994618 325.638596,67.9197811 325.638596,67.310403 L325.638596,49.2400905 C325.638596,48.1150849 325.380421,46.9432216 324.864062,45.7244655 C323.784402,43.0994524 321.85982,41.7869655 319.090259,41.7869655 C316.320697,41.7869655 314.396115,43.0994524 313.316455,45.7244655 Z" transform="rotate(-16 321.625 59.787)"/>
    <g fill="#ECECEC" transform="rotate(13 -248.574 1680.964)">
      <path d="M0,32.25 C0,26.8652237 4.37109622,22.5 9.75177874,22.5 L12.7801362,22.5 C18.1658948,22.5 22.5319149,26.8640397 22.5319149,32.25 L22.5319149,39.3090817 C22.5319149,40.7952348 21.3205013,42 19.8364199,42 L2.69549498,42 C1.20681421,42 0,40.7949035 0,39.3090817 L0,32.25 Z"/>
      <ellipse cx="11.266" cy="9.75" rx="9.764" ry="9.75"/>
    </g>
    <g fill="#CCE9ED" opacity=".599" transform="rotate(-11 642.105 -305.031)">
      <path d="M3.63797881e-12,44.2891944 C3.63797881e-12,36.3248989 6.46088139,29.8685618 14.4109545,29.8685618 L16.5890455,29.8685618 C24.5479959,29.8685618 31,36.3231478 31,44.2891944 L31,55.7049258 C31,57.364487 29.6480353,58.7098271 27.9994225,58.7098271 L1.35196465,58.7098271 C0.605295194,58.7098271 3.63797881e-12,58.1074363 3.63797881e-12,57.3574368 L3.63797881e-12,44.2891944 Z"/>
      <ellipse cx="15.5" cy="13.018" rx="13.433" ry="13.018"/>
    </g>
    <g transform="rotate(-15 289.47 -439.58)">
      <path fill="#39ABBB" d="M4.13506743,35.2731109 C1.3820793,31.4398745 0,27.1051261 0,22.3125 C0,16.2071991 2.1832606,10.9319708 6.51417568,6.56857602 C10.8493374,2.20090278 16.1546002,0 22.3441489,0 L36.2388298,0 C42.4283785,0 47.7336413,2.20090278 52.068803,6.56857602 C56.3997181,10.9319708 58.5829787,16.2071991 58.5829787,22.3125 C58.5829787,28.4178009 56.3997181,33.6930292 52.068803,38.056424 C47.7336413,42.4240972 42.4283785,44.625 36.2388298,44.625 L33.5107969,44.625 L20.1473393,55.3425766 C18.9174184,56.3474502 17.47597,56.5664903 16.0735663,55.9246324 C14.6608513,55.2780552 13.8946809,54.0347916 13.8946809,52.4472656 L13.8946809,42.9704096 C9.93403478,41.3783348 6.672062,38.8055997 4.13506743,35.2731109 Z"/>
      <path fill="#FFF" d="M22.3441489,3 C16.954739,3 12.4180347,4.88206421 8.64792538,8.68044742 C4.87356944,12.4831091 3.00425532,16.9997751 3.00425532,22.3125 C3.00425532,26.4808562 4.19121893,30.2036444 6.57639367,33.5247407 C8.96612717,36.8521845 12.0608288,39.1740993 15.8941445,40.5172172 L16.8989362,40.8692763 L16.8989362,52.4472656 C16.8989362,52.8831872 17.0011746,53.0490893 17.3253034,53.1974379 C17.6597435,53.3505059 17.8827454,53.3166188 18.2555161,53.0121364 L32.4537281,41.625 L36.2388298,41.625 C41.6282397,41.625 46.164944,39.7429358 49.9350533,35.9445526 C53.7094093,32.1418909 55.5787234,27.6252249 55.5787234,22.3125 C55.5787234,16.9997751 53.7094093,12.4831091 49.9350533,8.68044742 C46.164944,4.88206421 41.6282397,3 36.2388298,3 L22.3441489,3 Z"/>
    </g>
    <path fill="#DADDDD" d="M206.395479,83.1424802 L230.617287,83.1424802 C230.992821,83.1424802 231.321408,83.2831038 231.603059,83.5643552 C231.884709,83.8456066 232.025532,84.1737284 232.025532,84.5487302 L232.025532,108.73623 C232.025532,109.111232 231.884709,109.439354 231.603059,109.720605 C231.321408,110.001857 230.992821,110.14248 230.617287,110.14248 L206.395479,110.14248 C206.019945,110.14248 205.691358,110.001857 205.409707,109.720605 C205.128057,109.439354 204.987234,109.111232 204.987234,108.73623 L204.987234,84.5487302 C204.987234,84.1737284 205.128057,83.8456066 205.409707,83.5643552 C205.691358,83.2831038 206.019945,83.1424802 206.395479,83.1424802 Z M207.803723,107.32998 L229.209043,107.32998 L229.209043,85.9549802 L207.803723,85.9549802 L207.803723,107.32998 Z M223.857713,90.7362302 C224.139363,90.4081036 224.491421,90.2440427 224.913896,90.2440427 C225.28943,90.2440427 225.594547,90.3377918 225.829255,90.5252927 C226.533381,91.1346708 226.603793,91.8143515 226.040492,92.5643552 L218.928856,101.072168 C218.271672,101.775296 217.567557,101.798734 216.816489,101.14248 L212.591755,96.9237302 C211.934571,96.267477 211.934571,95.5877963 212.591755,94.8846677 C213.248939,94.2284145 213.906114,94.2284145 214.563298,94.8846677 L217.731848,98.0487302 L223.857713,90.7362302 Z" transform="rotate(8 218.506 96.642)"/>
    <g fill="#39ABBB" fill-rule="nonzero" transform="rotate(-1 2402.69 -23282.022)">
      <path d="M3.00633664,24.7349457 L34.9271025,33.2759742 L40.7587912,11.5426431 L8.83802533,3.00161466 L3.00633664,24.7349457 Z M5.93713984,2.22142215 C6.36601998,0.623086828 8.01226013,-0.3251636 9.61123775,0.1026743 L41.5406957,8.64602854 C43.1409638,9.07421174 44.0918641,10.7121746 43.6616813,12.3153649 L37.8279879,34.0561667 C37.3991078,35.6545021 35.7528677,36.6027525 34.15389,36.1749146 L2.22443207,27.6315603 C0.624163962,27.2033772 -0.326736355,25.5654143 0.103446525,23.962224 L5.93713984,2.22142215 Z"/>
      <path d="M7,1.72905858 L19.6570041,19.6497905 C20.5530145,20.918429 22.3367498,21.3943154 23.7460341,20.7438909 L43.6803969,11.5436199 L42.4199906,8.82040988 L22.4856278,18.0206808 C22.3919592,18.0639116 22.1717069,18.00515 22.1120844,17.920732 L9.45508028,0 L7,1.72905858 Z"/>
    </g>
  </g>
</svg>
