<svg xmlns="http://www.w3.org/2000/svg" xmlns:xlink="http://www.w3.org/1999/xlink" width="534" height="378" viewBox="0 0 534 378">
    <defs>
        <rect id="a" width="16" height="33" x="415" y="217" rx="4"/>
    </defs>
    <g fill="none" fill-rule="evenodd">
        <path fill="#F2FAFB" d="M243 97h87.01c7.726 0 13.99 6.27 13.99 14.008V350H243V97z"/>
        <path fill="#39ABBB" fill-rule="nonzero" d="M243 107h43.015c12.144 0 21.994 9.852 21.994 21.994V155h2v-26.006c0-13.247-10.745-23.994-23.994-23.994H243v2z"/>
        <path fill="#39ABBB" fill-rule="nonzero" d="M243 107h38.009c12.147 0 22 9.852 22 21.994V155h2v-26.006c0-13.247-10.748-23.994-24-23.994H243v2z"/>
        <path fill="#39ABBB" fill-rule="nonzero" d="M243 107h24.003c12.151 0 22.006 9.852 22.006 21.994V155h2v-26.006c0-13.247-10.75-23.994-24.006-23.994H243v2z"/>
        <path fill="#39ABBB" fill-rule="nonzero" d="M243 118h14.504c7.46 0 13.505 6.043 13.505 13.502V155h2v-23.498c0-8.564-6.94-15.502-15.505-15.502H243v2z"/>
        <path fill="#39ABBB" fill-rule="nonzero" d="M243 118h9.504a8.5 8.5 0 0 1 8.505 8.503V155h2v-28.497c0-5.805-4.701-10.503-10.505-10.503H243v2z"/>
        <rect width="84" height="24" x="238.009" y="132" fill="#C8E8EB" rx="3"/>
        <rect width="84" height="24" x="238.009" y="161" fill="#C8E8EB" rx="3"/>
        <rect width="84" height="24" x="238.009" y="190" fill="#C8E8EB" rx="3"/>
        <rect width="84" height="24" x="238.009" y="221" fill="#C8E8EB" rx="3"/>
        <rect width="24" height="24" x="309.009" y="318" fill="#C8E8EB" rx="3"/>
        <path fill="#83C9D3" d="M272.009 135h4v19h-4zM272.009 164h4v19h-4zM272.009 193h4v19h-4zM272.009 224h4v19h-4zM300.009 135h4v19h-4zM300.009 164h4v19h-4zM300.009 193h4v19h-4zM300.009 224h4v19h-4zM258.009 135h4v19h-4zM258.009 164h4v19h-4zM258.009 193h4v19h-4zM258.009 224h4v19h-4zM286.009 135h4v19h-4zM286.009 164h4v19h-4zM286.009 193h4v19h-4zM286.009 224h4v19h-4zM244.009 135h4v19h-4zM244.009 164h4v19h-4zM244.009 193h4v19h-4zM244.009 224h4v19h-4zM265.009 135h4v19h-4zM265.009 164h4v19h-4zM265.009 193h4v19h-4zM265.009 224h4v19h-4zM293.009 135h4v19h-4zM293.009 164h4v19h-4zM293.009 193h4v19h-4zM293.009 224h4v19h-4zM251.009 135h4v19h-4zM251.009 164h4v19h-4zM251.009 193h4v19h-4zM251.009 224h4v19h-4zM279.009 135h4v19h-4zM279.009 164h4v19h-4zM279.009 193h4v19h-4zM279.009 224h4v19h-4zM237.009 135h4v19h-4z" opacity=".376"/>
        <path fill="#4F5050" fill-rule="nonzero" d="M135.504 112.972c.015-7.72 6.296-13.978 14.029-13.978h179.505c7.727 0 13.977 6.252 13.962 13.966l-.47 238.034 3 .006.47-238.034c.018-9.369-7.576-16.966-16.962-16.966H149.533c-9.388 0-17.01 7.596-17.029 16.966L132.034 351h3l.47-238.028z"/>
        <path fill="#4F5050" fill-rule="nonzero" d="M65 350c0 .552.442 1 1.005 1h431.033a1 1 0 0 0 1.004-1c0-.552-.441-1-1.004-1H66.005A1 1 0 0 0 65 350zM51 350c0 .552.443 1 .99 1h4.185c.547 0 .99-.444.99-1 0-.552-.443-1-.99-1H51.99a.993.993 0 0 0-.991 1zM0 350c0 .552.45 1 1.003 1H43.04a.999.999 0 0 0 1.002-1c0-.552-.45-1-1.002-1H1.003A.999.999 0 0 0 0 350zM505 350c0 .552.446 1 .994 1h25.032a.994.994 0 0 0 .994-1c0-.552-.446-1-.994-1h-25.032a.994.994 0 0 0-.994 1z"/>
        <path fill="#39ABBB" fill-rule="nonzero" d="M380.569 303.368a1.369 1.369 0 0 1 2.74 0v9.264a1.369 1.369 0 0 1-2.74 0v-9.264zm6.03 3.264a1.369 1.369 0 1 1 0 2.736h-9.279a1.369 1.369 0 1 1 0-2.736h9.278z"/>
        <path fill="#DADBDC" fill-rule="nonzero" d="M396.299 307.191a1.192 1.192 0 0 1 2.386 0v6.618a1.192 1.192 0 0 1-2.386 0v-6.618zm4.52 2.118a1.192 1.192 0 1 1 0 2.382h-6.626a1.192 1.192 0 1 1 0-2.382h6.627z"/>
        <path fill="#4F5050" d="M358.072 313.872c-.447 1.273-.661 2.449-.642 3.527l.34 19.544c.025 1.406.403 2.876 1.134 4.41 1.602 3.02 4.28 4.497 8.035 4.431 3.755-.065 6.38-1.635 7.876-4.708.677-1.56 1.003-3.042.979-4.448l-.342-19.544c-.006-.375-.164-.7-.474-.976-.31-.276-.653-.41-1.029-.404a1.555 1.555 0 0 0-1.083.441c-.3.287-.447.617-.44.992l.34 19.544c.007.375-.01.704-.053.986-.127.799-.349 1.53-.666 2.191-.904 1.985-2.624 3-5.158 3.044-2.535.044-4.288-.91-5.261-2.862a7.918 7.918 0 0 1-.742-2.167 6.049 6.049 0 0 1-.088-.983l-.341-19.544c-.005-.281.014-.54.057-.774.082-.658.213-1.223.393-1.695.538-1.416 1.512-2.136 2.92-2.16 1.455-.026 2.476.66 3.064 2.056.196.465.346 1.025.452 1.68.05.233.079.49.084.771l.315 18.068c.006.328-.059.657-.194.988-.134.377-.39.57-.765.576-.375.006-.636-.177-.784-.549a2.478 2.478 0 0 1-.228-.98l-.316-18.068c-.006-.375-.164-.7-.474-.976a1.555 1.555 0 0 0-1.099-.403c-.375.006-.713.153-1.013.44-.3.286-.447.617-.44.992l.315 18.067c.01.61.163 1.287.458 2.032.731 1.58 1.942 2.357 3.632 2.327 1.69-.03 2.872-.847 3.548-2.453.269-.754.398-1.437.387-2.046l-.315-18.067c-.02-1.125-.298-2.292-.836-3.502-1.125-2.606-3.072-3.884-5.841-3.836-2.77.048-4.671 1.394-5.705 4.038z"/>
        <path fill="#4F5050" fill-rule="nonzero" d="M132 112c0-8.837 7.155-16 16.002-16H244v255H132V112z"/>
        <path fill="#FFF" d="M135 349h106V99h-92.998C140.815 99 135 104.84 135 112.052V349z"/>
        <path fill="#F2FAFB" d="M343 112c0-8.837 6.557-18.885 14.639-22.441l53.033-23.335c4.047-1.78 7.328.363 7.328 4.77v301.011c0 4.416-3.344 6.702-7.465 5.108L343 351V112z"/>
        <path fill="#83C9D3" fill-rule="nonzero" d="M342.732 318.964l16.074 4.464c.742.207 1.635 1.057 1.88 1.792l6.73 20.193c.447 1.34 1.79 2.73 3.112 3.218l44.125 16.307.694-1.876-44.126-16.307c-.751-.278-1.652-1.21-1.907-1.975l-6.73-20.193c-.456-1.365-1.859-2.701-3.243-3.086l-16.073-4.465-.536 1.928zM345.198 172.487l10.047-1.34c2.038-.271 4.365 1.135 5.078 3.068l3.54 9.607c1.18 3.204 4.778 5.618 8.192 5.492l17.001-.63c2.292-.085 5.496 1.36 6.943 3.129l5.84 7.137a1.5 1.5 0 0 0 2.322-1.9l-5.84-7.137c-2.042-2.496-6.147-4.346-9.376-4.227l-17.001.63c-2.116.078-4.535-1.544-5.267-3.531l-3.54-9.607c-1.197-3.25-4.858-5.462-8.288-5.004l-10.047 1.34a1.5 1.5 0 0 0 .396 2.973z"/>
        <circle cx="222" cy="232" r="8" fill="#4F5050"/>
        <path fill="#83C9D3" fill-rule="nonzero" d="M345.19 159.982l16.636-3.236c2.469-.48 5.305-2.608 6.452-4.84l14.857-28.898c.9-1.752 3.187-3.845 5.022-4.592l28.22-11.49a1 1 0 1 0-.754-1.852l-28.22 11.49c-2.278.927-4.928 3.352-6.047 5.53l-14.857 28.898c-.866 1.686-3.188 3.427-5.055 3.79l-16.635 3.236a1 1 0 1 0 .382 1.964z"/>
        <path fill="#83C9D3" fill-rule="nonzero" d="M398 122.5c-3.72 0-6.5-3.893-6.5-8.5s2.78-8.5 6.5-8.5 6.5 3.893 6.5 8.5-2.78 8.5-6.5 8.5z"/>
        <path fill="#F2FAFB" d="M398 119.5c1.804 0 3.5-2.375 3.5-5.5s-1.696-5.5-3.5-5.5-3.5 2.375-3.5 5.5 1.696 5.5 3.5 5.5z"/>
        <path fill="#83C9D3" fill-rule="nonzero" d="M403 211c-5.052 0-9-5.429-9-12s3.948-12 9-12 9 5.429 9 12-3.948 12-9 12z"/>
        <path fill="#F2FAFB" d="M403 209c3.785 0 7-4.42 7-10s-3.215-10-7-10-7 4.42-7 10 3.215 10 7 10z"/>
        <path fill="#83C9D3" fill-rule="nonzero" d="M345.773 302.974l37.157 8.641c3.602.838 8.288-.787 10.598-3.674l24.253-30.316-1.562-1.25-24.253 30.316c-1.828 2.286-5.731 3.64-8.583 2.976l-37.156-8.641-.454 1.948z"/>
        <path fill="#4F5050" fill-rule="nonzero" d="M411.616 374.315c2.158.835 3.384-.004 3.384-2.31V70.995c0-2.243-1.057-2.932-3.12-2.025l-53.033 23.335C351.853 95.382 346 104.354 346 112v236.944l65.616 25.371zM343 112c0-8.837 6.557-18.885 14.639-22.441l53.033-23.335c4.047-1.78 7.328.363 7.328 4.77v301.011c0 4.416-3.344 6.702-7.465 5.108L343 351V112z"/>
        <path fill="#83C9D3" d="M367 314.5c-3.72 0-6.5-3.893-6.5-8.5s2.78-8.5 6.5-8.5 6.5 3.893 6.5 8.5-2.78 8.5-6.5 8.5z"/>
        <path fill="#F2FAFB" fill-rule="nonzero" d="M367 311.5c1.804 0 3.5-2.375 3.5-5.5s-1.696-5.5-3.5-5.5-3.5 2.375-3.5 5.5 1.696 5.5 3.5 5.5z"/>
        <use fill="#4F5050" xlink:href="#a"/>
        <rect width="13" height="30" x="416.5" y="218.5" stroke="#4F5050" stroke-width="3" rx="4"/>
        <circle cx="423" cy="228" r="2" fill="#FFF"/>
        <circle cx="317" cy="138" r="2" fill="#39ABBB"/>
        <circle cx="317" cy="167" r="2" fill="#83C9D3" fill-opacity=".495"/>
        <circle cx="317" cy="196" r="2" fill="#39ABBB"/>
        <circle cx="423" cy="234" r="2" fill="#FFF"/>
        <circle cx="317" cy="144" r="2" fill="#83C9D3" fill-opacity=".387"/>
        <circle cx="317" cy="173" r="2" fill="#83C9D3" fill-opacity=".387"/>
        <circle cx="317" cy="227" r="2" fill="#83C9D3" fill-opacity=".387"/>
        <circle cx="317" cy="202" r="2" fill="#83C9D3" fill-opacity=".387"/>
        <circle cx="317" cy="233" r="2" fill="#83C9D3" fill-opacity=".387"/>
        <circle cx="423" cy="240" r="2" fill="#FFF"/>
        <circle cx="317" cy="150" r="2" fill="#83C9D3" fill-opacity=".387"/>
        <circle cx="317" cy="179" r="2" fill="#83C9D3" fill-opacity=".387"/>
        <circle cx="317" cy="208" r="2" fill="#39ABBB"/>
        <circle cx="317" cy="239" r="2" fill="#39ABBB"/>
        <circle cx="329.5" cy="321.5" r="1.5" fill="#39ABBB" opacity=".471"/>
        <circle cx="321" cy="330" r="7" fill="#39ABBB" opacity=".471"/>
        <circle cx="329.5" cy="338.5" r="1.5" fill="#39ABBB" opacity=".471"/>
        <circle cx="312.5" cy="321.5" r="1.5" fill="#39ABBB" opacity=".471"/>
        <circle cx="312.5" cy="338.5" r="1.5" fill="#39ABBB" opacity=".471"/>
        <path fill="#83C9D3" fill-opacity=".577" d="M262.433 103H254.1v-1.606h3.358V89.085l-3.167 1.584v-1.842l3.425-1.763h1.583v14.33h3.134zM513.475 275.936h-8.333v-1.606h3.358v-12.309l-3.167 1.584v-1.842l3.425-1.763h1.584v14.33h3.133zM376.433 95H368.1v-1.606h3.358V81.085l-3.167 1.584v-1.842l3.425-1.763h1.583v14.33h3.134zM409.433 339H401.1v-1.606h3.358v-12.309l-3.167 1.584v-1.842l3.425-1.763h1.583v14.33h3.134z"/>
        <path fill="#39ABBB" d="M457.433 208H449.1v-1.606h3.358v-12.309l-3.167 1.584v-1.842l3.425-1.763h1.583v14.33h3.134zM351.333 27.747H343V26.14h3.358V13.832l-3.167 1.584v-1.842l3.425-1.763h1.584v14.33h3.133zM439.433 142H431.1v-1.606h3.358v-12.309l-3.167 1.584v-1.842l3.425-1.763h1.583v14.33h3.134zM450.433 307H442.1v-1.606h3.358v-12.309l-3.167 1.584v-1.842l3.425-1.763h1.583v14.33h3.134zM376.433 263H368.1v-1.606h3.358v-12.309l-3.167 1.584v-1.842l3.425-1.763h1.583v14.33h3.134zM305.468 84h-3.986v-.768h1.606v-5.887l-1.514.758v-.881l1.638-.844h.757v6.854h1.499zM447.985 15.622H444v-.768h1.606V8.967l-1.515.757v-.88L445.73 8h.758v6.854h1.498zM409.468 171h-3.986v-.768h1.606v-5.887l-1.514.758v-.881l1.638-.844h.757v6.854h1.499zM515.468 179h-3.986v-.768h1.606v-5.887l-1.514.758v-.881l1.638-.844h.757v6.854h1.499zM528.222 211c1.677 0 2.967.72 3.87 2.162.901 1.441 1.352 3.464 1.352 6.07 0 2.523-.438 4.524-1.314 6.003-.876 1.478-2.178 2.218-3.908 2.218-1.67 0-2.957-.72-3.863-2.157-.906-1.437-1.359-3.459-1.359-6.064 0-2.53.44-4.535 1.32-6.014.88-1.479 2.18-2.218 3.902-2.218zm0 14.835c1.108 0 1.93-.526 2.465-1.577.536-1.052.803-2.728.803-5.026 0-2.306-.267-3.981-.803-5.026-.535-1.044-1.357-1.566-2.465-1.566-1.093 0-1.909.535-2.448 1.606-.54 1.07-.809 2.732-.809 4.986 0 2.283.268 3.955.803 5.014.536 1.06 1.354 1.59 2.454 1.59zm-.045-8.288c.472 0 .87.163 1.196.489.326.326.489.724.489 1.196 0 .487-.165.904-.494 1.252a1.58 1.58 0 0 1-1.19.522 1.55 1.55 0 0 1-1.174-.522 1.769 1.769 0 0 1-.489-1.252c0-.48.16-.88.477-1.202a1.6 1.6 0 0 1 1.185-.483z"/>
        <path fill="#83C9D3" fill-opacity=".577" d="M455.873 264.85c1.677 0 2.967.721 3.869 2.162.902 1.442 1.353 3.465 1.353 6.07 0 2.524-.438 4.525-1.314 6.003-.876 1.479-2.178 2.218-3.908 2.218-1.67 0-2.957-.719-3.863-2.156-.906-1.438-1.36-3.459-1.36-6.064 0-2.531.44-4.536 1.32-6.014.88-1.48 2.181-2.218 3.903-2.218zm0 14.836c1.108 0 1.93-.526 2.465-1.578.535-1.052.803-2.727.803-5.025 0-2.306-.268-3.982-.803-5.026-.535-1.045-1.357-1.567-2.465-1.567-1.093 0-1.91.536-2.448 1.606-.54 1.07-.809 2.733-.809 4.987 0 2.283.268 3.955.803 5.014.536 1.06 1.353 1.589 2.454 1.589zm-.045-8.288c.472 0 .87.163 1.196.488.326.326.489.725.489 1.197 0 .486-.165.904-.494 1.252a1.58 1.58 0 0 1-1.19.522 1.55 1.55 0 0 1-1.174-.522 1.769 1.769 0 0 1-.489-1.252c0-.48.16-.88.477-1.202a1.6 1.6 0 0 1 1.185-.483zM466.873 90.85c1.677 0 2.967.721 3.869 2.162.902 1.442 1.353 3.465 1.353 6.07 0 2.524-.438 4.525-1.314 6.003-.876 1.479-2.178 2.218-3.908 2.218-1.67 0-2.957-.719-3.863-2.156-.906-1.438-1.36-3.459-1.36-6.064 0-2.531.44-4.536 1.32-6.014.88-1.48 2.181-2.218 3.903-2.218zm0 14.836c1.108 0 1.93-.526 2.465-1.578.535-1.052.803-2.727.803-5.025 0-2.306-.268-3.982-.803-5.026-.535-1.045-1.357-1.567-2.465-1.567-1.093 0-1.91.536-2.448 1.606-.54 1.07-.809 2.733-.809 4.987 0 2.283.268 3.955.803 5.014.536 1.06 1.353 1.589 2.454 1.589zm-.045-8.288c.472 0 .87.163 1.196.488.326.326.489.725.489 1.197 0 .486-.165.904-.494 1.252a1.58 1.58 0 0 1-1.19.522 1.55 1.55 0 0 1-1.174-.522 1.769 1.769 0 0 1-.489-1.252c0-.48.16-.88.477-1.202a1.6 1.6 0 0 1 1.185-.483z"/>
        <path fill="#39ABBB" d="M434.885 181.872c.948 0 1.677.407 2.187 1.222.51.815.764 1.958.764 3.43 0 1.427-.247 2.558-.742 3.394-.495.836-1.232 1.253-2.21 1.253-.943 0-1.67-.406-2.183-1.218-.512-.813-.768-1.955-.768-3.428 0-1.43.249-2.563.746-3.4.497-.835 1.232-1.253 2.206-1.253zm0 8.385c.626 0 1.09-.297 1.393-.892.303-.594.454-1.54.454-2.84 0-1.303-.151-2.25-.454-2.84-.302-.591-.767-.886-1.393-.886-.618 0-1.08.302-1.384.908-.305.605-.457 1.544-.457 2.818 0 1.29.151 2.235.454 2.834.302.599.765.898 1.387.898zm-.026-4.684a.92.92 0 0 1 .676.276.92.92 0 0 1 .277.676.993.993 0 0 1-.28.708.893.893 0 0 1-.673.295.876.876 0 0 1-.663-.295 1 1 0 0 1-.276-.708.928.928 0 0 1 .94-.952zM507.952 31c.948 0 1.676.407 2.186 1.222s.765 1.958.765 3.43c0 1.427-.247 2.558-.742 3.394-.495.835-1.232 1.253-2.21 1.253-.943 0-1.67-.406-2.183-1.218-.512-.813-.768-1.956-.768-3.428 0-1.43.249-2.564.746-3.4.497-.835 1.232-1.253 2.206-1.253zm0 8.385c.626 0 1.09-.297 1.393-.892.303-.594.454-1.541.454-2.84 0-1.304-.151-2.25-.454-2.84-.303-.591-.767-.886-1.393-.886-.618 0-1.08.302-1.384.907-.305.606-.457 1.545-.457 2.819 0 1.29.151 2.235.454 2.834.302.599.765.898 1.387.898zm-.026-4.684a.92.92 0 0 1 .676.276.92.92 0 0 1 .276.676.993.993 0 0 1-.279.708.893.893 0 0 1-.673.295.876.876 0 0 1-.663-.295 1 1 0 0 1-.276-.708.928.928 0 0 1 .94-.952zM271.873 55.85c1.677 0 2.967.721 3.869 2.162.902 1.442 1.353 3.465 1.353 6.07 0 2.524-.438 4.525-1.314 6.003-.876 1.479-2.178 2.218-3.908 2.218-1.67 0-2.957-.719-3.863-2.156-.906-1.438-1.36-3.459-1.36-6.064 0-2.531.44-4.536 1.32-6.014.88-1.48 2.181-2.218 3.903-2.218zm0 14.836c1.108 0 1.93-.526 2.465-1.578.535-1.052.803-2.727.803-5.025 0-2.306-.268-3.982-.803-5.026-.535-1.045-1.357-1.567-2.465-1.567-1.093 0-1.91.536-2.448 1.606-.54 1.07-.809 2.733-.809 4.987 0 2.283.268 3.955.803 5.014.536 1.06 1.353 1.589 2.454 1.589zm-.045-8.288c.472 0 .87.163 1.196.488.326.326.489.725.489 1.197 0 .486-.165.904-.494 1.252a1.58 1.58 0 0 1-1.19.522 1.55 1.55 0 0 1-1.174-.522 1.769 1.769 0 0 1-.489-1.252c0-.48.16-.88.477-1.202a1.6 1.6 0 0 1 1.185-.483z"/>
        <path fill="#83C9D3" fill-opacity=".577" d="M321.873 110.85c1.677 0 2.967.721 3.869 2.162.902 1.442 1.353 3.465 1.353 6.07 0 2.524-.438 4.525-1.314 6.003-.876 1.479-2.178 2.218-3.908 2.218-1.67 0-2.957-.719-3.863-2.156-.906-1.438-1.36-3.459-1.36-6.064 0-2.531.44-4.536 1.32-6.014.88-1.48 2.181-2.218 3.903-2.218zm0 14.836c1.108 0 1.93-.526 2.465-1.578.535-1.052.803-2.727.803-5.025 0-2.306-.268-3.982-.803-5.026-.535-1.045-1.357-1.567-2.465-1.567-1.093 0-1.91.536-2.448 1.606-.54 1.07-.809 2.733-.809 4.987 0 2.283.268 3.955.803 5.014.536 1.06 1.353 1.589 2.454 1.589zm-.045-8.288c.472 0 .87.163 1.196.488.326.326.489.725.489 1.197 0 .486-.165.904-.494 1.252a1.58 1.58 0 0 1-1.19.522 1.55 1.55 0 0 1-1.174-.522 1.769 1.769 0 0 1-.489-1.252c0-.48.16-.88.477-1.202a1.6 1.6 0 0 1 1.185-.483zM222.222 0c1.677 0 2.967.72 3.87 2.162.901 1.441 1.352 3.464 1.352 6.07 0 2.523-.438 4.524-1.314 6.003-.876 1.478-2.178 2.218-3.908 2.218-1.67 0-2.957-.72-3.863-2.157-.906-1.437-1.359-3.459-1.359-6.064 0-2.53.44-4.535 1.32-6.014C219.2.739 220.5 0 222.222 0zm0 14.835c1.108 0 1.93-.526 2.465-1.577.536-1.052.803-2.728.803-5.026 0-2.306-.267-3.981-.803-5.026-.535-1.044-1.357-1.566-2.465-1.566-1.093 0-1.909.535-2.448 1.606-.54 1.07-.809 2.732-.809 4.986 0 2.283.268 3.955.803 5.014.536 1.06 1.354 1.59 2.454 1.59zm-.045-8.288c.472 0 .87.163 1.196.489.326.326.489.724.489 1.196 0 .487-.165.904-.494 1.252a1.58 1.58 0 0 1-1.19.522 1.55 1.55 0 0 1-1.174-.522 1.769 1.769 0 0 1-.489-1.252c0-.48.16-.88.477-1.202a1.6 1.6 0 0 1 1.185-.483z"/>
        <path fill="#C8E8EB" fill-rule="nonzero" d="M251.5 305h42.012a1 1 0 1 0 0-2H251.5a1 1 0 1 0 0 2zM251.5 315h42.012a1 1 0 1 0 0-2H251.5a1 1 0 1 0 0 2zM251.5 325h42.012a1 1 0 1 0 0-2H251.5a1 1 0 1 0 0 2zM251.5 335h42.012a1 1 0 1 0 0-2H251.5a1 1 0 1 0 0 2zM251.5 310h42.012a1 1 0 1 0 0-2H251.5a1 1 0 1 0 0 2zM251.5 320h42.012a1 1 0 1 0 0-2H251.5a1 1 0 1 0 0 2zM251.5 330h42.012a1 1 0 1 0 0-2H251.5a1 1 0 1 0 0 2zM251.5 340h42.012a1 1 0 1 0 0-2H251.5a1 1 0 1 0 0 2z"/>
        <path fill="#39ABBB" fill-rule="nonzero" d="M323.5 318v-26.5c0-15.461-12.537-28-27.99-28h-51.516v3h51.515c13.797 0 24.991 11.196 24.991 25V318h3z"/>
    </g>
</svg>
