<?xml version="1.0" encoding="UTF-8"?>
<svg width="808px" height="549px" viewBox="0 0 808 549" version="1.1" xmlns="http://www.w3.org/2000/svg" xmlns:xlink="http://www.w3.org/1999/xlink">
    <!-- Generator: Sketch 49.1 (51147) - http://www.bohemiancoding.com/sketch -->
    <title>Group 13</title>
    <desc>Created with Sketch.</desc>
    <defs>
        <filter x="-1.4%" y="-1.3%" width="102.8%" height="104.2%" filterUnits="objectBoundingBox" id="filter-1">
            <feOffset dx="0" dy="4" in="SourceAlpha" result="shadowOffsetOuter1"></feOffset>
            <feGaussianBlur stdDeviation="3" in="shadowOffsetOuter1" result="shadowBlurOuter1"></feGaussianBlur>
            <feColorMatrix values="0 0 0 0 0.0901960784   0 0 0 0 0.192156863   0 0 0 0 0.270588235  0 0 0 0.16 0" type="matrix" in="shadowBlurOuter1" result="shadowMatrixOuter1"></feColorMatrix>
            <feMerge>
                <feMergeNode in="shadowMatrixOuter1"></feMergeNode>
                <feMergeNode in="SourceGraphic"></feMergeNode>
            </feMerge>
        </filter>
    </defs>
    <g id="Homepage" stroke="none" stroke-width="1" fill="none" fill-rule="evenodd">
        <g id="Group-13" transform="translate(6.000000, 2.000000)">
            <g id="Group-24-Copy-2" filter="url(#filter-1)" fill-rule="nonzero">
                <rect id="bg-screen-b" fill="#FFFFFF" x="0" y="0" width="795.600075" height="536.640051" rx="5.99040057"></rect>
                <path d="M6.60249025,0 L788.997585,0 C792.64404,-7.28954332e-16 795.600075,3.21689619 795.600075,7.18513876 L795.600075,26.9442703 L0,26.9442703 L0,7.18513876 C-4.46561905e-16,3.21689619 2.95603557,7.28954332e-16 6.60249025,0 Z" id="Shape" fill-opacity="0.08" fill="#173145"></path>
            </g>
            <g id="Group-40" transform="translate(282.920027, 48.360005)" fill="#1B3141">
                <text id="Saved-Copy" font-family="BentonSans-Medium, BentonSans" font-size="10.063873" font-weight="400" line-spacing="13.4184973" fill-opacity="0.403306159">
                    <tspan x="14.9760014" y="13">Saved</tspan>
                </text>
                <path d="M8.47121714,3.25227567 C8.79241582,2.91856276 9.32332656,2.90841797 9.65703947,3.22961664 C9.99075239,3.55081532 10.0008972,4.08172607 9.6796985,4.41543898 L3.91393795,10.4058395 C3.58402577,10.7486054 3.03536877,10.7486054 2.70545659,10.4058395 L0.23441636,7.83852502 C-0.0867823184,7.5048121 -0.0766375272,6.97390136 0.257075385,6.65270268 C0.590788298,6.331504 1.12169904,6.3416488 1.44289772,6.67536171 L3.30969727,8.61489371 L8.47121714,3.25227567 Z" id="Shape-Copy-4" fill-opacity="0.395861639" fill-rule="nonzero"></path>
            </g>
            <text id="[Oppy]-–-ACME-Inc.-–" font-family="Roboto-Medium, Roboto" font-size="13.4184973" font-weight="400" line-spacing="20.1277459" fill="#173145" fill-opacity="0.801828578">
                <tspan x="50.4800049" y="55.6800041">[Oppy] – ACME Inc. – Product Pilot</tspan>
            </text>
            <rect id="Rectangle-11-Copy" x="27.0800027" y="43.6800041" width="20.2800019" height="20.2800019"></rect>
            <path d="M33.2514938,58.3276006 C33.3850461,58.6214991 33.3173801,59.0063674 33.1003575,59.187228 C32.8833349,59.3680886 32.5991377,59.2764533 32.4655853,58.9825548 L30.2684476,54.1474822 C30.1771881,53.9466542 30.1771881,53.693356 30.2684476,53.492528 L32.4655853,48.6574554 C32.5991377,48.3635569 32.8833349,48.2719216 33.1003575,48.4527822 C33.3173801,48.6336428 33.3850461,49.0185111 33.2514938,49.3124096 L31.2031672,53.8200051 L33.2514938,58.3276006 Z" id="Shape-Copy-5" fill-opacity="0.235450634" fill="#173145" fill-rule="nonzero"></path>
            <circle id="Oval-Copy-7" fill="#39ABBB" opacity="0.2" cx="752.480071" cy="60.8400058" r="14.0400013"></circle>
            <text id="CA-Copy" font-family="BentonSans-Medium, BentonSans" font-size="10.063873" font-weight="400" line-spacing="10.063873" fill="#39ABBB">
                <tspan x="743.663224" y="60.1949947">CA</tspan>
            </text>
            <g id="Group-30-Copy" transform="translate(20.840002, 92.040009)">
                <path d="M122.761284,0 L184.222796,0 C186.446046,-4.08404311e-16 188.248345,1.80229984 188.248345,4.02554936 L188.248345,20.2355739 C188.248345,22.4588234 186.446046,24.2611233 184.222796,24.2611233 L122.761284,24.2611233 C122.205471,24.2611233 121.754896,23.8105483 121.754896,23.2547359 L121.754896,1.00638734 C121.754896,0.45057496 122.205471,5.46190288e-16 122.761284,4.4408921e-16 Z" id="Rectangle" fill-opacity="0.4" fill="#173145"></path>
                <text id="Timeline" font-family="BentonSans-Medium, BentonSans" font-size="12.0766481" font-weight="400" line-spacing="16.1021974" fill="#FFFFFF">
                    <tspan x="130.001621" y="17.5942405">Timeline</tspan>
                </text>
                <rect id="Rectangle" fill-opacity="0.08" fill="#173145" x="70.3872095" y="0" width="50.3193668" height="24.2611233" rx="1.00638734"></rect>
                <text id="Cards" font-family="BentonSans-Medium, BentonSans" font-size="12.0766481" font-weight="400" line-spacing="16.1021974" fill="#173145" fill-opacity="0.644644475">
                    <tspan x="77.5976128" y="17.5942405">Cards</tspan>
                </text>
                <path d="M4.02554936,0 L68.182742,0 C68.7385543,-1.02101078e-16 69.1891293,0.45057496 69.1891293,1.00638734 L69.1891293,23.2547359 C69.1891293,23.8105483 68.7385543,24.2611233 68.182742,24.2611233 L4.02554936,24.2611233 C1.80229984,24.2611233 1.16044796e-15,22.4588234 8.8817842e-16,20.2355739 L0,4.02554936 C-2.72269541e-16,1.80229984 1.80229984,1.29658273e-15 4.02554936,8.8817842e-16 Z" id="Rectangle" fill-opacity="0.08" fill="#173145"></path>
                <text id="Overview" font-family="BentonSans-Medium, BentonSans" font-size="12.0766481" font-weight="400" line-spacing="16.1021974" fill="#173145" fill-opacity="0.644644475">
                    <tspan x="8.04384471" y="17.5942405">Overview</tspan>
                </text>
            </g>
        </g>
    </g>
</svg>