<?xml version="1.0" encoding="UTF-8"?>
<svg width="808px" height="549px" viewBox="0 0 808 549" version="1.1" xmlns="http://www.w3.org/2000/svg" xmlns:xlink="http://www.w3.org/1999/xlink">
    <!-- Generator: Sketch 49.1 (51147) - http://www.bohemiancoding.com/sketch -->
    <title>Group 3</title>
    <desc>Created with Sketch.</desc>
    <defs>
        <filter x="-1.4%" y="-1.3%" width="102.8%" height="104.1%" filterUnits="objectBoundingBox" id="filter-1">
            <feOffset dx="0" dy="4" in="SourceAlpha" result="shadowOffsetOuter1"></feOffset>
            <feGaussianBlur stdDeviation="3" in="shadowOffsetOuter1" result="shadowBlurOuter1"></feGaussianBlur>
            <feColorMatrix values="0 0 0 0 0.0901960784   0 0 0 0 0.192156863   0 0 0 0 0.270588235  0 0 0 0.16 0" type="matrix" in="shadowBlurOuter1" result="shadowMatrixOuter1"></feColorMatrix>
            <feMerge>
                <feMergeNode in="shadowMatrixOuter1"></feMergeNode>
                <feMergeNode in="SourceGraphic"></feMergeNode>
            </feMerge>
        </filter>
    </defs>
    <g id="Homepage" stroke="none" stroke-width="1" fill="none" fill-rule="evenodd">
        <g id="Desktop-HD-Copy-10" transform="translate(-92.000000, -88.000000)">
            <g id="Group-3" transform="translate(98.000000, 90.000000)">
                <g id="Group-10-Copy-2">
                    <path d="M228.939591,110.796633 L70.9852651,110.796633" id="Line-4" stroke-opacity="0.03" stroke="#173145" stroke-width="1.49760014" stroke-linecap="square"></path>
                    <rect id="Rectangle-14" fill-opacity="0.08" fill="#173145" x="74.9170918" y="51.4970266" width="93.6463647" height="14.0446436" rx="2.99520028"></rect>
                    <rect id="Rectangle-14" fill-opacity="0.08" fill="#173145" x="74.9170918" y="71.7837341" width="152.955729" height="9.36309575" rx="2.99520028"></rect>
                    <rect id="Rectangle-14-Copy-3" fill-opacity="0.08" fill="#173145" x="212.265093" y="53.0575426" width="15.6077275" height="9.36309575" rx="2.99520028"></rect>
                    <rect id="Rectangle-14-Copy-2" fill-opacity="0.08" fill="#173145" x="74.9170918" y="84.2678618" width="134.226456" height="9.36309575" rx="2.99520028"></rect>
                    <g id="Group-24-Copy" filter="url(#filter-1)" fill-rule="nonzero">
                        <rect id="bg-screen-b" fill="#FFFFFF" x="0" y="0" width="795.9941" height="536.81749" rx="5.99040057"></rect>
                        <path d="M6.60576017,0 L789.38834,0 C793.036601,-7.2919536e-16 795.9941,3.21795986 795.9941,7.18751451 L795.9941,26.9531794 L0,26.9531794 L0,7.18751451 C-4.46783067e-16,3.21795986 2.95749957,7.2919536e-16 6.60576017,0 Z" id="Shape" fill-opacity="0.08" fill="#173145"></path>
                    </g>
                    <path d="M332.919008,79.1501513 L331.654471,79.1501513 L331.654471,74.7406549 L326.845303,74.7406549 L326.845303,79.1501513 L325.587319,79.1501513 L325.587319,69.6104384 L326.845303,69.6104384 L326.845303,73.7119908 L331.654471,73.7119908 L331.654471,69.6104384 L332.919008,69.6104384 L332.919008,79.1501513 Z M336.280184,79.1501513 L335.068064,79.1501513 L335.068064,72.0608866 L336.280184,72.0608866 L336.280184,79.1501513 Z M334.969784,70.1804625 C334.969784,69.9839015 335.029843,69.8179191 335.149964,69.6825104 C335.270084,69.5471017 335.448079,69.4793984 335.683952,69.4793984 C335.919825,69.4793984 336.098911,69.5471017 336.221216,69.6825104 C336.343521,69.8179191 336.404672,69.9839015 336.404672,70.1804625 C336.404672,70.3770235 336.343521,70.5408218 336.221216,70.6718625 C336.098911,70.8029032 335.919825,70.8684225 335.683952,70.8684225 C335.448079,70.8684225 335.270084,70.8029032 335.149964,70.6718625 C335.029843,70.5408218 334.969784,70.3770235 334.969784,70.1804625 Z M346.992705,74.9372149 L342.989433,74.9372149 L342.989433,79.1501513 L341.731448,79.1501513 L341.731448,69.6104384 L347.641353,69.6104384 L347.641353,70.6456545 L342.989433,70.6456545 L342.989433,73.9085508 L346.992705,73.9085508 L346.992705,74.9372149 Z M350.275257,79.1501513 L349.063137,79.1501513 L349.063137,69.0862783 L350.275257,69.0862783 L350.275257,79.1501513 Z M351.893601,75.539999 C351.893601,75.0245724 351.968949,74.5473731 352.119645,74.1083868 C352.270342,73.6694006 352.484372,73.2882964 352.761742,72.9650627 C353.039111,72.6418291 353.376536,72.3884876 353.774026,72.2050307 C354.171516,72.0215737 354.617047,71.9298466 355.110634,71.9298466 C355.612956,71.9298466 356.063948,72.0215737 356.463622,72.2050307 C356.863296,72.3884876 357.202905,72.6418291 357.482458,72.9650627 C357.762011,73.2882964 357.976041,73.6694006 358.124554,74.1083868 C358.273067,74.5473731 358.347322,75.0245724 358.347322,75.539999 L358.347322,75.684143 C358.347322,76.1995696 358.273067,76.6767689 358.124554,77.1157551 C357.976041,77.5547414 357.762011,77.9347536 357.482458,78.2558033 C357.202905,78.5768529 356.864388,78.8280104 356.466898,79.0092833 C356.069408,79.1905563 355.621692,79.2811914 355.123738,79.2811914 C354.625783,79.2811914 354.178068,79.1905563 353.780578,79.0092833 C353.383088,78.8280104 353.044571,78.5768529 352.765018,78.2558033 C352.485464,77.9347536 352.270342,77.5547414 352.119645,77.1157551 C351.968949,76.6767689 351.893601,76.1995696 351.893601,75.684143 L351.893601,75.539999 Z M353.112274,75.684143 C353.112274,76.0379528 353.153769,76.3721015 353.236762,76.6865991 C353.319754,77.0010967 353.445333,77.27737 353.613502,77.5154272 C353.78167,77.7534844 353.991332,77.9423985 354.242494,78.0821752 C354.493655,78.221952 354.7874,78.2918393 355.123738,78.2918393 C355.455707,78.2918393 355.748361,78.221952 356.001706,78.0821752 C356.255051,77.9423985 356.464713,77.7534844 356.630698,77.5154272 C356.796683,77.27737 356.922262,77.0010967 357.007438,76.6865991 C357.092614,76.3721015 357.135202,76.0379528 357.135202,75.684143 L357.135202,75.539999 C357.135202,75.1905572 357.092614,74.8575005 357.007438,74.5408189 C356.922262,74.2241373 356.795591,73.946772 356.627422,73.7087148 C356.459253,73.4706576 356.248499,73.2806515 355.995154,73.1386908 C355.741809,72.99673 355.446971,72.9257507 355.110634,72.9257507 C354.778664,72.9257507 354.488195,72.99673 354.239218,73.1386908 C353.99024,73.2806515 353.78167,73.4706576 353.613502,73.7087148 C353.445333,73.946772 353.319754,74.2241373 353.236762,74.5408189 C353.153769,74.8575005 353.112274,75.1905572 353.112274,75.539999 L353.112274,75.684143 Z M363.294083,73.1485188 C363.18925,73.1310467 363.092063,73.1190348 363.002519,73.1124827 C362.912974,73.1059307 362.811419,73.1026547 362.697851,73.1026547 C362.27852,73.1026547 361.936728,73.1943818 361.672462,73.3778388 C361.408197,73.5612957 361.210547,73.8080853 361.079506,74.1182148 L361.079506,79.1501513 L359.867386,79.1501513 L359.867386,72.0608866 L361.046746,72.0608866 L361.066402,72.8798867 C361.249859,72.5872292 361.479177,72.3557275 361.754362,72.1853747 C362.029548,72.0150218 362.363697,71.9298466 362.756819,71.9298466 C362.844179,71.9298466 362.944642,71.9396745 363.058211,71.9593306 C363.171779,71.9789867 363.250402,71.9997345 363.294083,72.0215746 L363.294083,73.1485188 Z M365.724875,79.1501513 L364.512755,79.1501513 L364.512755,72.0608866 L365.724875,72.0608866 L365.724875,79.1501513 Z M364.414475,70.1804625 C364.414475,69.9839015 364.474534,69.8179191 364.594655,69.6825104 C364.714775,69.5471017 364.89277,69.4793984 365.128643,69.4793984 C365.364516,69.4793984 365.543602,69.5471017 365.665907,69.6825104 C365.788211,69.8179191 365.849363,69.9839015 365.849363,70.1804625 C365.849363,70.3770235 365.788211,70.5408218 365.665907,70.6718625 C365.543602,70.8029032 365.364516,70.8684225 365.128643,70.8684225 C364.89277,70.8684225 364.714775,70.8029032 364.594655,70.6718625 C364.474534,70.5408218 364.414475,70.3770235 364.414475,70.1804625 Z M372.041003,79.1501513 C371.997323,79.0627909 371.96238,78.9525 371.936171,78.8192753 C371.909963,78.6860506 371.888124,78.547368 371.870651,78.4032233 C371.757083,78.5211599 371.62932,78.6336348 371.487359,78.7406513 C371.345399,78.8476679 371.190336,78.9415789 371.022167,79.0223873 C370.853998,79.1031957 370.671636,79.1665311 370.475075,79.2123954 C370.278514,79.2582596 370.071036,79.2811914 369.852635,79.2811914 C369.490089,79.2811914 369.161401,79.2265919 368.866559,79.1173913 C368.571718,79.0081908 368.32056,78.8596803 368.113079,78.6718553 C367.905598,78.4840303 367.745076,78.2623565 367.631507,78.0068272 C367.517938,77.7512979 367.461155,77.4772086 367.461155,77.1845512 C367.461155,76.8045332 367.53541,76.4692925 367.683923,76.1788191 C367.832436,75.8883456 368.045374,75.644832 368.322743,75.448271 C368.600113,75.25171 368.935353,75.1031994 369.328475,75.0027349 C369.721597,74.9022704 370.160577,74.8520389 370.645427,74.8520389 L371.850995,74.8520389 L371.850995,74.2951189 C371.850995,73.8714207 371.724325,73.533996 371.470979,73.2828348 C371.217634,73.0316735 370.844174,72.9060947 370.350587,72.9060947 C370.12345,72.9060947 369.915972,72.9366704 369.728147,72.9978227 C369.540322,73.058975 369.3798,73.1408742 369.246575,73.2435228 C369.11335,73.3461713 369.009612,73.4651981 368.935355,73.6006068 C368.861099,73.7360155 368.823971,73.8779741 368.823971,74.0264868 L367.605299,74.0264868 C367.605299,73.7731415 367.67191,73.521984 367.805135,73.2730068 C367.93836,73.0240295 368.127274,72.8001717 368.371883,72.6014267 C368.616492,72.4026817 368.912421,72.2410673 369.259679,72.1165786 C369.606937,71.99209 369.994593,71.9298466 370.422659,71.9298466 C370.807045,71.9298466 371.161942,71.9789861 371.487359,72.0772666 C371.812777,72.1755471 372.091234,72.3240577 372.322739,72.5228027 C372.554245,72.7215477 372.735515,72.9694292 372.866556,73.2664548 C372.997596,73.5634803 373.063116,73.9107328 373.063116,74.3082229 L373.063116,77.6038792 C373.063116,77.8441204 373.083863,78.0963699 373.12536,78.3606353 C373.166856,78.6249006 373.229099,78.8531264 373.312092,79.0453193 L373.312092,79.1501513 L372.041003,79.1501513 Z M370.029539,78.2263193 C370.24794,78.2263193 370.453234,78.1957436 370.645427,78.1345912 C370.83762,78.0734389 371.012339,77.9937237 371.169587,77.8954432 C371.326836,77.7971627 371.463335,77.6846878 371.579087,77.5580152 C371.69484,77.4313425 371.785475,77.3003038 371.850995,77.1648951 L371.850995,75.710351 L370.841987,75.710351 C370.147472,75.710351 369.612397,75.8184579 369.236747,76.034675 C368.861097,76.2508921 368.673275,76.5773969 368.673275,77.0141991 C368.673275,77.184552 368.701667,77.3439824 368.758451,77.4924952 C368.815235,77.6410079 368.901503,77.7687707 369.017255,77.8757872 C369.133008,77.9828038 369.274966,78.0679789 369.443135,78.1313152 C369.611304,78.1946516 369.80677,78.2263193 370.029539,78.2263193 Z M376.109796,72.0608866 L376.149108,72.9519587 C376.402453,72.6330931 376.70821,72.3830276 377.066388,72.2017547 C377.424566,72.0204817 377.826418,71.9298466 378.271956,71.9298466 C378.61703,71.9298466 378.929339,71.9768022 379.208892,72.0707146 C379.488446,72.1646271 379.726499,72.3153216 379.92306,72.5228027 C380.119621,72.7302837 380.271408,72.9967291 380.378424,73.3221468 C380.485441,73.6475644 380.538948,74.0417725 380.538948,74.5047829 L380.538948,79.1501513 L379.326828,79.1501513 L379.326828,74.4916789 C379.326828,74.2164935 379.296252,73.9817158 379.2351,73.7873388 C379.173948,73.5929618 379.083313,73.4346234 378.963192,73.3123188 C378.843072,73.1900141 378.694561,73.100471 378.517656,73.0436867 C378.340751,72.9869025 378.136549,72.9585107 377.905044,72.9585107 C377.511922,72.9585107 377.166853,73.0633417 376.869828,73.2730068 C376.572802,73.4826718 376.341301,73.7578531 376.175316,74.0985588 L376.175316,79.1501513 L374.963196,79.1501513 L374.963196,72.0608866 L376.109796,72.0608866 Z M383.723221,76.4572791 L382.629037,76.4572791 L382.54386,69.6104384 L383.814949,69.6104384 L383.723221,76.4572791 Z M382.497996,78.5408153 C382.497996,78.3442543 382.558056,78.1793639 382.678177,78.0461392 C382.798297,77.9129146 382.976291,77.8463032 383.212165,77.8463032 C383.448038,77.8463032 383.627124,77.9129146 383.749429,78.0461392 C383.871733,78.1793639 383.932885,78.3442543 383.932885,78.5408153 C383.932885,78.7373763 383.871733,78.9000827 383.749429,79.0289393 C383.627124,79.157796 383.448038,79.2222234 383.212165,79.2222234 C382.976291,79.2222234 382.798297,79.157796 382.678177,79.0289393 C382.558056,78.9000827 382.497996,78.7373763 382.497996,78.5408153 Z M326.937031,116.410442 L325.679047,116.410442 L325.679047,106.870729 L326.937031,106.870729 L326.937031,116.410442 Z M330.271999,107.185225 C330.271999,107.386154 330.246884,107.594724 330.196651,107.810941 C330.146419,108.027158 330.072164,108.240096 329.973883,108.449761 C329.875603,108.659426 329.756576,108.85926 329.616799,109.049269 C329.477023,109.239278 329.315408,109.408536 329.131951,109.557049 L328.443991,109.085305 C328.649288,108.797015 328.805443,108.501086 328.912459,108.197509 C329.019476,107.893931 329.072983,107.563059 329.072983,107.204881 L329.072983,106.346569 L330.271999,106.346569 L330.271999,107.185225 Z M334.065608,114.765889 L335.821544,109.321177 L337.059872,109.321177 L334.517696,116.410442 L333.593864,116.410442 L331.025479,109.321177 L332.263808,109.321177 L334.065608,114.765889 Z M341.167976,116.541482 C340.67439,116.541482 340.227766,116.456306 339.828092,116.285954 C339.428418,116.115601 339.086626,115.878639 338.802704,115.575062 C338.518783,115.271484 338.300385,114.910036 338.147504,114.490705 C337.994623,114.071375 337.918184,113.61274 337.918184,113.114785 L337.918184,112.839601 C337.918184,112.263022 338.004451,111.747603 338.176988,111.293329 C338.349525,110.839055 338.579935,110.456859 338.868224,110.146729 C339.156514,109.836599 339.486294,109.599638 339.857576,109.435837 C340.228858,109.272036 340.615422,109.190137 341.01728,109.190137 C341.523971,109.190137 341.960767,109.278588 342.327681,109.455493 C342.694594,109.632398 342.997075,109.875911 343.235133,110.186041 C343.47319,110.496171 343.649,110.863079 343.762569,111.286777 C343.876137,111.710475 343.932921,112.171295 343.932921,112.669249 L343.932921,113.213065 L339.130304,113.213065 C339.13904,113.540667 339.192548,113.846424 339.290828,114.130345 C339.389109,114.414267 339.528883,114.661056 339.710156,114.870721 C339.891429,115.080387 340.109827,115.246369 340.365356,115.368674 C340.620886,115.490978 340.910263,115.55213 341.233496,115.55213 C341.661563,115.55213 342.024103,115.46477 342.321129,115.29005 C342.618154,115.115329 342.878047,114.883827 343.100817,114.595537 L343.841193,115.172113 C343.727624,115.346834 343.590033,115.516093 343.428417,115.679894 C343.2668,115.843694 343.077886,115.990021 342.861669,116.118878 C342.645451,116.247734 342.39757,116.350381 342.118016,116.426822 C341.838463,116.503262 341.521786,116.541482 341.167976,116.541482 Z M341.01728,110.186041 C340.772671,110.186041 340.547721,110.230813 340.342424,110.320357 C340.137127,110.409901 339.953673,110.539848 339.792056,110.710201 C339.630439,110.880554 339.496125,111.0924 339.389108,111.345745 C339.282092,111.59909 339.208928,111.88956 339.169616,112.217161 L342.720801,112.217161 L342.720801,112.125433 C342.707696,111.88956 342.669477,111.655874 342.606141,111.424369 C342.542804,111.192864 342.444525,110.985386 342.311301,110.801929 C342.178076,110.618472 342.006634,110.469962 341.796968,110.356393 C341.587303,110.242824 341.32741,110.186041 341.01728,110.186041 Z M348.368625,112.806841 C348.368625,112.265207 348.433052,111.772719 348.561909,111.329365 C348.690766,110.886011 348.876404,110.505999 349.118829,110.189317 C349.361254,109.872635 349.655,109.626938 350.000073,109.452217 C350.345147,109.277496 350.733895,109.190137 351.166329,109.190137 C351.616236,109.190137 352.007168,109.26876 352.339138,109.426009 C352.671107,109.583258 352.955024,109.810391 353.190898,110.107417 L353.249866,109.321177 L354.357154,109.321177 L354.357154,116.259746 C354.357154,116.727124 354.28399,117.143172 354.137662,117.507902 C353.991333,117.872632 353.784947,118.180573 353.518498,118.431734 C353.252048,118.682895 352.935371,118.873993 352.568458,119.005034 C352.201544,119.136075 351.795324,119.201594 351.349785,119.201594 C351.166328,119.201594 350.955575,119.180846 350.717517,119.13935 C350.47946,119.097854 350.239223,119.03015 349.996797,118.936238 C349.754372,118.842325 349.521778,118.716747 349.299009,118.559498 C349.07624,118.402249 348.886234,118.207875 348.728985,117.97637 L349.357977,117.249098 C349.50649,117.432555 349.659368,117.585433 349.816617,117.707738 C349.973866,117.830042 350.132204,117.928321 350.291637,118.002578 C350.45107,118.076834 350.612685,118.130342 350.776485,118.163102 C350.940286,118.195862 351.102993,118.212242 351.264609,118.212242 C351.548531,118.212242 351.80624,118.171838 352.037745,118.09103 C352.269251,118.010221 352.466901,117.889011 352.630702,117.727394 C352.794502,117.565777 352.920081,117.368127 353.007442,117.134438 C353.094802,116.900748 353.138482,116.628843 353.138482,116.318714 L353.138482,115.702826 C352.902608,115.973643 352.621967,116.181121 352.29655,116.325266 C351.971132,116.46941 351.590028,116.541482 351.153225,116.541482 C350.729527,116.541482 350.346239,116.451939 350.003349,116.27285 C349.66046,116.093761 349.367806,115.843695 349.125381,115.522646 C348.882956,115.201596 348.696226,114.821584 348.565185,114.382597 C348.434144,113.943611 348.368625,113.464228 348.368625,112.944433 L348.368625,112.806841 Z M349.587297,112.944433 C349.587297,113.298243 349.623333,113.6313 349.695405,113.943613 C349.767478,114.255927 349.878861,114.527832 350.029557,114.759337 C350.180254,114.990843 350.373536,115.174297 350.609409,115.309706 C350.845283,115.445114 351.127016,115.512818 351.454617,115.512818 C351.668651,115.512818 351.861933,115.48661 352.034469,115.434194 C352.207006,115.381777 352.362069,115.309706 352.499662,115.217978 C352.637254,115.126249 352.758465,115.01705 352.863298,114.890377 C352.96813,114.763705 353.059857,114.62393 353.138482,114.471049 L353.138482,111.234361 C353.059857,111.090216 352.96813,110.955902 352.863298,110.831413 C352.758465,110.706924 352.637254,110.598818 352.499662,110.507089 C352.362069,110.415361 352.208098,110.344381 352.037745,110.294149 C351.867393,110.243917 351.677386,110.218801 351.467721,110.218801 C351.135752,110.218801 350.851835,110.287596 350.615961,110.425189 C350.380088,110.562782 350.185714,110.749512 350.032833,110.985385 C349.879952,111.221258 349.767478,111.495348 349.695405,111.807661 C349.623333,112.119975 349.587297,112.453031 349.587297,112.806841 L349.587297,112.944433 Z M355.864114,112.800289 C355.864114,112.284863 355.939461,111.807663 356.090158,111.368677 C356.240855,110.929691 356.454885,110.548587 356.732254,110.225353 C357.009623,109.902119 357.347048,109.648778 357.744538,109.465321 C358.142028,109.281864 358.58756,109.190137 359.081146,109.190137 C359.583469,109.190137 360.03446,109.281864 360.434134,109.465321 C360.833808,109.648778 361.173417,109.902119 361.45297,110.225353 C361.732524,110.548587 361.946554,110.929691 362.095066,111.368677 C362.243579,111.807663 362.317834,112.284863 362.317834,112.800289 L362.317834,112.944433 C362.317834,113.45986 362.243579,113.937059 362.095066,114.376045 C361.946554,114.815032 361.732524,115.195044 361.45297,115.516094 C361.173417,115.837143 360.8349,116.088301 360.43741,116.269574 C360.03992,116.450847 359.592205,116.541482 359.09425,116.541482 C358.596296,116.541482 358.14858,116.450847 357.75109,116.269574 C357.3536,116.088301 357.015083,115.837143 356.73553,115.516094 C356.455977,115.195044 356.240855,114.815032 356.090158,114.376045 C355.939461,113.937059 355.864114,113.45986 355.864114,112.944433 L355.864114,112.800289 Z M357.082786,112.944433 C357.082786,113.298243 357.124282,113.632392 357.207274,113.946889 C357.290266,114.261387 357.415845,114.53766 357.584014,114.775717 C357.752183,115.013775 357.961845,115.202689 358.213006,115.342466 C358.464167,115.482242 358.757912,115.55213 359.09425,115.55213 C359.42622,115.55213 359.718873,115.482242 359.972218,115.342466 C360.225564,115.202689 360.435225,115.013775 360.60121,114.775717 C360.767195,114.53766 360.892774,114.261387 360.97795,113.946889 C361.063127,113.632392 361.105714,113.298243 361.105714,112.944433 L361.105714,112.800289 C361.105714,112.450847 361.063127,112.117791 360.97795,111.801109 C360.892774,111.484428 360.766103,111.207062 360.597934,110.969005 C360.429765,110.730948 360.219012,110.540942 359.965666,110.398981 C359.712321,110.25702 359.417484,110.186041 359.081146,110.186041 C358.749176,110.186041 358.458707,110.25702 358.20973,110.398981 C357.960753,110.540942 357.752183,110.730948 357.584014,110.969005 C357.415845,111.207062 357.290266,111.484428 357.207274,111.801109 C357.124282,112.117791 357.082786,112.450847 357.082786,112.800289 L357.082786,112.944433 Z M365.482451,107.604553 L365.482451,109.321177 L366.805955,109.321177 L366.805955,110.258113 L365.482451,110.258113 L365.482451,114.654505 C365.482451,114.837962 365.504291,114.985381 365.547971,115.096765 C365.591651,115.20815 365.649526,115.294417 365.721599,115.35557 C365.793671,115.416722 365.876662,115.457125 365.970575,115.476782 C366.064487,115.496438 366.161674,115.506266 366.262139,115.506266 C366.362603,115.506266 366.468526,115.496438 366.579911,115.476782 C366.691295,115.457125 366.777563,115.440746 366.838715,115.427642 L366.838715,116.410442 C366.742618,116.43665 366.618132,116.465041 366.465251,116.495618 C366.31237,116.526194 366.126732,116.541482 365.908331,116.541482 C365.685562,116.541482 365.474808,116.509814 365.276063,116.446478 C365.077318,116.383141 364.903691,116.277218 364.755179,116.128706 C364.606666,115.980193 364.488731,115.784727 364.401371,115.542302 C364.31401,115.299876 364.270331,115.001763 364.270331,114.647953 L364.270331,110.258113 L362.979587,110.258113 L362.979587,109.321177 L364.270331,109.321177 L364.270331,107.604553 L365.482451,107.604553 Z M372.689652,109.321177 L372.728964,110.212249 C372.982309,109.893383 373.288066,109.643318 373.646244,109.462045 C374.004421,109.280772 374.406273,109.190137 374.851812,109.190137 C375.196885,109.190137 375.509194,109.237092 375.788748,109.331005 C376.068301,109.424917 376.306355,109.575612 376.502916,109.783093 C376.699477,109.990574 376.851263,110.257019 376.95828,110.582437 C377.065296,110.907855 377.118804,111.302063 377.118804,111.765073 L377.118804,116.410442 L375.906684,116.410442 L375.906684,111.751969 C375.906684,111.476784 375.876108,111.242006 375.814956,111.047629 C375.753804,110.853252 375.663168,110.694914 375.543048,110.572609 C375.422927,110.450304 375.274417,110.360761 375.097512,110.303977 C374.920607,110.247193 374.716405,110.218801 374.4849,110.218801 C374.091778,110.218801 373.746709,110.323632 373.449684,110.533297 C373.152658,110.742962 372.921156,111.018143 372.755172,111.358849 L372.755172,116.410442 L371.543051,116.410442 L371.543051,109.321177 L372.689652,109.321177 Z M381.88866,116.541482 C381.395074,116.541482 380.94845,116.456306 380.548776,116.285954 C380.149102,116.115601 379.80731,115.878639 379.523388,115.575062 C379.239467,115.271484 379.021069,114.910036 378.868188,114.490705 C378.715307,114.071375 378.638868,113.61274 378.638868,113.114785 L378.638868,112.839601 C378.638868,112.263022 378.725135,111.747603 378.897672,111.293329 C379.070209,110.839055 379.300619,110.456859 379.588908,110.146729 C379.877198,109.836599 380.206978,109.599638 380.57826,109.435837 C380.949542,109.272036 381.336106,109.190137 381.737964,109.190137 C382.244655,109.190137 382.681451,109.278588 383.048365,109.455493 C383.415278,109.632398 383.717759,109.875911 383.955817,110.186041 C384.193874,110.496171 384.369684,110.863079 384.483253,111.286777 C384.596821,111.710475 384.653605,112.171295 384.653605,112.669249 L384.653605,113.213065 L379.850988,113.213065 C379.859724,113.540667 379.913232,113.846424 380.011512,114.130345 C380.109793,114.414267 380.249567,114.661056 380.43084,114.870721 C380.612113,115.080387 380.830511,115.246369 381.08604,115.368674 C381.34157,115.490978 381.630947,115.55213 381.95418,115.55213 C382.382247,115.55213 382.744787,115.46477 383.041813,115.29005 C383.338838,115.115329 383.598731,114.883827 383.821501,114.595537 L384.561877,115.172113 C384.448308,115.346834 384.310717,115.516093 384.149101,115.679894 C383.987484,115.843694 383.79857,115.990021 383.582353,116.118878 C383.366135,116.247734 383.118254,116.350381 382.838701,116.426822 C382.559147,116.503262 382.24247,116.541482 381.88866,116.541482 Z M381.737964,110.186041 C381.493355,110.186041 381.268405,110.230813 381.063108,110.320357 C380.857811,110.409901 380.674357,110.539848 380.51274,110.710201 C380.351123,110.880554 380.216809,111.0924 380.109792,111.345745 C380.002776,111.59909 379.929612,111.88956 379.8903,112.217161 L383.441485,112.217161 L383.441485,112.125433 C383.428381,111.88956 383.390161,111.655874 383.326825,111.424369 C383.263488,111.192864 383.165209,110.985386 383.031985,110.801929 C382.89876,110.618472 382.727318,110.469962 382.517652,110.356393 C382.307987,110.242824 382.048094,110.186041 381.737964,110.186041 Z M392.332549,114.739681 L393.695366,109.321177 L394.907486,109.321177 L392.843606,116.410442 L391.860805,116.410442 L390.137629,111.037801 L388.460317,116.410442 L387.477517,116.410442 L385.420189,109.321177 L386.625757,109.321177 L388.021333,114.628297 L389.672437,109.321177 L390.648685,109.321177 L392.332549,114.739681 Z M400.267022,114.530017 C400.267022,114.398977 400.247366,114.275582 400.208054,114.159829 C400.168742,114.044077 400.091211,113.934878 399.975458,113.832229 C399.859706,113.729581 399.694815,113.634578 399.480782,113.547217 C399.266749,113.459857 398.985016,113.37905 398.635574,113.304793 C398.242452,113.221801 397.888648,113.123522 397.57415,113.009953 C397.259652,112.896385 396.992115,112.759886 396.77153,112.600453 C396.550945,112.44102 396.381686,112.252106 396.26375,112.033705 C396.145813,111.815304 396.086846,111.559779 396.086846,111.267121 C396.086846,110.987568 396.149089,110.722214 396.273578,110.471053 C396.398066,110.219892 396.573877,109.99931 396.801014,109.809301 C397.028151,109.619292 397.303332,109.468597 397.626566,109.357213 C397.9498,109.245828 398.310156,109.190137 398.707646,109.190137 C399.131344,109.190137 399.510265,109.248012 399.844418,109.363765 C400.178572,109.479518 400.462489,109.637856 400.696178,109.838785 C400.929867,110.039714 401.107862,110.274492 401.230166,110.543125 C401.352471,110.811758 401.413622,111.098952 401.413622,111.404713 L400.19495,111.404713 C400.19495,111.260568 400.162191,111.115334 400.09667,110.969005 C400.03115,110.822676 399.935055,110.691638 399.808382,110.575885 C399.68171,110.460132 399.526647,110.366221 399.34319,110.294149 C399.159733,110.222077 398.947887,110.186041 398.707646,110.186041 C398.454301,110.186041 398.239179,110.215525 398.062274,110.274493 C397.885369,110.333461 397.740135,110.412085 397.626566,110.510365 C397.512997,110.608646 397.430006,110.720028 397.37759,110.844517 C397.325174,110.969006 397.298966,111.096768 397.298966,111.227809 C397.298966,111.35885 397.320806,111.476785 397.364486,111.581617 C397.408166,111.68645 397.491157,111.781453 397.613462,111.866629 C397.735767,111.951806 397.902841,112.030429 398.11469,112.102501 C398.326539,112.174574 398.600628,112.247737 398.936966,112.321993 C399.3694,112.422458 399.745045,112.536025 400.06391,112.662697 C400.382776,112.78937 400.647037,112.936788 400.856702,113.104957 C401.066367,113.273126 401.222522,113.466408 401.32517,113.684809 C401.427819,113.90321 401.479142,114.156552 401.479142,114.444841 C401.479142,114.754971 401.414715,115.038888 401.285858,115.296602 C401.157002,115.554315 400.972456,115.774897 400.732214,115.958354 C400.491973,116.141811 400.203688,116.284861 399.86735,116.38751 C399.531012,116.490158 399.157552,116.541482 398.746958,116.541482 C398.275212,116.541482 397.859164,116.475962 397.498802,116.344922 C397.13844,116.213881 396.835959,116.040255 396.59135,115.824038 C396.346741,115.60782 396.161102,115.361031 396.03443,115.083661 C395.907757,114.806292 395.844422,114.521283 395.844422,114.228625 L397.056542,114.228625 C397.069646,114.477603 397.129705,114.686173 397.236722,114.854341 C397.343738,115.02251 397.478053,115.159009 397.63967,115.263842 C397.801287,115.368674 397.978189,115.442929 398.170382,115.48661 C398.362575,115.53029 398.554765,115.55213 398.746958,115.55213 C398.995935,115.55213 399.214333,115.525922 399.402158,115.473506 C399.589983,115.421089 399.748322,115.349018 399.877178,115.25729 C400.006035,115.165561 400.103222,115.057454 400.168742,114.932965 C400.234263,114.808477 400.267022,114.674162 400.267022,114.530017 Z M406.976271,116.410442 L406.976271,110.258113 L405.855879,110.258113 L405.855879,109.321177 L406.976271,109.321177 L406.976271,108.574249 C406.976271,108.194231 407.029778,107.856806 407.136795,107.561965 C407.243811,107.267123 407.397782,107.019242 407.598711,106.818313 C407.79964,106.617384 408.044246,106.465597 408.332535,106.362949 C408.620825,106.2603 408.946237,106.208977 409.308783,106.208977 C409.588337,106.208977 409.865702,106.246104 410.140887,106.320361 L410.075367,107.303161 C409.983639,107.285689 409.8799,107.271493 409.764147,107.260573 C409.648395,107.249653 409.533736,107.244193 409.420167,107.244193 C409.027045,107.244193 408.723472,107.358852 408.509439,107.588173 C408.295406,107.817494 408.188391,108.146183 408.188391,108.574249 L408.188391,109.321177 L409.701903,109.321177 L409.701903,110.258113 L408.188391,110.258113 L408.188391,116.410442 L406.976271,116.410442 Z M410.717463,112.800289 C410.717463,112.284863 410.792811,111.807663 410.943507,111.368677 C411.094204,110.929691 411.308234,110.548587 411.585603,110.225353 C411.862973,109.902119 412.200397,109.648778 412.597887,109.465321 C412.995377,109.281864 413.440909,109.190137 413.934496,109.190137 C414.436818,109.190137 414.88781,109.281864 415.287484,109.465321 C415.687158,109.648778 416.026766,109.902119 416.30632,110.225353 C416.585873,110.548587 416.799903,110.929691 416.948416,111.368677 C417.096929,111.807663 417.171184,112.284863 417.171184,112.800289 L417.171184,112.944433 C417.171184,113.45986 417.096929,113.937059 416.948416,114.376045 C416.799903,114.815032 416.585873,115.195044 416.30632,115.516094 C416.026766,115.837143 415.68825,116.088301 415.29076,116.269574 C414.89327,116.450847 414.445554,116.541482 413.9476,116.541482 C413.449645,116.541482 413.001929,116.450847 412.604439,116.269574 C412.206949,116.088301 411.868433,115.837143 411.588879,115.516094 C411.309326,115.195044 411.094204,114.815032 410.943507,114.376045 C410.792811,113.937059 410.717463,113.45986 410.717463,112.944433 L410.717463,112.800289 Z M411.936135,112.944433 C411.936135,113.298243 411.977631,113.632392 412.060623,113.946889 C412.143616,114.261387 412.269195,114.53766 412.437363,114.775717 C412.605532,115.013775 412.815194,115.202689 413.066356,115.342466 C413.317517,115.482242 413.611262,115.55213 413.9476,115.55213 C414.279569,115.55213 414.572222,115.482242 414.825568,115.342466 C415.078913,115.202689 415.288575,115.013775 415.45456,114.775717 C415.620545,114.53766 415.746123,114.261387 415.8313,113.946889 C415.916476,113.632392 415.959064,113.298243 415.959064,112.944433 L415.959064,112.800289 C415.959064,112.450847 415.916476,112.117791 415.8313,111.801109 C415.746123,111.484428 415.619453,111.207062 415.451284,110.969005 C415.283115,110.730948 415.072361,110.540942 414.819016,110.398981 C414.56567,110.25702 414.270833,110.186041 413.934496,110.186041 C413.602526,110.186041 413.312057,110.25702 413.06308,110.398981 C412.814102,110.540942 412.605532,110.730948 412.437363,110.969005 C412.269195,111.207062 412.143616,111.484428 412.060623,111.801109 C411.977631,112.117791 411.936135,112.450847 411.936135,112.800289 L411.936135,112.944433 Z M422.117944,110.408809 C422.013112,110.391337 421.915925,110.379325 421.82638,110.372773 C421.736836,110.366221 421.635281,110.362945 421.521712,110.362945 C421.102382,110.362945 420.76059,110.454672 420.496324,110.638129 C420.232059,110.821586 420.034409,111.068376 419.903368,111.378505 L419.903368,116.410442 L418.691248,116.410442 L418.691248,109.321177 L419.870608,109.321177 L419.890264,110.140177 C420.073721,109.84752 420.303039,109.616018 420.578224,109.445665 C420.85341,109.275312 421.187558,109.190137 421.58068,109.190137 C421.668041,109.190137 421.768504,109.199965 421.882072,109.219621 C421.995641,109.239277 422.074264,109.260025 422.117944,109.281865 L422.117944,110.408809 Z M428.873057,114.634849 L430.524161,109.321177 L431.821457,109.321177 L428.971337,117.504626 C428.905817,117.679347 428.820642,117.869353 428.715809,118.07465 C428.610977,118.279947 428.474478,118.471045 428.306309,118.64795 C428.13814,118.824855 427.936122,118.973365 427.700249,119.093486 C427.464376,119.213606 427.187011,119.273666 426.868145,119.273666 C426.820097,119.273666 426.763313,119.269298 426.697793,119.260562 C426.632273,119.251826 426.566753,119.241998 426.501233,119.231078 C426.435713,119.220158 426.374561,119.209238 426.317777,119.198318 C426.260993,119.187398 426.217313,119.17757 426.186737,119.168834 L426.186737,118.186034 C426.204209,118.190402 426.228233,118.193678 426.258809,118.195862 C426.289385,118.198046 426.321053,118.20023 426.353813,118.202414 C426.386573,118.204598 426.417149,118.206782 426.445541,118.208966 C426.473933,118.21115 426.496865,118.212242 426.514337,118.212242 C426.719634,118.212242 426.900904,118.192586 427.058153,118.153274 C427.215402,118.113962 427.355176,118.049534 427.477481,117.95999 C427.599786,117.870445 427.705709,117.751418 427.795253,117.602906 C427.884797,117.454393 427.966697,117.270939 428.040953,117.052538 L428.309585,116.331818 L425.780513,109.321177 L427.104017,109.321177 L428.873057,114.634849 Z M432.581489,112.800289 C432.581489,112.284863 432.656837,111.807663 432.807533,111.368677 C432.95823,110.929691 433.17226,110.548587 433.44963,110.225353 C433.726999,109.902119 434.064424,109.648778 434.461914,109.465321 C434.859404,109.281864 435.304935,109.190137 435.798522,109.190137 C436.300844,109.190137 436.751836,109.281864 437.15151,109.465321 C437.551184,109.648778 437.890793,109.902119 438.170346,110.225353 C438.449899,110.548587 438.663929,110.929691 438.812442,111.368677 C438.960955,111.807663 439.03521,112.284863 439.03521,112.800289 L439.03521,112.944433 C439.03521,113.45986 438.960955,113.937059 438.812442,114.376045 C438.663929,114.815032 438.449899,115.195044 438.170346,115.516094 C437.890793,115.837143 437.552276,116.088301 437.154786,116.269574 C436.757296,116.450847 436.30958,116.541482 435.811626,116.541482 C435.313671,116.541482 434.865956,116.450847 434.468466,116.269574 C434.070976,116.088301 433.732459,115.837143 433.452906,115.516094 C433.173352,115.195044 432.95823,114.815032 432.807533,114.376045 C432.656837,113.937059 432.581489,113.45986 432.581489,112.944433 L432.581489,112.800289 Z M433.800162,112.944433 C433.800162,113.298243 433.841657,113.632392 433.92465,113.946889 C434.007642,114.261387 434.133221,114.53766 434.30139,114.775717 C434.469558,115.013775 434.67922,115.202689 434.930382,115.342466 C435.181543,115.482242 435.475288,115.55213 435.811626,115.55213 C436.143595,115.55213 436.436249,115.482242 436.689594,115.342466 C436.942939,115.202689 437.152601,115.013775 437.318586,114.775717 C437.484571,114.53766 437.61015,114.261387 437.695326,113.946889 C437.780502,113.632392 437.82309,113.298243 437.82309,112.944433 L437.82309,112.800289 C437.82309,112.450847 437.780502,112.117791 437.695326,111.801109 C437.61015,111.484428 437.483479,111.207062 437.31531,110.969005 C437.147141,110.730948 436.936387,110.540942 436.683042,110.398981 C436.429697,110.25702 436.134859,110.186041 435.798522,110.186041 C435.466552,110.186041 435.176083,110.25702 434.927106,110.398981 C434.678128,110.540942 434.469558,110.730948 434.30139,110.969005 C434.133221,111.207062 434.007642,111.484428 433.92465,111.801109 C433.841657,112.117791 433.800162,112.450847 433.800162,112.800289 L433.800162,112.944433 Z M444.932011,115.709378 C444.709242,115.971459 444.427508,116.175661 444.086803,116.32199 C443.746097,116.468318 443.335509,116.541482 442.855026,116.541482 C442.505585,116.541482 442.188908,116.492342 441.904986,116.394062 C441.621065,116.295781 441.376459,116.140719 441.171162,115.92887 C440.965865,115.71702 440.807527,115.444023 440.696142,115.109869 C440.584758,114.775716 440.529066,114.372772 440.529066,113.901025 L440.529066,109.321177 L441.741186,109.321177 L441.741186,113.914129 C441.741186,114.232995 441.778314,114.496164 441.85257,114.703645 C441.926827,114.911127 442.025106,115.074925 442.14741,115.195045 C442.269715,115.315166 442.40949,115.398157 442.566738,115.444022 C442.723987,115.489886 442.885602,115.512818 443.051586,115.512818 C443.545173,115.512818 443.941565,115.418906 444.240775,115.231082 C444.539984,115.043257 444.759474,114.792099 444.899251,114.477601 L444.899251,109.321177 L446.111371,109.321177 L446.111371,116.410442 L444.958219,116.410442 L444.932011,115.709378 Z M447.978691,115.774898 C447.978691,115.565232 448.040934,115.390514 448.165423,115.250738 C448.289912,115.110961 448.476642,115.041073 448.725619,115.041073 C448.974596,115.041073 449.16351,115.110961 449.292367,115.250738 C449.421224,115.390514 449.485651,115.565232 449.485651,115.774898 C449.485651,115.975827 449.421224,116.143993 449.292367,116.279402 C449.16351,116.41481 448.974596,116.482514 448.725619,116.482514 C448.476642,116.482514 448.289912,116.41481 448.165423,116.279402 C448.040934,116.143993 447.978691,115.975827 447.978691,115.774898 Z M462.013076,113.383417 C461.96066,113.833324 461.850369,114.251555 461.6822,114.638125 C461.514031,115.024695 461.281438,115.358844 460.984412,115.640582 C460.687387,115.922319 460.324846,116.142901 459.89678,116.302334 C459.468714,116.461766 458.968583,116.541482 458.396372,116.541482 C457.832897,116.541482 457.321846,116.436651 456.863204,116.226986 C456.404562,116.017321 456.012537,115.719207 455.68712,115.332638 C455.361702,114.946068 455.110545,114.481972 454.93364,113.940337 C454.756735,113.398703 454.668284,112.793741 454.668284,112.125433 L454.668284,111.168841 C454.668284,110.500534 454.757827,109.89448 454.936916,109.350661 C455.116005,108.806842 455.37153,108.341655 455.7035,107.955085 C456.035469,107.568515 456.438413,107.26931 456.912344,107.057461 C457.386274,106.845612 457.918073,106.739689 458.507756,106.739689 C459.045023,106.739689 459.52113,106.818312 459.936092,106.975561 C460.351054,107.132809 460.703767,107.352299 460.99424,107.634037 C461.284714,107.915774 461.515123,108.252107 461.685476,108.643045 C461.855829,109.033983 461.965028,109.465319 462.013076,109.937065 L460.74854,109.937065 C460.700492,109.605095 460.626237,109.30589 460.525772,109.039441 C460.425308,108.772992 460.286625,108.545858 460.10972,108.358033 C459.932815,108.170208 459.713325,108.026065 459.451244,107.925601 C459.189163,107.825136 458.87467,107.774905 458.507756,107.774905 C458.084058,107.774905 457.71169,107.856804 457.39064,108.020605 C457.06959,108.184406 456.800961,108.413723 456.584744,108.708565 C456.368527,109.003406 456.20582,109.359395 456.09662,109.776541 C455.987419,110.193687 455.93282,110.653415 455.93282,111.155737 L455.93282,112.125433 C455.93282,112.592812 455.981959,113.031791 456.08024,113.442385 C456.17852,113.852979 456.328123,114.212244 456.529052,114.520189 C456.729981,114.828135 456.985506,115.070557 457.295636,115.247462 C457.605765,115.424366 457.972674,115.512818 458.396372,115.512818 C458.79823,115.512818 459.136747,115.46477 459.411932,115.368674 C459.687118,115.272577 459.915343,115.133894 460.096616,114.952621 C460.277889,114.771349 460.418756,114.548583 460.51922,114.284317 C460.619685,114.020052 460.696124,113.719755 460.74854,113.383417 L462.013076,113.383417 Z M464.751813,110.179489 C465.005158,109.869359 465.308731,109.626938 465.662541,109.452217 C466.016351,109.277496 466.411651,109.190137 466.848453,109.190137 C467.193527,109.190137 467.505836,109.237092 467.785389,109.331005 C468.064942,109.424917 468.302996,109.575612 468.499557,109.783093 C468.696118,109.990574 468.847905,110.257019 468.954921,110.582437 C469.061938,110.907855 469.115445,111.302063 469.115445,111.765073 L469.115445,116.410442 L467.903325,116.410442 L467.903325,111.751969 C467.903325,111.476784 467.872749,111.242006 467.811597,111.047629 C467.750445,110.853252 467.65981,110.694914 467.539689,110.572609 C467.419568,110.450304 467.271058,110.360761 467.094153,110.303977 C466.917248,110.247193 466.713046,110.218801 466.481541,110.218801 C466.088419,110.218801 465.74335,110.323632 465.446325,110.533297 C465.149299,110.742962 464.917797,111.018143 464.751813,111.358849 L464.751813,116.410442 L463.539693,116.410442 L463.539693,106.346569 L464.751813,106.346569 L464.751813,110.179489 Z M473.872198,116.541482 C473.378611,116.541482 472.931987,116.456306 472.532313,116.285954 C472.132639,116.115601 471.790847,115.878639 471.506925,115.575062 C471.223004,115.271484 471.004606,114.910036 470.851725,114.490705 C470.698844,114.071375 470.622405,113.61274 470.622405,113.114785 L470.622405,112.839601 C470.622405,112.263022 470.708672,111.747603 470.881209,111.293329 C471.053746,110.839055 471.284156,110.456859 471.572445,110.146729 C471.860735,109.836599 472.190516,109.599638 472.561797,109.435837 C472.933079,109.272036 473.319643,109.190137 473.721502,109.190137 C474.228192,109.190137 474.664988,109.278588 475.031902,109.455493 C475.398816,109.632398 475.701297,109.875911 475.939354,110.186041 C476.177411,110.496171 476.353221,110.863079 476.46679,111.286777 C476.580358,111.710475 476.637142,112.171295 476.637142,112.669249 L476.637142,113.213065 L471.834525,113.213065 C471.843261,113.540667 471.896769,113.846424 471.995049,114.130345 C472.09333,114.414267 472.233104,114.661056 472.414377,114.870721 C472.59565,115.080387 472.814048,115.246369 473.069577,115.368674 C473.325107,115.490978 473.614484,115.55213 473.937718,115.55213 C474.365784,115.55213 474.728324,115.46477 475.02535,115.29005 C475.322375,115.115329 475.582269,114.883827 475.805038,114.595537 L476.545414,115.172113 C476.431845,115.346834 476.294255,115.516093 476.132638,115.679894 C475.971021,115.843694 475.782107,115.990021 475.56589,116.118878 C475.349673,116.247734 475.101791,116.350381 474.822238,116.426822 C474.542684,116.503262 474.226007,116.541482 473.872198,116.541482 Z M473.721502,110.186041 C473.476892,110.186041 473.251943,110.230813 473.046645,110.320357 C472.841348,110.409901 472.657894,110.539848 472.496277,110.710201 C472.334661,110.880554 472.200346,111.0924 472.093329,111.345745 C471.986313,111.59909 471.91315,111.88956 471.873837,112.217161 L475.425022,112.217161 L475.425022,112.125433 C475.411918,111.88956 475.373698,111.655874 475.310362,111.424369 C475.247025,111.192864 475.148746,110.985386 475.015522,110.801929 C474.882297,110.618472 474.710855,110.469962 474.50119,110.356393 C474.291525,110.242824 474.031631,110.186041 473.721502,110.186041 Z M480.882838,115.55213 C481.096871,115.55213 481.302165,115.517186 481.498726,115.447298 C481.695287,115.377409 481.868914,115.281314 482.01961,115.159009 C482.170307,115.036705 482.29261,114.89147 482.386522,114.723301 C482.480435,114.555133 482.536126,114.37277 482.553598,114.176209 L483.700199,114.176209 C483.682726,114.490707 483.596459,114.791004 483.441394,115.077109 C483.28633,115.363215 483.082128,115.614372 482.828782,115.83059 C482.575437,116.046807 482.281692,116.219341 481.947538,116.348198 C481.613385,116.477054 481.258488,116.541482 480.882838,116.541482 C480.34994,116.541482 479.885844,116.446479 479.490538,116.25647 C479.095232,116.066461 478.766543,115.809843 478.504462,115.48661 C478.242381,115.163376 478.046915,114.787732 477.918058,114.359665 C477.789201,113.931599 477.724774,113.479516 477.724774,113.003401 L477.724774,112.728217 C477.724774,112.252103 477.789201,111.800019 477.918058,111.371953 C478.046915,110.943887 478.242381,110.568243 478.504462,110.245009 C478.766543,109.921775 479.09414,109.665158 479.487262,109.475149 C479.880384,109.28514 480.343388,109.190137 480.876286,109.190137 C481.291248,109.190137 481.667985,109.255656 482.006506,109.386697 C482.345028,109.517738 482.637681,109.697916 482.884474,109.927237 C483.131268,110.156558 483.32455,110.428463 483.464326,110.742961 C483.604103,111.057459 483.682726,111.395975 483.700199,111.758521 L482.553598,111.758521 C482.536126,111.54012 482.484803,111.335918 482.399626,111.145909 C482.31445,110.9559 482.199791,110.789918 482.055646,110.647957 C481.911502,110.505996 481.740059,110.393521 481.541314,110.310529 C481.342569,110.227537 481.120895,110.186041 480.876286,110.186041 C480.500636,110.186041 480.189419,110.260296 479.942626,110.408809 C479.695833,110.557322 479.497091,110.752788 479.346394,110.995213 C479.195697,111.237638 479.089774,111.510636 479.028622,111.814213 C478.96747,112.117791 478.936894,112.422456 478.936894,112.728217 L478.936894,113.003401 C478.936894,113.317899 478.96747,113.626932 479.028622,113.930509 C479.089774,114.234087 479.194605,114.505992 479.343118,114.746233 C479.491631,114.986475 479.690373,115.180849 479.93935,115.329362 C480.188327,115.477874 480.50282,115.55213 480.882838,115.55213 Z M487.041719,113.127889 L486.281687,113.920681 L486.281687,116.410442 L485.069567,116.410442 L485.069567,106.346569 L486.281687,106.346569 L486.281687,112.433377 L486.930335,111.653689 L489.138359,109.321177 L490.612559,109.321177 L487.854167,112.282681 L490.933607,116.410442 L489.511823,116.410442 L487.041719,113.127889 Z M496.502808,116.410442 L495.290688,116.410442 L495.290688,109.321177 L496.502808,109.321177 L496.502808,116.410442 Z M495.192408,107.440753 C495.192408,107.244192 495.252467,107.078209 495.372588,106.942801 C495.492708,106.807392 495.670703,106.739689 495.906576,106.739689 C496.142449,106.739689 496.321535,106.807392 496.44384,106.942801 C496.566144,107.078209 496.627296,107.244192 496.627296,107.440753 C496.627296,107.637314 496.566144,107.801112 496.44384,107.932153 C496.321535,108.063193 496.142449,108.128713 495.906576,108.128713 C495.670703,108.128713 495.492708,108.063193 495.372588,107.932153 C495.252467,107.801112 495.192408,107.637314 495.192408,107.440753 Z M500.086752,107.604553 L500.086752,109.321177 L501.410256,109.321177 L501.410256,110.258113 L500.086752,110.258113 L500.086752,114.654505 C500.086752,114.837962 500.108592,114.985381 500.152272,115.096765 C500.195952,115.20815 500.253828,115.294417 500.3259,115.35557 C500.397973,115.416722 500.480964,115.457125 500.574876,115.476782 C500.668789,115.496438 500.765976,115.506266 500.86644,115.506266 C500.966905,115.506266 501.072828,115.496438 501.184212,115.476782 C501.295597,115.457125 501.381864,115.440746 501.443016,115.427642 L501.443016,116.410442 C501.34692,116.43665 501.222433,116.465041 501.069552,116.495618 C500.916671,116.526194 500.731033,116.541482 500.512632,116.541482 C500.289863,116.541482 500.079109,116.509814 499.880364,116.446478 C499.681619,116.383141 499.507993,116.277218 499.35948,116.128706 C499.210967,115.980193 499.093032,115.784727 499.005672,115.542302 C498.918312,115.299876 498.874632,115.001763 498.874632,114.647953 L498.874632,110.258113 L497.583888,110.258113 L497.583888,109.321177 L498.874632,109.321177 L498.874632,107.604553 L500.086752,107.604553 Z M505.826305,112.800289 C505.826305,112.284863 505.901652,111.807663 506.052349,111.368677 C506.203045,110.929691 506.417075,110.548587 506.694445,110.225353 C506.971814,109.902119 507.309239,109.648778 507.706729,109.465321 C508.104219,109.281864 508.549751,109.190137 509.043337,109.190137 C509.54566,109.190137 509.996651,109.281864 510.396325,109.465321 C510.795999,109.648778 511.135608,109.902119 511.415161,110.225353 C511.694715,110.548587 511.908745,110.929691 512.057257,111.368677 C512.20577,111.807663 512.280025,112.284863 512.280025,112.800289 L512.280025,112.944433 C512.280025,113.45986 512.20577,113.937059 512.057257,114.376045 C511.908745,114.815032 511.694715,115.195044 511.415161,115.516094 C511.135608,115.837143 510.797091,116.088301 510.399601,116.269574 C510.002111,116.450847 509.554396,116.541482 509.056441,116.541482 C508.558486,116.541482 508.110771,116.450847 507.713281,116.269574 C507.315791,116.088301 506.977274,115.837143 506.697721,115.516094 C506.418167,115.195044 506.203045,114.815032 506.052349,114.376045 C505.901652,113.937059 505.826305,113.45986 505.826305,112.944433 L505.826305,112.800289 Z M507.044977,112.944433 C507.044977,113.298243 507.086472,113.632392 507.169465,113.946889 C507.252457,114.261387 507.378036,114.53766 507.546205,114.775717 C507.714374,115.013775 507.924036,115.202689 508.175197,115.342466 C508.426358,115.482242 508.720103,115.55213 509.056441,115.55213 C509.388411,115.55213 509.681064,115.482242 509.934409,115.342466 C510.187754,115.202689 510.397416,115.013775 510.563401,114.775717 C510.729386,114.53766 510.854965,114.261387 510.940141,113.946889 C511.025318,113.632392 511.067905,113.298243 511.067905,112.944433 L511.067905,112.800289 C511.067905,112.450847 511.025318,112.117791 510.940141,111.801109 C510.854965,111.484428 510.728294,111.207062 510.560125,110.969005 C510.391956,110.730948 510.181202,110.540942 509.927857,110.398981 C509.674512,110.25702 509.379675,110.186041 509.043337,110.186041 C508.711367,110.186041 508.420898,110.25702 508.171921,110.398981 C507.922944,110.540942 507.714374,110.730948 507.546205,110.969005 C507.378036,111.207062 507.252457,111.484428 507.169465,111.801109 C507.086472,112.117791 507.044977,112.450847 507.044977,112.800289 L507.044977,112.944433 Z M518.176826,115.709378 C517.954057,115.971459 517.672324,116.175661 517.331618,116.32199 C516.990912,116.468318 516.580324,116.541482 516.099842,116.541482 C515.7504,116.541482 515.433723,116.492342 515.149802,116.394062 C514.86588,116.295781 514.621275,116.140719 514.415978,115.92887 C514.210681,115.71702 514.052342,115.444023 513.940958,115.109869 C513.829573,114.775716 513.773881,114.372772 513.773881,113.901025 L513.773881,109.321177 L514.986002,109.321177 L514.986002,113.914129 C514.986002,114.232995 515.023129,114.496164 515.097386,114.703645 C515.171642,114.911127 515.269921,115.074925 515.392226,115.195045 C515.51453,115.315166 515.654305,115.398157 515.811554,115.444022 C515.968802,115.489886 516.130417,115.512818 516.296402,115.512818 C516.789988,115.512818 517.18638,115.418906 517.48559,115.231082 C517.784799,115.043257 518.004289,114.792099 518.144066,114.477601 L518.144066,109.321177 L519.356186,109.321177 L519.356186,116.410442 L518.203034,116.410442 L518.176826,115.709378 Z M522.84185,107.604553 L522.84185,109.321177 L524.165355,109.321177 L524.165355,110.258113 L522.84185,110.258113 L522.84185,114.654505 C522.84185,114.837962 522.86369,114.985381 522.90737,115.096765 C522.951051,115.20815 523.008926,115.294417 523.080998,115.35557 C523.153071,115.416722 523.236062,115.457125 523.329974,115.476782 C523.423887,115.496438 523.521074,115.506266 523.621538,115.506266 C523.722003,115.506266 523.827926,115.496438 523.93931,115.476782 C524.050695,115.457125 524.136962,115.440746 524.198115,115.427642 L524.198115,116.410442 C524.102018,116.43665 523.977531,116.465041 523.82465,116.495618 C523.67177,116.526194 523.486132,116.541482 523.26773,116.541482 C523.044961,116.541482 522.834207,116.509814 522.635462,116.446478 C522.436717,116.383141 522.263091,116.277218 522.114578,116.128706 C521.966066,115.980193 521.848131,115.784727 521.76077,115.542302 C521.67341,115.299876 521.62973,115.001763 521.62973,114.647953 L521.62973,110.258113 L520.338986,110.258113 L520.338986,109.321177 L521.62973,109.321177 L521.62973,107.604553 L522.84185,107.604553 Z M534.904084,112.944433 C534.904084,113.464228 534.842932,113.943611 534.720628,114.382597 C534.598323,114.821584 534.419237,115.201596 534.183364,115.522646 C533.94749,115.843695 533.659205,116.093761 533.318499,116.27285 C532.977794,116.451939 532.589046,116.541482 532.152243,116.541482 C531.684865,116.541482 531.280829,116.459582 530.940123,116.295782 C530.599417,116.131981 530.311132,115.897203 530.075259,115.591442 L530.016291,116.410442 L528.902451,116.410442 L528.902451,106.346569 L530.114571,106.346569 L530.114571,110.100865 C530.350444,109.808208 530.634361,109.583258 530.966331,109.426009 C531.298301,109.26876 531.689233,109.190137 532.139139,109.190137 C532.584678,109.190137 532.978886,109.277496 533.321775,109.452217 C533.664665,109.626938 533.95295,109.872635 534.18664,110.189317 C534.420329,110.505999 534.598323,110.886011 534.720628,111.329365 C534.842932,111.772719 534.904084,112.265207 534.904084,112.806841 L534.904084,112.944433 Z M533.691963,112.806841 C533.691963,112.453031 533.659204,112.119975 533.593683,111.807661 C533.528163,111.495348 533.42224,111.221258 533.275911,110.985385 C533.129583,110.749512 532.938485,110.562782 532.702611,110.425189 C532.466738,110.287596 532.178453,110.218801 531.837747,110.218801 C531.614978,110.218801 531.414052,110.247193 531.234963,110.303977 C531.055874,110.360761 530.895352,110.439385 530.753391,110.539849 C530.61143,110.640314 530.488036,110.758248 530.383203,110.893657 C530.278371,111.029066 530.188827,111.175392 530.114571,111.332641 L530.114571,114.398977 C530.193196,114.556226 530.286015,114.702553 530.393031,114.837961 C530.500048,114.97337 530.624534,115.091305 530.766495,115.191769 C530.908456,115.292234 531.068978,115.370857 531.248067,115.427642 C531.427156,115.484426 531.628082,115.512818 531.850851,115.512818 C532.178453,115.512818 532.458002,115.445114 532.689507,115.309706 C532.921013,115.174297 533.111019,114.990843 533.259531,114.759337 C533.408044,114.527832 533.517243,114.255927 533.587131,113.943613 C533.65702,113.6313 533.691963,113.298243 533.691963,112.944433 L533.691963,112.806841 Z M539.372548,116.541482 C538.878962,116.541482 538.432338,116.456306 538.032664,116.285954 C537.63299,116.115601 537.291197,115.878639 537.007276,115.575062 C536.723354,115.271484 536.504957,114.910036 536.352076,114.490705 C536.199195,114.071375 536.122756,113.61274 536.122756,113.114785 L536.122756,112.839601 C536.122756,112.263022 536.209023,111.747603 536.38156,111.293329 C536.554097,110.839055 536.784506,110.456859 537.072796,110.146729 C537.361085,109.836599 537.690866,109.599638 538.062148,109.435837 C538.43343,109.272036 538.819994,109.190137 539.221852,109.190137 C539.728543,109.190137 540.165338,109.278588 540.532252,109.455493 C540.899166,109.632398 541.201647,109.875911 541.439704,110.186041 C541.677761,110.496171 541.853572,110.863079 541.96714,111.286777 C542.080709,111.710475 542.137492,112.171295 542.137492,112.669249 L542.137492,113.213065 L537.334876,113.213065 C537.343612,113.540667 537.397119,113.846424 537.4954,114.130345 C537.59368,114.414267 537.733455,114.661056 537.914728,114.870721 C538.096001,115.080387 538.314399,115.246369 538.569928,115.368674 C538.825457,115.490978 539.114834,115.55213 539.438068,115.55213 C539.866134,115.55213 540.228675,115.46477 540.5257,115.29005 C540.822726,115.115329 541.082619,114.883827 541.305388,114.595537 L542.045764,115.172113 C541.932196,115.346834 541.794605,115.516093 541.632988,115.679894 C541.471371,115.843694 541.282457,115.990021 541.06624,116.118878 C540.850023,116.247734 540.602142,116.350381 540.322588,116.426822 C540.043035,116.503262 539.726358,116.541482 539.372548,116.541482 Z M539.221852,110.186041 C538.977243,110.186041 538.752293,110.230813 538.546996,110.320357 C538.341699,110.409901 538.158245,110.539848 537.996628,110.710201 C537.835011,110.880554 537.700696,111.0924 537.59368,111.345745 C537.486663,111.59909 537.4135,111.88956 537.374188,112.217161 L540.925372,112.217161 L540.925372,112.125433 C540.912268,111.88956 540.874048,111.655874 540.810712,111.424369 C540.747376,111.192864 540.649097,110.985386 540.515872,110.801929 C540.382647,110.618472 540.211205,110.469962 540.00154,110.356393 C539.791875,110.242824 539.531982,110.186041 539.221852,110.186041 Z M544.856573,116.410442 L543.644452,116.410442 L543.644452,106.346569 L544.856573,106.346569 L544.856573,116.410442 Z M546.474917,112.800289 C546.474917,112.284863 546.550264,111.807663 546.700961,111.368677 C546.851658,110.929691 547.065687,110.548587 547.343057,110.225353 C547.620426,109.902119 547.957851,109.648778 548.355341,109.465321 C548.752831,109.281864 549.198363,109.190137 549.691949,109.190137 C550.194272,109.190137 550.645263,109.281864 551.044937,109.465321 C551.444611,109.648778 551.78422,109.902119 552.063773,110.225353 C552.343327,110.548587 552.557357,110.929691 552.705869,111.368677 C552.854382,111.807663 552.928637,112.284863 552.928637,112.800289 L552.928637,112.944433 C552.928637,113.45986 552.854382,113.937059 552.705869,114.376045 C552.557357,114.815032 552.343327,115.195044 552.063773,115.516094 C551.78422,115.837143 551.445703,116.088301 551.048213,116.269574 C550.650723,116.450847 550.203008,116.541482 549.705053,116.541482 C549.207099,116.541482 548.759383,116.450847 548.361893,116.269574 C547.964403,116.088301 547.625886,115.837143 547.346333,115.516094 C547.066779,115.195044 546.851658,114.815032 546.700961,114.376045 C546.550264,113.937059 546.474917,113.45986 546.474917,112.944433 L546.474917,112.800289 Z M547.693589,112.944433 C547.693589,113.298243 547.735084,113.632392 547.818077,113.946889 C547.901069,114.261387 548.026648,114.53766 548.194817,114.775717 C548.362986,115.013775 548.572648,115.202689 548.823809,115.342466 C549.07497,115.482242 549.368715,115.55213 549.705053,115.55213 C550.037023,115.55213 550.329676,115.482242 550.583021,115.342466 C550.836366,115.202689 551.046028,115.013775 551.212013,114.775717 C551.377998,114.53766 551.503577,114.261387 551.588753,113.946889 C551.67393,113.632392 551.716517,113.298243 551.716517,112.944433 L551.716517,112.800289 C551.716517,112.450847 551.67393,112.117791 551.588753,111.801109 C551.503577,111.484428 551.376906,111.207062 551.208737,110.969005 C551.040568,110.730948 550.829814,110.540942 550.576469,110.398981 C550.323124,110.25702 550.028287,110.186041 549.691949,110.186041 C549.359979,110.186041 549.06951,110.25702 548.820533,110.398981 C548.571556,110.540942 548.362986,110.730948 548.194817,110.969005 C548.026648,111.207062 547.901069,111.484428 547.818077,111.801109 C547.735084,112.117791 547.693589,112.450847 547.693589,112.800289 L547.693589,112.944433 Z M560.725518,114.739681 L562.088334,109.321177 L563.300454,109.321177 L561.236574,116.410442 L560.253774,116.410442 L558.530598,111.037801 L556.853286,116.410442 L555.870486,116.410442 L553.813157,109.321177 L555.018726,109.321177 L556.414302,114.628297 L558.065406,109.321177 L559.041654,109.321177 L560.725518,114.739681 Z M564.558439,115.774898 C564.558439,115.565232 564.620682,115.390514 564.745171,115.250738 C564.869659,115.110961 565.056389,115.041073 565.305367,115.041073 C565.554344,115.041073 565.743258,115.110961 565.872115,115.250738 C566.000971,115.390514 566.065399,115.565232 566.065399,115.774898 C566.065399,115.975827 566.000971,116.143993 565.872115,116.279402 C565.743258,116.41481 565.554344,116.482514 565.305367,116.482514 C565.056389,116.482514 564.869659,116.41481 564.745171,116.279402 C564.620682,116.143993 564.558439,115.975827 564.558439,115.774898 Z M332.604512,150.643708 C332.552095,151.093614 332.441804,151.511846 332.273636,151.898416 C332.105467,152.284986 331.872873,152.619134 331.575847,152.900872 C331.278822,153.182609 330.916282,153.403191 330.488215,153.562624 C330.060149,153.722057 329.560018,153.801772 328.987807,153.801772 C328.424332,153.801772 327.913281,153.696941 327.454639,153.487276 C326.995997,153.277611 326.603973,152.979498 326.278555,152.592928 C325.953137,152.206358 325.70198,151.742262 325.525075,151.200628 C325.34817,150.658993 325.259719,150.054031 325.259719,149.385723 L325.259719,148.429131 C325.259719,147.760824 325.349262,147.15477 325.528351,146.610951 C325.70744,146.067132 325.962965,145.601945 326.294935,145.215375 C326.626905,144.828805 327.029849,144.5296 327.503779,144.317751 C327.977709,144.105902 328.509508,143.999979 329.099191,143.999979 C329.636458,143.999979 330.112565,144.078602 330.527527,144.235851 C330.942489,144.3931 331.295202,144.61259 331.585675,144.894327 C331.876149,145.176064 332.106559,145.512397 332.276912,145.903335 C332.447264,146.294273 332.556463,146.725609 332.604512,147.197355 L331.339975,147.197355 C331.291927,146.865386 331.217672,146.566181 331.117207,146.299731 C331.016743,146.033282 330.87806,145.806148 330.701155,145.618323 C330.52425,145.430498 330.304761,145.286356 330.042679,145.185891 C329.780598,145.085427 329.466105,145.035195 329.099191,145.035195 C328.675493,145.035195 328.303125,145.117094 327.982075,145.280895 C327.661025,145.444696 327.392396,145.674014 327.176179,145.968855 C326.959962,146.263697 326.797256,146.619685 326.688055,147.036831 C326.578854,147.453977 326.524255,147.913705 326.524255,148.416027 L326.524255,149.385723 C326.524255,149.853102 326.573394,150.292082 326.671675,150.702676 C326.769955,151.11327 326.919558,151.472534 327.120487,151.78048 C327.321416,152.088425 327.576942,152.330847 327.887071,152.507752 C328.197201,152.684657 328.564109,152.773108 328.987807,152.773108 C329.389665,152.773108 329.728182,152.72506 330.003367,152.628964 C330.278553,152.532867 330.506778,152.394185 330.688051,152.212912 C330.869324,152.031639 331.010191,151.808873 331.110655,151.544608 C331.21112,151.280342 331.287559,150.980045 331.339975,150.643708 L332.604512,150.643708 Z M335.343248,147.439779 C335.596593,147.12965 335.900166,146.887228 336.253976,146.712507 C336.607786,146.537786 337.003086,146.450427 337.439888,146.450427 C337.784962,146.450427 338.097271,146.497383 338.376824,146.591295 C338.656378,146.685208 338.894431,146.835902 339.090992,147.043383 C339.287553,147.250864 339.43934,147.51731 339.546356,147.842727 C339.653373,148.168145 339.70688,148.562353 339.70688,149.025363 L339.70688,153.670732 L338.49476,153.670732 L338.49476,149.012259 C338.49476,148.737074 338.464184,148.502296 338.403032,148.307919 C338.34188,148.113542 338.251245,147.955204 338.131124,147.832899 C338.011003,147.710595 337.862493,147.621052 337.685588,147.564267 C337.508683,147.507483 337.304481,147.479091 337.072976,147.479091 C336.679854,147.479091 336.334785,147.583922 336.03776,147.793587 C335.740734,148.003252 335.509233,148.278434 335.343248,148.619139 L335.343248,153.670732 L334.131128,153.670732 L334.131128,143.606859 L335.343248,143.606859 L335.343248,147.439779 Z M344.463633,153.801772 C343.970046,153.801772 343.523423,153.716597 343.123749,153.546244 C342.724075,153.375891 342.382282,153.138929 342.09836,152.835352 C341.814439,152.531774 341.596041,152.170326 341.44316,151.750996 C341.29028,151.331666 341.21384,150.87303 341.21384,150.375076 L341.21384,150.099892 C341.21384,149.523313 341.300108,149.007894 341.472644,148.553619 C341.645181,148.099345 341.875591,147.717149 342.16388,147.407019 C342.45217,147.09689 342.781951,146.859928 343.153233,146.696127 C343.524514,146.532326 343.911079,146.450427 344.312937,146.450427 C344.819627,146.450427 345.256423,146.538878 345.623337,146.715783 C345.990251,146.892688 346.292732,147.136202 346.530789,147.446331 C346.768846,147.756461 346.944656,148.123369 347.058225,148.547067 C347.171794,148.970766 347.228577,149.431585 347.228577,149.92954 L347.228577,150.473356 L342.425961,150.473356 C342.434697,150.800957 342.488204,151.106714 342.586485,151.390636 C342.684765,151.674557 342.82454,151.921347 343.005813,152.131012 C343.187086,152.340677 343.405483,152.506659 343.661013,152.628964 C343.916542,152.751268 344.205919,152.81242 344.529153,152.81242 C344.957219,152.81242 345.319759,152.725061 345.616785,152.55034 C345.91381,152.375619 346.173704,152.144117 346.396473,151.855828 L347.136849,152.432404 C347.02328,152.607125 346.88569,152.776383 346.724073,152.940184 C346.562456,153.103985 346.373542,153.250311 346.157325,153.379168 C345.941108,153.508025 345.693226,153.610672 345.413673,153.687112 C345.134119,153.763552 344.817443,153.801772 344.463633,153.801772 Z M344.312937,147.446331 C344.068327,147.446331 343.843378,147.491103 343.638081,147.580647 C343.432784,147.670192 343.249329,147.800138 343.087713,147.970491 C342.926096,148.140844 342.791781,148.35269 342.684765,148.606035 C342.577748,148.859381 342.504585,149.14985 342.465273,149.477451 L346.016457,149.477451 L346.016457,149.385723 C346.003353,149.14985 345.965133,148.916165 345.901797,148.684659 C345.838461,148.453154 345.740182,148.245676 345.606957,148.062219 C345.473732,147.878762 345.30229,147.730252 345.092625,147.616683 C344.88296,147.503115 344.623066,147.446331 344.312937,147.446331 Z M351.572553,153.801772 C351.078967,153.801772 350.632343,153.716597 350.232669,153.546244 C349.832995,153.375891 349.491203,153.138929 349.207281,152.835352 C348.92336,152.531774 348.704962,152.170326 348.552081,151.750996 C348.3992,151.331666 348.322761,150.87303 348.322761,150.375076 L348.322761,150.099892 C348.322761,149.523313 348.409028,149.007894 348.581565,148.553619 C348.754102,148.099345 348.984512,147.717149 349.272801,147.407019 C349.561091,147.09689 349.890871,146.859928 350.262153,146.696127 C350.633435,146.532326 351.019999,146.450427 351.421857,146.450427 C351.928548,146.450427 352.365344,146.538878 352.732258,146.715783 C353.099171,146.892688 353.401652,147.136202 353.63971,147.446331 C353.877767,147.756461 354.053577,148.123369 354.167146,148.547067 C354.280714,148.970766 354.337498,149.431585 354.337498,149.92954 L354.337498,150.473356 L349.534881,150.473356 C349.543617,150.800957 349.597125,151.106714 349.695405,151.390636 C349.793686,151.674557 349.93346,151.921347 350.114733,152.131012 C350.296006,152.340677 350.514404,152.506659 350.769933,152.628964 C351.025463,152.751268 351.31484,152.81242 351.638073,152.81242 C352.06614,152.81242 352.42868,152.725061 352.725706,152.55034 C353.022731,152.375619 353.282624,152.144117 353.505394,151.855828 L354.24577,152.432404 C354.132201,152.607125 353.99461,152.776383 353.832994,152.940184 C353.671377,153.103985 353.482463,153.250311 353.266246,153.379168 C353.050028,153.508025 352.802147,153.610672 352.522594,153.687112 C352.24304,153.763552 351.926363,153.801772 351.572553,153.801772 Z M351.421857,147.446331 C351.177248,147.446331 350.952298,147.491103 350.747001,147.580647 C350.541704,147.670192 350.35825,147.800138 350.196633,147.970491 C350.035016,148.140844 349.900702,148.35269 349.793685,148.606035 C349.686669,148.859381 349.613505,149.14985 349.574193,149.477451 L353.125378,149.477451 L353.125378,149.385723 C353.112274,149.14985 353.074054,148.916165 353.010718,148.684659 C352.947381,148.453154 352.849102,148.245676 352.715878,148.062219 C352.582653,147.878762 352.411211,147.730252 352.201545,147.616683 C351.99188,147.503115 351.731987,147.446331 351.421857,147.446331 Z M359.166322,147.669099 C359.06149,147.651627 358.964303,147.639615 358.874758,147.633063 C358.785214,147.626511 358.683659,147.623235 358.57009,147.623235 C358.15076,147.623235 357.808967,147.714962 357.544702,147.898419 C357.280437,148.081876 357.082787,148.328666 356.951746,148.638795 L356.951746,153.670732 L355.739626,153.670732 L355.739626,146.581467 L356.918986,146.581467 L356.938642,147.400467 C357.122099,147.10781 357.351417,146.876308 357.626602,146.705955 C357.901787,146.535602 358.235936,146.450427 358.629058,146.450427 C358.716419,146.450427 358.816882,146.460255 358.93045,146.479911 C359.044019,146.499567 359.122642,146.520315 359.166322,146.542155 L359.166322,147.669099 Z M364.407923,151.790308 C364.407923,151.659267 364.388267,151.535872 364.348955,151.42012 C364.309642,151.304367 364.232111,151.195168 364.116359,151.09252 C364.000606,150.989871 363.835716,150.894868 363.621683,150.807508 C363.40765,150.720147 363.125916,150.63934 362.776475,150.565084 C362.383353,150.482091 362.029548,150.383812 361.71505,150.270244 C361.400553,150.156675 361.133015,150.020176 360.91243,149.860744 C360.691845,149.701311 360.522587,149.512397 360.40465,149.293995 C360.286714,149.075594 360.227746,148.820069 360.227746,148.527411 C360.227746,148.247858 360.28999,147.982505 360.414478,147.731343 C360.538967,147.480182 360.714777,147.2596 360.941914,147.069591 C361.169052,146.879582 361.444233,146.728888 361.767466,146.617503 C362.0907,146.506119 362.451057,146.450427 362.848547,146.450427 C363.272245,146.450427 363.651165,146.508303 363.985319,146.624055 C364.319472,146.739808 364.60339,146.898146 364.837079,147.099075 C365.070768,147.300004 365.248762,147.534782 365.371067,147.803415 C365.493371,148.072049 365.554523,148.359242 365.554523,148.665003 L364.335851,148.665003 C364.335851,148.520859 364.303091,148.375624 364.237571,148.229295 C364.17205,148.082967 364.075955,147.951928 363.949283,147.836175 C363.82261,147.720423 363.667548,147.626512 363.484091,147.554439 C363.300634,147.482367 363.088788,147.446331 362.848547,147.446331 C362.595201,147.446331 362.380079,147.475815 362.203174,147.534783 C362.02627,147.593752 361.881035,147.672375 361.767466,147.770655 C361.653898,147.868936 361.570907,147.980319 361.51849,148.104807 C361.466074,148.229296 361.439866,148.357059 361.439866,148.488099 C361.439866,148.61914 361.461706,148.737075 361.505386,148.841907 C361.549067,148.94674 361.632058,149.041743 361.754362,149.126919 C361.876667,149.212096 362.043741,149.290719 362.25559,149.362791 C362.46744,149.434864 362.741529,149.508027 363.077867,149.582283 C363.510301,149.682748 363.885945,149.796315 364.204811,149.922988 C364.523676,150.04966 364.787938,150.197079 364.997603,150.365248 C365.207268,150.533416 365.363422,150.726699 365.466071,150.9451 C365.568719,151.163501 365.620043,151.416842 365.620043,151.705132 C365.620043,152.015261 365.555615,152.299178 365.426759,152.556892 C365.297902,152.814605 365.113356,153.035187 364.873115,153.218644 C364.632874,153.402101 364.344588,153.545151 364.008251,153.6478 C363.671913,153.750448 363.298453,153.801772 362.887859,153.801772 C362.416112,153.801772 362.000064,153.736253 361.639702,153.605212 C361.279341,153.474171 360.97686,153.300545 360.73225,153.084328 C360.487641,152.868111 360.302003,152.621321 360.17533,152.343952 C360.048658,152.066582 359.985322,151.781573 359.985322,151.488916 L361.197442,151.488916 C361.210546,151.737893 361.270606,151.946463 361.377622,152.114632 C361.484639,152.282801 361.618954,152.419299 361.78057,152.524132 C361.942187,152.628964 362.11909,152.70322 362.311282,152.7469 C362.503475,152.79058 362.695666,152.81242 362.887859,152.81242 C363.136836,152.81242 363.355234,152.786212 363.543059,152.733796 C363.730884,152.68138 363.889222,152.609308 364.018079,152.51758 C364.146935,152.425851 364.244122,152.317744 364.309643,152.193256 C364.375163,152.068767 364.407923,151.934452 364.407923,151.790308 Z M368.299811,153.20554 C368.299811,153.402101 368.274695,153.607395 368.224463,153.821428 C368.174231,154.035461 368.099976,154.247307 368.001695,154.456972 C367.903415,154.666637 367.784388,154.867563 367.644611,155.059756 C367.504834,155.251949 367.34322,155.422299 367.159763,155.570812 L366.471803,155.099068 C366.6771,154.810779 366.835438,154.514849 366.946823,154.211272 C367.058208,153.907694 367.113899,153.579006 367.113899,153.225196 L367.113899,152.235844 L368.299811,152.235844 L368.299811,153.20554 Z M378.61266,151.180972 L374.61594,151.180972 L373.718316,153.670732 L372.421019,153.670732 L376.063932,144.131019 L377.164668,144.131019 L380.814132,153.670732 L379.523388,153.670732 L378.61266,151.180972 Z M374.995956,150.145756 L378.239196,150.145756 L376.6143,145.683843 L374.995956,150.145756 Z M381.613476,150.067132 C381.613476,149.525497 381.680088,149.03301 381.813312,148.589655 C381.946537,148.146301 382.135451,147.766289 382.38006,147.449607 C382.62467,147.132926 382.918415,146.887228 383.261305,146.712507 C383.604194,146.537786 383.987483,146.450427 384.411181,146.450427 C384.843615,146.450427 385.221443,146.52359 385.544677,146.669919 C385.86791,146.816248 386.14746,147.027002 386.383333,147.302187 L386.383333,143.606859 L387.595453,143.606859 L387.595453,153.670732 L386.481613,153.670732 L386.422645,152.9107 C386.186772,153.198989 385.902854,153.419571 385.570885,153.572452 C385.238915,153.725333 384.847983,153.801772 384.398077,153.801772 C383.983115,153.801772 383.604194,153.712229 383.261305,153.53314 C382.918415,153.354051 382.62467,153.103985 382.38006,152.782936 C382.135451,152.461886 381.946537,152.081874 381.813312,151.642888 C381.680088,151.203901 381.613476,150.724518 381.613476,150.204724 L381.613476,150.067132 Z M382.825597,150.204724 C382.825597,150.558533 382.861632,150.89159 382.933705,151.203904 C383.005777,151.516217 383.118252,151.788123 383.271133,152.019628 C383.424013,152.251133 383.618387,152.434587 383.854261,152.569996 C384.090134,152.705404 384.371867,152.773108 384.699469,152.773108 C384.913502,152.773108 385.105692,152.747992 385.276045,152.69776 C385.446398,152.647528 385.600368,152.576548 385.737961,152.48482 C385.875554,152.393091 385.997856,152.283892 386.104873,152.15722 C386.211889,152.030547 386.304708,151.890772 386.383333,151.737892 L386.383333,148.481547 C386.304708,148.337403 386.212981,148.20418 386.108149,148.081875 C386.003316,147.959571 385.882106,147.853648 385.744513,147.764103 C385.60692,147.674559 385.45295,147.604672 385.282597,147.554439 C385.112244,147.504207 384.922238,147.479091 384.712573,147.479091 C384.380603,147.479091 384.095594,147.547887 383.857537,147.685479 C383.619479,147.823072 383.424013,148.009802 383.271133,148.245675 C383.118252,148.481549 383.005777,148.755638 382.933705,149.067951 C382.861632,149.380265 382.825597,149.713322 382.825597,150.067132 L382.825597,150.204724 Z M393.852614,153.670732 C393.808933,153.583371 393.77399,153.473081 393.747782,153.339856 C393.721573,153.206631 393.699734,153.067949 393.682262,152.923804 C393.568693,153.04174 393.44093,153.154215 393.29897,153.261232 C393.157009,153.368248 393.001946,153.462159 392.833778,153.542968 C392.665609,153.623776 392.483246,153.687112 392.286685,153.732976 C392.090124,153.77884 391.882647,153.801772 391.664245,153.801772 C391.3017,153.801772 390.973011,153.747172 390.678169,153.637972 C390.383328,153.528771 390.13217,153.380261 389.924689,153.192436 C389.717208,153.004611 389.556686,152.782937 389.443117,152.527408 C389.329549,152.271878 389.272765,151.997789 389.272765,151.705132 C389.272765,151.325114 389.34702,150.989873 389.495533,150.6994 C389.644046,150.408926 389.856984,150.165413 390.134353,149.968852 C390.411723,149.772291 390.746963,149.62378 391.140085,149.523315 C391.533207,149.422851 391.972187,149.372619 392.457037,149.372619 L393.662606,149.372619 L393.662606,148.815699 C393.662606,148.392001 393.535935,148.054577 393.28259,147.803415 C393.029244,147.552254 392.655784,147.426675 392.162197,147.426675 C391.93506,147.426675 391.727582,147.457251 391.539757,147.518403 C391.351932,147.579556 391.19141,147.661455 391.058185,147.764103 C390.924961,147.866752 390.821222,147.985779 390.746965,148.121187 C390.672709,148.256596 390.635581,148.398555 390.635581,148.547067 L389.416909,148.547067 C389.416909,148.293722 389.483521,148.042565 389.616745,147.793587 C389.74997,147.54461 389.938884,147.320752 390.183493,147.122007 C390.428102,146.923262 390.724032,146.761648 391.071289,146.637159 C391.418547,146.512671 391.806203,146.450427 392.234269,146.450427 C392.618655,146.450427 392.973552,146.499567 393.29897,146.597847 C393.624387,146.696128 393.902844,146.844638 394.13435,147.043383 C394.365855,147.242128 394.547125,147.49001 394.678166,147.787035 C394.809206,148.084061 394.874726,148.431313 394.874726,148.828803 L394.874726,152.12446 C394.874726,152.364701 394.895474,152.61695 394.93697,152.881216 C394.978466,153.145481 395.040709,153.373707 395.123702,153.5659 L395.123702,153.670732 L393.852614,153.670732 Z M391.841149,152.7469 C392.059551,152.7469 392.264844,152.716324 392.457037,152.655172 C392.64923,152.594019 392.823949,152.514304 392.981198,152.416024 C393.138446,152.317743 393.274945,152.205268 393.390698,152.078596 C393.50645,151.951923 393.597085,151.820884 393.662606,151.685476 L393.662606,150.230932 L392.653597,150.230932 C391.959082,150.230932 391.424007,150.339038 391.048357,150.555256 C390.672707,150.771473 390.484885,151.097977 390.484885,151.53478 C390.484885,151.705133 390.513277,151.864563 390.570061,152.013076 C390.626846,152.161588 390.713113,152.289351 390.828865,152.396368 C390.944618,152.503384 391.086577,152.588559 391.254745,152.651896 C391.422914,152.715232 391.61838,152.7469 391.841149,152.7469 Z" id="Hi-Florian!-Ive-got" fill-opacity="0.801828578" fill="#173145"></path>
                    <polygon id="Line-3" fill-opacity="0.08" fill="#173145" fill-rule="nonzero" points="246.602094 28.0892873 248.162867 28.0892873 248.162867 536.81749 246.602094 536.81749"></polygon>
                    <path d="M228.939591,271.529777 L70.9852651,271.529777" id="Line-4-Copy-2" stroke-opacity="0.03" stroke="#173145" stroke-width="1.49760014" stroke-linecap="square"></path>
                    <path d="M228.939591,435.383953 L70.9852651,435.383953" id="Line-4-Copy-4" stroke-opacity="0.03" stroke="#173145" stroke-width="1.49760014" stroke-linecap="square"></path>
                    <path d="M228.939591,191.943463 L70.9852651,191.943463" id="Line-4-Copy" stroke-opacity="0.03" stroke="#173145" stroke-width="1.49760014" stroke-linecap="square"></path>
                    <path d="M228.939591,352.676607 L70.9852651,352.676607" id="Line-4-Copy-3" stroke-opacity="0.03" stroke="#173145" stroke-width="1.49760014" stroke-linecap="square"></path>
                    <path d="M228.939591,516.530782 L70.9852651,516.530782" id="Line-4-Copy-5" stroke-opacity="0.03" stroke="#173145" stroke-width="1.49760014" stroke-linecap="square"></path>
                    <rect id="Rectangle-14-Copy-8" fill-opacity="0.08" fill="#173145" x="74.9170918" y="210.669654" width="93.6463647" height="14.0446436" rx="2.99520028"></rect>
                    <rect id="Rectangle-14-Copy-16" fill-opacity="0.08" fill="#173145" x="74.9170918" y="372.963314" width="93.6463647" height="14.0446436" rx="2.99520028"></rect>
                    <rect id="Rectangle-14-Copy-4" fill-opacity="0.08" fill="#173145" x="74.9170918" y="132.643857" width="93.6463647" height="14.0446436" rx="2.99520028"></rect>
                    <rect id="Rectangle-14-Copy-9" fill-opacity="0.08" fill="#173145" x="74.9170918" y="290.255968" width="93.6463647" height="14.0446436" rx="2.99520028"></rect>
                    <rect id="Rectangle-14-Copy-17" fill-opacity="0.08" fill="#173145" x="74.9170918" y="454.110144" width="93.6463647" height="14.0446436" rx="2.99520028"></rect>
                    <rect id="Rectangle-14-Copy-10" fill-opacity="0.08" fill="#173145" x="74.9170918" y="232.516878" width="152.955729" height="9.36309575" rx="2.99520028"></rect>
                    <rect id="Rectangle-14-Copy-18" fill-opacity="0.08" fill="#173145" x="74.9170918" y="396.371054" width="152.955729" height="9.36309575" rx="2.99520028"></rect>
                    <rect id="Rectangle-14-Copy-5" fill-opacity="0.08" fill="#173145" x="74.9170918" y="152.930564" width="152.955729" height="9.36309575" rx="2.99520028"></rect>
                    <rect id="Rectangle-14-Copy-11" fill-opacity="0.08" fill="#173145" x="74.9170918" y="313.663708" width="152.955729" height="9.36309575" rx="2.99520028"></rect>
                    <rect id="Rectangle-14-Copy-19" fill-opacity="0.08" fill="#173145" x="74.9170918" y="477.517883" width="152.955729" height="9.36309575" rx="2.99520028"></rect>
                    <rect id="Rectangle-14-Copy-12" fill-opacity="0.08" fill="#173145" x="212.265093" y="213.790686" width="15.6077275" height="9.36309575" rx="2.99520028"></rect>
                    <rect id="Rectangle-14-Copy-20" fill-opacity="0.08" fill="#173145" x="212.265093" y="377.644862" width="15.6077275" height="9.36309575" rx="2.99520028"></rect>
                    <rect id="Rectangle-14-Copy-6" fill-opacity="0.08" fill="#173145" x="212.265093" y="134.204372" width="15.6077275" height="9.36309575" rx="2.99520028"></rect>
                    <rect id="Rectangle-14-Copy-13" fill-opacity="0.08" fill="#173145" x="212.265093" y="294.937516" width="15.6077275" height="9.36309575" rx="2.99520028"></rect>
                    <rect id="Rectangle-14-Copy-21" fill-opacity="0.08" fill="#173145" x="212.265093" y="458.791692" width="15.6077275" height="9.36309575" rx="2.99520028"></rect>
                    <rect id="Rectangle-14-Copy-14" fill-opacity="0.08" fill="#173145" x="74.9170918" y="243.44049" width="134.226456" height="9.36309575" rx="2.99520028"></rect>
                    <rect id="Rectangle-14-Copy-22" fill-opacity="0.08" fill="#173145" x="74.9170918" y="407.294665" width="134.226456" height="9.36309575" rx="2.99520028"></rect>
                    <rect id="Rectangle-14-Copy-7" fill-opacity="0.08" fill="#173145" x="74.9170918" y="165.414692" width="134.226456" height="9.36309575" rx="2.99520028"></rect>
                    <rect id="Rectangle-14-Copy-15" fill-opacity="0.08" fill="#173145" x="74.9170918" y="324.587319" width="134.226456" height="9.36309575" rx="2.99520028"></rect>
                    <rect id="Rectangle-14-Copy-23" fill-opacity="0.08" fill="#173145" x="74.9170918" y="488.441495" width="134.226456" height="9.36309575" rx="2.99520028"></rect>
                </g>
            </g>
        </g>
    </g>
</svg>