<?xml version="1.0" encoding="UTF-8"?>
<svg width="808px" height="549px" viewBox="0 0 808 549" version="1.1" xmlns="http://www.w3.org/2000/svg" xmlns:xlink="http://www.w3.org/1999/xlink">
    <!-- Generator: Sketch 49.1 (51147) - http://www.bohemiancoding.com/sketch -->
    <title>Group 10</title>
    <desc>Created with Sketch.</desc>
    <defs>
        <filter x="-1.4%" y="-1.3%" width="102.8%" height="104.1%" filterUnits="objectBoundingBox" id="filter-1">
            <feOffset dx="0" dy="4" in="SourceAlpha" result="shadowOffsetOuter1"></feOffset>
            <feGaussianBlur stdDeviation="3" in="shadowOffsetOuter1" result="shadowBlurOuter1"></feGaussianBlur>
            <feColorMatrix values="0 0 0 0 0.0901960784   0 0 0 0 0.192156863   0 0 0 0 0.270588235  0 0 0 0.16 0" type="matrix" in="shadowBlurOuter1" result="shadowMatrixOuter1"></feColorMatrix>
            <feMerge>
                <feMergeNode in="shadowMatrixOuter1"></feMergeNode>
                <feMergeNode in="SourceGraphic"></feMergeNode>
            </feMerge>
        </filter>
    </defs>
    <g id="Homepage" stroke="none" stroke-width="1" fill="none" fill-rule="evenodd">
        <g id="Group-10" transform="translate(6.000000, 2.000000)">
            <path d="M228.939591,110.796633 L70.9852651,110.796633" id="Line-4" stroke-opacity="0.03" stroke="#173145" stroke-width="1.49760014" stroke-linecap="square"></path>
            <rect id="Rectangle-14" fill-opacity="0.08" fill="#173145" x="74.9170918" y="51.4970266" width="93.6463647" height="14.0446436" rx="2.99520028"></rect>
            <rect id="Rectangle-14" fill-opacity="0.08" fill="#173145" x="74.9170918" y="71.7837341" width="152.955729" height="9.36309575" rx="2.99520028"></rect>
            <rect id="Rectangle-14-Copy-3" fill-opacity="0.08" fill="#173145" x="212.265093" y="53.0575426" width="15.6077275" height="9.36309575" rx="2.99520028"></rect>
            <rect id="Rectangle-14-Copy-2" fill-opacity="0.08" fill="#173145" x="74.9170918" y="84.2678618" width="134.226456" height="9.36309575" rx="2.99520028"></rect>
            <g id="Group-24-Copy" filter="url(#filter-1)" fill-rule="nonzero">
                <rect id="bg-screen-b" fill="#FFFFFF" x="0" y="0" width="795.9941" height="536.81749" rx="5.99040057"></rect>
                <path d="M6.60576017,0 L789.38834,0 C793.036601,-7.2919536e-16 795.9941,3.21795986 795.9941,7.18751451 L795.9941,26.9531794 L0,26.9531794 L0,7.18751451 C-4.46783067e-16,3.21795986 2.95749957,7.2919536e-16 6.60576017,0 Z" id="Shape" fill-opacity="0.08" fill="#173145"></path>
            </g>
            <text id="Hi-Florian!-I’ve-got" font-family="Roboto-Regular, Roboto" font-size="13.4184973" font-weight="normal" line-spacing="18.6301451" fill="#173145" fill-opacity="0.801828578">
                <tspan x="324.480031" y="77.5200062">Hi Florian!</tspan>
                <tspan x="324.480031" y="96.1501513"></tspan>
                <tspan x="324.480031" y="114.780296">I’ve got news for you. Check it out below.</tspan>
                <tspan x="324.480031" y="133.410442"></tspan>
                <tspan x="324.480031" y="152.040587">Cheers, Ada</tspan>
            </text>
            <polygon id="Line-3" fill-opacity="0.08" fill="#173145" fill-rule="nonzero" points="246.602094 28.0892873 248.162867 28.0892873 248.162867 536.81749 246.602094 536.81749"></polygon>
            <path d="M228.939591,271.529777 L70.9852651,271.529777" id="Line-4-Copy-2" stroke-opacity="0.03" stroke="#173145" stroke-width="1.49760014" stroke-linecap="square"></path>
            <path d="M228.939591,435.383953 L70.9852651,435.383953" id="Line-4-Copy-4" stroke-opacity="0.03" stroke="#173145" stroke-width="1.49760014" stroke-linecap="square"></path>
            <path d="M228.939591,191.943463 L70.9852651,191.943463" id="Line-4-Copy" stroke-opacity="0.03" stroke="#173145" stroke-width="1.49760014" stroke-linecap="square"></path>
            <path d="M228.939591,352.676607 L70.9852651,352.676607" id="Line-4-Copy-3" stroke-opacity="0.03" stroke="#173145" stroke-width="1.49760014" stroke-linecap="square"></path>
            <path d="M228.939591,516.530782 L70.9852651,516.530782" id="Line-4-Copy-5" stroke-opacity="0.03" stroke="#173145" stroke-width="1.49760014" stroke-linecap="square"></path>
            <rect id="Rectangle-14-Copy-8" fill-opacity="0.08" fill="#173145" x="74.9170918" y="210.669654" width="93.6463647" height="14.0446436" rx="2.99520028"></rect>
            <rect id="Rectangle-14-Copy-16" fill-opacity="0.08" fill="#173145" x="74.9170918" y="372.963314" width="93.6463647" height="14.0446436" rx="2.99520028"></rect>
            <rect id="Rectangle-14-Copy-4" fill-opacity="0.08" fill="#173145" x="74.9170918" y="132.643857" width="93.6463647" height="14.0446436" rx="2.99520028"></rect>
            <rect id="Rectangle-14-Copy-9" fill-opacity="0.08" fill="#173145" x="74.9170918" y="290.255968" width="93.6463647" height="14.0446436" rx="2.99520028"></rect>
            <rect id="Rectangle-14-Copy-17" fill-opacity="0.08" fill="#173145" x="74.9170918" y="454.110144" width="93.6463647" height="14.0446436" rx="2.99520028"></rect>
            <rect id="Rectangle-14-Copy-10" fill-opacity="0.08" fill="#173145" x="74.9170918" y="232.516878" width="152.955729" height="9.36309575" rx="2.99520028"></rect>
            <rect id="Rectangle-14-Copy-18" fill-opacity="0.08" fill="#173145" x="74.9170918" y="396.371054" width="152.955729" height="9.36309575" rx="2.99520028"></rect>
            <rect id="Rectangle-14-Copy-5" fill-opacity="0.08" fill="#173145" x="74.9170918" y="152.930564" width="152.955729" height="9.36309575" rx="2.99520028"></rect>
            <rect id="Rectangle-14-Copy-11" fill-opacity="0.08" fill="#173145" x="74.9170918" y="313.663708" width="152.955729" height="9.36309575" rx="2.99520028"></rect>
            <rect id="Rectangle-14-Copy-19" fill-opacity="0.08" fill="#173145" x="74.9170918" y="477.517883" width="152.955729" height="9.36309575" rx="2.99520028"></rect>
            <rect id="Rectangle-14-Copy-12" fill-opacity="0.08" fill="#173145" x="212.265093" y="213.790686" width="15.6077275" height="9.36309575" rx="2.99520028"></rect>
            <rect id="Rectangle-14-Copy-20" fill-opacity="0.08" fill="#173145" x="212.265093" y="377.644862" width="15.6077275" height="9.36309575" rx="2.99520028"></rect>
            <rect id="Rectangle-14-Copy-6" fill-opacity="0.08" fill="#173145" x="212.265093" y="134.204372" width="15.6077275" height="9.36309575" rx="2.99520028"></rect>
            <rect id="Rectangle-14-Copy-13" fill-opacity="0.08" fill="#173145" x="212.265093" y="294.937516" width="15.6077275" height="9.36309575" rx="2.99520028"></rect>
            <rect id="Rectangle-14-Copy-21" fill-opacity="0.08" fill="#173145" x="212.265093" y="458.791692" width="15.6077275" height="9.36309575" rx="2.99520028"></rect>
            <rect id="Rectangle-14-Copy-14" fill-opacity="0.08" fill="#173145" x="74.9170918" y="243.44049" width="134.226456" height="9.36309575" rx="2.99520028"></rect>
            <rect id="Rectangle-14-Copy-22" fill-opacity="0.08" fill="#173145" x="74.9170918" y="407.294665" width="134.226456" height="9.36309575" rx="2.99520028"></rect>
            <rect id="Rectangle-14-Copy-7" fill-opacity="0.08" fill="#173145" x="74.9170918" y="165.414692" width="134.226456" height="9.36309575" rx="2.99520028"></rect>
            <rect id="Rectangle-14-Copy-15" fill-opacity="0.08" fill="#173145" x="74.9170918" y="324.587319" width="134.226456" height="9.36309575" rx="2.99520028"></rect>
            <rect id="Rectangle-14-Copy-23" fill-opacity="0.08" fill="#173145" x="74.9170918" y="488.441495" width="134.226456" height="9.36309575" rx="2.99520028"></rect>
        </g>
    </g>
</svg>