<?xml version="1.0" encoding="UTF-8"?>
<svg width="564px" height="272px" viewBox="0 0 564 272" version="1.1" xmlns="http://www.w3.org/2000/svg" xmlns:xlink="http://www.w3.org/1999/xlink">
    <!-- Generator: Sketch 49.1 (51147) - http://www.bohemiancoding.com/sketch -->
    <title>Group 8</title>
    <desc>Created with Sketch.</desc>
    <defs>
        <rect id="path-1" x="0" y="0" width="516.615779" height="224.714298" rx="11.9808011"></rect>
        <filter x="-8.1%" y="-13.4%" width="116.3%" height="137.4%" filterUnits="objectBoundingBox" id="filter-3">
            <feOffset dx="0" dy="12" in="SourceAlpha" result="shadowOffsetOuter1"></feOffset>
            <feGaussianBlur stdDeviation="12" in="shadowOffsetOuter1" result="shadowBlurOuter1"></feGaussianBlur>
            <feColorMatrix values="0 0 0 0 0.172530122   0 0 0 0 0.181416482   0 0 0 0 0.18266369  0 0 0 0.16 0" type="matrix" in="shadowBlurOuter1"></feColorMatrix>
        </filter>
    </defs>
    <g id="Homepage" stroke="none" stroke-width="1" fill="none" fill-rule="evenodd">
        <g id="Group-8" transform="translate(24.000000, 12.000000)">
            <mask id="mask-2" fill="white">
                <use xlink:href="#path-1"></use>
            </mask>
            <g id="Container-Copy-4">
                <use fill="black" fill-opacity="1" filter="url(#filter-3)" xlink:href="#path-1"></use>
                <use fill="#FFFFFF" fill-rule="evenodd" xlink:href="#path-1"></use>
            </g>
            <text id="Critical-Deadlines" font-family="Roboto-Bold, Roboto" font-size="20.4871704" font-weight="bold" line-spacing="28.5143068" letter-spacing="-0.292673862" fill="#173145" fill-opacity="0.801828578">
                <tspan x="34" y="44">Critical Deadlines</tspan>
            </text>
            <text id="Due-Yesterday-•-Assi" font-family="Roboto-Medium, Roboto" font-size="11.7411852" font-weight="400" line-spacing="15.0958095">
                <tspan x="64" y="130" fill="#FFAC32">Due Yesterday</tspan>
                <tspan x="139.962258" y="130" fill="#173145" fill-opacity="0.4">  </tspan>
                <tspan x="145.809918" y="130" fill="#173145" fill-opacity="0.16">• </tspan>
                <tspan x="152.832844" y="130" fill="#173145" fill-opacity="0.4"> Assigned to </tspan>
                <tspan x="221.239007" y="130" fill="#4697DE" fill-opacity="0.79894135">CA</tspan>
            </text>
            <text id="Due-Yesterday-•-Assi" font-family="Roboto-Medium, Roboto" font-size="11.7411852" font-weight="400" line-spacing="15.0958095">
                <tspan x="64" y="192" fill="#FFAC32">Due Yesterday</tspan>
                <tspan x="139.962258" y="192" fill="#173145" fill-opacity="0.4">  </tspan>
                <tspan x="145.809918" y="192" fill="#173145" fill-opacity="0.16">• </tspan>
                <tspan x="152.832844" y="192" fill="#173145" fill-opacity="0.4"> Assigned to </tspan>
                <tspan x="221.239007" y="192" fill="#4697DE" fill-opacity="0.79894135">CA  </tspan>
                <tspan x="242.565769" y="192" fill="#A2D16B">SR </tspan>
                <tspan x="259.902362" y="192" fill="#4697DE" fill-opacity="0.79894135"> </tspan>
                <tspan x="262.826193" y="192" fill="#A045B0">MS</tspan>
            </text>
            <text id="View-Task-&gt;" font-family="Roboto-Medium, Roboto" font-size="11.7411852" font-weight="400" line-spacing="15.0958095" fill="#173145" fill-opacity="0.16">
                <tspan x="411.033558" y="130">View Task &gt;</tspan>
            </text>
            <text id="View-Task-&gt;-Copy" font-family="Roboto-Medium, Roboto" font-size="11.7411852" font-weight="400" line-spacing="15.0958095" fill="#173145" fill-opacity="0.16">
                <tspan x="411.033558" y="192">View Task &gt;</tspan>
            </text>
            <text id="Please-try-the-below" font-family="Roboto-Regular, Roboto" font-size="13.4184973" font-weight="normal" line-spacing="18.6301451" fill="#173145" fill-opacity="0.801828578">
                <tspan x="64" y="89">Please try the below POC, it takes the screen shot and automatically </tspan>
                <tspan x="64" y="107.630145">creates a Ruum</tspan>
            </text>
            <text id="Discuss-Design-of-Ru" font-family="Roboto-Regular, Roboto" font-size="13.4184973" font-weight="normal" line-spacing="18.6301451" fill="#173145" fill-opacity="0.801828578">
                <tspan x="64" y="168">Discuss Design of Ruum Section in CASI</tspan>
            </text>
            <path d="M44.8038637,79.1916667 C41.1521565,79.1916667 38.1918628,82.1514733 38.1918628,85.8025798 C38.1918628,89.4536863 41.1521565,92.4134929 44.8038637,92.4134929 C48.455571,92.4134929 51.4158646,89.4536863 51.4158646,85.8025798 C51.4158646,82.1514733 48.455571,79.1916667 44.8038637,79.1916667 Z M44.8038637,78 C49.1138187,78 52.6077275,81.493334 52.6077275,85.8025798 C52.6077275,90.1118256 49.1138187,93.6051596 44.8038637,93.6051596 C40.4939088,93.6051596 37,90.1118256 37,85.8025798 C37,81.493334 40.4939088,78 44.8038637,78 Z" id="Container-Copy-7" fill-opacity="0.3" fill="#1B3141" fill-rule="nonzero"></path>
            <path d="M44.8038637,159.191667 C41.1521565,159.191667 38.1918628,162.151473 38.1918628,165.80258 C38.1918628,169.453686 41.1521565,172.413493 44.8038637,172.413493 C48.455571,172.413493 51.4158646,169.453686 51.4158646,165.80258 C51.4158646,162.151473 48.455571,159.191667 44.8038637,159.191667 Z M44.8038637,158 C49.1138187,158 52.6077275,161.493334 52.6077275,165.80258 C52.6077275,170.111826 49.1138187,173.60516 44.8038637,173.60516 C40.4939088,173.60516 37,170.111826 37,165.80258 C37,161.493334 40.4939088,158 44.8038637,158 Z" id="Container-Copy-8" fill-opacity="0.3" fill="#1B3141" fill-rule="nonzero"></path>
        </g>
    </g>
</svg>