<?xml version="1.0" encoding="UTF-8"?>
<svg width="806px" height="249px" viewBox="0 0 806 249" version="1.1" xmlns="http://www.w3.org/2000/svg" xmlns:xlink="http://www.w3.org/1999/xlink">
    <!-- Generator: Sketch 49.1 (51147) - http://www.bohemiancoding.com/sketch -->
    <title>Group 11</title>
    <desc>Created with Sketch.</desc>
    <defs>
        <rect id="path-1" x="0" y="0" width="758.160072" height="201.240019" rx="11.9808011"></rect>
        <filter x="-5.5%" y="-14.9%" width="111.1%" height="141.7%" filterUnits="objectBoundingBox" id="filter-2">
            <feOffset dx="0" dy="12" in="SourceAlpha" result="shadowOffsetOuter1"></feOffset>
            <feGaussianBlur stdDeviation="12" in="shadowOffsetOuter1" result="shadowBlurOuter1"></feGaussianBlur>
            <feColorMatrix values="0 0 0 0 0.172530122   0 0 0 0 0.181416482   0 0 0 0 0.18266369  0 0 0 0.16 0" type="matrix" in="shadowBlurOuter1"></feColorMatrix>
        </filter>
    </defs>
    <g id="Homepage" stroke="none" stroke-width="1" fill="none" fill-rule="evenodd">
        <g id="Group-11" transform="translate(24.000000, 12.000000)">
            <g id="Container-Copy-13">
                <use fill="black" fill-opacity="1" filter="url(#filter-2)" xlink:href="#path-1"></use>
                <use fill="#FFFFFF" fill-rule="evenodd" xlink:href="#path-1"></use>
            </g>
            <polygon id="Line-3-Copy-2" fill-opacity="0.03" fill="#173145" fill-rule="nonzero" points="247 12 248.56 12 248.56 192.960017 247 192.960017"></polygon>
            <polygon id="Line-3-Copy-3" fill-opacity="0.03" fill="#173145" fill-rule="nonzero" points="322 12 323.56 12 323.56 192.960017 322 192.960017"></polygon>
            <polygon id="Line-3-Copy-4" fill-opacity="0.03" fill="#173145" fill-rule="nonzero" points="397 12 398.56 12 398.56 192.960017 397 192.960017"></polygon>
            <polygon id="Line-3-Copy-5" fill-opacity="0.03" fill="#173145" fill-rule="nonzero" points="471 12 472.56 12 472.56 192.960017 471 192.960017"></polygon>
            <polygon id="Line-3-Copy-6" fill-opacity="0.03" fill="#173145" fill-rule="nonzero" points="546 12 547.56 12 547.56 192.960017 546 192.960017"></polygon>
            <polygon id="Line-3-Copy-7" fill-opacity="0.03" fill="#173145" fill-rule="nonzero" points="621 12 622.56 12 622.56 192.960017 621 192.960017"></polygon>
            <polygon id="Line-3-Copy-8" fill-opacity="0.03" fill="#173145" fill-rule="nonzero" points="696 12 697.56 12 697.56 192.960017 696 192.960017"></polygon>
            <rect id="Rectangle-15-Copy-4" fill="#F86055" x="395" y="20" width="234.000022" height="17.1600016" rx="8.58000081"></rect>
            <rect id="Rectangle-15-Copy-5" fill="#A2D16B" x="362" y="81" width="160.680015" height="17.1600016" rx="8.58000081"></rect>
            <rect id="Rectangle-15-Copy-6" fill="#A2D16B" x="548" y="137" width="160.680015" height="17.1600016" rx="8.58000081"></rect>
            <text id="Status---Technical-S" font-family="Roboto-Bold, Roboto" font-size="14.2272013" font-weight="bold" line-spacing="28.5143068" letter-spacing="-0.203245719" fill="#173145" fill-opacity="0.801828578">
                <tspan x="14" y="22">Status - Technical Side</tspan>
            </text>
            <path d="M384.082762,106.245077 C384.391939,105.928762 384.905149,105.917106 385.229048,106.219044 C385.552948,106.520981 385.564883,107.022175 385.255706,107.33849 L377.654779,115.114925 C377.335386,115.441693 376.801228,115.441693 376.481835,115.114925 L373.224295,111.782167 C372.915118,111.465852 372.927054,110.964658 373.250953,110.662721 C373.574852,110.360783 374.088062,110.372438 374.397239,110.688754 L377.068307,113.421498 L384.082762,106.245077 Z" id="Shape-Copy-10" fill="#A2D16B" fill-rule="nonzero"></path>
            <path d="M570.082762,162.245077 C570.391939,161.928762 570.905149,161.917106 571.229048,162.219044 C571.552948,162.520981 571.564883,163.022175 571.255706,163.33849 L563.654779,171.114925 C563.335386,171.441693 562.801228,171.441693 562.481835,171.114925 L559.224295,167.782167 C558.915118,167.465852 558.927054,166.964658 559.250953,166.662721 C559.574852,166.360783 560.088062,166.372438 560.397239,166.688754 L563.068307,169.421498 L570.082762,162.245077 Z" id="Shape-Copy-12" fill="#A2D16B" fill-rule="nonzero"></path>
            <text id="Prep-Demo-Scenario-w" font-family="Roboto-Regular, Roboto" font-size="13.4184973" font-weight="normal" line-spacing="20.127746" fill="#173145" fill-opacity="0.801828578">
                <tspan x="397" y="111">Prep Demo Scenario with share with ruum button</tspan>
            </text>
            <text id="Build-File-Endpoint" font-family="Roboto-Regular, Roboto" font-size="13.4184973" font-weight="normal" line-spacing="20.127746" fill="#173145" fill-opacity="0.801828578">
                <tspan x="582" y="168">Build File Endpoint</tspan>
            </text>
            <rect id="Container-Copy-9" fill="#F86055" x="401" y="45" width="17.1600016" height="17.1600016" rx="8.58000081"></rect>
            <text id="Check-integration-on" font-family="Roboto-Regular, Roboto" font-size="13.4184973" font-weight="normal" line-spacing="20.127746" fill="#173145" fill-opacity="0.801828578">
                <tspan x="428" y="55">Check integration on GA side</tspan>
            </text>
            <text id="!" font-family="Roboto-Bold, Roboto" font-size="13.4184973" font-weight="bold" line-spacing="20.127746" fill="#FFFFFF">
                <tspan x="409" y="55">!</tspan>
            </text>
        </g>
    </g>
</svg>