<?xml version="1.0" encoding="UTF-8"?>
<svg width="564px" height="352px" viewBox="0 0 564 352" version="1.1" xmlns="http://www.w3.org/2000/svg" xmlns:xlink="http://www.w3.org/1999/xlink">
    <!-- Generator: Sketch 49.1 (51147) - http://www.bohemiancoding.com/sketch -->
    <title>Group 6</title>
    <desc>Created with Sketch.</desc>
    <defs>
        <rect id="path-1" x="0" y="0" width="516.360049" height="304.200029" rx="11.9807997"></rect>
        <filter x="-8.1%" y="-9.9%" width="116.3%" height="127.6%" filterUnits="objectBoundingBox" id="filter-3">
            <feOffset dx="0" dy="12" in="SourceAlpha" result="shadowOffsetOuter1"></feOffset>
            <feGaussianBlur stdDeviation="12" in="shadowOffsetOuter1" result="shadowBlurOuter1"></feGaussianBlur>
            <feColorMatrix values="0 0 0 0 0.172530122   0 0 0 0 0.181416482   0 0 0 0 0.18266369  0 0 0 0.16 0" type="matrix" in="shadowBlurOuter1"></feColorMatrix>
        </filter>
    </defs>
    <g id="Homepage" stroke="none" stroke-width="1" fill="none" fill-rule="evenodd">
        <g id="Desktop-HD-Copy-4" transform="translate(-1003.000000, -916.000000)">
            <g id="Group-6" transform="translate(1027.000000, 928.000000)">
                <g id="Group-5">
                    <mask id="mask-2" fill="white">
                        <use xlink:href="#path-1"></use>
                    </mask>
                    <g id="Container-Copy">
                        <use fill="black" fill-opacity="1" filter="url(#filter-3)" xlink:href="#path-1"></use>
                        <use fill="#FFFFFF" fill-rule="evenodd" xlink:href="#path-1"></use>
                    </g>
                    <text id="S/4-HANA-Pilot" font-family="Roboto-Bold, Roboto" font-size="20.487168" font-weight="bold" line-spacing="28.5143034" letter-spacing="-0.292673844" fill="#173145" fill-opacity="0.801828578">
                        <tspan x="33" y="44">S/4 HANA Pilot</tspan>
                    </text>
                    <text id="Due-22-Jan-•-@-CA" font-family="Roboto-Medium, Roboto" font-size="11.7411838" font-weight="400" line-spacing="15.0958077">
                        <tspan x="356.48979" y="86" fill="#173145" fill-opacity="0.4">Due 22 Jan  </tspan>
                        <tspan x="421.42748" y="86" fill="#173145" fill-opacity="0.16">• </tspan>
                        <tspan x="428.450405" y="86" fill="#173145" fill-opacity="0.4"> @ </tspan>
                        <tspan x="444.800921" y="86" fill="#4697DE" fill-opacity="0.39526721">CA</tspan>
                    </text>
                    <text id="Schedule-Kickoff-Mee" font-family="Roboto-Regular, Roboto" font-size="13.4184957" font-weight="normal" line-spacing="20.1277436" fill="#173145" fill-opacity="0.801828578">
                        <tspan x="64" y="82">Schedule Kickoff Meeting</tspan>
                    </text>
                    <text id="Due-23-Jan-•-@-MW" font-family="Roboto-Medium, Roboto" font-size="11.7411838" font-weight="400" line-spacing="15.0958077">
                        <tspan x="351.358756" y="123" fill="#173145" fill-opacity="0.4">Due 23 Jan  </tspan>
                        <tspan x="416.296445" y="123" fill="#173145" fill-opacity="0.16">• </tspan>
                        <tspan x="423.31937" y="123" fill="#173145" fill-opacity="0.4"> @ </tspan>
                        <tspan x="439.669886" y="123" fill="#D06287" fill-opacity="0.395748415">MW</tspan>
                    </text>
                    <text id="Alignment-with-Custo" font-family="Roboto-Regular, Roboto" font-size="13.4184957" font-weight="normal" line-spacing="20.1277436" fill="#173145" fill-opacity="0.801828578">
                        <tspan x="64" y="119">Alignment with Customer IT</tspan>
                    </text>
                    <text id="17-Feb---22-Mar-•-@" font-family="Roboto-Medium, Roboto" font-size="11.7411838" font-weight="400" line-spacing="15.0958077">
                        <tspan x="333.838708" y="161" fill="#173145" fill-opacity="0.4">17 Feb - 22 Mar  </tspan>
                        <tspan x="422.046644" y="161" fill="#173145" fill-opacity="0.16">• </tspan>
                        <tspan x="429.069569" y="161" fill="#173145" fill-opacity="0.4"> @ </tspan>
                        <tspan x="445.420085" y="161" fill="#7F61B1" fill-opacity="0.399682971">JH</tspan>
                    </text>
                    <text id="Pilot-PoC-approach-d" font-family="Roboto-Regular, Roboto" font-size="13.4184957" font-weight="normal" line-spacing="20.1277436" fill="#173145" fill-opacity="0.801828578">
                        <tspan x="64" y="157">Pilot PoC approach discussion</tspan>
                    </text>
                    <text id="Starts-01-Mar-•-@-JH" font-family="Roboto-Medium, Roboto" font-size="11.7411838" font-weight="400" line-spacing="15.0958077">
                        <tspan x="344.81167" y="198" fill="#173145" fill-opacity="0.4">Starts 01 Mar  </tspan>
                        <tspan x="422.046644" y="198" fill="#173145" fill-opacity="0.16">• </tspan>
                        <tspan x="429.069569" y="198" fill="#173145" fill-opacity="0.4"> @ </tspan>
                        <tspan x="445.420085" y="198" fill="#7F61B1" fill-opacity="0.399682971">JH</tspan>
                    </text>
                    <text id="Executive-Alignment" font-family="Roboto-Regular, Roboto" font-size="13.4184957" font-weight="normal" line-spacing="20.1277436" fill="#173145" fill-opacity="0.801828578">
                        <tspan x="64" y="194">Executive Alignment</tspan>
                    </text>
                    <text id="Due-05-Mar-•-@-CA" font-family="Roboto-Medium, Roboto" font-size="11.7411838" font-weight="400" line-spacing="15.0958077">
                        <tspan x="355.13107" y="235" fill="#173145" fill-opacity="0.4">Due 05 Mar  </tspan>
                        <tspan x="421.42748" y="235" fill="#173145" fill-opacity="0.16">• </tspan>
                        <tspan x="428.450405" y="235" fill="#173145" fill-opacity="0.4"> @ </tspan>
                        <tspan x="444.800921" y="235" fill="#4697DE" fill-opacity="0.39526721">CA</tspan>
                    </text>
                    <text id="Upload-latest-Roadma" font-family="Roboto-Regular, Roboto" font-size="13.4184957" font-weight="normal" line-spacing="20.1277436" fill="#173145" fill-opacity="0.801828578">
                        <tspan x="64" y="232">Upload latest Roadmap</tspan>
                    </text>
                    <text id="Due-08-Apr-•-@-MW" font-family="Roboto-Medium, Roboto" font-size="11.7411838" font-weight="400" line-spacing="15.0958077">
                        <tspan x="352.20724" y="273" fill="#173145" fill-opacity="0.4">Due 08 Apr  </tspan>
                        <tspan x="416.296445" y="273" fill="#173145" fill-opacity="0.16">• </tspan>
                        <tspan x="423.31937" y="273" fill="#173145" fill-opacity="0.4"> @ </tspan>
                        <tspan x="439.669886" y="273" fill="#D06287" fill-opacity="0.395748415">MW</tspan>
                    </text>
                    <text id="Identify-speaker-for" font-family="Roboto-Regular, Roboto" font-size="13.4184957" font-weight="normal" line-spacing="20.1277436" fill="#173145" fill-opacity="0.801828578">
                        <tspan x="64" y="269">Identify speaker for NYC meeting</tspan>
                    </text>
                </g>
                <rect id="Container" fill="#4697DE" x="36" y="183" width="17.1600016" height="17.1600016" rx="8.58000081"></rect>
                <path d="M47.07722,193.488001 C46.8702558,192.974299 46.551124,192.50187 46.1414588,192.070307 C45.8708402,191.785223 45.579784,191.53933 45.2892181,191.334262 C45.2274707,191.290683 45.1710573,191.252542 45.1209578,191.219875 C45.0706507,191.25292 45.0139784,191.291507 44.9519319,191.335592 C44.6611097,191.542222 44.3698078,191.789487 44.0989667,192.075577 C43.690697,192.506833 43.3723308,192.977617 43.1652386,193.488001 L47.07722,193.488001 Z M44.2873551,190.68143 C44.007171,190.47047 43.7297271,190.227047 43.4671728,189.950458 C42.5546423,188.989151 42,187.826317 42,186.468 C42,186.209531 42.1995531,186 42.4457143,186 L47.7942863,186 C48.0404475,186 48.2400006,186.209531 48.2400006,186.468 C48.2400006,187.81969 47.6854652,188.98072 46.7732526,189.944292 C46.5105645,190.221771 46.2329666,190.466332 45.9526455,190.678571 C46.2328296,190.889531 46.5102735,191.132954 46.7728277,191.409542 C47.6853583,192.37085 48.2400006,193.533684 48.2400006,194.892001 C48.2400006,195.15047 48.0404475,195.360001 47.7942863,195.360001 L42.4457143,195.360001 C42.1995531,195.360001 42,195.15047 42,194.892001 C42,193.54031 42.5545354,192.379281 43.466748,191.415708 C43.7294361,191.13823 44.007034,190.893669 44.2873551,190.68143 Z M43.6925361,188.808 L46.5425218,188.808 C46.9618644,188.243708 47.2341004,187.619754 47.3196385,186.936 L45.1200003,186.936 L43.8616655,186.936 L42.9200304,186.936 C43.004864,187.621583 43.2754759,188.245337 43.6925361,188.808 Z" id="Hourglass" fill="#FFFFFF"></path>
                <rect id="Container" fill="#4697DE" x="36" y="145" width="17.1600016" height="17.1600016" rx="8.58000081"></rect>
                <path d="M47.07722,156.488001 C46.8702558,155.974299 46.551124,155.50187 46.1414588,155.070307 C45.8708402,154.785223 45.579784,154.53933 45.2892181,154.334262 C45.2274707,154.290683 45.1710573,154.252542 45.1209578,154.219875 C45.0706507,154.25292 45.0139784,154.291507 44.9519319,154.335592 C44.6611097,154.542222 44.3698078,154.789487 44.0989667,155.075577 C43.690697,155.506833 43.3723308,155.977617 43.1652386,156.488001 L47.07722,156.488001 Z M44.2873551,153.68143 C44.007171,153.47047 43.7297271,153.227047 43.4671728,152.950458 C42.5546423,151.989151 42,150.826317 42,149.468 C42,149.209531 42.1995531,149 42.4457143,149 L47.7942863,149 C48.0404475,149 48.2400006,149.209531 48.2400006,149.468 C48.2400006,150.81969 47.6854652,151.98072 46.7732526,152.944292 C46.5105645,153.221771 46.2329666,153.466332 45.9526455,153.678571 C46.2328296,153.889531 46.5102735,154.132954 46.7728277,154.409542 C47.6853583,155.37085 48.2400006,156.533684 48.2400006,157.892001 C48.2400006,158.15047 48.0404475,158.360001 47.7942863,158.360001 L42.4457143,158.360001 C42.1995531,158.360001 42,158.15047 42,157.892001 C42,156.54031 42.5545354,155.379281 43.466748,154.415708 C43.7294361,154.13823 44.007034,153.893669 44.2873551,153.68143 Z M43.6925361,151.808 L46.5425218,151.808 C46.9618644,151.243708 47.2341004,150.619754 47.3196385,149.936 L45.1200003,149.936 L43.8616655,149.936 L42.9200304,149.936 C43.004864,150.621583 43.2754759,151.245337 43.6925361,151.808 Z" id="Hourglass" fill="#FFFFFF"></path>
                <path d="M48.0827625,75.2450772 C48.3919392,74.9287615 48.9051488,74.9171059 49.2290482,75.2190436 C49.5529476,75.5209813 49.5648827,76.0221747 49.255706,76.3384904 L41.6547789,84.114925 C41.3353859,84.4416928 40.8012283,84.4416928 40.4818354,84.114925 L37.2242952,80.7821673 C36.9151185,80.4658516 36.9270536,79.9646582 37.250953,79.6627205 C37.5748524,79.3607828 38.088062,79.3724385 38.3972387,79.6887542 L41.0683071,82.4214983 L48.0827625,75.2450772 Z" id="Shape" fill="#A2D16B" fill-rule="nonzero"></path>
                <path d="M48.0827625,113.245077 C48.3919392,112.928762 48.9051488,112.917106 49.2290482,113.219044 C49.5529476,113.520981 49.5648827,114.022175 49.255706,114.33849 L41.6547789,122.114925 C41.3353859,122.441693 40.8012283,122.441693 40.4818354,122.114925 L37.2242952,118.782167 C36.9151185,118.465852 36.9270536,117.964658 37.250953,117.662721 C37.5748524,117.360783 38.088062,117.372438 38.3972387,117.688754 L41.0683071,120.421498 L48.0827625,113.245077 Z" id="Shape-Copy-3" fill="#A2D16B" fill-rule="nonzero"></path>
                <path d="M43.8000007,223.191273 C40.1501011,223.191273 37.1912728,226.150101 37.1912728,229.800001 C37.1912728,233.4499 40.1501011,236.408729 43.8000007,236.408729 C47.4499004,236.408729 50.4087286,233.4499 50.4087286,229.800001 C50.4087286,226.150101 47.4499004,223.191273 43.8000007,223.191273 Z M43.8000007,222 C48.1078222,222 51.6000015,225.492179 51.6000015,229.800001 C51.6000015,234.107822 48.1078222,237.600001 43.8000007,237.600001 C39.4921793,237.600001 36,234.107822 36,229.800001 C36,225.492179 39.4921793,222 43.8000007,222 Z" id="Container-Copy-3" fill-opacity="0.3" fill="#1B3141" fill-rule="nonzero"></path>
                <path d="M43.8000007,260.191273 C40.1501011,260.191273 37.1912728,263.150101 37.1912728,266.800001 C37.1912728,270.4499 40.1501011,273.408729 43.8000007,273.408729 C47.4499004,273.408729 50.4087286,270.4499 50.4087286,266.800001 C50.4087286,263.150101 47.4499004,260.191273 43.8000007,260.191273 Z M43.8000007,259 C48.1078222,259 51.6000015,262.492179 51.6000015,266.800001 C51.6000015,271.107822 48.1078222,274.600001 43.8000007,274.600001 C39.4921793,274.600001 36,271.107822 36,266.800001 C36,262.492179 39.4921793,259 43.8000007,259 Z" id="Container-Copy-3" fill-opacity="0.3" fill="#1B3141" fill-rule="nonzero"></path>
            </g>
        </g>
    </g>
</svg>