<?xml version="1.0" encoding="UTF-8"?>
<svg width="564px" height="230px" viewBox="0 0 564 230" version="1.1" xmlns="http://www.w3.org/2000/svg" xmlns:xlink="http://www.w3.org/1999/xlink">
    <!-- Generator: Sketch 49.1 (51147) - http://www.bohemiancoding.com/sketch -->
    <title>Group 4</title>
    <desc>Created with Sketch.</desc>
    <defs>
        <rect id="path-1" x="0" y="0" width="20.1277436" height="20.1277436" rx="10.0638718"></rect>
        <rect id="path-3" x="0" y="0" width="20.1277436" height="20.1277436" rx="10.0638718"></rect>
        <rect id="path-5" x="0" y="0" width="516.360049" height="182.520017" rx="11.9807997"></rect>
        <filter x="-8.1%" y="-16.4%" width="116.3%" height="146.0%" filterUnits="objectBoundingBox" id="filter-7">
            <feOffset dx="0" dy="12" in="SourceAlpha" result="shadowOffsetOuter1"></feOffset>
            <feGaussianBlur stdDeviation="12" in="shadowOffsetOuter1" result="shadowBlurOuter1"></feGaussianBlur>
            <feColorMatrix values="0 0 0 0 0.172530122   0 0 0 0 0.181416482   0 0 0 0 0.18266369  0 0 0 0.16 0" type="matrix" in="shadowBlurOuter1"></feColorMatrix>
        </filter>
        <path d="M9.39294701,7.04471026 C9.39294701,7.69047536 9.92130028,8.21882863 10.5670654,8.21882863 C11.2128305,8.21882863 11.7411838,7.69047536 11.7411838,7.04471026 C11.7411838,6.39894515 11.2128305,5.87059188 10.5670654,5.87059188 C9.92130028,5.87059188 9.39294701,6.39894515 9.39294701,7.04471026 Z M5.87059188,7.04471026 C5.87059188,7.69047536 6.39894515,8.21882863 7.04471026,8.21882863 C7.69047536,8.21882863 8.21882863,7.69047536 8.21882863,7.04471026 C8.21882863,6.39894515 7.69047536,5.87059188 7.04471026,5.87059188 C6.39894515,5.87059188 5.87059188,6.39894515 5.87059188,7.04471026 Z M2.34823675,7.04471026 C2.34823675,7.69047536 2.87659002,8.21882863 3.52235513,8.21882863 C4.16812024,8.21882863 4.69647351,7.69047536 4.69647351,7.04471026 C4.69647351,6.39894515 4.16812024,5.87059188 3.52235513,5.87059188 C2.87659002,5.87059188 2.34823675,6.39894515 2.34823675,7.04471026 Z" id="path-8"></path>
        <path d="M2.52104331,11.3282 C2.16411453,11.613743 1.63537917,11.3596196 1.63537917,10.9025278 L1.63537917,3.81588472 C1.63537917,2.99023556 2.43831542,2.18050556 3.27075833,2.18050556 L9.812275,2.18050556 C10.6822975,2.18050556 11.4476542,2.96034126 11.4476542,3.81588472 L11.4476542,7.63176945 C11.4476542,8.50430893 10.6840266,9.26714861 9.812275,9.26714861 L5.09735751,9.26714861 L2.52104331,11.3282 Z" id="path-10"></path>
    </defs>
    <g id="Homepage" stroke="none" stroke-width="1" fill="none" fill-rule="evenodd">
        <g id="Desktop-HD-Copy-4" transform="translate(-1003.000000, -683.000000)">
            <g id="Group-4" transform="translate(1027.000000, 695.000000)">
                <g id="Avatar-/-Subtle-/-Small-/-Initials-Disabled" transform="translate(20.000000, 88.000000)">
                    <g id="Group">
                        <mask id="mask-2" fill="white">
                            <use xlink:href="#path-1"></use>
                        </mask>
                        <use id="BG" fill-opacity="0" fill="#FFFFFF" xlink:href="#path-1"></use>
                        <text id="Initials" mask="url(#mask-2)" font-family="Roboto-Medium, Roboto" font-size="10.0638718" font-weight="400" line-spacing="13.4184957" letter-spacing="0.0838655996" fill="#173145" fill-opacity="0.16">
                            <tspan x="1.14709138" y="9">MW</tspan>
                        </text>
                    </g>
                </g>
                <g id="Avatar-/-Subtle-/-Small-/-Initials-Disabled" transform="translate(20.000000, 38.000000)">
                    <g id="Group">
                        <mask id="mask-4" fill="white">
                            <use xlink:href="#path-3"></use>
                        </mask>
                        <use id="BG" fill-opacity="0" fill="#FFFFFF" xlink:href="#path-3"></use>
                        <text id="Initials" mask="url(#mask-4)" font-family="Roboto-Medium, Roboto" font-size="10.0638718" font-weight="400" line-spacing="13.4184957" letter-spacing="0.0838655996" fill="#173145" fill-opacity="0.16">
                            <tspan x="1.14709138" y="9">MW</tspan>
                        </text>
                    </g>
                </g>
                <g id="Container-/-Elevation-4-/-R16-Copy">
                    <mask id="mask-6" fill="white">
                        <use xlink:href="#path-5"></use>
                    </mask>
                    <g id="Container">
                        <use fill="black" fill-opacity="1" filter="url(#filter-7)" xlink:href="#path-5"></use>
                        <use fill="#FFFFFF" fill-rule="evenodd" xlink:href="#path-5"></use>
                    </g>
                </g>
                <path d="M472.299631,22.2121793 L471.06037,22.2121793 L471.68,21.7161219 L472.299631,22.2121793 Z M474.807693,19.2121848 C475.192682,18.9039742 475.782195,18.935206 476.124408,19.2819429 C476.46662,19.6286798 476.431943,20.1596196 476.046954,20.4678301 L472.299631,23.4678247 C471.946256,23.7507257 471.413745,23.7507257 471.06037,23.4678247 L467.313047,20.4678301 C466.928058,20.1596196 466.893381,19.6286798 467.235593,19.2819429 C467.577805,18.935206 468.167319,18.9039742 468.552307,19.2121848 L471.68,21.7161219 L474.807693,19.2121848 Z" id="Shape" fill-opacity="0.235450634" fill="#173145" fill-rule="nonzero"></path>
                <g id="Atom-/-Icon-/-contextual-menu" transform="translate(487.000000, 18.000000)">
                    <mask id="mask-9" fill="white">
                        <use xlink:href="#path-8"></use>
                    </mask>
                    <use id="Clip-2" fill-opacity="0" fill="#FFFFFF" fill-rule="nonzero" xlink:href="#path-8"></use>
                    <g id="Atom-/-Color-/-Shades-/-Grey-24" mask="url(#mask-9)" fill="#173145" fill-opacity="0.235450634" fill-rule="evenodd">
                        <rect id="Rectangle-3" x="0" y="0" width="13.9802002" height="13.9802002"></rect>
                    </g>
                </g>
                <g id="Button-/-Flat-/-Icon-/-Small-/-1-Normal" transform="translate(482.000000, 129.000000)">
                    <g>
                        <rect id="BG" fill-opacity="0" fill="#FFFFFF" x="0" y="0" width="20.1277436" height="20.1277436" rx="3.35462393"></rect>
                        <g id="Atom-/-Icon-/-comment-filled" transform="translate(3.354624, 3.354624)">
                            <mask id="mask-11" fill="white">
                                <use xlink:href="#path-10"></use>
                            </mask>
                            <use id="Combined-Shape" fill-opacity="0" fill="#2C2E2F" fill-rule="nonzero" xlink:href="#path-10"></use>
                            <g id="Atom-/-Color-/-Shades-/-Grey-40" mask="url(#mask-11)" fill="#173145" fill-opacity="0.4" fill-rule="evenodd">
                                <rect id="Rectangle-3" x="0" y="0" width="12.9816145" height="12.9816145"></rect>
                            </g>
                        </g>
                    </g>
                </g>
                <text id="Deal-Summary" font-family="Roboto-Bold, Roboto" font-size="20.487168" font-weight="bold" line-spacing="28.5143034" letter-spacing="-0.292673844" fill="#173145" fill-opacity="0.801828578">
                    <tspan x="33" y="40">Deal Summary</tspan>
                </text>
                <text id="We-have-a-great-oppo" font-family="Roboto-Regular, Roboto" font-size="13.4184957" font-weight="normal" line-spacing="20.1277436" fill="#173145" fill-opacity="0.801828578">
                    <tspan x="33" y="75">We have a great opportunity with Acme on a full blown rollout of our </tspan>
                    <tspan x="33" y="95.1277436">Enterprise Suite</tspan>
                </text>
                <g id="Group-41" transform="translate(33.000000, 120.000000)" fill-rule="nonzero">
                    <path d="M17,1 L17,5.57703854 C17,7.47190665 18.5629004,9.00800076 20.5000366,9.00800076 L24.7231785,9.00800076" id="Shape" fill="#D26C18"></path>
                    <path d="M17.819957,1.0725001 L3.66958939,1.0725001 C2.25239601,1.0725001 1.1050001,2.10160112 1.1050001,3.37073661 L1.1050001,30.9492667 C1.1050001,32.2158662 2.25166203,33.2475032 3.66091427,33.2475032 L22.8590883,33.2475032 C24.2682216,33.2475032 25.4150024,32.2192856 25.4150024,30.9549771 L25.4150024,8.41838683 L17.819957,1.0725001 Z M0,3.43202223 C0,1.53656869 1.69805414,0 3.79414019,0 L18.3114303,0 L26.5200025,8.00800076 L26.5200025,30.8936661 C26.5200025,32.7859798 24.8207142,34.3200033 22.7344248,34.3200033 L3.78557774,34.3200033 C1.69486089,34.3200033 0,32.7786707 0,30.887981 L0,3.43202223 Z" id="Shape" fill="#D26C18"></path>
                    <polygon id="Shape" fill="#D26C18" points="4 20.1440001 17.3264313 20.1440001 17.3264313 19 4 19"></polygon>
                    <polygon id="Shape" fill="#D26C18" points="4 13.1440001 9.14354799 13.1440001 9.14354799 12 4 12"></polygon>
                    <polygon id="Shape" fill="#D26C18" points="4 15.1440001 9.14354799 15.1440001 9.14354799 14 4 14"></polygon>
                    <polygon id="Shape" fill="#D26C18" points="4 17.1440001 9.14354799 17.1440001 9.14354799 16 4 16"></polygon>
                    <path d="M4,30.6575551 L4,26 L5.79083345,26 C6.05084686,26 6.30218939,26.0199695 6.54486858,26.0599092 C6.78754777,26.0998488 7.00205561,26.1756306 7.18839856,26.2872569 C7.37474151,26.3988831 7.52316363,26.5509587 7.63366933,26.7434883 C7.74417503,26.936018 7.79942702,27.1858931 7.79942702,27.4931212 C7.79942702,27.8064939 7.7409249,28.0609774 7.62391886,28.2565793 C7.50691283,28.4521812 7.35144881,28.6052809 7.15752213,28.7158831 C6.96359546,28.8264852 6.74583748,28.901755 6.50424168,28.9416946 C6.26264589,28.9816343 6.01942866,29.0016038 5.77458269,29.0016038 L5.07580013,29.0016038 L5.07580013,30.6575551 L4,30.6575551 Z M5.07580013,28.2089592 L5.81683465,28.2089592 C6.15268531,28.2089592 6.39048569,28.1505867 6.5302429,28.03384 C6.67000011,27.9170934 6.73987766,27.7450482 6.73987766,27.5176993 C6.73987766,27.3005915 6.67108348,27.1331547 6.53349305,27.0153839 C6.39590262,26.8976131 6.15701887,26.8387286 5.81683465,26.8387286 L5.07580013,26.8387286 L5.07580013,28.2089592 Z M8.4982096,30.6575551 L8.4982096,26 L10.2890431,26 C10.5490565,26 10.800399,26.0199695 11.0430781,26.0599092 C11.2857573,26.0998488 11.5002652,26.1756306 11.6866081,26.2872569 C11.8729511,26.3988831 12.0213732,26.5509587 12.1318789,26.7434883 C12.2423846,26.936018 12.2976367,27.1858931 12.2976367,27.4931212 C12.2976367,27.8064939 12.2391345,28.0609774 12.1221284,28.2565793 C12.0051224,28.4521812 11.8496584,28.6052809 11.6557317,28.7158831 C11.461805,28.8264852 11.2440471,28.901755 11.0024513,28.9416946 C10.7608555,28.9816343 10.5176382,29.0016038 10.2727923,29.0016038 L9.57400975,29.0016038 L9.57400975,30.6575551 L8.4982096,30.6575551 Z M9.57400975,28.2089592 L10.3150442,28.2089592 C10.6508949,28.2089592 10.8886953,28.1505867 11.0284525,28.03384 C11.1682097,27.9170934 11.2380872,27.7450482 11.2380872,27.5176993 C11.2380872,27.3005915 11.1692931,27.1331547 11.0317026,27.0153839 C10.8941122,26.8976131 10.6552285,26.8387286 10.3150442,26.8387286 L9.57400975,26.8387286 L9.57400975,28.2089592 Z M14.1014707,30.6575551 L14.1014707,26.8571622 L12.6356524,26.8571622 L12.6356524,26 L16.6560897,26 L16.6560897,26.8571622 L15.1837711,26.8571622 L15.1837711,30.6575551 L14.1014707,30.6575551 Z" id="Shape" fill="#D26C17"></path>
                    <path d="M13.328155,11 L13.328155,14.7062533 L17.249002,14.7062533 C17.095256,16.4678791 15.534015,17.8522536 13.6307146,17.8522536 C11.6255263,17.8522536 10,16.3156947 10,14.4202532 C10,12.6211232 11.4645302,11.1453312 13.328155,11 Z M13.9332741,11 C15.697135,11.1375513 17.1034864,12.466931 17.249002,14.1342532 L13.9332741,14.1342532 L13.9332741,11 Z" id="Shape" fill="#D26C18"></path>
                </g>
                <text id="Powerpoint-File_01.p" font-family="Roboto-Medium, Roboto" font-size="13.3286391" font-weight="400" line-spacing="21.5654395" fill="#173145" fill-opacity="0.8">
                    <tspan x="72" y="139">Powerpoint-File_01.ppt</tspan>
                </text>
            </g>
        </g>
    </g>
</svg>