<?xml version="1.0" encoding="UTF-8"?>
<svg width="314px" height="72px" viewBox="0 0 314 72" version="1.1" xmlns="http://www.w3.org/2000/svg" xmlns:xlink="http://www.w3.org/1999/xlink">
    <!-- Generator: Sketch 40.2 (33826) - http://www.bohemiancoding.com/sketch -->
    <title>ruum</title>
    <desc>Created with Sketch.</desc>
    <defs></defs>
    <g id="Page-1" stroke="none" stroke-width="1" fill="none" fill-rule="evenodd">
        <g id="Artboard-Copy-3" transform="translate(-143.000000, -164.000000)" fill="#44A9BB">
            <path d="M404.402658,174.270075 C403.970269,173.791738 403.519422,173.32038 403.050119,172.856 C397.083502,166.95197 390.019134,164 381.856802,164 C373.69447,164 366.677834,166.927971 360.806683,172.784 C354.935532,178.640029 352,185.695959 352,193.952 L352,228.368 C352,230.38401 352.739849,232.159992 354.21957,233.696 C355.699291,235.232008 357.48925,236 359.589499,236 C361.689748,236 363.479706,235.232008 364.959427,233.696 C366.439148,232.159992 367.178998,230.38401 367.178998,228.368 L367.178998,193.952 C367.178998,189.823979 368.587098,186.344014 371.403341,183.512 C374.219584,180.679986 377.68017,179.264 381.785203,179.264 C385.890235,179.264 389.398553,180.679986 392.310263,183.512 C395.221972,186.344014 396.725537,189.823979 396.821002,193.952 L396.821002,228.368 C396.821002,230.38401 397.536986,232.159992 398.968974,233.696 C400.400962,235.232008 402.143188,236 404.195704,236 C404.260856,236 404.325766,235.999226 404.390437,235.997679 C404.456478,235.999226 404.522832,236 404.589499,236 C406.689748,236 408.479706,235.232008 409.959427,233.696 C411.439148,232.159992 412.178998,230.38401 412.178998,228.368 L412.178998,193.952 C412.178998,189.823979 413.587098,186.344014 416.403341,183.512 C419.219584,180.679986 422.68017,179.264 426.785203,179.264 C430.890235,179.264 434.398553,180.679986 437.310263,183.512 C440.221972,186.344014 441.725537,189.823979 441.821002,193.952 L441.821002,228.368 C441.821002,230.38401 442.536986,232.159992 443.968974,233.696 C445.400962,235.232008 447.143188,236 449.195704,236 C451.24822,236 453.062045,235.232008 454.637232,233.696 C456.212418,232.159992 457,230.38401 457,228.368 L457,193.952 C457,185.791959 454.016736,178.76003 448.050119,172.856 C442.083502,166.95197 435.019134,164 426.856802,164 C418.69447,164 411.677834,166.927971 405.806683,172.784 C405.318367,173.271058 404.850359,173.766416 404.402658,174.270075 Z M260,206.048 C260,214.208041 257.016736,221.23997 251.050119,227.144 C245.083502,233.04803 238.019134,236 229.856802,236 C221.69447,236 214.677834,233.072029 208.806683,227.216 C202.935532,221.359971 200,214.304041 200,206.048 L200,171.632 C200,169.61599 200.739849,167.840008 202.21957,166.304 C203.699291,164.767992 205.48925,164 207.589499,164 C209.689748,164 211.479706,164.767992 212.959427,166.304 C214.439148,167.840008 215.178998,169.61599 215.178998,171.632 L215.178998,206.048 C215.178998,210.176021 216.587098,213.655986 219.403341,216.488 C222.219584,219.320014 225.68017,220.736 229.785203,220.736 C233.890235,220.736 237.398553,219.320014 240.310263,216.488 C243.221972,213.655986 244.725537,210.176021 244.821002,206.048 L244.821002,171.632 C244.821002,169.61599 245.536986,167.840008 246.968974,166.304 C248.400962,164.767992 250.143188,164 252.195704,164 C254.24822,164 256.062045,164.767992 257.637232,166.304 C259.212418,167.840008 260,169.61599 260,171.632 L260,206.048 Z M172.856802,164 C164.69447,164 157.677834,166.927971 151.806683,172.784 C145.935532,178.640029 143,185.695959 143,193.952 L143,228.368 C143,230.38401 143.739849,232.159992 145.21957,233.696 C146.699291,235.232008 148.48925,236 150.589499,236 C152.689748,236 154.479706,235.232008 155.959427,233.696 C157.439148,232.159992 158.178998,230.38401 158.178998,228.368 L158.178998,193.952 C158.178998,189.823979 159.587098,186.344014 162.403341,183.512 C165.219584,180.679986 168.68017,179.264 172.785203,179.264 C172.918849,179.264 166,179.248016 178,179.256008 C190,179.264 190,164 178,164 L172.856802,164 Z M336,206.048 C336,214.208041 333.016736,221.23997 327.050119,227.144 C321.083502,233.04803 314.019134,236 305.856802,236 C297.69447,236 290.677834,233.072029 284.806683,227.216 C278.935532,221.359971 276,214.304041 276,206.048 L276,171.632 C276,169.61599 276.739849,167.840008 278.21957,166.304 C279.699291,164.767992 281.48925,164 283.589499,164 C285.689748,164 287.479706,164.767992 288.959427,166.304 C290.439148,167.840008 291.178998,169.61599 291.178998,171.632 L291.178998,206.048 C291.178998,210.176021 292.587098,213.655986 295.403341,216.488 C298.219584,219.320014 301.68017,220.736 305.785203,220.736 C309.890235,220.736 313.398553,219.320014 316.310263,216.488 C319.221972,213.655986 320.725537,210.176021 320.821002,206.048 L320.821002,171.632 C320.821002,169.61599 321.536986,167.840008 322.968974,166.304 C324.400962,164.767992 326.143188,164 328.195704,164 C330.24822,164 332.062045,164.767992 333.637232,166.304 C335.212418,167.840008 336,169.61599 336,171.632 L336,206.048 Z" id="ruum"></path>
        </g>
    </g>
</svg>