<svg xmlns="http://www.w3.org/2000/svg" xmlns:xlink="http://www.w3.org/1999/xlink" width="532" height="381" viewBox="0 0 532 381">
    <defs>
        <path id="a" d="M-36.5 36.5h234.99c11.051 0 20.01 8.963 20.01 19.998v142.004c0 11.045-8.963 19.998-20.01 19.998H-36.5"/>
    </defs>
    <g fill="none" fill-rule="evenodd">
        <g transform="translate(169 125)">
            <mask id="b" fill="#fff">
                <use xlink:href="#a"/>
            </mask>
            <use fill="#83C9D3" fill-opacity=".102" transform="rotate(-90 91 127.5)" xlink:href="#a"/>
            <g fill="#39ABBB" fill-rule="nonzero" mask="url(#b)" opacity=".291">
                <path d="M117.871 73.107l30.413-12.922-8.785-20.717-30.413 12.922 8.785 20.717zm-11.55-19.545a3.001 3.001 0 0 1 1.59-3.932l30.42-12.925a2.992 2.992 0 0 1 3.931 1.585l8.788 20.724a3.001 3.001 0 0 1-1.59 3.931l-30.421 12.926a2.992 2.992 0 0 1-3.93-1.586l-8.789-20.723z"/>
                <path d="M106.855 52.52l21.007 6.329c1.487.448 3.185-.276 3.895-1.656l10.045-19.522-2.67-1.37-10.044 19.522c-.048.092-.257.181-.356.152l-21.007-6.33-.87 2.874z"/>
            </g>
            <g fill="#B5DEE3" mask="url(#b)" opacity=".499">
                <g transform="translate(-25 67)">
                    <ellipse cx="33.216" cy="31.175" rx="20.952" ry="20.954"/>
                    <ellipse cx="211.048" cy="20.954" rx="20.952" ry="20.954"/>
                    <ellipse cx="92.493" cy="27.086" rx="20.952" ry="20.954"/>
                    <ellipse cx="107.824" cy="64.905" rx="20.952" ry="20.954"/>
                    <ellipse cx="161.991" cy="72.06" rx="20.952" ry="20.954"/>
                    <ellipse cx="62.855" cy="43.44" rx="14.819" ry="14.821"/>
                    <ellipse cx="137.463" cy="46.507" rx="14.819" ry="14.821"/>
                    <ellipse cx="179.366" cy="40.374" rx="17.885" ry="17.887"/>
                    <path d="M28.617 31.686L8.177 49.062 0 206.469 230.978 231 213.604 22.487 181.92 40.885l-14.309 27.597-30.66-17.376-29.64 7.155L93.005 28.62 65.41 40.885z"/>
                </g>
            </g>
        </g>
        <path fill="#4F5050" fill-rule="nonzero" d="M171.47 142.505c.016-7.735 6.297-14.005 14.03-14.005h149.505c7.726 0 13.977 6.265 13.961 13.993l-.47 238.501 3 .006.47-238.5c.019-9.388-7.575-17-16.961-17H185.5c-9.388 0-17.01 7.61-17.03 17L168 381h3l.47-238.495zm0 0c.016-7.735 6.297-14.005 14.03-14.005h149.505c7.726 0 13.977 6.265 13.961 13.993l-.47 238.501 3 .006.47-238.5c.019-9.388-7.575-17-16.961-17H185.5c-9.388 0-17.01 7.61-17.03 17L168 381h3l.47-238.495z"/>
        <path fill="#4F5050" d="M102 263.003a4.004 4.004 0 0 1 4-4.003c2.21 0 4 1.786 4 4.003V378.8h-8V263.003zM401 263.003a4.004 4.004 0 0 1 4-4.003c2.21 0 4 1.786 4 4.003V378.8h-8V263.003z"/>
        <circle cx="106" cy="253" r="5" fill="#4F5050"/>
        <circle cx="405" cy="253" r="5" fill="#4F5050"/>
        <path fill="#39ABBB" fill-rule="nonzero" d="M113.172 263.5c.419.339 1.184.915 2.3 1.693a102.72 102.72 0 0 0 6.496 4.15c7.151 4.227 15.806 8.438 25.997 12.357 28.953 11.135 64.45 17.8 106.74 17.8 42.298 0 78.1-6.856 107.55-18.306 10.362-4.028 19.198-8.355 26.531-12.697a108.519 108.519 0 0 0 6.67-4.257 47.074 47.074 0 0 0 2.359-1.73 4.5 4.5 0 0 0-5.63-7.02c-.049.038-.185.144-.41.312-.399.299-.886.65-1.462 1.052a99.595 99.595 0 0 1-6.112 3.899c-6.917 4.095-15.312 8.206-25.207 12.053-28.422 11.05-63.118 17.694-104.289 17.694-41.18 0-75.582-6.46-103.51-17.2-9.717-3.737-17.92-7.73-24.647-11.705a93.799 93.799 0 0 1-5.924-3.78 49.156 49.156 0 0 1-1.408-1.017 17.653 17.653 0 0 1-.388-.298 4.5 4.5 0 0 0-5.656 7z"/>
        <path fill="#DADDDD" fill-rule="nonzero" d="M65 380c0 .552.442 1 1.005 1h431.033a1 1 0 0 0 1.004-1c0-.552-.441-1-1.004-1H66.005A1 1 0 0 0 65 380zM51 380c0 .552.443 1 .99 1h4.185c.547 0 .99-.444.99-1 0-.552-.443-1-.99-1H51.99a.993.993 0 0 0-.991 1zM0 380c0 .552.45 1 1.003 1H43.04a.999.999 0 0 0 1.002-1c0-.552-.45-1-1.002-1H1.003A.999.999 0 0 0 0 380zM505 380c0 .552.446 1 .994 1h25.032a.994.994 0 0 0 .994-1c0-.552-.446-1-.994-1h-25.032a.994.994 0 0 0-.994 1z"/>
        <path fill="#39ABBB" fill-rule="nonzero" d="M377.618 188.368a1.369 1.369 0 0 1 2.74 0v9.264a1.369 1.369 0 0 1-2.74 0v-9.264zm6.03 3.264a1.369 1.369 0 1 1 0 2.736h-9.278a1.369 1.369 0 1 1 0-2.736h9.277zM238.618 191.368a1.369 1.369 0 0 1 2.74 0v9.264a1.369 1.369 0 0 1-2.74 0v-9.264zm6.03 3.264a1.369 1.369 0 1 1 0 2.736h-9.278a1.369 1.369 0 1 1 0-2.736h9.277zM256.618 145.368a1.369 1.369 0 0 1 2.74 0v9.264a1.369 1.369 0 0 1-2.74 0v-9.264zm6.03 3.264a1.369 1.369 0 1 1 0 2.736h-9.278a1.369 1.369 0 1 1 0-2.736h9.277zM130.618 146.368a1.369 1.369 0 0 1 2.74 0v9.264a1.369 1.369 0 0 1-2.74 0v-9.264zm6.03 3.264a1.369 1.369 0 1 1 0 2.736h-9.278a1.369 1.369 0 1 1 0-2.736h9.277z"/>
        <path fill="#C8E8EC" fill-rule="nonzero" d="M49.299 102.191a1.192 1.192 0 0 1 2.386 0v6.618a1.192 1.192 0 0 1-2.386 0v-6.618zm4.52 2.118a1.192 1.192 0 1 1 0 2.382h-6.626a1.192 1.192 0 1 1 0-2.382h6.627z"/>
        <path fill="#4F5050" fill-rule="nonzero" d="M218.299 172.191a1.192 1.192 0 0 1 2.386 0v6.618a1.192 1.192 0 0 1-2.386 0v-6.618zm4.52 2.118a1.192 1.192 0 1 1 0 2.382h-6.626a1.192 1.192 0 1 1 0-2.382h6.627z"/>
        <path fill="#4F5050" fill-rule="nonzero" d="M194.299 311.191a1.192 1.192 0 0 1 2.386 0v6.618a1.192 1.192 0 0 1-2.386 0v-6.618zm4.52 2.118a1.192 1.192 0 1 1 0 2.382h-6.626a1.192 1.192 0 1 1 0-2.382h6.627zM16.299 246.191a1.192 1.192 0 0 1 2.386 0v6.618a1.192 1.192 0 0 1-2.386 0v-6.618zm4.52 2.118a1.192 1.192 0 1 1 0 2.382h-6.626a1.192 1.192 0 1 1 0-2.382h6.627zM512.299 229.191a1.192 1.192 0 0 1 2.386 0v6.618a1.192 1.192 0 0 1-2.386 0v-6.618zm4.52 2.118a1.192 1.192 0 1 1 0 2.382h-6.626a1.192 1.192 0 1 1 0-2.382h6.627z" opacity=".28"/>
        <path fill="#4F5050" fill-rule="nonzero" d="M312.299 255.191a1.192 1.192 0 0 1 2.386 0v6.618a1.192 1.192 0 0 1-2.386 0v-6.618zm4.52 2.118a1.192 1.192 0 1 1 0 2.382h-6.626a1.192 1.192 0 1 1 0-2.382h6.627z" opacity=".206"/>
        <path fill="#4F5050" fill-rule="nonzero" d="M349.959 59.28a1.28 1.28 0 0 1 2.562 0v7.94a1.28 1.28 0 0 1-2.562 0v-7.94zm5.275 2.69a1.28 1.28 0 1 1 0 2.56h-7.953a1.28 1.28 0 1 1 0-2.56h7.953zM135.299 35.191a1.192 1.192 0 0 1 2.386 0v6.618a1.192 1.192 0 0 1-2.386 0V35.19zm4.52 2.118a1.192 1.192 0 1 1 0 2.382h-6.626a1.192 1.192 0 1 1 0-2.382h6.627zM306.299 1.191a1.192 1.192 0 0 1 2.386 0V7.81a1.192 1.192 0 0 1-2.386 0V1.19zm4.52 2.118a1.192 1.192 0 1 1 0 2.382h-6.626a1.192 1.192 0 1 1 0-2.382h6.627z"/>
        <path fill="#DADBDC" fill-rule="nonzero" d="M160.299 81.191a1.192 1.192 0 0 1 2.386 0v6.618a1.192 1.192 0 0 1-2.386 0V81.19zm4.52 2.118a1.192 1.192 0 1 1 0 2.382h-6.626a1.192 1.192 0 1 1 0-2.382h6.627z"/>
        <path fill="#4F5050" fill-rule="nonzero" d="M246.299 79.191a1.192 1.192 0 0 1 2.386 0v6.618a1.192 1.192 0 0 1-2.386 0V79.19zm4.52 2.118a1.192 1.192 0 1 1 0 2.382h-6.626a1.192 1.192 0 1 1 0-2.382h6.627z" opacity=".206"/>
        <path fill="#DADBDC" fill-rule="nonzero" d="M474.374 81.065a1.192 1.192 0 0 1 2.385 0v6.618a1.192 1.192 0 0 1-2.385 0v-6.618zm4.52 2.118a1.192 1.192 0 1 1 0 2.382h-6.626a1.192 1.192 0 1 1 0-2.382h6.627zM406.299 116.191a1.192 1.192 0 0 1 2.386 0v6.618a1.192 1.192 0 0 1-2.386 0v-6.618zm4.52 2.118a1.192 1.192 0 1 1 0 2.382h-6.626a1.192 1.192 0 1 1 0-2.382h6.627z"/>
        <path fill="#4F5050" d="M309.762 48.56c-.102 1.345-.005 2.537.292 3.573l5.388 18.79c.388 1.351 1.133 2.674 2.236 3.967 2.33 2.501 5.299 3.235 8.909 2.2 3.61-1.035 5.739-3.23 6.388-6.587.25-1.68.182-3.197-.206-4.549l-5.387-18.79c-.104-.36-.34-.633-.712-.82-.37-.186-.736-.227-1.097-.124a1.555 1.555 0 0 0-.933.707c-.216.354-.272.711-.169 1.072l5.388 18.79c.103.36.171.682.204.965a7.918 7.918 0 0 1-.076 2.29c-.36 2.15-1.758 3.576-4.195 4.275-2.437.698-4.378.23-5.823-1.403a7.918 7.918 0 0 1-1.277-1.901 6.049 6.049 0 0 1-.34-.927l-5.387-18.79a3.945 3.945 0 0 1-.146-.763c-.09-.656-.11-1.236-.059-1.738.154-1.507.908-2.455 2.262-2.843 1.398-.401 2.562-.003 3.491 1.193.31.399.6.9.872 1.506.11.212.203.454.28.724l4.981 17.37c.09.316.114.65.069 1.005-.032.399-.229.65-.59.754-.36.103-.66-.006-.9-.327a2.478 2.478 0 0 1-.474-.888l-4.98-17.37c-.104-.361-.341-.634-.712-.82a1.555 1.555 0 0 0-1.165-.105c-.361.103-.65.332-.865.687-.216.354-.272.711-.169 1.072l4.98 17.37c.169.586.491 1.2.969 1.844 1.116 1.338 2.486 1.774 4.11 1.308 1.625-.466 2.556-1.562 2.794-3.288.064-.798.012-1.49-.156-2.076l-4.981-17.37c-.31-1.082-.881-2.137-1.714-3.167-1.76-2.225-3.973-2.956-6.635-2.193-2.662.763-4.15 2.555-4.465 5.376z"/>
        <g fill="#ECECEC" transform="rotate(13 -248.574 1680.964)">
            <path d="M0 32.25c0-5.385 4.371-9.75 9.752-9.75h3.028c5.386 0 9.752 4.364 9.752 9.75v7.06A2.696 2.696 0 0 1 19.836 42H2.696A2.693 2.693 0 0 1 0 39.31v-7.06z"/>
            <ellipse cx="11.266" cy="9.75" rx="9.764" ry="9.75"/>
        </g>
        <g fill="#CCE9ED" opacity=".599" transform="rotate(-11 642.105 -305.031)">
            <path d="M0 44.29c0-7.965 6.46-14.421 14.411-14.421h2.178c7.959 0 14.411 6.454 14.411 14.42v11.416a3.008 3.008 0 0 1-3 3.005H1.351A1.35 1.35 0 0 1 0 57.357V44.29z"/>
            <ellipse cx="15.5" cy="13.018" rx="13.433" ry="13.018"/>
        </g>
        <path fill="#39ABBB" d="M136.759 92.943c-3.652-2.99-6.108-6.82-7.349-11.449-1.58-5.897-.837-11.557 2.218-16.893 3.057-5.34 7.611-8.84 13.59-10.442l13.421-3.596c5.979-1.602 11.673-.85 16.99 2.248 5.314 3.093 8.788 7.624 10.368 13.521 1.58 5.897.837 11.558-2.217 16.894-3.057 5.34-7.612 8.84-13.591 10.441l-2.635.706-10.134 13.812c-.928 1.288-2.264 1.873-3.785 1.616-1.531-.259-2.593-1.261-3.004-2.795l-2.453-9.154c-4.238-.512-8.054-2.153-11.42-4.909z"/>
        <path fill="#FFF" d="M145.994 57.057c-5.205 1.395-9.1 4.387-11.759 9.032-2.661 4.65-3.298 9.496-1.923 14.628 1.079 4.026 3.189 7.315 6.352 9.906 3.17 2.595 6.76 4.037 10.81 4.342l1.062.08 2.997 11.184c.113.42.254.554.606.614.362.061.569-.03.85-.42l10.767-14.674 3.657-.98c5.205-1.394 9.1-4.386 11.759-9.031 2.661-4.65 3.298-9.497 1.923-14.628-1.375-5.132-4.35-9.011-8.98-11.707-4.624-2.693-9.494-3.337-14.7-1.942l-13.42 3.596z"/>
        <path fill="#DADDDD" d="M208.392 81.588l23.986 3.371c.372.053.678.238.918.555.24.318.333.663.281 1.034l-3.366 23.952a1.348 1.348 0 0 1-.556.916c-.318.24-.663.333-1.034.28l-23.986-3.37a1.352 1.352 0 0 1-.918-.555 1.348 1.348 0 0 1-.281-1.034l3.366-23.952c.052-.371.237-.677.555-.916.318-.24.663-.333 1.035-.28zm-1.972 24.148l21.197 2.98 2.975-21.167-21.197-2.98-2.975 21.167zm18.208-14.198c.324-.285.696-.399 1.114-.34.372.052.661.188.867.406.613.701.588 1.384-.074 2.049l-8.227 7.435c-.748.605-1.449.53-2.101-.225l-3.597-4.765c-.56-.741-.465-1.415.284-2.02.742-.558 1.393-.466 1.952.275l2.698 3.574 7.084-6.389z"/>
        <g fill="#39ABBB" fill-rule="nonzero">
            <path d="M410.13 63.065l32.066 7.983 5.451-21.832-32.065-7.982-5.451 21.831zm2.538-22.56a3.001 3.001 0 0 1 3.637-2.183l32.074 7.984a2.992 2.992 0 0 1 2.184 3.632l-5.453 21.84a3.001 3.001 0 0 1-3.637 2.182L409.4 65.975a2.992 2.992 0 0 1-2.185-3.631l5.453-21.84z"/>
            <path d="M413.722 39.993l12.968 17.698c.918 1.252 2.71 1.697 4.108 1.022l19.77-9.547-1.307-2.7-19.771 9.546c-.093.045-.314-.01-.375-.093l-12.968-17.697-2.425 1.771z"/>
        </g>
    </g>
</svg>
