<?xml version="1.0" encoding="UTF-8"?>
<svg width="113px" height="39px" viewBox="0 0 113 39" version="1.1" xmlns="http://www.w3.org/2000/svg" xmlns:xlink="http://www.w3.org/1999/xlink">
    <!-- Generator: Sketch 46.2 (44496) - http://www.bohemiancoding.com/sketch -->
    <title>Group 2</title>
    <desc>Created with Sketch.</desc>
    <defs></defs>
    <g id="Website" stroke="none" stroke-width="1" fill="none" fill-rule="evenodd">
        <g id="NewWebsite_Desktop_IMAGES-MISSING" transform="translate(-146.000000, -40.000000)">
            <g id="Group-2" transform="translate(146.000000, 40.000000)">
                <path d="M73.6501687,38.4831366 C73.6319469,38.4835713 73.6136574,38.4837886 73.5953001,38.4837886 C73.0169769,38.4837886 72.526082,38.268113 72.1226006,37.8367553 C71.7191193,37.4053977 71.5173816,36.9066479 71.5173816,36.340491 L71.5173816,26.675432 C71.4904829,25.5161584 71.0668338,24.5388784 70.2464218,23.7435627 C69.4260097,22.948247 68.4374953,22.5505952 67.2808488,22.5505952 C66.1242023,22.5505952 65.149137,22.948247 64.3556237,23.7435627 C63.5621105,24.5388784 63.1653598,25.5161584 63.1653598,26.675432 L63.1653598,36.340491 C63.1653598,36.9066479 62.9568975,37.4053977 62.5399668,37.8367553 C62.1230361,38.268113 61.618692,38.4837886 61.0269194,38.4837886 C60.4351467,38.4837886 59.9308026,38.268113 59.5138719,37.8367553 C59.0969412,37.4053977 58.888479,36.9066479 58.888479,36.340491 L58.888479,26.675432 C58.888479,24.3568847 59.7156033,22.3753652 61.3698768,20.7308142 C63.0241503,19.0862632 65.0011792,18.264 67.3010228,18.264 C69.6008664,18.264 71.5913444,19.093003 73.2725167,20.751034 C73.404749,20.8814461 73.5317808,21.0138178 73.6536122,21.1481491 C73.7797577,21.0067064 73.9116251,20.8675948 74.0492144,20.7308142 C75.7034878,19.0862632 77.6805167,18.264 79.9803603,18.264 C82.280204,18.264 84.270682,19.093003 85.9518543,20.751034 C87.6330265,22.4090649 88.4736,24.3838445 88.4736,26.675432 L88.4736,36.340491 C88.4736,36.9066479 88.2516886,37.4053977 87.8078591,37.8367553 C87.3640297,38.268113 86.852961,38.4837886 86.2746377,38.4837886 C85.6963145,38.4837886 85.2054195,38.268113 84.8019382,37.8367553 C84.3984569,37.4053977 84.1967192,36.9066479 84.1967192,36.340491 L84.1967192,26.675432 C84.1698205,25.5161584 83.7461714,24.5388784 82.9257594,23.7435627 C82.1053473,22.948247 81.1168329,22.5505952 79.9601864,22.5505952 C78.8035399,22.5505952 77.8284746,22.948247 77.0349613,23.7435627 C76.241448,24.5388784 75.8446973,25.5161584 75.8446973,26.675432 L75.8446973,36.340491 C75.8446973,36.9066479 75.6362351,37.4053977 75.2193044,37.8367553 C74.8023737,38.268113 74.2980296,38.4837886 73.7062569,38.4837886 C73.6874728,38.4837886 73.6687767,38.4835713 73.6501687,38.4831366 Z M32.9662777,30.0723565 C32.9662777,32.363944 32.1257042,34.3387236 30.444532,35.9967546 C28.7633597,37.6547855 26.7728817,38.4837886 24.4730381,38.4837886 C22.1731944,38.4837886 20.1961656,37.6615254 18.5418921,36.0169744 C16.8876186,34.3724233 16.0604943,32.3909039 16.0604943,30.0723565 L16.0604943,20.4072976 C16.0604943,19.8411407 16.2689565,19.3423909 16.6858872,18.9110332 C17.1028179,18.4796756 17.607162,18.264 18.1989347,18.264 C18.7907073,18.264 19.2950514,18.4796756 19.7119821,18.9110332 C20.1289128,19.3423909 20.337375,19.8411407 20.337375,20.4072976 L20.337375,30.0723565 C20.337375,31.2316302 20.7341257,32.2089102 21.527639,33.0042259 C22.3211523,33.7995415 23.2962176,34.1971934 24.4528641,34.1971934 C25.6095106,34.1971934 26.598025,33.7995415 27.4184371,33.0042259 C28.2388491,32.2089102 28.6624982,31.2316302 28.6893969,30.0723565 L28.6893969,20.4072976 C28.6893969,19.8411407 28.8911346,19.3423909 29.2946159,18.9110332 C29.6980972,18.4796756 30.1889922,18.264 30.7673154,18.264 C31.3456387,18.264 31.8567074,18.4796756 32.3005368,18.9110332 C32.7443663,19.3423909 32.9662777,19.8411407 32.9662777,20.4072976 L32.9662777,30.0723565 Z M8.41254379,18.264 L9.86170701,18.264 C13.2428637,18.264 13.2428637,22.5505952 9.86170701,22.5483508 C6.48055032,22.5461065 8.43002641,22.5505952 8.39236982,22.5505952 C7.23572333,22.5505952 6.26065806,22.948247 5.46714476,23.7435627 C4.67363147,24.5388784 4.27688077,25.5161584 4.27688077,26.675432 L4.27688077,36.340491 C4.27688077,36.9066479 4.06841854,37.4053977 3.65148783,37.8367553 C3.23455712,38.268113 2.73021301,38.4837886 2.13844039,38.4837886 C1.54666776,38.4837886 1.04232366,38.268113 0.625392943,37.8367553 C0.20846223,37.4053977 0,36.9066479 0,36.340491 L0,26.675432 C0,24.3568847 0.827124331,22.3753652 2.48139781,20.7308142 C4.13567128,19.0862632 6.11270017,18.264 8.41254379,18.264 Z M54.3802701,30.0723565 C54.3802701,32.363944 53.5396966,34.3387236 51.8585243,35.9967546 C50.1773521,37.6547855 48.186874,38.4837886 45.8870304,38.4837886 C43.5871868,38.4837886 41.6101579,37.6615254 39.9558844,36.0169744 C38.301611,34.3724233 37.4744866,32.3909039 37.4744866,30.0723565 L37.4744866,20.4072976 C37.4744866,19.8411407 37.6829489,19.3423909 38.0998796,18.9110332 C38.5168103,18.4796756 39.0211544,18.264 39.612927,18.264 C40.2046996,18.264 40.7090437,18.4796756 41.1259745,18.9110332 C41.5429052,19.3423909 41.7513674,19.8411407 41.7513674,20.4072976 L41.7513674,30.0723565 C41.7513674,31.2316302 42.1481181,32.2089102 42.9416314,33.0042259 C43.7351447,33.7995415 44.71021,34.1971934 45.8668564,34.1971934 C47.0235029,34.1971934 48.0120174,33.7995415 48.8324294,33.0042259 C49.6528415,32.2089102 50.0764905,31.2316302 50.1033893,30.0723565 L50.1033893,20.4072976 C50.1033893,19.8411407 50.3051269,19.3423909 50.7086083,18.9110332 C51.1120896,18.4796756 51.6029845,18.264 52.1813078,18.264 C52.759631,18.264 53.2706997,18.4796756 53.7145292,18.9110332 C54.1583587,19.3423909 54.3802701,19.8411407 54.3802701,20.4072976 L54.3802701,30.0723565 Z" id="ruum" fill="#39ABBB"></path>
                
            </g>
        </g>
    </g>
</svg>
