<svg xmlns="http://www.w3.org/2000/svg" width="322" height="226" viewBox="0 0 322 226">
  <g fill="none" fill-rule="evenodd" transform="translate(-27 -2)">
    <rect width="370.15" height="253" rx="8"/>
    <g transform="translate(27 2)">
      <g transform="translate(125 115)">
        <circle cx="34.5" cy="40.5" r="32.5" fill="#F8F9FA"/>
        <path fill="#173145" fill-opacity=".08" d="M20,4.34333959 C21.6470588,7.68667917 22.4705882,9.35834897 22.4705882,9.35834897 C22.4705882,9.35834897 29.8823529,12.7016886 30.7058824,11.8658537 C31.5294118,11.0300188 33.1764706,10.5450281 34.8235294,9.35834897 C36.4705882,8.17166979 41.4117647,9.35834897 43.0588235,9.35834897 C44.7058824,9.35834897 48,9.49249531 48,8.17166979 C48,6.85084428 48,6.01500938 48,5.17917448 C48,4.34333959 46.3529412,1.8358349 43.8823529,1.8358349 C41.4117647,1.8358349 32.3529412,1 31.5294118,1 C30.7058824,1 25.7647059,1.8358349 24.9411765,1.8358349 C24.3921569,1.8358349 22.745098,2.67166979 20,4.34333959 Z"/>
        <path fill="#E7E9EB" d="M8.91203704,16 L16.2037037,20.0909091 C12.4228395,23.9090909 12.4228395,25.2727273 16.2037037,24.1818182 C21.875,22.5454545 25.9259259,20.9090909 25.9259259,22.5454545 C25.9259259,24.1818182 29.1666667,28.2727273 27.5462963,28.2727273 C25.9259259,28.2727273 22.0532407,29.0909091 20.2546296,30.7272727 C18.4560185,32.3636364 18.4560185,34 18.4560185,35.6363636 C18.4560185,37.2727273 18.6342593,46.2727273 20.2546296,46.2727273 C21.875,46.2727273 24.3055556,47.9090909 24.3055556,50.3636364 C24.3055556,52 23.7654321,54.1818182 22.6851852,56.9090909 L20.2546296,61 C17.5540123,59.9090909 16.2037037,58.5454545 16.2037037,56.9090909 C16.2037037,54.4545455 14.5833333,54.4545455 14.5833333,50.3636364 C14.5833333,46.2727273 16.2037037,43 16.2037037,43 C16.2037037,43 15.3935185,38.5 12.962963,38.5 C10.5324074,38.5 12.1527778,41.3636364 8.91203704,38.5 C5.6712963,35.6363636 6.23456552e-17,34 0,32.3636364 C0,30.7272727 4.05092593,21.7272727 4.05092593,20.0909091 C4.05092593,19 5.6712963,17.6363636 8.91203704,16 Z"/>
        <path fill="#173145" fill-opacity=".08" d="M2.02389207,25 C5.63173976,39.1468631 18.3563046,49.6 33.5,49.6 C48.6436954,49.6 61.3682602,39.1468631 64.9761079,25 C65.6445068,27.6208834 66,30.3685435 66,33.2 C66,51.3149398 51.4492544,66 33.5,66 C15.5507456,66 1,51.3149398 1,33.2 C1,30.3685435 1.35549315,27.6208834 2.02389207,25 Z"/>
        <path fill="#C8CFD3" fill-rule="nonzero" d="M33.5,67 C14.9984609,67 0,52.0015391 0,33.5 C0,14.9984609 14.9984609,0 33.5,0 C52.0015391,0 67,14.9984609 67,33.5 C67,52.0015391 52.0015391,67 33.5,67 Z M33.5,65 C50.8969696,65 65,50.8969696 65,33.5 C65,16.1030304 50.8969696,2 33.5,2 C16.1030304,2 2,16.1030304 2,33.5 C2,50.8969696 16.1030304,65 33.5,65 Z"/>
        <path fill="#173145" fill-opacity=".08" d="M45.6974326 25.7852349C46.2388344 23.6107383 46.7802362 22.2516779 47.321638 21.7080537 47.8630398 21.1644295 50.2993479 20.0771812 54.6305623 18.4463087 55.7133659 17.9026846 56.5254686 17.3590604 57.0668704 16.8154362 57.6082722 16.2718121 58.4203749 16 59.5031784 16L65.1878973 24.9697987 66 32.3087248 65.1878973 42.0939597C64.1050937 39.9194631 63.5636919 38.5604027 63.5636919 38.0167785 63.5636919 37.2013423 63.5636919 35.5704698 63.5636919 33.9395973 63.5636919 32.3087248 60.3152811 31.4932886 58.6910758 31.4932886 57.0668704 31.4932886 53.0063569 32.3087248 53.0063569 33.1241611 53.0063569 33.9395973 51.3821515 34.7550336 52.1942542 37.2013423 53.0063569 39.647651 51.3821515 42.909396 50.5700488 42.909396 49.7579461 42.909396 47.321638 43.7248322 45.6974326 40.4630872 44.0732273 37.2013423 43.2611246 37.2013423 44.8853299 34.7550336 46.5095353 32.3087248 46.5095353 29.0469799 46.5095353 28.2315436 46.5095353 27.6879195 46.2388344 26.8724832 45.6974326 25.7852349zM51.7536773 44.8235294C54.4313732 44.2745098 56.0379907 44 56.5735299 44 57.3768387 44 60.5900737 46.4705882 61.3933825 46.4705882 61.9289217 46.4705882 62.4644608 46.745098 63 47.2941176 60.3223041 51.6862745 58.9834562 53.8823529 58.9834562 53.8823529 58.9834562 53.8823529 54.9669124 58 54.1636036 58 53.3602949 58 50.9503686 58 50.1470598 56.3529412 49.343751 54.7058824 46.9338248 53.0588235 48.5404423 51 50.1470598 48.9411765 50.9503686 46.4705882 50.9503686 46.4705882 50.9503686 46.4705882 51.2181382 45.9215686 51.7536773 44.8235294z"/>
      </g>
      <path fill="#173145" fill-opacity=".08" fill-rule="nonzero" d="M158,225.5 C115.750217,225.5 81.5,191.249783 81.5,149 C81.5,106.750217 115.750217,72.5 158,72.5 C200.249783,72.5 234.5,106.750217 234.5,149 C234.5,191.249783 200.249783,225.5 158,225.5 Z M158,224.5 C199.697499,224.5 233.5,190.697499 233.5,149 C233.5,107.302501 199.697499,73.5 158,73.5 C116.302501,73.5 82.5,107.302501 82.5,149 C82.5,190.697499 116.302501,224.5 158,224.5 Z"/>
      <path fill="#A2ADB5" fill-rule="nonzero" d="M227,145.86454 C227,142.2263 229.900809,139.276923 233.508173,139.276923 L234.491827,139.276923 C238.086192,139.276923 241,142.233703 241,145.86454 L241,150.289437 C241,152.585344 237.371164,153.6 234.281734,153.6 C231.192303,153.6 227,152.44457 227,150.156473 L227,145.86454 Z M233.979167,138.743144 C230.696436,138.743144 228.035256,136.114352 228.035256,132.871572 C228.035256,129.628792 230.696436,127 233.979167,127 C237.261898,127 239.923077,129.628792 239.923077,132.871572 C239.923077,136.114352 237.261898,138.743144 233.979167,138.743144 Z"/>
      <path fill="#FFF" d="M233.979167 136.743144C236.162773 136.743144 237.923077 135.004263 237.923077 132.871572 237.923077 130.738881 236.162773 129 233.979167 129 231.79556 129 230.035256 130.738881 230.035256 132.871572 230.035256 135.004263 231.79556 136.743144 233.979167 136.743144zM229 145.86454L229 150.156473C229 150.128065 229.002504 150.133264 229.099215 150.227518 229.315429 150.438236 229.70287 150.669997 230.226415 150.879841 231.349609 151.330033 232.900155 151.6 234.281734 151.6 235.668387 151.6 237.06161 151.3644 238.028057 150.960413 238.456039 150.781511 238.758762 150.586952 238.91974 150.413745 238.992226 150.335753 239 150.317475 239 150.289437L239 145.86454C239 143.329978 236.973278 141.276923 234.491827 141.276923L233.508173 141.276923C231.015963 141.276923 229 143.320314 229 145.86454z"/>
      <path fill="#DADEE1" fill-rule="nonzero" d="M124,78.9493433 C124,73.7518568 128.144013,69.5384615 133.29739,69.5384615 L134.70261,69.5384615 C139.837417,69.5384615 144,73.7624327 144,78.9493433 L144,85.2706242 C144,88.5504909 138.815949,90 134.402477,90 C129.989004,90 124,88.3493855 124,85.0806754 L124,78.9493433 Z M133.970238,66.7759197 C137.560729,66.7759197 140.461538,63.9104137 140.461538,60.3879599 C140.461538,56.8655061 137.560729,54 133.970238,54 C130.379747,54 127.478938,56.8655061 127.478938,60.3879599 C127.478938,63.9104137 130.379747,66.7759197 133.970238,66.7759197 Z M133.970238,68.7759197 C129.280622,68.7759197 125.478938,65.0205022 125.478938,60.3879599 C125.478938,55.7554176 129.280622,52 133.970238,52 C138.659854,52 142.461538,55.7554176 142.461538,60.3879599 C142.461538,65.0205022 138.659854,68.7759197 133.970238,68.7759197 Z"/>
      <path fill="#FFF" d="M126,78.9493433 L126,85.0806754 C126,86.3701252 130.06641,88 134.402477,88 C138.675151,88 142,86.6101709 142,85.2706242 L142,78.9493433 C142,74.8576117 138.723421,71.5384615 134.70261,71.5384615 L133.29739,71.5384615 C129.261091,71.5384615 126,74.8439208 126,78.9493433 Z"/>
      <path fill="#B4BDC3" fill-rule="nonzero" d="M86,192.502439 C86,192.470206 85.9966434,192.446341 86,192.43688 L86,192.502439 Z M84,188.517073 C84,185.138707 86.6936084,182.4 90.0433035,182.4 L90.9566965,182.4 C94.2943209,182.4 97,185.145581 97,188.517073 L97,192.625906 C97,194.757819 93.630367,195.7 90.7616099,195.7 C87.8928529,195.7 84,194.627101 84,192.502439 L84,188.517073 Z M90.4806548,179.904348 C92.4297802,179.904348 94,178.353238 94,176.452174 C94,174.55111 92.4297802,173 90.4806548,173 C88.5315293,173 86.9613095,174.55111 86.9613095,176.452174 C86.9613095,178.353238 88.5315293,179.904348 90.4806548,179.904348 Z M90.4806548,181.904348 C87.4324046,181.904348 84.9613095,179.463326 84.9613095,176.452174 C84.9613095,173.441021 87.4324046,171 90.4806548,171 C93.528905,171 96,173.441021 96,176.452174 C96,179.463326 93.528905,181.904348 90.4806548,181.904348 Z"/>
      <path fill="#FFF" d="M86.0489783,192.466102 C86.2348361,192.647237 86.579007,192.853114 87.0491053,193.041536 C88.0742794,193.45244 89.4961315,193.7 90.7616099,193.7 C92.0315143,193.7 93.3068244,193.484339 94.1852423,193.11715 C94.8262934,192.849182 95,192.66228 95,192.625906 L95,188.517073 C95,186.242039 93.1815872,184.4 90.9566965,184.4 L90.0433035,184.4 C87.8084418,184.4 86,186.233046 86,188.517073 L86,192.43688 C86.003697,192.426459 86.0155381,192.433512 86.0489783,192.466102 Z"/>
      <path fill="#DADEE1" fill-rule="nonzero" d="M0.5,1 C0.5,0.44771525 0.94771525,0 1.5,0 C2.05228475,0 2.5,0.44771525 2.5,1 L2.5,10 C2.5,10.5522847 2.05228475,11 1.5,11 C0.94771525,11 0.5,10.5522847 0.5,10 L0.5,1 Z" transform="translate(4 110)"/>
      <g fill="#DADEE1" fill-rule="nonzero" transform="translate(134)">
        <path d="M5,1 C5,0.44771525 5.44771525,0 6,0 C6.55228475,0 7,0.44771525 7,1 L7,10 C7,10.5522847 6.55228475,11 6,11 C5.44771525,11 5,10.5522847 5,10 L5,1 Z"/>
        <path d="M5,1 C5,0.44771525 5.44771525,0 6,0 C6.55228475,0 7,0.44771525 7,1 L7,10 C7,10.5522847 6.55228475,11 6,11 C5.44771525,11 5,10.5522847 5,10 L5,1 Z" transform="rotate(90 6 5.5)"/>
      </g>
      <path fill="#DADEE1" fill-rule="nonzero" d="M0.5,1 C0.5,0.44771525 0.94771525,0 1.5,0 C2.05228475,0 2.5,0.44771525 2.5,1 L2.5,10 C2.5,10.5522847 2.05228475,11 1.5,11 C0.94771525,11 0.5,10.5522847 0.5,10 L0.5,1 Z" transform="translate(253 108)"/>
      <path fill="#39ABBB" fill-rule="nonzero" d="M0.5,1 C0.5,0.44771525 0.94771525,0 1.5,0 C2.05228475,0 2.5,0.44771525 2.5,1 L2.5,10 C2.5,10.5522847 2.05228475,11 1.5,11 C0.94771525,11 0.5,10.5522847 0.5,10 L0.5,1 Z" transform="translate(46 163)"/>
      <path fill="#39ABBB" fill-rule="nonzero" d="M0.5,1 C0.5,0.44771525 0.94771525,0 1.5,0 C2.05228475,0 2.5,0.44771525 2.5,1 L2.5,10 C2.5,10.5522847 2.05228475,11 1.5,11 C0.94771525,11 0.5,10.5522847 0.5,10 L0.5,1 Z" transform="translate(315 150)"/>
      <path fill="#A2ADB5" fill-rule="nonzero" d="M0.5,1 C0.5,0.44771525 0.94771525,0 1.5,0 C2.05228475,0 2.5,0.44771525 2.5,1 L2.5,6 C2.5,6.55228475 2.05228475,7 1.5,7 C0.94771525,7 0.5,6.55228475 0.5,6 L0.5,1 Z" transform="translate(64 127)"/>
      <path fill="#A2ADB5" fill-rule="nonzero" d="M0.5,1 C0.5,0.44771525 0.94771525,0 1.5,0 C2.05228475,0 2.5,0.44771525 2.5,1 L2.5,6 C2.5,6.55228475 2.05228475,7 1.5,7 C0.94771525,7 0.5,6.55228475 0.5,6 L0.5,1 Z" transform="translate(165 37)"/>
      <g fill-rule="nonzero" transform="translate(0 39)">
        <path fill="#A2ADB5" d="M263.5,131 C263.5,130.447715 263.947715,130 264.5,130 C265.052285,130 265.5,130.447715 265.5,131 L265.5,136 C265.5,136.552285 265.052285,137 264.5,137 C263.947715,137 263.5,136.552285 263.5,136 L263.5,131 Z"/>
        <path fill="#DADEE1" d="M4.5,72 C4.5,71.4477153 4.94771525,71 5.5,71 C6.05228475,71 6.5,71.4477153 6.5,72 L6.5,81 C6.5,81.5522847 6.05228475,82 5.5,82 C4.94771525,82 4.5,81.5522847 4.5,81 L4.5,72 Z" transform="rotate(90 5.5 76.5)"/>
        <path fill="#DADEE1" d="M253.5,70 C253.5,69.4477153 253.947715,69 254.5,69 C255.052285,69 255.5,69.4477153 255.5,70 L255.5,79 C255.5,79.5522847 255.052285,80 254.5,80 C253.947715,80 253.5,79.5522847 253.5,79 L253.5,70 Z" transform="rotate(90 254.5 74.5)"/>
        <path fill="#39ABBB" d="M46.5,125 C46.5,124.447715 46.9477153,124 47.5,124 C48.0522847,124 48.5,124.447715 48.5,125 L48.5,134 C48.5,134.552285 48.0522847,135 47.5,135 C46.9477153,135 46.5,134.552285 46.5,134 L46.5,125 Z" transform="rotate(90 47.5 129.5)"/>
        <path fill="#39ABBB" d="M315.5,112 C315.5,111.447715 315.947715,111 316.5,111 C317.052285,111 317.5,111.447715 317.5,112 L317.5,121 C317.5,121.552285 317.052285,122 316.5,122 C315.947715,122 315.5,121.552285 315.5,121 L315.5,112 Z" transform="rotate(90 316.5 116.5)"/>
        <path fill="#A2ADB5" d="M64.5,89 C64.5,88.4477153 64.9477153,88 65.5,88 C66.0522847,88 66.5,88.4477153 66.5,89 L66.5,94 C66.5,94.5522847 66.0522847,95 65.5,95 C64.9477153,95 64.5,94.5522847 64.5,94 L64.5,89 Z" transform="rotate(90 65.5 91.5)"/>
        <path fill="#A2ADB5" d="M165.5,-1 C165.5,-1.55228475 165.947715,-2 166.5,-2 C167.052285,-2 167.5,-1.55228475 167.5,-1 L167.5,4 C167.5,4.55228475 167.052285,5 166.5,5 C165.947715,5 165.5,4.55228475 165.5,4 L165.5,-1 Z" transform="rotate(90 166.5 1.5)"/>
        <path fill="#A2ADB5" d="M263.5,131 C263.5,130.447715 263.947715,130 264.5,130 C265.052285,130 265.5,130.447715 265.5,131 L265.5,136 C265.5,136.552285 265.052285,137 264.5,137 C263.947715,137 263.5,136.552285 263.5,136 L263.5,131 Z" transform="rotate(90 264.5 133.5)"/>
      </g>
    </g>
  </g>
</svg>
