<svg xmlns="http://www.w3.org/2000/svg" width="34" height="58" viewBox="0 0 34 58">
  <g fill="none" fill-rule="evenodd" transform="translate(-19 -7)">
    <rect width="72" height="72"/>
    <path fill="#5CD0E0" fill-rule="nonzero" d="M34,9 C34,7.8954305 34.8954305,7 36,7 C37.1045695,7 38,7.8954305 38,9 L38,63 C38,64.1045695 37.1045695,65 36,65 C34.8954305,65 34,64.1045695 34,63 L34,9 Z"/>
    <path fill="#5CD0E0" fill-rule="nonzero" d="M52.6619165,21.3876967 C53.2764269,22.3055479 53.0305207,23.5477723 52.1126695,24.1622827 C51.1948183,24.7767931 49.9525939,24.5308869 49.3380835,23.6130357 C46.1988697,18.9242118 42.7743607,17 36,17 C28.0994045,17 23,20.3108316 23,25.5 C23,30.6891684 28.0994045,34 36,34 C37.1045695,34 38,34.8954305 38,36 C38,37.1045695 37.1045695,38 36,38 C26.1597577,38 19,33.3514666 19,25.5 C19,17.6485334 26.1597577,13 36,13 C44.1425417,13 48.797399,15.6155374 52.6619165,21.3876967 Z"/>
    <path fill="#5CD0E0" fill-rule="nonzero" d="M36,38 C34.8954305,38 34,37.1045695 34,36 C34,34.8954305 34.8954305,34 36,34 C45.8336511,34 53,38.6566801 53,46.5 C53,54.3433199 45.8336511,59 36,59 C27.8574583,59 23.202601,56.3844626 19.3380835,50.6123033 C18.7235731,49.6944521 18.9694793,48.4522277 19.8873305,47.8377173 C20.8051817,47.2232069 22.0474061,47.4691131 22.6619165,48.3869643 C25.8011303,53.0757882 29.2256393,55 36,55 C43.8937561,55 49,51.6819723 49,46.5 C49,41.3180277 43.8937561,38 36,38 Z"/>
  </g>
</svg>
