<svg xmlns="http://www.w3.org/2000/svg" xmlns:xlink="http://www.w3.org/1999/xlink" width="980" height="671" viewBox="0 0 980 671">
  <defs>
    <rect id="back3-b" width="948.523" height="639.571" rx="16"/>
    <filter id="back3-a" width="105.5%" height="108.1%" x="-2.7%" y="-3.4%" filterUnits="objectBoundingBox">
      <feOffset dy="4" in="SourceAlpha" result="shadowOffsetOuter1"/>
      <feGaussianBlur in="shadowOffsetOuter1" result="shadowBlurOuter1" stdDeviation="8"/>
      <feColorMatrix in="shadowBlurOuter1" values="0 0 0 0 0.0901960784   0 0 0 0 0.192156863   0 0 0 0 0.270588235  0 0 0 0.16 0"/>
    </filter>
    <path id="back3-c" d="M20.1872805,18.9828475 C20.4404159,19.5894486 19.9947726,20.2583053 19.3374732,20.2583053 L11.0499847,20.2583053 C10.5414232,20.2583053 10.1291527,19.8460348 10.1291527,19.3374732 C10.1291527,18.8289117 10.5414232,18.4166412 11.0499847,18.4166412 L17.9554158,18.4166412 L17.3339123,16.9273016 C17.2126793,16.6367848 17.2482551,16.3044682 17.4282379,16.0461977 C18.0684636,15.1274915 18.4166412,14.036853 18.4166412,12.8916488 L18.4166412,11.9708168 C18.4166412,11.4622553 18.8289117,11.0499847 19.3374732,11.0499847 C19.8460348,11.0499847 20.2583053,11.4622553 20.2583053,11.9708168 L20.2583053,12.8916488 C20.2583053,14.2399888 19.8944764,15.5357008 19.2199109,16.6646918 L20.1872805,18.9828475 Z M1.91364805,15.2995193 L2.88101763,12.9813635 C2.20645215,11.8523726 1.8426232,10.5566605 1.8426232,9.20832059 C1.8426232,5.13982857 5.14078765,1.84166412 9.20927968,1.84166412 C13.2777717,1.84166412 16.5759362,5.13982857 16.5759362,9.20832059 C16.5759362,13.2768126 13.2777717,16.5749771 9.20927968,16.5749771 L2.76345526,16.5749771 C2.10615593,16.5749771 1.6605126,15.9061204 1.91364805,15.2995193 Z M4.76605711,13.2439733 L4.14455365,14.733313 L9.20832059,14.733313 C12.2596896,14.733313 14.733313,12.2596896 14.733313,9.20832059 C14.733313,6.15695157 12.2596896,3.68332824 9.20832059,3.68332824 C6.15695157,3.68332824 3.68332824,6.15695157 3.68332824,9.20832059 C3.68332824,10.3535247 4.03150581,11.4441633 4.67173151,12.3628695 C4.85171436,12.6211399 4.88729015,12.9534566 4.76605711,13.2439733 Z"/>
  </defs>
  <g fill="none" fill-rule="evenodd" transform="translate(16 12)">
    <g fill-rule="nonzero">
      <use fill="#000" filter="url(#back3-a)" xlink:href="#back3-b"/>
      <use fill="#FFF" fill-rule="evenodd" xlink:href="#back3-b"/>
      <path fill="#173145" fill-opacity=".04" d="M19.3125,60 L929.210705,60 L929.210705,612.0096 C929.210705,615.318007 926.528712,618 923.220305,618 L25.3028999,618 C21.9944934,618 19.3125,615.318007 19.3125,612.0096 L19.3125,60 Z"/>
    </g>
    <path fill="#1B3141" fill-opacity=".403" fill-rule="nonzero" d="M237,35.0496255 L238.204608,34.4146844 C238.730761,35.4590786 239.55756,35.9812679 240.685032,35.9812679 C241.234921,35.9812679 241.677991,35.8902805 242.014254,35.7083026 C242.350517,35.5263249 242.518646,35.2296264 242.518646,34.8181984 C242.518646,34.6243525 242.482053,34.4542453 242.408867,34.3078719 C242.335681,34.1614985 242.21799,34.0269952 242.055792,33.904358 C241.893594,33.7817208 241.682939,33.6679865 241.423818,33.5631514 C241.164698,33.4583164 240.849208,33.3485379 240.477341,33.2338129 C240.03822,33.1072196 239.628777,32.9766723 239.248997,32.842167 C238.869217,32.7076617 238.536915,32.5415106 238.25208,32.3437087 C237.967245,32.1459067 237.744722,31.902614 237.584502,31.6138232 C237.424282,31.3250323 237.344174,30.9670162 237.344174,30.539764 C237.344174,30.1599843 237.418348,29.8138361 237.5667,29.5013091 C237.715052,29.188782 237.924718,28.9207645 238.195707,28.6972482 C238.466695,28.4737321 238.791085,28.301647 239.168887,28.1809879 C239.54669,28.0603287 239.963056,28 240.418,28 C240.861077,28 241.258652,28.0504386 241.61074,28.1513177 C241.962827,28.2521967 242.277328,28.3916449 242.554251,28.5696666 C242.831173,28.7476884 243.07051,28.9524103 243.272268,29.1838385 C243.474026,29.4152669 243.644133,29.6635045 243.782594,29.9285591 L242.678865,30.6940488 C242.409855,30.2430603 242.084475,29.9117471 241.702717,29.700099 C241.320959,29.488451 240.888769,29.3826285 240.406132,29.3826285 C239.903715,29.3826285 239.516029,29.4696601 239.243063,29.6437257 C238.970096,29.8177914 238.833615,30.0709741 238.833615,30.4032814 C238.833615,30.6169075 238.874164,30.7959155 238.955262,30.9403109 C239.036361,31.0847064 239.163941,31.2162427 239.338007,31.3349238 C239.512073,31.453605 239.733608,31.5614054 240.002618,31.6583284 C240.271629,31.7552513 240.588107,31.8551398 240.952063,31.9579968 C241.371403,32.080634 241.767989,32.2151373 242.141836,32.3615107 C242.515681,32.5078842 242.84205,32.6839252 243.12095,32.8896393 C243.399851,33.0953532 243.618418,33.3445799 243.77666,33.6373267 C243.934902,33.9300736 244.014022,34.2861118 244.014022,34.7054518 C244.014022,35.0694074 243.936879,35.4115996 243.782594,35.7320387 C243.628308,36.0524778 243.407763,36.3323634 243.12095,36.5717037 C242.834138,36.8110441 242.480078,36.9979641 242.058759,37.1324694 C241.637441,37.2669747 241.157778,37.3342264 240.619757,37.3342264 C239.729648,37.3342264 238.975046,37.1235704 238.355925,36.7022524 C237.736805,36.2809342 237.284835,35.7300641 237,35.0496255 Z M245.070279,35.6074241 C245.070279,35.2592928 245.14742,34.9388584 245.301706,34.6461115 C245.45599,34.3533647 245.703239,34.0962261 246.043459,33.8746879 C246.383678,33.6531497 246.818837,33.4632627 247.348945,33.3050211 C247.879054,33.1467796 248.519923,33.0221663 249.271571,32.9311775 L249.271571,32.7412886 C249.271571,32.4168933 249.186516,32.1815126 249.016407,32.0351392 C248.846297,31.8887658 248.579269,31.8155801 248.215314,31.8155801 C247.760369,31.8155801 247.352903,31.9065676 246.992904,32.0885454 C246.632904,32.2705231 246.316426,32.4703002 246.043459,32.6878823 L245.313574,31.7562398 C245.661705,31.4397568 246.098841,31.1658052 246.624994,30.9343769 C247.151147,30.7029486 247.750478,30.5872363 248.423005,30.5872363 C248.850257,30.5872363 249.212229,30.637675 249.508932,30.738554 C249.805634,30.8394329 250.044971,30.9897602 250.226949,31.1895401 C250.408926,31.3893201 250.540463,31.6345908 250.621562,31.9253597 C250.702661,32.2161285 250.74321,32.5474417 250.74321,32.9193094 L250.74321,35.583688 C250.74321,35.9713798 250.757056,36.2908251 250.784748,36.5420336 C250.81244,36.793242 250.859911,36.999942 250.927165,37.1621396 L249.419921,37.1621396 C249.380361,37.0236782 249.345746,36.8980758 249.316076,36.7853288 C249.286406,36.6725816 249.271571,36.5232435 249.271571,36.3373096 C248.939263,36.6775289 248.581247,36.9158767 248.197512,37.05236 C247.813775,37.1888433 247.378618,37.257084 246.892025,37.257084 C246.630927,37.257084 246.389612,37.2214802 246.168074,37.1502715 C245.946536,37.0790628 245.75467,36.9742293 245.592473,36.835768 C245.430275,36.6973066 245.302695,36.5242325 245.209728,36.3165405 C245.116761,36.1088484 245.070279,35.8724787 245.070279,35.6074241 Z M246.535984,35.3285248 C246.535984,35.5856674 246.617081,35.7795104 246.779279,35.9100596 C246.941476,36.0406088 247.161033,36.1058825 247.437956,36.1058825 C247.825647,36.1058825 248.169818,36.0386309 248.470477,35.9041256 C248.771135,35.7696202 249.038164,35.5896231 249.271571,35.364129 L249.271571,33.9399622 C248.37355,34.0625994 247.693122,34.2356735 247.230265,34.4591896 C246.767408,34.6827058 246.535984,34.9724813 246.535984,35.3285248 Z M251.615512,30.7118508 L253.188029,30.7118508 L254.766481,35.4709415 L254.790217,35.4709415 L256.356801,30.7118508 L257.804703,30.7118508 L255.47263,37.1740076 L253.953519,37.1740076 L251.615512,30.7118508 Z M258.386238,33.9399622 C258.386238,33.3267762 258.48316,32.8075539 258.677006,32.3822798 C258.870851,31.9570056 259.118099,31.6098685 259.418759,31.3408579 C259.719418,31.0718472 260.05172,30.8789933 260.415676,30.7622901 C260.779631,30.6455869 261.127757,30.5872363 261.460064,30.5872363 C261.82402,30.5872363 262.176102,30.6455869 262.516321,30.7622901 C262.856541,30.8789933 263.158184,31.0738252 263.42126,31.3467919 C263.684338,31.6197585 263.894993,31.9787636 264.053234,32.423818 C264.211476,32.8688723 264.290595,33.4197424 264.290595,34.0764448 L264.290595,34.4265525 L259.881613,34.4265525 C259.913262,35.0120462 260.089302,35.438303 260.409742,35.7053356 C260.730181,35.9723682 261.129735,36.1058825 261.608414,36.1058825 C262.027755,36.1058825 262.372914,36.0386309 262.643902,35.9041256 C262.914892,35.7696202 263.173019,35.5856672 263.418293,35.3522609 L264.207519,36.1296186 C263.8673,36.5014862 263.476647,36.7892837 263.035548,36.9930198 C262.594451,37.1967557 262.081162,37.2986222 261.495668,37.2986222 C261.092153,37.2986222 260.703478,37.2353265 260.329633,37.1087333 C259.955786,36.9821401 259.625462,36.7833521 259.33865,36.5123635 C259.051836,36.2413748 258.8214,35.8932487 258.647336,35.4679745 C258.473269,35.0427004 258.386238,34.533368 258.386238,33.9399622 Z M259.90535,33.3109552 L262.919835,33.3109552 C262.828846,32.3061214 262.338305,31.8037121 261.448196,31.8037121 C261.262263,31.8037121 261.086221,31.8294259 260.920068,31.8808544 C260.753914,31.9322829 260.599631,32.0193145 260.457214,32.1419517 C260.314796,32.2645889 260.195128,32.4208501 260.098205,32.6107399 C260.001282,32.8006297 259.936998,33.0340325 259.90535,33.3109552 Z M265.251908,33.9518302 C265.251908,33.3940288 265.31916,32.9044764 265.453665,32.4831583 C265.588171,32.0618401 265.774101,31.711736 266.011464,31.4328353 C266.248826,31.1539345 266.537613,30.9432787 266.877832,30.8008613 C267.218052,30.6584439 267.595848,30.5872363 268.011231,30.5872363 C268.359363,30.5872363 268.695621,30.6564659 269.020016,30.7949272 C269.344412,30.9333886 269.623308,31.1351435 269.856714,31.4001981 L269.856714,28.1661528 L271.352089,28.1661528 L271.352089,35.583688 C271.352089,35.9713798 271.365935,36.2908251 271.393627,36.5420336 C271.421319,36.793242 271.472748,36.999942 271.547912,37.1621396 L270.005065,37.1621396 C269.961548,37.0711507 269.925944,36.9435704 269.898252,36.7793947 C269.87056,36.6152191 269.856714,36.452035 269.856714,36.2898374 C269.623308,36.562804 269.344412,36.7922508 269.020016,36.9781847 C268.695621,37.1641184 268.290133,37.257084 267.80354,37.257084 C267.439585,37.257084 267.101349,37.1908213 266.788821,37.0582941 C266.476295,36.9257667 266.206299,36.7220338 265.978826,36.4470892 C265.751354,36.1721445 265.573336,35.8279742 265.444764,35.4145682 C265.316193,35.0011622 265.251908,34.5135878 265.251908,33.9518302 Z M266.747283,33.9874344 C266.747283,34.6797412 266.882775,35.1940185 267.153764,35.5302818 C267.424752,35.8665451 267.803538,36.0346742 268.29013,36.0346742 C268.598702,36.0346742 268.892433,35.9515986 269.171334,35.785445 C269.450234,35.6192913 269.678693,35.4294044 269.856714,35.2157783 L269.856714,32.628542 C269.654956,32.3713995 269.418586,32.1736004 269.147598,32.0351392 C268.876609,31.8966778 268.606613,31.8274482 268.337603,31.8274482 C267.77189,31.8274482 267.365412,32.0074452 267.11816,32.3674448 C266.870907,32.7274443 266.747283,33.2674354 266.747283,33.9874344 Z"/>
    <path fill="#1B3141" fill-opacity=".396" fill-rule="nonzero" d="M229.399063,28.3017429 C229.755442,27.9100465 230.344503,27.898139 230.714767,28.2751468 C231.085032,28.6521547 231.096288,29.2753126 230.739908,29.6670091 L224.342628,36.6982582 C223.976581,37.1005806 223.36783,37.1005806 223.001783,36.6982582 L220.260092,33.6848657 C219.903712,33.2931693 219.914968,32.6700113 220.285233,32.2930035 C220.655497,31.9159957 221.244558,31.9279031 221.600937,32.3195996 L223.672206,34.5961306 L229.399063,28.3017429 Z"/>
    <path fill="#173145" fill-opacity=".802" fill-rule="nonzero" d="M57.8730121,34.622778 L53.2445857,34.622778 L52.2762271,37.4047576 L50.117936,37.4047576 L54.6314724,25.4561958 L56.494332,25.4561958 L61.0160748,37.4047576 L58.8495773,37.4047576 L57.8730121,34.622778 Z M53.8272422,32.9486663 L57.2903557,32.9486663 L55.558799,27.9919827 L53.8272422,32.9486663 Z M65.8250426,35.9768388 C66.0657657,35.9768388 66.2914403,35.9399102 66.5020731,35.866052 C66.7127058,35.7921938 66.8959809,35.6882468 67.0519039,35.5542077 C67.2078268,35.4201687 67.3336575,35.2601449 67.4293997,35.0741316 C67.5251417,34.8881182 67.578483,34.6856949 67.5894251,34.4668558 L69.4686974,34.4668558 C69.4522846,34.8935923 69.3469697,35.2957032 69.1527499,35.6732009 C68.9585301,36.0506986 68.6986624,36.3803202 68.373139,36.6620757 C68.0476157,36.9438312 67.668756,37.1654027 67.2365486,37.3267965 C66.804341,37.4881905 66.3420501,37.5688862 65.8496619,37.5688862 C65.1657894,37.5688862 64.5708291,37.4512619 64.0647634,37.2160097 C63.5586977,36.9807576 63.1374386,36.66071 62.8009732,36.2558574 C62.4645079,35.8510049 62.2142143,35.3777722 62.050085,34.8361452 C61.8859555,34.294518 61.8038921,33.7200737 61.8038921,33.1127949 L61.8038921,32.8255698 C61.8038921,32.218291 61.8859555,31.6438466 62.050085,31.1022195 C62.2142143,30.5605925 62.4645079,30.0859921 62.8009732,29.678404 C63.1374386,29.2708159 63.55733,28.9494006 64.0606602,28.7141485 C64.5639904,28.4788963 65.1575829,28.361272 65.8414555,28.361272 C66.3776115,28.361272 66.8658892,28.4433354 67.3063032,28.6074649 C67.7467171,28.7715943 68.1242091,29.0013721 68.4387904,29.296805 C68.7533719,29.5922379 68.9995623,29.9451109 69.1773691,30.3554344 C69.355176,30.765758 69.4522846,31.2171072 69.4686974,31.7094953 L67.5894251,31.7094953 C67.578483,31.4742432 67.5306127,31.2499364 67.4458125,31.0365681 C67.3610123,30.8231999 67.243388,30.6371894 67.0929361,30.4785308 C66.9424841,30.3198724 66.7605766,30.1940418 66.5472085,30.1010352 C66.3338402,30.0080285 66.0931207,29.9615259 65.8250426,29.9615259 C65.4201901,29.9615259 65.0864653,30.044957 64.8238582,30.2118219 C64.5612512,30.3786868 64.3533569,30.5961551 64.2001695,30.864233 C64.046982,31.1323111 63.9416673,31.4386814 63.8842219,31.7833532 C63.8267767,32.128025 63.7980544,32.475427 63.7980544,32.8255698 L63.7980544,33.1127949 C63.7980544,33.4738795 63.8267767,33.8253848 63.8842219,34.1673211 C63.9416673,34.5092573 64.046982,34.81426 64.2001695,35.0823381 C64.3533569,35.350416 64.5598834,35.5665166 64.8197549,35.7306459 C65.0796265,35.8947754 65.4147191,35.9768388 65.8250426,35.9768388 Z M72.8497466,28.5254006 L72.9071916,29.4527272 C73.2026244,29.1080554 73.562336,28.8399813 73.986337,28.6484971 C74.410338,28.4570127 74.9040867,28.361272 75.4675976,28.361272 C76.0092247,28.361272 76.4933992,28.4693222 76.9201357,28.685426 C77.3468722,28.9015297 77.675126,29.2475641 77.9049073,29.7235394 C78.2003402,29.3077448 78.573729,28.9767555 79.0250849,28.7305614 C79.4764408,28.4843672 80.0112211,28.361272 80.6294419,28.361272 C81.0890043,28.361272 81.4993216,28.4228196 81.8604064,28.5459167 C82.2214911,28.6690138 82.5264938,28.8632306 82.7754234,29.1285732 C83.0243529,29.3939157 83.2158344,29.7344792 83.3498734,30.1502736 C83.4839125,30.5660682 83.5509309,31.0666554 83.5509309,31.6520503 L83.5509309,37.4047576 L81.5567685,37.4047576 L81.5567685,31.6438439 C81.5567685,31.3155851 81.51984,31.0461434 81.4459817,30.8355105 C81.3721235,30.6248778 81.2654409,30.4566476 81.125931,30.3308151 C80.9864209,30.2049825 80.8195586,30.1174482 80.6253387,30.0682095 C80.4311189,30.0189706 80.2109153,29.9943516 79.9647211,29.9943516 C79.5106297,29.9943516 79.1399764,30.116079 78.8527499,30.3595376 C78.5655234,30.6029963 78.3644679,30.9216762 78.2495773,31.3155867 C78.2495773,31.3429416 78.250945,31.3716638 78.2536805,31.4017542 C78.2564161,31.4318446 78.2577837,31.4605668 78.2577837,31.4879217 L78.2577837,37.4047576 L76.2636213,37.4047576 L76.2636213,31.6684632 C76.2636213,31.3566173 76.2266928,31.0940142 76.1528345,30.8806459 C76.0789763,30.6672777 75.9722937,30.4949444 75.8327837,30.3636408 C75.6932737,30.2323373 75.5250436,30.1379644 75.3280883,30.0805191 C75.131133,30.0230737 74.9095616,29.9943516 74.6633675,29.9943516 C74.236631,29.9943516 73.8851257,30.081886 73.6088412,30.2569572 C73.3325567,30.4320286 73.117824,30.6700127 72.9646366,30.9709166 L72.9646366,37.4047576 L70.9704741,37.4047576 L70.9704741,28.5254006 L72.8497466,28.5254006 Z M89.5087989,37.5688862 C88.8522813,37.5688862 88.2614242,37.4594683 87.7362102,37.240629 C87.210996,37.0217898 86.7651177,36.7208903 86.3985621,36.3379217 C86.0320064,35.9549531 85.7502551,35.5008685 85.5532998,34.9756545 C85.3563445,34.4504403 85.2578683,33.8842023 85.2578683,33.2769235 L85.2578683,32.9486663 C85.2578683,32.2483807 85.3618154,31.6151243 85.5697127,31.0488777 C85.7776099,30.4826313 86.0620967,30.0011922 86.4231814,29.6045462 C86.7842661,29.2079 87.2096284,28.9015297 87.6992813,28.685426 C88.188934,28.4693222 88.715508,28.361272 89.2790189,28.361272 C89.9245947,28.361272 90.4853617,28.4693222 90.9613371,28.685426 C91.4373124,28.9015297 91.831217,29.2037968 92.143063,29.5922365 C92.4549088,29.9806761 92.6874221,30.442967 92.8406095,30.9791231 C92.993797,31.5152792 93.0703896,32.1034008 93.0703896,32.7435055 L93.0703896,33.5969742 L87.2684437,33.5969742 C87.2957986,33.941646 87.368288,34.2589581 87.4859141,34.5489201 C87.6035401,34.838882 87.763564,35.0891756 87.9659902,35.2998083 C88.1684165,35.5104412 88.4077682,35.6759359 88.6840527,35.7962973 C88.9603373,35.9166589 89.2735462,35.9768388 89.623689,35.9768388 C90.1160773,35.9768388 90.5441751,35.8783626 90.9079953,35.6814073 C91.2718154,35.4844521 91.5877598,35.2136426 91.8558379,34.8689709 L92.9308803,35.8947745 C92.7886347,36.1081428 92.6121982,36.3146692 92.4015655,36.51436 C92.1909327,36.7140508 91.9447423,36.891855 91.6629868,37.0477779 C91.3812313,37.2037008 91.0625514,37.3295315 90.7069377,37.4252737 C90.351324,37.5210159 89.9519484,37.5688862 89.5087989,37.5688862 Z M89.2708125,29.9615259 C88.7237145,29.9615259 88.2819394,30.1530072 87.9454742,30.5359758 C87.6090088,30.9189446 87.394276,31.4523571 87.3012694,32.1362297 L91.1008464,32.1362297 L91.1008464,31.988514 C91.0844334,31.7259069 91.042034,31.4728779 90.9736467,31.2294192 C90.9052594,30.9859606 90.7999447,30.7698601 90.6576991,30.5811112 C90.5154536,30.3923624 90.3308108,30.2419127 90.1037651,30.1297576 C89.8767194,30.0176025 89.5990713,29.9615259 89.2708125,29.9615259 Z M108.531303,31.7423211 C108.531303,32.6505038 108.412311,33.4643 108.174324,34.183734 C107.936336,34.9031678 107.601243,35.513173 107.169036,36.0137677 C106.736828,36.5143625 106.217093,36.8986931 105.609814,37.1667712 C105.002535,37.4348492 104.329615,37.5688862 103.591033,37.5688862 C102.857921,37.5688862 102.187736,37.4348492 101.580457,37.1667712 C100.973178,36.8986931 100.44934,36.5143625 100.008926,36.0137677 C99.568512,35.513173 99.2265808,34.9031678 98.9831221,34.183734 C98.7396636,33.4643 98.6179361,32.6505038 98.6179361,31.7423211 L98.6179361,31.1350452 C98.6179361,30.2268625 98.7396636,29.4116986 98.9831221,28.6895292 C99.2265808,27.9673598 99.5657765,27.3546191 100.000719,26.8512889 C100.435662,26.3479587 100.956766,25.9622604 101.564044,25.6941823 C102.171323,25.4261043 102.841508,25.2920672 103.57462,25.2920672 C104.313202,25.2920672 104.98749,25.4261043 105.597505,25.6941823 C106.207519,25.9622604 106.72999,26.3479587 107.164933,26.8512889 C107.599876,27.3546191 107.936336,27.9673598 108.174324,28.6895292 C108.412311,29.4116986 108.531303,30.2268625 108.531303,31.1350452 L108.531303,31.7423211 Z M106.455076,31.1186324 C106.455076,30.4511728 106.390793,29.8616835 106.262225,29.3501468 C106.133657,28.8386101 105.946279,28.4105124 105.700085,28.0658405 C105.453891,27.7211687 105.151624,27.4599333 104.793274,27.2821265 C104.434925,27.1043196 104.028711,27.0154175 103.57462,27.0154175 C103.13147,27.0154175 102.732095,27.1043196 102.376481,27.2821265 C102.020867,27.4599333 101.7186,27.7211687 101.46967,28.0658405 C101.220741,28.4105124 101.029259,28.8386101 100.89522,29.3501468 C100.761181,29.8616835 100.694163,30.4511728 100.694163,31.1186324 L100.694163,31.7423211 C100.694163,32.4097807 100.761181,33.0006377 100.89522,33.5149099 C101.029259,34.029182 101.222109,34.4600154 101.473774,34.8074227 C101.725439,35.1548298 102.030441,35.4174329 102.388791,35.5952398 C102.74714,35.7730467 103.147883,35.8619488 103.591033,35.8619488 C104.510157,35.8619488 105.217271,35.5118113 105.712395,34.8115259 C106.207518,34.1112403 106.455076,33.0881823 106.455076,31.7423211 L106.455076,31.1186324 Z M118.182065,33.0553499 C118.182065,33.7009256 118.10684,34.299989 117.956388,34.852558 C117.805936,35.4051271 117.584364,35.8824629 117.291667,36.2845799 C116.99897,36.686697 116.63789,37.0012737 116.208418,37.2283194 C115.778946,37.4553651 115.287933,37.5688862 114.735364,37.5688862 C114.226563,37.5688862 113.780685,37.4868228 113.397716,37.3226933 C113.014747,37.158564 112.681023,36.9205799 112.396532,36.6087339 L112.396532,40.8186324 L110.402369,40.8186324 L110.402369,28.5254006 L112.24061,28.5254006 L112.322674,29.4281079 C112.607165,29.0834361 112.944993,28.8194652 113.336168,28.6361874 C113.727343,28.4529096 114.185531,28.361272 114.710745,28.361272 C115.274256,28.361272 115.772108,28.47069 116.204315,28.6895292 C116.636523,28.9083684 116.99897,29.2161065 117.291667,29.6127526 C117.584364,30.0093986 117.805936,30.4853668 117.956388,31.0406713 C118.10684,31.5959758 118.182065,32.2100842 118.182065,32.8830148 L118.182065,33.0553499 Z M116.196109,32.8830148 C116.196109,32.4836332 116.156445,32.1088767 116.077115,31.7587339 C115.997786,31.4085911 115.876059,31.1022209 115.711929,30.8396138 C115.5478,30.5770067 115.33717,30.3704803 115.080034,30.2200283 C114.822898,30.0695764 114.513792,29.9943516 114.152708,29.9943516 C113.715029,29.9943516 113.35395,30.0846213 113.069459,30.2651637 C112.784968,30.4457061 112.560661,30.6918965 112.396532,31.0037424 L112.396532,34.9428287 C112.560661,35.2546746 112.7836,35.5049682 113.065356,35.693717 C113.347111,35.8824659 113.715029,35.9768388 114.16912,35.9768388 C114.530205,35.9768388 114.837943,35.8988786 115.092344,35.7429555 C115.346744,35.5870326 115.556006,35.3764031 115.720136,35.1110606 C115.884265,34.8457179 116.004625,34.5352445 116.081219,34.1796308 C116.157812,33.824017 116.196109,33.4492605 116.196109,33.0553499 L116.196109,32.8830148 Z M127.644078,33.0553499 C127.644078,33.7009256 127.568853,34.299989 127.418401,34.852558 C127.26795,35.4051271 127.046378,35.8824629 126.753681,36.2845799 C126.460983,36.686697 126.099904,37.0012737 125.670432,37.2283194 C125.24096,37.4553651 124.749947,37.5688862 124.197378,37.5688862 C123.688576,37.5688862 123.242698,37.4868228 122.85973,37.3226933 C122.476761,37.158564 122.143036,36.9205799 121.858545,36.6087339 L121.858545,40.8186324 L119.864383,40.8186324 L119.864383,28.5254006 L121.702623,28.5254006 L121.784687,29.4281079 C122.069178,29.0834361 122.407006,28.8194652 122.798181,28.6361874 C123.189356,28.4529096 123.647544,28.361272 124.172758,28.361272 C124.736269,28.361272 125.234121,28.47069 125.666329,28.6895292 C126.098536,28.9083684 126.460983,29.2161065 126.753681,29.6127526 C127.046378,30.0093986 127.26795,30.4853668 127.418401,31.0406713 C127.568853,31.5959758 127.644078,32.2100842 127.644078,32.8830148 L127.644078,33.0553499 Z M125.658122,32.8830148 C125.658122,32.4836332 125.618458,32.1088767 125.539129,31.7587339 C125.4598,31.4085911 125.338072,31.1022209 125.173943,30.8396138 C125.009813,30.5770067 124.799184,30.3704803 124.542048,30.2200283 C124.284912,30.0695764 123.975806,29.9943516 123.614721,29.9943516 C123.177043,29.9943516 122.815963,30.0846213 122.531472,30.2651637 C122.246982,30.4457061 122.022675,30.6918965 121.858545,31.0037424 L121.858545,34.9428287 C122.022675,35.2546746 122.245614,35.5049682 122.527369,35.693717 C122.809125,35.8824659 123.177043,35.9768388 123.631134,35.9768388 C123.992219,35.9768388 124.299957,35.8988786 124.554357,35.7429555 C124.808758,35.5870326 125.01802,35.3764031 125.182149,35.1110606 C125.346279,34.8457179 125.466638,34.5352445 125.543232,34.1796308 C125.619826,33.824017 125.658122,33.4492605 125.658122,33.0553499 L125.658122,32.8830148 Z M128.957106,32.8830148 C128.957106,32.2374391 129.05148,31.6397434 129.240228,31.0899099 C129.428977,30.5400763 129.699787,30.0627405 130.052665,29.657888 C130.405544,29.2530354 130.836376,28.9357232 131.345178,28.7059421 C131.853979,28.4761609 132.431159,28.361272 133.076734,28.361272 C133.727781,28.361272 134.310432,28.4761609 134.824704,28.7059421 C135.338976,28.9357232 135.772545,29.2530354 136.125423,29.657888 C136.478302,30.0627405 136.747744,30.5400763 136.933756,31.0899099 C137.11977,31.6397434 137.212775,32.2374391 137.212775,32.8830148 L137.212775,33.0553499 C137.212775,33.7009256 137.11977,34.299989 136.933756,34.852558 C136.747744,35.4051271 136.478302,35.8824629 136.125423,36.2845799 C135.772545,36.686697 135.340344,37.0012737 134.828807,37.2283194 C134.31727,37.4553651 133.738723,37.5688862 133.093147,37.5688862 C132.442101,37.5688862 131.860817,37.4553651 131.349281,37.2283194 C130.837744,37.0012737 130.405544,36.686697 130.052665,36.2845799 C129.699787,35.8824629 129.428977,35.4051271 129.240228,34.852558 C129.05148,34.299989 128.957106,33.7009256 128.957106,33.0553499 L128.957106,32.8830148 Z M130.951269,33.0553499 C130.951269,33.4547314 130.992301,33.8322235 131.074365,34.1878372 C131.156431,34.5434509 131.284997,34.8539244 131.460068,35.119267 C131.635139,35.3846095 131.858078,35.5938713 132.128892,35.7470588 C132.399705,35.9002462 132.721121,35.9768388 133.093147,35.9768388 C133.459703,35.9768388 133.778383,35.9002462 134.049196,35.7470588 C134.32001,35.5938713 134.541582,35.3846095 134.713917,35.119267 C134.886253,34.8539244 135.014819,34.5434509 135.099619,34.1878372 C135.18442,33.8322235 135.226819,33.4547314 135.226819,33.0553499 L135.226819,32.8830148 C135.226819,32.4891042 135.18442,32.1157154 135.099619,31.7628371 C135.014819,31.4099589 134.884886,31.1008532 134.709814,30.8355105 C134.534743,30.5701681 134.311803,30.3581707 134.04099,30.1995122 C133.770176,30.0408538 133.448762,29.9615259 133.076734,29.9615259 C132.704708,29.9615259 132.386028,30.0408538 132.120685,30.1995122 C131.855343,30.3581707 131.635139,30.5701681 131.460068,30.8355105 C131.284997,31.1008532 131.156431,31.4099589 131.074365,31.7628371 C130.992301,32.1157154 130.951269,32.4891042 130.951269,32.8830148 L130.951269,33.0553499 Z M143.548139,30.347228 C143.416836,30.3253441 143.284167,30.3089314 143.150127,30.2979894 C143.016089,30.2870475 142.877948,30.2815765 142.735702,30.2815765 C142.254256,30.2815765 141.863087,30.3745818 141.562183,30.5605951 C141.261279,30.7466085 141.036973,31.0037407 140.889256,31.3319996 L140.889256,37.4047576 L138.895093,37.4047576 L138.895093,28.5254006 L140.798985,28.5254006 L140.848223,29.5183787 C141.072534,29.1572939 141.350182,28.8741749 141.681176,28.6690131 C142.012171,28.4638514 142.401972,28.361272 142.850592,28.361272 C142.965484,28.361272 143.095418,28.3735815 143.240398,28.398201 C143.385379,28.4228204 143.490694,28.4488072 143.556345,28.476162 L143.548139,30.347228 Z M147.306684,26.3671095 L147.306684,28.5254006 L148.874112,28.5254006 L148.874112,30.002558 L147.306684,30.002558 L147.306684,34.9592416 C147.306684,35.1616679 147.328568,35.3257947 147.372335,35.4516273 C147.416103,35.5774598 147.479019,35.6745684 147.561083,35.7429555 C147.643147,35.8113428 147.740257,35.8578454 147.852411,35.8824649 C147.964567,35.9070843 148.08903,35.9193938 148.225804,35.9193938 C148.362579,35.9193938 148.495248,35.9098197 148.623816,35.8906713 C148.752385,35.871523 148.852228,35.8537425 148.923351,35.8373295 L148.923351,37.3801383 C148.764692,37.4239062 148.580049,37.4663056 148.369417,37.507338 C148.158784,37.5483704 147.905754,37.5688862 147.610322,37.5688862 C147.282063,37.5688862 146.97706,37.5251191 146.695305,37.4375833 C146.413549,37.3500477 146.170095,37.2078043 145.964933,37.010849 C145.759771,36.8138937 145.599748,36.5567615 145.484856,36.2394446 C145.369966,35.9221278 145.312521,35.533694 145.312521,35.0741316 L145.312521,30.002558 L143.851777,30.002558 L143.851777,28.5254006 L145.312521,28.5254006 L145.312521,26.3671095 L147.306684,26.3671095 Z M155.77572,36.534876 C155.4967,36.8631349 155.152033,37.1175317 154.741709,37.298074 C154.331385,37.4786164 153.844476,37.5688862 153.280965,37.5688862 C152.843286,37.5688862 152.445278,37.5073386 152.086929,37.3842415 C151.728581,37.2611445 151.420842,37.0669276 151.163706,36.801585 C150.90657,36.5362425 150.706883,36.1943113 150.564637,35.7757813 C150.422391,35.3572513 150.351269,34.8552964 150.351269,34.2699015 L150.351269,28.5254006 L152.345432,28.5254006 L152.345432,34.2863143 C152.345432,34.6091022 152.383729,34.8758084 152.460322,35.0864413 C152.536915,35.297074 152.639494,35.4666718 152.768063,35.5952398 C152.896632,35.723808 153.045713,35.8140777 153.215313,35.866052 C153.384914,35.9180263 153.562718,35.9440131 153.748731,35.9440131 C154.263004,35.9440131 154.678792,35.8510079 154.996109,35.6649945 C155.313425,35.4789812 155.551409,35.2245843 155.710068,34.9017966 L155.710068,28.5254006 L157.704231,28.5254006 L157.704231,37.4047576 L155.824958,37.4047576 L155.77572,36.534876 Z M161.585872,28.5254006 L161.643317,29.5512044 C161.955163,29.1737067 162.329919,28.8810136 162.767598,28.6731164 C163.205277,28.4652191 163.692187,28.361272 164.228342,28.361272 C164.655078,28.361272 165.042144,28.4200841 165.389552,28.5377103 C165.736959,28.6553363 166.033756,28.84545 166.27995,29.1080572 C166.526144,29.3706642 166.716257,29.7125954 166.850297,30.1338608 C166.984335,30.5551263 167.051354,31.0666553 167.051354,31.6684632 L167.051354,37.4047576 L165.057192,37.4047576 L165.057192,31.6520503 C165.057192,31.3456754 165.022998,31.0871755 164.954612,30.8765427 C164.886223,30.66591 164.78638,30.4949444 164.655077,30.3636408 C164.523773,30.2323373 164.361014,30.1379644 164.166794,30.0805191 C163.972574,30.0230737 163.749635,29.9943516 163.49797,29.9943516 C163.087646,29.9943516 162.73067,30.0928277 162.427031,30.2897829 C162.123392,30.4867383 161.881305,30.7520769 161.700762,31.0858067 L161.700762,37.4047576 L159.7066,37.4047576 L159.7066,28.5254006 L161.585872,28.5254006 Z M171.203808,37.4047576 L169.209645,37.4047576 L169.209645,28.5254006 L171.203808,28.5254006 L171.203808,37.4047576 Z M169.086549,26.2193938 C169.086549,25.9130189 169.183657,25.6586221 169.377877,25.4561958 C169.572096,25.2537695 169.849745,25.1525579 170.21083,25.1525579 C170.571914,25.1525579 170.85093,25.2537695 171.047886,25.4561958 C171.24484,25.6586221 171.343317,25.9130189 171.343317,26.2193938 C171.343317,26.5202977 171.24484,26.7705913 171.047886,26.9702821 C170.85093,27.1699729 170.571914,27.2698168 170.21083,27.2698168 C169.849745,27.2698168 169.572096,27.1699729 169.377877,26.9702821 C169.183657,26.7705913 169.086549,26.5202977 169.086549,26.2193938 Z M175.873267,26.3671095 L175.873267,28.5254006 L177.440695,28.5254006 L177.440695,30.002558 L175.873267,30.002558 L175.873267,34.9592416 C175.873267,35.1616679 175.895149,35.3257947 175.938918,35.4516273 C175.982686,35.5774598 176.0456,35.6745684 176.127666,35.7429555 C176.20973,35.8113428 176.306838,35.8578454 176.418994,35.8824649 C176.531149,35.9070843 176.655612,35.9193938 176.792387,35.9193938 C176.929161,35.9193938 177.06183,35.9098197 177.190399,35.8906713 C177.318966,35.871523 177.41881,35.8537425 177.489933,35.8373295 L177.489933,37.3801383 C177.331274,37.4239062 177.146631,37.4663056 176.935999,37.507338 C176.725366,37.5483704 176.472337,37.5688862 176.176905,37.5688862 C175.848645,37.5688862 175.543643,37.5251191 175.261888,37.4375833 C174.980131,37.3500477 174.736676,37.2078043 174.531515,37.010849 C174.326353,36.8138937 174.166329,36.5567615 174.051439,36.2394446 C173.936548,35.9221278 173.879104,35.533694 173.879104,35.0741316 L173.879104,30.002558 L172.41836,30.002558 L172.41836,28.5254006 L173.879104,28.5254006 L173.879104,26.3671095 L175.873267,26.3671095 Z M182.06912,34.5489201 L183.874535,28.5254006 L186,28.5254006 L182.471235,38.7506121 C182.389171,38.9749224 182.281121,39.2170095 182.147081,39.4768812 C182.013043,39.7367527 181.837974,39.97884 181.62187,40.2031502 C181.405767,40.4274603 181.141796,40.6148386 180.829949,40.7652906 C180.518104,40.9157425 180.146082,40.9909674 179.713875,40.9909674 C179.544275,40.9909674 179.376045,40.9759225 179.209179,40.945832 C179.042315,40.9157417 178.890497,40.8815486 178.753722,40.8432517 L178.753722,39.3004429 C178.802962,39.3113849 178.867245,39.3182235 178.946573,39.320959 C179.025904,39.3236945 179.08745,39.3250622 179.131218,39.3250622 C179.377412,39.3250622 179.592146,39.3045463 179.775423,39.263514 C179.958701,39.2224816 180.118725,39.1540954 180.255499,39.0583533 C180.392274,38.9626111 180.509898,38.8395159 180.608375,38.6890639 C180.706854,38.5386119 180.794388,38.3512337 180.870981,38.1269235 L181.158206,37.3637255 L178.039763,28.5254006 L180.189848,28.5254006 L182.06912,34.5489201 Z"/>
    <rect width="24" height="24" x="14" y="21"/>
    <path fill="#173145" fill-opacity=".235" fill-rule="nonzero" d="M31.8462928,38.6045349 C32.1459295,39.0351553 31.9941149,39.5990649 31.5072051,39.8640622 C31.0202954,40.1290593 30.3826736,39.9947952 30.0830369,39.5641746 L25.1535618,32.4798199 C24.9488127,32.1855665 24.9488127,31.8144335 25.1535618,31.5201801 L30.0830369,24.4358254 C30.3826736,24.0052048 31.0202954,23.8709407 31.5072051,24.1359378 C31.9941149,24.4009351 32.1459295,24.9648447 31.8462928,25.3954651 L27.2506888,32 L31.8462928,38.6045349 Z"/>
    <g transform="translate(677 11)">
      <path fill="#909DA6" fill-rule="nonzero" d="M164.247392,13.2280772 C163.719838,13.2280772 163.284704,13.6631435 163.284704,14.1906152 L163.284704,25.0191677 C163.284704,25.5466393 163.719838,25.9817057 164.247392,25.9817057 L178.687713,25.9817057 C179.215267,25.9817057 179.650401,25.5466393 179.650401,25.0191677 L179.650401,14.1906152 C179.650401,13.6631435 179.215267,13.2280772 178.687713,13.2280772 L164.247392,13.2280772 Z M164.247392,11.5436357 L178.687713,11.5436357 C180.145703,11.5436357 181.335105,12.7328522 181.335105,14.1906152 L181.335105,25.0191677 C181.335105,26.4769307 180.145703,27.6661472 178.687713,27.6661472 L164.247392,27.6661472 C162.789402,27.6661472 161.6,26.4769307 161.6,25.0191677 L161.6,14.1906152 C161.6,12.7328522 162.789402,11.5436357 164.247392,11.5436357 Z"/>
      <path fill="#909DA6" fill-rule="nonzero" d="M180.02559,14.8846771 C180.412675,14.6266607 180.935665,14.7312425 181.193722,15.1182671 C181.451778,15.5052917 181.34718,16.0282008 180.960095,16.2862172 L171.934895,22.3020797 C171.651949,22.4906807 171.283335,22.4906807 171.000389,22.3020797 L161.975189,16.2862172 C161.588104,16.0282008 161.483506,15.5052917 161.741562,15.1182671 C161.999619,14.7312425 162.522609,14.6266607 162.909694,14.8846771 L171.467642,20.5890863 L180.02559,14.8846771 Z"/>
      <rect width="21.66" height="21.657" x="83.2" y="8.344"/>
      <path fill="#909DA6" fill-rule="nonzero" d="M125.354162,17.5163842 C125.6814,17.1857647 126.214741,17.1829821 126.545412,17.510169 C126.876083,17.8373559 126.878866,18.3706133 126.551628,18.7012328 L118.586733,26.7484339 C116.225164,29.1344068 112.392626,29.1344068 110.031057,26.7484339 C107.674317,24.3673408 107.674317,20.5104306 110.031057,18.1293375 L117.995951,10.0821363 C119.680216,8.38046719 122.414626,8.38046721 124.098891,10.0821364 C125.778326,11.7789259 125.778326,14.5263607 124.098569,16.2234756 L116.125329,24.2703513 C115.118369,25.2877169 113.482087,25.2877169 112.475127,24.2703513 C111.472996,23.2578654 111.472996,21.619906 112.475476,20.6070675 L119.833687,13.1815761 C120.161119,12.8511495 120.694461,12.8486811 121.02494,13.1760627 C121.355418,13.5034444 121.357886,14.0367034 121.030454,14.36713 L113.672592,21.7922687 C113.320113,22.1483901 113.320113,22.7293814 113.672592,23.0855027 C114.020241,23.4367444 114.580214,23.4367444 114.928186,23.0851773 L122.901425,15.0383016 C123.931209,13.9978766 123.931209,12.3074099 122.901425,11.266985 C121.876471,10.2314397 120.218371,10.2314397 119.193417,11.2669849 L111.228522,19.3141861 C109.521434,21.0389147 109.521434,23.8388568 111.228522,25.5635854 C112.930781,27.2834343 115.687009,27.2834343 117.389267,25.5635854 L125.354162,17.5163842 Z" transform="rotate(-45 117.53 18.672)"/>
      <rect width="21.66" height="21.657" x="35.2" y="8.344"/>
      <path fill="#173145" fill-opacity=".48" fill-rule="nonzero" d="M70.8504065,19.0961388 C70.8504065,18.5645438 71.2814166,18.1336008 71.8130945,18.1336008 C72.3447725,18.1336008 72.7757826,18.5645438 72.7757826,19.0961388 L72.7757824,19.9358466 C72.7732533,24.3582298 69.8616015,28.2521923 65.6198147,29.5060814 C61.3780468,30.7599649 56.8165889,29.0751112 54.4090714,25.3651806 C52.0015359,21.6552221 52.3214976,16.8039432 55.1954394,13.4421719 C58.0693577,10.0804278 62.8125986,9.00899 66.852959,10.808875 C67.3386137,11.0252227 67.5569029,11.5942467 67.3405214,12.0798257 C67.12414,12.5654047 66.5550273,12.7836598 66.0693726,12.5673122 C62.8078477,11.11438 58.9789274,11.9792844 56.6590187,14.6929799 C54.3391333,17.4066481 54.0808579,21.3226357 56.0242481,24.3173567 C57.9676564,27.3121055 61.6498245,28.6721782 65.0739348,27.6599976 C68.4980261,26.6478225 70.8483651,23.5045442 70.8504065,19.9352962 L70.8504065,19.0961388 Z"/>
      <path fill="#173145" fill-opacity=".48" fill-rule="nonzero" d="M72.7071178,11.7677776 C73.0485287,11.4518101 73.581479,11.472393 73.8974957,11.8137507 C74.2135124,12.1551083 74.1929264,12.6879757 73.8515155,13.0039431 L63.4510464,22.6293231 C63.1281306,22.9281738 62.6295644,22.9281738 62.3066487,22.6293231 L59.4701571,20.0042195 C59.1287462,19.688252 59.1081601,19.1553847 59.4241768,18.814027 C59.7401935,18.4726693 60.2731439,18.4520865 60.6145548,18.7680539 L62.8788475,20.8636015 L72.7071178,11.7677776 Z"/>
      <rect width="21.66" height="21.657" y="8.344"/>
      <path fill="#909DA6" fill-rule="nonzero" d="M16.1250248 28.3968008C16.1250248 28.8619465 15.7478909 29.2390215 15.2826728 29.2390215 14.8174546 29.2390215 14.4403207 28.8619465 14.4403207 28.3968008L14.4403207 26.7925708C14.4403207 25.5092742 13.2218202 24.4263315 11.6725926 24.4263315L4.45243222 24.4263315C2.90320456 24.4263315 1.68470408 25.5092742 1.68470408 26.7925708L1.68470408 28.3968008C1.68470408 28.8619465 1.30757023 29.2390215.842352042 29.2390215.377133855 29.2390215 0 28.8619465 0 28.3968008L0 26.7925708C0 24.5319002 2.01407542 22.74189 4.45243222 22.74189L11.6725926 22.74189C14.1109494 22.74189 16.1250248 24.5319002 16.1250248 26.7925708L16.1250248 28.3968008zM7.65243222 20.4471122C5.19342181 20.4471122 3.2 18.4540011 3.2 15.9953739 3.2 13.5367468 5.19342181 11.5436357 7.65243222 11.5436357 10.1114426 11.5436357 12.1048644 13.5367468 12.1048644 15.9953739 12.1048644 18.4540011 10.1114426 20.4471122 7.65243222 20.4471122zM7.65243222 18.7626707C9.18100626 18.7626707 10.4201604 17.5237097 10.4201604 15.9953739 10.4201604 14.4670381 9.18100626 13.2280772 7.65243222 13.2280772 6.12385818 13.2280772 4.88470408 14.4670381 4.88470408 15.9953739 4.88470408 17.5237097 6.12385818 18.7626707 7.65243222 18.7626707zM21.2949247 28.3969412C21.2949247 28.8620869 20.9177909 29.239162 20.4525727 29.239162 19.9873545 29.239162 19.6102207 28.8620869 19.6102207 28.3969412L19.6102212 26.7581051C19.6091008 25.7347202 18.4588488 24.7237534 16.6965274 24.4137309 16.2383469 24.3331292 15.9322692 23.8964178 16.0128835 23.4383088 16.0934978 22.9801998 16.5302773 22.6741697 16.9884577 22.7547715 19.4739943 23.1920199 21.2927722 24.7905601 21.2949247 26.7571831L21.2949247 28.3969412zM13.5048476 13.2168889C13.0458815 13.1408871 12.7354372 12.707268 12.8114508 12.2483734 12.8874644 11.7894788 13.3211512 11.4790829 13.7801173 11.5550847 16.2663201 11.9667835 18.0949147 13.4903749 18.0949147 15.3939181 18.0949147 17.2974612 16.2663201 18.8210526 13.7801173 19.2327514 13.3211512 19.3087532 12.8874644 18.9983573 12.8114508 18.5394627 12.7354372 18.0805681 13.0458815 17.646949 13.5048476 17.5709472 15.2672269 17.2791087 16.4102106 16.3267708 16.4102106 15.3939181 16.4102106 14.4610654 15.2672269 13.5087274 13.5048476 13.2168889z"/>
      <g transform="translate(208)">
        <rect width="38.508" height="38.508" fill="none" rx="9.627"/>
        <g transform="translate(8.424 8.424)">
          <mask id="back3-d" fill="#fff">
            <use xlink:href="#back3-c"/>
          </mask>
          <g fill="#173145" fill-opacity=".48" mask="url(#back3-d)">
            <rect width="21.909" height="21.909"/>
          </g>
        </g>
      </g>
    </g>
    <path fill="#173145" fill-opacity=".48" d="M94.4506836,109.06543 C94.3289382,110.354824 93.8530315,111.360592 93.0229492,112.082764 C92.1928669,112.804935 91.0888741,113.166016 89.7109375,113.166016 C88.7480421,113.166016 87.8999874,112.937746 87.166748,112.481201 C86.4335087,112.024656 85.8676778,111.375818 85.4692383,110.534668 C85.0707988,109.693518 84.8632813,108.716802 84.8466797,107.604492 L84.8466797,106.475586 C84.8466797,105.335606 85.0486633,104.331222 85.4526367,103.462402 C85.8566101,102.593583 86.4362755,101.923993 87.1916504,101.453613 C87.9470253,100.983233 88.819982,100.748047 89.8105469,100.748047 C91.1442124,100.748047 92.2177694,101.110511 93.03125,101.835449 C93.8447306,102.560388 94.3178704,103.584141 94.4506836,104.906738 L92.3588867,104.906738 C92.2592768,104.037919 92.0061055,103.411216 91.5993652,103.026611 C91.1926249,102.642007 90.5963581,102.449707 89.8105469,102.449707 C88.8974564,102.449707 88.1960474,102.783118 87.7062988,103.449951 C87.2165503,104.116784 86.9661459,105.094883 86.9550781,106.384277 L86.9550781,107.455078 C86.9550781,108.761074 87.1888811,109.757158 87.6564941,110.443359 C88.1241072,111.129561 88.8089148,111.472656 89.7109375,111.472656 C90.5354859,111.472656 91.1552714,111.287274 91.5703125,110.916504 C91.9853536,110.545734 92.2482091,109.928715 92.3588867,109.06543 L94.4506836,109.06543 Z M101.498047,113 C101.409505,112.82845 101.332032,112.548993 101.265625,112.161621 C100.623695,112.831221 99.8378953,113.166016 98.9082031,113.166016 C98.0061804,113.166016 97.2701851,112.908694 96.7001953,112.394043 C96.1302055,111.879392 95.8452148,111.243005 95.8452148,110.484863 C95.8452148,109.527502 96.2007614,108.79289 96.9118652,108.281006 C97.6229691,107.769122 98.6398046,107.513184 99.9624023,107.513184 L101.199219,107.513184 L101.199219,106.923828 C101.199219,106.458982 101.069174,106.086834 100.809082,105.807373 C100.54899,105.527912 100.153323,105.388184 99.6220703,105.388184 C99.1627581,105.388184 98.7864598,105.50301 98.4931641,105.732666 C98.1998683,105.962322 98.0532227,106.25423 98.0532227,106.608398 L96.0361328,106.608398 C96.0361328,106.115883 96.1993799,105.655194 96.5258789,105.226318 C96.8523779,104.797443 97.2964653,104.461264 97.8581543,104.217773 C98.4198433,103.974283 99.046546,103.852539 99.7382812,103.852539 C100.789719,103.852539 101.628089,104.116778 102.253418,104.645264 C102.878747,105.173749 103.199707,105.916662 103.216309,106.874023 L103.216309,110.924805 C103.216309,111.732751 103.329751,112.377439 103.556641,112.858887 L103.556641,113 L101.498047,113 Z M99.2817383,111.547363 C99.6801778,111.547363 100.055093,111.450522 100.406494,111.256836 C100.757896,111.06315 101.022135,110.803062 101.199219,110.476562 L101.199219,108.783203 L100.111816,108.783203 C99.3647424,108.783203 98.8030618,108.913247 98.4267578,109.17334 C98.0504538,109.433432 97.8623047,109.80143 97.8623047,110.277344 C97.8623047,110.664715 97.9909655,110.973225 98.248291,111.202881 C98.5056165,111.432537 98.8500955,111.547363 99.2817383,111.547363 Z M110.03125,105.861328 C109.765624,105.817057 109.491701,105.794922 109.209473,105.794922 C108.285314,105.794922 107.662762,106.149085 107.341797,106.857422 L107.341797,113 L105.324707,113 L105.324707,104.018555 L107.250488,104.018555 L107.300293,105.022949 C107.787275,104.242672 108.462398,103.852539 109.325684,103.852539 C109.613445,103.852539 109.851399,103.891276 110.039551,103.96875 L110.03125,105.861328 Z M110.927734,108.442871 C110.927734,107.059401 111.248695,105.948491 111.890625,105.110107 C112.532555,104.271724 113.393061,103.852539 114.472168,103.852539 C115.423996,103.852539 116.193194,104.184567 116.779785,104.848633 L116.779785,100.25 L118.796875,100.25 L118.796875,113 L116.970703,113 L116.871094,112.070312 C116.267901,112.800785 115.462733,113.166016 114.455566,113.166016 C113.404129,113.166016 112.553307,112.74268 111.903076,111.895996 C111.252845,111.049312 110.927734,109.898282 110.927734,108.442871 Z M112.944824,108.617188 C112.944824,109.530278 113.120522,110.242755 113.471924,110.754639 C113.823325,111.266523 114.322751,111.522461 114.970215,111.522461 C115.794763,111.522461 116.397947,111.154463 116.779785,110.418457 L116.779785,106.583496 C116.409015,105.864091 115.811365,105.504395 114.986816,105.504395 C114.333818,105.504395 113.830243,105.7631 113.476074,106.280518 C113.121906,106.797936 112.944824,107.576818 112.944824,108.617188 Z M125.935547,110.55957 C125.935547,110.199868 125.787518,109.925945 125.491455,109.737793 C125.195392,109.549641 124.704268,109.383627 124.018066,109.239746 C123.331865,109.095865 122.759117,108.91325 122.299805,108.691895 C121.292638,108.204913 120.789062,107.499354 120.789062,106.575195 C120.789062,105.800452 121.115557,105.152997 121.768555,104.632812 C122.421553,104.112628 123.251623,103.852539 124.258789,103.852539 C125.332362,103.852539 126.199785,104.118161 126.861084,104.649414 C127.522383,105.180667 127.853027,105.869625 127.853027,106.716309 L125.835938,106.716309 C125.835938,106.328937 125.692059,106.006593 125.404297,105.749268 C125.116535,105.491942 124.734703,105.363281 124.258789,105.363281 C123.816079,105.363281 123.454998,105.465657 123.175537,105.67041 C122.896076,105.875164 122.756348,106.149087 122.756348,106.492188 C122.756348,106.802085 122.886392,107.042805 123.146484,107.214355 C123.406577,107.385906 123.932288,107.558837 124.723633,107.733154 C125.514978,107.907472 126.136147,108.114989 126.587158,108.355713 C127.03817,108.596437 127.372964,108.885578 127.591553,109.223145 C127.810141,109.560711 127.919434,109.970212 127.919434,110.45166 C127.919434,111.259607 127.584639,111.913979 126.915039,112.414795 C126.245439,112.915611 125.368332,113.166016 124.283691,113.166016 C123.547685,113.166016 122.89193,113.033204 122.316406,112.767578 C121.740883,112.501952 121.292645,112.136721 120.97168,111.671875 C120.650715,111.207029 120.490234,110.70622 120.490234,110.169434 L122.449219,110.169434 C122.476888,110.645347 122.656737,111.011962 122.98877,111.269287 C123.320802,111.526613 123.760739,111.655273 124.308594,111.655273 C124.839846,111.655273 125.243814,111.554282 125.520508,111.352295 C125.797202,111.150308 125.935547,110.886069 125.935547,110.55957 Z"/>
    <path fill="#5CD0E0" fill-rule="nonzero" d="M144,127 C143.447715,127 143,126.552285 143,126 C143,125.447715 143.447715,125 144,125 L209.192024,125 C209.744309,125 210.192024,125.447715 210.192024,126 C210.192024,126.552285 209.744309,127 209.192024,127 L144,127 Z"/>
    <path fill="#5CD0E0" d="M153.960938,102.607422 L150.192383,102.607422 L150.192383,113 L148.108887,113 L148.108887,102.607422 L144.373535,102.607422 L144.373535,100.914062 L153.960938,100.914062 L153.960938,102.607422 Z M157.49707,113 L155.47998,113 L155.47998,104.018555 L157.49707,104.018555 L157.49707,113 Z M155.355469,101.686035 C155.355469,101.376138 155.453694,101.118816 155.650146,100.914062 C155.846599,100.709309 156.12744,100.606934 156.492676,100.606934 C156.857912,100.606934 157.140136,100.709309 157.339355,100.914062 C157.538575,101.118816 157.638184,101.376138 157.638184,101.686035 C157.638184,101.990399 157.538575,102.24357 157.339355,102.445557 C157.140136,102.647543 156.857912,102.748535 156.492676,102.748535 C156.12744,102.748535 155.846599,102.647543 155.650146,102.445557 C155.453694,102.24357 155.355469,101.990399 155.355469,101.686035 Z M161.589355,104.018555 L161.647461,104.956543 C162.278323,104.220537 163.141596,103.852539 164.237305,103.852539 C165.438157,103.852539 166.259926,104.311844 166.702637,105.230469 C167.355635,104.311844 168.274245,103.852539 169.458496,103.852539 C170.449061,103.852539 171.18644,104.126462 171.670654,104.674316 C172.154869,105.222171 172.402506,106.030105 172.413574,107.098145 L172.413574,113 L170.396484,113 L170.396484,107.15625 C170.396484,106.58626 170.271974,106.168458 170.022949,105.902832 C169.773925,105.637206 169.361657,105.504395 168.786133,105.504395 C168.326821,105.504395 167.951906,105.627522 167.661377,105.873779 C167.370848,106.120037 167.167481,106.442381 167.05127,106.84082 L167.05957,113 L165.04248,113 L165.04248,107.089844 C165.014811,106.032872 164.475266,105.504395 163.423828,105.504395 C162.615881,105.504395 162.043133,105.833656 161.705566,106.492188 L161.705566,113 L159.688477,113 L159.688477,104.018555 L161.589355,104.018555 Z M178.439941,113.166016 C177.161615,113.166016 176.125411,112.763432 175.331299,111.958252 C174.537187,111.153072 174.140137,110.080899 174.140137,108.741699 L174.140137,108.492676 C174.140137,107.596187 174.313068,106.79517 174.658936,106.0896 C175.004803,105.38403 175.490394,104.8348 176.115723,104.441895 C176.741051,104.048989 177.43831,103.852539 178.20752,103.852539 C179.430507,103.852539 180.375404,104.242672 181.042236,105.022949 C181.709069,105.803227 182.04248,106.907219 182.04248,108.334961 L182.04248,109.148438 L176.173828,109.148438 C176.234701,109.889978 176.482338,110.47656 176.916748,110.908203 C177.351158,111.339846 177.89762,111.555664 178.556152,111.555664 C179.480311,111.555664 180.232907,111.182133 180.813965,110.435059 L181.901367,111.472656 C181.541665,112.009443 181.061608,112.425861 180.461182,112.721924 C179.860755,113.017987 179.187015,113.166016 178.439941,113.166016 Z M178.199219,105.471191 C177.645831,105.471191 177.198976,105.664874 176.858643,106.052246 C176.518309,106.439618 176.301107,106.979163 176.207031,107.670898 L180.050293,107.670898 L180.050293,107.521484 C180.006022,106.846351 179.826173,106.335858 179.510742,105.98999 C179.195311,105.644123 178.758141,105.471191 178.199219,105.471191 Z M185.75293,113 L183.73584,113 L183.73584,100.25 L185.75293,100.25 L185.75293,113 Z M190.094238,113 L188.077148,113 L188.077148,104.018555 L190.094238,104.018555 L190.094238,113 Z M187.952637,101.686035 C187.952637,101.376138 188.050862,101.118816 188.247314,100.914062 C188.443767,100.709309 188.724608,100.606934 189.089844,100.606934 C189.45508,100.606934 189.737304,100.709309 189.936523,100.914062 C190.135743,101.118816 190.235352,101.376138 190.235352,101.686035 C190.235352,101.990399 190.135743,102.24357 189.936523,102.445557 C189.737304,102.647543 189.45508,102.748535 189.089844,102.748535 C188.724608,102.748535 188.443767,102.647543 188.247314,102.445557 C188.050862,102.24357 187.952637,101.990399 187.952637,101.686035 Z M194.161621,104.018555 L194.219727,105.056152 C194.883792,104.253739 195.755366,103.852539 196.834473,103.852539 C198.704925,103.852539 199.656738,104.923329 199.689941,107.064941 L199.689941,113 L197.672852,113 L197.672852,107.181152 C197.672852,106.611163 197.549725,106.18921 197.303467,105.915283 C197.057209,105.641356 196.654625,105.504395 196.095703,105.504395 C195.282222,105.504395 194.676272,105.872392 194.277832,106.608398 L194.277832,113 L192.260742,113 L192.260742,104.018555 L194.161621,104.018555 Z M205.699707,113.166016 C204.42138,113.166016 203.385176,112.763432 202.591064,111.958252 C201.796952,111.153072 201.399902,110.080899 201.399902,108.741699 L201.399902,108.492676 C201.399902,107.596187 201.572834,106.79517 201.918701,106.0896 C202.264569,105.38403 202.75016,104.8348 203.375488,104.441895 C204.000817,104.048989 204.698076,103.852539 205.467285,103.852539 C206.690273,103.852539 207.635169,104.242672 208.302002,105.022949 C208.968835,105.803227 209.302246,106.907219 209.302246,108.334961 L209.302246,109.148438 L203.433594,109.148438 C203.494466,109.889978 203.742104,110.47656 204.176514,110.908203 C204.610923,111.339846 205.157386,111.555664 205.815918,111.555664 C206.740076,111.555664 207.492673,111.182133 208.07373,110.435059 L209.161133,111.472656 C208.80143,112.009443 208.321373,112.425861 207.720947,112.721924 C207.120521,113.017987 206.446781,113.166016 205.699707,113.166016 Z M205.458984,105.471191 C204.905596,105.471191 204.458742,105.664874 204.118408,106.052246 C203.778074,106.439618 203.560873,106.979163 203.466797,107.670898 L207.310059,107.670898 L207.310059,107.521484 C207.265788,106.846351 207.085939,106.335858 206.770508,105.98999 C206.455077,105.644123 206.017906,105.471191 205.458984,105.471191 Z"/>
  </g>
</svg>
