<svg xmlns="http://www.w3.org/2000/svg" xmlns:xlink="http://www.w3.org/1999/xlink" width="828" height="568" viewBox="0 0 828 568">
  <defs>
    <rect id="back1-b" width="795.994" height="536.817" rx="16"/>
    <filter id="back1-a" width="106.5%" height="109.7%" x="-3.3%" y="-4.1%" filterUnits="objectBoundingBox">
      <feOffset dy="4" in="SourceAlpha" result="shadowOffsetOuter1"/>
      <feGaussianBlur in="shadowOffsetOuter1" result="shadowBlurOuter1" stdDeviation="8"/>
      <feColorMatrix in="shadowBlurOuter1" values="0 0 0 0 0.0901960784   0 0 0 0 0.192156863   0 0 0 0 0.270588235  0 0 0 0.16 0"/>
    </filter>
  </defs>
  <g fill="none" fill-rule="evenodd" transform="translate(16 12)">
    <rect width="14.088" height="9.363" x="191.155" y="58.058" fill="#173145" fill-opacity=".08" fill-rule="nonzero" rx="2.995"/>
    <g fill-rule="nonzero">
      <use fill="#000" filter="url(#back1-a)" xlink:href="#back1-b"/>
      <use fill="#F6F7F8" fill-rule="evenodd" xlink:href="#back1-b"/>
      <path fill="#FFF" d="M0,28 L795.9941,28 L795.9941,520.81749 C795.9941,529.654046 788.830656,536.81749 779.9941,536.81749 L16,536.81749 C7.163444,536.81749 1.082166e-15,529.654046 0,520.81749 L0,28 Z"/>
    </g>
    <path fill="#173145" fill-opacity=".802" fill-rule="nonzero" d="M322.919008,79.1501513 L321.654471,79.1501513 L321.654471,74.7406549 L316.845303,74.7406549 L316.845303,79.1501513 L315.587319,79.1501513 L315.587319,69.6104384 L316.845303,69.6104384 L316.845303,73.7119908 L321.654471,73.7119908 L321.654471,69.6104384 L322.919008,69.6104384 L322.919008,79.1501513 Z M326.280184,79.1501513 L325.068064,79.1501513 L325.068064,72.0608866 L326.280184,72.0608866 L326.280184,79.1501513 Z M324.969784,70.1804625 C324.969784,69.9839015 325.029843,69.8179191 325.149964,69.6825104 C325.270084,69.5471017 325.448079,69.4793984 325.683952,69.4793984 C325.919825,69.4793984 326.098911,69.5471017 326.221216,69.6825104 C326.343521,69.8179191 326.404672,69.9839015 326.404672,70.1804625 C326.404672,70.3770235 326.343521,70.5408218 326.221216,70.6718625 C326.098911,70.8029032 325.919825,70.8684225 325.683952,70.8684225 C325.448079,70.8684225 325.270084,70.8029032 325.149964,70.6718625 C325.029843,70.5408218 324.969784,70.3770235 324.969784,70.1804625 Z M336.992705,74.9372149 L332.989433,74.9372149 L332.989433,79.1501513 L331.731448,79.1501513 L331.731448,69.6104384 L337.641353,69.6104384 L337.641353,70.6456545 L332.989433,70.6456545 L332.989433,73.9085508 L336.992705,73.9085508 L336.992705,74.9372149 Z M340.275257,79.1501513 L339.063137,79.1501513 L339.063137,69.0862783 L340.275257,69.0862783 L340.275257,79.1501513 Z M341.893601,75.539999 C341.893601,75.0245724 341.968949,74.5473731 342.119645,74.1083868 C342.270342,73.6694006 342.484372,73.2882964 342.761742,72.9650627 C343.039111,72.6418291 343.376536,72.3884876 343.774026,72.2050307 C344.171516,72.0215737 344.617047,71.9298466 345.110634,71.9298466 C345.612956,71.9298466 346.063948,72.0215737 346.463622,72.2050307 C346.863296,72.3884876 347.202905,72.6418291 347.482458,72.9650627 C347.762011,73.2882964 347.976041,73.6694006 348.124554,74.1083868 C348.273067,74.5473731 348.347322,75.0245724 348.347322,75.539999 L348.347322,75.684143 C348.347322,76.1995696 348.273067,76.6767689 348.124554,77.1157551 C347.976041,77.5547414 347.762011,77.9347536 347.482458,78.2558033 C347.202905,78.5768529 346.864388,78.8280104 346.466898,79.0092833 C346.069408,79.1905563 345.621692,79.2811914 345.123738,79.2811914 C344.625783,79.2811914 344.178068,79.1905563 343.780578,79.0092833 C343.383088,78.8280104 343.044571,78.5768529 342.765018,78.2558033 C342.485464,77.9347536 342.270342,77.5547414 342.119645,77.1157551 C341.968949,76.6767689 341.893601,76.1995696 341.893601,75.684143 L341.893601,75.539999 Z M343.112274,75.684143 C343.112274,76.0379528 343.153769,76.3721015 343.236762,76.6865991 C343.319754,77.0010967 343.445333,77.27737 343.613502,77.5154272 C343.78167,77.7534844 343.991332,77.9423985 344.242494,78.0821752 C344.493655,78.221952 344.7874,78.2918393 345.123738,78.2918393 C345.455707,78.2918393 345.748361,78.221952 346.001706,78.0821752 C346.255051,77.9423985 346.464713,77.7534844 346.630698,77.5154272 C346.796683,77.27737 346.922262,77.0010967 347.007438,76.6865991 C347.092614,76.3721015 347.135202,76.0379528 347.135202,75.684143 L347.135202,75.539999 C347.135202,75.1905572 347.092614,74.8575005 347.007438,74.5408189 C346.922262,74.2241373 346.795591,73.946772 346.627422,73.7087148 C346.459253,73.4706576 346.248499,73.2806515 345.995154,73.1386908 C345.741809,72.99673 345.446971,72.9257507 345.110634,72.9257507 C344.778664,72.9257507 344.488195,72.99673 344.239218,73.1386908 C343.99024,73.2806515 343.78167,73.4706576 343.613502,73.7087148 C343.445333,73.946772 343.319754,74.2241373 343.236762,74.5408189 C343.153769,74.8575005 343.112274,75.1905572 343.112274,75.539999 L343.112274,75.684143 Z M353.294083,73.1485188 C353.18925,73.1310467 353.092063,73.1190348 353.002519,73.1124827 C352.912974,73.1059307 352.811419,73.1026547 352.697851,73.1026547 C352.27852,73.1026547 351.936728,73.1943818 351.672462,73.3778388 C351.408197,73.5612957 351.210547,73.8080853 351.079506,74.1182148 L351.079506,79.1501513 L349.867386,79.1501513 L349.867386,72.0608866 L351.046746,72.0608866 L351.066402,72.8798867 C351.249859,72.5872292 351.479177,72.3557275 351.754362,72.1853747 C352.029548,72.0150218 352.363697,71.9298466 352.756819,71.9298466 C352.844179,71.9298466 352.944642,71.9396745 353.058211,71.9593306 C353.171779,71.9789867 353.250402,71.9997345 353.294083,72.0215746 L353.294083,73.1485188 Z M355.724875,79.1501513 L354.512755,79.1501513 L354.512755,72.0608866 L355.724875,72.0608866 L355.724875,79.1501513 Z M354.414475,70.1804625 C354.414475,69.9839015 354.474534,69.8179191 354.594655,69.6825104 C354.714775,69.5471017 354.89277,69.4793984 355.128643,69.4793984 C355.364516,69.4793984 355.543602,69.5471017 355.665907,69.6825104 C355.788211,69.8179191 355.849363,69.9839015 355.849363,70.1804625 C355.849363,70.3770235 355.788211,70.5408218 355.665907,70.6718625 C355.543602,70.8029032 355.364516,70.8684225 355.128643,70.8684225 C354.89277,70.8684225 354.714775,70.8029032 354.594655,70.6718625 C354.474534,70.5408218 354.414475,70.3770235 354.414475,70.1804625 Z M362.041003,79.1501513 C361.997323,79.0627909 361.96238,78.9525 361.936171,78.8192753 C361.909963,78.6860506 361.888124,78.547368 361.870651,78.4032233 C361.757083,78.5211599 361.62932,78.6336348 361.487359,78.7406513 C361.345399,78.8476679 361.190336,78.9415789 361.022167,79.0223873 C360.853998,79.1031957 360.671636,79.1665311 360.475075,79.2123954 C360.278514,79.2582596 360.071036,79.2811914 359.852635,79.2811914 C359.490089,79.2811914 359.161401,79.2265919 358.866559,79.1173913 C358.571718,79.0081908 358.32056,78.8596803 358.113079,78.6718553 C357.905598,78.4840303 357.745076,78.2623565 357.631507,78.0068272 C357.517938,77.7512979 357.461155,77.4772086 357.461155,77.1845512 C357.461155,76.8045332 357.53541,76.4692925 357.683923,76.1788191 C357.832436,75.8883456 358.045374,75.644832 358.322743,75.448271 C358.600113,75.25171 358.935353,75.1031994 359.328475,75.0027349 C359.721597,74.9022704 360.160577,74.8520389 360.645427,74.8520389 L361.850995,74.8520389 L361.850995,74.2951189 C361.850995,73.8714207 361.724325,73.533996 361.470979,73.2828348 C361.217634,73.0316735 360.844174,72.9060947 360.350587,72.9060947 C360.12345,72.9060947 359.915972,72.9366704 359.728147,72.9978227 C359.540322,73.058975 359.3798,73.1408742 359.246575,73.2435228 C359.11335,73.3461713 359.009612,73.4651981 358.935355,73.6006068 C358.861099,73.7360155 358.823971,73.8779741 358.823971,74.0264868 L357.605299,74.0264868 C357.605299,73.7731415 357.67191,73.521984 357.805135,73.2730068 C357.93836,73.0240295 358.127274,72.8001717 358.371883,72.6014267 C358.616492,72.4026817 358.912421,72.2410673 359.259679,72.1165786 C359.606937,71.99209 359.994593,71.9298466 360.422659,71.9298466 C360.807045,71.9298466 361.161942,71.9789861 361.487359,72.0772666 C361.812777,72.1755471 362.091234,72.3240577 362.322739,72.5228027 C362.554245,72.7215477 362.735515,72.9694292 362.866556,73.2664548 C362.997596,73.5634803 363.063116,73.9107328 363.063116,74.3082229 L363.063116,77.6038792 C363.063116,77.8441204 363.083863,78.0963699 363.12536,78.3606353 C363.166856,78.6249006 363.229099,78.8531264 363.312092,79.0453193 L363.312092,79.1501513 L362.041003,79.1501513 Z M360.029539,78.2263193 C360.24794,78.2263193 360.453234,78.1957436 360.645427,78.1345912 C360.83762,78.0734389 361.012339,77.9937237 361.169587,77.8954432 C361.326836,77.7971627 361.463335,77.6846878 361.579087,77.5580152 C361.69484,77.4313425 361.785475,77.3003038 361.850995,77.1648951 L361.850995,75.710351 L360.841987,75.710351 C360.147472,75.710351 359.612397,75.8184579 359.236747,76.034675 C358.861097,76.2508921 358.673275,76.5773969 358.673275,77.0141991 C358.673275,77.184552 358.701667,77.3439824 358.758451,77.4924952 C358.815235,77.6410079 358.901503,77.7687707 359.017255,77.8757872 C359.133008,77.9828038 359.274966,78.0679789 359.443135,78.1313152 C359.611304,78.1946516 359.80677,78.2263193 360.029539,78.2263193 Z M366.109796,72.0608866 L366.149108,72.9519587 C366.402453,72.6330931 366.70821,72.3830276 367.066388,72.2017547 C367.424566,72.0204817 367.826418,71.9298466 368.271956,71.9298466 C368.61703,71.9298466 368.929339,71.9768022 369.208892,72.0707146 C369.488446,72.1646271 369.726499,72.3153216 369.92306,72.5228027 C370.119621,72.7302837 370.271408,72.9967291 370.378424,73.3221468 C370.485441,73.6475644 370.538948,74.0417725 370.538948,74.5047829 L370.538948,79.1501513 L369.326828,79.1501513 L369.326828,74.4916789 C369.326828,74.2164935 369.296252,73.9817158 369.2351,73.7873388 C369.173948,73.5929618 369.083313,73.4346234 368.963192,73.3123188 C368.843072,73.1900141 368.694561,73.100471 368.517656,73.0436867 C368.340751,72.9869025 368.136549,72.9585107 367.905044,72.9585107 C367.511922,72.9585107 367.166853,73.0633417 366.869828,73.2730068 C366.572802,73.4826718 366.341301,73.7578531 366.175316,74.0985588 L366.175316,79.1501513 L364.963196,79.1501513 L364.963196,72.0608866 L366.109796,72.0608866 Z M373.723221,76.4572791 L372.629037,76.4572791 L372.54386,69.6104384 L373.814949,69.6104384 L373.723221,76.4572791 Z M372.497996,78.5408153 C372.497996,78.3442543 372.558056,78.1793639 372.678177,78.0461392 C372.798297,77.9129146 372.976291,77.8463032 373.212165,77.8463032 C373.448038,77.8463032 373.627124,77.9129146 373.749429,78.0461392 C373.871733,78.1793639 373.932885,78.3442543 373.932885,78.5408153 C373.932885,78.7373763 373.871733,78.9000827 373.749429,79.0289393 C373.627124,79.157796 373.448038,79.2222234 373.212165,79.2222234 C372.976291,79.2222234 372.798297,79.157796 372.678177,79.0289393 C372.558056,78.9000827 372.497996,78.7373763 372.497996,78.5408153 Z M316.937031,116.410442 L315.679047,116.410442 L315.679047,106.870729 L316.937031,106.870729 L316.937031,116.410442 Z M320.271999,107.185225 C320.271999,107.386154 320.246884,107.594724 320.196651,107.810941 C320.146419,108.027158 320.072164,108.240096 319.973883,108.449761 C319.875603,108.659426 319.756576,108.85926 319.616799,109.049269 C319.477023,109.239278 319.315408,109.408536 319.131951,109.557049 L318.443991,109.085305 C318.649288,108.797015 318.805443,108.501086 318.912459,108.197509 C319.019476,107.893931 319.072983,107.563059 319.072983,107.204881 L319.072983,106.346569 L320.271999,106.346569 L320.271999,107.185225 Z M324.065608,114.765889 L325.821544,109.321177 L327.059872,109.321177 L324.517696,116.410442 L323.593864,116.410442 L321.025479,109.321177 L322.263808,109.321177 L324.065608,114.765889 Z M331.167976,116.541482 C330.67439,116.541482 330.227766,116.456306 329.828092,116.285954 C329.428418,116.115601 329.086626,115.878639 328.802704,115.575062 C328.518783,115.271484 328.300385,114.910036 328.147504,114.490705 C327.994623,114.071375 327.918184,113.61274 327.918184,113.114785 L327.918184,112.839601 C327.918184,112.263022 328.004451,111.747603 328.176988,111.293329 C328.349525,110.839055 328.579935,110.456859 328.868224,110.146729 C329.156514,109.836599 329.486294,109.599638 329.857576,109.435837 C330.228858,109.272036 330.615422,109.190137 331.01728,109.190137 C331.523971,109.190137 331.960767,109.278588 332.327681,109.455493 C332.694594,109.632398 332.997075,109.875911 333.235133,110.186041 C333.47319,110.496171 333.649,110.863079 333.762569,111.286777 C333.876137,111.710475 333.932921,112.171295 333.932921,112.669249 L333.932921,113.213065 L329.130304,113.213065 C329.13904,113.540667 329.192548,113.846424 329.290828,114.130345 C329.389109,114.414267 329.528883,114.661056 329.710156,114.870721 C329.891429,115.080387 330.109827,115.246369 330.365356,115.368674 C330.620886,115.490978 330.910263,115.55213 331.233496,115.55213 C331.661563,115.55213 332.024103,115.46477 332.321129,115.29005 C332.618154,115.115329 332.878047,114.883827 333.100817,114.595537 L333.841193,115.172113 C333.727624,115.346834 333.590033,115.516093 333.428417,115.679894 C333.2668,115.843694 333.077886,115.990021 332.861669,116.118878 C332.645451,116.247734 332.39757,116.350381 332.118016,116.426822 C331.838463,116.503262 331.521786,116.541482 331.167976,116.541482 Z M331.01728,110.186041 C330.772671,110.186041 330.547721,110.230813 330.342424,110.320357 C330.137127,110.409901 329.953673,110.539848 329.792056,110.710201 C329.630439,110.880554 329.496125,111.0924 329.389108,111.345745 C329.282092,111.59909 329.208928,111.88956 329.169616,112.217161 L332.720801,112.217161 L332.720801,112.125433 C332.707696,111.88956 332.669477,111.655874 332.606141,111.424369 C332.542804,111.192864 332.444525,110.985386 332.311301,110.801929 C332.178076,110.618472 332.006634,110.469962 331.796968,110.356393 C331.587303,110.242824 331.32741,110.186041 331.01728,110.186041 Z M338.368625,112.806841 C338.368625,112.265207 338.433052,111.772719 338.561909,111.329365 C338.690766,110.886011 338.876404,110.505999 339.118829,110.189317 C339.361254,109.872635 339.655,109.626938 340.000073,109.452217 C340.345147,109.277496 340.733895,109.190137 341.166329,109.190137 C341.616236,109.190137 342.007168,109.26876 342.339138,109.426009 C342.671107,109.583258 342.955024,109.810391 343.190898,110.107417 L343.249866,109.321177 L344.357154,109.321177 L344.357154,116.259746 C344.357154,116.727124 344.28399,117.143172 344.137662,117.507902 C343.991333,117.872632 343.784947,118.180573 343.518498,118.431734 C343.252048,118.682895 342.935371,118.873993 342.568458,119.005034 C342.201544,119.136075 341.795324,119.201594 341.349785,119.201594 C341.166328,119.201594 340.955575,119.180846 340.717517,119.13935 C340.47946,119.097854 340.239223,119.03015 339.996797,118.936238 C339.754372,118.842325 339.521778,118.716747 339.299009,118.559498 C339.07624,118.402249 338.886234,118.207875 338.728985,117.97637 L339.357977,117.249098 C339.50649,117.432555 339.659368,117.585433 339.816617,117.707738 C339.973866,117.830042 340.132204,117.928321 340.291637,118.002578 C340.45107,118.076834 340.612685,118.130342 340.776485,118.163102 C340.940286,118.195862 341.102993,118.212242 341.264609,118.212242 C341.548531,118.212242 341.80624,118.171838 342.037745,118.09103 C342.269251,118.010221 342.466901,117.889011 342.630702,117.727394 C342.794502,117.565777 342.920081,117.368127 343.007442,117.134438 C343.094802,116.900748 343.138482,116.628843 343.138482,116.318714 L343.138482,115.702826 C342.902608,115.973643 342.621967,116.181121 342.29655,116.325266 C341.971132,116.46941 341.590028,116.541482 341.153225,116.541482 C340.729527,116.541482 340.346239,116.451939 340.003349,116.27285 C339.66046,116.093761 339.367806,115.843695 339.125381,115.522646 C338.882956,115.201596 338.696226,114.821584 338.565185,114.382597 C338.434144,113.943611 338.368625,113.464228 338.368625,112.944433 L338.368625,112.806841 Z M339.587297,112.944433 C339.587297,113.298243 339.623333,113.6313 339.695405,113.943613 C339.767478,114.255927 339.878861,114.527832 340.029557,114.759337 C340.180254,114.990843 340.373536,115.174297 340.609409,115.309706 C340.845283,115.445114 341.127016,115.512818 341.454617,115.512818 C341.668651,115.512818 341.861933,115.48661 342.034469,115.434194 C342.207006,115.381777 342.362069,115.309706 342.499662,115.217978 C342.637254,115.126249 342.758465,115.01705 342.863298,114.890377 C342.96813,114.763705 343.059857,114.62393 343.138482,114.471049 L343.138482,111.234361 C343.059857,111.090216 342.96813,110.955902 342.863298,110.831413 C342.758465,110.706924 342.637254,110.598818 342.499662,110.507089 C342.362069,110.415361 342.208098,110.344381 342.037745,110.294149 C341.867393,110.243917 341.677386,110.218801 341.467721,110.218801 C341.135752,110.218801 340.851835,110.287596 340.615961,110.425189 C340.380088,110.562782 340.185714,110.749512 340.032833,110.985385 C339.879952,111.221258 339.767478,111.495348 339.695405,111.807661 C339.623333,112.119975 339.587297,112.453031 339.587297,112.806841 L339.587297,112.944433 Z M345.864114,112.800289 C345.864114,112.284863 345.939461,111.807663 346.090158,111.368677 C346.240855,110.929691 346.454885,110.548587 346.732254,110.225353 C347.009623,109.902119 347.347048,109.648778 347.744538,109.465321 C348.142028,109.281864 348.58756,109.190137 349.081146,109.190137 C349.583469,109.190137 350.03446,109.281864 350.434134,109.465321 C350.833808,109.648778 351.173417,109.902119 351.45297,110.225353 C351.732524,110.548587 351.946554,110.929691 352.095066,111.368677 C352.243579,111.807663 352.317834,112.284863 352.317834,112.800289 L352.317834,112.944433 C352.317834,113.45986 352.243579,113.937059 352.095066,114.376045 C351.946554,114.815032 351.732524,115.195044 351.45297,115.516094 C351.173417,115.837143 350.8349,116.088301 350.43741,116.269574 C350.03992,116.450847 349.592205,116.541482 349.09425,116.541482 C348.596296,116.541482 348.14858,116.450847 347.75109,116.269574 C347.3536,116.088301 347.015083,115.837143 346.73553,115.516094 C346.455977,115.195044 346.240855,114.815032 346.090158,114.376045 C345.939461,113.937059 345.864114,113.45986 345.864114,112.944433 L345.864114,112.800289 Z M347.082786,112.944433 C347.082786,113.298243 347.124282,113.632392 347.207274,113.946889 C347.290266,114.261387 347.415845,114.53766 347.584014,114.775717 C347.752183,115.013775 347.961845,115.202689 348.213006,115.342466 C348.464167,115.482242 348.757912,115.55213 349.09425,115.55213 C349.42622,115.55213 349.718873,115.482242 349.972218,115.342466 C350.225564,115.202689 350.435225,115.013775 350.60121,114.775717 C350.767195,114.53766 350.892774,114.261387 350.97795,113.946889 C351.063127,113.632392 351.105714,113.298243 351.105714,112.944433 L351.105714,112.800289 C351.105714,112.450847 351.063127,112.117791 350.97795,111.801109 C350.892774,111.484428 350.766103,111.207062 350.597934,110.969005 C350.429765,110.730948 350.219012,110.540942 349.965666,110.398981 C349.712321,110.25702 349.417484,110.186041 349.081146,110.186041 C348.749176,110.186041 348.458707,110.25702 348.20973,110.398981 C347.960753,110.540942 347.752183,110.730948 347.584014,110.969005 C347.415845,111.207062 347.290266,111.484428 347.207274,111.801109 C347.124282,112.117791 347.082786,112.450847 347.082786,112.800289 L347.082786,112.944433 Z M355.482451,107.604553 L355.482451,109.321177 L356.805955,109.321177 L356.805955,110.258113 L355.482451,110.258113 L355.482451,114.654505 C355.482451,114.837962 355.504291,114.985381 355.547971,115.096765 C355.591651,115.20815 355.649526,115.294417 355.721599,115.35557 C355.793671,115.416722 355.876662,115.457125 355.970575,115.476782 C356.064487,115.496438 356.161674,115.506266 356.262139,115.506266 C356.362603,115.506266 356.468526,115.496438 356.579911,115.476782 C356.691295,115.457125 356.777563,115.440746 356.838715,115.427642 L356.838715,116.410442 C356.742618,116.43665 356.618132,116.465041 356.465251,116.495618 C356.31237,116.526194 356.126732,116.541482 355.908331,116.541482 C355.685562,116.541482 355.474808,116.509814 355.276063,116.446478 C355.077318,116.383141 354.903691,116.277218 354.755179,116.128706 C354.606666,115.980193 354.488731,115.784727 354.401371,115.542302 C354.31401,115.299876 354.270331,115.001763 354.270331,114.647953 L354.270331,110.258113 L352.979587,110.258113 L352.979587,109.321177 L354.270331,109.321177 L354.270331,107.604553 L355.482451,107.604553 Z M362.689652,109.321177 L362.728964,110.212249 C362.982309,109.893383 363.288066,109.643318 363.646244,109.462045 C364.004421,109.280772 364.406273,109.190137 364.851812,109.190137 C365.196885,109.190137 365.509194,109.237092 365.788748,109.331005 C366.068301,109.424917 366.306355,109.575612 366.502916,109.783093 C366.699477,109.990574 366.851263,110.257019 366.95828,110.582437 C367.065296,110.907855 367.118804,111.302063 367.118804,111.765073 L367.118804,116.410442 L365.906684,116.410442 L365.906684,111.751969 C365.906684,111.476784 365.876108,111.242006 365.814956,111.047629 C365.753804,110.853252 365.663168,110.694914 365.543048,110.572609 C365.422927,110.450304 365.274417,110.360761 365.097512,110.303977 C364.920607,110.247193 364.716405,110.218801 364.4849,110.218801 C364.091778,110.218801 363.746709,110.323632 363.449684,110.533297 C363.152658,110.742962 362.921156,111.018143 362.755172,111.358849 L362.755172,116.410442 L361.543051,116.410442 L361.543051,109.321177 L362.689652,109.321177 Z M371.88866,116.541482 C371.395074,116.541482 370.94845,116.456306 370.548776,116.285954 C370.149102,116.115601 369.80731,115.878639 369.523388,115.575062 C369.239467,115.271484 369.021069,114.910036 368.868188,114.490705 C368.715307,114.071375 368.638868,113.61274 368.638868,113.114785 L368.638868,112.839601 C368.638868,112.263022 368.725135,111.747603 368.897672,111.293329 C369.070209,110.839055 369.300619,110.456859 369.588908,110.146729 C369.877198,109.836599 370.206978,109.599638 370.57826,109.435837 C370.949542,109.272036 371.336106,109.190137 371.737964,109.190137 C372.244655,109.190137 372.681451,109.278588 373.048365,109.455493 C373.415278,109.632398 373.717759,109.875911 373.955817,110.186041 C374.193874,110.496171 374.369684,110.863079 374.483253,111.286777 C374.596821,111.710475 374.653605,112.171295 374.653605,112.669249 L374.653605,113.213065 L369.850988,113.213065 C369.859724,113.540667 369.913232,113.846424 370.011512,114.130345 C370.109793,114.414267 370.249567,114.661056 370.43084,114.870721 C370.612113,115.080387 370.830511,115.246369 371.08604,115.368674 C371.34157,115.490978 371.630947,115.55213 371.95418,115.55213 C372.382247,115.55213 372.744787,115.46477 373.041813,115.29005 C373.338838,115.115329 373.598731,114.883827 373.821501,114.595537 L374.561877,115.172113 C374.448308,115.346834 374.310717,115.516093 374.149101,115.679894 C373.987484,115.843694 373.79857,115.990021 373.582353,116.118878 C373.366135,116.247734 373.118254,116.350381 372.838701,116.426822 C372.559147,116.503262 372.24247,116.541482 371.88866,116.541482 Z M371.737964,110.186041 C371.493355,110.186041 371.268405,110.230813 371.063108,110.320357 C370.857811,110.409901 370.674357,110.539848 370.51274,110.710201 C370.351123,110.880554 370.216809,111.0924 370.109792,111.345745 C370.002776,111.59909 369.929612,111.88956 369.8903,112.217161 L373.441485,112.217161 L373.441485,112.125433 C373.428381,111.88956 373.390161,111.655874 373.326825,111.424369 C373.263488,111.192864 373.165209,110.985386 373.031985,110.801929 C372.89876,110.618472 372.727318,110.469962 372.517652,110.356393 C372.307987,110.242824 372.048094,110.186041 371.737964,110.186041 Z M382.332549,114.739681 L383.695366,109.321177 L384.907486,109.321177 L382.843606,116.410442 L381.860805,116.410442 L380.137629,111.037801 L378.460317,116.410442 L377.477517,116.410442 L375.420189,109.321177 L376.625757,109.321177 L378.021333,114.628297 L379.672437,109.321177 L380.648685,109.321177 L382.332549,114.739681 Z M390.267022,114.530017 C390.267022,114.398977 390.247366,114.275582 390.208054,114.159829 C390.168742,114.044077 390.091211,113.934878 389.975458,113.832229 C389.859706,113.729581 389.694815,113.634578 389.480782,113.547217 C389.266749,113.459857 388.985016,113.37905 388.635574,113.304793 C388.242452,113.221801 387.888648,113.123522 387.57415,113.009953 C387.259652,112.896385 386.992115,112.759886 386.77153,112.600453 C386.550945,112.44102 386.381686,112.252106 386.26375,112.033705 C386.145813,111.815304 386.086846,111.559779 386.086846,111.267121 C386.086846,110.987568 386.149089,110.722214 386.273578,110.471053 C386.398066,110.219892 386.573877,109.99931 386.801014,109.809301 C387.028151,109.619292 387.303332,109.468597 387.626566,109.357213 C387.9498,109.245828 388.310156,109.190137 388.707646,109.190137 C389.131344,109.190137 389.510265,109.248012 389.844418,109.363765 C390.178572,109.479518 390.462489,109.637856 390.696178,109.838785 C390.929867,110.039714 391.107862,110.274492 391.230166,110.543125 C391.352471,110.811758 391.413622,111.098952 391.413622,111.404713 L390.19495,111.404713 C390.19495,111.260568 390.162191,111.115334 390.09667,110.969005 C390.03115,110.822676 389.935055,110.691638 389.808382,110.575885 C389.68171,110.460132 389.526647,110.366221 389.34319,110.294149 C389.159733,110.222077 388.947887,110.186041 388.707646,110.186041 C388.454301,110.186041 388.239179,110.215525 388.062274,110.274493 C387.885369,110.333461 387.740135,110.412085 387.626566,110.510365 C387.512997,110.608646 387.430006,110.720028 387.37759,110.844517 C387.325174,110.969006 387.298966,111.096768 387.298966,111.227809 C387.298966,111.35885 387.320806,111.476785 387.364486,111.581617 C387.408166,111.68645 387.491157,111.781453 387.613462,111.866629 C387.735767,111.951806 387.902841,112.030429 388.11469,112.102501 C388.326539,112.174574 388.600628,112.247737 388.936966,112.321993 C389.3694,112.422458 389.745045,112.536025 390.06391,112.662697 C390.382776,112.78937 390.647037,112.936788 390.856702,113.104957 C391.066367,113.273126 391.222522,113.466408 391.32517,113.684809 C391.427819,113.90321 391.479142,114.156552 391.479142,114.444841 C391.479142,114.754971 391.414715,115.038888 391.285858,115.296602 C391.157002,115.554315 390.972456,115.774897 390.732214,115.958354 C390.491973,116.141811 390.203688,116.284861 389.86735,116.38751 C389.531012,116.490158 389.157552,116.541482 388.746958,116.541482 C388.275212,116.541482 387.859164,116.475962 387.498802,116.344922 C387.13844,116.213881 386.835959,116.040255 386.59135,115.824038 C386.346741,115.60782 386.161102,115.361031 386.03443,115.083661 C385.907757,114.806292 385.844422,114.521283 385.844422,114.228625 L387.056542,114.228625 C387.069646,114.477603 387.129705,114.686173 387.236722,114.854341 C387.343738,115.02251 387.478053,115.159009 387.63967,115.263842 C387.801287,115.368674 387.978189,115.442929 388.170382,115.48661 C388.362575,115.53029 388.554765,115.55213 388.746958,115.55213 C388.995935,115.55213 389.214333,115.525922 389.402158,115.473506 C389.589983,115.421089 389.748322,115.349018 389.877178,115.25729 C390.006035,115.165561 390.103222,115.057454 390.168742,114.932965 C390.234263,114.808477 390.267022,114.674162 390.267022,114.530017 Z M396.976271,116.410442 L396.976271,110.258113 L395.855879,110.258113 L395.855879,109.321177 L396.976271,109.321177 L396.976271,108.574249 C396.976271,108.194231 397.029778,107.856806 397.136795,107.561965 C397.243811,107.267123 397.397782,107.019242 397.598711,106.818313 C397.79964,106.617384 398.044246,106.465597 398.332535,106.362949 C398.620825,106.2603 398.946237,106.208977 399.308783,106.208977 C399.588337,106.208977 399.865702,106.246104 400.140887,106.320361 L400.075367,107.303161 C399.983639,107.285689 399.8799,107.271493 399.764147,107.260573 C399.648395,107.249653 399.533736,107.244193 399.420167,107.244193 C399.027045,107.244193 398.723472,107.358852 398.509439,107.588173 C398.295406,107.817494 398.188391,108.146183 398.188391,108.574249 L398.188391,109.321177 L399.701903,109.321177 L399.701903,110.258113 L398.188391,110.258113 L398.188391,116.410442 L396.976271,116.410442 Z M400.717463,112.800289 C400.717463,112.284863 400.792811,111.807663 400.943507,111.368677 C401.094204,110.929691 401.308234,110.548587 401.585603,110.225353 C401.862973,109.902119 402.200397,109.648778 402.597887,109.465321 C402.995377,109.281864 403.440909,109.190137 403.934496,109.190137 C404.436818,109.190137 404.88781,109.281864 405.287484,109.465321 C405.687158,109.648778 406.026766,109.902119 406.30632,110.225353 C406.585873,110.548587 406.799903,110.929691 406.948416,111.368677 C407.096929,111.807663 407.171184,112.284863 407.171184,112.800289 L407.171184,112.944433 C407.171184,113.45986 407.096929,113.937059 406.948416,114.376045 C406.799903,114.815032 406.585873,115.195044 406.30632,115.516094 C406.026766,115.837143 405.68825,116.088301 405.29076,116.269574 C404.89327,116.450847 404.445554,116.541482 403.9476,116.541482 C403.449645,116.541482 403.001929,116.450847 402.604439,116.269574 C402.206949,116.088301 401.868433,115.837143 401.588879,115.516094 C401.309326,115.195044 401.094204,114.815032 400.943507,114.376045 C400.792811,113.937059 400.717463,113.45986 400.717463,112.944433 L400.717463,112.800289 Z M401.936135,112.944433 C401.936135,113.298243 401.977631,113.632392 402.060623,113.946889 C402.143616,114.261387 402.269195,114.53766 402.437363,114.775717 C402.605532,115.013775 402.815194,115.202689 403.066356,115.342466 C403.317517,115.482242 403.611262,115.55213 403.9476,115.55213 C404.279569,115.55213 404.572222,115.482242 404.825568,115.342466 C405.078913,115.202689 405.288575,115.013775 405.45456,114.775717 C405.620545,114.53766 405.746123,114.261387 405.8313,113.946889 C405.916476,113.632392 405.959064,113.298243 405.959064,112.944433 L405.959064,112.800289 C405.959064,112.450847 405.916476,112.117791 405.8313,111.801109 C405.746123,111.484428 405.619453,111.207062 405.451284,110.969005 C405.283115,110.730948 405.072361,110.540942 404.819016,110.398981 C404.56567,110.25702 404.270833,110.186041 403.934496,110.186041 C403.602526,110.186041 403.312057,110.25702 403.06308,110.398981 C402.814102,110.540942 402.605532,110.730948 402.437363,110.969005 C402.269195,111.207062 402.143616,111.484428 402.060623,111.801109 C401.977631,112.117791 401.936135,112.450847 401.936135,112.800289 L401.936135,112.944433 Z M412.117944,110.408809 C412.013112,110.391337 411.915925,110.379325 411.82638,110.372773 C411.736836,110.366221 411.635281,110.362945 411.521712,110.362945 C411.102382,110.362945 410.76059,110.454672 410.496324,110.638129 C410.232059,110.821586 410.034409,111.068376 409.903368,111.378505 L409.903368,116.410442 L408.691248,116.410442 L408.691248,109.321177 L409.870608,109.321177 L409.890264,110.140177 C410.073721,109.84752 410.303039,109.616018 410.578224,109.445665 C410.85341,109.275312 411.187558,109.190137 411.58068,109.190137 C411.668041,109.190137 411.768504,109.199965 411.882072,109.219621 C411.995641,109.239277 412.074264,109.260025 412.117944,109.281865 L412.117944,110.408809 Z M418.873057,114.634849 L420.524161,109.321177 L421.821457,109.321177 L418.971337,117.504626 C418.905817,117.679347 418.820642,117.869353 418.715809,118.07465 C418.610977,118.279947 418.474478,118.471045 418.306309,118.64795 C418.13814,118.824855 417.936122,118.973365 417.700249,119.093486 C417.464376,119.213606 417.187011,119.273666 416.868145,119.273666 C416.820097,119.273666 416.763313,119.269298 416.697793,119.260562 C416.632273,119.251826 416.566753,119.241998 416.501233,119.231078 C416.435713,119.220158 416.374561,119.209238 416.317777,119.198318 C416.260993,119.187398 416.217313,119.17757 416.186737,119.168834 L416.186737,118.186034 C416.204209,118.190402 416.228233,118.193678 416.258809,118.195862 C416.289385,118.198046 416.321053,118.20023 416.353813,118.202414 C416.386573,118.204598 416.417149,118.206782 416.445541,118.208966 C416.473933,118.21115 416.496865,118.212242 416.514337,118.212242 C416.719634,118.212242 416.900904,118.192586 417.058153,118.153274 C417.215402,118.113962 417.355176,118.049534 417.477481,117.95999 C417.599786,117.870445 417.705709,117.751418 417.795253,117.602906 C417.884797,117.454393 417.966697,117.270939 418.040953,117.052538 L418.309585,116.331818 L415.780513,109.321177 L417.104017,109.321177 L418.873057,114.634849 Z M422.581489,112.800289 C422.581489,112.284863 422.656837,111.807663 422.807533,111.368677 C422.95823,110.929691 423.17226,110.548587 423.44963,110.225353 C423.726999,109.902119 424.064424,109.648778 424.461914,109.465321 C424.859404,109.281864 425.304935,109.190137 425.798522,109.190137 C426.300844,109.190137 426.751836,109.281864 427.15151,109.465321 C427.551184,109.648778 427.890793,109.902119 428.170346,110.225353 C428.449899,110.548587 428.663929,110.929691 428.812442,111.368677 C428.960955,111.807663 429.03521,112.284863 429.03521,112.800289 L429.03521,112.944433 C429.03521,113.45986 428.960955,113.937059 428.812442,114.376045 C428.663929,114.815032 428.449899,115.195044 428.170346,115.516094 C427.890793,115.837143 427.552276,116.088301 427.154786,116.269574 C426.757296,116.450847 426.30958,116.541482 425.811626,116.541482 C425.313671,116.541482 424.865956,116.450847 424.468466,116.269574 C424.070976,116.088301 423.732459,115.837143 423.452906,115.516094 C423.173352,115.195044 422.95823,114.815032 422.807533,114.376045 C422.656837,113.937059 422.581489,113.45986 422.581489,112.944433 L422.581489,112.800289 Z M423.800162,112.944433 C423.800162,113.298243 423.841657,113.632392 423.92465,113.946889 C424.007642,114.261387 424.133221,114.53766 424.30139,114.775717 C424.469558,115.013775 424.67922,115.202689 424.930382,115.342466 C425.181543,115.482242 425.475288,115.55213 425.811626,115.55213 C426.143595,115.55213 426.436249,115.482242 426.689594,115.342466 C426.942939,115.202689 427.152601,115.013775 427.318586,114.775717 C427.484571,114.53766 427.61015,114.261387 427.695326,113.946889 C427.780502,113.632392 427.82309,113.298243 427.82309,112.944433 L427.82309,112.800289 C427.82309,112.450847 427.780502,112.117791 427.695326,111.801109 C427.61015,111.484428 427.483479,111.207062 427.31531,110.969005 C427.147141,110.730948 426.936387,110.540942 426.683042,110.398981 C426.429697,110.25702 426.134859,110.186041 425.798522,110.186041 C425.466552,110.186041 425.176083,110.25702 424.927106,110.398981 C424.678128,110.540942 424.469558,110.730948 424.30139,110.969005 C424.133221,111.207062 424.007642,111.484428 423.92465,111.801109 C423.841657,112.117791 423.800162,112.450847 423.800162,112.800289 L423.800162,112.944433 Z M434.932011,115.709378 C434.709242,115.971459 434.427508,116.175661 434.086803,116.32199 C433.746097,116.468318 433.335509,116.541482 432.855026,116.541482 C432.505585,116.541482 432.188908,116.492342 431.904986,116.394062 C431.621065,116.295781 431.376459,116.140719 431.171162,115.92887 C430.965865,115.71702 430.807527,115.444023 430.696142,115.109869 C430.584758,114.775716 430.529066,114.372772 430.529066,113.901025 L430.529066,109.321177 L431.741186,109.321177 L431.741186,113.914129 C431.741186,114.232995 431.778314,114.496164 431.85257,114.703645 C431.926827,114.911127 432.025106,115.074925 432.14741,115.195045 C432.269715,115.315166 432.40949,115.398157 432.566738,115.444022 C432.723987,115.489886 432.885602,115.512818 433.051586,115.512818 C433.545173,115.512818 433.941565,115.418906 434.240775,115.231082 C434.539984,115.043257 434.759474,114.792099 434.899251,114.477601 L434.899251,109.321177 L436.111371,109.321177 L436.111371,116.410442 L434.958219,116.410442 L434.932011,115.709378 Z M437.978691,115.774898 C437.978691,115.565232 438.040934,115.390514 438.165423,115.250738 C438.289912,115.110961 438.476642,115.041073 438.725619,115.041073 C438.974596,115.041073 439.16351,115.110961 439.292367,115.250738 C439.421224,115.390514 439.485651,115.565232 439.485651,115.774898 C439.485651,115.975827 439.421224,116.143993 439.292367,116.279402 C439.16351,116.41481 438.974596,116.482514 438.725619,116.482514 C438.476642,116.482514 438.289912,116.41481 438.165423,116.279402 C438.040934,116.143993 437.978691,115.975827 437.978691,115.774898 Z M452.013076,113.383417 C451.96066,113.833324 451.850369,114.251555 451.6822,114.638125 C451.514031,115.024695 451.281438,115.358844 450.984412,115.640582 C450.687387,115.922319 450.324846,116.142901 449.89678,116.302334 C449.468714,116.461766 448.968583,116.541482 448.396372,116.541482 C447.832897,116.541482 447.321846,116.436651 446.863204,116.226986 C446.404562,116.017321 446.012537,115.719207 445.68712,115.332638 C445.361702,114.946068 445.110545,114.481972 444.93364,113.940337 C444.756735,113.398703 444.668284,112.793741 444.668284,112.125433 L444.668284,111.168841 C444.668284,110.500534 444.757827,109.89448 444.936916,109.350661 C445.116005,108.806842 445.37153,108.341655 445.7035,107.955085 C446.035469,107.568515 446.438413,107.26931 446.912344,107.057461 C447.386274,106.845612 447.918073,106.739689 448.507756,106.739689 C449.045023,106.739689 449.52113,106.818312 449.936092,106.975561 C450.351054,107.132809 450.703767,107.352299 450.99424,107.634037 C451.284714,107.915774 451.515123,108.252107 451.685476,108.643045 C451.855829,109.033983 451.965028,109.465319 452.013076,109.937065 L450.74854,109.937065 C450.700492,109.605095 450.626237,109.30589 450.525772,109.039441 C450.425308,108.772992 450.286625,108.545858 450.10972,108.358033 C449.932815,108.170208 449.713325,108.026065 449.451244,107.925601 C449.189163,107.825136 448.87467,107.774905 448.507756,107.774905 C448.084058,107.774905 447.71169,107.856804 447.39064,108.020605 C447.06959,108.184406 446.800961,108.413723 446.584744,108.708565 C446.368527,109.003406 446.20582,109.359395 446.09662,109.776541 C445.987419,110.193687 445.93282,110.653415 445.93282,111.155737 L445.93282,112.125433 C445.93282,112.592812 445.981959,113.031791 446.08024,113.442385 C446.17852,113.852979 446.328123,114.212244 446.529052,114.520189 C446.729981,114.828135 446.985506,115.070557 447.295636,115.247462 C447.605765,115.424366 447.972674,115.512818 448.396372,115.512818 C448.79823,115.512818 449.136747,115.46477 449.411932,115.368674 C449.687118,115.272577 449.915343,115.133894 450.096616,114.952621 C450.277889,114.771349 450.418756,114.548583 450.51922,114.284317 C450.619685,114.020052 450.696124,113.719755 450.74854,113.383417 L452.013076,113.383417 Z M454.751813,110.179489 C455.005158,109.869359 455.308731,109.626938 455.662541,109.452217 C456.016351,109.277496 456.411651,109.190137 456.848453,109.190137 C457.193527,109.190137 457.505836,109.237092 457.785389,109.331005 C458.064942,109.424917 458.302996,109.575612 458.499557,109.783093 C458.696118,109.990574 458.847905,110.257019 458.954921,110.582437 C459.061938,110.907855 459.115445,111.302063 459.115445,111.765073 L459.115445,116.410442 L457.903325,116.410442 L457.903325,111.751969 C457.903325,111.476784 457.872749,111.242006 457.811597,111.047629 C457.750445,110.853252 457.65981,110.694914 457.539689,110.572609 C457.419568,110.450304 457.271058,110.360761 457.094153,110.303977 C456.917248,110.247193 456.713046,110.218801 456.481541,110.218801 C456.088419,110.218801 455.74335,110.323632 455.446325,110.533297 C455.149299,110.742962 454.917797,111.018143 454.751813,111.358849 L454.751813,116.410442 L453.539693,116.410442 L453.539693,106.346569 L454.751813,106.346569 L454.751813,110.179489 Z M463.872198,116.541482 C463.378611,116.541482 462.931987,116.456306 462.532313,116.285954 C462.132639,116.115601 461.790847,115.878639 461.506925,115.575062 C461.223004,115.271484 461.004606,114.910036 460.851725,114.490705 C460.698844,114.071375 460.622405,113.61274 460.622405,113.114785 L460.622405,112.839601 C460.622405,112.263022 460.708672,111.747603 460.881209,111.293329 C461.053746,110.839055 461.284156,110.456859 461.572445,110.146729 C461.860735,109.836599 462.190516,109.599638 462.561797,109.435837 C462.933079,109.272036 463.319643,109.190137 463.721502,109.190137 C464.228192,109.190137 464.664988,109.278588 465.031902,109.455493 C465.398816,109.632398 465.701297,109.875911 465.939354,110.186041 C466.177411,110.496171 466.353221,110.863079 466.46679,111.286777 C466.580358,111.710475 466.637142,112.171295 466.637142,112.669249 L466.637142,113.213065 L461.834525,113.213065 C461.843261,113.540667 461.896769,113.846424 461.995049,114.130345 C462.09333,114.414267 462.233104,114.661056 462.414377,114.870721 C462.59565,115.080387 462.814048,115.246369 463.069577,115.368674 C463.325107,115.490978 463.614484,115.55213 463.937718,115.55213 C464.365784,115.55213 464.728324,115.46477 465.02535,115.29005 C465.322375,115.115329 465.582269,114.883827 465.805038,114.595537 L466.545414,115.172113 C466.431845,115.346834 466.294255,115.516093 466.132638,115.679894 C465.971021,115.843694 465.782107,115.990021 465.56589,116.118878 C465.349673,116.247734 465.101791,116.350381 464.822238,116.426822 C464.542684,116.503262 464.226007,116.541482 463.872198,116.541482 Z M463.721502,110.186041 C463.476892,110.186041 463.251943,110.230813 463.046645,110.320357 C462.841348,110.409901 462.657894,110.539848 462.496277,110.710201 C462.334661,110.880554 462.200346,111.0924 462.093329,111.345745 C461.986313,111.59909 461.91315,111.88956 461.873837,112.217161 L465.425022,112.217161 L465.425022,112.125433 C465.411918,111.88956 465.373698,111.655874 465.310362,111.424369 C465.247025,111.192864 465.148746,110.985386 465.015522,110.801929 C464.882297,110.618472 464.710855,110.469962 464.50119,110.356393 C464.291525,110.242824 464.031631,110.186041 463.721502,110.186041 Z M470.882838,115.55213 C471.096871,115.55213 471.302165,115.517186 471.498726,115.447298 C471.695287,115.377409 471.868914,115.281314 472.01961,115.159009 C472.170307,115.036705 472.29261,114.89147 472.386522,114.723301 C472.480435,114.555133 472.536126,114.37277 472.553598,114.176209 L473.700199,114.176209 C473.682726,114.490707 473.596459,114.791004 473.441394,115.077109 C473.28633,115.363215 473.082128,115.614372 472.828782,115.83059 C472.575437,116.046807 472.281692,116.219341 471.947538,116.348198 C471.613385,116.477054 471.258488,116.541482 470.882838,116.541482 C470.34994,116.541482 469.885844,116.446479 469.490538,116.25647 C469.095232,116.066461 468.766543,115.809843 468.504462,115.48661 C468.242381,115.163376 468.046915,114.787732 467.918058,114.359665 C467.789201,113.931599 467.724774,113.479516 467.724774,113.003401 L467.724774,112.728217 C467.724774,112.252103 467.789201,111.800019 467.918058,111.371953 C468.046915,110.943887 468.242381,110.568243 468.504462,110.245009 C468.766543,109.921775 469.09414,109.665158 469.487262,109.475149 C469.880384,109.28514 470.343388,109.190137 470.876286,109.190137 C471.291248,109.190137 471.667985,109.255656 472.006506,109.386697 C472.345028,109.517738 472.637681,109.697916 472.884474,109.927237 C473.131268,110.156558 473.32455,110.428463 473.464326,110.742961 C473.604103,111.057459 473.682726,111.395975 473.700199,111.758521 L472.553598,111.758521 C472.536126,111.54012 472.484803,111.335918 472.399626,111.145909 C472.31445,110.9559 472.199791,110.789918 472.055646,110.647957 C471.911502,110.505996 471.740059,110.393521 471.541314,110.310529 C471.342569,110.227537 471.120895,110.186041 470.876286,110.186041 C470.500636,110.186041 470.189419,110.260296 469.942626,110.408809 C469.695833,110.557322 469.497091,110.752788 469.346394,110.995213 C469.195697,111.237638 469.089774,111.510636 469.028622,111.814213 C468.96747,112.117791 468.936894,112.422456 468.936894,112.728217 L468.936894,113.003401 C468.936894,113.317899 468.96747,113.626932 469.028622,113.930509 C469.089774,114.234087 469.194605,114.505992 469.343118,114.746233 C469.491631,114.986475 469.690373,115.180849 469.93935,115.329362 C470.188327,115.477874 470.50282,115.55213 470.882838,115.55213 Z M477.041719,113.127889 L476.281687,113.920681 L476.281687,116.410442 L475.069567,116.410442 L475.069567,106.346569 L476.281687,106.346569 L476.281687,112.433377 L476.930335,111.653689 L479.138359,109.321177 L480.612559,109.321177 L477.854167,112.282681 L480.933607,116.410442 L479.511823,116.410442 L477.041719,113.127889 Z M486.502808,116.410442 L485.290688,116.410442 L485.290688,109.321177 L486.502808,109.321177 L486.502808,116.410442 Z M485.192408,107.440753 C485.192408,107.244192 485.252467,107.078209 485.372588,106.942801 C485.492708,106.807392 485.670703,106.739689 485.906576,106.739689 C486.142449,106.739689 486.321535,106.807392 486.44384,106.942801 C486.566144,107.078209 486.627296,107.244192 486.627296,107.440753 C486.627296,107.637314 486.566144,107.801112 486.44384,107.932153 C486.321535,108.063193 486.142449,108.128713 485.906576,108.128713 C485.670703,108.128713 485.492708,108.063193 485.372588,107.932153 C485.252467,107.801112 485.192408,107.637314 485.192408,107.440753 Z M490.086752,107.604553 L490.086752,109.321177 L491.410256,109.321177 L491.410256,110.258113 L490.086752,110.258113 L490.086752,114.654505 C490.086752,114.837962 490.108592,114.985381 490.152272,115.096765 C490.195952,115.20815 490.253828,115.294417 490.3259,115.35557 C490.397973,115.416722 490.480964,115.457125 490.574876,115.476782 C490.668789,115.496438 490.765976,115.506266 490.86644,115.506266 C490.966905,115.506266 491.072828,115.496438 491.184212,115.476782 C491.295597,115.457125 491.381864,115.440746 491.443016,115.427642 L491.443016,116.410442 C491.34692,116.43665 491.222433,116.465041 491.069552,116.495618 C490.916671,116.526194 490.731033,116.541482 490.512632,116.541482 C490.289863,116.541482 490.079109,116.509814 489.880364,116.446478 C489.681619,116.383141 489.507993,116.277218 489.35948,116.128706 C489.210967,115.980193 489.093032,115.784727 489.005672,115.542302 C488.918312,115.299876 488.874632,115.001763 488.874632,114.647953 L488.874632,110.258113 L487.583888,110.258113 L487.583888,109.321177 L488.874632,109.321177 L488.874632,107.604553 L490.086752,107.604553 Z M495.826305,112.800289 C495.826305,112.284863 495.901652,111.807663 496.052349,111.368677 C496.203045,110.929691 496.417075,110.548587 496.694445,110.225353 C496.971814,109.902119 497.309239,109.648778 497.706729,109.465321 C498.104219,109.281864 498.549751,109.190137 499.043337,109.190137 C499.54566,109.190137 499.996651,109.281864 500.396325,109.465321 C500.795999,109.648778 501.135608,109.902119 501.415161,110.225353 C501.694715,110.548587 501.908745,110.929691 502.057257,111.368677 C502.20577,111.807663 502.280025,112.284863 502.280025,112.800289 L502.280025,112.944433 C502.280025,113.45986 502.20577,113.937059 502.057257,114.376045 C501.908745,114.815032 501.694715,115.195044 501.415161,115.516094 C501.135608,115.837143 500.797091,116.088301 500.399601,116.269574 C500.002111,116.450847 499.554396,116.541482 499.056441,116.541482 C498.558486,116.541482 498.110771,116.450847 497.713281,116.269574 C497.315791,116.088301 496.977274,115.837143 496.697721,115.516094 C496.418167,115.195044 496.203045,114.815032 496.052349,114.376045 C495.901652,113.937059 495.826305,113.45986 495.826305,112.944433 L495.826305,112.800289 Z M497.044977,112.944433 C497.044977,113.298243 497.086472,113.632392 497.169465,113.946889 C497.252457,114.261387 497.378036,114.53766 497.546205,114.775717 C497.714374,115.013775 497.924036,115.202689 498.175197,115.342466 C498.426358,115.482242 498.720103,115.55213 499.056441,115.55213 C499.388411,115.55213 499.681064,115.482242 499.934409,115.342466 C500.187754,115.202689 500.397416,115.013775 500.563401,114.775717 C500.729386,114.53766 500.854965,114.261387 500.940141,113.946889 C501.025318,113.632392 501.067905,113.298243 501.067905,112.944433 L501.067905,112.800289 C501.067905,112.450847 501.025318,112.117791 500.940141,111.801109 C500.854965,111.484428 500.728294,111.207062 500.560125,110.969005 C500.391956,110.730948 500.181202,110.540942 499.927857,110.398981 C499.674512,110.25702 499.379675,110.186041 499.043337,110.186041 C498.711367,110.186041 498.420898,110.25702 498.171921,110.398981 C497.922944,110.540942 497.714374,110.730948 497.546205,110.969005 C497.378036,111.207062 497.252457,111.484428 497.169465,111.801109 C497.086472,112.117791 497.044977,112.450847 497.044977,112.800289 L497.044977,112.944433 Z M508.176826,115.709378 C507.954057,115.971459 507.672324,116.175661 507.331618,116.32199 C506.990912,116.468318 506.580324,116.541482 506.099842,116.541482 C505.7504,116.541482 505.433723,116.492342 505.149802,116.394062 C504.86588,116.295781 504.621275,116.140719 504.415978,115.92887 C504.210681,115.71702 504.052342,115.444023 503.940958,115.109869 C503.829573,114.775716 503.773881,114.372772 503.773881,113.901025 L503.773881,109.321177 L504.986002,109.321177 L504.986002,113.914129 C504.986002,114.232995 505.023129,114.496164 505.097386,114.703645 C505.171642,114.911127 505.269921,115.074925 505.392226,115.195045 C505.51453,115.315166 505.654305,115.398157 505.811554,115.444022 C505.968802,115.489886 506.130417,115.512818 506.296402,115.512818 C506.789988,115.512818 507.18638,115.418906 507.48559,115.231082 C507.784799,115.043257 508.004289,114.792099 508.144066,114.477601 L508.144066,109.321177 L509.356186,109.321177 L509.356186,116.410442 L508.203034,116.410442 L508.176826,115.709378 Z M512.84185,107.604553 L512.84185,109.321177 L514.165355,109.321177 L514.165355,110.258113 L512.84185,110.258113 L512.84185,114.654505 C512.84185,114.837962 512.86369,114.985381 512.90737,115.096765 C512.951051,115.20815 513.008926,115.294417 513.080998,115.35557 C513.153071,115.416722 513.236062,115.457125 513.329974,115.476782 C513.423887,115.496438 513.521074,115.506266 513.621538,115.506266 C513.722003,115.506266 513.827926,115.496438 513.93931,115.476782 C514.050695,115.457125 514.136962,115.440746 514.198115,115.427642 L514.198115,116.410442 C514.102018,116.43665 513.977531,116.465041 513.82465,116.495618 C513.67177,116.526194 513.486132,116.541482 513.26773,116.541482 C513.044961,116.541482 512.834207,116.509814 512.635462,116.446478 C512.436717,116.383141 512.263091,116.277218 512.114578,116.128706 C511.966066,115.980193 511.848131,115.784727 511.76077,115.542302 C511.67341,115.299876 511.62973,115.001763 511.62973,114.647953 L511.62973,110.258113 L510.338986,110.258113 L510.338986,109.321177 L511.62973,109.321177 L511.62973,107.604553 L512.84185,107.604553 Z M524.904084,112.944433 C524.904084,113.464228 524.842932,113.943611 524.720628,114.382597 C524.598323,114.821584 524.419237,115.201596 524.183364,115.522646 C523.94749,115.843695 523.659205,116.093761 523.318499,116.27285 C522.977794,116.451939 522.589046,116.541482 522.152243,116.541482 C521.684865,116.541482 521.280829,116.459582 520.940123,116.295782 C520.599417,116.131981 520.311132,115.897203 520.075259,115.591442 L520.016291,116.410442 L518.902451,116.410442 L518.902451,106.346569 L520.114571,106.346569 L520.114571,110.100865 C520.350444,109.808208 520.634361,109.583258 520.966331,109.426009 C521.298301,109.26876 521.689233,109.190137 522.139139,109.190137 C522.584678,109.190137 522.978886,109.277496 523.321775,109.452217 C523.664665,109.626938 523.95295,109.872635 524.18664,110.189317 C524.420329,110.505999 524.598323,110.886011 524.720628,111.329365 C524.842932,111.772719 524.904084,112.265207 524.904084,112.806841 L524.904084,112.944433 Z M523.691963,112.806841 C523.691963,112.453031 523.659204,112.119975 523.593683,111.807661 C523.528163,111.495348 523.42224,111.221258 523.275911,110.985385 C523.129583,110.749512 522.938485,110.562782 522.702611,110.425189 C522.466738,110.287596 522.178453,110.218801 521.837747,110.218801 C521.614978,110.218801 521.414052,110.247193 521.234963,110.303977 C521.055874,110.360761 520.895352,110.439385 520.753391,110.539849 C520.61143,110.640314 520.488036,110.758248 520.383203,110.893657 C520.278371,111.029066 520.188827,111.175392 520.114571,111.332641 L520.114571,114.398977 C520.193196,114.556226 520.286015,114.702553 520.393031,114.837961 C520.500048,114.97337 520.624534,115.091305 520.766495,115.191769 C520.908456,115.292234 521.068978,115.370857 521.248067,115.427642 C521.427156,115.484426 521.628082,115.512818 521.850851,115.512818 C522.178453,115.512818 522.458002,115.445114 522.689507,115.309706 C522.921013,115.174297 523.111019,114.990843 523.259531,114.759337 C523.408044,114.527832 523.517243,114.255927 523.587131,113.943613 C523.65702,113.6313 523.691963,113.298243 523.691963,112.944433 L523.691963,112.806841 Z M529.372548,116.541482 C528.878962,116.541482 528.432338,116.456306 528.032664,116.285954 C527.63299,116.115601 527.291197,115.878639 527.007276,115.575062 C526.723354,115.271484 526.504957,114.910036 526.352076,114.490705 C526.199195,114.071375 526.122756,113.61274 526.122756,113.114785 L526.122756,112.839601 C526.122756,112.263022 526.209023,111.747603 526.38156,111.293329 C526.554097,110.839055 526.784506,110.456859 527.072796,110.146729 C527.361085,109.836599 527.690866,109.599638 528.062148,109.435837 C528.43343,109.272036 528.819994,109.190137 529.221852,109.190137 C529.728543,109.190137 530.165338,109.278588 530.532252,109.455493 C530.899166,109.632398 531.201647,109.875911 531.439704,110.186041 C531.677761,110.496171 531.853572,110.863079 531.96714,111.286777 C532.080709,111.710475 532.137492,112.171295 532.137492,112.669249 L532.137492,113.213065 L527.334876,113.213065 C527.343612,113.540667 527.397119,113.846424 527.4954,114.130345 C527.59368,114.414267 527.733455,114.661056 527.914728,114.870721 C528.096001,115.080387 528.314399,115.246369 528.569928,115.368674 C528.825457,115.490978 529.114834,115.55213 529.438068,115.55213 C529.866134,115.55213 530.228675,115.46477 530.5257,115.29005 C530.822726,115.115329 531.082619,114.883827 531.305388,114.595537 L532.045764,115.172113 C531.932196,115.346834 531.794605,115.516093 531.632988,115.679894 C531.471371,115.843694 531.282457,115.990021 531.06624,116.118878 C530.850023,116.247734 530.602142,116.350381 530.322588,116.426822 C530.043035,116.503262 529.726358,116.541482 529.372548,116.541482 Z M529.221852,110.186041 C528.977243,110.186041 528.752293,110.230813 528.546996,110.320357 C528.341699,110.409901 528.158245,110.539848 527.996628,110.710201 C527.835011,110.880554 527.700696,111.0924 527.59368,111.345745 C527.486663,111.59909 527.4135,111.88956 527.374188,112.217161 L530.925372,112.217161 L530.925372,112.125433 C530.912268,111.88956 530.874048,111.655874 530.810712,111.424369 C530.747376,111.192864 530.649097,110.985386 530.515872,110.801929 C530.382647,110.618472 530.211205,110.469962 530.00154,110.356393 C529.791875,110.242824 529.531982,110.186041 529.221852,110.186041 Z M534.856573,116.410442 L533.644452,116.410442 L533.644452,106.346569 L534.856573,106.346569 L534.856573,116.410442 Z M536.474917,112.800289 C536.474917,112.284863 536.550264,111.807663 536.700961,111.368677 C536.851658,110.929691 537.065687,110.548587 537.343057,110.225353 C537.620426,109.902119 537.957851,109.648778 538.355341,109.465321 C538.752831,109.281864 539.198363,109.190137 539.691949,109.190137 C540.194272,109.190137 540.645263,109.281864 541.044937,109.465321 C541.444611,109.648778 541.78422,109.902119 542.063773,110.225353 C542.343327,110.548587 542.557357,110.929691 542.705869,111.368677 C542.854382,111.807663 542.928637,112.284863 542.928637,112.800289 L542.928637,112.944433 C542.928637,113.45986 542.854382,113.937059 542.705869,114.376045 C542.557357,114.815032 542.343327,115.195044 542.063773,115.516094 C541.78422,115.837143 541.445703,116.088301 541.048213,116.269574 C540.650723,116.450847 540.203008,116.541482 539.705053,116.541482 C539.207099,116.541482 538.759383,116.450847 538.361893,116.269574 C537.964403,116.088301 537.625886,115.837143 537.346333,115.516094 C537.066779,115.195044 536.851658,114.815032 536.700961,114.376045 C536.550264,113.937059 536.474917,113.45986 536.474917,112.944433 L536.474917,112.800289 Z M537.693589,112.944433 C537.693589,113.298243 537.735084,113.632392 537.818077,113.946889 C537.901069,114.261387 538.026648,114.53766 538.194817,114.775717 C538.362986,115.013775 538.572648,115.202689 538.823809,115.342466 C539.07497,115.482242 539.368715,115.55213 539.705053,115.55213 C540.037023,115.55213 540.329676,115.482242 540.583021,115.342466 C540.836366,115.202689 541.046028,115.013775 541.212013,114.775717 C541.377998,114.53766 541.503577,114.261387 541.588753,113.946889 C541.67393,113.632392 541.716517,113.298243 541.716517,112.944433 L541.716517,112.800289 C541.716517,112.450847 541.67393,112.117791 541.588753,111.801109 C541.503577,111.484428 541.376906,111.207062 541.208737,110.969005 C541.040568,110.730948 540.829814,110.540942 540.576469,110.398981 C540.323124,110.25702 540.028287,110.186041 539.691949,110.186041 C539.359979,110.186041 539.06951,110.25702 538.820533,110.398981 C538.571556,110.540942 538.362986,110.730948 538.194817,110.969005 C538.026648,111.207062 537.901069,111.484428 537.818077,111.801109 C537.735084,112.117791 537.693589,112.450847 537.693589,112.800289 L537.693589,112.944433 Z M550.725518,114.739681 L552.088334,109.321177 L553.300454,109.321177 L551.236574,116.410442 L550.253774,116.410442 L548.530598,111.037801 L546.853286,116.410442 L545.870486,116.410442 L543.813157,109.321177 L545.018726,109.321177 L546.414302,114.628297 L548.065406,109.321177 L549.041654,109.321177 L550.725518,114.739681 Z M554.558439,115.774898 C554.558439,115.565232 554.620682,115.390514 554.745171,115.250738 C554.869659,115.110961 555.056389,115.041073 555.305367,115.041073 C555.554344,115.041073 555.743258,115.110961 555.872115,115.250738 C556.000971,115.390514 556.065399,115.565232 556.065399,115.774898 C556.065399,115.975827 556.000971,116.143993 555.872115,116.279402 C555.743258,116.41481 555.554344,116.482514 555.305367,116.482514 C555.056389,116.482514 554.869659,116.41481 554.745171,116.279402 C554.620682,116.143993 554.558439,115.975827 554.558439,115.774898 Z M322.604512,150.643708 C322.552095,151.093614 322.441804,151.511846 322.273636,151.898416 C322.105467,152.284986 321.872873,152.619134 321.575847,152.900872 C321.278822,153.182609 320.916282,153.403191 320.488215,153.562624 C320.060149,153.722057 319.560018,153.801772 318.987807,153.801772 C318.424332,153.801772 317.913281,153.696941 317.454639,153.487276 C316.995997,153.277611 316.603973,152.979498 316.278555,152.592928 C315.953137,152.206358 315.70198,151.742262 315.525075,151.200628 C315.34817,150.658993 315.259719,150.054031 315.259719,149.385723 L315.259719,148.429131 C315.259719,147.760824 315.349262,147.15477 315.528351,146.610951 C315.70744,146.067132 315.962965,145.601945 316.294935,145.215375 C316.626905,144.828805 317.029849,144.5296 317.503779,144.317751 C317.977709,144.105902 318.509508,143.999979 319.099191,143.999979 C319.636458,143.999979 320.112565,144.078602 320.527527,144.235851 C320.942489,144.3931 321.295202,144.61259 321.585675,144.894327 C321.876149,145.176064 322.106559,145.512397 322.276912,145.903335 C322.447264,146.294273 322.556463,146.725609 322.604512,147.197355 L321.339975,147.197355 C321.291927,146.865386 321.217672,146.566181 321.117207,146.299731 C321.016743,146.033282 320.87806,145.806148 320.701155,145.618323 C320.52425,145.430498 320.304761,145.286356 320.042679,145.185891 C319.780598,145.085427 319.466105,145.035195 319.099191,145.035195 C318.675493,145.035195 318.303125,145.117094 317.982075,145.280895 C317.661025,145.444696 317.392396,145.674014 317.176179,145.968855 C316.959962,146.263697 316.797256,146.619685 316.688055,147.036831 C316.578854,147.453977 316.524255,147.913705 316.524255,148.416027 L316.524255,149.385723 C316.524255,149.853102 316.573394,150.292082 316.671675,150.702676 C316.769955,151.11327 316.919558,151.472534 317.120487,151.78048 C317.321416,152.088425 317.576942,152.330847 317.887071,152.507752 C318.197201,152.684657 318.564109,152.773108 318.987807,152.773108 C319.389665,152.773108 319.728182,152.72506 320.003367,152.628964 C320.278553,152.532867 320.506778,152.394185 320.688051,152.212912 C320.869324,152.031639 321.010191,151.808873 321.110655,151.544608 C321.21112,151.280342 321.287559,150.980045 321.339975,150.643708 L322.604512,150.643708 Z M325.343248,147.439779 C325.596593,147.12965 325.900166,146.887228 326.253976,146.712507 C326.607786,146.537786 327.003086,146.450427 327.439888,146.450427 C327.784962,146.450427 328.097271,146.497383 328.376824,146.591295 C328.656378,146.685208 328.894431,146.835902 329.090992,147.043383 C329.287553,147.250864 329.43934,147.51731 329.546356,147.842727 C329.653373,148.168145 329.70688,148.562353 329.70688,149.025363 L329.70688,153.670732 L328.49476,153.670732 L328.49476,149.012259 C328.49476,148.737074 328.464184,148.502296 328.403032,148.307919 C328.34188,148.113542 328.251245,147.955204 328.131124,147.832899 C328.011003,147.710595 327.862493,147.621052 327.685588,147.564267 C327.508683,147.507483 327.304481,147.479091 327.072976,147.479091 C326.679854,147.479091 326.334785,147.583922 326.03776,147.793587 C325.740734,148.003252 325.509233,148.278434 325.343248,148.619139 L325.343248,153.670732 L324.131128,153.670732 L324.131128,143.606859 L325.343248,143.606859 L325.343248,147.439779 Z M334.463633,153.801772 C333.970046,153.801772 333.523423,153.716597 333.123749,153.546244 C332.724075,153.375891 332.382282,153.138929 332.09836,152.835352 C331.814439,152.531774 331.596041,152.170326 331.44316,151.750996 C331.29028,151.331666 331.21384,150.87303 331.21384,150.375076 L331.21384,150.099892 C331.21384,149.523313 331.300108,149.007894 331.472644,148.553619 C331.645181,148.099345 331.875591,147.717149 332.16388,147.407019 C332.45217,147.09689 332.781951,146.859928 333.153233,146.696127 C333.524514,146.532326 333.911079,146.450427 334.312937,146.450427 C334.819627,146.450427 335.256423,146.538878 335.623337,146.715783 C335.990251,146.892688 336.292732,147.136202 336.530789,147.446331 C336.768846,147.756461 336.944656,148.123369 337.058225,148.547067 C337.171794,148.970766 337.228577,149.431585 337.228577,149.92954 L337.228577,150.473356 L332.425961,150.473356 C332.434697,150.800957 332.488204,151.106714 332.586485,151.390636 C332.684765,151.674557 332.82454,151.921347 333.005813,152.131012 C333.187086,152.340677 333.405483,152.506659 333.661013,152.628964 C333.916542,152.751268 334.205919,152.81242 334.529153,152.81242 C334.957219,152.81242 335.319759,152.725061 335.616785,152.55034 C335.91381,152.375619 336.173704,152.144117 336.396473,151.855828 L337.136849,152.432404 C337.02328,152.607125 336.88569,152.776383 336.724073,152.940184 C336.562456,153.103985 336.373542,153.250311 336.157325,153.379168 C335.941108,153.508025 335.693226,153.610672 335.413673,153.687112 C335.134119,153.763552 334.817443,153.801772 334.463633,153.801772 Z M334.312937,147.446331 C334.068327,147.446331 333.843378,147.491103 333.638081,147.580647 C333.432784,147.670192 333.249329,147.800138 333.087713,147.970491 C332.926096,148.140844 332.791781,148.35269 332.684765,148.606035 C332.577748,148.859381 332.504585,149.14985 332.465273,149.477451 L336.016457,149.477451 L336.016457,149.385723 C336.003353,149.14985 335.965133,148.916165 335.901797,148.684659 C335.838461,148.453154 335.740182,148.245676 335.606957,148.062219 C335.473732,147.878762 335.30229,147.730252 335.092625,147.616683 C334.88296,147.503115 334.623066,147.446331 334.312937,147.446331 Z M341.572553,153.801772 C341.078967,153.801772 340.632343,153.716597 340.232669,153.546244 C339.832995,153.375891 339.491203,153.138929 339.207281,152.835352 C338.92336,152.531774 338.704962,152.170326 338.552081,151.750996 C338.3992,151.331666 338.322761,150.87303 338.322761,150.375076 L338.322761,150.099892 C338.322761,149.523313 338.409028,149.007894 338.581565,148.553619 C338.754102,148.099345 338.984512,147.717149 339.272801,147.407019 C339.561091,147.09689 339.890871,146.859928 340.262153,146.696127 C340.633435,146.532326 341.019999,146.450427 341.421857,146.450427 C341.928548,146.450427 342.365344,146.538878 342.732258,146.715783 C343.099171,146.892688 343.401652,147.136202 343.63971,147.446331 C343.877767,147.756461 344.053577,148.123369 344.167146,148.547067 C344.280714,148.970766 344.337498,149.431585 344.337498,149.92954 L344.337498,150.473356 L339.534881,150.473356 C339.543617,150.800957 339.597125,151.106714 339.695405,151.390636 C339.793686,151.674557 339.93346,151.921347 340.114733,152.131012 C340.296006,152.340677 340.514404,152.506659 340.769933,152.628964 C341.025463,152.751268 341.31484,152.81242 341.638073,152.81242 C342.06614,152.81242 342.42868,152.725061 342.725706,152.55034 C343.022731,152.375619 343.282624,152.144117 343.505394,151.855828 L344.24577,152.432404 C344.132201,152.607125 343.99461,152.776383 343.832994,152.940184 C343.671377,153.103985 343.482463,153.250311 343.266246,153.379168 C343.050028,153.508025 342.802147,153.610672 342.522594,153.687112 C342.24304,153.763552 341.926363,153.801772 341.572553,153.801772 Z M341.421857,147.446331 C341.177248,147.446331 340.952298,147.491103 340.747001,147.580647 C340.541704,147.670192 340.35825,147.800138 340.196633,147.970491 C340.035016,148.140844 339.900702,148.35269 339.793685,148.606035 C339.686669,148.859381 339.613505,149.14985 339.574193,149.477451 L343.125378,149.477451 L343.125378,149.385723 C343.112274,149.14985 343.074054,148.916165 343.010718,148.684659 C342.947381,148.453154 342.849102,148.245676 342.715878,148.062219 C342.582653,147.878762 342.411211,147.730252 342.201545,147.616683 C341.99188,147.503115 341.731987,147.446331 341.421857,147.446331 Z M349.166322,147.669099 C349.06149,147.651627 348.964303,147.639615 348.874758,147.633063 C348.785214,147.626511 348.683659,147.623235 348.57009,147.623235 C348.15076,147.623235 347.808967,147.714962 347.544702,147.898419 C347.280437,148.081876 347.082787,148.328666 346.951746,148.638795 L346.951746,153.670732 L345.739626,153.670732 L345.739626,146.581467 L346.918986,146.581467 L346.938642,147.400467 C347.122099,147.10781 347.351417,146.876308 347.626602,146.705955 C347.901787,146.535602 348.235936,146.450427 348.629058,146.450427 C348.716419,146.450427 348.816882,146.460255 348.93045,146.479911 C349.044019,146.499567 349.122642,146.520315 349.166322,146.542155 L349.166322,147.669099 Z M354.407923,151.790308 C354.407923,151.659267 354.388267,151.535872 354.348955,151.42012 C354.309642,151.304367 354.232111,151.195168 354.116359,151.09252 C354.000606,150.989871 353.835716,150.894868 353.621683,150.807508 C353.40765,150.720147 353.125916,150.63934 352.776475,150.565084 C352.383353,150.482091 352.029548,150.383812 351.71505,150.270244 C351.400553,150.156675 351.133015,150.020176 350.91243,149.860744 C350.691845,149.701311 350.522587,149.512397 350.40465,149.293995 C350.286714,149.075594 350.227746,148.820069 350.227746,148.527411 C350.227746,148.247858 350.28999,147.982505 350.414478,147.731343 C350.538967,147.480182 350.714777,147.2596 350.941914,147.069591 C351.169052,146.879582 351.444233,146.728888 351.767466,146.617503 C352.0907,146.506119 352.451057,146.450427 352.848547,146.450427 C353.272245,146.450427 353.651165,146.508303 353.985319,146.624055 C354.319472,146.739808 354.60339,146.898146 354.837079,147.099075 C355.070768,147.300004 355.248762,147.534782 355.371067,147.803415 C355.493371,148.072049 355.554523,148.359242 355.554523,148.665003 L354.335851,148.665003 C354.335851,148.520859 354.303091,148.375624 354.237571,148.229295 C354.17205,148.082967 354.075955,147.951928 353.949283,147.836175 C353.82261,147.720423 353.667548,147.626512 353.484091,147.554439 C353.300634,147.482367 353.088788,147.446331 352.848547,147.446331 C352.595201,147.446331 352.380079,147.475815 352.203174,147.534783 C352.02627,147.593752 351.881035,147.672375 351.767466,147.770655 C351.653898,147.868936 351.570907,147.980319 351.51849,148.104807 C351.466074,148.229296 351.439866,148.357059 351.439866,148.488099 C351.439866,148.61914 351.461706,148.737075 351.505386,148.841907 C351.549067,148.94674 351.632058,149.041743 351.754362,149.126919 C351.876667,149.212096 352.043741,149.290719 352.25559,149.362791 C352.46744,149.434864 352.741529,149.508027 353.077867,149.582283 C353.510301,149.682748 353.885945,149.796315 354.204811,149.922988 C354.523676,150.04966 354.787938,150.197079 354.997603,150.365248 C355.207268,150.533416 355.363422,150.726699 355.466071,150.9451 C355.568719,151.163501 355.620043,151.416842 355.620043,151.705132 C355.620043,152.015261 355.555615,152.299178 355.426759,152.556892 C355.297902,152.814605 355.113356,153.035187 354.873115,153.218644 C354.632874,153.402101 354.344588,153.545151 354.008251,153.6478 C353.671913,153.750448 353.298453,153.801772 352.887859,153.801772 C352.416112,153.801772 352.000064,153.736253 351.639702,153.605212 C351.279341,153.474171 350.97686,153.300545 350.73225,153.084328 C350.487641,152.868111 350.302003,152.621321 350.17533,152.343952 C350.048658,152.066582 349.985322,151.781573 349.985322,151.488916 L351.197442,151.488916 C351.210546,151.737893 351.270606,151.946463 351.377622,152.114632 C351.484639,152.282801 351.618954,152.419299 351.78057,152.524132 C351.942187,152.628964 352.11909,152.70322 352.311282,152.7469 C352.503475,152.79058 352.695666,152.81242 352.887859,152.81242 C353.136836,152.81242 353.355234,152.786212 353.543059,152.733796 C353.730884,152.68138 353.889222,152.609308 354.018079,152.51758 C354.146935,152.425851 354.244122,152.317744 354.309643,152.193256 C354.375163,152.068767 354.407923,151.934452 354.407923,151.790308 Z M358.299811,153.20554 C358.299811,153.402101 358.274695,153.607395 358.224463,153.821428 C358.174231,154.035461 358.099976,154.247307 358.001695,154.456972 C357.903415,154.666637 357.784388,154.867563 357.644611,155.059756 C357.504834,155.251949 357.34322,155.422299 357.159763,155.570812 L356.471803,155.099068 C356.6771,154.810779 356.835438,154.514849 356.946823,154.211272 C357.058208,153.907694 357.113899,153.579006 357.113899,153.225196 L357.113899,152.235844 L358.299811,152.235844 L358.299811,153.20554 Z M368.61266,151.180972 L364.61594,151.180972 L363.718316,153.670732 L362.421019,153.670732 L366.063932,144.131019 L367.164668,144.131019 L370.814132,153.670732 L369.523388,153.670732 L368.61266,151.180972 Z M364.995956,150.145756 L368.239196,150.145756 L366.6143,145.683843 L364.995956,150.145756 Z M371.613476,150.067132 C371.613476,149.525497 371.680088,149.03301 371.813312,148.589655 C371.946537,148.146301 372.135451,147.766289 372.38006,147.449607 C372.62467,147.132926 372.918415,146.887228 373.261305,146.712507 C373.604194,146.537786 373.987483,146.450427 374.411181,146.450427 C374.843615,146.450427 375.221443,146.52359 375.544677,146.669919 C375.86791,146.816248 376.14746,147.027002 376.383333,147.302187 L376.383333,143.606859 L377.595453,143.606859 L377.595453,153.670732 L376.481613,153.670732 L376.422645,152.9107 C376.186772,153.198989 375.902854,153.419571 375.570885,153.572452 C375.238915,153.725333 374.847983,153.801772 374.398077,153.801772 C373.983115,153.801772 373.604194,153.712229 373.261305,153.53314 C372.918415,153.354051 372.62467,153.103985 372.38006,152.782936 C372.135451,152.461886 371.946537,152.081874 371.813312,151.642888 C371.680088,151.203901 371.613476,150.724518 371.613476,150.204724 L371.613476,150.067132 Z M372.825597,150.204724 C372.825597,150.558533 372.861632,150.89159 372.933705,151.203904 C373.005777,151.516217 373.118252,151.788123 373.271133,152.019628 C373.424013,152.251133 373.618387,152.434587 373.854261,152.569996 C374.090134,152.705404 374.371867,152.773108 374.699469,152.773108 C374.913502,152.773108 375.105692,152.747992 375.276045,152.69776 C375.446398,152.647528 375.600368,152.576548 375.737961,152.48482 C375.875554,152.393091 375.997856,152.283892 376.104873,152.15722 C376.211889,152.030547 376.304708,151.890772 376.383333,151.737892 L376.383333,148.481547 C376.304708,148.337403 376.212981,148.20418 376.108149,148.081875 C376.003316,147.959571 375.882106,147.853648 375.744513,147.764103 C375.60692,147.674559 375.45295,147.604672 375.282597,147.554439 C375.112244,147.504207 374.922238,147.479091 374.712573,147.479091 C374.380603,147.479091 374.095594,147.547887 373.857537,147.685479 C373.619479,147.823072 373.424013,148.009802 373.271133,148.245675 C373.118252,148.481549 373.005777,148.755638 372.933705,149.067951 C372.861632,149.380265 372.825597,149.713322 372.825597,150.067132 L372.825597,150.204724 Z M383.852614,153.670732 C383.808933,153.583371 383.77399,153.473081 383.747782,153.339856 C383.721573,153.206631 383.699734,153.067949 383.682262,152.923804 C383.568693,153.04174 383.44093,153.154215 383.29897,153.261232 C383.157009,153.368248 383.001946,153.462159 382.833778,153.542968 C382.665609,153.623776 382.483246,153.687112 382.286685,153.732976 C382.090124,153.77884 381.882647,153.801772 381.664245,153.801772 C381.3017,153.801772 380.973011,153.747172 380.678169,153.637972 C380.383328,153.528771 380.13217,153.380261 379.924689,153.192436 C379.717208,153.004611 379.556686,152.782937 379.443117,152.527408 C379.329549,152.271878 379.272765,151.997789 379.272765,151.705132 C379.272765,151.325114 379.34702,150.989873 379.495533,150.6994 C379.644046,150.408926 379.856984,150.165413 380.134353,149.968852 C380.411723,149.772291 380.746963,149.62378 381.140085,149.523315 C381.533207,149.422851 381.972187,149.372619 382.457037,149.372619 L383.662606,149.372619 L383.662606,148.815699 C383.662606,148.392001 383.535935,148.054577 383.28259,147.803415 C383.029244,147.552254 382.655784,147.426675 382.162197,147.426675 C381.93506,147.426675 381.727582,147.457251 381.539757,147.518403 C381.351932,147.579556 381.19141,147.661455 381.058185,147.764103 C380.924961,147.866752 380.821222,147.985779 380.746965,148.121187 C380.672709,148.256596 380.635581,148.398555 380.635581,148.547067 L379.416909,148.547067 C379.416909,148.293722 379.483521,148.042565 379.616745,147.793587 C379.74997,147.54461 379.938884,147.320752 380.183493,147.122007 C380.428102,146.923262 380.724032,146.761648 381.071289,146.637159 C381.418547,146.512671 381.806203,146.450427 382.234269,146.450427 C382.618655,146.450427 382.973552,146.499567 383.29897,146.597847 C383.624387,146.696128 383.902844,146.844638 384.13435,147.043383 C384.365855,147.242128 384.547125,147.49001 384.678166,147.787035 C384.809206,148.084061 384.874726,148.431313 384.874726,148.828803 L384.874726,152.12446 C384.874726,152.364701 384.895474,152.61695 384.93697,152.881216 C384.978466,153.145481 385.040709,153.373707 385.123702,153.5659 L385.123702,153.670732 L383.852614,153.670732 Z M381.841149,152.7469 C382.059551,152.7469 382.264844,152.716324 382.457037,152.655172 C382.64923,152.594019 382.823949,152.514304 382.981198,152.416024 C383.138446,152.317743 383.274945,152.205268 383.390698,152.078596 C383.50645,151.951923 383.597085,151.820884 383.662606,151.685476 L383.662606,150.230932 L382.653597,150.230932 C381.959082,150.230932 381.424007,150.339038 381.048357,150.555256 C380.672707,150.771473 380.484885,151.097977 380.484885,151.53478 C380.484885,151.705133 380.513277,151.864563 380.570061,152.013076 C380.626846,152.161588 380.713113,152.289351 380.828865,152.396368 C380.944618,152.503384 381.086577,152.588559 381.254745,152.651896 C381.422914,152.715232 381.61838,152.7469 381.841149,152.7469 Z"/>
    <polygon fill="#173145" fill-opacity=".08" fill-rule="nonzero" points="241 33 241.97 33 241.97 513 241 513"/>
    <path stroke="#173145" stroke-linecap="square" stroke-opacity=".03" stroke-width="1.498" d="M224.055398 276L13.9852651 276M224.055398 440L13.9852651 440M224.074995 197L14.0048617 197M224.074995 122L14.0048617 122M224.055398 357L13.9852651 357"/>
    <rect width="124.544" height="14.045" x="19.214" y="215.67" fill="#173145" fill-opacity=".08" fill-rule="nonzero" rx="2.995"/>
    <rect width="124.544" height="14.045" x="19.214" y="377.963" fill="#173145" fill-opacity=".08" fill-rule="nonzero" rx="2.995"/>
    <rect width="124.544" height="14.045" x="19.325" y="138" fill="#173145" fill-opacity=".08" fill-rule="nonzero" rx="2.995"/>
    <rect width="124.544" height="14.045" x="19.325" y="63" fill="#173145" fill-opacity=".08" fill-rule="nonzero" rx="2.995"/>
    <rect width="124.544" height="14.045" x="19.214" y="295.256" fill="#173145" fill-opacity=".08" fill-rule="nonzero" rx="2.995"/>
    <rect width="124.544" height="14.045" x="19.214" y="459.11" fill="#173145" fill-opacity=".08" fill-rule="nonzero" rx="2.995"/>
    <rect width="203.422" height="9.363" x="19.214" y="237.517" fill="#173145" fill-opacity=".08" fill-rule="nonzero" rx="2.995"/>
    <rect width="203.422" height="9.363" x="19.214" y="401.371" fill="#173145" fill-opacity=".08" fill-rule="nonzero" rx="2.995"/>
    <rect width="203.422" height="9.363" x="19.325" y="158" fill="#173145" fill-opacity=".08" fill-rule="nonzero" rx="2.995"/>
    <rect width="203.422" height="9.363" x="19.325" y="83" fill="#173145" fill-opacity=".08" fill-rule="nonzero" rx="2.995"/>
    <rect width="203.422" height="9.363" x="19.214" y="318.664" fill="#173145" fill-opacity=".08" fill-rule="nonzero" rx="2.995"/>
    <rect width="203.422" height="9.363" x="19.214" y="482.518" fill="#173145" fill-opacity=".08" fill-rule="nonzero" rx="2.995"/>
    <rect width="9.891" height="9.363" x="212.745" y="218.791" fill="#173145" fill-opacity=".08" fill-rule="nonzero" rx="2.995"/>
    <rect width="9.891" height="9.363" x="212.745" y="382.645" fill="#173145" fill-opacity=".08" fill-rule="nonzero" rx="2.995"/>
    <rect width="9.891" height="9.363" x="212.577" y="139" fill="#173145" fill-opacity=".08" fill-rule="nonzero" rx="2.995"/>
    <rect width="9.891" height="9.363" x="212.577" y="65" fill="#173145" fill-opacity=".08" fill-rule="nonzero" rx="2.995"/>
    <rect width="9.891" height="9.363" x="212.745" y="299.938" fill="#173145" fill-opacity=".08" fill-rule="nonzero" rx="2.995"/>
    <rect width="9.891" height="9.363" x="212.745" y="463.792" fill="#173145" fill-opacity=".08" fill-rule="nonzero" rx="2.995"/>
    <rect width="178.513" height="9.363" x="19.214" y="248.44" fill="#173145" fill-opacity=".08" fill-rule="nonzero" rx="2.995"/>
    <rect width="178.513" height="9.363" x="19.214" y="412.295" fill="#173145" fill-opacity=".08" fill-rule="nonzero" rx="2.995"/>
    <rect width="178.513" height="9.363" x="19.325" y="170" fill="#173145" fill-opacity=".08" fill-rule="nonzero" rx="2.995"/>
    <rect width="178.513" height="9.363" x="19.325" y="96" fill="#173145" fill-opacity=".08" fill-rule="nonzero" rx="2.995"/>
    <rect width="178.513" height="9.363" x="19.214" y="329.587" fill="#173145" fill-opacity=".08" fill-rule="nonzero" rx="2.995"/>
    <rect width="178.513" height="9.363" x="19.214" y="493.441" fill="#173145" fill-opacity=".08" fill-rule="nonzero" rx="2.995"/>
  </g>
</svg>
