<?xml version="1.0" encoding="UTF-8"?>
<svg width="808px" height="549px" viewBox="0 0 808 549" version="1.1" xmlns="http://www.w3.org/2000/svg" xmlns:xlink="http://www.w3.org/1999/xlink">
    <!-- Generator: Sketch 49.1 (51147) - http://www.bohemiancoding.com/sketch -->
    <title>Group 20</title>
    <desc>Created with Sketch.</desc>
    <defs>
        <filter x="-1.4%" y="-1.3%" width="102.8%" height="104.2%" filterUnits="objectBoundingBox" id="filter-1">
            <feOffset dx="0" dy="4" in="SourceAlpha" result="shadowOffsetOuter1"></feOffset>
            <feGaussianBlur stdDeviation="3" in="shadowOffsetOuter1" result="shadowBlurOuter1"></feGaussianBlur>
            <feColorMatrix values="0 0 0 0 0.0901960784   0 0 0 0 0.192156863   0 0 0 0 0.270588235  0 0 0 0.16 0" type="matrix" in="shadowBlurOuter1" result="shadowMatrixOuter1"></feColorMatrix>
            <feMerge>
                <feMergeNode in="shadowMatrixOuter1"></feMergeNode>
                <feMergeNode in="SourceGraphic"></feMergeNode>
            </feMerge>
        </filter>
    </defs>
    <g id="Homepage" stroke="none" stroke-width="1" fill="none" fill-rule="evenodd">
        <g id="Group-20" transform="translate(6.000000, 2.000000)">
            <g id="Group-16">
                <g id="Group-14">
                    <g id="Group-24-Copy-2" filter="url(#filter-1)" fill-rule="nonzero">
                        <rect id="bg-screen-b" fill="#FFFFFF" x="0" y="0" width="795.600075" height="536.640051" rx="5.99040057"></rect>
                        <path d="M6.60249025,0 L788.997585,0 C792.64404,-7.28954332e-16 795.600075,3.21689619 795.600075,7.18513876 L795.600075,26.9442703 L0,26.9442703 L0,7.18513876 C-4.46561905e-16,3.21689619 2.95603557,7.28954332e-16 6.60249025,0 Z" id="Shape" fill-opacity="0.08" fill="#173145"></path>
                    </g>
                    <g id="Group-40" transform="translate(282.920027, 48.360005)" fill="#1B3141">
                        <path d="M15.4280895,8.66911311 L16.4256316,8.14331506 C16.8613418,9.00818346 17.546019,9.44061118 18.4796838,9.44061118 C18.9350501,9.44061118 19.3019584,9.36526393 19.5804199,9.21456716 C19.8588813,9.06387039 19.9981099,8.81817282 19.9981099,8.47746709 C19.9981099,8.31694227 19.9678072,8.17607567 19.9072009,8.05486305 C19.8465946,7.93365043 19.7491345,7.82226753 19.6148179,7.72071102 C19.4805012,7.6191545 19.3060559,7.52497043 19.0914768,7.43815599 C18.8768977,7.35134155 18.6156393,7.26043345 18.3076937,7.16542896 C17.9440559,7.06059643 17.6049932,6.9524895 17.2904956,6.84110493 C16.975998,6.72972037 16.7008168,6.59212973 16.4649436,6.42832889 C16.2290704,6.26452806 16.0447972,6.06305605 15.9121185,5.82390684 C15.7794398,5.58475762 15.7131015,5.28828255 15.7131015,4.93447275 C15.7131015,4.61997515 15.7745259,4.33332799 15.8973765,4.07452267 C16.0202271,3.81571735 16.1938534,3.59377055 16.4182606,3.40867561 C16.6426677,3.22358066 16.911297,3.08107608 17.2241566,2.98115757 C17.5370162,2.88123906 17.8818118,2.83128055 18.2585537,2.83128055 C18.6254676,2.83128055 18.9547023,2.87304914 19.2462678,2.95658756 C19.5378333,3.04012599 19.7982727,3.15560385 20.0275939,3.3030246 C20.2569151,3.45044535 20.4551111,3.61997667 20.622188,3.81162365 C20.7892648,4.00327062 20.9301314,4.20883759 21.044792,4.4283307 L20.1307879,5.06223676 C19.9080188,4.68877086 19.6385704,4.41440858 19.3224348,4.23914169 C19.0062992,4.06387479 18.6483998,3.97624266 18.2487257,3.97624266 C17.8326716,3.97624266 17.5116268,4.04831395 17.2855816,4.19245868 C17.0595365,4.33660342 16.9465156,4.54626534 16.9465156,4.82145074 C16.9465156,4.99835564 16.9800943,5.14659317 17.0472526,5.26616778 C17.114411,5.38574239 17.2200609,5.49466831 17.3642056,5.59294881 C17.5083504,5.69122931 17.6918046,5.78049943 17.9145737,5.86076184 C18.1373428,5.94102425 18.3994202,6.02374243 18.7008138,6.10891886 C19.0480715,6.21047538 19.3764873,6.32185828 19.6860709,6.44307089 C19.9956544,6.56428351 20.2659218,6.71006407 20.4968809,6.88041694 C20.7278401,7.0507698 20.9088373,7.25715576 21.039878,7.49958099 C21.1709187,7.74200623 21.236438,8.03684331 21.236438,8.38410108 C21.236438,8.68549461 21.1725566,8.96886581 21.044792,9.23422316 C20.9170273,9.49958051 20.7343922,9.73135522 20.4968809,9.92955423 C20.2593697,10.1277532 19.9661706,10.2825427 19.6172749,10.3939273 C19.2683791,10.5053118 18.871168,10.5610033 18.4256297,10.5610033 C17.688526,10.5610033 17.0636352,10.386558 16.5509386,10.0376622 C16.038242,9.68876646 15.6639627,9.23258798 15.4280895,8.66911311 Z M22.1111301,9.13102915 C22.1111301,8.84273968 22.1750115,8.57738631 22.3027761,8.33496107 C22.4305408,8.09253584 22.6352887,7.87959795 22.9170262,7.69614101 C23.1987636,7.51268408 23.55912,7.35543764 23.9981063,7.22439697 C24.4370925,7.0933563 24.9677993,6.99016332 25.5902424,6.91481494 L25.5902424,6.75756692 C25.5902424,6.48893356 25.5198091,6.29401349 25.3789404,6.17280087 C25.2380717,6.05158825 25.0169439,5.99098285 24.7155503,5.99098285 C24.3388084,5.99098285 24.0013838,6.06633011 23.7032662,6.21702687 C23.4051487,6.36772364 23.1430713,6.53316 22.9170262,6.71334092 L22.3126041,5.94184285 C22.6008936,5.67976151 22.962888,5.45290076 23.3985982,5.26125378 C23.8343084,5.06960681 24.3306175,4.97378476 24.8875404,4.97378476 C25.2413502,4.97378476 25.5411012,5.01555334 25.7868024,5.09909177 C26.0325037,5.18263019 26.2306997,5.30711696 26.3813965,5.4725558 C26.5320933,5.63799465 26.6410192,5.84110463 26.7081775,6.08189186 C26.7753359,6.32267909 26.8089145,6.59704137 26.8089145,6.90498694 L26.8089145,9.11137315 C26.8089145,9.43242278 26.8203804,9.69695716 26.8433125,9.90498422 C26.8662447,10.1130113 26.9055563,10.2841806 26.9612486,10.4184973 L25.7130924,10.4184973 C25.6803323,10.3038367 25.6516676,10.1998247 25.6270974,10.1064582 C25.6025273,10.0130918 25.5902424,9.88942399 25.5902424,9.73545121 C25.315057,10.0171886 25.018582,10.2145657 24.7008083,10.3275883 C24.3830347,10.4406108 24.0226783,10.4971213 23.6197282,10.4971213 C23.4035111,10.4971213 23.2036771,10.4676376 23.0202202,10.4086693 C22.8367632,10.349701 22.6778788,10.2628878 22.5435621,10.1482272 C22.4092455,10.0335667 22.3035955,9.89024308 22.2266091,9.71825221 C22.1496227,9.54626133 22.1111301,9.35052227 22.1111301,9.13102915 Z M23.3248882,8.90007113 C23.3248882,9.11301221 23.3920455,9.27353462 23.5263622,9.38164317 C23.6606789,9.48975172 23.8424951,9.54380519 24.0718163,9.54380519 C24.3928659,9.54380519 24.6778751,9.48811374 24.9268524,9.37672917 C25.1758296,9.26534461 25.3969574,9.11628808 25.5902424,8.92955513 L25.5902424,7.75019502 C24.8465866,7.85175154 24.2831202,7.99507512 23.8998263,8.18017006 C23.5165323,8.365265 23.3248882,8.60522963 23.3248882,8.90007113 Z M27.5312726,5.07697877 L28.8334827,5.07697877 L30.1406069,9.01800714 L30.1602629,9.01800714 L31.457559,5.07697877 L32.6565751,5.07697877 L30.7253729,10.4283253 L29.4673888,10.4283253 L27.5312726,5.07697877 Z M33.1381471,7.75019502 C33.1381471,7.24241243 33.2184083,6.81244169 33.3789332,6.4602699 C33.539458,6.1080981 33.744206,5.82063195 33.9931832,5.59786281 C34.2421605,5.37509368 34.5173418,5.21539026 34.8187353,5.11874777 C35.1201288,5.02210528 35.408414,4.97378476 35.6835994,4.97378476 C35.9849929,4.97378476 36.276554,5.02210528 36.5582915,5.11874777 C36.8400289,5.21539026 37.0898214,5.37673166 37.3076765,5.60277682 C37.5255316,5.82882197 37.6999769,6.12611602 37.8310176,6.4946679 C37.9620583,6.86321978 38.0275776,7.31939826 38.0275776,7.86321703 L38.0275776,8.15314306 L34.3764753,8.15314306 C34.4026834,8.63799353 34.5484639,8.99097903 34.8138213,9.21211016 C35.0791787,9.43324128 35.4100514,9.54380519 35.8064494,9.54380519 C36.1537072,9.54380519 36.4395353,9.48811374 36.6639425,9.37672917 C36.8883496,9.26534461 37.1021065,9.11301211 37.3052195,8.91972713 L37.9587816,9.56346119 C37.6770442,9.87140676 37.3535424,10.1097334 36.9882665,10.2784483 C36.6229906,10.4471631 36.1979339,10.5315193 35.7130834,10.5315193 C35.3789297,10.5315193 35.0570659,10.4791038 34.7474823,10.3742713 C34.4378987,10.2694387 34.1643554,10.1048214 33.9268442,9.88041422 C33.689333,9.65600708 33.4985079,9.36772193 33.3543632,9.01555014 C33.2102184,8.66337834 33.1381471,8.24159752 33.1381471,7.75019502 Z M34.3961313,7.22931097 L36.8924435,7.22931097 C36.8170951,6.39720273 36.4108751,5.98115485 35.6737714,5.98115485 C35.5197986,5.98115485 35.374018,6.00244864 35.2364253,6.04503686 C35.0988326,6.08762507 34.9710699,6.15969636 34.8531333,6.26125288 C34.7351967,6.36280939 34.6360987,6.49221011 34.5558363,6.64945891 C34.4755739,6.80670772 34.4223394,6.9999898 34.3961313,7.22931097 Z M38.8236457,7.76002302 C38.8236457,7.29810467 38.8793371,6.89270368 38.9907217,6.5438079 C39.1021063,6.19491213 39.2560767,5.904989 39.4526377,5.67402982 C39.6491987,5.44307065 39.8883444,5.26862537 40.1700818,5.15068877 C40.4518192,5.03275217 40.7646741,4.97378476 41.1086559,4.97378476 C41.3969454,4.97378476 41.6754026,5.03111419 41.944036,5.14577477 C42.2126693,5.26043536 42.4436251,5.4275097 42.63691,5.64700282 L42.63691,2.96887257 L43.8752382,2.96887257 L43.8752382,9.11137315 C43.8752382,9.43242278 43.886704,9.69695716 43.9096362,9.90498422 C43.9325683,10.1130113 43.9751559,10.2841806 44.0374002,10.4184973 L42.7597601,10.4184973 C42.7237239,10.3431489 42.6942402,10.2374989 42.671308,10.1015442 C42.6483759,9.96558955 42.63691,9.83045589 42.63691,9.6961392 C42.4436251,9.92218435 42.2126693,10.1121905 41.944036,10.2661633 C41.6754026,10.420136 41.3396159,10.4971213 40.9366659,10.4971213 C40.6352723,10.4971213 40.3551771,10.4422488 40.0963718,10.3325023 C39.8375665,10.2227557 39.6139817,10.0540434 39.4256107,9.82636022 C39.2372398,9.59867706 39.0898212,9.31366788 38.9833507,8.97132413 C38.8768802,8.62898039 38.8236457,8.22521739 38.8236457,7.76002302 Z M40.0619738,7.78950702 C40.0619738,8.36280994 40.1741757,8.78868572 40.3985828,9.06714714 C40.62299,9.34560856 40.9366639,9.48483718 41.3396139,9.48483718 C41.5951432,9.48483718 41.8383838,9.41604186 42.069343,9.27844916 C42.3003022,9.14085646 42.4894893,8.98361002 42.63691,8.80670512 L42.63691,6.66420092 C42.4698332,6.45125983 42.2740941,6.28746145 42.049687,6.17280087 C41.8252798,6.05814029 41.6016951,6.00081085 41.3789259,6.00081085 C40.9104555,6.00081085 40.5738499,6.14986738 40.3690988,6.4479849 C40.1643478,6.74610241 40.0619738,7.19327198 40.0619738,7.78950702 Z" id="Saved-Copy" fill-opacity="0.403306159"></path>
                        <path d="M8.47121714,3.25227567 C8.79241582,2.91856276 9.32332656,2.90841797 9.65703947,3.22961664 C9.99075239,3.55081532 10.0008972,4.08172607 9.6796985,4.41543898 L3.91393795,10.4058395 C3.58402577,10.7486054 3.03536877,10.7486054 2.70545659,10.4058395 L0.23441636,7.83852502 C-0.0867823184,7.5048121 -0.0766375272,6.97390136 0.257075385,6.65270268 C0.590788298,6.331504 1.12169904,6.3416488 1.44289772,6.67536171 L3.30969727,8.61489371 L8.47121714,3.25227567 Z" id="Shape-Copy-4" fill-opacity="0.395861639" fill-rule="nonzero"></path>
                    </g>
                    <path d="M54.0180852,49.0583731 L52.9370051,49.0583731 L52.9370051,59.6922701 L54.0180852,59.6922701 L54.0180852,60.9305982 L51.344869,60.9305982 L51.344869,47.813493 L54.0180852,47.813493 L54.0180852,49.0583731 Z M62.738798,54.2868696 C62.738798,55.0119613 62.643795,55.6616949 62.453786,56.2360898 C62.263777,56.8104847 61.9962397,57.2975119 61.6511659,57.6971859 C61.3060922,58.09686 60.8911363,58.4037089 60.4062858,58.617742 C59.9214353,58.8317751 59.3841767,58.9387901 58.7944937,58.9387901 C58.2091787,58.9387901 57.674104,58.8317751 57.1892535,58.617742 C56.704403,58.4037089 56.2861712,58.09686 55.9345454,57.6971859 C55.5829196,57.2975119 55.3099223,56.8104847 55.1155453,56.2360898 C54.9211683,55.6616949 54.8239813,55.0119613 54.8239813,54.2868696 L54.8239813,53.8020216 C54.8239813,53.0769299 54.9211683,52.4261043 55.1155453,51.8495254 C55.3099223,51.2729464 55.5807356,50.7837353 55.9279934,50.3818772 C56.2752512,49.9800192 56.691299,49.6720783 57.1761495,49.4580452 C57.661,49.2440121 58.1960747,49.1369971 58.7813897,49.1369971 C59.3710727,49.1369971 59.9094233,49.2440121 60.3964578,49.4580452 C60.8834923,49.6720783 61.3006322,49.9800192 61.6478899,50.3818772 C61.9951477,50.7837353 62.263777,51.2729464 62.453786,51.8495254 C62.643795,52.4261043 62.738798,53.0769299 62.738798,53.8020216 L62.738798,54.2868696 Z M61.0811419,53.7889176 C61.0811419,53.2560189 61.0298184,52.7853715 60.9271699,52.3769614 C60.8245213,51.9685514 60.6749188,51.6267587 60.4783578,51.3515733 C60.2817968,51.0763879 60.0404672,50.867818 59.7543618,50.7258573 C59.4682563,50.5838966 59.1439355,50.5129173 58.7813897,50.5129173 C58.4275799,50.5129173 58.108719,50.5838966 57.8247976,50.7258573 C57.5408761,50.867818 57.2995465,51.0763879 57.1008015,51.3515733 C56.9020565,51.6267587 56.749178,51.9685514 56.6421615,52.3769614 C56.5351449,52.7853715 56.4816374,53.2560189 56.4816374,53.7889176 L56.4816374,54.2868696 C56.4816374,54.8197683 56.5351449,55.2915077 56.6421615,55.7021018 C56.749178,56.1126958 56.9031485,56.4566724 57.1040775,56.7340418 C57.3050065,57.0114113 57.5485201,57.2210732 57.8346256,57.3630339 C58.120731,57.5049946 58.4406839,57.5759739 58.7944937,57.5759739 C59.5283214,57.5759739 60.0928798,57.2964247 60.4881858,56.7373178 C60.8834918,56.178211 61.0811419,55.3614031 61.0811419,54.2868696 L61.0811419,53.7889176 Z M70.4439508,55.3351897 C70.4439508,55.8506163 70.3838914,56.3289076 70.2637708,56.7700779 C70.1436501,57.2112481 69.9667479,57.5923523 69.7330587,57.913402 C69.4993695,58.2344516 69.2110844,58.4856091 68.8681946,58.666882 C68.5253049,58.848155 68.1332808,58.9387901 67.6921105,58.9387901 C67.2858844,58.9387901 66.929896,58.8732707 66.6241344,58.74223 C66.3183729,58.6111894 66.0519275,58.4211833 65.8247903,58.172206 L65.8247903,61.5333823 L64.2326542,61.5333823 L64.2326542,51.7184854 L65.7003023,51.7184854 L65.7658223,52.4392054 C65.9929595,52.16402 66.2626808,51.9532661 66.5749944,51.8069374 C66.887308,51.6606086 67.2531244,51.5874454 67.6724545,51.5874454 C68.1223608,51.5874454 68.5198449,51.6748045 68.8649186,51.8495254 C69.2099924,52.0242463 69.4993695,52.2699438 69.7330587,52.5866255 C69.9667479,52.9033071 70.1436501,53.2833193 70.2637708,53.7266736 C70.3838914,54.1700278 70.4439508,54.660331 70.4439508,55.1975977 L70.4439508,55.3351897 Z M68.8583666,55.1975977 C68.8583666,54.8787321 68.8266989,54.579527 68.7633626,54.2999736 C68.7000263,54.0204202 68.6028393,53.7758146 68.4717986,53.5661495 C68.3407579,53.3564845 68.1725916,53.1915941 67.9672945,53.0714735 C67.7619975,52.9513529 67.5152079,52.8912935 67.2269185,52.8912935 C66.8774767,52.8912935 66.5891915,52.9633648 66.3620544,53.1075095 C66.1349172,53.2516542 65.955831,53.4482123 65.8247903,53.6971896 L65.8247903,56.8421499 C65.955831,57.0911271 66.1338252,57.2909611 66.3587784,57.4416579 C66.5837315,57.5923547 66.8774766,57.6677019 67.2400225,57.6677019 C67.5283119,57.6677019 67.7740095,57.6054586 67.9771225,57.4809699 C68.1802356,57.3564813 68.3473099,57.188315 68.4783506,56.9764659 C68.6093913,56.7646168 68.7054863,56.5167352 68.7666386,56.2328138 C68.8277909,55.9488924 68.8583666,55.6496873 68.8583666,55.3351897 L68.8583666,55.1975977 Z M77.9984075,55.3351897 C77.9984075,55.8506163 77.9383481,56.3289076 77.8182275,56.7700779 C77.6981069,57.2112481 77.5212046,57.5923523 77.2875154,57.913402 C77.0538262,58.2344516 76.7655411,58.4856091 76.4226513,58.666882 C76.0797616,58.848155 75.6877375,58.9387901 75.2465672,58.9387901 C74.8403412,58.9387901 74.4843527,58.8732707 74.1785911,58.74223 C73.8728296,58.6111894 73.6063842,58.4211833 73.379247,58.172206 L73.379247,61.5333823 L71.7871109,61.5333823 L71.7871109,51.7184854 L73.254759,51.7184854 L73.320279,52.4392054 C73.5474162,52.16402 73.8171375,51.9532661 74.1294511,51.8069374 C74.4417647,51.6606086 74.8075811,51.5874454 75.2269112,51.5874454 C75.6768175,51.5874454 76.0743016,51.6748045 76.4193753,51.8495254 C76.7644491,52.0242463 77.0538262,52.2699438 77.2875154,52.5866255 C77.5212046,52.9033071 77.6981069,53.2833193 77.8182275,53.7266736 C77.9383481,54.1700278 77.9984075,54.660331 77.9984075,55.1975977 L77.9984075,55.3351897 Z M76.4128233,55.1975977 C76.4128233,54.8787321 76.3811556,54.579527 76.3178193,54.2999736 C76.254483,54.0204202 76.157296,53.7758146 76.0262553,53.5661495 C75.8952146,53.3564845 75.7270483,53.1915941 75.5217513,53.0714735 C75.3164542,52.9513529 75.0696646,52.8912935 74.7813752,52.8912935 C74.4319334,52.8912935 74.1436483,52.9633648 73.9165111,53.1075095 C73.6893739,53.2516542 73.5102877,53.4482123 73.379247,53.6971896 L73.379247,56.8421499 C73.5102877,57.0911271 73.688282,57.2909611 73.9132351,57.4416579 C74.1381882,57.5923547 74.4319333,57.6677019 74.7944792,57.6677019 C75.0827687,57.6677019 75.3284662,57.6054586 75.5315793,57.4809699 C75.7346923,57.3564813 75.9017666,57.188315 76.0328073,56.9764659 C76.163848,56.7646168 76.259943,56.5167352 76.3210953,56.2328138 C76.3822476,55.9488924 76.4128233,55.6496873 76.4128233,55.3351897 L76.4128233,55.1975977 Z M81.8247758,56.5276538 L83.266216,51.7184854 L84.9631841,51.7184854 L82.1458239,59.8822781 C82.0803035,60.0613671 81.9940364,60.2546491 81.8870199,60.4621302 C81.7800033,60.6696113 81.6402287,60.8628933 81.4676918,61.0419823 C81.2951549,61.2210712 81.084401,61.3706737 80.8354238,61.4907943 C80.5864465,61.6109149 80.2894254,61.6709743 79.9443517,61.6709743 C79.808943,61.6709743 79.6746283,61.6589624 79.5414036,61.6349383 C79.408179,61.6109142 79.2869682,61.5836145 79.1777676,61.5530383 L79.1777676,60.3212622 C79.2170798,60.3299982 79.2684033,60.3354582 79.3317396,60.3376422 C79.3950759,60.3398262 79.4442154,60.3409182 79.4791596,60.3409182 C79.6757206,60.3409182 79.8471629,60.3245384 79.9934917,60.2917782 C80.1398204,60.259018 80.2675832,60.2044186 80.3767837,60.1279782 C80.4859843,60.0515378 80.5798953,59.9532588 80.6585197,59.8331381 C80.7371441,59.7130175 80.8070314,59.563415 80.8681838,59.3843261 L81.0975038,58.77499 L78.6077435,51.7184854 L80.3243677,51.7184854 L81.8247758,56.5276538 Z M85.1400882,47.813493 L87.8264084,47.813493 L87.8264084,60.9305982 L85.1400882,60.9305982 L85.1400882,59.6922701 L86.2342723,59.6922701 L86.2342723,49.0583731 L85.1400882,49.0583731 L85.1400882,47.813493 Z M99.7865109,54.7389577 L93.1112648,54.7389577 L93.1112648,53.4547655 L99.7865109,53.4547655 L99.7865109,54.7389577 Z M110.384947,56.5866218 L106.689618,56.5866218 L105.916482,58.80775 L104.193306,58.80775 L107.796906,49.2680371 L109.28421,49.2680371 L112.894363,58.80775 L111.164635,58.80775 L110.384947,56.5866218 Z M107.15481,55.2500137 L109.919755,55.2500137 L108.537282,51.2926053 L107.15481,55.2500137 Z M121.254716,55.7021018 C121.211035,56.1694801 121.101836,56.6008159 120.927116,56.9961219 C120.752395,57.3914279 120.509973,57.7332205 120.199843,58.02151 C119.889714,58.3097994 119.510794,58.5347492 119.063071,58.696366 C118.615349,58.8579829 118.098838,58.9387901 117.513523,58.9387901 C116.928208,58.9387901 116.398593,58.8328671 115.924663,58.621018 C115.450733,58.4091689 115.046697,58.1077799 114.712543,57.7168419 C114.378389,57.325904 114.121772,56.8530726 113.942683,56.2983338 C113.763594,55.743595 113.674051,55.1211611 113.674051,54.4310136 L113.674051,53.6578776 C113.674051,52.9720981 113.765778,52.3507562 113.949235,51.7938334 C114.132692,51.2369105 114.394769,50.7618952 114.735475,50.3687732 C115.076181,49.9756512 115.487861,49.6720783 115.970527,49.4580452 C116.453194,49.2440121 116.993728,49.1369971 117.592147,49.1369971 C118.15999,49.1369971 118.662305,49.2188963 119.099107,49.3826972 C119.53591,49.546498 119.906094,49.7736317 120.209671,50.0641052 C120.513249,50.3545787 120.751303,50.7007393 120.92384,51.1025973 C121.096376,51.5044554 121.206667,51.943435 121.254716,52.4195494 L119.603611,52.4195494 C119.568667,52.1181559 119.508608,51.8473426 119.423431,51.6071014 C119.338255,51.3668601 119.217044,51.1626582 119.059795,50.9944893 C118.902547,50.8263204 118.703805,50.6985577 118.463563,50.6111973 C118.223322,50.5238368 117.932853,50.4801573 117.592147,50.4801573 C117.216497,50.4801573 116.887809,50.5511366 116.606071,50.6930973 C116.324334,50.835058 116.089556,51.040352 115.901731,51.3089853 C115.713906,51.5776187 115.57304,51.9084914 115.479127,52.3016134 C115.385215,52.6947354 115.338259,53.142451 115.338259,53.6447736 L115.338259,54.4310136 C115.338259,54.9071281 115.379755,55.3395558 115.462747,55.7283098 C115.545739,56.1170637 115.674594,56.4501204 115.849315,56.7274898 C116.024036,57.0048593 116.248986,57.2199811 116.524171,57.3728619 C116.799357,57.5257427 117.129137,57.6021819 117.513523,57.6021819 C117.871701,57.6021819 118.174182,57.5606863 118.420975,57.4776939 C118.667769,57.3947015 118.871971,57.2723987 119.033587,57.1107819 C119.195204,56.9491651 119.320783,56.750423 119.410327,56.5145498 C119.499872,56.2786766 119.564299,56.0078633 119.603611,55.7021018 L121.254716,55.7021018 Z M124.884524,49.2680371 L127.636364,56.5800698 L130.381652,49.2680371 L132.524157,49.2680371 L132.524157,58.80775 L130.873052,58.80775 L130.873052,55.6627897 L131.036853,51.4564053 L128.219492,58.80775 L127.03358,58.80775 L124.222772,51.4629574 L124.386572,55.6627897 L124.386572,58.80775 L122.735468,58.80775 L122.735468,49.2680371 L124.884524,49.2680371 Z M140.058957,54.5489496 L136.140861,54.5489496 L136.140861,57.4842459 L140.720709,57.4842459 L140.720709,58.80775 L134.483205,58.80775 L134.483205,49.2680371 L140.674845,49.2680371 L140.674845,50.6046453 L136.140861,50.6046453 L136.140861,53.2385495 L140.058957,53.2385495 L140.058957,54.5489496 Z M147.161326,58.80775 L145.510222,58.80775 L145.510222,49.2680371 L147.161326,49.2680371 L147.161326,58.80775 Z M150.522502,51.7184854 L150.568366,52.5374855 C150.817344,52.2360919 151.116549,52.0024062 151.46599,51.8364214 C151.815432,51.6704365 152.20418,51.5874454 152.632247,51.5874454 C152.972952,51.5874454 153.281985,51.6344009 153.559355,51.7283134 C153.836724,51.8222259 154.073686,51.9740124 154.270247,52.1836774 C154.466808,52.3933425 154.618594,52.6663398 154.725611,53.0026775 C154.832627,53.3390152 154.886135,53.7474192 154.886135,54.2279016 L154.886135,58.80775 L153.293999,58.80775 L153.293999,54.2147976 C153.293999,53.9701884 153.266699,53.7638024 153.212099,53.5956336 C153.157498,53.4274647 153.077783,53.290966 152.972951,53.1861335 C152.868118,53.081301 152.738171,53.0059537 152.583107,52.9600895 C152.428042,52.9142253 152.250048,52.8912935 152.049119,52.8912935 C151.721517,52.8912935 151.436508,52.9699167 151.194082,53.1271655 C150.951657,53.2844143 150.758375,53.4962602 150.61423,53.7627096 L150.61423,58.80775 L149.022094,58.80775 L149.022094,51.7184854 L150.522502,51.7184854 Z M159.420119,57.6677019 C159.612312,57.6677019 159.79249,57.6382182 159.960659,57.5792499 C160.128828,57.5202816 160.275155,57.4372905 160.399643,57.3302739 C160.524132,57.2232574 160.624595,57.0954946 160.701035,56.9469819 C160.777476,56.7984691 160.820063,56.6368547 160.828799,56.4621338 L162.329207,56.4621338 C162.316103,56.8028396 162.23202,57.1238844 162.076955,57.4252779 C161.921891,57.7266715 161.714413,57.9898408 161.454515,58.214794 C161.194618,58.4397471 160.892137,58.6166494 160.547063,58.745506 C160.20199,58.8743627 159.832897,58.9387901 159.439775,58.9387901 C158.893772,58.9387901 158.418757,58.844879 158.014715,58.657054 C157.610673,58.4692291 157.27434,58.2137036 157.005707,57.89047 C156.737074,57.5672363 156.53724,57.1894081 156.406199,56.7569739 C156.275158,56.3245396 156.209639,55.8659042 156.209639,55.3810537 L156.209639,55.1517337 C156.209639,54.6668832 156.275158,54.2082478 156.406199,53.7758136 C156.53724,53.3433794 156.737074,52.9644591 157.005707,52.6390415 C157.27434,52.3136238 157.609581,52.0570063 158.011439,51.8691814 C158.413297,51.6813564 158.88722,51.5874454 159.433223,51.5874454 C159.861289,51.5874454 160.25113,51.6529647 160.602755,51.7840054 C160.954381,51.915046 161.25577,52.0985002 161.506931,52.3343734 C161.758093,52.5702466 161.954651,52.8519798 162.096611,53.1795815 C162.238572,53.5071832 162.316103,53.8675396 162.329207,54.2606616 L160.828799,54.2606616 C160.820063,54.0728367 160.781844,53.8937504 160.714139,53.7233976 C160.646435,53.5530447 160.552524,53.4045342 160.432403,53.2778615 C160.312283,53.1511889 160.167048,53.0507259 159.996695,52.9764695 C159.826342,52.9022131 159.634152,52.8650855 159.420119,52.8650855 C159.096886,52.8650855 158.83044,52.9316968 158.620775,53.0649215 C158.41111,53.1981462 158.245128,53.3717725 158.122823,53.5858056 C158.000518,53.7998386 157.916435,54.0444442 157.870571,54.3196296 C157.824707,54.594815 157.801775,54.8721803 157.801775,55.1517337 L157.801775,55.3810537 C157.801775,55.6693432 157.824707,55.9499844 157.870571,56.2229858 C157.916435,56.4959872 158.000518,56.7395008 158.122823,56.9535339 C158.245128,57.167567 158.410018,57.3401013 158.617499,57.4711419 C158.82498,57.6021826 159.092518,57.6677019 159.420119,57.6677019 Z M163.600296,58.014958 C163.600296,57.7616127 163.681103,57.5508588 163.84272,57.3826899 C164.004336,57.2145211 164.23147,57.1304379 164.524128,57.1304379 C164.821153,57.1304379 165.050471,57.2145211 165.212088,57.3826899 C165.373705,57.5508588 165.454512,57.7616127 165.454512,58.014958 C165.454512,58.2639352 165.373705,58.4703212 165.212088,58.634122 C165.050471,58.7979229 164.821153,58.8798221 164.524128,58.8798221 C164.379983,58.8798221 164.250036,58.8579823 164.134284,58.814302 C164.018531,58.7706218 163.921344,58.7094704 163.84272,58.630846 C163.764095,58.5522216 163.704036,58.4604945 163.66254,58.355662 C163.621043,58.2508295 163.600296,58.1372626 163.600296,58.014958 Z M177.512894,54.7389577 L170.837648,54.7389577 L170.837648,53.4547655 L177.512894,53.4547655 L177.512894,54.7389577 Z M184.429106,55.2631177 L184.429106,58.80775 L182.771449,58.80775 L182.771449,49.2680371 L186.420914,49.2680371 C186.975653,49.2680371 187.46814,49.3433844 187.89839,49.4940812 C188.32864,49.6447779 188.692272,49.8555318 188.989298,50.1263492 C189.286324,50.3971666 189.512365,50.7182114 189.66743,51.0894933 C189.822495,51.4607752 189.900026,51.8648112 189.900026,52.3016134 C189.900026,52.7646238 189.822495,53.1795797 189.66743,53.5464935 C189.512365,53.9134074 189.286324,54.2235323 188.989298,54.4768776 C188.692272,54.7302229 188.32864,54.924597 187.89839,55.0600057 C187.46814,55.1954144 186.975653,55.2631177 186.420914,55.2631177 L184.429106,55.2631177 Z M184.429106,53.9330616 L186.420914,53.9330616 C186.739779,53.9330616 187.013869,53.89375 187.24319,53.8151256 C187.472511,53.7365012 187.661425,53.6251183 187.809938,53.4809735 C187.958451,53.3368288 188.066558,53.1653865 188.134262,52.9666415 C188.201966,52.7678965 188.235818,52.5505906 188.235818,52.3147174 C188.235818,52.0919483 188.201966,51.8779184 188.134262,51.6726214 C188.066558,51.4673243 187.958451,51.2849621 187.809938,51.1255293 C187.661425,50.9660965 187.472511,50.8394258 187.24319,50.7455133 C187.013869,50.6516008 186.739779,50.6046453 186.420914,50.6046453 L184.429106,50.6046453 L184.429106,53.9330616 Z M194.905755,53.1730295 C194.800922,53.1555574 194.694999,53.1424536 194.587983,53.1337175 C194.480966,53.1249815 194.370675,53.1206135 194.257107,53.1206135 C193.872721,53.1206135 193.560412,53.1948688 193.32017,53.3433815 C193.079929,53.4918943 192.900843,53.6971883 192.782906,53.9592696 L192.782906,58.80775 L191.19077,58.80775 L191.19077,51.7184854 L192.710834,51.7184854 L192.750146,52.5112774 C192.929235,52.222988 193.150909,51.9969462 193.415174,51.8331454 C193.67944,51.6693446 193.990657,51.5874454 194.348835,51.5874454 C194.440563,51.5874454 194.544302,51.5972733 194.660055,51.6169294 C194.775807,51.6365855 194.85989,51.6573333 194.912307,51.6791734 L194.905755,53.1730295 Z M195.613371,55.1975977 C195.613371,54.6821711 195.688718,54.2049718 195.839415,53.7659856 C195.990111,53.3269993 196.206325,52.9458951 196.488063,52.6226615 C196.7698,52.2994278 197.113777,52.0460863 197.520003,51.8626294 C197.926229,51.6791725 198.387048,51.5874454 198.902475,51.5874454 C199.42227,51.5874454 199.887457,51.6791725 200.298051,51.8626294 C200.708645,52.0460863 201.054806,52.2994278 201.336543,52.6226615 C201.618281,52.9458951 201.833402,53.3269993 201.981915,53.7659856 C202.130428,54.2049718 202.204683,54.6821711 202.204683,55.1975977 L202.204683,55.3351897 C202.204683,55.8506163 202.130428,56.3289076 201.981915,56.7700779 C201.833402,57.2112481 201.618281,57.5923523 201.336543,57.913402 C201.054806,58.2344516 200.709737,58.4856091 200.301327,58.666882 C199.892917,58.848155 199.431006,58.9387901 198.915579,58.9387901 C198.395784,58.9387901 197.931689,58.848155 197.523279,58.666882 C197.114869,58.4856091 196.7698,58.2344516 196.488063,57.913402 C196.206325,57.5923523 195.990111,57.2112481 195.839415,56.7700779 C195.688718,56.3289076 195.613371,55.8506163 195.613371,55.3351897 L195.613371,55.1975977 Z M197.205507,55.3351897 C197.205507,55.6540553 197.238266,55.9554444 197.303787,56.2393658 C197.369307,56.5232872 197.471954,56.7711688 197.611731,56.9830179 C197.751508,57.194867 197.929502,57.3619413 198.145719,57.4842459 C198.361936,57.6065505 198.618553,57.6677019 198.915579,57.6677019 C199.208236,57.6677019 199.46267,57.6065505 199.678887,57.4842459 C199.895104,57.3619413 200.072006,57.194867 200.209599,56.9830179 C200.347192,56.7711688 200.449839,56.5232872 200.517543,56.2393658 C200.585247,55.9554444 200.619099,55.6540553 200.619099,55.3351897 L200.619099,55.1975977 C200.619099,54.8831001 200.585247,54.5849871 200.517543,54.3032496 C200.449839,54.0215122 200.3461,53.7747226 200.206323,53.5628735 C200.066546,53.3510245 199.888552,53.1817661 199.672335,53.0550935 C199.456118,52.9284209 199.1995,52.8650855 198.902475,52.8650855 C198.605449,52.8650855 198.351016,52.9284209 198.139167,53.0550935 C197.927318,53.1817661 197.751508,53.3510245 197.611731,53.5628735 C197.471954,53.7747226 197.369307,54.0215122 197.303787,54.3032496 C197.238266,54.5849871 197.205507,54.8831001 197.205507,55.1975977 L197.205507,55.3351897 Z M203.253003,55.2107017 C203.253003,54.673435 203.317431,54.1820398 203.446287,53.7365016 C203.575144,53.2909633 203.760782,52.9087671 204.003207,52.5899015 C204.245633,52.2710358 204.539378,52.0242463 204.884452,51.8495254 C205.229525,51.6748045 205.618273,51.5874454 206.050708,51.5874454 C206.44383,51.5874454 206.78999,51.6551487 207.0892,51.7905574 C207.388409,51.9259661 207.649395,52.1203401 207.872164,52.3736854 L207.872164,48.7438771 L209.4643,48.7438771 L209.4643,58.80775 L208.02286,58.80775 L207.944236,58.073926 C207.717099,58.3491114 207.447377,58.5620493 207.135064,58.712746 C206.82275,58.8634428 206.456934,58.9387901 206.037604,58.9387901 C205.609537,58.9387901 205.224065,58.848155 204.881176,58.666882 C204.538286,58.4856091 204.246725,58.2355436 204.006483,57.916678 C203.766242,57.5978123 203.580604,57.2188921 203.449563,56.7799059 C203.318523,56.3409196 203.253003,55.8637203 203.253003,55.3482937 L203.253003,55.2107017 Z M204.84514,55.3482937 C204.84514,55.6627913 204.874623,55.9587204 204.933592,56.2360898 C204.99256,56.5134592 205.086471,56.7569728 205.215328,56.9666379 C205.344184,57.1763029 205.509075,57.3411933 205.710004,57.4613139 C205.910933,57.5814345 206.155538,57.6414939 206.443828,57.6414939 C206.802005,57.6414939 207.095751,57.5617787 207.325072,57.4023459 C207.554393,57.2429131 207.736755,57.0321592 207.872164,56.7700779 L207.872164,53.7430536 C207.736755,53.4809722 207.553301,53.2734943 207.321796,53.1206135 C207.090291,52.9677327 206.802005,52.8912935 206.456932,52.8912935 C206.168642,52.8912935 205.922945,52.9524449 205.719832,53.0747495 C205.516719,53.1970541 205.350736,53.3630365 205.22188,53.5727016 C205.093023,53.7823666 204.99802,54.0280642 204.936868,54.3098016 C204.875715,54.5915391 204.84514,54.8918361 204.84514,55.2107017 L204.84514,55.3482937 Z M215.420069,58.113238 C215.197299,58.3753193 214.922118,58.5784293 214.594516,58.722574 C214.266915,58.8667188 213.878167,58.9387901 213.42826,58.9387901 C213.078819,58.9387901 212.76105,58.8896505 212.474944,58.79137 C212.188839,58.6930895 211.943141,58.5380271 211.737844,58.326178 C211.532547,58.1143289 211.373117,57.8413316 211.259548,57.5071779 C211.14598,57.1730242 211.089196,56.7722642 211.089196,56.3048858 L211.089196,51.7184854 L212.681332,51.7184854 L212.681332,56.3179898 C212.681332,56.5757031 212.711908,56.788641 212.77306,56.9568099 C212.834213,57.1249787 212.916112,57.2603854 213.01876,57.3630339 C213.121409,57.4656824 213.240436,57.5377537 213.375844,57.5792499 C213.511253,57.6207461 213.653212,57.6414939 213.801724,57.6414939 C214.212318,57.6414939 214.544283,57.5672387 214.797628,57.4187259 C215.050974,57.2702132 215.24098,57.0671032 215.367653,56.8093899 L215.367653,51.7184854 L216.959789,51.7184854 L216.959789,58.80775 L215.459381,58.80775 L215.420069,58.113238 Z M221.493773,57.6677019 C221.685966,57.6677019 221.866144,57.6382182 222.034313,57.5792499 C222.202482,57.5202816 222.348809,57.4372905 222.473297,57.3302739 C222.597786,57.2232574 222.698249,57.0954946 222.774689,56.9469819 C222.85113,56.7984691 222.893717,56.6368547 222.902453,56.4621338 L224.402861,56.4621338 C224.389757,56.8028396 224.305674,57.1238844 224.150609,57.4252779 C223.995545,57.7266715 223.788067,57.9898408 223.528169,58.214794 C223.268272,58.4397471 222.965791,58.6166494 222.620717,58.745506 C222.275643,58.8743627 221.906551,58.9387901 221.513429,58.9387901 C220.967426,58.9387901 220.492411,58.844879 220.088369,58.657054 C219.684327,58.4692291 219.347994,58.2137036 219.079361,57.89047 C218.810727,57.5672363 218.610893,57.1894081 218.479853,56.7569739 C218.348812,56.3245396 218.283293,55.8659042 218.283293,55.3810537 L218.283293,55.1517337 C218.283293,54.6668832 218.348812,54.2082478 218.479853,53.7758136 C218.610893,53.3433794 218.810727,52.9644591 219.079361,52.6390415 C219.347994,52.3136238 219.683235,52.0570063 220.085093,51.8691814 C220.486951,51.6813564 220.960874,51.5874454 221.506877,51.5874454 C221.934943,51.5874454 222.324783,51.6529647 222.676409,51.7840054 C223.028035,51.915046 223.329424,52.0985002 223.580585,52.3343734 C223.831747,52.5702466 224.028305,52.8519798 224.170265,53.1795815 C224.312226,53.5071832 224.389757,53.8675396 224.402861,54.2606616 L222.902453,54.2606616 C222.893717,54.0728367 222.855498,53.8937504 222.787793,53.7233976 C222.720089,53.5530447 222.626178,53.4045342 222.506057,53.2778615 C222.385937,53.1511889 222.240702,53.0507259 222.070349,52.9764695 C221.899996,52.9022131 221.707806,52.8650855 221.493773,52.8650855 C221.170539,52.8650855 220.904094,52.9316968 220.694429,53.0649215 C220.484764,53.1981462 220.318782,53.3717725 220.196477,53.5858056 C220.074172,53.7998386 219.990089,54.0444442 219.944225,54.3196296 C219.898361,54.594815 219.875429,54.8721803 219.875429,55.1517337 L219.875429,55.3810537 C219.875429,55.6693432 219.898361,55.9499844 219.944225,56.2229858 C219.990089,56.4959872 220.074172,56.7395008 220.196477,56.9535339 C220.318782,57.167567 220.483672,57.3401013 220.691153,57.4711419 C220.898634,57.6021826 221.166171,57.6677019 221.493773,57.6677019 Z M227.600238,49.9953092 L227.600238,51.7184854 L228.85167,51.7184854 L228.85167,52.8978455 L227.600238,52.8978455 L227.600238,56.8552539 C227.600238,57.0168707 227.617709,57.1479094 227.652654,57.2483739 C227.687598,57.3488384 227.737829,57.4263696 227.80335,57.4809699 C227.86887,57.5355702 227.946401,57.5726978 228.035946,57.5923539 C228.12549,57.61201 228.224861,57.6218379 228.334062,57.6218379 C228.443262,57.6218379 228.549185,57.614194 228.651834,57.5989059 C228.754482,57.5836179 228.834197,57.569422 228.890982,57.5563179 L228.890982,58.788094 C228.764309,58.8230382 228.616891,58.8568899 228.448722,58.8896501 C228.280553,58.9224102 228.078535,58.9387901 227.842662,58.9387901 C227.58058,58.9387901 227.337067,58.9038464 227.112114,58.833958 C226.88716,58.7640697 226.692786,58.6505028 226.528986,58.493254 C226.365185,58.3360052 226.237422,58.1307112 226.145694,57.877366 C226.053965,57.6240207 226.008102,57.3138957 226.008102,56.9469819 L226.008102,52.8978455 L224.841845,52.8978455 L224.841845,51.7184854 L226.008102,51.7184854 L226.008102,49.9953092 L227.600238,49.9953092 Z M235.220214,55.2631177 L235.220214,58.80775 L233.562558,58.80775 L233.562558,49.2680371 L237.212023,49.2680371 C237.766761,49.2680371 238.259249,49.3433844 238.689499,49.4940812 C239.119749,49.6447779 239.483381,49.8555318 239.780407,50.1263492 C240.077432,50.3971666 240.303474,50.7182114 240.458539,51.0894933 C240.613604,51.4607752 240.691135,51.8648112 240.691135,52.3016134 C240.691135,52.7646238 240.613604,53.1795797 240.458539,53.5464935 C240.303474,53.9134074 240.077432,54.2235323 239.780407,54.4768776 C239.483381,54.7302229 239.119749,54.924597 238.689499,55.0600057 C238.259249,55.1954144 237.766761,55.2631177 237.212023,55.2631177 L235.220214,55.2631177 Z M235.220214,53.9330616 L237.212023,53.9330616 C237.530888,53.9330616 237.804977,53.89375 238.034299,53.8151256 C238.26362,53.7365012 238.452534,53.6251183 238.601047,53.4809735 C238.749559,53.3368288 238.857666,53.1653865 238.925371,52.9666415 C238.993075,52.7678965 239.026927,52.5505906 239.026927,52.3147174 C239.026927,52.0919483 238.993075,51.8779184 238.925371,51.6726214 C238.857666,51.4673243 238.749559,51.2849621 238.601047,51.1255293 C238.452534,50.9660965 238.26362,50.8394258 238.034299,50.7455133 C237.804977,50.6516008 237.530888,50.6046453 237.212023,50.6046453 L235.220214,50.6046453 L235.220214,53.9330616 Z M243.678847,58.80775 L242.086711,58.80775 L242.086711,51.7184854 L243.678847,51.7184854 L243.678847,58.80775 Z M241.988431,49.8773732 C241.988431,49.632764 242.065962,49.429654 242.221027,49.2680371 C242.376092,49.1064203 242.597766,49.0256131 242.886055,49.0256131 C243.174345,49.0256131 243.39711,49.1064203 243.554359,49.2680371 C243.711608,49.429654 243.790231,49.632764 243.790231,49.8773732 C243.790231,50.1176144 243.711608,50.3174484 243.554359,50.4768813 C243.39711,50.6363141 243.174345,50.7160293 242.886055,50.7160293 C242.597766,50.7160293 242.376092,50.6363141 242.221027,50.4768813 C242.065962,50.3174484 241.988431,50.1176144 241.988431,49.8773732 Z M247.105544,58.80775 L245.513407,58.80775 L245.513407,48.7438771 L247.105544,48.7438771 L247.105544,58.80775 Z M248.540432,55.1975977 C248.540432,54.6821711 248.615779,54.2049718 248.766476,53.7659856 C248.917172,53.3269993 249.133386,52.9458951 249.415124,52.6226615 C249.696861,52.2994278 250.040838,52.0460863 250.447064,51.8626294 C250.85329,51.6791725 251.314109,51.5874454 251.829536,51.5874454 C252.349331,51.5874454 252.814518,51.6791725 253.225112,51.8626294 C253.635706,52.0460863 253.981867,52.2994278 254.263604,52.6226615 C254.545342,52.9458951 254.760463,53.3269993 254.908976,53.7659856 C255.057489,54.2049718 255.131744,54.6821711 255.131744,55.1975977 L255.131744,55.3351897 C255.131744,55.8506163 255.057489,56.3289076 254.908976,56.7700779 C254.760463,57.2112481 254.545342,57.5923523 254.263604,57.913402 C253.981867,58.2344516 253.636798,58.4856091 253.228388,58.666882 C252.819978,58.848155 252.358067,58.9387901 251.84264,58.9387901 C251.322845,58.9387901 250.85875,58.848155 250.45034,58.666882 C250.04193,58.4856091 249.696861,58.2344516 249.415124,57.913402 C249.133386,57.5923523 248.917172,57.2112481 248.766476,56.7700779 C248.615779,56.3289076 248.540432,55.8506163 248.540432,55.3351897 L248.540432,55.1975977 Z M250.132568,55.3351897 C250.132568,55.6540553 250.165327,55.9554444 250.230848,56.2393658 C250.296368,56.5232872 250.399015,56.7711688 250.538792,56.9830179 C250.678569,57.194867 250.856563,57.3619413 251.07278,57.4842459 C251.288997,57.6065505 251.545614,57.6677019 251.84264,57.6677019 C252.135297,57.6677019 252.389731,57.6065505 252.605948,57.4842459 C252.822165,57.3619413 252.999067,57.194867 253.13666,56.9830179 C253.274253,56.7711688 253.3769,56.5232872 253.444604,56.2393658 C253.512308,55.9554444 253.54616,55.6540553 253.54616,55.3351897 L253.54616,55.1975977 C253.54616,54.8831001 253.512308,54.5849871 253.444604,54.3032496 C253.3769,54.0215122 253.273161,53.7747226 253.133384,53.5628735 C252.993607,53.3510245 252.815613,53.1817661 252.599396,53.0550935 C252.383179,52.9284209 252.126561,52.8650855 251.829536,52.8650855 C251.53251,52.8650855 251.278077,52.9284209 251.066228,53.0550935 C250.854379,53.1817661 250.678569,53.3510245 250.538792,53.5628735 C250.399015,53.7747226 250.296368,54.0215122 250.230848,54.3032496 C250.165327,54.5849871 250.132568,54.8831001 250.132568,55.1975977 L250.132568,55.3351897 Z M258.473265,49.9953092 L258.473265,51.7184854 L259.724697,51.7184854 L259.724697,52.8978455 L258.473265,52.8978455 L258.473265,56.8552539 C258.473265,57.0168707 258.490736,57.1479094 258.525681,57.2483739 C258.560625,57.3488384 258.610856,57.4263696 258.676377,57.4809699 C258.741897,57.5355702 258.819428,57.5726978 258.908973,57.5923539 C258.998517,57.61201 259.097888,57.6218379 259.207089,57.6218379 C259.316289,57.6218379 259.422212,57.614194 259.524861,57.5989059 C259.627509,57.5836179 259.707224,57.569422 259.764009,57.5563179 L259.764009,58.788094 C259.637336,58.8230382 259.489918,58.8568899 259.321749,58.8896501 C259.15358,58.9224102 258.951562,58.9387901 258.715689,58.9387901 C258.453607,58.9387901 258.210094,58.9038464 257.985141,58.833958 C257.760187,58.7640697 257.565813,58.6505028 257.402012,58.493254 C257.238212,58.3360052 257.110449,58.1307112 257.01872,57.877366 C256.926992,57.6240207 256.881128,57.3138957 256.881128,56.9469819 L256.881128,52.8978455 L255.714872,52.8978455 L255.714872,51.7184854 L256.881128,51.7184854 L256.881128,49.9953092 L258.473265,49.9953092 Z" id="[Oppy]-–-ACME-Inc.-–" fill-opacity="0.801828578" fill="#173145"></path>
                    <rect id="Rectangle-11-Copy" x="27.0800027" y="43.6800041" width="20.2800019" height="20.2800019"></rect>
                    <path d="M37.1636607,58.3276006 C37.468434,58.6214991 37.3140168,59.0063674 36.8187601,59.187228 C36.3235034,59.3680886 35.6749509,59.2764533 35.3701775,58.9825548 L30.3561972,54.1474822 C30.1479382,53.9466542 30.1479382,53.693356 30.3561972,53.492528 L35.3701775,48.6574554 C35.6749509,48.3635569 36.3235034,48.2719216 36.8187601,48.4527822 C37.3140168,48.6336428 37.468434,49.0185111 37.1636607,49.3124096 L32.4892748,53.8200051 L37.1636607,58.3276006 Z" id="Shape-Copy-5" fill-opacity="0.235450634" fill="#173145" fill-rule="nonzero"></path>
                    <circle id="Oval-Copy-7" fill="#39ABBB" opacity="0.2" cx="752.040001" cy="61.0400013" r="14.0400013"></circle>
                    <path d="M745,60.8427484 C745,60.2203052 745.082718,59.6691237 745.248157,59.1891872 C745.413596,58.7092508 745.642095,58.3079447 745.93366,57.9852571 C746.225226,57.6625694 746.57084,57.4176909 746.970514,57.250614 C747.370188,57.0835372 747.804254,57 748.272724,57 C748.701882,57 749.079438,57.0565104 749.405401,57.169533 C749.731365,57.2825556 750.009822,57.44144 750.240781,57.6461911 C750.471741,57.8509421 750.662566,58.0941827 750.813263,58.3759201 C750.963959,58.6576576 751.080256,58.9705125 751.162157,59.3144942 L749.96314,59.6535603 C749.887792,59.407859 749.805074,59.1924641 749.714983,59.0073692 C749.624893,58.8222742 749.512691,58.6674848 749.378374,58.5429961 C749.244058,58.4185075 749.086811,58.3243234 748.90663,58.2604411 C748.726449,58.1965588 748.511874,58.1646181 748.262896,58.1646181 C747.630625,58.1646181 747.140049,58.3963928 746.791153,58.8599492 C746.442257,59.3235055 746.267812,59.981156 746.267812,60.8329204 C746.267812,61.7239969 746.445533,62.4045792 746.800981,62.8746876 C747.156429,63.344796 747.650281,63.5798466 748.282552,63.5798466 C748.764127,63.5798466 749.147415,63.4545409 749.432428,63.2039256 C749.717442,62.9533103 749.93038,62.5462713 750.071248,61.9827965 L751.270265,62.2530665 C751.178536,62.6232564 751.051592,62.960681 750.88943,63.2653506 C750.727267,63.5700201 750.524157,63.8296406 750.280094,64.0442197 C750.03603,64.2587988 749.747745,64.4266921 749.415229,64.5479047 C749.082714,64.6691173 748.701882,64.7297227 748.272724,64.7297227 C747.794426,64.7297227 747.354627,64.6470046 746.953315,64.4815657 C746.552003,64.3161269 746.207208,64.0712483 745.918918,63.7469226 C745.630629,63.422597 745.405406,63.018834 745.243243,62.5356215 C745.08108,62.0524091 745,61.4881237 745,60.8427484 Z M751.982795,64.5872167 L754.621613,57.108108 L755.859941,57.108108 L758.493845,64.5872167 L757.206377,64.5872167 L756.601955,62.8181766 L753.776405,62.8181766 L753.162155,64.5872167 L751.982795,64.5872167 Z M754.159697,61.7076124 L756.228491,61.7076124 L755.216207,58.6904162 L755.196551,58.6904162 L754.159697,61.7076124 Z" id="CA-Copy" fill="#39ABBB"></path>
                    <g id="Group-30-Copy" transform="translate(20.840002, 92.040009)">
                        <path d="M122.761284,0 L184.222796,0 C186.446046,-4.08404311e-16 188.248345,1.80229984 188.248345,4.02554936 L188.248345,20.2355739 C188.248345,22.4588234 186.446046,24.2611233 184.222796,24.2611233 L122.761284,24.2611233 C122.205471,24.2611233 121.754896,23.8105483 121.754896,23.2547359 L121.754896,1.00638734 C121.754896,0.45057496 122.205471,5.46190288e-16 122.761284,4.4408921e-16 Z" id="Rectangle" fill-opacity="0.4" fill="#173145"></path>
                        <path d="M130.535794,8.16032647 L130.535794,6.75688788 L137.552987,6.75688788 L137.552987,8.16032647 L134.799181,8.16032647 L134.799181,15.6964379 L133.2896,15.6964379 L133.2896,8.16032647 L130.535794,8.16032647 Z M138.761831,8.17212007 L138.761831,6.88072069 L140.283206,6.88072069 L140.283206,8.17212007 L138.761831,8.17212007 Z M138.773625,15.6964379 L138.773625,9.28661543 L140.271412,9.28661543 L140.271412,15.6964379 L138.773625,15.6964379 Z M141.993278,15.6964379 L141.993278,9.28661543 L143.479272,9.28661543 L143.479272,10.1652388 C143.73087,9.89005334 144.037501,9.65418366 144.399173,9.45762265 C144.760845,9.26106164 145.187376,9.16278261 145.678779,9.16278261 C145.946102,9.16278261 146.176075,9.18931795 146.368705,9.24238942 C146.561334,9.29546089 146.72546,9.3662218 146.861087,9.45467425 C146.996715,9.54312671 147.109735,9.65319922 147.200153,9.7848951 C147.290572,9.91659097 147.367229,10.0590956 147.430129,10.2124132 C147.685658,9.93329652 148.001134,9.68858174 148.376565,9.47826145 C148.751997,9.26794117 149.185407,9.16278261 149.67681,9.16278261 C150.329392,9.16278261 150.80408,9.33968487 151.100887,9.69349468 C151.397694,10.0473045 151.546096,10.5151127 151.546096,11.0969333 L151.546096,15.6964379 L150.060102,15.6964379 L150.060102,11.4684317 C150.060102,11.1067595 149.998186,10.8433717 149.874353,10.6782604 C149.750519,10.5131492 149.511701,10.4305948 149.157891,10.4305948 C148.851256,10.4305948 148.571161,10.5072524 148.317597,10.66057 C148.064034,10.8138876 147.795732,11.0143768 147.512684,11.2620437 L147.512684,15.6964379 L146.02669,15.6964379 L146.02669,11.4684317 C146.02669,11.1067595 145.964774,10.8433717 145.840941,10.6782604 C145.717107,10.5131492 145.478289,10.4305948 145.12448,10.4305948 C144.825707,10.4305948 144.547577,10.5072524 144.290082,10.66057 C144.032587,10.8138876 143.76232,11.0143768 143.479272,11.2620437 L143.479272,15.6964379 L141.993278,15.6964379 Z M152.790321,12.4944751 C152.790321,11.8851359 152.886634,11.369171 153.079264,10.9465649 C153.271894,10.5239587 153.517591,10.1789993 153.816364,9.91167631 C154.115137,9.64435334 154.445354,9.45270923 154.807027,9.33673824 C155.168699,9.22076724 155.514641,9.16278261 155.844863,9.16278261 C156.206536,9.16278261 156.556409,9.22076724 156.894494,9.33673824 C157.232579,9.45270923 157.53233,9.64631892 157.793756,9.91757312 C158.055182,10.1888273 158.264517,10.5455802 158.421765,10.9878425 C158.579014,11.4301047 158.657637,11.9775189 158.657637,12.6301015 L158.657637,12.9780127 L154.276314,12.9780127 C154.307764,13.5598333 154.482701,13.983416 154.80113,14.2487733 C155.119559,14.5141307 155.516606,14.6468074 155.992283,14.6468074 C156.408993,14.6468074 156.751987,14.5799776 157.021275,14.4463161 C157.290564,14.3126547 157.547072,14.1298557 157.790808,13.8979137 L158.575082,14.6703946 C158.236997,15.0399293 157.848795,15.3259213 157.410464,15.5283791 C156.972133,15.7308369 156.462065,15.8320643 155.880244,15.8320643 C155.47926,15.8320643 155.093023,15.7691658 154.721523,15.6433667 C154.350023,15.5175677 154.021771,15.3200268 153.736757,15.0507382 C153.451744,14.7814496 153.222754,14.4355075 153.04978,14.0129013 C152.876806,13.5902951 152.790321,13.0841581 152.790321,12.4944751 Z M154.299902,11.8694142 L157.295476,11.8694142 C157.205058,10.8708843 156.717594,10.3716268 155.83307,10.3716268 C155.648303,10.3716268 155.473366,10.3971793 155.308255,10.4482852 C155.143143,10.4993911 154.989828,10.5858766 154.848304,10.7077444 C154.70678,10.8296123 154.587863,10.9848931 154.491548,11.1735917 C154.395233,11.3622903 154.331351,11.5942288 154.299902,11.8694142 Z M160.025695,15.6964379 L160.025695,6.75688788 L161.523483,6.75688788 L161.523483,15.6964379 L160.025695,15.6964379 Z M163.29842,8.17212007 L163.29842,6.88072069 L164.819794,6.88072069 L164.819794,8.17212007 L163.29842,8.17212007 Z M163.310213,15.6964379 L163.310213,9.28661543 L164.808001,9.28661543 L164.808001,15.6964379 L163.310213,15.6964379 Z M166.54166,15.6964379 L166.54166,9.28661543 L168.027654,9.28661543 L168.027654,10.3126588 C168.149522,10.1750661 168.287112,10.0374754 168.44043,9.89988271 C168.593748,9.76229001 168.766719,9.63944122 168.959348,9.53133266 C169.151978,9.42322411 169.361313,9.33477298 169.587358,9.26597663 C169.813403,9.19718027 170.058118,9.16278261 170.321509,9.16278261 C170.911192,9.16278261 171.37507,9.3160979 171.713154,9.62273307 C172.051239,9.92936825 172.220279,10.399142 172.220279,11.0320685 L172.220279,15.6964379 L170.734286,15.6964379 L170.734286,11.4566381 C170.734286,11.1028283 170.657628,10.8374749 170.50431,10.66057 C170.350993,10.4836651 170.105295,10.395214 169.76721,10.395214 C169.436988,10.395214 169.133305,10.469906 168.856154,10.6192924 C168.579003,10.7686788 168.302839,10.9711336 168.027654,11.2266629 L168.027654,15.6964379 L166.54166,15.6964379 Z M173.452711,12.4944751 C173.452711,11.8851359 173.549024,11.369171 173.741654,10.9465649 C173.934284,10.5239587 174.179981,10.1789993 174.478754,9.91167631 C174.777527,9.64435334 175.107744,9.45270923 175.469417,9.33673824 C175.831089,9.22076724 176.177031,9.16278261 176.507254,9.16278261 C176.868926,9.16278261 177.218799,9.22076724 177.556884,9.33673824 C177.894969,9.45270923 178.19472,9.64631892 178.456146,9.91757312 C178.717572,10.1888273 178.926907,10.5455802 179.084155,10.9878425 C179.241404,11.4301047 179.320028,11.9775189 179.320028,12.6301015 L179.320028,12.9780127 L174.938705,12.9780127 C174.970154,13.5598333 175.145091,13.983416 175.46352,14.2487733 C175.781949,14.5141307 176.178996,14.6468074 176.654674,14.6468074 C177.071383,14.6468074 177.414377,14.5799776 177.683665,14.4463161 C177.952954,14.3126547 178.209462,14.1298557 178.453198,13.8979137 L179.237472,14.6703946 C178.899387,15.0399293 178.511185,15.3259213 178.072854,15.5283791 C177.634523,15.7308369 177.124455,15.8320643 176.542634,15.8320643 C176.14165,15.8320643 175.755413,15.7691658 175.383913,15.6433667 C175.012413,15.5175677 174.684161,15.3200268 174.399147,15.0507382 C174.114134,14.7814496 173.885144,14.4355075 173.71217,14.0129013 C173.539196,13.5902951 173.452711,13.0841581 173.452711,12.4944751 Z M174.962292,11.8694142 L177.957867,11.8694142 C177.867448,10.8708843 177.379984,10.3716268 176.49546,10.3716268 C176.310693,10.3716268 176.135756,10.3971793 175.970645,10.4482852 C175.805533,10.4993911 175.652218,10.5858766 175.510694,10.7077444 C175.36917,10.8296123 175.250253,10.9848931 175.153938,11.1735917 C175.057623,11.3622903 174.993741,11.5942288 174.962292,11.8694142 Z" id="Timeline" fill="#FFFFFF"></path>
                        <rect id="Rectangle" fill-opacity="0.08" fill="#173145" x="70.3872095" y="0" width="50.3193668" height="24.2611233" rx="1.00638734"></rect>
                        <path d="M78.6013126,11.2030757 C78.6013126,10.4561439 78.7005744,9.79472598 78.899101,9.21880222 C79.0976276,8.64287846 79.3718261,8.16131121 79.7217047,7.77408602 C80.0715833,7.38686083 80.4863208,7.09300653 80.9659297,6.8925143 C81.4455386,6.69202207 81.9664174,6.59177745 82.5285819,6.59177745 C83.0435718,6.59177745 83.4966381,6.65958999 83.8877945,6.79521708 C84.2789509,6.93084418 84.6130996,7.1215055 84.8902506,7.36720676 C85.1674017,7.61290802 85.3963918,7.90479675 85.5772279,8.24288168 C85.7580641,8.58096662 85.8976203,8.95639252 85.9959008,9.36917064 L84.5570814,9.7760499 C84.4666633,9.48120838 84.3674015,9.22273453 84.2592929,9.00062059 C84.1511844,8.77850665 84.0165421,8.59275928 83.8553621,8.44337291 C83.6941821,8.29398654 83.5054863,8.18096566 83.2892692,8.10430686 C83.0730521,8.02764807 82.815561,7.98931925 82.5167883,7.98931925 C81.7580628,7.98931925 81.1693714,8.26744891 80.7506965,8.82371656 C80.3320215,9.37998422 80.1226872,10.1691648 80.1226872,11.1912821 C80.1226872,12.260574 80.3359527,13.0772727 80.7624901,13.6414028 C81.1890275,14.2055329 81.78165,14.4875937 82.5403755,14.4875937 C83.1182649,14.4875937 83.5782107,14.3372268 83.9202269,14.0364885 C84.2622431,13.7357501 84.5177685,13.2473034 84.686811,12.5711335 L86.1256304,12.8954575 C86.0155562,13.3396854 85.8632237,13.744595 85.6686283,14.1101985 C85.4740329,14.475802 85.2303009,14.7873465 84.937425,15.0448414 C84.6445491,15.3023364 84.2986069,15.5038084 83.8995881,15.6492635 C83.5005692,15.7947187 83.0435718,15.8674451 82.5285819,15.8674451 C81.9546238,15.8674451 81.4268654,15.7681833 80.9452909,15.5696567 C80.4637164,15.3711301 80.0499617,15.0772758 79.7040143,14.688085 C79.3580669,14.2988942 79.0877996,13.8143786 78.8932042,13.2345236 C78.6986088,12.6546686 78.6013126,11.9775261 78.6013126,11.2030757 Z M87.1044993,14.1514761 C87.1044993,13.8055287 87.181157,13.4871047 87.3344746,13.1961944 C87.4877922,12.9052841 87.7334897,12.6497586 88.0715747,12.4296103 C88.4096596,12.2094619 88.8420873,12.0207662 89.3688709,11.8635174 C89.8956544,11.7062686 90.5325025,11.582437 91.2794343,11.4920189 L91.2794343,11.3033213 C91.2794343,10.9809613 91.1949144,10.7470572 91.0258719,10.601602 C90.8568294,10.4561469 90.591476,10.3834204 90.2298038,10.3834204 C89.7777135,10.3834204 89.3728038,10.4738371 89.0150628,10.6546732 C88.6573218,10.8355093 88.3428289,11.034033 88.0715747,11.2502501 L87.3462682,10.3244524 C87.6922156,10.0099548 88.1266089,9.73772184 88.6494612,9.50774546 C89.1723134,9.27776908 89.7678844,9.16278261 90.4361918,9.16278261 C90.8607636,9.16278261 91.2204648,9.21290492 91.5153064,9.31315103 C91.8101479,9.41339715 92.0479831,9.56278127 92.2288193,9.76130789 C92.4096554,9.95983451 92.5403665,10.2035665 92.6209565,10.4925112 C92.7015465,10.7814559 92.7418409,11.1106906 92.7418409,11.4802253 L92.7418409,14.1278889 C92.7418409,14.5131485 92.7556,14.8305897 92.7831185,15.0802222 C92.8106371,15.3298547 92.857811,15.5352579 92.9246417,15.6964379 L91.4268543,15.6964379 C91.3875421,15.5588452 91.3531445,15.4340308 91.3236603,15.3219911 C91.2941762,15.2099513 91.2794343,15.06155 91.2794343,14.8767826 C90.9492118,15.2148675 90.5934417,15.45172 90.2121134,15.5873471 C89.830785,15.7229742 89.3983573,15.7907867 88.9148172,15.7907867 C88.6553567,15.7907867 88.4155558,15.7554063 88.1954075,15.6846443 C87.9752592,15.6138824 87.7845978,15.5097066 87.6234178,15.3721139 C87.4622378,15.2345212 87.3354578,15.0625329 87.2430742,14.8561438 C87.1506905,14.6497547 87.1044993,14.4148679 87.1044993,14.1514761 Z M88.5610091,13.8743265 C88.5610091,14.1298558 88.6415979,14.3224827 88.802778,14.4522129 C88.963958,14.5819432 89.1821375,14.6468074 89.4573229,14.6468074 C89.8425824,14.6468074 90.1845935,14.5799776 90.4833662,14.4463161 C90.7821389,14.3126547 91.0474923,14.1337868 91.2794343,13.9097073 L91.2794343,12.4944751 C90.3870473,12.6163429 89.7108876,12.7883312 89.2509348,13.0104451 C88.7909821,13.2325591 88.5610091,13.5205166 88.5610091,13.8743265 Z M94.3339771,15.6964379 L94.3339771,9.28661543 L95.8199709,9.28661543 L95.8199709,10.336246 L95.8435582,10.336246 C96.0479816,10.0138859 96.3310252,9.73772184 96.6926975,9.50774546 C97.0543697,9.27776908 97.5398681,9.16278261 98.1492073,9.16278261 L98.2494529,9.16278261 L98.2022785,10.5249436 C98.1590351,10.5170812 98.0912225,10.5111844 97.9988389,10.5072532 C97.9064552,10.503322 97.8406082,10.5013564 97.801296,10.5013564 C97.3177559,10.5013564 96.9187431,10.6045494 96.6042455,10.8109384 C96.2897478,11.0173275 96.0283256,11.2934916 95.8199709,11.639439 L95.8199709,15.6964379 L94.3339771,15.6964379 Z M98.9629658,12.5062687 C98.9629658,11.9519666 99.0297955,11.4654854 99.163457,11.0468105 C99.2971185,10.6281355 99.4818831,10.2802278 99.7177563,10.0030767 C99.9536295,9.7259257 100.240604,9.51659137 100.578689,9.37506744 C100.916774,9.23354351 101.2922,9.16278261 101.704978,9.16278261 C102.050926,9.16278261 102.385074,9.23157793 102.707434,9.36917064 C103.029794,9.50676335 103.306941,9.70725257 103.538883,9.97064432 L103.538883,6.75688788 L105.024877,6.75688788 L105.024877,14.1278889 C105.024877,14.5131485 105.038636,14.8305897 105.066155,15.0802222 C105.093673,15.3298547 105.144778,15.5352579 105.219471,15.6964379 L103.686303,15.6964379 C103.64306,15.6060199 103.607679,15.4792399 103.580161,15.3160943 C103.552642,15.1529486 103.538883,14.9907882 103.538883,14.8296082 C103.306941,15.1008624 103.029794,15.3288697 102.707434,15.5136371 C102.385074,15.6984044 101.98213,15.7907867 101.49859,15.7907867 C101.136918,15.7907867 100.800804,15.7249398 100.490237,15.5932439 C100.179671,15.461548 99.911369,15.2590932 99.6853239,14.9858734 C99.4592787,14.7126536 99.2823765,14.3706426 99.1546118,13.9598301 C99.0268472,13.5490176 98.9629658,13.0645019 98.9629658,12.5062687 Z M100.44896,12.5416495 C100.44896,13.229613 100.583602,13.740664 100.85289,14.0748177 C101.122179,14.4089714 101.498588,14.5760458 101.982128,14.5760458 C102.288763,14.5760458 102.580652,14.4934914 102.857803,14.3283801 C103.134954,14.1632689 103.361978,13.9745731 103.538883,13.7622872 L103.538883,11.1912821 C103.338391,10.9357528 103.103504,10.7391947 102.834216,10.601602 C102.564927,10.4640093 102.296625,10.395214 102.029302,10.395214 C101.467138,10.395214 101.063211,10.5740818 100.81751,10.9318229 C100.571808,11.2895639 100.44896,11.8261674 100.44896,12.5416495 Z M106.204237,14.8119178 L107.017996,13.9097073 C107.2578,14.1180619 107.550672,14.2969298 107.896619,14.4463161 C108.242566,14.5957025 108.621923,14.6703946 109.034702,14.6703946 C109.435686,14.6703946 109.749196,14.6143755 109.975241,14.5023358 C110.201286,14.390296 110.314307,14.2006174 110.314307,13.9332945 C110.314307,13.8035642 110.275979,13.6944745 110.19932,13.606022 C110.122661,13.5175696 110.019468,13.4409119 109.889738,13.3760468 C109.760007,13.3111817 109.608658,13.2571282 109.435684,13.2138848 C109.26271,13.1706414 109.079911,13.125433 108.887282,13.0782584 C108.612096,13.0114276 108.332001,12.9377183 108.046987,12.8571283 C107.761974,12.7765383 107.502517,12.6645002 107.26861,12.5210107 C107.034702,12.3775211 106.843058,12.1888254 106.693672,11.9549178 C106.544285,11.7210102 106.469593,11.4192936 106.469593,11.0497589 C106.469593,10.766711 106.528561,10.5102027 106.646497,10.2802264 C106.764434,10.05025 106.927577,9.85270913 107.135932,9.68759788 C107.344286,9.52248664 107.593915,9.3937411 107.884825,9.30135743 C108.175736,9.20897376 108.498091,9.16278261 108.851901,9.16278261 C109.465171,9.16278261 109.974256,9.245337 110.379172,9.41044825 C110.784088,9.57555949 111.151651,9.79570452 111.481874,10.0708899 L110.774258,11.0320685 C110.65239,10.9377192 110.516765,10.8482853 110.367379,10.763764 C110.217992,10.6792428 110.062711,10.6045507 109.901531,10.5396856 C109.740351,10.4748205 109.579174,10.4246982 109.417994,10.3893172 C109.256814,10.3539362 109.103498,10.336246 108.958043,10.336246 C108.549196,10.336246 108.266153,10.3981618 108.108904,10.5219952 C107.951655,10.6458286 107.873032,10.8001267 107.873032,10.9848941 C107.873032,11.1146243 107.911361,11.2237141 107.988019,11.3121665 C108.064678,11.400619 108.164923,11.4772766 108.288756,11.5421417 C108.41259,11.6070069 108.559025,11.6610603 108.728068,11.7043038 C108.89711,11.7475472 109.079909,11.79079 109.27647,11.8340334 C109.547725,11.8969329 109.828803,11.966711 110.119713,12.0433698 C110.410623,12.1200286 110.672045,12.2291183 110.903987,12.3706423 C111.135929,12.5121662 111.328556,12.7008619 111.481874,12.9367351 C111.635192,13.1726083 111.711849,13.4772733 111.711849,13.8507393 C111.711849,14.1888242 111.642071,14.4826785 111.502513,14.732311 C111.362954,14.9819435 111.170328,15.1873466 110.924626,15.3485267 C110.678925,15.5097067 110.392933,15.6305899 110.066642,15.7111799 C109.74035,15.7917699 109.396374,15.8320643 109.034702,15.8320643 C108.437156,15.8320643 107.888759,15.7367337 107.389494,15.5460695 C106.890229,15.3554053 106.495147,15.1106905 106.204237,14.8119178 Z" id="Cards" fill-opacity="0.644644475" fill="#173145"></path>
                        <path d="M4.02554936,0 L68.182742,0 C68.7385543,-1.02101078e-16 69.1891293,0.45057496 69.1891293,1.00638734 L69.1891293,23.2547359 C69.1891293,23.8105483 68.7385543,24.2611233 68.182742,24.2611233 L4.02554936,24.2611233 C1.80229984,24.2611233 1.16044796e-15,22.4588234 8.8817842e-16,20.2355739 L0,4.02554936 C-2.72269541e-16,1.80229984 1.80229984,1.29658273e-15 4.02554936,8.8817842e-16 Z" id="Rectangle" fill-opacity="0.08" fill="#173145"></path>
                        <path d="M9.09497271,11.2266629 C9.09497271,10.4797311 9.20013128,9.8163476 9.41045156,9.23649262 C9.62077184,8.65663764 9.90676382,8.17113923 10.2684361,7.77998282 C10.6301083,7.38882641 11.0566393,7.09300653 11.5480419,6.8925143 C12.0394444,6.69202207 12.5701511,6.59177745 13.1401781,6.59177745 C13.7062738,6.59177745 14.235015,6.69202207 14.7264175,6.8925143 C15.21782,7.09300653 15.644351,7.38882641 16.0060233,7.77998282 C16.3676955,8.17113923 16.6507391,8.65663764 16.8551626,9.23649262 C17.059586,9.8163476 17.1617962,10.4797311 17.1617962,11.2266629 C17.1617962,11.977526 17.059586,12.642875 16.8551626,13.22273 C16.6507391,13.802585 16.3676955,14.2871006 16.0060233,14.6762914 C15.644351,15.0654822 15.21782,15.3613021 14.7264175,15.5637599 C14.235015,15.7662177 13.7062738,15.8674451 13.1401781,15.8674451 C12.5701511,15.8674451 12.0394444,15.7662177 11.5480419,15.5637599 C11.0566393,15.3613021 10.6301083,15.0654822 10.2684361,14.6762914 C9.90676382,14.2871006 9.62077184,13.802585 9.41045156,13.22273 C9.20013128,12.642875 9.09497271,11.977526 9.09497271,11.2266629 Z M10.6163473,11.2266629 C10.6163473,12.2841611 10.8463203,13.0939803 11.306273,13.6561448 C11.7662258,14.2183093 12.3775214,14.4993874 13.1401781,14.4993874 C13.513644,14.4993874 13.8546722,14.4276437 14.163273,14.2841541 C14.4718738,14.1406646 14.7352616,13.9293647 14.9534443,13.650248 C15.171627,13.3711314 15.340667,13.0281376 15.4605692,12.6212563 C15.5804714,12.214375 15.6404216,11.7495152 15.6404216,11.2266629 C15.6404216,10.7038106 15.5804714,10.2389508 15.4605692,9.8320695 C15.340667,9.42518821 15.171627,9.08514277 14.9534443,8.81192296 C14.7352616,8.53870316 14.4718738,8.3313344 14.163273,8.18981048 C13.8546722,8.04828655 13.513644,7.97752565 13.1401781,7.97752565 C12.3775214,7.97752565 11.7662258,8.2556553 11.306273,8.81192296 C10.8463203,9.36819062 10.6163473,10.1730959 10.6163473,11.2266629 Z M17.8517219,9.28661543 L19.4143741,9.28661543 L20.9829232,14.0158497 L21.0065104,14.0158497 L22.5632658,9.28661543 L24.0020852,9.28661543 L21.6846425,15.7082315 L20.1750615,15.7082315 L17.8517219,9.28661543 Z M24.5799717,12.4944751 C24.5799717,11.8851359 24.6762851,11.369171 24.8689149,10.9465649 C25.0615447,10.5239587 25.3072423,10.1789993 25.606015,9.91167631 C25.9047877,9.64435334 26.2350053,9.45270923 26.5966775,9.33673824 C26.9583498,9.22076724 27.304292,9.16278261 27.6345145,9.16278261 C27.9961867,9.16278261 28.3460601,9.22076724 28.684145,9.33673824 C29.02223,9.45270923 29.321981,9.64631892 29.5834072,9.91757312 C29.8448333,10.1888273 30.0541676,10.5455802 30.2114164,10.9878425 C30.3686653,11.4301047 30.4472885,11.9775189 30.4472885,12.6301015 L30.4472885,12.9780127 L26.0659655,12.9780127 C26.0974152,13.5598333 26.2723519,13.983416 26.5907807,14.2487733 C26.9092096,14.5141307 27.3062569,14.6468074 27.7819345,14.6468074 C28.1986438,14.6468074 28.5416377,14.5799776 28.8109262,14.4463161 C29.0802148,14.3126547 29.3367231,14.1298557 29.5804588,13.8979137 L30.3647333,14.6703946 C30.0266483,15.0399293 29.6384462,15.3259213 29.2001151,15.5283791 C28.761784,15.7308369 28.2517159,15.8320643 27.6698953,15.8320643 C27.2689108,15.8320643 26.8826742,15.7691658 26.5111739,15.6433667 C26.1396736,15.5175677 25.8114217,15.3200268 25.5264082,15.0507382 C25.2413947,14.7814496 25.0124046,14.4355075 24.8394309,14.0129013 C24.6664572,13.5902951 24.5799717,13.0841581 24.5799717,12.4944751 Z M26.0895527,11.8694142 L29.0851275,11.8694142 C28.9947094,10.8708843 28.5072454,10.3716268 27.6227209,10.3716268 C27.4379535,10.3716268 27.2630169,10.3971793 27.0979056,10.4482852 C26.9327944,10.4993911 26.7794791,10.5858766 26.6379551,10.7077444 C26.4964312,10.8296123 26.3775136,10.9848931 26.2811987,11.1735917 C26.1848838,11.3622903 26.1210024,11.5942288 26.0895527,11.8694142 Z M31.7504815,15.6964379 L31.7504815,9.28661543 L33.2364753,9.28661543 L33.2364753,10.336246 L33.2600625,10.336246 C33.4644859,10.0138859 33.7475295,9.73772184 34.1092018,9.50774546 C34.470874,9.27776908 34.9563725,9.16278261 35.5657116,9.16278261 L35.6659572,9.16278261 L35.6187828,10.5249436 C35.5755394,10.5170812 35.5077268,10.5111844 35.4153432,10.5072532 C35.3229595,10.503322 35.2571125,10.5013564 35.2178003,10.5013564 C34.7342603,10.5013564 34.3352474,10.6045494 34.0207498,10.8109384 C33.7062522,11.0173275 33.4448299,11.2934916 33.2364753,11.639439 L33.2364753,15.6964379 L31.7504815,15.6964379 Z M36.0020748,9.28661543 L37.5647271,9.28661543 L39.1332761,14.0158497 L39.1568633,14.0158497 L40.7136187,9.28661543 L42.1524381,9.28661543 L39.8349954,15.7082315 L38.3254144,15.7082315 L36.0020748,9.28661543 Z M43.1431006,8.17212007 L43.1431006,6.88072069 L44.6644752,6.88072069 L44.6644752,8.17212007 L43.1431006,8.17212007 Z M43.1548942,15.6964379 L43.1548942,9.28661543 L44.6526816,9.28661543 L44.6526816,15.6964379 L43.1548942,15.6964379 Z M46.0148426,12.4944751 C46.0148426,11.8851359 46.1111561,11.369171 46.3037859,10.9465649 C46.4964157,10.5239587 46.7421132,10.1789993 47.040886,9.91167631 C47.3396587,9.64435334 47.6698763,9.45270923 48.0315485,9.33673824 C48.3932208,9.22076724 48.739163,9.16278261 49.0693855,9.16278261 C49.4310577,9.16278261 49.7809311,9.22076724 50.119016,9.33673824 C50.4571009,9.45270923 50.756852,9.64631892 51.0182781,9.91757312 C51.2797043,10.1888273 51.4890386,10.5455802 51.6462874,10.9878425 C51.8035362,11.4301047 51.8821594,11.9775189 51.8821594,12.6301015 L51.8821594,12.9780127 L47.5008364,12.9780127 C47.5322862,13.5598333 47.7072229,13.983416 48.0256517,14.2487733 C48.3440806,14.5141307 48.7411278,14.6468074 49.2168055,14.6468074 C49.6335148,14.6468074 49.9765086,14.5799776 50.2457972,14.4463161 C50.5150858,14.3126547 50.7715941,14.1298557 51.0153297,13.8979137 L51.7996042,14.6703946 C51.4615193,15.0399293 51.0733171,15.3259213 50.6349861,15.5283791 C50.196655,15.7308369 49.6865869,15.8320643 49.1047663,15.8320643 C48.7037818,15.8320643 48.3175452,15.7691658 47.9460449,15.6433667 C47.5745446,15.5175677 47.2462926,15.3200268 46.9612792,15.0507382 C46.6762657,14.7814496 46.4472756,14.4355075 46.2743019,14.0129013 C46.1013282,13.5902951 46.0148426,13.0841581 46.0148426,12.4944751 Z M47.5244236,11.8694142 L50.5199985,11.8694142 C50.4295804,10.8708843 49.9421164,10.3716268 49.0575919,10.3716268 C48.8728245,10.3716268 48.6978878,10.3971793 48.5327766,10.4482852 C48.3676653,10.4993911 48.21435,10.5858766 48.0728261,10.7077444 C47.9313022,10.8296123 47.8123846,10.9848931 47.7160697,11.1735917 C47.6197548,11.3622903 47.5558734,11.5942288 47.5244236,11.8694142 Z M52.5013235,9.28661543 L54.0109045,9.28661543 L54.706727,11.9401758 C54.7578329,12.1249431 54.8030413,12.2959487 54.8423535,12.4531975 C54.8816657,12.6104463 54.9199945,12.7676927 54.9573411,12.9249415 C54.9946877,13.0821903 55.0330165,13.2472991 55.0723287,13.4202728 C55.1116409,13.5932465 55.1509525,13.7799766 55.1902647,13.9804689 L55.2138519,13.9804689 C55.2649578,13.7642518 55.3101661,13.5696593 55.3494783,13.3966856 C55.3887905,13.2237119 55.4271194,13.0586031 55.4644659,12.9013543 C55.5018125,12.7441055 55.5421069,12.5868591 55.5853504,12.4296103 C55.6285938,12.2723615 55.6738021,12.1013559 55.7209768,11.9165886 L56.3991089,9.28661543 L57.607953,9.28661543 L58.3214659,11.963763 C58.3686406,12.1406679 58.4148317,12.3077423 58.4600408,12.4649911 C58.5052498,12.6222399 58.5455442,12.7794863 58.5809252,12.9367351 C58.6163062,13.0939839 58.6516866,13.2571271 58.6870676,13.4261696 C58.7224486,13.5952121 58.7656913,13.7799766 58.8167972,13.9804689 L58.8403844,13.9804689 C58.8875591,13.7721142 58.9317846,13.5834185 58.9730624,13.414376 C59.0143402,13.2453335 59.0526691,13.0841559 59.08805,12.9308383 C59.123431,12.7775207 59.1637254,12.626171 59.2089345,12.4767847 C59.2541435,12.3273983 59.3003346,12.1642551 59.3475093,11.9873502 L60.0728158,9.28661543 L61.4231832,9.28661543 L59.5126197,15.6964379 L58.1268715,15.6964379 L56.9652018,11.2384565 L56.9416146,11.2384565 L55.7858416,15.6964379 L54.4059902,15.6964379 L52.5013235,9.28661543 Z" id="Overview" fill-opacity="0.644644475" fill="#173145"></path>
                    </g>
                </g>
            </g>
        </g>
    </g>
</svg>