<?xml version="1.0" encoding="UTF-8"?>
<svg width="961px" height="652px" viewBox="0 0 961 652" version="1.1" xmlns="http://www.w3.org/2000/svg" xmlns:xlink="http://www.w3.org/1999/xlink">
    <!-- Generator: Sketch 49.1 (51147) - http://www.bohemiancoding.com/sketch -->
    <title>Group 10</title>
    <desc>Created with Sketch.</desc>
    <defs>
        <filter x="-1.2%" y="-1.1%" width="102.3%" height="103.4%" filterUnits="objectBoundingBox" id="filter-1">
            <feOffset dx="0" dy="4" in="SourceAlpha" result="shadowOffsetOuter1"></feOffset>
            <feGaussianBlur stdDeviation="3" in="shadowOffsetOuter1" result="shadowBlurOuter1"></feGaussianBlur>
            <feColorMatrix values="0 0 0 0 0.0901960784   0 0 0 0 0.192156863   0 0 0 0 0.270588235  0 0 0 0.16 0" type="matrix" in="shadowBlurOuter1" result="shadowMatrixOuter1"></feColorMatrix>
            <feMerge>
                <feMergeNode in="shadowMatrixOuter1"></feMergeNode>
                <feMergeNode in="SourceGraphic"></feMergeNode>
            </feMerge>
        </filter>
    </defs>
    <g id="Homepage" stroke="none" stroke-width="1" fill="none" fill-rule="evenodd">
        <g id="Desktop-HD-Copy-10" transform="translate(-32.000000, -693.000000)">
            <g id="Group-10" transform="translate(38.000000, 695.000000)">
                <g id="Group-7">
                    <g id="Group-2">
                        <g id="Group-24" filter="url(#filter-1)" fill-rule="nonzero">
                            <rect id="bg-screen-b" fill="#FFFFFF" x="0" y="0" width="948.523205" height="639.57101" rx="5.99039985"></rect>
                            <path d="M7.87156187,0 L940.651644,0 C944.998987,-8.68772388e-16 948.523205,3.83391725 948.523205,8.56329386 L948.523205,32.112352 L0,32.112352 L0,8.56329386 C-5.3239604e-16,3.83391725 3.52421829,8.68772388e-16 7.87156187,0 Z" id="Shape" fill-opacity="0.08" fill="#173145"></path>
                        </g>
                        <path d="M208.452088,66.6691117 L209.44963,66.1433137 C209.88534,67.008182 210.570017,67.4406097 211.503682,67.4406097 C211.959048,67.4406097 212.325957,67.3652625 212.604418,67.2145657 C212.882879,67.063869 213.022108,66.8181714 213.022108,66.4774657 C213.022108,66.3169409 212.991805,66.1760743 212.931199,66.0548617 C212.870593,65.9336491 212.773133,65.8222662 212.638816,65.7207097 C212.504499,65.6191532 212.330054,65.5249692 212.115475,65.4381547 C211.900896,65.3513403 211.639637,65.2604322 211.331692,65.1654278 C210.968054,65.0605952 210.628992,64.9524883 210.314494,64.8411038 C209.999996,64.7297192 209.724815,64.5921286 209.488942,64.4283278 C209.253069,64.264527 209.068796,64.063055 208.936117,63.8239058 C208.803438,63.5847566 208.7371,63.2882816 208.7371,62.9344718 C208.7371,62.6199742 208.798524,62.3333271 208.921375,62.0745218 C209.044226,61.8157165 209.217852,61.5937698 209.442259,61.4086748 C209.666666,61.2235799 209.935295,61.0810754 210.248155,60.9811569 C210.561015,60.8812384 210.90581,60.8312799 211.282552,60.8312799 C211.649466,60.8312799 211.9787,60.8730484 212.270266,60.9565869 C212.561831,61.0401253 212.822271,61.1556031 213.051592,61.3030238 C213.280913,61.4504446 213.479109,61.6199759 213.646186,61.8116228 C213.813263,62.0032698 213.954129,62.2088367 214.06879,62.4283298 L213.154786,63.0622358 C212.932017,62.6887699 212.662568,62.4144077 212.346433,62.2391408 C212.030297,62.063874 211.672398,61.9762418 211.272724,61.9762418 C210.85667,61.9762418 210.535625,62.0483131 210.30958,62.1924578 C210.083535,62.3366025 209.970514,62.5462644 209.970514,62.8214498 C209.970514,62.9983547 210.004093,63.1465922 210.071251,63.2661668 C210.138409,63.3857414 210.244059,63.4946673 210.388204,63.5929478 C210.532349,63.6912283 210.715803,63.7804984 210.938572,63.8607608 C211.161341,63.9410232 211.423418,64.0237414 211.724812,64.1089178 C212.07207,64.2104743 212.400485,64.3218572 212.710069,64.4430698 C213.019652,64.5642824 213.28992,64.7100629 213.520879,64.8804158 C213.751838,65.0507686 213.932835,65.2571545 214.063876,65.4995797 C214.194917,65.7420049 214.260436,66.036842 214.260436,66.3840997 C214.260436,66.6854932 214.196554,66.9688644 214.06879,67.2342217 C213.941025,67.499579 213.75839,67.7313537 213.520879,67.9295527 C213.283368,68.1277517 212.990169,68.2825411 212.641273,68.3939257 C212.292377,68.5053102 211.895166,68.5610017 211.449628,68.5610017 C210.712524,68.5610017 210.087634,68.3865564 209.574937,68.0376607 C209.06224,67.6887649 208.687961,67.2325865 208.452088,66.6691117 Z M215.135128,67.1310277 C215.135128,66.8427383 215.199009,66.5773849 215.326774,66.3349597 C215.454538,66.0925345 215.659286,65.8795967 215.941024,65.6961397 C216.222761,65.5126828 216.583118,65.3554364 217.022104,65.2243957 C217.46109,65.0933551 217.991797,64.9901621 218.61424,64.9148138 L218.61424,64.7575658 C218.61424,64.4889324 218.543806,64.2940124 218.402938,64.1727998 C218.262069,64.0515872 218.040941,63.9909818 217.739548,63.9909818 C217.362806,63.9909818 217.025381,64.066329 216.727264,64.2170258 C216.429146,64.3677225 216.167069,64.5331589 215.941024,64.7133398 L215.336602,63.9418418 C215.624891,63.6797605 215.986886,63.4528998 216.422596,63.2612528 C216.858306,63.0696058 217.354615,62.9737838 217.911538,62.9737838 C218.265348,62.9737838 218.565099,63.0155524 218.8108,63.0990908 C219.056501,63.1826292 219.254697,63.307116 219.405394,63.4725548 C219.55609,63.6379936 219.665016,63.8411036 219.732175,64.0818908 C219.799333,64.322678 219.832912,64.5970402 219.832912,64.9049858 L219.832912,67.1113717 C219.832912,67.4324213 219.844378,67.6969556 219.86731,67.9049827 C219.890242,68.1130097 219.929553,68.284179 219.985246,68.4184957 L218.73709,68.4184957 C218.70433,68.3038351 218.675665,68.1998231 218.651095,68.1064567 C218.626525,68.0130902 218.61424,67.8894225 218.61424,67.7354497 C218.339054,68.0171871 218.042579,68.2145641 217.724806,68.3275867 C217.407032,68.4406092 217.046676,68.4971197 216.643726,68.4971197 C216.427509,68.4971197 216.227675,68.467636 216.044218,68.4086677 C215.860761,68.3496994 215.701876,68.2628862 215.56756,68.1482257 C215.433243,68.0335651 215.327593,67.8902415 215.250607,67.7182507 C215.17362,67.5462598 215.135128,67.3505208 215.135128,67.1310277 Z M216.348886,66.9000697 C216.348886,67.1130108 216.416043,67.2735332 216.55036,67.3816417 C216.684676,67.4897502 216.866493,67.5438037 217.095814,67.5438037 C217.416863,67.5438037 217.701873,67.4881123 217.95085,67.3767277 C218.199827,67.2653431 218.420955,67.1162866 218.61424,66.9295537 L218.61424,65.7501937 C217.870584,65.8517502 217.307118,65.9950738 216.923824,66.1801687 C216.54053,66.3652636 216.348886,66.6052282 216.348886,66.9000697 Z M220.55527,63.0769778 L221.85748,63.0769778 L223.164604,67.0180057 L223.18426,67.0180057 L224.481556,63.0769778 L225.680572,63.0769778 L223.74937,68.4283237 L222.491386,68.4283237 L220.55527,63.0769778 Z M226.162144,65.7501937 C226.162144,65.2424112 226.242405,64.8124405 226.40293,64.4602688 C226.563454,64.108097 226.768202,63.8206309 227.01718,63.5978618 C227.266157,63.3750927 227.541338,63.2153893 227.842732,63.1187468 C228.144125,63.0221043 228.43241,62.9737838 228.707595,62.9737838 C229.008989,62.9737838 229.30055,63.0221043 229.582287,63.1187468 C229.864025,63.2153893 230.113817,63.3767307 230.331672,63.6027758 C230.549528,63.8288209 230.723973,64.1261149 230.855013,64.4946668 C230.986054,64.8632186 231.051573,65.319397 231.051573,65.8632157 L231.051573,66.1531417 L227.400472,66.1531417 C227.42668,66.6379921 227.57246,66.9909776 227.837818,67.2121087 C228.103175,67.4332398 228.434048,67.5438037 228.830445,67.5438037 C229.177703,67.5438037 229.463531,67.4881123 229.687938,67.3767277 C229.912346,67.2653431 230.126102,67.1130107 230.329215,66.9197257 L230.982777,67.5634597 C230.70104,67.8714052 230.377538,68.1097318 230.012262,68.2784467 C229.646987,68.4471615 229.22193,68.5315177 228.737079,68.5315177 C228.402926,68.5315177 228.081062,68.4791022 227.771479,68.3742697 C227.461895,68.2694372 227.188352,68.1048198 226.950841,67.8804127 C226.713329,67.6560056 226.522504,67.3677205 226.37836,67.0155487 C226.234215,66.663377 226.162144,66.2415962 226.162144,65.7501937 Z M227.420128,65.2293097 L229.916439,65.2293097 C229.841091,64.3972016 229.434871,63.9811538 228.697767,63.9811538 C228.543795,63.9811538 228.398014,64.0024476 228.260422,64.0450358 C228.122829,64.087624 227.995066,64.1596953 227.87713,64.2612518 C227.759193,64.3628083 227.660095,64.492209 227.579833,64.6494578 C227.49957,64.8067065 227.446336,64.9999886 227.420128,65.2293097 Z M231.847641,65.7600217 C231.847641,65.2981034 231.903333,64.8927025 232.014717,64.5438068 C232.126102,64.194911 232.280072,63.9049879 232.476633,63.6740288 C232.673194,63.4430696 232.91234,63.2686244 233.194077,63.1506878 C233.475815,63.0327512 233.78867,62.9737838 234.132651,62.9737838 C234.420941,62.9737838 234.699398,63.0311132 234.968031,63.1457738 C235.236665,63.2604344 235.46762,63.4275087 235.660905,63.6470018 L235.660905,60.9688719 L236.899233,60.9688719 L236.899233,67.1113717 C236.899233,67.4324213 236.910699,67.6969556 236.933631,67.9049827 C236.956563,68.1130097 236.999151,68.284179 237.061395,68.4184957 L235.783755,68.4184957 C235.747719,68.3431473 235.718235,68.2374974 235.695303,68.1015427 C235.672371,67.965588 235.660905,67.8304544 235.660905,67.6961377 C235.46762,67.9221828 235.236665,68.1121889 234.968031,68.2661617 C234.699398,68.4201344 234.363611,68.4971197 233.960661,68.4971197 C233.659268,68.4971197 233.379173,68.4422472 233.120367,68.3325007 C232.861562,68.2227541 232.637977,68.0540418 232.449606,67.8263587 C232.261235,67.5986756 232.113817,67.3136664 232.007346,66.9713227 C231.900876,66.628979 231.847641,66.2252161 231.847641,65.7600217 Z M233.085969,65.7895057 C233.085969,66.3628086 233.198171,66.7886843 233.422578,67.0671457 C233.646985,67.3456071 233.960659,67.4848357 234.363609,67.4848357 C234.619139,67.4848357 234.862379,67.4160404 235.093338,67.2784477 C235.324297,67.140855 235.513485,66.9836086 235.660905,66.8067037 L235.660905,64.6641998 C235.493828,64.4512587 235.298089,64.2874603 235.073682,64.1727998 C234.849275,64.0581392 234.62569,64.0008098 234.402921,64.0008098 C233.934451,64.0008098 233.597845,64.1498663 233.393094,64.4479838 C233.188343,64.7461013 233.085969,65.1932708 233.085969,65.7895057 Z" id="Saved" fill-opacity="0.403306159" fill="#1B3141"></path>
                        <path d="M199.399063,61.3017429 C199.755442,60.9100465 200.344503,60.898139 200.714767,61.2751468 C201.085032,61.6521547 201.096288,62.2753126 200.739908,62.6670091 L194.342628,69.6982582 C193.976581,70.1005806 193.36783,70.1005806 193.001783,69.6982582 L190.260092,66.6848657 C189.903712,66.2931693 189.914968,65.6700113 190.285233,65.2930035 C190.655497,64.9159957 191.244558,64.9279031 191.600937,65.3195996 L193.672206,67.5961306 L199.399063,61.3017429 Z" id="Shape" fill-opacity="0.395861639" fill="#1B3141" fill-rule="nonzero"></path>
                        <path d="M45.3095758,66.9066156 L41.6142479,66.9066156 L40.841112,69.1277435 L39.117936,69.1277435 L42.7215359,59.5880317 L44.2088399,59.5880317 L47.8189918,69.1277435 L46.0892638,69.1277435 L45.3095758,66.9066156 Z M42.0794399,65.5700076 L44.8443839,65.5700076 L43.4619119,61.6125997 L42.0794399,65.5700076 Z M51.6584637,67.9876955 C51.8506566,67.9876955 52.0308348,67.9582118 52.1990037,67.8992435 C52.3671725,67.8402752 52.513499,67.7572841 52.6379877,67.6502675 C52.7624763,67.543251 52.8629393,67.4154883 52.9393797,67.2669756 C53.01582,67.1184628 53.0584076,66.9568484 53.0671437,66.7821276 L54.5675516,66.7821276 C54.5544476,67.1228333 54.4703644,67.443878 54.3152996,67.7452715 C54.1602349,68.046665 53.9527569,68.3098344 53.6928596,68.5347875 C53.4329623,68.7597406 53.1304814,68.9366429 52.7854077,69.0654995 C52.4403339,69.1943562 52.0712416,69.2587835 51.6781197,69.2587835 C51.132117,69.2587835 50.6571017,69.1648724 50.2530597,68.9770475 C49.8490177,68.7892226 49.5126851,68.5336971 49.2440517,68.2104635 C48.9754184,67.8872299 48.7755844,67.5094017 48.6445438,67.0769676 C48.5135031,66.6445334 48.4479838,66.185898 48.4479838,65.7010476 L48.4479838,65.4717276 C48.4479838,64.9868772 48.5135031,64.5282418 48.6445438,64.0958076 C48.7755844,63.6633735 48.9754184,63.2844533 49.2440517,62.9590357 C49.5126851,62.633618 49.8479257,62.3770006 50.2497837,62.1891757 C50.6516417,62.0013507 51.125565,61.9074397 51.6715677,61.9074397 C52.0996338,61.9074397 52.4894739,61.972959 52.8410997,62.1039997 C53.1927254,62.2350403 53.4941144,62.4184945 53.7452756,62.6543677 C53.9964369,62.8902408 54.1929949,63.171974 54.3349556,63.4995756 C54.4769163,63.8271773 54.5544476,64.1875337 54.5675516,64.5806556 L53.0671437,64.5806556 C53.0584076,64.3928307 53.020188,64.2137445 52.9524837,64.0433916 C52.8847793,63.8730388 52.7908683,63.7245283 52.6707477,63.5978556 C52.5506271,63.471183 52.4053925,63.37072 52.2350397,63.2964637 C52.0646868,63.2222073 51.8724968,63.1850797 51.6584637,63.1850797 C51.3352301,63.1850797 51.0687848,63.251691 50.8591197,63.3849156 C50.6494547,63.5181403 50.4834723,63.6917666 50.3611677,63.9057996 C50.2388631,64.1198327 50.15478,64.3644382 50.1089157,64.6396236 C50.0630515,64.914809 50.0401197,65.1921742 50.0401197,65.4717276 L50.0401197,65.7010476 C50.0401197,65.989337 50.0630515,66.2699782 50.1089157,66.5429796 C50.15478,66.8159809 50.2388631,67.0594945 50.3611677,67.2735276 C50.4834723,67.4875606 50.6483627,67.6600949 50.8558437,67.7911355 C51.0633247,67.9221762 51.3308621,67.9876955 51.6584637,67.9876955 Z M57.2669756,62.0384797 L57.3128396,62.7788557 C57.5487127,62.5036703 57.8359058,62.2896404 58.1744275,62.1367597 C58.5129492,61.9838789 58.9071573,61.9074397 59.3570635,61.9074397 C59.7894977,61.9074397 60.1760618,61.9937068 60.5167675,62.1662437 C60.8574732,62.3387805 61.1195505,62.6150538 61.3030075,62.9950717 C61.5388806,62.663102 61.8369936,62.3988407 62.1973554,62.2022797 C62.5577172,62.0057187 62.9846849,61.9074397 63.4782714,61.9074397 C63.8451852,61.9074397 64.1727819,61.9565792 64.4610714,62.0548597 C64.7493608,62.1531402 64.9928744,62.3082026 65.1916194,62.5200517 C65.3903643,62.7319007 65.5432428,63.003806 65.6502593,63.3357756 C65.7572759,63.6677453 65.8107833,64.0674133 65.8107833,64.5347916 L65.8107833,69.1277435 L64.2186474,69.1277435 L64.2186474,64.5282396 C64.2186474,64.2661583 64.1891637,64.0510365 64.1301954,63.8828676 C64.0712271,63.7146988 63.9860519,63.5803841 63.8746674,63.4799196 C63.7632828,63.3794551 63.6300602,63.3095678 63.4749954,63.2702557 C63.3199306,63.2309435 63.1441204,63.2112877 62.9475594,63.2112877 C62.5850136,63.2112877 62.2890846,63.3084747 62.0597634,63.5028516 C61.8304423,63.6972286 61.6699199,63.9516621 61.5781914,64.2661596 C61.5781914,64.2879997 61.5792834,64.3109315 61.5814674,64.3349556 C61.5836515,64.3589797 61.5847434,64.3819115 61.5847434,64.4037516 L61.5847434,69.1277435 L59.9926075,69.1277435 L59.9926075,64.5478956 C59.9926075,64.2989184 59.9631238,64.0892565 59.9041555,63.9189036 C59.8451872,63.7485508 59.760012,63.6109602 59.6486275,63.5061276 C59.5372429,63.4012951 59.4029283,63.3259479 59.2456795,63.2800837 C59.0884307,63.2342194 58.9115285,63.2112877 58.7149675,63.2112877 C58.3742618,63.2112877 58.0936206,63.281175 57.8730355,63.4209516 C57.6524504,63.5607283 57.4810082,63.7507344 57.3587036,63.9909756 L57.3587036,69.1277435 L55.7665676,69.1277435 L55.7665676,62.0384797 L57.2669756,62.0384797 Z M70.5675352,69.2587835 C70.0433726,69.2587835 69.5716333,69.1714244 69.1523033,68.9967035 C68.7329732,68.8219826 68.3769847,68.581745 68.0843273,68.2759835 C67.7916698,67.970222 67.5667201,67.6076816 67.4094713,67.1883516 C67.2522225,66.7690215 67.1735993,66.316938 67.1735993,65.8320876 L67.1735993,65.5700076 C67.1735993,65.0109008 67.2565905,64.5053099 67.4225753,64.0532196 C67.5885601,63.6011294 67.8156939,63.2167492 68.1039833,62.9000677 C68.3922727,62.5833861 68.7318813,62.3387805 69.1228193,62.1662437 C69.5137572,61.9937068 69.934173,61.9074397 70.3840792,61.9074397 C70.8995058,61.9074397 71.3472213,61.9937068 71.7272392,62.1662437 C72.1072571,62.3387805 72.4217499,62.5801101 72.6707272,62.8902397 C72.9197044,63.2003692 73.1053426,63.5694615 73.2276472,63.9975276 C73.3499518,64.4255938 73.4111032,64.8951491 73.4111032,65.4062076 L73.4111032,66.0876156 L68.7788393,66.0876156 C68.8006794,66.362801 68.8585548,66.6161424 68.9524673,66.8476476 C69.0463797,67.0791527 69.1741425,67.2789867 69.3357593,67.4471555 C69.4973761,67.6153244 69.6884741,67.7474551 69.9090592,67.8435515 C70.1296443,67.939648 70.3797098,67.9876955 70.6592632,67.9876955 C71.0523852,67.9876955 71.3941778,67.9090723 71.6846512,67.7518235 C71.9751246,67.5945748 72.2273741,67.3783609 72.4414072,67.1031756 L73.2997192,67.9221755 C73.1861506,68.0925284 73.045284,68.2574187 72.8771152,68.4168515 C72.7089463,68.5762843 72.5123883,68.7182429 72.2874352,68.8427315 C72.0624821,68.9672201 71.8080486,69.0676831 71.5241272,69.1441235 C71.2402058,69.2205639 70.921345,69.2587835 70.5675352,69.2587835 Z M70.3775272,63.1850797 C69.9407251,63.1850797 69.5880126,63.3379581 69.3193793,63.6437196 C69.0507459,63.9494812 68.8793036,64.3753569 68.8050473,64.9213596 L71.8386232,64.9213596 L71.8386232,64.8034236 C71.8255191,64.5937586 71.7916675,64.3917406 71.7370672,64.1973636 C71.6824669,64.0029867 71.5983838,63.8304524 71.4848152,63.6797556 C71.3712466,63.5290589 71.2238281,63.4089401 71.0425552,63.3193956 C70.8612823,63.2298512 70.6396085,63.1850797 70.3775272,63.1850797 Z M85.7550709,64.6068636 C85.7550709,65.3319552 85.6600678,65.9816887 85.4700589,66.5560836 C85.2800499,67.1304784 85.0125126,67.6175055 84.6674389,68.0171795 C84.3223652,68.4168535 83.9074093,68.7237024 83.4225589,68.9377355 C82.9377085,69.1517686 82.4004499,69.2587835 81.810767,69.2587835 C81.225452,69.2587835 80.6903774,69.1517686 80.205527,68.9377355 C79.7206766,68.7237024 79.3024448,68.4168535 78.950819,68.0171795 C78.5991933,67.6175055 78.326196,67.1304784 78.131819,66.5560836 C77.9374421,65.9816887 77.8402551,65.3319552 77.8402551,64.6068636 L77.8402551,64.1220156 C77.8402551,63.396924 77.9374421,62.7460985 78.131819,62.1695197 C78.326196,61.5929408 78.5970093,61.1037297 78.944267,60.7018717 C79.2915248,60.3000137 79.7075726,59.9920728 80.192423,59.7780397 C80.6772734,59.5640067 81.212348,59.4569917 81.797663,59.4569917 C82.3873459,59.4569917 82.9256965,59.5640067 83.4127309,59.7780397 C83.8997653,59.9920728 84.3169052,60.3000137 84.6641629,60.7018717 C85.0114206,61.1037297 85.2800499,61.5929408 85.4700589,62.1695197 C85.6600678,62.7460985 85.7550709,63.396924 85.7550709,64.1220156 L85.7550709,64.6068636 Z M84.0974149,64.1089116 C84.0974149,63.576013 84.0460914,63.1053657 83.9434429,62.6969557 C83.8407944,62.2885456 83.6911919,61.9467531 83.4946309,61.6715677 C83.2980699,61.3963823 83.0567404,61.1878124 82.7706349,61.0458517 C82.4845295,60.903891 82.1602088,60.8329117 81.797663,60.8329117 C81.4438532,60.8329117 81.1249924,60.903891 80.841071,61.0458517 C80.5571496,61.1878124 80.31582,61.3963823 80.117075,61.6715677 C79.91833,61.9467531 79.7654515,62.2885456 79.658435,62.6969557 C79.5514185,63.1053657 79.497911,63.576013 79.497911,64.1089116 L79.497911,64.6068636 C79.497911,65.1397623 79.5514185,65.6115015 79.658435,66.0220956 C79.7654515,66.4326896 79.919422,66.7766662 80.120351,67.0540356 C80.32128,67.3314049 80.5647936,67.5410668 80.850899,67.6830275 C81.1370044,67.8249882 81.4569572,67.8959675 81.810767,67.8959675 C82.5445946,67.8959675 83.1091529,67.6164183 83.5044589,67.0573116 C83.8997649,66.4982048 84.0974149,65.681397 84.0974149,64.6068636 L84.0974149,64.1089116 Z M93.4602227,65.6551836 C93.4602227,66.1706102 93.4001633,66.6489014 93.2800427,67.0900716 C93.1599221,67.5312418 92.9830198,67.9123459 92.7493307,68.2333955 C92.5156415,68.5544451 92.2273564,68.8056026 91.8844667,68.9868755 C91.541577,69.1681484 91.1495529,69.2587835 90.7083827,69.2587835 C90.3021567,69.2587835 89.9461683,69.1932642 89.6404068,69.0622235 C89.3346452,68.9311829 89.0681999,68.7411768 88.8410628,68.4921995 L88.8410628,71.8533754 L87.2489268,71.8533754 L87.2489268,62.0384797 L88.7165748,62.0384797 L88.7820948,62.7591997 C89.0092319,62.4840143 89.2789532,62.2732604 89.5912668,62.1269317 C89.9035803,61.980603 90.2693966,61.9074397 90.6887267,61.9074397 C91.138633,61.9074397 91.536117,61.9947988 91.8811907,62.1695197 C92.2262644,62.3442405 92.5156415,62.5899381 92.7493307,62.9066197 C92.9830198,63.2233012 93.1599221,63.6033134 93.2800427,64.0466676 C93.4001633,64.4900218 93.4602227,64.9803249 93.4602227,65.5175916 L93.4602227,65.6551836 Z M91.8746387,65.5175916 C91.8746387,65.198726 91.842971,64.899521 91.7796347,64.6199676 C91.7162984,64.3404142 91.6191114,64.0958087 91.4880707,63.8861436 C91.3570301,63.6764786 91.1888638,63.5115882 90.9835667,63.3914676 C90.7782697,63.2713471 90.5314802,63.2112877 90.2431907,63.2112877 C89.893749,63.2112877 89.6054639,63.2833589 89.3783268,63.4275036 C89.1511896,63.5716484 88.9721034,63.7682064 88.8410628,64.0171836 L88.8410628,67.1621436 C88.9721034,67.4111208 89.1500976,67.6109548 89.3750508,67.7616515 C89.6000039,67.9123483 89.8937489,67.9876955 90.2562947,67.9876955 C90.5445842,67.9876955 90.7902817,67.9254522 90.9933947,67.8009635 C91.1965077,67.6764749 91.3635821,67.5083086 91.4946227,67.2964596 C91.6256634,67.0846105 91.7217584,66.836729 91.7829107,66.5528076 C91.844063,66.2688862 91.8746387,65.9696812 91.8746387,65.6551836 L91.8746387,65.5175916 Z M101.014678,65.6551836 C101.014678,66.1706102 100.954619,66.6489014 100.834498,67.0900716 C100.714378,67.5312418 100.537476,67.9123459 100.303787,68.2333955 C100.070097,68.5544451 99.7818122,68.8056026 99.4389225,68.9868755 C99.0960328,69.1681484 98.7040087,69.2587835 98.2628386,69.2587835 C97.8566125,69.2587835 97.5006241,69.1932642 97.1948626,69.0622235 C96.8891011,68.9311829 96.6226557,68.7411768 96.3955186,68.4921995 L96.3955186,71.8533754 L94.8033826,71.8533754 L94.8033826,62.0384797 L96.2710306,62.0384797 L96.3365506,62.7591997 C96.5636877,62.4840143 96.833409,62.2732604 97.1457226,62.1269317 C97.4580361,61.980603 97.8238525,61.9074397 98.2431826,61.9074397 C98.6930888,61.9074397 99.0905728,61.9947988 99.4356465,62.1695197 C99.7807202,62.3442405 100.070097,62.5899381 100.303787,62.9066197 C100.537476,63.2233012 100.714378,63.6033134 100.834498,64.0466676 C100.954619,64.4900218 101.014678,64.9803249 101.014678,65.5175916 L101.014678,65.6551836 Z M99.4290945,65.5175916 C99.4290945,65.198726 99.3974268,64.899521 99.3340905,64.6199676 C99.2707542,64.3404142 99.1735672,64.0958087 99.0425265,63.8861436 C98.9114859,63.6764786 98.7433196,63.5115882 98.5380225,63.3914676 C98.3327255,63.2713471 98.085936,63.2112877 97.7976466,63.2112877 C97.4482048,63.2112877 97.1599197,63.2833589 96.9327826,63.4275036 C96.7056455,63.5716484 96.5265592,63.7682064 96.3955186,64.0171836 L96.3955186,67.1621436 C96.5265592,67.4111208 96.7045535,67.6109548 96.9295066,67.7616515 C97.1544597,67.9123483 97.4482048,67.9876955 97.8107506,67.9876955 C98.09904,67.9876955 98.3447375,67.9254522 98.5478505,67.8009635 C98.7509636,67.6764749 98.9180379,67.5083086 99.0490785,67.2964596 C99.1801192,67.0846105 99.2762142,66.836729 99.3373665,66.5528076 C99.3985188,66.2688862 99.4290945,65.9696812 99.4290945,65.6551836 L99.4290945,65.5175916 Z M102.062998,65.5175916 C102.062998,65.002165 102.138346,64.5249658 102.289042,64.0859796 C102.439739,63.6469934 102.655953,63.2658893 102.93769,62.9426557 C103.219428,62.6194221 103.563404,62.3660806 103.96963,62.1826237 C104.375856,61.9991668 104.836676,61.9074397 105.352102,61.9074397 C105.871897,61.9074397 106.337084,61.9991668 106.747678,62.1826237 C107.158272,62.3660806 107.504433,62.6194221 107.78617,62.9426557 C108.067908,63.2658893 108.28303,63.6469934 108.431542,64.0859796 C108.580055,64.5249658 108.65431,65.002165 108.65431,65.5175916 L108.65431,65.6551836 C108.65431,66.1706102 108.580055,66.6489014 108.431542,67.0900716 C108.28303,67.5312418 108.067908,67.9123459 107.78617,68.2333955 C107.504433,68.5544451 107.159364,68.8056026 106.750954,68.9868755 C106.342544,69.1681484 105.880633,69.2587835 105.365206,69.2587835 C104.845412,69.2587835 104.381316,69.1681484 103.972906,68.9868755 C103.564496,68.8056026 103.219428,68.5544451 102.93769,68.2333955 C102.655953,67.9123459 102.439739,67.5312418 102.289042,67.0900716 C102.138346,66.6489014 102.062998,66.1706102 102.062998,65.6551836 L102.062998,65.5175916 Z M103.655134,65.6551836 C103.655134,65.9740492 103.687894,66.2754382 103.753414,66.5593596 C103.818935,66.843281 103.921582,67.0911625 104.061358,67.3030116 C104.201135,67.5148606 104.379129,67.6819349 104.595346,67.8042395 C104.811563,67.9265441 105.068181,67.9876955 105.365206,67.9876955 C105.657864,67.9876955 105.912297,67.9265441 106.128514,67.8042395 C106.344731,67.6819349 106.521634,67.5148606 106.659226,67.3030116 C106.796819,67.0911625 106.899466,66.843281 106.96717,66.5593596 C107.034875,66.2754382 107.068726,65.9740492 107.068726,65.6551836 L107.068726,65.5175916 C107.068726,65.203094 107.034875,64.904981 106.96717,64.6232436 C106.899466,64.3415062 106.795727,64.0947167 106.65595,63.8828676 C106.516174,63.6710186 106.338179,63.5017603 106.121962,63.3750876 C105.905745,63.248415 105.649128,63.1850797 105.352102,63.1850797 C105.055077,63.1850797 104.800643,63.248415 104.588794,63.3750876 C104.376945,63.5017603 104.201135,63.6710186 104.061358,63.8828676 C103.921582,64.0947167 103.818935,64.3415062 103.753414,64.6232436 C103.687894,64.904981 103.655134,65.203094 103.655134,65.5175916 L103.655134,65.6551836 Z M113.712454,63.4930236 C113.607622,63.4755516 113.501699,63.4624477 113.394682,63.4537116 C113.287666,63.4449756 113.177375,63.4406076 113.063806,63.4406076 C112.67942,63.4406076 112.367111,63.5148629 112.12687,63.6633756 C111.886629,63.8118884 111.707543,64.0171823 111.589606,64.2792636 L111.589606,69.1277435 L109.99747,69.1277435 L109.99747,62.0384797 L111.517534,62.0384797 L111.556846,62.8312717 C111.735935,62.5429822 111.957609,62.3169405 112.221874,62.1531397 C112.48614,61.9893389 112.797356,61.9074397 113.155534,61.9074397 C113.247263,61.9074397 113.351002,61.9172676 113.466754,61.9369237 C113.582507,61.9565798 113.66659,61.9773276 113.719006,61.9991677 L113.712454,63.4930236 Z M116.71327,60.3153037 L116.71327,62.0384797 L117.964702,62.0384797 L117.964702,63.2178397 L116.71327,63.2178397 L116.71327,67.1752476 C116.71327,67.3368644 116.730742,67.467903 116.765686,67.5683675 C116.80063,67.668832 116.850862,67.7463633 116.916382,67.8009635 C116.981902,67.8555638 117.059434,67.8926914 117.148978,67.9123475 C117.238523,67.9320036 117.337894,67.9418315 117.447094,67.9418315 C117.556295,67.9418315 117.662218,67.9341876 117.764866,67.9188995 C117.867515,67.9036115 117.94723,67.8894156 118.004014,67.8763115 L118.004014,69.1080875 C117.877341,69.1430317 117.729923,69.1768833 117.561754,69.2096435 C117.393585,69.2424037 117.191567,69.2587835 116.955694,69.2587835 C116.693613,69.2587835 116.450099,69.2238399 116.225146,69.1539515 C116.000193,69.0840632 115.805819,68.9704963 115.642018,68.8132475 C115.478217,68.6559987 115.350455,68.4507048 115.258726,68.1973595 C115.166998,67.9440143 115.121134,67.6338894 115.121134,67.2669756 L115.121134,63.2178397 L113.954878,63.2178397 L113.954878,62.0384797 L115.121134,62.0384797 L115.121134,60.3153037 L116.71327,60.3153037 Z M123.474934,68.4332315 C123.252165,68.6953128 122.976984,68.8984228 122.649382,69.0425675 C122.32178,69.1867122 121.933032,69.2587835 121.483126,69.2587835 C121.133684,69.2587835 120.815915,69.209644 120.52981,69.1113635 C120.243705,69.013083 119.998007,68.8580206 119.79271,68.6461715 C119.587413,68.4343225 119.427983,68.1613252 119.314414,67.8271715 C119.200845,67.4930179 119.144062,67.0922579 119.144062,66.6248796 L119.144062,62.0384797 L120.736198,62.0384797 L120.736198,66.6379836 C120.736198,66.8956969 120.766774,67.1086347 120.827926,67.2768036 C120.889078,67.4449724 120.970977,67.580379 121.073626,67.6830275 C121.176275,67.7856761 121.295301,67.8577473 121.43071,67.8992435 C121.566119,67.9407397 121.708077,67.9614875 121.85659,67.9614875 C122.267184,67.9614875 122.599149,67.8872323 122.852494,67.7387195 C123.105839,67.5902068 123.295845,67.3870968 123.422518,67.1293836 L123.422518,62.0384797 L125.014654,62.0384797 L125.014654,69.1277435 L123.514246,69.1277435 L123.474934,68.4332315 Z M128.11375,62.0384797 L128.159614,62.8574797 C128.408591,62.5560862 128.707796,62.3224005 129.057238,62.1564157 C129.40668,61.9904309 129.795428,61.9074397 130.223494,61.9074397 C130.564199,61.9074397 130.873232,61.9543952 131.150602,62.0483077 C131.427971,62.1422201 131.664933,62.2940066 131.861494,62.5036717 C132.058055,62.7133367 132.209841,62.986334 132.316858,63.3226716 C132.423874,63.6590093 132.477382,64.0674132 132.477382,64.5478956 L132.477382,69.1277435 L130.885246,69.1277435 L130.885246,64.5347916 C130.885246,64.2901824 130.857946,64.0837965 130.803346,63.9156276 C130.748745,63.7474588 130.66903,63.6109602 130.564198,63.5061276 C130.459365,63.4012951 130.329419,63.3259479 130.174354,63.2800837 C130.019289,63.2342194 129.841295,63.2112877 129.640366,63.2112877 C129.312764,63.2112877 129.027755,63.2899109 128.78533,63.4471596 C128.542905,63.6044084 128.349623,63.8162543 128.205478,64.0827036 L128.205478,69.1277435 L126.613342,69.1277435 L126.613342,62.0384797 L128.11375,62.0384797 Z M135.792694,69.1277435 L134.200558,69.1277435 L134.200558,62.0384797 L135.792694,62.0384797 L135.792694,69.1277435 Z M134.102278,60.1973677 C134.102278,59.9527585 134.179809,59.7496485 134.334874,59.5880317 C134.489938,59.4264149 134.711612,59.3456077 134.999902,59.3456077 C135.288191,59.3456077 135.510957,59.4264149 135.668206,59.5880317 C135.825454,59.7496485 135.904078,59.9527585 135.904078,60.1973677 C135.904078,60.4376089 135.825454,60.6374429 135.668206,60.7968757 C135.510957,60.9563085 135.288191,61.0360237 134.999902,61.0360237 C134.711612,61.0360237 134.489938,60.9563085 134.334874,60.7968757 C134.179809,60.6374429 134.102278,60.4376089 134.102278,60.1973677 Z M139.520782,60.3153037 L139.520782,62.0384797 L140.772214,62.0384797 L140.772214,63.2178397 L139.520782,63.2178397 L139.520782,67.1752476 C139.520782,67.3368644 139.538253,67.467903 139.573198,67.5683675 C139.608142,67.668832 139.658373,67.7463633 139.723894,67.8009635 C139.789414,67.8555638 139.866945,67.8926914 139.95649,67.9123475 C140.046034,67.9320036 140.145405,67.9418315 140.254606,67.9418315 C140.363806,67.9418315 140.469729,67.9341876 140.572378,67.9188995 C140.675026,67.9036115 140.754741,67.8894156 140.811526,67.8763115 L140.811526,69.1080875 C140.684853,69.1430317 140.537434,69.1768833 140.369266,69.2096435 C140.201097,69.2424037 139.999079,69.2587835 139.763206,69.2587835 C139.501124,69.2587835 139.257611,69.2238399 139.032658,69.1539515 C138.807704,69.0840632 138.61333,68.9704963 138.44953,68.8132475 C138.285729,68.6559987 138.157966,68.4507048 138.066238,68.1973595 C137.974509,67.9440143 137.928646,67.6338894 137.928646,67.2669756 L137.928646,63.2178397 L136.76239,63.2178397 L136.76239,62.0384797 L137.928646,62.0384797 L137.928646,60.3153037 L139.520782,60.3153037 Z M144.467541,66.8476476 L145.908981,62.0384797 L147.605949,62.0384797 L144.788589,70.2022715 C144.723069,70.3813604 144.636802,70.5746424 144.529785,70.7821235 C144.422769,70.9896045 144.282994,71.1828866 144.110457,71.3619755 C143.937921,71.5410643 143.727167,71.6906668 143.478189,71.8107874 C143.229212,71.930908 142.932191,71.9909674 142.587117,71.9909674 C142.451709,71.9909674 142.317394,71.9789556 142.184169,71.9549314 C142.050945,71.9309073 141.929734,71.9036076 141.820533,71.8730314 L141.820533,70.6412555 C141.859846,70.6499915 141.911169,70.6554515 141.974505,70.6576355 C142.037842,70.6598195 142.086981,70.6609115 142.121925,70.6609115 C142.318486,70.6609115 142.489929,70.6445316 142.636257,70.6117715 C142.782586,70.5790113 142.910349,70.5244119 143.019549,70.4479715 C143.12875,70.3715311 143.222661,70.2732521 143.301285,70.1531315 C143.37991,70.0330109 143.449797,69.8834084 143.510949,69.7043195 L143.740269,69.0949835 L141.250509,62.0384797 L142.967133,62.0384797 L144.467541,66.8476476 Z" id="Acme-Opportunity" fill-opacity="0.801828578" fill="#173145"></path>
                        <rect id="Rectangle-11" x="14" y="52" width="24" height="24"></rect>
                        <path d="M24.9341255,69.8661846 C25.0625412,70.2160637 24.9974778,70.6742402 24.7888022,70.8895505 C24.5801266,71.1048607 24.3068601,70.9957711 24.1784444,70.6458919 L22.0658122,64.8898537 C21.9780626,64.6507728 21.9780626,64.3492272 22.0658122,64.1101463 L24.1784444,58.3541081 C24.3068601,58.0042289 24.5801266,57.8951393 24.7888022,58.1104495 C24.9974778,58.3257598 25.0625412,58.7839363 24.9341255,59.1338154 L22.9645809,64.5 L24.9341255,69.8661846 Z" id="Shape" fill-opacity="0.235450634" fill="#173145" fill-rule="nonzero"></path>
                        <g id="Group-30" transform="translate(151.000000, 110.000000)">
                            <path d="M146.596881,0 L221.07562,0 C223.29887,-4.08404263e-16 225.101169,1.80229962 225.101169,4.02554888 L225.101169,25.0877956 C225.101169,27.3110448 223.29887,29.1133444 221.07562,29.1133444 L146.596881,29.1133444 C146.041069,29.1133444 145.590494,28.6627695 145.590494,28.1069572 L145.590494,1.00638722 C145.590494,0.450574906 146.041069,5.46190276e-16 146.596881,4.4408921e-16 Z" id="Rectangle" fill-opacity="0.08" fill="#173145"></path>
                            <path d="M160.880008,10.5259776 L160.880008,9.12253916 L167.8972,9.12253916 L167.8972,10.5259776 L165.143394,10.5259776 L165.143394,18.0620881 L163.633813,18.0620881 L163.633813,10.5259776 L160.880008,10.5259776 Z M169.106044,10.5377712 L169.106044,9.24637197 L170.627418,9.24637197 L170.627418,10.5377712 L169.106044,10.5377712 Z M169.117838,18.0620881 L169.117838,11.6522664 L170.615625,11.6522664 L170.615625,18.0620881 L169.117838,18.0620881 Z M172.33749,18.0620881 L172.33749,11.6522664 L173.823484,11.6522664 L173.823484,12.5308896 C174.075082,12.2557042 174.381713,12.0198346 174.743385,11.8232736 C175.105057,11.6267126 175.531588,11.5284336 176.022991,11.5284336 C176.290313,11.5284336 176.520286,11.5549689 176.712916,11.6080404 C176.905546,11.6611119 177.069672,11.7318728 177.205299,11.8203252 C177.340926,11.9087777 177.453947,12.0188502 177.544365,12.150546 C177.634783,12.2822419 177.711441,12.4247465 177.77434,12.578064 C178.029869,12.2989474 178.345345,12.0542327 178.720777,11.8439124 C179.096208,11.6335922 179.529619,11.5284336 180.021021,11.5284336 C180.673603,11.5284336 181.148291,11.7053358 181.445098,12.0591456 C181.741905,12.4129554 181.890307,12.8807635 181.890307,13.462584 L181.890307,18.0620881 L180.404313,18.0620881 L180.404313,13.8340825 C180.404313,13.4724102 180.342397,13.2090225 180.218564,13.0439112 C180.09473,12.8788 179.855912,12.7962456 179.502103,12.7962456 C179.195467,12.7962456 178.915372,12.8729033 178.661809,13.0262208 C178.408245,13.1795384 178.139943,13.3800276 177.856895,13.6276945 L177.856895,18.0620881 L176.370902,18.0620881 L176.370902,13.8340825 C176.370902,13.4724102 176.308986,13.2090225 176.185153,13.0439112 C176.061319,12.8788 175.822501,12.7962456 175.468691,12.7962456 C175.169919,12.7962456 174.891789,12.8729033 174.634294,13.0262208 C174.376799,13.1795384 174.106532,13.3800276 173.823484,13.6276945 L173.823484,18.0620881 L172.33749,18.0620881 Z M183.134531,14.8601257 C183.134531,14.2507866 183.230845,13.7348218 183.423475,13.3122156 C183.616104,12.8896095 183.861802,12.5446502 184.160575,12.2773272 C184.459347,12.0100043 184.789565,11.8183602 185.151237,11.7023892 C185.512909,11.5864182 185.858851,11.5284336 186.189074,11.5284336 C186.550746,11.5284336 186.900619,11.5864182 187.238704,11.7023892 C187.576789,11.8183602 187.87654,12.0119699 188.137966,12.283224 C188.399392,12.5544782 188.608727,12.911231 188.765976,13.3534932 C188.923224,13.7957555 189.001848,14.3431696 189.001848,14.9957521 L189.001848,15.3436633 L184.620525,15.3436633 C184.651975,15.9254838 184.826912,16.3490664 185.14534,16.6144237 C185.463769,16.879781 185.860816,17.0124577 186.336494,17.0124577 C186.753203,17.0124577 187.096197,16.945628 187.365486,16.8119665 C187.634774,16.678305 187.891282,16.4955061 188.135018,16.2635641 L188.919292,17.0360449 C188.581207,17.4055796 188.193005,17.6915715 187.754674,17.8940293 C187.316343,18.0964872 186.806275,18.1977145 186.224455,18.1977145 C185.82347,18.1977145 185.437234,18.134816 185.065734,18.0090169 C184.694233,17.8832179 184.365981,17.6856771 184.080968,17.4163885 C183.795954,17.1471 183.566964,16.8011578 183.393991,16.3785517 C183.221017,15.9559456 183.134531,15.4498086 183.134531,14.8601257 Z M184.644112,14.2350649 L187.639687,14.2350649 C187.549269,13.2365351 187.061805,12.7372776 186.17728,12.7372776 C185.992513,12.7372776 185.817576,12.7628302 185.652465,12.813936 C185.487354,12.8650419 185.334039,12.9515274 185.192515,13.0733952 C185.050991,13.1952631 184.932073,13.3505439 184.835758,13.5392425 C184.739443,13.727941 184.675562,13.9598795 184.644112,14.2350649 Z M190.369905,18.0620881 L190.369905,9.12253916 L191.867692,9.12253916 L191.867692,18.0620881 L190.369905,18.0620881 Z M193.642629,10.5377712 L193.642629,9.24637197 L195.164004,9.24637197 L195.164004,10.5377712 L193.642629,10.5377712 Z M193.654423,18.0620881 L193.654423,11.6522664 L195.15221,11.6522664 L195.15221,18.0620881 L193.654423,18.0620881 Z M196.885869,18.0620881 L196.885869,11.6522664 L198.371863,11.6522664 L198.371863,12.6783096 C198.493731,12.5407169 198.631321,12.4031263 198.784639,12.2655336 C198.937957,12.1279409 199.110928,12.0050922 199.303557,11.8969836 C199.496187,11.7888751 199.705521,11.700424 199.931567,11.6316276 C200.157612,11.5628313 200.402326,11.5284336 200.665718,11.5284336 C201.255401,11.5284336 201.719278,11.6817489 202.057363,11.988384 C202.395448,12.2950192 202.564488,12.7647929 202.564488,13.3977192 L202.564488,18.0620881 L201.078494,18.0620881 L201.078494,13.8222889 C201.078494,13.4684791 201.001837,13.2031257 200.848519,13.0262208 C200.695201,12.849316 200.449504,12.7608648 200.111419,12.7608648 C199.781197,12.7608648 199.477514,12.8355569 199.200363,12.9849432 C198.923212,13.1343296 198.647048,13.3367844 198.371863,13.5923137 L198.371863,18.0620881 L196.885869,18.0620881 Z M203.796919,14.8601257 C203.796919,14.2507866 203.893233,13.7348218 204.085862,13.3122156 C204.278492,12.8896095 204.52419,12.5446502 204.822962,12.2773272 C205.121735,12.0100043 205.451952,11.8183602 205.813625,11.7023892 C206.175297,11.5864182 206.521239,11.5284336 206.851462,11.5284336 C207.213134,11.5284336 207.563007,11.5864182 207.901092,11.7023892 C208.239177,11.8183602 208.538928,12.0119699 208.800354,12.283224 C209.06178,12.5544782 209.271114,12.911231 209.428363,13.3534932 C209.585612,13.7957555 209.664235,14.3431696 209.664235,14.9957521 L209.664235,15.3436633 L205.282913,15.3436633 C205.314362,15.9254838 205.489299,16.3490664 205.807728,16.6144237 C206.126157,16.879781 206.523204,17.0124577 206.998882,17.0124577 C207.415591,17.0124577 207.758585,16.945628 208.027873,16.8119665 C208.297162,16.678305 208.55367,16.4955061 208.797406,16.2635641 L209.58168,17.0360449 C209.243595,17.4055796 208.855393,17.6915715 208.417062,17.8940293 C207.978731,18.0964872 207.468663,18.1977145 206.886842,18.1977145 C206.485858,18.1977145 206.099621,18.134816 205.728121,18.0090169 C205.356621,17.8832179 205.028369,17.6856771 204.743355,17.4163885 C204.458342,17.1471 204.229352,16.8011578 204.056378,16.3785517 C203.883405,15.9559456 203.796919,15.4498086 203.796919,14.8601257 Z M205.3065,14.2350649 L208.302074,14.2350649 C208.211656,13.2365351 207.724192,12.7372776 206.839668,12.7372776 C206.654901,12.7372776 206.479964,12.7628302 206.314853,12.813936 C206.149741,12.8650419 205.996426,12.9515274 205.854902,13.0733952 C205.713378,13.1952631 205.594461,13.3505439 205.498146,13.5392425 C205.401831,13.727941 205.33795,13.9598795 205.3065,14.2350649 Z" id="Timeline" fill-opacity="0.644644475" fill="#173145"></path>
                            <rect id="Rectangle" fill-opacity="0.4" fill="#173145" x="84.1667061" y="0" width="60.1702409" height="29.1133444" rx="1.00638722"></rect>
                            <path d="M97.218294,13.5687265 C97.218294,12.8217947 97.3175558,12.1603769 97.5160824,11.5844532 C97.714609,11.0085295 97.9888074,10.5269623 98.338686,10.1397372 C98.6885645,9.75251204 99.103302,9.45865777 99.5829108,9.25816557 C100.06252,9.05767336 100.583398,8.95742876 101.145563,8.95742876 C101.660553,8.95742876 102.113619,9.02524128 102.504775,9.16086837 C102.895932,9.29649545 103.23008,9.48715674 103.507231,9.73285798 C103.784382,9.97855921 104.013372,10.2704479 104.194208,10.6085328 C104.375045,10.9466177 104.514601,11.3220435 104.612881,11.7348216 L103.174062,12.1417008 C103.083644,11.8468593 102.984382,11.5883855 102.876274,11.3662716 C102.768165,11.1441577 102.633523,10.9584103 102.472343,10.809024 C102.311163,10.6596376 102.122467,10.5466168 101.90625,10.469958 C101.690033,10.3932992 101.432542,10.3549704 101.133769,10.3549704 C100.375044,10.3549704 99.7863525,10.6331 99.3676776,11.1893676 C98.9490027,11.7456352 98.7396684,12.5348157 98.7396684,13.5569329 C98.7396684,14.6262246 98.9529339,15.4429233 99.3794712,16.0070533 C99.8060085,16.5711833 100.398631,16.8532441 101.157356,16.8532441 C101.735246,16.8532441 102.195192,16.7028772 102.537208,16.4021389 C102.879224,16.1014006 103.134749,15.6129539 103.303792,14.9367841 L104.742611,15.2611081 C104.632537,15.7053359 104.480204,16.1102455 104.285609,16.4758489 C104.091014,16.8414523 103.847282,17.1529968 103.554406,17.4104917 C103.26153,17.6679866 102.915588,17.8694586 102.516569,18.0149137 C102.11755,18.1603689 101.660553,18.2330953 101.145563,18.2330953 C100.571605,18.2330953 100.043846,18.1338335 99.562272,17.9353069 C99.0806976,17.7367803 98.6669429,17.4429261 98.3209956,17.0537353 C97.9750482,16.6645446 97.7047809,16.180029 97.5101856,15.6001741 C97.3155902,15.0203192 97.218294,14.3431767 97.218294,13.5687265 Z M105.72148,16.5171265 C105.72148,16.1711792 105.798137,15.8527552 105.951455,15.5618449 C106.104773,15.2709346 106.35047,15.0154092 106.688555,14.7952609 C107.02664,14.5751126 107.459068,14.3864169 107.985851,14.2291681 C108.512634,14.0719193 109.149482,13.9480877 109.896414,13.8576697 L109.896414,13.6689721 C109.896414,13.346612 109.811894,13.112708 109.642852,12.9672528 C109.473809,12.8217977 109.208456,12.7490712 108.846784,12.7490712 C108.394694,12.7490712 107.989784,12.8394879 107.632043,13.020324 C107.274302,13.2011601 106.959809,13.3996838 106.688555,13.6159009 L105.963249,12.6901032 C106.309196,12.3756057 106.743589,12.1033728 107.266441,11.8733964 C107.789294,11.6434201 108.384864,11.5284336 109.053172,11.5284336 C109.477744,11.5284336 109.837445,11.5785559 110.132286,11.678802 C110.427128,11.7790481 110.664963,11.9284322 110.845799,12.1269588 C111.026635,12.3254854 111.157346,12.5692174 111.237936,12.858162 C111.318526,13.1471067 111.358821,13.4763414 111.358821,13.8458761 L111.358821,16.4935393 C111.358821,16.8787988 111.37258,17.1962401 111.400098,17.4458725 C111.427617,17.695505 111.474791,17.9009081 111.541621,18.0620881 L110.043834,18.0620881 C110.004522,17.9244954 109.970124,17.7996811 109.94064,17.6876413 C109.911156,17.5756016 109.896414,17.4272003 109.896414,17.2424329 C109.566192,17.5805178 109.210422,17.8173703 108.829093,17.9529973 C108.447765,18.0886244 108.015337,18.1564369 107.531797,18.1564369 C107.272337,18.1564369 107.032536,18.1210565 106.812388,18.0502945 C106.592239,17.9795326 106.401578,17.8753568 106.240398,17.7377641 C106.079218,17.6001714 105.952438,17.4281832 105.860055,17.2217941 C105.767671,17.0154051 105.72148,16.7805182 105.72148,16.5171265 Z M107.177989,16.2399769 C107.177989,16.4955062 107.258578,16.6881331 107.419758,16.8178633 C107.580938,16.9475936 107.799118,17.0124577 108.074303,17.0124577 C108.459563,17.0124577 108.801573,16.945628 109.100346,16.8119665 C109.399119,16.678305 109.664472,16.4994372 109.896414,16.2753577 L109.896414,14.8601257 C109.004027,14.9819935 108.327868,15.1539818 107.867915,15.3760957 C107.407962,15.5982096 107.177989,15.8861671 107.177989,16.2399769 Z M112.950957,18.0620881 L112.950957,11.6522664 L114.43695,11.6522664 L114.43695,12.7018968 L114.460537,12.7018968 C114.664961,12.3795368 114.948005,12.1033728 115.309677,11.8733964 C115.671349,11.6434201 116.156847,11.5284336 116.766186,11.5284336 L116.866432,11.5284336 L116.819258,12.8905944 C116.776014,12.882732 116.708202,12.8768353 116.615818,12.872904 C116.523434,12.8689728 116.457587,12.8670072 116.418275,12.8670072 C115.934735,12.8670072 115.535722,12.9702002 115.221225,13.1765892 C114.906727,13.3829783 114.645305,13.6591423 114.43695,14.0050897 L114.43695,18.0620881 L112.950957,18.0620881 Z M117.579945,14.8719193 C117.579945,14.3176173 117.646774,13.8311361 117.780436,13.4124612 C117.914097,12.9937863 118.098862,12.6458786 118.334735,12.3687276 C118.570608,12.0915766 118.857583,11.8822423 119.195668,11.7407184 C119.533753,11.5991945 119.909179,11.5284336 120.321957,11.5284336 C120.667904,11.5284336 121.002053,11.5972289 121.324413,11.7348216 C121.646773,11.8724143 121.92392,12.0729035 122.155862,12.3362952 L122.155862,9.12253916 L123.641855,9.12253916 L123.641855,16.4935393 C123.641855,16.8787988 123.655614,17.1962401 123.683133,17.4458725 C123.710651,17.695505 123.761757,17.9009081 123.83645,18.0620881 L122.303282,18.0620881 C122.260038,17.9716701 122.224658,17.8448902 122.197139,17.6817445 C122.169621,17.5185989 122.155862,17.3564385 122.155862,17.1952585 C121.92392,17.4665127 121.646773,17.69452 121.324413,17.8792873 C121.002053,18.0640547 120.599109,18.1564369 120.115569,18.1564369 C119.753897,18.1564369 119.417782,18.09059 119.107216,17.9588941 C118.79665,17.8271983 118.528348,17.6247435 118.302303,17.3515237 C118.076258,17.078304 117.899355,16.736293 117.771591,16.3254805 C117.643826,15.914668 117.579945,15.4301525 117.579945,14.8719193 Z M119.065938,14.9073001 C119.065938,15.5952635 119.200581,16.1063144 119.469869,16.4404681 C119.739158,16.7746218 120.115566,16.9416961 120.599106,16.9416961 C120.905742,16.9416961 121.19763,16.8591417 121.474781,16.6940305 C121.751932,16.5289193 121.978957,16.3402236 122.155862,16.1279377 L122.155862,13.5569329 C121.955369,13.3014036 121.720483,13.1048455 121.451194,12.9672528 C121.181905,12.8296601 120.913604,12.7608648 120.646281,12.7608648 C120.084116,12.7608648 119.68019,12.9397327 119.434488,13.2974736 C119.188787,13.6552146 119.065938,14.1918181 119.065938,14.9073001 Z M124.821215,17.1775681 L125.634974,16.2753577 C125.874778,16.4837124 126.16765,16.6625802 126.513597,16.8119665 C126.859544,16.9613529 127.238901,17.0360449 127.651679,17.0360449 C128.052664,17.0360449 128.366174,16.9800259 128.592219,16.8679861 C128.818264,16.7559464 128.931285,16.5662678 128.931285,16.2989449 C128.931285,16.1692147 128.892956,16.0601249 128.816297,15.9716725 C128.739639,15.8832201 128.636446,15.8065624 128.506715,15.7416973 C128.376985,15.6768322 128.225635,15.6227787 128.052662,15.5795353 C127.879688,15.5362919 127.696889,15.4910835 127.504259,15.4439089 C127.229074,15.3770782 126.948979,15.3033689 126.663965,15.2227789 C126.378952,15.1421889 126.119495,15.0301508 125.885588,14.8866613 C125.65168,14.7431718 125.460036,14.554476 125.31065,14.3205685 C125.161263,14.0866609 125.086571,13.7849443 125.086571,13.4154096 C125.086571,13.1323618 125.145539,12.8758536 125.263475,12.6458772 C125.381412,12.4159009 125.544555,12.2183601 125.75291,12.0532488 C125.961264,11.8881376 126.210893,11.7593921 126.501803,11.6670084 C126.792714,11.5746248 127.115069,11.5284336 127.468879,11.5284336 C128.082149,11.5284336 128.591234,11.610988 128.99615,11.7760992 C129.401065,11.9412104 129.768629,12.1613554 130.098851,12.4365408 L129.391235,13.3977192 C129.269368,13.30337 129.133743,13.2139361 128.984356,13.1294148 C128.83497,13.0448936 128.679689,12.9702016 128.518509,12.9053364 C128.357329,12.8404713 128.196151,12.790349 128.034971,12.754968 C127.873791,12.7195871 127.720476,12.7018968 127.575021,12.7018968 C127.166174,12.7018968 126.883131,12.7638126 126.725882,12.887646 C126.568633,13.0114795 126.49001,13.1657775 126.49001,13.3505448 C126.49001,13.4802751 126.528339,13.5893648 126.604997,13.6778173 C126.681656,13.7662697 126.781901,13.8429273 126.905734,13.9077925 C127.029568,13.9726576 127.176003,14.026711 127.345046,14.0699545 C127.514088,14.1131979 127.696887,14.1564406 127.893448,14.1996841 C128.164702,14.2625836 128.44578,14.3323617 128.736691,14.4090205 C129.027601,14.4856793 129.289023,14.594769 129.520965,14.7362929 C129.752907,14.8778168 129.945534,15.0665125 130.098851,15.3023857 C130.252169,15.5382589 130.328827,15.8429238 130.328827,16.2163897 C130.328827,16.5544746 130.259049,16.8483289 130.11949,17.0979613 C129.979932,17.3475938 129.787305,17.5529969 129.541604,17.7141769 C129.295903,17.8753569 129.009911,17.9962401 128.683619,18.0768301 C128.357328,18.1574201 128.013352,18.1977145 127.651679,18.1977145 C127.054134,18.1977145 126.505737,18.1023839 126.006472,17.9117197 C125.507207,17.7210556 125.112126,17.4763408 124.821215,17.1775681 Z" id="Cards" fill="#FFFFFF"></path>
                            <path d="M4.02554888,0 L81.727694,0 C82.2835064,-8.00066911e-15 82.7340813,0.450574906 82.7340813,1.00638722 L82.7340813,28.1069572 C82.7340813,28.6627695 82.2835064,29.1133444 81.727694,29.1133444 L4.02554888,29.1133444 C1.80229962,29.1133444 2.93680477e-15,27.3110448 2.66453526e-15,25.0877956 L0,4.02554888 C-2.72269508e-16,1.80229962 1.80229962,1.29658268e-15 4.02554888,8.8817842e-16 Z" id="Rectangle" fill-opacity="0.08" fill="#173145"></path>
                            <path d="M15.955406,13.5923137 C15.955406,12.8453819 16.0605646,12.1819985 16.2708848,11.6021436 C16.4812051,11.0222887 16.767197,10.5367903 17.1288692,10.145634 C17.4905415,9.75447762 17.9170724,9.45865777 18.4084749,9.25816557 C18.8998773,9.05767336 19.430584,8.95742876 20.0006109,8.95742876 C20.5667065,8.95742876 21.0954477,9.05767336 21.5868501,9.25816557 C22.0782526,9.45865777 22.5047835,9.75447762 22.8664558,10.145634 C23.228128,10.5367903 23.5111715,11.0222887 23.715595,11.6021436 C23.9200184,12.1819985 24.0222286,12.8453819 24.0222286,13.5923137 C24.0222286,14.3431766 23.9200184,15.0085256 23.715595,15.5883805 C23.5111715,16.1682354 23.228128,16.652751 22.8664558,17.0419417 C22.5047835,17.4311325 22.0782526,17.7269523 21.5868501,17.9294101 C21.0954477,18.131868 20.5667065,18.2330953 20.0006109,18.2330953 C19.430584,18.2330953 18.8998773,18.131868 18.4084749,17.9294101 C17.9170724,17.7269523 17.4905415,17.4311325 17.1288692,17.0419417 C16.767197,16.652751 16.4812051,16.1682354 16.2708848,15.5883805 C16.0605646,15.0085256 15.955406,14.3431766 15.955406,13.5923137 Z M17.4767804,13.5923137 C17.4767804,14.6498118 17.7067534,15.4596309 18.1667061,16.0217953 C18.6266588,16.5839597 19.2379543,16.8650377 20.0006109,16.8650377 C20.3740768,16.8650377 20.715105,16.793294 21.0237057,16.6498045 C21.3323065,16.506315 21.5956942,16.2950151 21.8138769,16.0158985 C22.0320596,15.7367819 22.2010995,15.3937881 22.3210017,14.9869069 C22.4409039,14.5800256 22.5008541,14.1151659 22.5008541,13.5923137 C22.5008541,13.0694614 22.4409039,12.6046017 22.3210017,12.1977204 C22.2010995,11.7908392 22.0320596,11.4507938 21.8138769,11.177574 C21.5956942,10.9043542 21.3323065,10.6969855 21.0237057,10.5554616 C20.715105,10.4139377 20.3740768,10.3431768 20.0006109,10.3431768 C19.2379543,10.3431768 18.6266588,10.6213064 18.1667061,11.177574 C17.7067534,11.7338416 17.4767804,12.5387468 17.4767804,13.5923137 Z M24.7121542,11.6522664 L26.2748062,11.6522664 L27.8433551,16.3815001 L27.8669423,16.3815001 L29.4236975,11.6522664 L30.8625167,11.6522664 L28.5450743,18.0738817 L27.0354934,18.0738817 L24.7121542,11.6522664 Z M31.4404031,14.8601257 C31.4404031,14.2507866 31.5367166,13.7348218 31.7293463,13.3122156 C31.9219761,12.8896095 32.1676736,12.5446502 32.4664463,12.2773272 C32.765219,12.0100043 33.0954365,11.8183602 33.4571088,11.7023892 C33.818781,11.5864182 34.1647231,11.5284336 34.4949456,11.5284336 C34.8566178,11.5284336 35.2064911,11.5864182 35.544576,11.7023892 C35.8826609,11.8183602 36.1824119,12.0119699 36.443838,12.283224 C36.7052641,12.5544782 36.9145984,12.911231 37.0718472,13.3534932 C37.229096,13.7957555 37.3077192,14.3431696 37.3077192,14.9957521 L37.3077192,15.3436633 L32.9263968,15.3436633 C32.9578465,15.9254838 33.1327832,16.3490664 33.451212,16.6144237 C33.7696408,16.879781 34.166688,17.0124577 34.6423656,17.0124577 C35.0590749,17.0124577 35.4020687,16.945628 35.6713572,16.8119665 C35.9406458,16.678305 36.197154,16.4955061 36.4408896,16.2635641 L37.225164,17.0360449 C36.8870791,17.4055796 36.498877,17.6915715 36.060546,17.8940293 C35.622215,18.0964872 35.1121469,18.1977145 34.5303264,18.1977145 C34.129342,18.1977145 33.7431054,18.134816 33.3716052,18.0090169 C33.0001049,17.8832179 32.671853,17.6856771 32.3868395,17.4163885 C32.1018261,17.1471 31.872836,16.8011578 31.6998623,16.3785517 C31.5268887,15.9559456 31.4404031,15.4498086 31.4404031,14.8601257 Z M32.949984,14.2350649 L35.9455584,14.2350649 C35.8551404,13.2365351 35.3676764,12.7372776 34.483152,12.7372776 C34.2983847,12.7372776 34.123448,12.7628302 33.9583368,12.813936 C33.7932255,12.8650419 33.6399103,12.9515274 33.4983864,13.0733952 C33.3568625,13.1952631 33.2379448,13.3505439 33.14163,13.5392425 C33.0453151,13.727941 32.9814337,13.9598795 32.949984,14.2350649 Z M38.6109121,18.0620881 L38.6109121,11.6522664 L40.0969057,11.6522664 L40.0969057,12.7018968 L40.1204929,12.7018968 C40.3249163,12.3795368 40.6079599,12.1033728 40.9696321,11.8733964 C41.3313043,11.6434201 41.8168027,11.5284336 42.4261417,11.5284336 L42.5263873,11.5284336 L42.4792129,12.8905944 C42.4359695,12.882732 42.368157,12.8768353 42.2757733,12.872904 C42.1833897,12.8689728 42.1175427,12.8670072 42.0782305,12.8670072 C41.5946905,12.8670072 41.1956777,12.9702002 40.8811801,13.1765892 C40.5666825,13.3829783 40.3052603,13.6591423 40.0969057,14.0050897 L40.0969057,18.0620881 L38.6109121,18.0620881 Z M42.8625049,11.6522664 L44.425157,11.6522664 L45.9937058,16.3815001 L46.017293,16.3815001 L47.5740482,11.6522664 L49.0128675,11.6522664 L46.695425,18.0738817 L45.1858442,18.0738817 L42.8625049,11.6522664 Z M50.0035299,10.5377712 L50.0035299,9.24637197 L51.5249043,9.24637197 L51.5249043,10.5377712 L50.0035299,10.5377712 Z M50.0153235,18.0620881 L50.0153235,11.6522664 L51.5131107,11.6522664 L51.5131107,18.0620881 L50.0153235,18.0620881 Z M52.8752715,14.8601257 C52.8752715,14.2507866 52.971585,13.7348218 53.1642147,13.3122156 C53.3568445,12.8896095 53.6025421,12.5446502 53.9013148,12.2773272 C54.2000875,12.0100043 54.530305,11.8183602 54.8919772,11.7023892 C55.2536494,11.5864182 55.5995915,11.5284336 55.929814,11.5284336 C56.2914862,11.5284336 56.6413595,11.5864182 56.9794444,11.7023892 C57.3175293,11.8183602 57.6172803,12.0119699 57.8787064,12.283224 C58.1401326,12.5544782 58.3494669,12.911231 58.5067157,13.3534932 C58.6639644,13.7957555 58.7425877,14.3431696 58.7425877,14.9957521 L58.7425877,15.3436633 L54.3612652,15.3436633 C54.3927149,15.9254838 54.5676516,16.3490664 54.8860804,16.6144237 C55.2045092,16.879781 55.6015564,17.0124577 56.077234,17.0124577 C56.4939433,17.0124577 56.8369371,16.945628 57.1062256,16.8119665 C57.3755142,16.678305 57.6320224,16.4955061 57.875758,16.2635641 L58.6600325,17.0360449 C58.3219476,17.4055796 57.9337454,17.6915715 57.4954144,17.8940293 C57.0570834,18.0964872 56.5470153,18.1977145 55.9651948,18.1977145 C55.5642104,18.1977145 55.1779738,18.134816 54.8064736,18.0090169 C54.4349733,17.8832179 54.1067214,17.6856771 53.821708,17.4163885 C53.5366945,17.1471 53.3077044,16.8011578 53.1347307,16.3785517 C52.9617571,15.9559456 52.8752715,15.4498086 52.8752715,14.8601257 Z M54.3848524,14.2350649 L57.3804268,14.2350649 C57.2900088,13.2365351 56.8025448,12.7372776 55.9180204,12.7372776 C55.7332531,12.7372776 55.5583164,12.7628302 55.3932052,12.813936 C55.228094,12.8650419 55.0747787,12.9515274 54.9332548,13.0733952 C54.7917309,13.1952631 54.6728133,13.3505439 54.5764984,13.5392425 C54.4801835,13.727941 54.4163021,13.9598795 54.3848524,14.2350649 Z M59.3617517,11.6522664 L60.8713325,11.6522664 L61.5671549,14.3058265 C61.6182608,14.4905938 61.6634691,14.6615993 61.7027813,14.8188481 C61.7420935,14.9760969 61.7804223,15.1333433 61.8177689,15.2905921 C61.8551155,15.4478409 61.8934443,15.6129496 61.9327565,15.7859233 C61.9720687,15.958897 62.0113803,16.1456271 62.0506925,16.3461193 L62.0742797,16.3461193 C62.1253856,16.1299022 62.1705939,15.9353098 62.2099061,15.7623361 C62.2492183,15.5893624 62.2875471,15.4242537 62.3248937,15.2670049 C62.3622403,15.1097561 62.4025347,14.9525097 62.4457781,14.7952609 C62.4890215,14.6380121 62.5342299,14.4670066 62.5814045,14.2822393 L63.2595365,11.6522664 L64.4683806,11.6522664 L65.1818934,14.3294137 C65.229068,14.5063186 65.2752592,14.6733929 65.3204682,14.8306417 C65.3656772,14.9878905 65.4059716,15.1451369 65.4413526,15.3023857 C65.4767336,15.4596345 65.512114,15.6227776 65.547495,15.7918201 C65.582876,15.9608625 65.6261187,16.1456271 65.6772246,16.3461193 L65.7008118,16.3461193 C65.7479864,16.1377647 65.792212,15.9490689 65.8334898,15.7800265 C65.8747676,15.610984 65.9130964,15.4498065 65.9484774,15.2964889 C65.9838584,15.1431713 66.0241528,14.9918216 66.0693618,14.8424353 C66.1145708,14.6930489 66.160762,14.5299058 66.2079366,14.3530009 L66.933243,11.6522664 L68.2836102,11.6522664 L66.373047,18.0620881 L64.987299,18.0620881 L63.8256294,13.6041073 L63.8020422,13.6041073 L62.6462693,18.0620881 L61.2664181,18.0620881 L59.3617517,11.6522664 Z" id="Overview" fill-opacity="0.644644475" fill="#173145"></path>
                        </g>
                        <circle id="Oval" fill="#39ABBB" opacity="0.2" cx="897.5" cy="72.5" r="16.5"></circle>
                        <path d="M891,72.8427479 C891,72.2203048 891.082718,71.6691233 891.248157,71.1891869 C891.413596,70.7092506 891.642095,70.3079446 891.93366,69.985257 C892.225225,69.6625694 892.57084,69.4176908 892.970514,69.250614 C893.370188,69.0835372 893.804254,69 894.272724,69 C894.701882,69 895.079437,69.0565104 895.405401,69.169533 C895.731365,69.2825556 896.009822,69.44144 896.240781,69.646191 C896.47174,69.850942 896.662565,70.0941826 896.813262,70.37592 C896.963959,70.6576574 897.080255,70.9705122 897.162156,71.3144939 L895.96314,71.6535599 C895.887792,71.4078587 895.805073,71.1924639 895.714983,71.007369 C895.624892,70.822274 895.512691,70.6674846 895.378374,70.542996 C895.244057,70.4185073 895.086811,70.3243233 894.90663,70.260441 C894.726449,70.1965587 894.511873,70.164618 894.262896,70.164618 C893.630625,70.164618 893.140049,70.3963926 892.791153,70.859949 C892.442257,71.3235053 892.267812,71.9811557 892.267812,72.8329199 C892.267812,73.7239963 892.445533,74.4045785 892.800981,74.8746869 C893.156429,75.3447952 893.650281,75.5798458 894.282552,75.5798458 C894.764126,75.5798458 895.147414,75.4545401 895.432428,75.2039248 C895.717441,74.9533096 895.930379,74.5462707 896.071248,73.9827959 L897.270264,74.2530659 C897.178535,74.6232557 897.051592,74.9606803 896.889429,75.2653498 C896.727266,75.5700194 896.524156,75.8296398 896.280093,76.0442188 C896.03603,76.2587979 895.747745,76.4266912 895.415229,76.5479038 C895.082713,76.6691164 894.701882,76.7297218 894.272724,76.7297218 C893.794426,76.7297218 893.354627,76.6470036 892.953315,76.4815648 C892.552003,76.316126 892.207207,76.0712474 891.918918,75.7469218 C891.630629,75.4225962 891.405406,75.0188333 891.243243,74.5356209 C891.08108,74.0524085 891,73.4881231 891,72.8427479 Z M897.982794,76.5872158 L900.621612,69.108108 L901.85994,69.108108 L904.493844,76.5872158 L903.206376,76.5872158 L902.601954,74.8181759 L899.776404,74.8181759 L899.162154,76.5872158 L897.982794,76.5872158 Z M900.159696,73.7076119 L902.22849,73.7076119 L901.216206,70.690416 L901.19655,70.690416 L900.159696,73.7076119 Z" id="CA" fill="#39ABBB"></path>
                        <rect id="Area-Copy-161" x="889" y="321" width="19" height="19"></rect>
                        <path d="M891.517408,324.410072 C890.981262,324.410072 890.54352,324.804706 890.54352,325.278777 L890.54352,334.721223 C890.54352,335.195294 890.981262,335.589928 891.517408,335.589928 L905.482592,335.589928 C906.018738,335.589928 906.45648,335.195294 906.45648,334.721223 L906.45648,325.278777 C906.45648,324.804706 906.018738,324.410072 905.482592,324.410072 L891.517408,324.410072 Z M891.517408,323 L905.482592,323 C906.866658,323 908,324.021733 908,325.278777 L908,334.721223 C908,335.978267 906.866658,337 905.482592,337 L891.517408,337 C890.133342,337 889,335.978267 889,334.721223 L889,325.278777 C889,324.021733 890.133342,323 891.517408,323 Z" id="Shape" fill="#9CA7B0" fill-rule="nonzero"></path>
                        <path d="M906.770388,323.150974 C907.113527,322.897339 907.596661,322.970772 907.8495,323.314991 C908.102339,323.659211 908.029137,324.143869 907.685998,324.397504 L898.957805,330.849076 C898.685563,331.050308 898.314437,331.050308 898.042195,330.849076 L889.314002,324.397504 C888.970863,324.143869 888.897661,323.659211 889.1505,323.314991 C889.403339,322.970772 889.886473,322.897339 890.229612,323.150974 L898.5,329.264153 L906.770388,323.150974 Z" id="Shape" fill="#9CA7B0" fill-rule="nonzero"></path>
                        <rect id="Area-Copy-184" x="889" y="276" width="19" height="19"></rect>
                        <path d="M906.616867,284.408412 C906.934282,284.107698 907.447762,284.108795 907.763756,284.410862 C908.07975,284.712928 908.078598,285.201579 907.761182,285.502293 L899.545239,293.285926 C897.132872,295.571358 893.223154,295.571358 890.810787,293.285926 C888.396404,290.998585 888.396404,287.288631 890.810787,285.001289 L899.02673,277.217656 C900.740444,275.594115 903.517422,275.594115 905.231137,277.217656 C906.946866,278.843106 906.946866,281.479924 905.230824,283.10567 L897.006253,290.889007 C895.991192,291.850658 894.346954,291.850658 893.331892,290.889007 C892.314816,289.925448 892.314816,288.361768 893.332231,287.397887 L900.922368,280.215601 C901.23997,279.915065 901.753449,279.91645 902.069256,280.218694 C902.385063,280.520938 902.383608,281.009587 902.066006,281.310123 L894.476208,288.492089 C894.095979,288.852311 894.095979,289.434905 894.476208,289.795127 C894.858452,290.157258 895.479694,290.157258 895.86225,289.794831 L904.086821,282.011493 C905.165703,280.98938 905.165703,279.333649 904.086821,278.311537 C903.005924,277.287515 901.251942,277.287515 900.171045,278.311537 L891.955102,286.09517 C890.177568,287.779174 890.177568,290.508042 891.955102,292.192045 C893.734652,293.877958 896.621374,293.877958 898.400923,292.192045 L906.616867,284.408412 Z" id="Shape" fill-opacity="0.4" fill="#173145" fill-rule="nonzero"></path>
                        <path d="M848.874725,335.418496 L848.874725,327.968872 L853.685531,327.968872 L853.685531,329.138404 L850.132709,329.138404 L850.132709,330.990982 L852.737129,330.990982 L852.737129,332.10646 L850.132709,332.10646 L850.132709,334.273534 L853.887005,334.273534 L853.887005,335.418496 L848.874725,335.418496 Z M854.972999,335.418496 L854.972999,330.076978 L856.211326,330.076978 L856.211326,330.809164 C856.420992,330.579843 856.676517,330.383285 856.97791,330.219484 C857.279304,330.055683 857.634746,329.973784 858.044248,329.973784 C858.267018,329.973784 858.458662,329.995897 858.619186,330.040123 C858.779711,330.084349 858.916483,330.143316 859.029505,330.217027 C859.142528,330.290737 859.236712,330.382464 859.31206,330.492211 C859.387409,330.601957 859.45129,330.720711 859.503706,330.848476 C859.716647,330.615879 859.979544,330.41195 860.292403,330.236683 C860.605263,330.061416 860.966438,329.973784 861.37594,329.973784 C861.919759,329.973784 862.315332,330.121202 862.562671,330.416044 C862.810011,330.710885 862.933678,331.100725 862.933678,331.585576 L862.933678,335.418496 L861.69535,335.418496 L861.69535,331.895158 C861.69535,331.593764 861.643754,331.374274 861.540559,331.236682 C861.437365,331.099089 861.23835,331.030294 860.943508,331.030294 C860.687979,331.030294 860.454566,331.094175 860.243263,331.22194 C860.03196,331.349704 859.808376,331.516779 859.572502,331.723168 L859.572502,335.418496 L858.334174,335.418496 L858.334174,331.895158 C858.334174,331.593764 858.282578,331.374274 858.179383,331.236682 C858.076189,331.099089 857.877174,331.030294 857.582332,331.030294 C857.333355,331.030294 857.101581,331.094175 856.887001,331.22194 C856.672422,331.349704 856.4472,331.516779 856.211326,331.723168 L856.211326,335.418496 L854.972999,335.418496 Z M863.93122,334.131028 C863.93122,333.842738 863.995102,333.577385 864.122866,333.33496 C864.250631,333.092535 864.455379,332.879597 864.737116,332.69614 C865.018854,332.512683 865.37921,332.355436 865.818196,332.224396 C866.257182,332.093355 866.787889,331.990162 867.410332,331.914814 L867.410332,331.757566 C867.410332,331.488932 867.339899,331.294012 867.19903,331.1728 C867.058162,331.051587 866.837034,330.990982 866.53564,330.990982 C866.158898,330.990982 865.821474,331.066329 865.523356,331.217026 C865.225239,331.367723 864.963161,331.533159 864.737116,331.71334 L864.132694,330.941842 C864.420984,330.679761 864.782978,330.4529 865.218688,330.261253 C865.654398,330.069606 866.150707,329.973784 866.70763,329.973784 C867.06144,329.973784 867.361191,330.015552 867.606892,330.099091 C867.852593,330.182629 868.050789,330.307116 868.201486,330.472555 C868.352183,330.637994 868.461109,330.841104 868.528267,331.081891 C868.595426,331.322678 868.629004,331.59704 868.629004,331.904986 L868.629004,334.111372 C868.629004,334.432421 868.64047,334.696956 868.663402,334.904983 C868.686334,335.11301 868.725646,335.284179 868.781338,335.418496 L867.533182,335.418496 C867.500422,335.303835 867.471757,335.199823 867.447187,335.106457 C867.422617,335.01309 867.410332,334.889423 867.410332,334.73545 C867.135147,335.017187 866.838672,335.214564 866.520898,335.327587 C866.203125,335.440609 865.842768,335.49712 865.439818,335.49712 C865.223601,335.49712 865.023767,335.467636 864.84031,335.408668 C864.656853,335.349699 864.497969,335.262886 864.363652,335.148226 C864.229336,335.033565 864.123686,334.890242 864.046699,334.718251 C863.969713,334.54626 863.93122,334.350521 863.93122,334.131028 Z M865.144978,333.90007 C865.144978,334.113011 865.212136,334.273533 865.346452,334.381642 C865.480769,334.48975 865.662585,334.543804 865.891906,334.543804 C866.212956,334.543804 866.497965,334.488112 866.746942,334.376728 C866.99592,334.265343 867.217047,334.116287 867.410332,333.929554 L867.410332,332.750194 C866.666677,332.85175 866.10321,332.995074 865.719916,333.180169 C865.336622,333.365264 865.144978,333.605228 865.144978,333.90007 Z M870.00001,329.148232 L870.00001,328.072066 L871.267822,328.072066 L871.267822,329.148232 L870.00001,329.148232 Z M870.009838,335.418496 L870.009838,330.076978 L871.257994,330.076978 L871.257994,335.418496 L870.009838,335.418496 Z M872.746936,335.418496 L872.746936,327.968872 L873.995092,327.968872 L873.995092,335.418496 L872.746936,335.418496 Z M875.027032,334.681396 L875.705164,333.929554 C875.905001,334.103183 876.149061,334.252239 876.43735,334.376728 C876.72564,334.501216 877.04177,334.56346 877.385752,334.56346 C877.719906,334.56346 877.981164,334.516777 878.169535,334.423411 C878.357906,334.330044 878.45209,334.171979 878.45209,333.94921 C878.45209,333.841101 878.420149,333.750193 878.356267,333.676483 C878.292385,333.602772 878.206391,333.538891 878.098282,333.484837 C877.990174,333.430782 877.864049,333.385738 877.719904,333.349702 C877.575759,333.313666 877.423427,333.275992 877.262902,333.23668 C877.033581,333.180987 876.800168,333.119563 876.562657,333.052405 C876.325146,332.985246 876.108932,332.891881 875.914009,332.772307 C875.719086,332.652732 875.559383,332.495486 875.434894,332.300563 C875.310405,332.10564 875.248162,331.854209 875.248162,331.546264 C875.248162,331.310391 875.297302,331.096634 875.395582,330.904987 C875.493863,330.71334 875.629815,330.548723 875.803444,330.41113 C875.977073,330.273537 876.185097,330.166249 876.427522,330.089263 C876.669947,330.012276 876.938577,329.973784 877.233418,329.973784 C877.744477,329.973784 878.168714,330.042579 878.506144,330.180172 C878.843574,330.317765 879.149877,330.501219 879.425062,330.73054 L878.835382,331.531522 C878.733826,331.452897 878.620805,331.378369 878.496316,331.307935 C878.371827,331.2375 878.242427,331.175257 878.10811,331.121203 C877.973793,331.067149 877.839479,331.02538 877.705162,330.995896 C877.570845,330.966412 877.443083,330.95167 877.32187,330.95167 C876.981164,330.95167 876.745295,331.003266 876.614254,331.106461 C876.483213,331.209655 876.417694,331.338237 876.417694,331.49221 C876.417694,331.600318 876.449635,331.691226 876.513517,331.764937 C876.577399,331.838647 876.660937,331.902529 876.764131,331.956583 C876.867326,332.010637 876.989355,332.055682 877.130224,332.091718 C877.271093,332.127754 877.423425,332.16379 877.587226,332.199826 C877.813271,332.252242 878.047503,332.31039 878.289928,332.374273 C878.532353,332.438155 878.750205,332.529063 878.94349,332.647 C879.136775,332.764936 879.297297,332.922183 879.425062,333.118744 C879.552827,333.315305 879.616708,333.569192 879.616708,333.880414 C879.616708,334.162151 879.55856,334.40703 879.442261,334.615057 C879.325962,334.823084 879.16544,334.994253 878.960689,335.12857 C878.755938,335.262886 878.517611,335.363622 878.245702,335.430781 C877.973793,335.497939 877.687146,335.531518 877.385752,335.531518 C876.887798,335.531518 876.4308,335.452076 876.014746,335.293189 C875.598692,335.134302 875.269457,334.930373 875.027032,334.681396 Z" id="Emails" fill-opacity="0.235450634" fill="#173145"></path>
                        <path d="M858.614272,290.418496 L858.614272,282.968872 L863.302228,282.968872 L863.302228,284.138404 L859.872256,284.138404 L859.872256,286.133488 L862.35874,286.133488 L862.35874,287.248966 L859.872256,287.248966 L859.872256,290.418496 L858.614272,290.418496 Z M864.32434,284.148232 L864.32434,283.072066 L865.592152,283.072066 L865.592152,284.148232 L864.32434,284.148232 Z M864.334168,290.418496 L864.334168,285.076978 L865.582324,285.076978 L865.582324,290.418496 L864.334168,290.418496 Z M867.071266,290.418496 L867.071266,282.968872 L868.319422,282.968872 L868.319422,290.418496 L867.071266,290.418496 Z M869.454556,287.750194 C869.454556,287.242411 869.534817,286.812441 869.695342,286.460269 C869.855867,286.108097 870.060615,285.820631 870.309592,285.597862 C870.558569,285.375093 870.833751,285.215389 871.135144,285.118747 C871.436538,285.022104 871.724823,284.973784 872.000008,284.973784 C872.301402,284.973784 872.592963,285.022104 872.8747,285.118747 C873.156438,285.215389 873.40623,285.376731 873.624085,285.602776 C873.84194,285.828821 874.016385,286.126115 874.147426,286.494667 C874.278467,286.863219 874.343986,287.319397 874.343986,287.863216 L874.343986,288.153142 L870.692884,288.153142 C870.719092,288.637992 870.864873,288.990978 871.13023,289.212109 C871.395588,289.43324 871.72646,289.543804 872.122858,289.543804 C872.470116,289.543804 872.755944,289.488112 872.980351,289.376728 C873.204758,289.265343 873.418515,289.113011 873.621628,288.919726 L874.27519,289.56346 C873.993453,289.871405 873.669951,290.109732 873.304675,290.278447 C872.939399,290.447162 872.514343,290.531518 872.029492,290.531518 C871.695338,290.531518 871.373475,290.479102 871.063891,290.37427 C870.754308,290.269437 870.480764,290.10482 870.243253,289.880413 C870.005742,289.656006 869.814917,289.367721 869.670772,289.015549 C869.526627,288.663377 869.454556,288.241596 869.454556,287.750194 Z M870.71254,287.22931 L873.208852,287.22931 C873.133504,286.397202 872.727284,285.981154 871.99018,285.981154 C871.836207,285.981154 871.690427,286.002448 871.552834,286.045036 C871.415241,286.087624 871.287479,286.159695 871.169542,286.261252 C871.051606,286.362808 870.952508,286.492209 870.872245,286.649458 C870.791983,286.806707 870.738748,286.999989 870.71254,287.22931 Z M875.027032,289.681396 L875.705164,288.929554 C875.905001,289.103183 876.149061,289.252239 876.43735,289.376728 C876.72564,289.501216 877.04177,289.56346 877.385752,289.56346 C877.719906,289.56346 877.981164,289.516777 878.169535,289.423411 C878.357906,289.330044 878.45209,289.171979 878.45209,288.94921 C878.45209,288.841101 878.420149,288.750193 878.356267,288.676483 C878.292385,288.602772 878.206391,288.538891 878.098282,288.484837 C877.990174,288.430782 877.864049,288.385738 877.719904,288.349702 C877.575759,288.313666 877.423427,288.275992 877.262902,288.23668 C877.033581,288.180987 876.800168,288.119563 876.562657,288.052405 C876.325146,287.985246 876.108932,287.891881 875.914009,287.772307 C875.719086,287.652732 875.559383,287.495486 875.434894,287.300563 C875.310405,287.10564 875.248162,286.854209 875.248162,286.546264 C875.248162,286.310391 875.297302,286.096634 875.395582,285.904987 C875.493863,285.71334 875.629815,285.548723 875.803444,285.41113 C875.977073,285.273537 876.185097,285.166249 876.427522,285.089263 C876.669947,285.012276 876.938577,284.973784 877.233418,284.973784 C877.744477,284.973784 878.168714,285.042579 878.506144,285.180172 C878.843574,285.317765 879.149877,285.501219 879.425062,285.73054 L878.835382,286.531522 C878.733826,286.452897 878.620805,286.378369 878.496316,286.307935 C878.371827,286.2375 878.242427,286.175257 878.10811,286.121203 C877.973793,286.067149 877.839479,286.02538 877.705162,285.995896 C877.570845,285.966412 877.443083,285.95167 877.32187,285.95167 C876.981164,285.95167 876.745295,286.003266 876.614254,286.106461 C876.483213,286.209655 876.417694,286.338237 876.417694,286.49221 C876.417694,286.600318 876.449635,286.691226 876.513517,286.764937 C876.577399,286.838647 876.660937,286.902529 876.764131,286.956583 C876.867326,287.010637 876.989355,287.055682 877.130224,287.091718 C877.271093,287.127754 877.423425,287.16379 877.587226,287.199826 C877.813271,287.252242 878.047503,287.31039 878.289928,287.374273 C878.532353,287.438155 878.750205,287.529063 878.94349,287.647 C879.136775,287.764936 879.297297,287.922183 879.425062,288.118744 C879.552827,288.315305 879.616708,288.569192 879.616708,288.880414 C879.616708,289.162151 879.55856,289.40703 879.442261,289.615057 C879.325962,289.823084 879.16544,289.994253 878.960689,290.12857 C878.755938,290.262886 878.517611,290.363622 878.245702,290.430781 C877.973793,290.497939 877.687146,290.531518 877.385752,290.531518 C876.887798,290.531518 876.4308,290.452076 876.014746,290.293189 C875.598692,290.134302 875.269457,289.930373 875.027032,289.681396 Z" id="Files" fill-opacity="0.235450634" fill="#173145"></path>
                        <path d="M852.004943,239.138404 L852.004943,237.968872 L857.852602,237.968872 L857.852602,239.138404 L855.557764,239.138404 L855.557764,245.418496 L854.299781,245.418496 L854.299781,239.138404 L852.004943,239.138404 Z M858.47668,244.131028 C858.47668,243.842738 858.540562,243.577385 858.668326,243.33496 C858.796091,243.092535 859.000839,242.879597 859.282576,242.69614 C859.564314,242.512683 859.92467,242.355436 860.363656,242.224396 C860.802643,242.093355 861.333349,241.990162 861.955792,241.914814 L861.955792,241.757566 C861.955792,241.488932 861.885359,241.294012 861.74449,241.1728 C861.603622,241.051587 861.382494,240.990982 861.0811,240.990982 C860.704359,240.990982 860.366934,241.066329 860.068816,241.217026 C859.770699,241.367723 859.508622,241.533159 859.282576,241.71334 L858.678154,240.941842 C858.966444,240.679761 859.328438,240.4529 859.764148,240.261253 C860.199859,240.069606 860.696168,239.973784 861.25309,239.973784 C861.6069,239.973784 861.906651,240.015552 862.152352,240.099091 C862.398054,240.182629 862.59625,240.307116 862.746946,240.472555 C862.897643,240.637994 863.006569,240.841104 863.073727,241.081891 C863.140886,241.322678 863.174464,241.59704 863.174464,241.904986 L863.174464,244.111372 C863.174464,244.432421 863.18593,244.696956 863.208862,244.904983 C863.231794,245.11301 863.271106,245.284179 863.326798,245.418496 L862.078642,245.418496 C862.045882,245.303835 862.017217,245.199823 861.992647,245.106457 C861.968077,245.01309 861.955792,244.889423 861.955792,244.73545 C861.680607,245.017187 861.384132,245.214564 861.066358,245.327587 C860.748585,245.440609 860.388228,245.49712 859.985278,245.49712 C859.769061,245.49712 859.569227,245.467636 859.38577,245.408668 C859.202314,245.349699 859.043429,245.262886 858.909112,245.148226 C858.774796,245.033565 858.669146,244.890242 858.592159,244.718251 C858.515173,244.54626 858.47668,244.350521 858.47668,244.131028 Z M859.690438,243.90007 C859.690438,244.113011 859.757596,244.273533 859.891912,244.381642 C860.026229,244.48975 860.208045,244.543804 860.437366,244.543804 C860.758416,244.543804 861.043425,244.488112 861.292402,244.376728 C861.54138,244.265343 861.762507,244.116287 861.955792,243.929554 L861.955792,242.750194 C861.212137,242.85175 860.64867,242.995074 860.265376,243.180169 C859.882082,243.365264 859.690438,243.605228 859.690438,243.90007 Z M864.098296,244.681396 L864.776428,243.929554 C864.976265,244.103183 865.220325,244.252239 865.508614,244.376728 C865.796904,244.501216 866.113035,244.56346 866.457016,244.56346 C866.79117,244.56346 867.052428,244.516777 867.240799,244.423411 C867.42917,244.330044 867.523354,244.171979 867.523354,243.94921 C867.523354,243.841101 867.491414,243.750193 867.427531,243.676483 C867.363649,243.602772 867.277655,243.538891 867.169546,243.484837 C867.061438,243.430782 866.935313,243.385738 866.791168,243.349702 C866.647024,243.313666 866.494691,243.275992 866.334166,243.23668 C866.104845,243.180987 865.871432,243.119563 865.633921,243.052405 C865.39641,242.985246 865.180196,242.891881 864.985273,242.772307 C864.79035,242.652732 864.630647,242.495486 864.506158,242.300563 C864.38167,242.10564 864.319426,241.854209 864.319426,241.546264 C864.319426,241.310391 864.368566,241.096634 864.466846,240.904987 C864.565127,240.71334 864.701079,240.548723 864.874708,240.41113 C865.048337,240.273537 865.256361,240.166249 865.498786,240.089263 C865.741212,240.012276 866.009841,239.973784 866.304682,239.973784 C866.815741,239.973784 867.239979,240.042579 867.577408,240.180172 C867.914838,240.317765 868.221141,240.501219 868.496326,240.73054 L867.906646,241.531522 C867.80509,241.452897 867.692069,241.378369 867.56758,241.307935 C867.443092,241.2375 867.313691,241.175257 867.179374,241.121203 C867.045058,241.067149 866.910743,241.02538 866.776426,240.995896 C866.64211,240.966412 866.514347,240.95167 866.393134,240.95167 C866.052429,240.95167 865.816559,241.003266 865.685518,241.106461 C865.554478,241.209655 865.488958,241.338237 865.488958,241.49221 C865.488958,241.600318 865.520899,241.691226 865.584781,241.764937 C865.648664,241.838647 865.732201,241.902529 865.835395,241.956583 C865.93859,242.010637 866.06062,242.055682 866.201488,242.091718 C866.342357,242.127754 866.494689,242.16379 866.65849,242.199826 C866.884535,242.252242 867.118767,242.31039 867.361192,242.374273 C867.603617,242.438155 867.821469,242.529063 868.014754,242.647 C868.208039,242.764936 868.368562,242.922183 868.496326,243.118744 C868.624091,243.315305 868.687972,243.569192 868.687972,243.880414 C868.687972,244.162151 868.629824,244.40703 868.513525,244.615057 C868.397227,244.823084 868.236704,244.994253 868.031953,245.12857 C867.827202,245.262886 867.588876,245.363622 867.316966,245.430781 C867.045057,245.497939 866.75841,245.531518 866.457016,245.531518 C865.959062,245.531518 865.502064,245.452076 865.08601,245.293189 C864.669956,245.134302 864.340722,244.930373 864.098296,244.681396 Z M869.764138,245.418496 L869.764138,237.968872 L871.002466,237.968872 L871.002466,242.411128 L873.027034,240.076978 L874.383298,240.076978 L872.643742,242.027836 L874.535632,245.418496 L873.238336,245.418496 L871.857502,242.94184 L871.002466,243.880414 L871.002466,245.418496 L869.764138,245.418496 Z M875.027032,244.681396 L875.705164,243.929554 C875.905001,244.103183 876.149061,244.252239 876.43735,244.376728 C876.72564,244.501216 877.04177,244.56346 877.385752,244.56346 C877.719906,244.56346 877.981164,244.516777 878.169535,244.423411 C878.357906,244.330044 878.45209,244.171979 878.45209,243.94921 C878.45209,243.841101 878.420149,243.750193 878.356267,243.676483 C878.292385,243.602772 878.206391,243.538891 878.098282,243.484837 C877.990174,243.430782 877.864049,243.385738 877.719904,243.349702 C877.575759,243.313666 877.423427,243.275992 877.262902,243.23668 C877.033581,243.180987 876.800168,243.119563 876.562657,243.052405 C876.325146,242.985246 876.108932,242.891881 875.914009,242.772307 C875.719086,242.652732 875.559383,242.495486 875.434894,242.300563 C875.310405,242.10564 875.248162,241.854209 875.248162,241.546264 C875.248162,241.310391 875.297302,241.096634 875.395582,240.904987 C875.493863,240.71334 875.629815,240.548723 875.803444,240.41113 C875.977073,240.273537 876.185097,240.166249 876.427522,240.089263 C876.669947,240.012276 876.938577,239.973784 877.233418,239.973784 C877.744477,239.973784 878.168714,240.042579 878.506144,240.180172 C878.843574,240.317765 879.149877,240.501219 879.425062,240.73054 L878.835382,241.531522 C878.733826,241.452897 878.620805,241.378369 878.496316,241.307935 C878.371827,241.2375 878.242427,241.175257 878.10811,241.121203 C877.973793,241.067149 877.839479,241.02538 877.705162,240.995896 C877.570845,240.966412 877.443083,240.95167 877.32187,240.95167 C876.981164,240.95167 876.745295,241.003266 876.614254,241.106461 C876.483213,241.209655 876.417694,241.338237 876.417694,241.49221 C876.417694,241.600318 876.449635,241.691226 876.513517,241.764937 C876.577399,241.838647 876.660937,241.902529 876.764131,241.956583 C876.867326,242.010637 876.989355,242.055682 877.130224,242.091718 C877.271093,242.127754 877.423425,242.16379 877.587226,242.199826 C877.813271,242.252242 878.047503,242.31039 878.289928,242.374273 C878.532353,242.438155 878.750205,242.529063 878.94349,242.647 C879.136775,242.764936 879.297297,242.922183 879.425062,243.118744 C879.552827,243.315305 879.616708,243.569192 879.616708,243.880414 C879.616708,244.162151 879.55856,244.40703 879.442261,244.615057 C879.325962,244.823084 879.16544,244.994253 878.960689,245.12857 C878.755938,245.262886 878.517611,245.363622 878.245702,245.430781 C877.973793,245.497939 877.687146,245.531518 877.385752,245.531518 C876.887798,245.531518 876.4308,245.452076 876.014746,245.293189 C875.598692,245.134302 875.269457,244.930373 875.027032,244.681396 Z" id="Tasks" fill-opacity="0.235450634" fill="#173145"></path>
                        <path d="M853.223615,187.138404 L853.223615,185.968872 L859.071274,185.968872 L859.071274,187.138404 L856.776436,187.138404 L856.776436,193.418496 L855.518452,193.418496 L855.518452,187.138404 L853.223615,187.138404 Z M859.734664,190.750194 C859.734664,190.242411 859.814926,189.812441 859.97545,189.460269 C860.135975,189.108097 860.340723,188.820631 860.5897,188.597862 C860.838678,188.375093 861.113859,188.215389 861.415252,188.118747 C861.716646,188.022104 862.004931,187.973784 862.280116,187.973784 C862.58151,187.973784 862.873071,188.022104 863.154808,188.118747 C863.436546,188.215389 863.686338,188.376731 863.904193,188.602776 C864.122048,188.828821 864.296494,189.126115 864.427534,189.494667 C864.558575,189.863219 864.624094,190.319397 864.624094,190.863216 L864.624094,191.153142 L860.972992,191.153142 C860.999201,191.637992 861.144981,191.990978 861.410338,192.212109 C861.675696,192.43324 862.006568,192.543804 862.402966,192.543804 C862.750224,192.543804 863.036052,192.488112 863.260459,192.376728 C863.484866,192.265343 863.698623,192.113011 863.901736,191.919726 L864.555298,192.56346 C864.273561,192.871405 863.950059,193.109732 863.584783,193.278447 C863.219508,193.447162 862.794451,193.531518 862.3096,193.531518 C861.975447,193.531518 861.653583,193.479102 861.343999,193.37427 C861.034416,193.269437 860.760873,193.10482 860.523361,192.880413 C860.28585,192.656006 860.095025,192.367721 859.95088,192.015549 C859.806736,191.663377 859.734664,191.241596 859.734664,190.750194 Z M860.992648,190.22931 L863.48896,190.22931 C863.413612,189.397202 863.007392,188.981154 862.270288,188.981154 C862.116316,188.981154 861.970535,189.002448 861.832942,189.045036 C861.69535,189.087624 861.567587,189.159695 861.44965,189.261252 C861.331714,189.362808 861.232616,189.492209 861.152353,189.649458 C861.072091,189.806707 861.018857,189.999989 860.992648,190.22931 Z M865.371022,192.131028 C865.371022,191.842738 865.434904,191.577385 865.562668,191.33496 C865.690433,191.092535 865.895181,190.879597 866.176918,190.69614 C866.458656,190.512683 866.819012,190.355436 867.257998,190.224396 C867.696984,190.093355 868.227691,189.990162 868.850134,189.914814 L868.850134,189.757566 C868.850134,189.488932 868.779701,189.294012 868.638832,189.1728 C868.497964,189.051587 868.276836,188.990982 867.975442,188.990982 C867.5987,188.990982 867.261276,189.066329 866.963158,189.217026 C866.665041,189.367723 866.402963,189.533159 866.176918,189.71334 L865.572496,188.941842 C865.860786,188.679761 866.22278,188.4529 866.65849,188.261253 C867.0942,188.069606 867.590509,187.973784 868.147432,187.973784 C868.501242,187.973784 868.800993,188.015552 869.046694,188.099091 C869.292395,188.182629 869.490591,188.307116 869.641288,188.472555 C869.791985,188.637994 869.900911,188.841104 869.968069,189.081891 C870.035228,189.322678 870.068806,189.59704 870.068806,189.904986 L870.068806,192.111372 C870.068806,192.432421 870.080272,192.696956 870.103204,192.904983 C870.126136,193.11301 870.165448,193.284179 870.22114,193.418496 L868.972984,193.418496 C868.940224,193.303835 868.911559,193.199823 868.886989,193.106457 C868.862419,193.01309 868.850134,192.889423 868.850134,192.73545 C868.574949,193.017187 868.278474,193.214564 867.9607,193.327587 C867.642927,193.440609 867.28257,193.49712 866.87962,193.49712 C866.663403,193.49712 866.463569,193.467636 866.280112,193.408668 C866.096655,193.349699 865.937771,193.262886 865.803454,193.148226 C865.669138,193.033565 865.563488,192.890242 865.486501,192.718251 C865.409515,192.54626 865.371022,192.350521 865.371022,192.131028 Z M866.58478,191.90007 C866.58478,192.113011 866.651938,192.273533 866.786254,192.381642 C866.920571,192.48975 867.102387,192.543804 867.331708,192.543804 C867.652758,192.543804 867.937767,192.488112 868.186744,192.376728 C868.435721,192.265343 868.656849,192.116287 868.850134,191.929554 L868.850134,190.750194 C868.106479,190.85175 867.543012,190.995074 867.159718,191.180169 C866.776424,191.365264 866.58478,191.605228 866.58478,191.90007 Z M871.395586,193.418496 L871.395586,188.076978 L872.633914,188.076978 L872.633914,188.809164 C872.843579,188.579843 873.099105,188.383285 873.400498,188.219484 C873.701892,188.055683 874.057334,187.973784 874.466836,187.973784 C874.689605,187.973784 874.881249,187.995897 875.041774,188.040123 C875.202299,188.084349 875.339071,188.143316 875.452093,188.217027 C875.565116,188.290737 875.6593,188.382464 875.734648,188.492211 C875.809996,188.601957 875.873878,188.720711 875.926294,188.848476 C876.139235,188.615879 876.402132,188.41195 876.714991,188.236683 C877.027851,188.061416 877.389026,187.973784 877.798528,187.973784 C878.342347,187.973784 878.73792,188.121202 878.985259,188.416044 C879.232598,188.710885 879.356266,189.100725 879.356266,189.585576 L879.356266,193.418496 L878.117938,193.418496 L878.117938,189.895158 C878.117938,189.593764 878.066342,189.374274 877.963147,189.236682 C877.859953,189.099089 877.660938,189.030294 877.366096,189.030294 C877.110567,189.030294 876.877154,189.094175 876.665851,189.22194 C876.454548,189.349704 876.230963,189.516779 875.99509,189.723168 L875.99509,193.418496 L874.756762,193.418496 L874.756762,189.895158 C874.756762,189.593764 874.705166,189.374274 874.601971,189.236682 C874.498777,189.099089 874.299762,189.030294 874.00492,189.030294 C873.755943,189.030294 873.524168,189.094175 873.309589,189.22194 C873.09501,189.349704 872.869787,189.516779 872.633914,189.723168 L872.633914,193.418496 L871.395586,193.418496 Z" id="Team" fill-opacity="0.235450634" fill="#173145"></path>
                        <rect id="Area-Copy-82" x="889" y="230" width="19" height="19"></rect>
                        <path d="M906.45648,240.693186 C906.45648,240.266956 906.802009,239.92143 907.22824,239.92143 C907.654471,239.92143 908,240.266956 908,240.693186 L908,241.505295 C907.997594,245.712281 905.228174,249.416585 901.193591,250.609403 C897.159024,251.802218 892.820382,250.199424 890.530469,246.670186 C888.240541,243.140926 888.544872,238.525936 891.278423,235.327903 C894.011956,232.129893 898.523501,231.110638 902.366499,232.822861 C902.755835,232.996327 902.930831,233.452567 902.757364,233.8419 C902.583897,234.231234 902.127656,234.40623 901.73832,234.232764 C898.519692,232.798725 894.741132,233.652382 892.451734,236.330792 C890.162354,239.00918 889.907475,242.87426 891.825311,245.830048 C893.743161,248.785858 897.3769,250.128245 900.755975,249.129227 C904.135034,248.130213 906.454465,245.027802 906.45648,241.504854 L906.45648,240.693186 Z" id="Shape" fill-opacity="0.4" fill="#173145" fill-rule="nonzero"></path>
                        <path d="M908.735741,234.225809 C909.029303,233.920159 909.500268,233.925468 909.787672,234.237668 C910.075075,234.549868 910.070082,235.050734 909.77652,235.356384 L900.731172,244.774192 C900.442002,245.075269 899.979564,245.075269 899.690393,244.774192 L897.22348,242.205698 C896.929918,241.900048 896.924925,241.399182 897.212328,241.086983 C897.499732,240.774783 897.970697,240.769474 898.264259,241.075124 L900.210783,243.101799 L908.735741,234.225809 Z" id="Shape" fill-opacity="0.4" fill="#173145" fill-rule="nonzero"></path>
                        <rect id="Area-Copy-257" x="889" y="177" width="19" height="19"></rect>
                        <path d="M903,197.050847 C903,197.57505 902.653153,198 902.225296,198 C901.797439,198 901.450593,197.57505 901.450593,197.050847 L901.450593,195.016949 C901.450593,193.281367 900.392284,191.898305 899.112648,191.898305 L892.887352,191.898305 C891.607716,191.898305 890.549407,193.281367 890.549407,195.016949 L890.549407,197.050847 C890.549407,197.57505 890.202561,198 889.774704,198 C889.346847,198 889,197.57505 889,197.050847 L889,195.016949 C889,192.259368 890.728852,190 892.887352,190 L899.112648,190 C901.271148,190 903,192.259368 903,195.016949 L903,197.050847 Z" id="Shape" fill-opacity="0.4" fill="#173145" fill-rule="nonzero"></path>
                        <path d="M895,187 C892.790861,187 891,185.209139 891,183 C891,180.790861 892.790861,179 895,179 C897.209139,179 899,180.790861 899,183 C899,185.209139 897.209139,187 895,187 Z M895,185.451613 C896.353988,185.451613 897.451613,184.353988 897.451613,183 C897.451613,181.646012 896.353988,180.548387 895,180.548387 C893.646012,180.548387 892.548387,181.646012 892.548387,183 C892.548387,184.353988 893.646012,185.451613 895,185.451613 Z" id="Oval" fill-opacity="0.4" fill="#173145" fill-rule="nonzero"></path>
                        <path d="M906,195.245529 C906,195.662212 905.758932,196 905.461559,196 C905.164186,196 904.923118,195.662212 904.923118,195.245529 L904.923118,193.716071 C904.922481,192.695953 904.319688,191.767855 903.4229,191.491491 C903.132468,191.401989 902.948807,190.99953 903.012682,190.592573 C903.076557,190.185616 903.363779,189.928268 903.654211,190.01777 C905.020156,190.438713 905.998894,191.945642 906,193.71541 L906,195.245529 Z" id="Shape" fill-opacity="0.4" fill="#173145" fill-rule="nonzero"></path>
                        <path d="M900.41694,180.528486 C900.127253,180.431911 899.946866,180.015977 900.014035,179.599469 C900.081204,179.182962 900.370493,178.923605 900.66018,179.020179 C902.028118,179.476215 903,181.106464 903,183 C903,184.893536 902.028118,186.523785 900.66018,186.979821 C900.370493,187.076395 900.081204,186.817038 900.014035,186.400531 C899.946866,185.984023 900.127253,185.568089 900.41694,185.471514 C901.312116,185.173085 901.92312,184.148179 901.92312,183 C901.92312,181.851821 901.312116,180.826915 900.41694,180.528486 Z" id="Shape" fill-opacity="0.4" fill="#173145" fill-rule="nonzero"></path>
                        <rect id="Rectangle" fill-opacity="0.8" fill="#39ABBB" x="908" y="163" width="19" height="14" rx="7"></rect>
                        <path d="M919.14414,170.995491 L919.810806,170.995491 L919.810806,172.166661 L919.14414,172.166661 L919.14414,173.558552 L917.626123,173.558552 L917.626123,172.166661 L915.09009,172.166661 L915,171.238734 L917.626123,167.013513 L917.626123,167 L919.14414,167 L919.14414,170.995491 Z M916.445944,170.995491 L917.626123,170.995491 L917.626123,168.977475 L917.531529,169.130628 L916.445944,170.995491 Z" id="4" fill="#FFFFFF"></path>
                        <rect id="Rectangle" fill-opacity="0.8" fill="#39ABBB" x="908" y="218" width="19" height="14" rx="7"></rect>
                        <path d="M919.711707,228.653146 L915.135135,228.653146 L915.135135,227.662156 L917.243241,225.445942 C917.522521,225.127623 917.722219,224.855103 917.842339,224.628376 C917.96246,224.401648 918.022519,224.204203 918.022519,224.036034 C918.022519,223.753751 917.960959,223.539038 917.837835,223.39189 C917.714711,223.244743 917.536035,223.17117 917.301799,223.17117 C917.184682,223.17117 917.078076,223.197446 916.98198,223.249999 C916.885883,223.302551 916.804053,223.375374 916.736485,223.468467 C916.668917,223.56156 916.616365,223.670418 916.578827,223.795043 C916.54129,223.919668 916.522521,224.055553 916.522521,224.2027 L915,224.2027 C915,223.902399 915.056306,223.618618 915.168919,223.35135 C915.281532,223.084082 915.440689,222.84985 915.646396,222.648648 C915.852102,222.447446 916.098346,222.289039 916.385134,222.173423 C916.671922,222.057807 916.989486,222 917.337835,222 C917.7012,222 918.020266,222.042792 918.295042,222.128378 C918.569818,222.213964 918.800295,222.337837 918.986482,222.499999 C919.172669,222.662162 919.313058,222.861109 919.407653,223.096846 C919.502248,223.332582 919.549545,223.600597 919.549545,223.900899 C919.549545,224.129128 919.513509,224.347594 919.441437,224.556304 C919.369365,224.765013 919.265762,224.972969 919.130626,225.180177 C918.995491,225.387385 918.830327,225.599094 918.635131,225.815311 C918.439935,226.031528 918.220719,226.261256 917.977474,226.5045 L917.130628,227.481976 L919.711707,227.481976 L919.711707,228.653146 Z" id="2" fill="#FFFFFF"></path>
                        <rect id="Rectangle" fill-opacity="0.8" fill="#39ABBB" x="908" y="309" width="19" height="14" rx="7"></rect>
                        <polygon id="1" fill="#FFFFFF" points="919.018015 319.558552 917.495494 319.558552 917.495494 314.71171 916 315.148646 916 313.995494 918.878375 313 919.018015 313"></polygon>
                    </g>
                </g>
            </g>
        </g>
    </g>
</svg>