<svg xmlns="http://www.w3.org/2000/svg" width="58" height="52" viewBox="0 0 58 52">
  <g fill="none" fill-rule="evenodd" transform="translate(-7 -10)">
    <rect width="72" height="72"/>
    <path fill="#5CD0E0" fill-rule="nonzero" d="M47,25 L63,25 C64.1045695,25 65,25.8954305 65,27 L65,60 C65,61.1045695 64.1045695,62 63,62 L9,62 C7.8954305,62 7,61.1045695 7,60 L7,36 C7,34.8954305 7.8954305,34 9,34 L25,34 L25,12 C25,10.8954305 25.8954305,10 27,10 L45,10 C46.1045695,10 47,10.8954305 47,12 L47,25 Z M11,58 L61,58 L61,29 L45,29 C43.8954305,29 43,28.1045695 43,27 L43,14 L29,14 L29,36 C29,37.1045695 28.1045695,38 27,38 L11,38 L11,58 Z"/>
    <path fill="#5CD0E0" fill-rule="nonzero" d="M25 36C25 34.8954305 25.8954305 34 27 34 28.1045695 34 29 34.8954305 29 36L29 60C29 61.1045695 28.1045695 62 27 62 25.8954305 62 25 61.1045695 25 60L25 36zM43 27C43 25.8954305 43.8954305 25 45 25 46.1045695 25 47 25.8954305 47 27L47 60C47 61.1045695 46.1045695 62 45 62 43.8954305 62 43 61.1045695 43 60L43 27z"/>
  </g>
</svg>
