<svg xmlns="http://www.w3.org/2000/svg" width="70" height="52" viewBox="0 0 70 52">
  <g fill="none" fill-rule="evenodd" transform="translate(-1 -7)">
    <rect width="72" height="72"/>
    <path fill="#31485A" fill-rule="nonzero" d="M36,13 C37.1045695,13 38,13.8954305 38,15 C38,16.1045695 37.1045695,17 36,17 C27.163444,17 20,24.163444 20,33 C20,34.1045695 19.1045695,35 18,35 L15,35 C9.4771525,35 5,39.4771525 5,45 C5,50.5228475 9.4771525,55 15,55 L54,55 C61.1797017,55 67,49.1797017 67,42 C67,40.8954305 67.8954305,40 69,40 C70.1045695,40 71,40.8954305 71,42 C71,51.3888407 63.3888407,59 54,59 L15,59 C7.2680135,59 1,52.7319865 1,45 C1,37.2680135 7.2680135,31 15,31 L16.0987505,31 C17.1021993,20.8933546 25.6293038,13 36,13 Z"/>
    <path fill="#5CD0E0" fill-rule="nonzero" d="M59,39 C59,40.1045695 58.1045695,41 57,41 C55.8954305,41 55,40.1045695 55,39 L55,9 C55,7.8954305 55.8954305,7 57,7 C58.1045695,7 59,7.8954305 59,9 L59,39 Z"/>
    <path fill="#5CD0E0" fill-rule="nonzero" d="M49.4142136,19.4142136 C48.633165,20.1952621 47.366835,20.1952621 46.5857864,19.4142136 C45.8047379,18.633165 45.8047379,17.366835 46.5857864,16.5857864 L55.5857864,7.58578644 C56.366835,6.80473785 57.633165,6.80473785 58.4142136,7.58578644 L67.4142136,16.5857864 C68.1952621,17.366835 68.1952621,18.633165 67.4142136,19.4142136 C66.633165,20.1952621 65.366835,20.1952621 64.5857864,19.4142136 L57,11.8284271 L49.4142136,19.4142136 Z"/>
  </g>
</svg>
