<?xml version="1.0" encoding="UTF-8"?>
<svg width="66px" height="66px" viewBox="0 0 66 66" version="1.1" xmlns="http://www.w3.org/2000/svg" xmlns:xlink="http://www.w3.org/1999/xlink">
    <!-- Generator: Sketch 49.3 (51167) - http://www.bohemiancoding.com/sketch -->
    <title>Group 6</title>
    <desc>Created with Sketch.</desc>
    <defs></defs>
    <g id="Use-Cases" stroke="none" stroke-width="1" fill="none" fill-rule="evenodd">
        <g id="Artboard" transform="translate(-1059.000000, -1370.000000)">
            <g id="Group-6" transform="translate(1058.000000, 1369.000000)">
                <rect id="bounds" x="0" y="0" width="68" height="68"></rect>
                <path d="M27.9895924,7.95490023 L60.0450998,40.0104076 C61.1515853,41.1168931 61.1515853,42.9108606 60.0450998,44.0173461 L44.0173461,60.0450998 C42.9108606,61.1515853 41.1168931,61.1515853 40.0104076,60.0450998 L7.95490023,27.9895924 C6.84841473,26.8831069 6.84841473,25.0891394 7.95490023,23.9826539 L23.9826539,7.95490023 C25.0891394,6.84841473 26.8831069,6.84841473 27.9895924,7.95490023 Z" id="Rectangle" stroke="#455A6A" stroke-width="4" stroke-linecap="round" stroke-linejoin="round"></path>
                <path d="M64.6525362,28.3320751 C62.2394723,15.1981833 51.5929074,4.94523752 38.2619174,3.12231371 L42.5,7.36668396" id="Oval" stroke="#39ABBB" stroke-width="4" stroke-linecap="round" stroke-linejoin="round"></path>
                <path d="M25.4958704,60.6320578 L29.733953,64.8764281 C16.4029631,63.0535043 5.75639817,52.8005585 3.3433342,39.6666667" id="Oval-Copy" stroke="#39ABBB" stroke-width="4" stroke-linecap="round" stroke-linejoin="round"></path>
            </g>
        </g>
    </g>
</svg>