<svg xmlns="http://www.w3.org/2000/svg" width="58" height="52" viewBox="0 0 58 52">
  <g fill="none" fill-rule="evenodd" transform="translate(-7 -10)">
    <rect width="72" height="72"/>
    <path fill="#31485A" fill-rule="nonzero" d="M15,14 C12.790861,14 11,15.790861 11,18 L11,54 C11,56.209139 12.790861,58 15,58 L57,58 C59.209139,58 61,56.209139 61,54 L61,18 C61,15.790861 59.209139,14 57,14 L15,14 Z M15,10 L57,10 C61.418278,10 65,13.581722 65,18 L65,54 C65,58.418278 61.418278,62 57,62 L15,62 C10.581722,62 7,58.418278 7,54 L7,18 C7,13.581722 10.581722,10 15,10 Z"/>
    <path fill="#5CD0E0" fill-rule="nonzero" d="M23 33C23 34.1045695 22.1045695 35 21 35 19.8954305 35 19 34.1045695 19 33L19 24C19 22.8954305 19.8954305 22 21 22L30 22C31.1045695 22 32 22.8954305 32 24 32 25.1045695 31.1045695 26 30 26L23 26 23 33zM49 39C49 37.8954305 49.8954305 37 51 37 52.1045695 37 53 37.8954305 53 39L53 48C53 49.1045695 52.1045695 50 51 50L42 50C40.8954305 50 40 49.1045695 40 48 40 46.8954305 40.8954305 46 42 46L49 46 49 39z"/>
  </g>
</svg>
