<svg xmlns="http://www.w3.org/2000/svg" width="54" height="54" viewBox="0 0 54 54">
  <g fill="none" fill-rule="evenodd" transform="translate(-10 -10)">
    <rect width="74" height="74"/>
    <path fill="#31485A" fill-rule="nonzero" d="M18.3333333,14.3333333 C16.1241943,14.3333333 14.3333333,16.1241943 14.3333333,18.3333333 L14.3333333,55.6666666 C14.3333333,57.8758056 16.1241943,59.6666666 18.3333333,59.6666666 L55.6666666,59.6666666 C57.8758056,59.6666666 59.6666666,57.8758056 59.6666666,55.6666666 L59.6666666,18.3333333 C59.6666666,16.1241943 57.8758056,14.3333333 55.6666666,14.3333333 L18.3333333,14.3333333 Z M18.3333333,10.3333333 L55.6666666,10.3333333 C60.0849446,10.3333333 63.6666666,13.9150553 63.6666666,18.3333333 L63.6666666,55.6666666 C63.6666666,60.0849446 60.0849446,63.6666666 55.6666666,63.6666666 L18.3333333,63.6666666 C13.9150553,63.6666666 10.3333333,60.0849446 10.3333333,55.6666666 L10.3333333,18.3333333 C10.3333333,13.9150553 13.9150553,10.3333333 18.3333333,10.3333333 Z"/>
    <path fill="#5CD0E0" fill-rule="nonzero" d="M26.6666667 49.3333333C26.6666667 50.4379028 25.7712362 51.3333333 24.6666667 51.3333333 23.5620972 51.3333333 22.6666667 50.4379028 22.6666667 49.3333333L22.6666667 33.9166667C22.6666667 32.8120972 23.5620972 31.9166667 24.6666667 31.9166667 25.7712362 31.9166667 26.6666667 32.8120972 26.6666667 33.9166667L26.6666667 49.3333333zM39 49.3333333C39 50.4379028 38.1045695 51.3333333 37 51.3333333 35.8954305 51.3333333 35 50.4379028 35 49.3333333L35 24.6666667C35 23.5620972 35.8954305 22.6666667 37 22.6666667 38.1045695 22.6666667 39 23.5620972 39 24.6666667L39 49.3333333zM51.3333333 49.3333333C51.3333333 50.4379028 50.4379028 51.3333333 49.3333333 51.3333333 48.2287638 51.3333333 47.3333333 50.4379028 47.3333333 49.3333333L47.3333333 43.1666667C47.3333333 42.0620972 48.2287638 41.1666667 49.3333333 41.1666667 50.4379028 41.1666667 51.3333333 42.0620972 51.3333333 43.1666667L51.3333333 49.3333333z"/>
  </g>
</svg>
