<svg xmlns="http://www.w3.org/2000/svg" width="56" height="57" viewBox="0 0 56 57">
  <g fill="none" fill-rule="evenodd" transform="translate(-8 -5)">
    <rect width="72" height="72"/>
    <path fill="#31485A" fill-rule="nonzero" d="M36,62 C21.6405965,62 10,50.3594035 10,36 C10,21.6405965 21.6405965,10 36,10 C50.3594035,10 62,21.6405965 62,36 C62,50.3594035 50.3594035,62 36,62 Z M36,58 C48.1502645,58 58,48.1502645 58,36 C58,23.8497355 48.1502645,14 36,14 C23.8497355,14 14,23.8497355 14,36 C14,48.1502645 23.8497355,58 36,58 Z"/>
    <path fill="#5CD0E0" fill-rule="nonzero" d="M18.3455855 5.77260216C19.298896 5.21468393 20.523989 5.53521275 21.0819073 6.48852331 21.6398255 7.44183388 21.3192967 8.66692687 20.3659861 9.2248451 17.2137237 11.0696842 14.4066 13.461207 12.0805581 16.2790169 11.3773863 17.1308521 10.1168041 17.2513677 9.26496888 16.5481959 8.41313366 15.8450241 8.29261813 14.5844419 8.9957899 13.7326067 11.6202655 10.5532687 14.7875149 7.85493767 18.3455855 5.77260216zM63.0056511 13.7343524C63.708768 14.5862328 63.5881713 15.8468073 62.7362908 16.5499243 61.8844104 17.2530412 60.6238359 17.1324445 59.9207189 16.280564 57.593768 13.4612832 54.7852625 11.0686672 51.6313372 9.22327878 50.6779708 8.665456 50.3573193 7.44039511 50.9151421 6.48702869 51.4729649 5.53366227 52.6980258 5.21301079 53.6513922 5.77083356 57.2113409 7.85378976 60.3801495 10.5533544 63.0056511 13.7343524zM46.4142136 43.5857864C47.1952621 44.366835 47.1952621 45.633165 46.4142136 46.4142136 45.633165 47.1952621 44.366835 47.1952621 43.5857864 46.4142136L34.5857864 37.4142136C34.2107137 37.0391408 34 36.530433 34 36L34 24C34 22.8954305 34.8954305 22 36 22 37.1045695 22 38 22.8954305 38 24L38 35.1715729 46.4142136 43.5857864z"/>
  </g>
</svg>
