<svg xmlns="http://www.w3.org/2000/svg" width="66" height="66" viewBox="0 0 66 66">
  <g fill="none" fill-rule="evenodd" transform="translate(-1 -1)">
    <rect width="68" height="68"/>
    <path fill="#31485A" fill-rule="nonzero" d="M25.3968675,9.36911379 L9.36911379,25.3968675 C9.04367688,25.7223044 9.04367688,26.2499419 9.36911379,26.5753788 L41.4246212,58.6308862 C41.7500581,58.9563232 42.2776956,58.9563232 42.6031325,58.6308862 L58.6308862,42.6031325 C58.9563232,42.2776956 58.9563232,41.7500581 58.6308862,41.4246212 L26.5753788,9.36911379 C26.2499419,9.04367688 25.7223044,9.04367688 25.3968675,9.36911379 Z M61.4593134,38.596194 C63.3468474,40.4837281 63.3468474,43.5440256 61.4593134,45.4315597 L45.4315597,61.4593134 C43.5440256,63.3468474 40.4837281,63.3468474 38.596194,61.4593134 L6.54068667,29.403806 C4.65315258,27.5162719 4.65315258,24.4559744 6.54068667,22.5684403 L22.5684403,6.54068667 C24.4559744,4.65315258 27.5162719,4.65315258 29.403806,6.54068667 L61.4593134,38.596194 Z"/>
    <path fill="#5CD0E0" fill-rule="nonzero" d="M43.9131649 8.78194542C43.1315376 9.56241484 41.8652079 9.56147617 41.0847385 8.77984884L36.8466559 4.53547859C35.493404 3.18021896 36.6353337.881277125 38.5328824 1.14075423 52.6848459 3.07594069 64.0440337 13.9522414 66.6196115 27.9706683 66.819211 29.0570539 66.1003287 30.0995509 65.013943 30.2991504 63.9275574 30.4987499 62.8850604 29.7798676 62.6854609 28.6934819 60.8266776 18.576444 53.7566554 10.3156591 44.4005375 6.74243676 44.6279338 7.43660841 44.4653917 8.23053671 43.9131649 8.78194542zM24.0827055 59.2167963C24.8643329 58.4363269 26.1306625 58.4372656 26.9111319 59.2188929L31.1492145 63.4632632C32.5024664 64.8185229 31.3605367 67.1174647 29.462988 66.8579876 15.3110245 64.9228011 3.95183678 54.0465004 1.37625894 40.0280735 1.17665945 38.9416879 1.89554168 37.8991909 2.98192735 37.6995914 4.06831302 37.4999919 5.11080997 38.2188742 5.31040946 39.3052599 7.16919284 49.4222978 14.239215 57.6830827 23.5953329 61.256305 23.3679366 60.5621334 23.5304787 59.7682051 24.0827055 59.2167963z"/>
  </g>
</svg>
