<?xml version="1.0" encoding="UTF-8"?>
<svg width="52px" height="52px" viewBox="0 0 52 52" version="1.1" xmlns="http://www.w3.org/2000/svg" xmlns:xlink="http://www.w3.org/1999/xlink">
    <!-- Generator: Sketch 49.3 (51167) - http://www.bohemiancoding.com/sketch -->
    <title>group copy</title>
    <desc>Created with Sketch.</desc>
    <defs></defs>
    <g id="Use-Cases" stroke="none" stroke-width="1" fill="none" fill-rule="evenodd">
        <g id="Artboard" transform="translate(-1742.000000, -659.000000)">
            <g id="group-copy" transform="translate(1732.000000, 649.000000)">
                <rect id="bounds" x="0" y="0" width="72" height="72"></rect>
                <path d="M24,54 L11.9999418,54 L11.9999418,48 C11.9999418,41.372583 17.3725248,36 23.9999418,36 L36,36" id="Line-Copy-2" stroke="#39ABBB" stroke-width="4" stroke-linecap="round" stroke-linejoin="round"></path>
                <path d="M29.9962362,18.5107878 C29.0589632,18.1799805 28.0505,18 27,18 C22.0294373,18 18,22.0294373 18,27 C18,31.9705627 22.0294373,36 27,36" id="Oval-Copy" stroke="#39ABBB" stroke-width="4" stroke-linecap="round" stroke-linejoin="round"></path>
                <path d="M24,60 L24,54 C24,44.0588745 32.0588745,36 42,36 C51.9411255,36 60,44.0588745 60,54 L60,60 L24,60 Z" id="Line-Copy" stroke="#39ABBB" stroke-width="4" stroke-linecap="round" stroke-linejoin="round"></path>
                <circle id="Oval" stroke="#39ABBB" stroke-width="4" stroke-linecap="round" stroke-linejoin="round" cx="42" cy="24" r="12"></circle>
            </g>
        </g>
    </g>
</svg>