<svg xmlns="http://www.w3.org/2000/svg" width="52" height="64" viewBox="0 0 52 64">
  <g fill="none" fill-rule="evenodd" transform="translate(-10 -7)">
    <rect width="72" height="72"/>
    <path fill="#5CD0E0" fill-rule="nonzero" d="M50,58 L54,58 C56.209139,58 58,56.209139 58,54 L58,44 L50,44 L50,58 Z M48,40 L60,40 C61.1045695,40 62,40.8954305 62,42 L62,54 C62,58.418278 58.418278,62 54,62 L48,62 C46.8954305,62 46,61.1045695 46,60 L46,42 C46,40.8954305 46.8954305,40 48,40 Z"/>
    <path fill="#5CD0E0" fill-rule="nonzero" d="M51 44C49.8954305 44 49 43.1045695 49 42 49 40.8954305 49.8954305 40 51 40L60 40C61.1045695 40 62 40.8954305 62 42L62 54C62 63.3888407 54.3888407 71 45 71L36 71C34.8954305 71 34 70.1045695 34 69L34 66C34 64.8954305 34.8954305 64 36 64 37.1045695 64 38 64.8954305 38 66L38 67 45 67C52.1797017 67 58 61.1797017 58 54L58 44 51 44zM14 54C14 56.209139 15.790861 58 18 58L22 58 22 44 14 44 14 54zM12 40L24 40C25.1045695 40 26 40.8954305 26 42L26 60C26 61.1045695 25.1045695 62 24 62L18 62C13.581722 62 10 58.418278 10 54L10 42C10 40.8954305 10.8954305 40 12 40z"/>
    <path fill="#5CD0E0" fill-rule="nonzero" d="M62,42 C62,43.1045695 61.1045695,44 60,44 C58.8954305,44 58,43.1045695 58,42 L58,33 C58,20.8497355 48.1502645,11 36,11 C23.8497355,11 14,20.8497355 14,33 L14,42 C14,43.1045695 13.1045695,44 12,44 C10.8954305,44 10,43.1045695 10,42 L10,33 C10,18.6405965 21.6405965,7 36,7 C50.3594035,7 62,18.6405965 62,33 L62,42 Z"/>
  </g>
</svg>
