<?xml version="1.0" encoding="UTF-8"?>
<svg width="52px" height="64px" viewBox="0 0 52 64" version="1.1" xmlns="http://www.w3.org/2000/svg" xmlns:xlink="http://www.w3.org/1999/xlink">
    <!-- Generator: Sketch 49.3 (51167) - http://www.bohemiancoding.com/sketch -->
    <title>headset-mic copy</title>
    <desc>Created with Sketch.</desc>
    <defs></defs>
    <g id="Use-Cases" stroke="none" stroke-width="1" fill="none" fill-rule="evenodd">
        <g id="Artboard" transform="translate(-1742.000000, -804.000000)">
            <g id="headset-mic-copy" transform="translate(1732.000000, 797.000000)">
                <rect id="bounds" x="0" y="0" width="72" height="72"></rect>
                <path d="M48,42 L60,42 L60,54 C60,57.3137085 57.3137085,60 54,60 L48,60 L48,42 Z" id="Rectangle" stroke="#39ABBB" stroke-width="4" stroke-linecap="round" stroke-linejoin="round"></path>
                <path d="M51,42 L60,42 L60,54 C60,62.2842712 53.2842712,69 45,69 L36,69 L36,66" id="Shape-Copy-18" stroke="#39ABBB" stroke-width="4" stroke-linecap="round" stroke-linejoin="round"></path>
                <path d="M12,42 L24,42 L24,60 L18,60 C14.6862915,60 12,57.3137085 12,54 L12,42 Z" id="Rectangle-Copy" stroke="#39ABBB" stroke-width="4" stroke-linecap="round" stroke-linejoin="round"></path>
                <path d="M60,42 L60,33 C60,19.745166 49.254834,9 36,9 C22.745166,9 12,19.745166 12,33 L12,42" id="Oval" stroke="#39ABBB" stroke-width="4" stroke-linecap="round" stroke-linejoin="round"></path>
            </g>
        </g>
    </g>
</svg>