<svg xmlns="http://www.w3.org/2000/svg" xmlns:xlink="http://www.w3.org/1999/xlink" width="771" height="555" viewBox="0 0 771 555">
  <defs>
    <path id="hero-b" d="M387,313 C355.519769,313 330,287.480231 330,256 C330,224.519769 355.519769,199 387,199 C418.480231,199 444,224.519769 444,256 C444,287.480231 418.480231,313 387,313 Z M387,286.692308 C403.950893,286.692308 417.692308,272.950893 417.692308,256 C417.692308,239.049107 403.950893,225.307692 387,225.307692 C370.049107,225.307692 356.307692,239.049107 356.307692,256 C356.307692,272.950893 370.049107,286.692308 387,286.692308 Z"/>
    <filter id="hero-a" width="152.6%" height="152.6%" x="-26.3%" y="-26.3%" filterUnits="objectBoundingBox">
      <feOffset in="SourceAlpha" result="shadowOffsetOuter1"/>
      <feGaussianBlur in="shadowOffsetOuter1" result="shadowBlurOuter1" stdDeviation="10"/>
      <feColorMatrix in="shadowBlurOuter1" values="0 0 0 0 0.223529412   0 0 0 0 0.670588235   0 0 0 0 0.733333333  0 0 0 0.635926178 0"/>
    </filter>
  </defs>
  <g fill="none" fill-rule="evenodd">
    <path fill="#173145" fill-opacity=".03" fill-rule="nonzero" d="M565.5 555C452.005484 555 360 462.994516 360 349.5 360 236.005484 452.005484 144 565.5 144 678.994516 144 771 236.005484 771 349.5 771 462.994516 678.994516 555 565.5 555zM565.5 459C625.97518 459 675 409.97518 675 349.5 675 289.02482 625.97518 240 565.5 240 505.02482 240 456 289.02482 456 349.5 456 409.97518 505.02482 459 565.5 459zM101 304.5C45.4953826 304.5.5 259.504617.5 204 .5 148.495383 45.4953826 103.5 101 103.5 156.504617 103.5 201.5 148.495383 201.5 204 201.5 259.504617 156.504617 304.5 101 304.5zM101 245.5C123.919817 245.5 142.5 226.919817 142.5 204 142.5 181.080183 123.919817 162.5 101 162.5 78.0801829 162.5 59.5 181.080183 59.5 204 59.5 226.919817 78.0801829 245.5 101 245.5z" opacity=".537"/>
    <path fill="#173145" fill-opacity=".08" fill-rule="nonzero" d="M435,248.5 C434.723858,248.5 434.5,248.276142 434.5,248 C434.5,247.723858 434.723858,247.5 435,247.5 L464.52111,247.5 C471.976954,247.5 478.021109,241.455844 478.021109,234 L478.021109,203 C478.021109,194.991871 484.51298,188.5 492.521109,188.5 L511,188.5 C511.276142,188.5 511.5,188.723858 511.5,189 C511.5,189.276142 511.276142,189.5 511,189.5 L492.521109,189.5 C485.065265,189.5 479.021109,195.544156 479.021109,203 L479.021109,234 C479.021109,242.008129 472.529238,248.5 464.52111,248.5 L435,248.5 Z"/>
    <path fill="#173145" fill-opacity=".08" fill-rule="nonzero" d="M297.5,223 C297.223858,223 297,222.776142 297,222.5 C297,222.223858 297.223858,222 297.5,222 L313.045875,222 C320.501719,222 326.545875,215.955844 326.545875,208.5 L326.545875,152.5 C326.545875,144.491871 333.037746,138 341.045875,138 L376.5,138 C376.776142,138 377,138.223858 377,138.5 C377,138.776142 376.776142,139 376.5,139 L341.045875,139 C333.590031,139 327.545875,145.044156 327.545875,152.5 L327.545875,208.5 C327.545875,216.508129 321.054004,223 313.045875,223 L297.5,223 Z" transform="rotate(90 337 180.5)"/>
    <path fill="#173145" fill-opacity=".08" fill-rule="nonzero" d="M371,182 C370.447715,182 370,181.552285 370,181 C370,180.447715 370.447715,180 371,180 L384.211678,180 C391.39138,180 397.211678,174.179702 397.211678,167 L397.211678,129 C397.211678,120.715729 403.927407,114 412.211678,114 L483,114 C483.552285,114 484,114.447715 484,115 C484,115.552285 483.552285,116 483,116 L412.211678,116 C405.031976,116 399.211678,121.820298 399.211678,129 L399.211678,167 C399.211678,175.284271 392.49595,182 384.211678,182 L371,182 Z" transform="matrix(0 -1 -1 0 575 575)"/>
    <path fill="#173145" fill-opacity=".08" fill-rule="nonzero" d="M411.964819,374.833689 C411.688676,374.833689 411.464819,374.609831 411.464819,374.333689 C411.464819,374.057546 411.688676,373.833689 411.964819,373.833689 L414.575193,373.833689 C422.031037,373.833689 428.075193,367.789533 428.075193,360.333689 L428.075193,302.035181 C428.075193,294.027052 434.567064,287.535181 442.575192,287.535181 L460.333689,287.535181 C460.609831,287.535181 460.833689,287.759039 460.833689,288.035181 C460.833689,288.311324 460.609831,288.535181 460.333689,288.535181 L442.575192,288.535181 C435.119348,288.535181 429.075193,294.579337 429.075193,302.035181 L429.075193,360.333689 C429.075193,368.341818 422.583322,374.833689 414.575193,374.833689 L411.964819,374.833689 Z" transform="rotate(-90 436.15 331.184)"/>
    <path fill="#173145" fill-opacity=".08" fill-rule="nonzero" d="M286.650396,397.058559 C286.374254,397.058559 286.150396,396.834702 286.150396,396.558559 C286.150396,396.282417 286.374254,396.058559 286.650396,396.058559 L332.452056,396.058559 C339.907899,396.058559 345.952055,390.014403 345.952055,382.558559 L345.952055,338.349604 C345.952055,330.341475 352.443926,323.849604 360.452055,323.849604 L403.558559,323.849604 C403.834702,323.849604 404.058559,324.073462 404.058559,324.349604 C404.058559,324.625746 403.834702,324.849604 403.558559,324.849604 L360.452055,324.849604 C352.996211,324.849604 346.952055,330.89376 346.952055,338.349604 L346.952055,382.558559 C346.952055,390.566688 340.460184,397.058559 332.452056,397.058559 L286.650396,397.058559 Z" transform="scale(-1 1) rotate(-90 0 705.559)"/>
    <path fill="#173145" fill-opacity=".08" fill-rule="nonzero" d="M435,312 C434.447715,312 434,311.552285 434,311 C434,310.447715 434.447715,310 435,310 L498.424477,310 C505.604179,310 511.424477,304.179702 511.424477,297 L511.424477,276 C511.424477,267.715729 518.140206,261 526.424477,261 L570,261 C570.552285,261 571,261.447715 571,262 C571,262.552285 570.552285,263 570,263 L526.424477,263 C519.244775,263 513.424477,268.820298 513.424477,276 L513.424477,297 C513.424477,305.284271 506.708748,312 498.424477,312 L435,312 Z" transform="matrix(1 0 0 -1 0 573)"/>
    <g fill="#173145" fill-opacity=".08" fill-rule="nonzero" transform="matrix(1 0 0 -1 220 312)">
      <path d="M36.2112676,48.8684211 C35.9351252,48.8684211 35.7112676,48.6445634 35.7112676,48.3684211 C35.7112676,48.0922787 35.9351252,47.8684211 36.2112676,47.8684211 L78.7197141,47.8684211 C86.1755581,47.8684211 92.2197139,41.8242653 92.2197139,34.3684213 L92.2197139,14.9999998 C92.2197139,6.99187102 98.7115849,0.5 106.719714,0.5 L126,0.5 C126.276142,0.5 126.5,0.723857625 126.5,1 C126.5,1.27614237 126.276142,1.5 126,1.5 L106.719714,1.5 C99.2638696,1.5 93.2197139,7.54415577 93.2197139,14.9999998 L93.2197139,34.3684213 C93.2197139,42.37655 86.7278429,48.8684211 78.7197141,48.8684211 L36.2112676,48.8684211 Z" transform="matrix(1 0 0 -1 0 49.368)"/>
      <path d="M1,102 C0.44771525,102 0,101.552285 0,101 C0,100.447715 0.44771525,100 1,100 L61.1088214,100 C68.288523,100 74.1088212,94.1797019 74.1088212,87.0000002 L74.1088212,76.4035085 C74.1088212,68.1192374 80.8245498,61.4035088 89.1088209,61.4035088 L122.478873,61.4035088 C123.031158,61.4035088 123.478873,61.851224 123.478873,62.4035088 C123.478873,62.9557935 123.031158,63.4035088 122.478873,63.4035088 L89.1088209,63.4035088 C81.9291193,63.4035088 76.1088212,69.2238069 76.1088212,76.4035085 L76.1088212,87.0000002 C76.1088212,95.2842714 69.3930925,102 61.1088214,102 L1,102 Z"/>
    </g>
    <g fill-rule="nonzero">
      <use fill="#000" filter="url(#hero-a)" xlink:href="#hero-b"/>
      <use fill="#61BCC9" fill-rule="evenodd" xlink:href="#hero-b"/>
    </g>
    <g transform="translate(176 196)">
      <rect width="35" height="35"/>
      <g fill="#39ABBB" fill-rule="nonzero" transform="translate(14 6)">
        <path d="M1.9,1 C1.40434161,1 1,1.39902132 1,1.875 L1,13.125 C1,13.6009787 1.40434161,14 1.9,14 L17.1,14 C17.5956584,14 18,13.6009787 18,13.125 L18,1.875 C18,1.39902132 17.5956584,1 17.1,1 L1.9,1 Z M1.9,-1 L17.1,-1 C18.6943416,-1 20,0.288478678 20,1.875 L20,13.125 C20,14.7115213 18.6943416,16 17.1,16 L1.9,16 C0.305658394,16 -1,14.7115213 -1,13.125 L-1,1.875 C-1,0.288478678 0.305658394,-1 1.9,-1 Z"/>
        <path d="M17.3642927,0.228069764 C17.790618,-0.123021657 18.4208388,-0.0620325499 18.7719302,0.364292747 C19.1230217,0.790618044 19.0620325,1.42083881 18.6357073,1.77193024 L10.1357073,8.77193024 C9.76645144,9.07602325 9.23354856,9.07602325 8.86429275,8.77193024 L0.364292747,1.77193024 C-0.0620325499,1.42083881 -0.123021657,0.790618044 0.228069764,0.364292747 C0.579161185,-0.0620325499 1.20938196,-0.123021657 1.63570725,0.228069764 L9.5,6.70454614 L17.3642927,0.228069764 Z"/>
      </g>
    </g>
    <g transform="translate(572 296)">
      <rect width="22" height="22" x="5" y="5"/>
      <path fill="#39ABBB" fill-opacity=".8" fill-rule="nonzero" d="M22.2745256,13.2189427 C22.6546361,12.8182753 23.2875817,12.8016108 23.6882491,13.1817214 C24.0889164,13.5618321 24.1055809,14.1947777 23.7254703,14.5954451 L15.6882609,23.0673154 C13.2435602,25.6442282 9.25699962,25.6442282 6.81229891,23.0673154 C4.39590036,20.5202355 4.39590036,16.4113229 6.81229891,13.864243 L14.8495084,5.39237259 C16.6107551,3.53587578 19.4892178,3.53587581 21.2504646,5.39237264 C22.9834091,7.21903672 22.9834091,10.1599243 21.2500907,11.9869822 L13.2045096,20.4584587 C12.1267168,21.5945397 10.3563518,21.5945397 9.27855905,20.4584587 C8.22906842,19.3522105 8.22906842,17.5793479 9.27896419,16.4726729 L16.7039814,8.65532132 C17.0843277,8.2548777 17.717283,8.23858564 18.1177266,8.61893199 C18.5181701,8.99927834 18.5344622,9.63223368 18.1541159,10.0326773 L10.7295038,17.849602 C10.4120865,18.1841856 10.4120865,18.7473728 10.7295038,19.0819564 C11.018619,19.3867072 11.4644496,19.3867072 11.7539386,19.0815625 L19.7995198,10.610086 C20.800391,9.55508657 20.800391,7.82387445 19.7995198,6.76887502 C18.8269507,5.74370834 17.2730222,5.74370833 16.3004531,6.76887498 L8.26324369,15.2407453 C6.57891847,17.0161607 6.57891847,19.9153977 8.26324369,21.6908131 C9.91926675,23.4363956 12.5812931,23.4363956 14.2373161,21.6908131 L22.2745256,13.2189427 Z" transform="rotate(-45 14.5 14.5)"/>
    </g>
    <g fill="#173145" fill-opacity=".4" fill-rule="nonzero" transform="translate(284 111)">
      <path d="M20,9.98319879 C20,9.43091404 20.4477153,8.98319879 21,8.98319879 C21.5522847,8.98319879 22,9.43091404 22,9.98319879 L21.9999999,11.006677 C21.9971053,16.3098171 18.6569823,20.9902483 13.7730036,22.5029564 C8.87416435,24.0202673 3.6097584,21.9828548 0.841405335,17.5130464 C-1.91378445,13.0644916 -1.54812542,7.25543593 1.74341827,3.22120343 C5.05220305,-0.834160368 10.5311932,-2.13093162 15.1964742,0.0466454471 C15.696927,0.280237921 15.91326,0.875299185 15.6796675,1.37575198 C15.446075,1.87620478 14.8510138,2.09253781 14.350561,1.85894534 C10.5207625,0.0713399885 6.02682262,1.13496886 3.29306189,4.48556281 C0.542060063,7.85728807 0.234992662,12.7355258 2.54170936,16.4599718 C4.83526277,20.1631642 9.16156612,21.8375155 13.181279,20.5924952 C17.2158523,19.3428723 19.9975771,15.4449106 20,11.0061312 L20,9.98319879 Z"/>
      <path d="M22.2865514,0.29929198 C22.6735417,-0.0947345521 23.306681,-0.100438509 23.7007075,0.286551834 C24.094734,0.673542178 24.100438,1.30668145 23.7134477,1.70070798 L11.9277337,13.7007078 C11.5358038,14.0997637 10.8927674,14.0997637 10.5008374,13.7007078 L7.28655183,10.4279806 C6.89956149,10.033954 6.90526545,9.40081475 7.29929198,9.0138244 C7.6933185,8.62683406 8.32645777,8.63253802 8.71344811,9.02656455 L11.2142856,11.5728718 L22.2865514,0.29929198 Z"/>
    </g>
    <g fill="#173145" fill-opacity=".235" fill-rule="nonzero" transform="translate(470 365)">
      <path d="M20,9.98319879 C20,9.43091404 20.4477153,8.98319879 21,8.98319879 C21.5522847,8.98319879 22,9.43091404 22,9.98319879 L21.9999999,11.006677 C21.9971053,16.3098171 18.6569823,20.9902483 13.7730036,22.5029564 C8.87416435,24.0202673 3.6097584,21.9828548 0.841405335,17.5130464 C-1.91378445,13.0644916 -1.54812542,7.25543593 1.74341827,3.22120343 C5.05220305,-0.834160368 10.5311932,-2.13093162 15.1964742,0.0466454471 C15.696927,0.280237921 15.91326,0.875299185 15.6796675,1.37575198 C15.446075,1.87620478 14.8510138,2.09253781 14.350561,1.85894534 C10.5207625,0.0713399885 6.02682262,1.13496886 3.29306189,4.48556281 C0.542060063,7.85728807 0.234992662,12.7355258 2.54170936,16.4599718 C4.83526277,20.1631642 9.16156612,21.8375155 13.181279,20.5924952 C17.2158523,19.3428723 19.9975771,15.4449106 20,11.0061312 L20,9.98319879 Z"/>
      <path d="M22.2865514,0.29929198 C22.6735417,-0.0947345521 23.306681,-0.100438509 23.7007075,0.286551834 C24.094734,0.673542178 24.100438,1.30668145 23.7134477,1.70070798 L11.9277337,13.7007078 C11.5358038,14.0997637 10.8927674,14.0997637 10.5008374,13.7007078 L7.28655183,10.4279806 C6.89956149,10.033954 6.90526545,9.40081475 7.29929198,9.0138244 C7.6933185,8.62683406 8.32645777,8.63253802 8.71344811,9.02656455 L11.2142856,11.5728718 L22.2865514,0.29929198 Z"/>
    </g>
    <path fill="#173145" fill-opacity=".4" fill-rule="nonzero" d="M525.57446,195.063479 L526.270655,195.341401 L526.270655,199.655719 C526.270655,199.8314 526.315969,199.903533 526.449008,199.964003 C526.585693,200.02613 526.681459,200.012316 526.835594,199.887311 L532.209554,195.607076 L533.635328,195.607076 C535.68742,195.607076 537.415568,194.894972 538.850937,193.458809 C540.288062,192.020889 541,190.312205 541,188.303538 C541,186.29487 540.288062,184.586187 538.850937,183.148267 C537.415568,181.712103 535.68742,181 533.635328,181 L528.364672,181 C526.31258,181 524.584432,181.712103 523.149063,183.148267 C521.711938,184.586187 521,186.29487 521,188.303538 C521,189.880046 521.452301,191.288162 522.360354,192.543809 C523.200372,193.705379 524.268866,194.542283 525.57446,195.063479 Z M520.744443,193.769786 C519.585844,192.166472 519,190.341227 519,188.341518 C519,185.795869 519.926956,183.56945 521.742187,181.751839 C523.561791,179.92985 525.816665,179 528.412587,179 L533.587413,179 C536.183335,179 538.438209,179.92985 540.257813,181.751839 C542.073044,183.56945 543,185.795869 543,188.341518 C543,190.887168 542.073044,193.113587 540.257813,194.931198 C538.438209,196.753186 536.183335,197.683036 533.587413,197.683036 L532.955244,197.683036 L528.28523,201.405357 C527.507388,202.036967 526.527118,202.178479 525.622689,201.767078 C524.705961,201.350084 524.174825,200.503956 524.174825,199.495732 L524.174825,196.68805 C522.809791,196.015173 521.660371,195.037282 520.744443,193.769786 Z"/>
    <path fill="#39ABBB" fill-rule="nonzero" d="M303.57446,443.063479 L304.270655,443.341401 L304.270655,447.655719 C304.270655,447.8314 304.315969,447.903533 304.449008,447.964003 C304.585693,448.02613 304.681459,448.012316 304.835594,447.887311 L310.209554,443.607076 L311.635328,443.607076 C313.68742,443.607076 315.415568,442.894972 316.850937,441.458809 C318.288062,440.020889 319,438.312205 319,436.303538 C319,434.29487 318.288062,432.586187 316.850937,431.148267 C315.415568,429.712103 313.68742,429 311.635328,429 L306.364672,429 C304.31258,429 302.584432,429.712103 301.149063,431.148267 C299.711938,432.586187 299,434.29487 299,436.303538 C299,437.880046 299.452301,439.288162 300.360354,440.543809 C301.200372,441.705379 302.268866,442.542283 303.57446,443.063479 Z M298.744443,441.769786 C297.585844,440.166472 297,438.341227 297,436.341518 C297,433.795869 297.926956,431.56945 299.742187,429.751839 C301.561791,427.92985 303.816665,427 306.412587,427 L311.587413,427 C314.183335,427 316.438209,427.92985 318.257813,429.751839 C320.073044,431.56945 321,433.795869 321,436.341518 C321,438.887168 320.073044,441.113587 318.257813,442.931198 C316.438209,444.753186 314.183335,445.683036 311.587413,445.683036 L310.955244,445.683036 L306.28523,449.405357 C305.507388,450.036967 304.527118,450.178479 303.622689,449.767078 C302.705961,449.350084 302.174825,448.503956 302.174825,447.495732 L302.174825,444.68805 C300.809791,444.015173 299.660371,443.037282 298.744443,441.769786 Z"/>
    <path fill="#39ABBB" fill-rule="nonzero" d="M2,19.1482176 L2,23.5046904 C2,23.4915572 2.00765151,23.5076849 2.10986356,23.6087972 C2.32669337,23.8232941 2.71347054,24.0581368 3.23602497,24.2707336 C4.35647897,24.7265808 5.90358921,25 7.28173375,25 C8.66494321,25 10.0546174,24.761466 11.0182161,24.3526125 C11.7634858,24.0363956 12,23.7780881 12,23.639654 L12,19.1482176 C12,16.5524887 9.96644792,14.4615385 7.49182701,14.4615385 L6.50817299,14.4615385 C4.0227973,14.4615385 2,16.5426884 2,19.1482176 Z M0,19.1482176 C0,15.4552667 2.90080905,12.4615385 6.50817299,12.4615385 L7.49182701,12.4615385 C11.0861917,12.4615385 14,15.4627811 14,19.1482176 L14,23.639654 C14,25.9700857 10.3711644,27 7.28173375,27 C4.19230308,27 0,25.8271949 0,23.5046904 L0,19.1482176 Z M6.97916667,9.91973244 C9.15612613,9.91973244 10.9230769,8.14803841 10.9230769,5.95986622 C10.9230769,3.77169403 9.15612613,2 6.97916667,2 C4.8022072,2 3.03525641,3.77169403 3.03525641,5.95986622 C3.03525641,8.14803841 4.8022072,9.91973244 6.97916667,9.91973244 Z M6.97916667,11.9197324 C3.69643568,11.9197324 1.03525641,9.25140945 1.03525641,5.95986622 C1.03525641,2.668323 3.69643568,0 6.97916667,0 C10.2618977,0 12.9230769,2.668323 12.9230769,5.95986622 C12.9230769,9.25140945 10.2618977,11.9197324 6.97916667,11.9197324 Z" transform="translate(453 58)"/>
    <path fill="#173145" fill-opacity=".4" fill-rule="nonzero" d="M2.67995842,18.4744759 C3.51327168,18.8009458 4.68291679,19 5.72136223,19 C6.76295467,19 7.80778819,18.8272993 8.51449846,18.538549 C8.73762722,18.4473822 8.90136802,18.3552024 9,18.2795424 L9,15.0592334 C9,13.3778465 7.60843706,12 5.88643551,12 L5.11356449,12 C3.38316143,12 2,13.3703561 2,15.0592334 L2,18.1195246 C2.13974665,18.2272813 2.37208669,18.3538599 2.67995842,18.4744759 Z M0,15.0592334 C0,12.265096 2.27920711,10 5.11356449,10 L5.88643551,10 C8.71057919,10 11,12.2707815 11,15.0592334 L11,18.457516 C11,20.2207526 8.14877204,21 5.72136223,21 C3.29395242,21 0,20.1126396 0,18.3554007 L0,15.0592334 Z M5.5,7 C6.88071187,7 8,5.88071187 8,4.5 C8,3.11928813 6.88071187,2 5.5,2 C4.11928813,2 3,3.11928813 3,4.5 C3,5.88071187 4.11928813,7 5.5,7 Z M5.5,9 C3.01471863,9 1,6.98528137 1,4.5 C1,2.01471863 3.01471863,0 5.5,0 C7.98528137,0 10,2.01471863 10,4.5 C10,6.98528137 7.98528137,9 5.5,9 Z" transform="translate(238 299)"/>
    <g fill="#C8CFD3" fill-rule="nonzero" transform="translate(288 67)">
      <path d="M6.33333333,1 C6.33333333,0.44771525 6.78104858,0 7.33333333,0 C7.88561808,0 8.33333333,0.44771525 8.33333333,1 L8.33333333,12 C8.33333333,12.5522847 7.88561808,13 7.33333333,13 C6.78104858,13 6.33333333,12.5522847 6.33333333,12 L6.33333333,1 Z"/>
      <path d="M6.33333333,1 C6.33333333,0.44771525 6.78104858,0 7.33333333,0 C7.88561808,0 8.33333333,0.44771525 8.33333333,1 L8.33333333,12 C8.33333333,12.5522847 7.88561808,13 7.33333333,13 C6.78104858,13 6.33333333,12.5522847 6.33333333,12 L6.33333333,1 Z" transform="rotate(90 7.333 6.5)"/>
    </g>
    <g fill="#C8CFD3" fill-rule="nonzero" transform="translate(555 194)">
      <path d="M6,0.928571429 C6,0.415735589 6.44771525,0 7,0 C7.55228475,0 8,0.415735589 8,0.928571429 L8,12.0714286 C8,12.5842644 7.55228475,13 7,13 C6.44771525,13 6,12.5842644 6,12.0714286 L6,0.928571429 Z"/>
      <path d="M6,0.928571429 C6,0.415735589 6.44771525,0 7,0 C7.55228475,0 8,0.415735589 8,0.928571429 L8,12.0714286 C8,12.5842644 7.55228475,13 7,13 C6.44771525,13 6,12.5842644 6,12.0714286 L6,0.928571429 Z" transform="rotate(90 7 6.5)"/>
    </g>
    <g fill="#DADCDD" fill-rule="nonzero" transform="translate(178 220)">
      <path d="M4.75,1 C4.75,0.585786438 5.08578644,0.25 5.5,0.25 C5.91421356,0.25 6.25,0.585786438 6.25,1 L6.25,10 C6.25,10.4142136 5.91421356,10.75 5.5,10.75 C5.08578644,10.75 4.75,10.4142136 4.75,10 L4.75,1 Z"/>
      <path d="M4.75,1 C4.75,0.585786438 5.08578644,0.25 5.5,0.25 C5.91421356,0.25 6.25,0.585786438 6.25,1 L6.25,10 C6.25,10.4142136 5.91421356,10.75 5.5,10.75 C5.08578644,10.75 4.75,10.4142136 4.75,10 L4.75,1 Z" transform="rotate(90 5.5 5.5)"/>
    </g>
    <g fill="#DADCDD" fill-rule="nonzero" transform="translate(273 431)">
      <path d="M4.75,1 C4.75,0.585786438 5.08578644,0.25 5.5,0.25 C5.91421356,0.25 6.25,0.585786438 6.25,1 L6.25,10 C6.25,10.4142136 5.91421356,10.75 5.5,10.75 C5.08578644,10.75 4.75,10.4142136 4.75,10 L4.75,1 Z"/>
      <path d="M4.75,1 C4.75,0.585786438 5.08578644,0.25 5.5,0.25 C5.91421356,0.25 6.25,0.585786438 6.25,1 L6.25,10 C6.25,10.4142136 5.91421356,10.75 5.5,10.75 C5.08578644,10.75 4.75,10.4142136 4.75,10 L4.75,1 Z" transform="rotate(90 5.5 5.5)"/>
    </g>
    <path fill="#173145" fill-opacity=".235" fill-rule="nonzero" d="M170.5,195.75 C166.495936,195.75 163.25,192.504064 163.25,188.5 C163.25,184.495936 166.495936,181.25 170.5,181.25 C174.504064,181.25 177.75,184.495936 177.75,188.5 C177.75,192.504064 174.504064,195.75 170.5,195.75 Z M170.5,194.25 C173.675637,194.25 176.25,191.675637 176.25,188.5 C176.25,185.324363 173.675637,182.75 170.5,182.75 C167.324363,182.75 164.75,185.324363 164.75,188.5 C164.75,191.675637 167.324363,194.25 170.5,194.25 Z"/>
    <path fill="#EBECEC" fill-rule="nonzero" d="M615 316C611.686292 316 609 313.313708 609 310 609 306.686292 611.686292 304 615 304 618.313708 304 621 306.686292 621 310 621 313.313708 618.313708 316 615 316zM615 314C617.209139 314 619 312.209139 619 310 619 307.790861 617.209139 306 615 306 612.790861 306 611 307.790861 611 310 611 312.209139 612.790861 314 615 314zM471 411C467.686292 411 465 408.313708 465 405 465 401.686292 467.686292 399 471 399 474.313708 399 477 401.686292 477 405 477 408.313708 474.313708 411 471 411zM471 409C473.209139 409 475 407.209139 475 405 475 402.790861 473.209139 401 471 401 468.790861 401 467 402.790861 467 405 467 407.209139 468.790861 409 471 409zM338 432C334.686292 432 332 429.313708 332 426 332 422.686292 334.686292 420 338 420 341.313708 420 344 422.686292 344 426 344 429.313708 341.313708 432 338 432zM338 430C340.209139 430 342 428.209139 342 426 342 423.790861 340.209139 422 338 422 335.790861 422 334 423.790861 334 426 334 428.209139 335.790861 430 338 430zM551.5 150C548.462434 150 546 147.537566 546 144.5 546 141.462434 548.462434 139 551.5 139 554.537566 139 557 141.462434 557 144.5 557 147.537566 554.537566 150 551.5 150zM551.5 148.058824C553.465484 148.058824 555.058824 146.465484 555.058824 144.5 555.058824 142.534516 553.465484 140.941176 551.5 140.941176 549.534516 140.941176 547.941176 142.534516 547.941176 144.5 547.941176 146.465484 549.534516 148.058824 551.5 148.058824zM386.5 11C383.462434 11 381 8.53756612 381 5.5 381 2.46243388 383.462434 0 386.5 0 389.537566 0 392 2.46243388 392 5.5 392 8.53756612 389.537566 11 386.5 11zM386.5 9.05882353C388.465484 9.05882353 390.058824 7.46548396 390.058824 5.5 390.058824 3.53451604 388.465484 1.94117647 386.5 1.94117647 384.534516 1.94117647 382.941176 3.53451604 382.941176 5.5 382.941176 7.46548396 384.534516 9.05882353 386.5 9.05882353z"/>
    <path fill="#39ABBB" fill-opacity=".64" fill-rule="nonzero" d="M142.5 213C140.014719 213 138 210.985281 138 208.5 138 206.014719 140.014719 204 142.5 204 144.985281 204 147 206.014719 147 208.5 147 210.985281 144.985281 213 142.5 213zM142.5 211C143.880712 211 145 209.880712 145 208.5 145 207.119288 143.880712 206 142.5 206 141.119288 206 140 207.119288 140 208.5 140 209.880712 141.119288 211 142.5 211zM631.5 328C629.567003 328 628 326.432997 628 324.5 628 322.567003 629.567003 321 631.5 321 633.432997 321 635 322.567003 635 324.5 635 326.432997 633.432997 328 631.5 328zM631.5 326C632.328427 326 633 325.328427 633 324.5 633 323.671573 632.328427 323 631.5 323 630.671573 323 630 323.671573 630 324.5 630 325.328427 630.671573 326 631.5 326zM357.5 440C355.567003 440 354 438.432997 354 436.5 354 434.567003 355.567003 433 357.5 433 359.432997 433 361 434.567003 361 436.5 361 438.432997 359.432997 440 357.5 440zM357.5 438C358.328427 438 359 437.328427 359 436.5 359 435.671573 358.328427 435 357.5 435 356.671573 435 356 435.671573 356 436.5 356 437.328427 356.671573 438 357.5 438z"/>
    <path fill="#EBECEC" fill-rule="nonzero" d="M278.5 105C276.014719 105 274 102.985281 274 100.5 274 98.0147186 276.014719 96 278.5 96 280.985281 96 283 98.0147186 283 100.5 283 102.985281 280.985281 105 278.5 105zM278.5 103C279.880712 103 281 101.880712 281 100.5 281 99.1192881 279.880712 98 278.5 98 277.119288 98 276 99.1192881 276 100.5 276 101.880712 277.119288 103 278.5 103zM587.5 354C585.014719 354 583 351.985281 583 349.5 583 347.014719 585.014719 345 587.5 345 589.985281 345 592 347.014719 592 349.5 592 351.985281 589.985281 354 587.5 354zM587.5 352C588.880712 352 590 350.880712 590 349.5 590 348.119288 588.880712 347 587.5 347 586.119288 347 585 348.119288 585 349.5 585 350.880712 586.119288 352 587.5 352zM483.5 460C481.014719 460 479 457.985281 479 455.5 479 453.014719 481.014719 451 483.5 451 485.985281 451 488 453.014719 488 455.5 488 457.985281 485.985281 460 483.5 460zM483.5 458C484.880712 458 486 456.880712 486 455.5 486 454.119288 484.880712 453 483.5 453 482.119288 453 481 454.119288 481 455.5 481 456.880712 482.119288 458 483.5 458z"/>
    <path fill="#173145" fill-opacity=".235" fill-rule="nonzero" d="M580.5,188 C578.567003,188 577,186.432997 577,184.5 C577,182.567003 578.567003,181 580.5,181 C582.432997,181 584,182.567003 584,184.5 C584,186.432997 582.432997,188 580.5,188 Z M580.5,186.090909 C581.378635,186.090909 582.090909,185.378635 582.090909,184.5 C582.090909,183.621365 581.378635,182.909091 580.5,182.909091 C579.621365,182.909091 578.909091,183.621365 578.909091,184.5 C578.909091,185.378635 579.621365,186.090909 580.5,186.090909 Z"/>
  </g>
</svg>
