<svg xmlns="http://www.w3.org/2000/svg" width="125" height="104" viewBox="0 0 125 104">
  <g fill="#5CD0E0">
    <path d="M95.3777778 104L88.1777778 104 88.1777778 92.5185185C88.1777778 81.7898295 79.9264757 73.1555556 69.8333333 73.1555556L25.9444444 73.1555556C15.8513021 73.1555556 7.6 81.7898295 7.6 92.5185185L7.6 104 .4 104 .4 92.5185185C.4 77.884615 11.7999479 65.9555556 25.9444444 65.9555556L69.8333333 65.9555556C83.9778299 65.9555556 95.3777778 77.8846149 95.3777778 92.5185185L95.3777778 104zM49 7.6C38.4091973 7.6 29.8222222 16.1869751 29.8222222 26.7777778 29.8222222 37.3685805 38.4091973 45.9555556 49 45.9555556 59.5908027 45.9555556 68.1777778 37.3685805 68.1777778 26.7777778 68.1777778 16.1869751 59.5908027 7.6 49 7.6zM49 .4C63.5672529.4 75.3777778 12.2105249 75.3777778 26.7777778 75.3777778 41.3450307 63.5672529 53.1555556 49 53.1555556 34.4327471 53.1555556 22.6222222 41.3450307 22.6222222 26.7777778 22.6222222 12.2105249 34.4327471.4 49 .4zM124.266667 104L117.066667 104 117.066667 93.0232551C117.062308 84.6109598 111.721165 77.3179195 104.161359 75.2502367L106.060863 68.3053189C116.807823 71.2447202 124.260656 81.4211584 124.266667 93.0213894L124.266667 104zM83.0162939 7.46299325L84.9837061.537006755C97.9616672 4.22355743 105.661949 18.6428439 102.412409 32.7195803 100.254673 42.0822574 93.6002324 49.4621426 84.9828373 51.9076843L83.0171627 44.9812045C89.0351584 43.2733497 93.8124467 37.9752574 95.3966143 31.1013656 97.8125423 20.6357651 92.1658987 10.0620519 83.0162939 7.46299325z"/>
  </g>
</svg>
