<?xml version="1.0" encoding="UTF-8"?>
<svg width="947px" height="573px" viewBox="0 0 947 573" version="1.1" xmlns="http://www.w3.org/2000/svg" xmlns:xlink="http://www.w3.org/1999/xlink">
    <!-- Generator: Sketch 49.3 (51167) - http://www.bohemiancoding.com/sketch -->
    <title>HR / Recruiting Copy</title>
    <desc>Created with Sketch.</desc>
    <defs>
        <rect id="path-1" x="63" y="43" width="818" height="405" rx="9.36000089"></rect>
        <filter x="-2.8%" y="-5.4%" width="105.6%" height="111.4%" filterUnits="objectBoundingBox" id="filter-2">
            <feOffset dx="0" dy="1" in="SourceAlpha" result="shadowOffsetOuter1"></feOffset>
            <feGaussianBlur stdDeviation="7.5" in="shadowOffsetOuter1" result="shadowBlurOuter1"></feGaussianBlur>
            <feColorMatrix values="0 0 0 0 0.0901960784   0 0 0 0 0.192156863   0 0 0 0 0.270588235  0 0 0 0.22 0" type="matrix" in="shadowBlurOuter1"></feColorMatrix>
        </filter>
        <rect id="path-3" x="52.6748466" y="0" width="303.325153" height="74.9535452"></rect>
        <filter x="-9.6%" y="-38.7%" width="122.4%" height="190.7%" filterUnits="objectBoundingBox" id="filter-4">
            <feOffset dx="5" dy="5" in="SourceAlpha" result="shadowOffsetOuter1"></feOffset>
            <feGaussianBlur stdDeviation="10.5" in="shadowOffsetOuter1" result="shadowBlurOuter1"></feGaussianBlur>
            <feColorMatrix values="0 0 0 0 0.0901960784   0 0 0 0 0.192156863   0 0 0 0 0.270588235  0 0 0 0.08 0" type="matrix" in="shadowBlurOuter1"></feColorMatrix>
        </filter>
        <path d="M14.2952741,10.7214556 C14.2952741,11.7042557 15.0993832,12.5083648 16.0821833,12.5083648 C17.0649834,12.5083648 17.8690926,11.7042557 17.8690926,10.7214556 C17.8690926,9.73865547 17.0649834,8.9345463 16.0821833,8.9345463 C15.0993832,8.9345463 14.2952741,9.73865547 14.2952741,10.7214556 Z M8.9345463,10.7214556 C8.9345463,11.7042557 9.73865547,12.5083648 10.7214556,12.5083648 C11.7042557,12.5083648 12.5083648,11.7042557 12.5083648,10.7214556 C12.5083648,9.73865547 11.7042557,8.9345463 10.7214556,8.9345463 C9.73865547,8.9345463 8.9345463,9.73865547 8.9345463,10.7214556 Z M3.57381852,10.7214556 C3.57381852,11.7042557 4.37792769,12.5083648 5.36072778,12.5083648 C6.34352787,12.5083648 7.14763704,11.7042557 7.14763704,10.7214556 C7.14763704,9.73865547 6.34352787,8.9345463 5.36072778,8.9345463 C4.37792769,8.9345463 3.57381852,9.73865547 3.57381852,10.7214556 Z" id="path-5"></path>
        <rect id="path-7" x="0" y="0" width="745.539007" height="164.66031" rx="18.7200018"></rect>
        <path d="M12.5440726,0.396964323 C12.6917433,0.142113228 12.9616791,0 13.2347905,0 C13.3673766,0 13.5015506,0.0333450032 13.6222277,0.102416795 L16.3858933,1.69741945 C16.7614216,1.91574982 16.8868623,2.40163416 16.6693259,2.77875026 L8.09569041,17.6291856 L4.93744225,18.3357821 L3.96964323,15.2473997 L12.5440726,0.396964323 Z M12.729058,3.25351959 L14.1033485,4.04824217 L14.8980711,2.67236382 L13.5221927,1.87843518 L12.729058,3.25351959 Z M5.69405625,15.4379425 L6.01639128,16.467668 L7.06914067,16.2318712 L13.3102138,5.42253266 L11.9343354,4.62939794 L5.69405625,15.4379425 Z" id="path-9"></path>
        <path d="M6.48388184,8.87588705 C6.09033714,8.48234235 5.45227511,8.48234235 5.05873041,8.87588705 C4.6651857,9.26943175 4.6651857,9.90749379 5.05873041,10.3010385 L8.08193314,13.3242412 C8.50095,13.7432581 9.1893117,13.7120333 9.56867175,13.2568012 L14.607343,7.21039578 C14.9636416,6.78283742 14.9058742,6.14739578 14.4783158,5.79109715 C14.0507575,5.43479852 13.4153158,5.49256594 13.0590172,5.9201243 L8.72679078,11.118796 L6.48388184,8.87588705 Z" id="path-11"></path>
        <path d="M6.48388184,8.87588705 C6.09033714,8.48234235 5.45227511,8.48234235 5.05873041,8.87588705 C4.6651857,9.26943175 4.6651857,9.90749379 5.05873041,10.3010385 L8.08193314,13.3242412 C8.50095,13.7432581 9.1893117,13.7120333 9.56867175,13.2568012 L14.607343,7.21039578 C14.9636416,6.78283742 14.9058742,6.14739578 14.4783158,5.79109715 C14.0507575,5.43479852 13.4153158,5.49256594 13.0590172,5.9201243 L8.72679078,11.118796 L6.48388184,8.87588705 Z" id="path-13"></path>
        <path d="M5.15021513,2.07374163 C4.85804939,2.77875026 4.76357188,3.46232283 4.76357188,3.94900109 L4.76357188,14.3081821 C4.76357188,14.90998 4.90489118,15.7602776 5.33678836,16.6288355 C6.08387522,18.1269789 7.46848678,19.0542875 9.52714376,19.0542875 C11.5858007,19.0542875 12.9712062,18.1269789 13.7167052,16.6288355 C14.1493963,15.7602776 14.2907156,14.90998 14.2907156,14.3081821 L14.2907156,3.94900109 C14.2907156,3.52901283 13.9350356,3.18841744 13.496787,3.18841744 C13.0585384,3.18841744 12.7028583,3.52901283 12.7028583,3.94900109 L12.7028583,14.3081821 C12.7028583,14.3947203 12.6901555,14.5741482 12.6504591,14.8115328 C12.584563,15.2108789 12.4654737,15.6086372 12.283664,15.9730504 C11.7898404,16.9654613 10.9427185,17.5323263 9.52714376,17.5323263 C8.11236291,17.5323263 7.26444712,16.9654613 6.76982957,15.9730504 C6.58881384,15.6086372 6.47051847,15.2108789 6.40382846,14.8115328 C6.36413203,14.5741482 6.35142917,14.3947203 6.35142917,14.3081821 L6.35142917,3.94900109 C6.35142917,3.88151715 6.36016239,3.73940393 6.38556811,3.55044891 C6.43002811,3.23525924 6.50783312,2.92086349 6.62533456,2.63663704 C6.9286153,1.90622268 7.40735427,1.52196122 8.20445863,1.52196122 C8.99997514,1.52196122 9.47871411,1.90622268 9.78199486,2.63663704 C9.8994963,2.92086349 9.97809523,3.23525924 10.0217613,3.55044891 C10.047961,3.73940393 10.0559002,3.88151715 10.0559002,3.94900109 L10.0559002,13.5110777 C10.0559002,13.6222277 10.0273188,13.8342067 9.94713201,14.0271313 C9.85027272,14.2589585 9.74468021,14.3439089 9.52714376,14.3439089 C9.30960731,14.3439089 9.20322087,14.2589585 9.10715551,14.0271313 C9.02776264,13.8342067 8.99759335,13.6222277 8.99759335,13.5110777 L8.99759335,3.94900109 C8.99759335,3.52901283 8.64191332,3.18841744 8.20445863,3.18841744 C7.76541609,3.18841744 7.40973606,3.52901283 7.40973606,3.94900109 L7.40973606,13.5110777 C7.40973606,13.7984799 7.46372321,14.1843292 7.63203608,14.5892328 C7.94881361,15.3537861 8.58713224,15.8658701 9.52714376,15.8658701 C10.4679492,15.8658701 11.10468,15.3537861 11.4230454,14.5892328 C11.5905643,14.1843292 11.6437575,13.7984799 11.6437575,13.5110777 L11.6437575,3.94900109 C11.6437575,3.46232283 11.54928,2.77875026 11.2571143,2.07374163 C10.7331214,0.811395077 9.72324414,0 8.20445863,0 C6.68408528,0 5.67420804,0.811395077 5.15021513,2.07374163 Z" id="path-15"></path>
        <path d="M5.15021513,2.07374163 C4.85804939,2.77875026 4.76357188,3.46232283 4.76357188,3.94900109 L4.76357188,14.3081821 C4.76357188,14.90998 4.90489118,15.7602776 5.33678836,16.6288355 C6.08387522,18.1269789 7.46848678,19.0542875 9.52714376,19.0542875 C11.5858007,19.0542875 12.9712062,18.1269789 13.7167052,16.6288355 C14.1493963,15.7602776 14.2907156,14.90998 14.2907156,14.3081821 L14.2907156,3.94900109 C14.2907156,3.52901283 13.9350356,3.18841744 13.496787,3.18841744 C13.0585384,3.18841744 12.7028583,3.52901283 12.7028583,3.94900109 L12.7028583,14.3081821 C12.7028583,14.3947203 12.6901555,14.5741482 12.6504591,14.8115328 C12.584563,15.2108789 12.4654737,15.6086372 12.283664,15.9730504 C11.7898404,16.9654613 10.9427185,17.5323263 9.52714376,17.5323263 C8.11236291,17.5323263 7.26444712,16.9654613 6.76982957,15.9730504 C6.58881384,15.6086372 6.47051847,15.2108789 6.40382846,14.8115328 C6.36413203,14.5741482 6.35142917,14.3947203 6.35142917,14.3081821 L6.35142917,3.94900109 C6.35142917,3.88151715 6.36016239,3.73940393 6.38556811,3.55044891 C6.43002811,3.23525924 6.50783312,2.92086349 6.62533456,2.63663704 C6.9286153,1.90622268 7.40735427,1.52196122 8.20445863,1.52196122 C8.99997514,1.52196122 9.47871411,1.90622268 9.78199486,2.63663704 C9.8994963,2.92086349 9.97809523,3.23525924 10.0217613,3.55044891 C10.047961,3.73940393 10.0559002,3.88151715 10.0559002,3.94900109 L10.0559002,13.5110777 C10.0559002,13.6222277 10.0273188,13.8342067 9.94713201,14.0271313 C9.85027272,14.2589585 9.74468021,14.3439089 9.52714376,14.3439089 C9.30960731,14.3439089 9.20322087,14.2589585 9.10715551,14.0271313 C9.02776264,13.8342067 8.99759335,13.6222277 8.99759335,13.5110777 L8.99759335,3.94900109 C8.99759335,3.52901283 8.64191332,3.18841744 8.20445863,3.18841744 C7.76541609,3.18841744 7.40973606,3.52901283 7.40973606,3.94900109 L7.40973606,13.5110777 C7.40973606,13.7984799 7.46372321,14.1843292 7.63203608,14.5892328 C7.94881361,15.3537861 8.58713224,15.8658701 9.52714376,15.8658701 C10.4679492,15.8658701 11.10468,15.3537861 11.4230454,14.5892328 C11.5905643,14.1843292 11.6437575,13.7984799 11.6437575,13.5110777 L11.6437575,3.94900109 C11.6437575,3.46232283 11.54928,2.77875026 11.2571143,2.07374163 C10.7331214,0.811395077 9.72324414,0 8.20445863,0 C6.68408528,0 5.67420804,0.811395077 5.15021513,2.07374163 Z" id="path-17"></path>
        <path d="M1.58785729,3.17571459 L17.4664302,3.17571459 C17.9046788,3.17571459 18.2603589,3.53139462 18.2603589,3.96964323 L18.2603589,15.0846443 C18.2603589,15.5228929 17.9046788,15.8785729 17.4664302,15.8785729 L1.58785729,15.8785729 C1.14960868,15.8785729 0.793928647,15.5228929 0.793928647,15.0846443 L0.793928647,3.96964323 C0.793928647,3.53139462 1.14960868,3.17571459 1.58785729,3.17571459 Z M2.82559205,4.76357188 L9.52714376,9.35883089 L16.2279015,4.76357188 L2.82559205,4.76357188 Z M9.97571345,10.9752696 C9.84074558,11.0681593 9.6835477,11.1150011 9.52634983,11.1150011 C9.36994589,11.1150011 9.21354194,11.0681593 9.07857407,10.9752696 L2.38178594,6.38398025 L2.38178594,14.2907156 L16.6725016,14.2907156 L16.6725016,6.38398025 L9.97571345,10.9752696 Z" id="path-19"></path>
        <rect id="path-21" x="0" y="0" width="28.0800027" height="28.0800027" rx="14.0400013"></rect>
        <rect id="path-23" x="0" y="0" width="28.0800027" height="28.0800027" rx="14.0400013"></rect>
        <rect id="path-25" x="0" y="0" width="124.177833" height="28.0800027" rx="14.0400013"></rect>
        <rect id="path-27" x="8" y="7" width="14.0400013" height="14.0400013" rx="7.02000067"></rect>
        <rect id="path-29" x="109" y="185" width="489" height="207" rx="9.36000089"></rect>
        <filter x="-5.7%" y="-14.0%" width="111.9%" height="128.0%" filterUnits="objectBoundingBox" id="filter-30">
            <feOffset dx="1" dy="0" in="SourceAlpha" result="shadowOffsetOuter1"></feOffset>
            <feGaussianBlur stdDeviation="9.5" in="shadowOffsetOuter1" result="shadowBlurOuter1"></feGaussianBlur>
            <feColorMatrix values="0 0 0 0 0.392156863   0 0 0 0 0.431372549   0 0 0 0 0.470588235  0 0 0 0.18 0" type="matrix" in="shadowBlurOuter1"></feColorMatrix>
        </filter>
        <rect id="path-31" x="109" y="404" width="489" height="143" rx="9.36000089"></rect>
        <filter x="-5.7%" y="-20.3%" width="111.9%" height="140.6%" filterUnits="objectBoundingBox" id="filter-32">
            <feOffset dx="1" dy="0" in="SourceAlpha" result="shadowOffsetOuter1"></feOffset>
            <feGaussianBlur stdDeviation="9.5" in="shadowOffsetOuter1" result="shadowBlurOuter1"></feGaussianBlur>
            <feColorMatrix values="0 0 0 0 0.392156863   0 0 0 0 0.431372549   0 0 0 0 0.470588235  0 0 0 0.18 0" type="matrix" in="shadowBlurOuter1"></feColorMatrix>
        </filter>
        <rect id="path-33" x="135" y="244" width="23" height="23" rx="11.5"></rect>
        <rect id="path-34" x="135" y="463" width="23" height="23" rx="11.5"></rect>
        <rect id="path-35" x="0" y="0" width="23.4000022" height="23.4000022" rx="11.7000011"></rect>
        <rect id="path-36" x="0" y="219" width="23.4000022" height="23.4000022" rx="11.7000011"></rect>
        <rect id="path-37" x="0" y="34" width="23.4000022" height="23.4000022" rx="11.7000011"></rect>
        <rect id="path-38" x="135" y="347" width="23" height="23" rx="11.5"></rect>
        <rect id="path-39" x="0" y="0" width="273.551538" height="189.229292" rx="16.8480012"></rect>
        <path d="M12.1305608,9.09792062 C12.1305608,9.93189668 12.8129049,10.6142407 13.6468809,10.6142407 C14.480857,10.6142407 15.163201,9.93189668 15.163201,9.09792062 C15.163201,8.26394456 14.480857,7.58160052 13.6468809,7.58160052 C12.8129049,7.58160052 12.1305608,8.26394456 12.1305608,9.09792062 Z M7.58160052,9.09792062 C7.58160052,9.93189668 8.26394456,10.6142407 9.09792062,10.6142407 C9.93189668,10.6142407 10.6142407,9.93189668 10.6142407,9.09792062 C10.6142407,8.26394456 9.93189668,7.58160052 9.09792062,7.58160052 C8.26394456,7.58160052 7.58160052,8.26394456 7.58160052,9.09792062 Z M3.03264021,9.09792062 C3.03264021,9.93189668 3.71498425,10.6142407 4.54896031,10.6142407 C5.38293637,10.6142407 6.06528041,9.93189668 6.06528041,9.09792062 C6.06528041,8.26394456 5.38293637,7.58160052 4.54896031,7.58160052 C3.71498425,7.58160052 3.03264021,8.26394456 3.03264021,9.09792062 Z" id="path-41"></path>
    </defs>
    <g id="HR-/-Recruiting-Copy" stroke="none" stroke-width="1" fill="none" fill-rule="evenodd">
        <rect id="Rectangle-21" fill-opacity="0.8" fill="#173145" x="13" y="179" width="917" height="337" rx="9"></rect>
        <g id="Rectangle-6">
            <use fill="black" fill-opacity="1" filter="url(#filter-2)" xlink:href="#path-1"></use>
            <use fill="#F5F6F7" fill-rule="evenodd" xlink:href="#path-1"></use>
        </g>
        <g id="Group-9" transform="translate(350.000000, 8.000000)">
            <g id="Rectangle">
                <use fill="black" fill-opacity="1" filter="url(#filter-4)" xlink:href="#path-3"></use>
                <use fill="#FFFFFF" fill-rule="evenodd" xlink:href="#path-3"></use>
            </g>
            <g id="Button-/-Flat-/-Icon-/-Medium-/-1-Normal" transform="translate(306.684663, 18.738386)">
                <g id="Button-/-Call-to-action-/-Icon-/-Medium-/-1-Normal">
                    <rect id="BG" fill-opacity="0" fill="#FFFFFF" x="0" y="0" width="37.4400035" height="37.4400035" rx="9.36000089"></rect>
                    <g id="Atom-/-Icon-/-contextual-menu" transform="translate(8.190001, 8.190001)">
                        <mask id="mask-6" fill="white">
                            <use xlink:href="#path-5"></use>
                        </mask>
                        <use id="Clip-2" fill-opacity="0" fill="#FFFFFF" fill-rule="nonzero" xlink:href="#path-5"></use>
                        <g id="Atom-/-Color-/-Shades-/-Grey-40" mask="url(#mask-6)" fill="#173145" fill-opacity="0.4" fill-rule="evenodd">
                            <rect id="Rectangle-3" x="0" y="0" width="20.966402" height="20.966402"></rect>
                        </g>
                    </g>
                </g>
            </g>
            <path d="M222.286479,36.6143846 L213.322001,45.5834352 C211.035084,47.8715178 207.32726,47.8715178 205.040344,45.5834352 C202.753428,43.2953525 202.753428,39.5856376 205.040344,37.297555 L214.004823,28.3285044 C215.529434,26.803116 218.001316,26.8031161 219.525927,28.3285045 C221.050538,29.8538929 221.050538,32.3270361 219.525927,33.8524246 L210.551694,42.8214751 C209.789388,43.5841693 208.553447,43.5841693 207.791142,42.8214751 C207.028836,42.0587809 207.028836,40.8222092 207.791142,40.059515 L216.072798,31.7833944" id="Shape" stroke="#A3ADB5" stroke-width="1.75500017" stroke-linecap="round" stroke-linejoin="round" transform="translate(212.805818, 37.241980) rotate(-45.000000) translate(-212.805818, -37.241980) "></path>
            <rect id="Area-Copy-82" x="145.640815" y="25.7652812" width="22.2404908" height="22.2518337"></rect>
            <path d="M166.710754,36.6107174 L166.710754,37.4819948 C166.708383,41.6310421 163.9785,45.284343 160.001498,46.4607436 C156.024496,47.6371442 151.747763,46.0564064 149.490534,42.5757508 C147.233305,39.0950952 147.53329,34.5436717 150.22781,31.3896786 C152.92233,28.2356855 157.369505,27.2304562 161.15767,28.919118" id="Shape" stroke="#39ABBB" stroke-width="1.75500017" stroke-linecap="round" stroke-linejoin="round"></path>
            <polyline id="Shape" stroke="#39ABBB" stroke-width="1.75500017" stroke-linecap="round" stroke-linejoin="round" points="167.881306 29.2787286 157.764391 39.8190709 155.005233 36.9444321"></polyline>
            <rect id="Area-Copy-257" x="89.4543124" y="25.7652812" width="23.4110429" height="23.4229829"></rect>
            <path d="M106.037135,46.2603912 L106.037135,44.308476 C106.037135,42.1524499 104.290221,40.4046455 102.135294,40.4046455 L94.331613,40.4046455 C92.176686,40.4046455 90.4297725,42.1524499 90.4297725,44.308476 L90.4297725,46.2603912" id="Shape" stroke="#A3ADB5" stroke-width="1.75500017" stroke-linecap="round" stroke-linejoin="round"></path>
            <ellipse id="Oval" stroke="#A3ADB5" stroke-width="1.75500017" stroke-linecap="round" stroke-linejoin="round" cx="98.2334535" cy="32.5969845" rx="3.90184049" ry="3.90383048"></ellipse>
            <path d="M111.889895,46.2603912 L111.889895,44.308476 C111.888569,42.5294201 110.685201,40.9762836 108.963515,40.53152" id="Shape" stroke="#A3ADB5" stroke-width="1.75500017" stroke-linecap="round" stroke-linejoin="round"></path>
            <path d="M105.061674,28.8200285 C106.788156,29.262303 107.995706,30.8187811 107.995706,32.6018643 C107.995706,34.3849475 106.788156,35.9414256 105.061674,36.3837001" id="Shape" stroke="#A3ADB5" stroke-width="1.75500017" stroke-linecap="round" stroke-linejoin="round"></path>
            <path d="M261.915662,29.6691117 L277.523024,29.6691117 C278.59603,29.6691117 279.473944,30.5474735 279.473944,31.6210269 L279.473944,43.3325183 C279.473944,44.4060717 278.59603,45.2844336 277.523024,45.2844336 L261.915662,45.2844336 C260.842656,45.2844336 259.964742,44.4060717 259.964742,43.3325183 L259.964742,31.6210269 C259.964742,30.5474735 260.842656,29.6691117 261.915662,29.6691117 Z" id="Shape" stroke="#A3ADB5" stroke-width="1.75500017" stroke-linecap="round" stroke-linejoin="round"></path>
            <polyline id="Shape" stroke="#A3ADB5" stroke-width="1.75500017" stroke-linecap="round" stroke-linejoin="round" points="279.473944 31.6210269 269.719343 38.4527302 259.964742 31.6210269"></polyline>
            <rect id="Rectangle" fill-opacity="0.400000006" fill="#39ABBB" x="276.742656" y="9.36919315" width="23.4110429" height="16.396088" rx="8.19804401"></rect>
            <g id="Profile" transform="translate(0.000000, 18.738386)"></g>
        </g>
        <g id="Container-/-Elevation-0-/-R16" transform="translate(83.000000, 113.000000)">
            <mask id="mask-8" fill="white">
                <use xlink:href="#path-7"></use>
            </mask>
            <use id="Container" fill-opacity="0" fill="#FFFFFF" fill-rule="evenodd" xlink:href="#path-7"></use>
            <g id="Atom-/-Color-/-Primary-/-White" mask="url(#mask-8)" fill="#FFFFFF" fill-rule="evenodd">
                <rect id="Rectangle-3" x="0" y="0" width="744.806471" height="164.736016"></rect>
            </g>
        </g>
        <g id="Group-5" transform="translate(744.000000, 131.000000)">
            <g id="Atom-/-Icon-/-edit" transform="translate(4.680000, 37.440004)">
                <mask id="mask-10" fill="white">
                    <use xlink:href="#path-9"></use>
                </mask>
                <use id="Clip-2" fill-opacity="0" fill="#FFFFFF" fill-rule="nonzero" xlink:href="#path-9"></use>
                <g id="Atom-/-Color-/-Shades-/-Grey-40" mask="url(#mask-10)" fill="#173145" fill-opacity="0.4" fill-rule="evenodd">
                    <rect id="Rectangle-3" x="0" y="0" width="18.9696018" height="18.9696018"></rect>
                </g>
            </g>
            <g id="Atom-/-Icon-/-task-completed" transform="translate(4.680000, 60.840006)">
                <mask id="mask-12" fill="white">
                    <use xlink:href="#path-11"></use>
                </mask>
                <use id="task-completed" fill-opacity="0" fill="#FFFFFF" fill-rule="evenodd" xlink:href="#path-11"></use>
                <g id="Atom-/-Color-/-Shades-/-Grey-40" mask="url(#mask-12)" fill="#173145" fill-opacity="0.4" fill-rule="evenodd">
                    <rect id="Rectangle-3" x="0" y="0" width="18.9696018" height="18.9696018"></rect>
                </g>
            </g>
            <g id="Atom-/-Icon-/-task-completed" transform="translate(42.120004, 37.440004)">
                <mask id="mask-14" fill="white">
                    <use xlink:href="#path-13"></use>
                </mask>
                <use id="task-completed" fill-opacity="0" fill="#FFFFFF" fill-rule="evenodd" xlink:href="#path-13"></use>
                <g id="Atom-/-Color-/-Shades-/-Grey-40" mask="url(#mask-14)" fill="#173145" fill-opacity="0.4" fill-rule="evenodd">
                    <rect id="Rectangle-3" x="0" y="0" width="18.9696018" height="18.9696018"></rect>
                </g>
            </g>
            <g id="Atom-/-Icon-/-attachment" transform="translate(4.680000, 84.240008)">
                <mask id="mask-16" fill="white">
                    <use xlink:href="#path-15"></use>
                </mask>
                <use id="Clip-2" fill-opacity="0" fill="#FFFFFF" fill-rule="nonzero" xlink:href="#path-15"></use>
                <g id="Atom-/-Color-/-Shades-/-Grey-40" mask="url(#mask-16)" fill="#173145" fill-opacity="0.4" fill-rule="evenodd">
                    <rect id="Rectangle-3" x="0" y="0" width="18.9696018" height="18.9696018"></rect>
                </g>
            </g>
            <g id="Atom-/-Icon-/-attachment" transform="translate(42.120004, 60.840006)">
                <mask id="mask-18" fill="white">
                    <use xlink:href="#path-17"></use>
                </mask>
                <use id="Clip-2" fill-opacity="0" fill="#FFFFFF" fill-rule="nonzero" xlink:href="#path-17"></use>
                <g id="Atom-/-Color-/-Shades-/-Grey-40" mask="url(#mask-18)" fill="#173145" fill-opacity="0.4" fill-rule="evenodd">
                    <rect id="Rectangle-3" x="0" y="0" width="18.9696018" height="18.9696018"></rect>
                </g>
            </g>
            <g id="Atom-/-Icon-/-email" transform="translate(4.680000, 108.810010)">
                <mask id="mask-20" fill="white">
                    <use xlink:href="#path-19"></use>
                </mask>
                <use id="email" fill-opacity="0" fill="#FFFFFF" fill-rule="nonzero" xlink:href="#path-19"></use>
                <g id="Atom-/-Color-/-Shades-/-Grey-40" mask="url(#mask-20)" fill="#173145" fill-opacity="0.4" fill-rule="evenodd">
                    <rect id="Rectangle-3" x="0" y="0" width="18.9696018" height="18.9696018"></rect>
                </g>
            </g>
            <g id="Avatar-/-Emphasized-/-Small-/-Initials-Normal" transform="translate(-0.000000, 0.000000)">
                <mask id="mask-22" fill="white">
                    <use xlink:href="#path-21"></use>
                </mask>
                <use id="BG" fill="#FFFFFF" xlink:href="#path-21"></use>
                <g id="BG-Color" mask="url(#mask-22)" fill="#7F61B1" fill-opacity="0.162533967">
                    <rect id="Rectangle-3" x="0" y="0" width="28.0800027" height="28.0800027"></rect>
                </g>
            </g>
            <g id="Avatar-/-Emphasized-/-Small-/-Initials-Normal-Copy-5" transform="translate(37.440004, 0.000000)">
                <mask id="mask-24" fill="white">
                    <use xlink:href="#path-23"></use>
                </mask>
                <use id="BG" fill="#FFFFFF" xlink:href="#path-23"></use>
                <g id="BG-Color" mask="url(#mask-24)" fill="#D06287" fill-opacity="0.159391984">
                    <rect id="Rectangle-3" x="0" y="0" width="28.0800027" height="28.0800027"></rect>
                </g>
            </g>
        </g>
        <g id="Token-/-Status-/-Empty-Normal" transform="translate(83.000000, 65.000000)">
            <mask id="mask-26" fill="white">
                <use xlink:href="#path-25"></use>
            </mask>
            <use id="BG" fill-opacity="0.03" fill="#113F63" xlink:href="#path-25"></use>
            <mask id="mask-28" fill="white">
                <use xlink:href="#path-27"></use>
            </mask>
            <use id="Dot" fill-opacity="0.08" fill="#173145" xlink:href="#path-27"></use>
        </g>
        <g id="Rectangle-3">
            <use fill="black" fill-opacity="1" filter="url(#filter-30)" xlink:href="#path-29"></use>
            <use fill="#FFFFFF" fill-rule="evenodd" xlink:href="#path-29"></use>
        </g>
        <g id="Rectangle-3-Copy">
            <use fill="black" fill-opacity="1" filter="url(#filter-32)" xlink:href="#path-31"></use>
            <use fill="#FFFFFF" fill-rule="evenodd" xlink:href="#path-31"></use>
        </g>
        <g id="Badge" transform="translate(557.000000, 212.000000)" fill="#39ABBB">
            <g id="Group-7">
                <rect id="Rectangle" x="0" y="0" width="23.4116738" height="16.396088" rx="8.19804401"></rect>
                <rect id="Rectangle-Copy" x="0" y="219" width="23.4116738" height="16.396088" rx="8.19804401"></rect>
            </g>
        </g>
        <g id="Container-Copy-3">
            <use fill-opacity="0.8" fill="#FFFFFF" fill-rule="evenodd" xlink:href="#path-33"></use>
            <rect stroke-opacity="0.3" stroke="#1B3141" stroke-width="1.75500017" x="135.8775" y="244.8775" width="21.2449998" height="21.2449998" rx="10.6224999"></rect>
        </g>
        <g id="Container-Copy-5">
            <use fill-opacity="0.8" fill="#FFFFFF" fill-rule="evenodd" xlink:href="#path-34"></use>
            <rect stroke-opacity="0.3" stroke="#1B3141" stroke-width="1.75500017" x="135.8775" y="463.8775" width="21.2449998" height="21.2449998" rx="10.6224999"></rect>
        </g>
        <g id="Group-8" transform="translate(135.000000, 278.000000)">
            <g id="Container-Copy-3">
                <use fill-opacity="0.8" fill="#FFFFFF" fill-rule="evenodd" xlink:href="#path-35"></use>
                <rect stroke-opacity="0.3" stroke="#1B3141" stroke-width="1.75500017" x="0.877500083" y="0.877500083" width="21.6450021" height="21.6450021" rx="10.822501"></rect>
            </g>
            <g id="Container-Copy-6">
                <use fill-opacity="0.8" fill="#FFFFFF" fill-rule="evenodd" xlink:href="#path-36"></use>
                <rect stroke-opacity="0.3" stroke="#1B3141" stroke-width="1.75500017" x="0.877500083" y="219.8775" width="21.6450021" height="21.6450021" rx="10.822501"></rect>
            </g>
            <g id="Container-Copy-4">
                <use fill-opacity="0.8" fill="#FFFFFF" fill-rule="evenodd" xlink:href="#path-37"></use>
                <rect stroke-opacity="0.3" stroke="#1B3141" stroke-width="1.75500017" x="0.877500083" y="34.8775001" width="21.6450021" height="21.6450021" rx="10.822501"></rect>
            </g>
        </g>
        <rect id="Rectangle-8" fill-opacity="0.200000018" fill="#A3ADB5" x="176" y="249" width="356" height="14" rx="7"></rect>
        <rect id="Rectangle-8-Copy-3" fill-opacity="0.200000018" fill="#A3ADB5" x="176" y="468" width="356" height="14" rx="7"></rect>
        <rect id="Rectangle-8-Copy" fill-opacity="0.200000018" fill="#A3ADB5" x="176" y="283" width="356" height="14" rx="7"></rect>
        <rect id="Rectangle-8-Copy-4" fill-opacity="0.200000018" fill="#A3ADB5" x="176" y="502" width="356" height="14" rx="7"></rect>
        <rect id="Rectangle-8-Copy-2" fill-opacity="0.200000018" fill="#A3ADB5" x="175" y="317" width="356" height="14" rx="7"></rect>
        <g id="Container-Copy-4">
            <use fill-opacity="0.8" fill="#FFFFFF" fill-rule="evenodd" xlink:href="#path-38"></use>
            <rect stroke-opacity="0.3" stroke="#1B3141" stroke-width="1.75500017" x="135.8775" y="347.8775" width="21.2449998" height="21.2449998" rx="10.6224999"></rect>
        </g>
        <rect id="Rectangle-8-Copy-2" fill-opacity="0.200000018" fill="#A3ADB5" x="175" y="352" width="356" height="14" rx="7"></rect>
        <path d="M121.251943,150.874618 L118.787232,150.874618 L112.464711,140.87105 L112.464711,150.874618 L110,150.874618 L110,136.77472 L112.464711,136.77472 L118.806716,146.817023 L118.806716,136.77472 L121.251943,136.77472 L121.251943,150.874618 Z M128.577884,151.068298 C127.798524,151.068298 127.097112,150.939179 126.473624,150.680938 C125.850137,150.422697 125.32083,150.06762 124.885688,149.615698 C124.450545,149.163776 124.116075,148.627934 123.882268,148.008155 C123.64846,147.388376 123.531558,146.720187 123.531558,146.003568 L123.531558,145.616208 C123.531558,144.789836 123.654954,144.042562 123.901751,143.374363 C124.148549,142.706164 124.486266,142.138042 124.914913,141.66998 C125.343561,141.201917 125.848513,140.840385 126.429785,140.585372 C127.011058,140.330359 127.636159,140.202854 128.305109,140.202854 C129.071479,140.202854 129.737172,140.330359 130.302207,140.585372 C130.867243,140.840385 131.334852,141.197076 131.705047,141.655454 C132.075243,142.113832 132.351262,142.659358 132.533112,143.292049 C132.714963,143.92474 132.805887,144.618753 132.805887,145.374108 L132.805887,146.381244 L125.918334,146.381244 C125.950807,146.787973 126.03686,147.162418 126.176495,147.504587 C126.31613,147.846757 126.506096,148.142116 126.746399,148.390673 C126.986701,148.63923 127.270838,148.834522 127.598819,148.976555 C127.926799,149.118587 128.298613,149.189602 128.714271,149.189602 C129.29879,149.189602 129.80699,149.073396 130.238885,148.840979 C130.67078,148.608562 131.045841,148.288993 131.364079,147.882263 L132.640274,149.092762 C132.471412,149.344548 132.261963,149.588259 132.011918,149.823904 C131.761874,150.059549 131.469619,150.269367 131.135144,150.453364 C130.800669,150.637361 130.42236,150.785847 130.000207,150.898828 C129.578054,151.011808 129.103951,151.068298 128.577884,151.068298 Z M128.295367,142.091233 C127.645901,142.091233 127.121465,142.317191 126.722044,142.769113 C126.322622,143.221035 126.067711,143.850489 125.957301,144.657492 L130.46782,144.657492 L130.46782,144.48318 C130.448337,144.173291 130.398004,143.874704 130.31682,143.587411 C130.235637,143.300117 130.110617,143.045108 129.941756,142.822375 C129.772894,142.599642 129.553703,142.422104 129.284175,142.289755 C129.014646,142.157407 128.685047,142.091233 128.295367,142.091233 Z M143.901959,147.630479 L145.577573,140.396534 L147.886413,140.396534 L145.01254,150.874618 L143.064152,150.874618 L140.804021,143.679409 L138.582858,150.874618 L136.63447,150.874618 L133.750855,140.396534 L136.059695,140.396534 L137.764535,147.553007 L139.927246,140.396534 L141.710022,140.396534 L143.901959,147.630479 Z M165.92849,150.874618 L163.473521,150.874618 L163.473521,144.609072 L157.131516,144.609072 L157.131516,150.874618 L154.666805,150.874618 L154.666805,136.77472 L157.131516,136.77472 L157.131516,142.643221 L163.473521,142.643221 L163.473521,136.77472 L165.92849,136.77472 L165.92849,150.874618 Z M171.130687,150.874618 L168.763395,150.874618 L168.763395,140.396534 L171.130687,140.396534 L171.130687,150.874618 Z M168.617266,137.675331 C168.617266,137.313794 168.732545,137.013593 168.963105,136.77472 C169.193665,136.535847 169.523265,136.416412 169.951912,136.416412 C170.38056,136.416412 170.711782,136.535847 170.94559,136.77472 C171.179398,137.013593 171.2963,137.313794 171.2963,137.675331 C171.2963,138.030413 171.179398,138.325772 170.94559,138.561417 C170.711782,138.797062 170.38056,138.914883 169.951912,138.914883 C169.523265,138.914883 169.193665,138.797062 168.963105,138.561417 C168.732545,138.325772 168.617266,138.030413 168.617266,137.675331 Z M179.226241,142.546381 C179.070369,142.520557 178.912876,142.501189 178.753757,142.488277 C178.594638,142.475365 178.43065,142.468909 178.261789,142.468909 C177.690259,142.468909 177.225897,142.57866 176.868691,142.798165 C176.511485,143.01767 176.245208,143.321099 176.069852,143.708461 L176.069852,150.874618 L173.70256,150.874618 L173.70256,140.396534 L175.96269,140.396534 L176.021142,141.568298 C176.287423,141.1422 176.617022,140.808105 177.009949,140.566004 C177.402876,140.323903 177.865614,140.202854 178.398176,140.202854 C178.534564,140.202854 178.68881,140.21738 178.860918,140.246432 C179.033027,140.275484 179.158047,140.30615 179.235983,140.33843 L179.226241,142.546381 Z M185.363665,151.068298 C184.584305,151.068298 183.882893,150.939179 183.259405,150.680938 C182.635918,150.422697 182.106611,150.06762 181.671469,149.615698 C181.236326,149.163776 180.901856,148.627934 180.668049,148.008155 C180.434241,147.388376 180.317339,146.720187 180.317339,146.003568 L180.317339,145.616208 C180.317339,144.789836 180.440735,144.042562 180.687532,143.374363 C180.934329,142.706164 181.272047,142.138042 181.700694,141.66998 C182.129342,141.201917 182.634294,140.840385 183.215566,140.585372 C183.796839,140.330359 184.42194,140.202854 185.09089,140.202854 C185.85726,140.202854 186.522953,140.330359 187.087988,140.585372 C187.653024,140.840385 188.120632,141.197076 188.490828,141.655454 C188.861024,142.113832 189.137043,142.659358 189.318893,143.292049 C189.500744,143.92474 189.591668,144.618753 189.591668,145.374108 L189.591668,146.381244 L182.704114,146.381244 C182.736588,146.787973 182.822641,147.162418 182.962276,147.504587 C183.101911,147.846757 183.291877,148.142116 183.53218,148.390673 C183.772482,148.63923 184.056619,148.834522 184.384599,148.976555 C184.71258,149.118587 185.084394,149.189602 185.500052,149.189602 C186.084571,149.189602 186.592771,149.073396 187.024666,148.840979 C187.456561,148.608562 187.831622,148.288993 188.14986,147.882263 L189.426055,149.092762 C189.257193,149.344548 189.047744,149.588259 188.797699,149.823904 C188.547655,150.059549 188.255399,150.269367 187.920924,150.453364 C187.586449,150.637361 187.208141,150.785847 186.785988,150.898828 C186.363835,151.011808 185.889732,151.068298 185.363665,151.068298 Z M185.081148,142.091233 C184.431682,142.091233 183.907246,142.317191 183.507825,142.769113 C183.108403,143.221035 182.853491,143.850489 182.743082,144.657492 L187.253601,144.657492 L187.253601,144.48318 C187.234117,144.173291 187.183785,143.874704 187.102601,143.587411 C187.021418,143.300117 186.896398,143.045108 186.727537,142.822375 C186.558675,142.599642 186.339484,142.422104 186.069955,142.289755 C185.800427,142.157407 185.470828,142.091233 185.081148,142.091233 Z M207.945487,144.192661 C207.945487,145.264361 207.80423,146.224681 207.521712,147.073649 C207.239194,147.922617 206.841402,148.642454 206.328324,149.23318 C205.815246,149.823907 205.198262,150.277436 204.477355,150.593782 C203.756448,150.910127 202.957617,151.068298 202.080837,151.068298 C201.210553,151.068298 200.414969,150.910127 199.694062,150.593782 C198.973154,150.277436 198.3513,149.823907 197.82848,149.23318 C197.305659,148.642454 196.899749,147.922617 196.610737,147.073649 C196.321724,146.224681 196.17722,145.264361 196.17722,144.192661 L196.17722,143.476045 C196.17722,142.404344 196.321724,141.44241 196.610737,140.590214 C196.899749,139.738018 197.302412,139.014954 197.818738,138.420999 C198.335063,137.827044 198.95367,137.371901 199.674578,137.055556 C200.395485,136.73921 201.191069,136.58104 202.061354,136.58104 C202.938133,136.58104 203.738588,136.73921 204.462742,137.055556 C205.186897,137.371901 205.807128,137.827044 206.323453,138.420999 C206.839779,139.014954 207.239194,139.738018 207.521712,140.590214 C207.80423,141.44241 207.945487,142.404344 207.945487,143.476045 L207.945487,144.192661 Z M205.480775,143.456677 C205.480775,142.669041 205.404464,141.973415 205.25184,141.369776 C205.099215,140.766137 204.876776,140.26096 204.584517,139.85423 C204.292257,139.447501 203.933432,139.13923 203.508032,138.929409 C203.082632,138.719588 202.60041,138.614679 202.061354,138.614679 C201.535286,138.614679 201.061183,138.719588 200.63903,138.929409 C200.216877,139.13923 199.858052,139.447501 199.562545,139.85423 C199.267038,140.26096 199.039729,140.766137 198.880609,141.369776 C198.72149,141.973415 198.641932,142.669041 198.641932,143.456677 L198.641932,144.192661 C198.641932,144.980296 198.72149,145.677537 198.880609,146.284404 C199.039729,146.89127 199.268662,147.399675 199.567416,147.809633 C199.866171,148.219591 200.228243,148.529476 200.653643,148.739297 C201.079043,148.949118 201.55477,149.054027 202.080837,149.054027 C203.17194,149.054027 204.011363,148.640847 204.599129,147.814475 C205.186896,146.988103 205.480775,145.780844 205.480775,144.192661 L205.480775,143.456677 Z M212.368328,140.396534 L212.436522,141.607034 C212.806718,141.161568 213.251595,140.816175 213.771168,140.570846 C214.290741,140.325517 214.868757,140.202854 215.505234,140.202854 C216.011817,140.202854 216.471308,140.272256 216.883719,140.41106 C217.296129,140.549865 217.64846,140.774208 217.940719,141.084098 C218.232979,141.393987 218.458665,141.797483 218.617784,142.294597 C218.776903,142.791712 218.856462,143.395341 218.856462,144.105505 L218.856462,150.874618 L216.48917,150.874618 L216.48917,144.086137 C216.48917,143.724599 216.448579,143.419556 216.367396,143.170999 C216.286212,142.922442 216.167687,142.720694 216.011815,142.565749 C215.855943,142.410805 215.66273,142.29944 215.432169,142.231651 C215.201609,142.163863 214.936955,142.129969 214.638201,142.129969 C214.151101,142.129969 213.727331,142.246176 213.366877,142.478593 C213.006424,142.71101 212.719039,143.024123 212.504716,143.417941 L212.504716,150.874618 L210.137424,150.874618 L210.137424,140.396534 L212.368328,140.396534 Z M230.517567,145.7421 C230.517567,146.516823 230.428266,147.230204 230.249663,147.882263 C230.07106,148.534322 229.809654,149.095988 229.465437,149.567278 C229.12122,150.038568 228.692579,150.406557 228.1795,150.671254 C227.666422,150.935951 227.075417,151.068298 226.406467,151.068298 C225.763496,151.068298 225.204963,150.953705 224.730853,150.724516 C224.256743,150.495327 223.85408,150.167688 223.522852,149.74159 L223.405949,150.874618 L221.262722,150.874618 L221.262722,136 L223.630013,136 L223.630013,141.40367 C223.961241,141.016308 224.352539,140.719335 224.803918,140.512742 C225.255296,140.306149 225.78298,140.202854 226.386983,140.202854 C227.068922,140.202854 227.666422,140.333587 228.1795,140.595056 C228.692579,140.856525 229.122843,141.222899 229.470308,141.69419 C229.817772,142.16548 230.079178,142.72876 230.254534,143.384047 C230.42989,144.039334 230.517567,144.757556 230.517567,145.538736 L230.517567,145.7421 Z M228.150275,145.538736 C228.150275,145.080358 228.112931,144.644582 228.038242,144.231397 C227.963554,143.818211 227.835286,143.456678 227.653436,143.146789 C227.471585,142.8369 227.229663,142.58996 226.927661,142.405963 C226.625659,142.221966 226.247351,142.129969 225.792725,142.129969 C225.240678,142.129969 224.789306,142.251018 224.438595,142.493119 C224.087883,142.73522 223.818359,143.059631 223.630013,143.466361 L223.630013,147.785423 C223.818359,148.192153 224.089507,148.521405 224.443466,148.773191 C224.797425,149.024976 225.253668,149.150866 225.812209,149.150866 C226.247351,149.150866 226.614294,149.062097 226.913048,148.884557 C227.211802,148.707016 227.453725,148.464918 227.638823,148.158257 C227.823921,147.851595 227.955435,147.491677 228.033371,147.078491 C228.111307,146.665305 228.150275,146.219846 228.150275,145.7421 L228.150275,145.538736 Z M232.056793,145.538736 C232.056793,144.776924 232.168825,144.071614 232.39289,143.422783 C232.616956,142.773952 232.938437,142.210672 233.357343,141.732926 C233.776248,141.255179 234.287695,140.880735 234.891699,140.609582 C235.495702,140.338429 236.180878,140.202854 236.947248,140.202854 C237.720113,140.202854 238.411784,140.338429 239.022282,140.609582 C239.63278,140.880735 240.147474,141.255179 240.56638,141.732926 C240.985286,142.210672 241.305143,142.773952 241.525961,143.422783 C241.74678,144.071614 241.857187,144.776924 241.857187,145.538736 L241.857187,145.7421 C241.857187,146.503911 241.74678,147.210836 241.525961,147.862895 C241.305143,148.514954 240.985286,149.078234 240.56638,149.552752 C240.147474,150.02727 239.634404,150.398487 239.027153,150.666412 C238.419902,150.934337 237.733102,151.068298 236.966732,151.068298 C236.193868,151.068298 235.50382,150.934337 234.89657,150.666412 C234.289319,150.398487 233.776248,150.02727 233.357343,149.552752 C232.938437,149.078234 232.616956,148.514954 232.39289,147.862895 C232.168825,147.210836 232.056793,146.503911 232.056793,145.7421 L232.056793,145.538736 Z M234.424085,145.7421 C234.424085,146.21339 234.472795,146.658849 234.570215,147.078491 C234.667634,147.498133 234.820257,147.864507 235.028086,148.177625 C235.235915,148.490742 235.500568,148.737682 235.822054,148.918451 C236.14354,149.099219 236.525095,149.189602 236.966732,149.189602 C237.401875,149.189602 237.780183,149.099219 238.101669,148.918451 C238.423154,148.737682 238.686184,148.490742 238.890766,148.177625 C239.095348,147.864507 239.24797,147.498133 239.348637,147.078491 C239.449304,146.658849 239.499637,146.21339 239.499637,145.7421 L239.499637,145.538736 C239.499637,145.073902 239.449304,144.633284 239.348637,144.216871 C239.24797,143.800457 239.093724,143.435696 238.885895,143.122579 C238.678066,142.809462 238.413412,142.559294 238.091927,142.372069 C237.770441,142.184844 237.388885,142.091233 236.947248,142.091233 C236.505611,142.091233 236.127303,142.184844 235.812312,142.372069 C235.497321,142.559294 235.235915,142.809462 235.028086,143.122579 C234.820257,143.435696 234.667634,143.800457 234.570215,144.216871 C234.472795,144.633284 234.424085,145.073902 234.424085,145.538736 L234.424085,145.7421 Z M250.157322,150.874618 C250.092375,150.751953 250.038795,150.606695 249.99658,150.438838 C249.954365,150.270981 249.917021,150.090215 249.884548,149.896534 C249.728676,150.057935 249.554946,150.209649 249.363354,150.351682 C249.171761,150.493715 248.960688,150.617991 248.730127,150.724516 C248.499567,150.83104 248.249526,150.914967 247.979998,150.9763 C247.71047,151.037632 247.423085,151.068298 247.117836,151.068298 C246.591769,151.068298 246.107924,150.989212 245.666287,150.83104 C245.22465,150.672867 244.846341,150.453365 244.53135,150.172528 C244.216359,149.891691 243.969566,149.560824 243.790963,149.179918 C243.61236,148.799013 243.523059,148.385833 243.523059,147.940367 C243.523059,147.378692 243.63022,146.881586 243.844543,146.449032 C244.058867,146.016478 244.370606,145.654945 244.77977,145.364424 C245.188934,145.073903 245.690639,144.852787 246.2849,144.70107 C246.879161,144.549354 247.55622,144.473496 248.316095,144.473496 L249.806612,144.473496 L249.806612,143.785933 C249.806612,143.243626 249.65399,142.809465 249.348741,142.483435 C249.043492,142.157406 248.57913,141.994393 247.955643,141.994393 C247.676373,141.994393 247.423085,142.031515 247.195772,142.105759 C246.968458,142.180004 246.775245,142.280071 246.616126,142.405963 C246.457007,142.531856 246.33361,142.681956 246.245932,142.856269 C246.158254,143.030582 246.114416,143.217804 246.114416,143.417941 L243.747124,143.417941 C243.747124,143.004755 243.849413,142.606101 244.053995,142.221967 C244.258577,141.837834 244.549209,141.495669 244.925899,141.195464 C245.302589,140.895258 245.758832,140.654775 246.294642,140.474006 C246.830451,140.293237 247.429575,140.202854 248.09203,140.202854 C248.683044,140.202854 249.228588,140.278711 249.728677,140.430428 C250.228765,140.582145 250.660654,140.808102 251.024355,141.108308 C251.388056,141.408513 251.670569,141.782957 251.871904,142.231651 C252.073238,142.680345 252.173904,143.20489 252.173904,143.805301 L252.173904,148.453619 C252.173904,149.396199 252.307043,150.148315 252.573324,150.70999 L252.573324,150.874618 L250.157322,150.874618 Z M247.556223,149.179918 C247.828999,149.179918 248.083911,149.144411 248.320966,149.073394 C248.558021,149.002378 248.772342,148.908767 248.963934,148.792559 C249.155527,148.67635 249.322762,148.542389 249.465644,148.390673 C249.608527,148.238956 249.722181,148.085628 249.806612,147.930683 L249.806612,145.955148 L248.530418,145.955148 C247.653638,145.955148 246.99444,146.106862 246.552803,146.410296 C246.111166,146.713729 245.890351,147.143049 245.890351,147.698267 C245.890351,147.911316 245.926071,148.108222 245.997513,148.288991 C246.068954,148.46976 246.176114,148.626316 246.318997,148.758665 C246.461879,148.891013 246.635609,148.994308 246.840191,149.068552 C247.044773,149.142797 247.283448,149.179918 247.556223,149.179918 Z M260.172039,142.546381 C260.016167,142.520557 259.858674,142.501189 259.699554,142.488277 C259.540435,142.475365 259.376447,142.468909 259.207586,142.468909 C258.636056,142.468909 258.171695,142.57866 257.814489,142.798165 C257.457282,143.01767 257.191005,143.321099 257.015649,143.708461 L257.015649,150.874618 L254.648357,150.874618 L254.648357,140.396534 L256.908488,140.396534 L256.96694,141.568298 C257.233221,141.1422 257.56282,140.808105 257.955747,140.566004 C258.348674,140.323903 258.811411,140.202854 259.343973,140.202854 C259.480361,140.202854 259.634607,140.21738 259.806716,140.246432 C259.978824,140.275484 260.103845,140.30615 260.18178,140.33843 L260.172039,142.546381 Z M261.224168,145.558104 C261.224168,144.764012 261.319963,144.03772 261.511556,143.379205 C261.703148,142.72069 261.979167,142.155796 262.339621,141.684506 C262.700074,141.213215 263.136834,140.848455 263.649912,140.590214 C264.16299,140.331973 264.741006,140.202854 265.383978,140.202854 C265.968497,140.202854 266.483191,140.302921 266.928075,140.503058 C267.37296,140.703195 267.76101,140.990484 268.092238,141.364934 L268.092238,136 L270.459529,136 L270.459529,150.874618 L268.316302,150.874618 L268.199399,149.79001 C267.861677,150.19674 267.460637,150.511467 266.996269,150.7342 C266.531901,150.956933 265.987981,151.068298 265.364494,151.068298 C264.728017,151.068298 264.154872,150.934337 263.645041,150.666412 C263.13521,150.398487 262.701698,150.028884 262.344492,149.557594 C261.987285,149.086304 261.711266,148.526252 261.516427,147.877421 C261.321587,147.22859 261.224168,146.523279 261.224168,145.761468 L261.224168,145.558104 Z M263.59146,145.761468 C263.59146,146.226302 263.635299,146.663691 263.722976,147.073649 C263.810654,147.483607 263.950288,147.843525 264.14188,148.153415 C264.333472,148.463304 264.578642,148.707016 264.877397,148.884557 C265.176151,149.062097 265.539847,149.150866 265.968494,149.150866 C266.501056,149.150866 266.937816,149.033046 267.278785,148.797401 C267.619755,148.561756 267.890903,148.250257 268.092238,147.862895 L268.092238,143.388889 C267.890903,143.001527 267.618131,142.69487 267.273914,142.468909 C266.929697,142.242948 266.501056,142.129969 265.987978,142.129969 C265.55933,142.129969 265.194011,142.220352 264.89201,142.401121 C264.590008,142.58189 264.343214,142.827216 264.151622,143.137105 C263.960029,143.446994 263.818773,143.810141 263.727847,144.226555 C263.636922,144.642968 263.59146,145.086814 263.59146,145.558104 L263.59146,145.761468 Z M275.447404,150.874618 L273.080112,150.874618 L273.080112,140.396534 L275.447404,140.396534 L275.447404,150.874618 Z M272.933983,137.675331 C272.933983,137.313794 273.049261,137.013593 273.279822,136.77472 C273.510382,136.535847 273.839981,136.416412 274.268629,136.416412 C274.697276,136.416412 275.028499,136.535847 275.262307,136.77472 C275.496115,137.013593 275.613017,137.313794 275.613017,137.675331 C275.613017,138.030413 275.496115,138.325772 275.262307,138.561417 C275.028499,138.797062 274.697276,138.914883 274.268629,138.914883 C273.839981,138.914883 273.510382,138.797062 273.279822,138.561417 C273.049261,138.325772 272.933983,138.030413 272.933983,137.675331 Z M280.220956,140.396534 L280.289149,141.607034 C280.659345,141.161568 281.104222,140.816175 281.623795,140.570846 C282.143368,140.325517 282.721384,140.202854 283.357861,140.202854 C283.864444,140.202854 284.323935,140.272256 284.736346,140.41106 C285.148757,140.549865 285.501087,140.774208 285.793346,141.084098 C286.085606,141.393987 286.311292,141.797483 286.470411,142.294597 C286.629531,142.791712 286.709089,143.395341 286.709089,144.105505 L286.709089,150.874618 L284.341797,150.874618 L284.341797,144.086137 C284.341797,143.724599 284.301206,143.419556 284.220023,143.170999 C284.13884,142.922442 284.020314,142.720694 283.864442,142.565749 C283.70857,142.410805 283.515357,142.29944 283.284796,142.231651 C283.054236,142.163863 282.789582,142.129969 282.490828,142.129969 C282.003729,142.129969 281.579958,142.246176 281.219505,142.478593 C280.859051,142.71101 280.571667,143.024123 280.357343,143.417941 L280.357343,150.874618 L277.990051,150.874618 L277.990051,140.396534 L280.220956,140.396534 Z M288.706187,145.558104 C288.706187,144.764012 288.803606,144.03772 288.998445,143.379205 C289.193285,142.72069 289.474175,142.155796 289.841123,141.684506 C290.208072,141.213215 290.651326,140.848455 291.170899,140.590214 C291.690471,140.331973 292.274982,140.202854 292.924448,140.202854 C293.560925,140.202854 294.109715,140.310991 294.570836,140.527268 C295.031957,140.743545 295.428126,141.051816 295.759353,141.45209 L295.866515,140.396534 L298,140.396534 L298,150.584098 C298,151.287805 297.883098,151.914031 297.64929,152.462793 C297.415482,153.011556 297.089131,153.473155 296.670225,153.847604 C296.251319,154.222054 295.747991,154.507729 295.160224,154.704638 C294.572457,154.901547 293.927872,155 293.226448,155 C292.934189,155 292.60946,154.969334 292.252254,154.908002 C291.895048,154.84667 291.5346,154.746603 291.170899,154.607798 C290.807198,154.468994 290.459738,154.289841 290.128511,154.070336 C289.797283,153.850831 289.51477,153.58291 289.280962,153.266565 L290.401285,151.852701 C290.790965,152.311079 291.214735,152.640332 291.672609,152.840469 C292.130482,153.040606 292.602962,153.140673 293.090061,153.140673 C293.875915,153.140673 294.496146,152.929241 294.950772,152.506371 C295.405398,152.083501 295.632708,151.462118 295.632708,150.642202 L295.632708,149.93527 C295.30148,150.303264 294.911807,150.584097 294.463675,150.777778 C294.015543,150.971459 293.495978,151.068298 292.904964,151.068298 C292.261993,151.068298 291.682353,150.934337 291.166028,150.666412 C290.649702,150.398487 290.208072,150.028884 289.841123,149.557594 C289.474175,149.086304 289.193285,148.526252 288.998445,147.877421 C288.803606,147.22859 288.706187,146.523279 288.706187,145.761468 L288.706187,145.558104 Z M291.063737,145.761468 C291.063737,146.226302 291.110823,146.663691 291.204995,147.073649 C291.299168,147.483607 291.446919,147.843525 291.648254,148.153415 C291.849588,148.463304 292.102876,148.707016 292.408125,148.884557 C292.713374,149.062097 293.080317,149.150866 293.508965,149.150866 C294.041527,149.150866 294.476663,149.039502 294.814385,148.816769 C295.152107,148.594036 295.424879,148.298677 295.632708,147.930683 L295.632708,143.321101 C295.424879,142.953107 295.150484,142.66259 294.809514,142.449541 C294.468544,142.236492 294.041527,142.129969 293.528449,142.129969 C293.099801,142.129969 292.729611,142.220352 292.417867,142.401121 C292.106123,142.58189 291.851212,142.827216 291.653125,143.137105 C291.455038,143.446994 291.307286,143.810141 291.209866,144.226555 C291.112446,144.642968 291.063737,145.086814 291.063737,145.558104 L291.063737,145.761468 Z" id="New-Hire-Onboarding" fill="#435868"></path>
        <path d="M142.549912,218.883185 L137.975122,218.883185 L137.975122,223.731273 L136,223.731273 L136,212.290728 L143.221297,212.290728 L143.221297,213.893662 L137.975122,213.893662 L137.975122,217.295966 L142.549912,217.295966 L142.549912,218.883185 Z M146.617258,223.731273 L144.720204,223.731273 L144.720204,215.229439 L146.617258,215.229439 L146.617258,223.731273 Z M144.603102,213.021477 C144.603102,212.728128 144.695482,212.484548 144.880244,212.290728 C145.065006,212.096908 145.329133,212 145.672635,212 C146.016136,212 146.281565,212.096908 146.468929,212.290728 C146.656293,212.484548 146.749974,212.728128 146.749974,213.021477 C146.749974,213.309588 146.656293,213.549239 146.468929,213.74044 C146.281565,213.931641 146.016136,214.027239 145.672635,214.027239 C145.329133,214.027239 145.065006,213.931641 144.880244,213.74044 C144.695482,213.549239 144.603102,213.309588 144.603102,213.021477 Z M153.104715,216.973808 C152.979806,216.952855 152.853597,216.93714 152.726085,216.926663 C152.598573,216.916186 152.46716,216.910948 152.331841,216.910948 C151.87384,216.910948 151.501719,216.999999 151.215468,217.178104 C150.929217,217.356208 150.715833,217.602408 150.57531,217.91671 L150.57531,223.731273 L148.678255,223.731273 L148.678255,215.229439 L150.489435,215.229439 L150.536276,216.180199 C150.749663,215.834467 151.01379,215.563385 151.328667,215.366946 C151.643543,215.170507 152.014362,215.072289 152.441137,215.072289 C152.550433,215.072289 152.674039,215.084075 152.81196,215.107648 C152.949881,215.131221 153.050067,215.156103 153.112522,215.182294 L153.104715,216.973808 Z M159.037889,221.421163 C159.037889,221.284965 159.01577,221.157937 158.971531,221.040073 C158.927292,220.92221 158.840117,220.812206 158.710003,220.710058 C158.579889,220.607909 158.396431,220.512311 158.159623,220.423258 C157.922816,220.334206 157.61445,220.250393 157.234516,220.171818 C156.781719,220.077527 156.369264,219.959665 155.997138,219.818229 C155.625011,219.676793 155.306236,219.505239 155.040804,219.303562 C154.775371,219.101885 154.568492,218.864852 154.420162,218.592457 C154.271832,218.320061 154.197668,218.005764 154.197668,217.649555 C154.197668,217.303822 154.273133,216.975119 154.424066,216.663436 C154.574998,216.351753 154.792285,216.078053 155.075934,215.842326 C155.359583,215.606599 155.703079,215.41933 156.106433,215.280513 C156.509787,215.141697 156.961276,215.072289 157.460914,215.072289 C157.986575,215.072289 158.458882,215.141697 158.877849,215.280513 C159.296817,215.41933 159.652023,215.610528 159.943479,215.854112 C160.234934,216.097696 160.457426,216.384493 160.610961,216.71451 C160.764495,217.044528 160.841262,217.400731 160.841262,217.783133 L158.944207,217.783133 C158.944207,217.620743 158.91298,217.462285 158.850526,217.307753 C158.788071,217.153221 158.69439,217.015716 158.569481,216.895233 C158.444571,216.774751 158.289738,216.679152 158.104976,216.608434 C157.920214,216.537716 157.705528,216.502357 157.460914,216.502357 C157.221504,216.502357 157.013325,216.532477 156.836369,216.592719 C156.659414,216.65296 156.512387,216.731534 156.395285,216.828444 C156.278182,216.925354 156.191007,217.037977 156.133757,217.166317 C156.076506,217.294658 156.047882,217.429544 156.047882,217.57098 C156.047882,217.712416 156.073904,217.838135 156.12595,217.94814 C156.177995,218.058146 156.270375,218.157674 156.403091,218.246726 C156.535808,218.335778 156.714062,218.418281 156.937858,218.494238 C157.161654,218.570194 157.442696,218.64484 157.780993,218.718177 C158.270222,218.822944 158.7087,218.946044 159.09644,219.08748 C159.48418,219.228916 159.812063,219.40178 160.080098,219.606076 C160.348133,219.810373 160.552409,220.051334 160.692932,220.328968 C160.833455,220.606602 160.903716,220.936614 160.903716,221.319015 C160.903716,221.696178 160.823047,222.041905 160.661705,222.356207 C160.500364,222.67051 160.270065,222.941591 159.970803,223.16946 C159.67154,223.39733 159.311129,223.574122 158.88956,223.699843 C158.46799,223.825564 157.999586,223.888423 157.484334,223.888423 C156.906628,223.888423 156.395287,223.80592 155.950297,223.640911 C155.505306,223.475903 155.131885,223.259823 154.83002,222.992666 C154.528155,222.725509 154.300459,222.422998 154.146924,222.085123 C153.993389,221.747248 153.916623,221.40283 153.916623,221.05186 L155.75903,221.05186 C155.774644,221.313778 155.834495,221.533786 155.938586,221.711891 C156.042678,221.889996 156.175392,222.034049 156.336734,222.144054 C156.498075,222.25406 156.680232,222.333944 156.88321,222.383709 C157.086188,222.433473 157.294368,222.458355 157.507755,222.458355 C158.007393,222.458355 158.38732,222.362756 158.647549,222.171556 C158.907777,221.980355 159.037889,221.730227 159.037889,221.421163 Z M164.932029,213.162913 L164.932029,215.229439 L166.423129,215.229439 L166.423129,216.643793 L164.932029,216.643793 L164.932029,221.389733 C164.932029,221.583553 164.952847,221.740701 164.994483,221.861184 C165.03612,221.981666 165.095971,222.074646 165.17404,222.140126 C165.252108,222.205605 165.344488,222.250131 165.451181,222.273704 C165.557875,222.297276 165.676277,222.309062 165.806391,222.309062 C165.936505,222.309062 166.062714,222.299895 166.185021,222.281561 C166.307329,222.263227 166.40231,222.246202 166.46997,222.230487 L166.46997,223.7077 C166.319037,223.749607 166.143386,223.790204 165.94301,223.829492 C165.742635,223.86878 165.501927,223.888423 165.220881,223.888423 C164.908607,223.888423 164.618457,223.846517 164.350422,223.762703 C164.082387,223.678889 163.850787,223.542693 163.655616,223.354112 C163.460445,223.165531 163.308213,222.919331 163.198917,222.615506 C163.089622,222.31168 163.034974,221.939761 163.034974,221.499738 L163.034974,216.643793 L161.645363,216.643793 L161.645363,215.229439 L163.034974,215.229439 L163.034974,213.162913 L164.932029,213.162913 Z M177.977204,220.784704 C177.977204,220.554216 177.943375,220.348613 177.875716,220.167889 C177.808056,219.987165 177.68445,219.820849 177.504892,219.668937 C177.325335,219.517024 177.078122,219.371661 176.763246,219.232844 C176.448369,219.094028 176.043721,218.948665 175.549287,218.796752 C175.008012,218.634363 174.508382,218.448403 174.05038,218.238869 C173.592378,218.029334 173.198138,217.785753 172.867649,217.508119 C172.537159,217.230486 172.278236,216.91095 172.090871,216.549502 C171.903507,216.188055 171.809826,215.77423 171.809826,215.308015 C171.809826,214.847038 171.90741,214.422736 172.102581,214.035097 C172.297753,213.647457 172.572289,213.312207 172.9262,213.029335 C173.28011,212.746463 173.704276,212.526454 174.198709,212.369303 C174.693143,212.212152 175.239614,212.133578 175.838139,212.133578 C176.4783,212.133578 177.053396,212.226557 177.563443,212.41252 C178.073491,212.598482 178.504162,212.851229 178.85547,213.17077 C179.206778,213.490311 179.47611,213.86092 179.663475,214.282609 C179.850839,214.704298 179.94452,215.153481 179.94452,215.630173 L177.977204,215.630173 C177.977204,215.352539 177.934267,215.097172 177.848392,214.864065 C177.762516,214.630957 177.631103,214.429283 177.454148,214.259036 C177.277193,214.088789 177.0534,213.956522 176.782763,213.862232 C176.512125,213.767941 176.192049,213.720796 175.822525,213.720796 C175.473819,213.720796 175.171959,213.760083 174.916936,213.838659 C174.661912,213.917235 174.449829,214.027239 174.280681,214.168675 C174.111532,214.310111 173.986625,214.477736 173.905954,214.671556 C173.825283,214.865376 173.784948,215.074907 173.784948,215.300157 C173.784948,215.724465 173.98402,216.07805 174.382169,216.360922 C174.780318,216.643794 175.387942,216.905709 176.205059,217.146674 C176.84522,217.335255 177.399498,217.544787 177.867909,217.775275 C178.33632,218.005763 178.725355,218.266368 179.035027,218.557098 C179.344698,218.847828 179.574997,219.175221 179.725929,219.539288 C179.876861,219.903354 179.952326,220.313251 179.952326,220.768989 C179.952326,221.250919 179.857345,221.684388 179.667378,222.069408 C179.477411,222.454428 179.206778,222.781822 178.85547,223.051598 C178.504162,223.321374 178.078695,223.528286 177.579057,223.672342 C177.079419,223.816397 176.522539,223.888423 175.9084,223.888423 C175.361921,223.888423 174.823257,223.813778 174.292391,223.664484 C173.761525,223.51519 173.285315,223.289944 172.863745,222.988738 C172.442175,222.687531 172.102583,222.311684 171.844957,221.861184 C171.587331,221.410684 171.45852,220.881616 171.45852,220.273965 L173.433642,220.273965 C173.433642,220.635413 173.497397,220.945782 173.624909,221.205081 C173.752421,221.464381 173.926771,221.676531 174.147965,221.84154 C174.369159,222.006549 174.630684,222.127029 174.932549,222.202986 C175.234414,222.278942 175.559694,222.31692 175.9084,222.31692 C176.595403,222.31692 177.111948,222.176796 177.458051,221.896543 C177.804155,221.61629 177.977204,221.245681 177.977204,220.784704 Z M183.879151,213.162913 L183.879151,215.229439 L185.370251,215.229439 L185.370251,216.643793 L183.879151,216.643793 L183.879151,221.389733 C183.879151,221.583553 183.899969,221.740701 183.941605,221.861184 C183.983242,221.981666 184.043093,222.074646 184.121162,222.140126 C184.19923,222.205605 184.29161,222.250131 184.398303,222.273704 C184.504997,222.297276 184.623399,222.309062 184.753513,222.309062 C184.883627,222.309062 185.009836,222.299895 185.132143,222.281561 C185.25445,222.263227 185.349432,222.246202 185.417092,222.230487 L185.417092,223.7077 C185.266159,223.749607 185.090508,223.790204 184.890132,223.829492 C184.689756,223.86878 184.449049,223.888423 184.168002,223.888423 C183.855729,223.888423 183.565579,223.846517 183.297543,223.762703 C183.029508,223.678889 182.797909,223.542693 182.602738,223.354112 C182.407566,223.165531 182.255335,222.919331 182.146039,222.615506 C182.036743,222.31168 181.982096,221.939761 181.982096,221.499738 L181.982096,216.643793 L180.592485,216.643793 L180.592485,215.229439 L181.982096,215.229439 L181.982096,213.162913 L183.879151,213.162913 Z M190.538357,223.888423 C189.91381,223.888423 189.351725,223.783657 188.852087,223.574123 C188.352449,223.364588 187.928283,223.076482 187.579577,222.709796 C187.230872,222.34311 186.962841,221.908331 186.775476,221.405448 C186.588112,220.902564 186.494431,220.360401 186.494431,219.778942 L186.494431,219.464641 C186.494431,218.79413 186.593316,218.187797 186.79109,217.645626 C186.988863,217.103455 187.259497,216.642485 187.602998,216.262703 C187.946499,215.882921 188.351148,215.589577 188.816956,215.382661 C189.282765,215.175745 189.783697,215.072289 190.319767,215.072289 C190.933905,215.072289 191.467365,215.175745 191.920162,215.382661 C192.372959,215.589577 192.747682,215.878992 193.044343,216.250917 C193.341003,216.622841 193.562194,217.065477 193.707921,217.578837 C193.853649,218.092197 193.926512,218.655314 193.926512,219.268203 L193.926512,220.085385 L188.407099,220.085385 C188.433122,220.415402 188.502081,220.719223 188.613979,220.996857 C188.725878,221.274491 188.878109,221.514143 189.070678,221.71582 C189.263247,221.917497 189.490943,222.075955 189.753773,222.1912 C190.016604,222.306444 190.314561,222.364065 190.647653,222.364065 C191.116064,222.364065 191.523315,222.269776 191.869418,222.081194 C192.215522,221.892613 192.516081,221.633318 192.771104,221.3033 L193.793796,222.28549 C193.658478,222.489786 193.490633,222.687532 193.290257,222.878732 C193.089881,223.069933 192.855679,223.240177 192.587644,223.389471 C192.319609,223.538764 192.016448,223.659245 191.678151,223.750917 C191.339855,223.842588 190.959927,223.888423 190.538357,223.888423 Z M190.31196,216.604505 C189.791504,216.604505 189.371241,216.787845 189.051161,217.154531 C188.73108,217.521217 188.526804,218.031951 188.438326,218.686747 L192.052878,218.686747 L192.052878,218.545312 C192.037264,218.29387 191.99693,218.051599 191.931873,217.818491 C191.866816,217.585384 191.766629,217.378471 191.631311,217.197748 C191.495992,217.017024 191.32034,216.872971 191.104351,216.765584 C190.888362,216.658197 190.624234,216.604505 190.31196,216.604505 Z M202.795045,219.566789 C202.795045,220.184917 202.723484,220.75851 202.580358,221.287585 C202.437233,221.816661 202.226451,222.273702 201.948007,222.658722 C201.669562,223.043742 201.326066,223.344944 200.917508,223.562336 C200.50895,223.779729 200.041847,223.888423 199.516186,223.888423 C199.032162,223.888423 198.607996,223.809849 198.243676,223.652698 C197.879357,223.495547 197.561883,223.267681 197.291246,222.969094 L197.291246,227 L195.394192,227 L195.394192,215.229439 L197.142917,215.229439 L197.220985,216.093766 C197.491622,215.763749 197.812999,215.511001 198.185125,215.335516 C198.557252,215.160031 198.993128,215.072289 199.492766,215.072289 C200.028836,215.072289 200.502444,215.177055 200.913605,215.38659 C201.324765,215.596125 201.669562,215.890779 201.948007,216.270561 C202.226451,216.650342 202.437233,217.106074 202.580358,217.637768 C202.723484,218.169463 202.795045,218.757461 202.795045,219.401781 L202.795045,219.566789 Z M200.905798,219.401781 C200.905798,219.01938 200.868065,218.660557 200.792599,218.325301 C200.717133,217.990045 200.601333,217.696701 200.445196,217.445259 C200.289059,217.193817 200.088687,216.996072 199.844072,216.852017 C199.599458,216.707962 199.305404,216.635935 198.961903,216.635935 C198.545538,216.635935 198.202042,216.722367 197.931404,216.895233 C197.660767,217.068099 197.447383,217.303822 197.291246,217.60241 L197.291246,221.374018 C197.447383,221.672605 197.659466,221.912257 197.927501,222.092981 C198.195536,222.273704 198.545538,222.364065 198.977516,222.364065 C199.321018,222.364065 199.61377,222.289419 199.855782,222.140126 C200.097794,221.990832 200.296866,221.789158 200.453003,221.535097 C200.60914,221.281036 200.723639,220.983763 200.796503,220.643269 C200.869366,220.302775 200.905798,219.943952 200.905798,219.566789 L200.905798,219.401781 Z M209.134173,221.421163 C209.134173,221.284965 209.112054,221.157937 209.067815,221.040073 C209.023576,220.92221 208.936401,220.812206 208.806287,220.710058 C208.676173,220.607909 208.492715,220.512311 208.255907,220.423258 C208.019099,220.334206 207.710734,220.250393 207.3308,220.171818 C206.878003,220.077527 206.465548,219.959665 206.093421,219.818229 C205.721295,219.676793 205.40252,219.505239 205.137088,219.303562 C204.871655,219.101885 204.664776,218.864852 204.516446,218.592457 C204.368116,218.320061 204.293952,218.005764 204.293952,217.649555 C204.293952,217.303822 204.369417,216.975119 204.52035,216.663436 C204.671282,216.351753 204.888569,216.078053 205.172218,215.842326 C205.455867,215.606599 205.799363,215.41933 206.202717,215.280513 C206.606071,215.141697 207.05756,215.072289 207.557198,215.072289 C208.082859,215.072289 208.555166,215.141697 208.974133,215.280513 C209.393101,215.41933 209.748307,215.610528 210.039763,215.854112 C210.331218,216.097696 210.55371,216.384493 210.707245,216.71451 C210.860779,217.044528 210.937546,217.400731 210.937546,217.783133 L209.040491,217.783133 C209.040491,217.620743 209.009264,217.462285 208.94681,217.307753 C208.884355,217.153221 208.790674,217.015716 208.665765,216.895233 C208.540855,216.774751 208.386022,216.679152 208.201259,216.608434 C208.016497,216.537716 207.801812,216.502357 207.557198,216.502357 C207.317788,216.502357 207.109608,216.532477 206.932653,216.592719 C206.755698,216.65296 206.608671,216.731534 206.491569,216.828444 C206.374466,216.925354 206.287291,217.037977 206.230041,217.166317 C206.17279,217.294658 206.144166,217.429544 206.144166,217.57098 C206.144166,217.712416 206.170188,217.838135 206.222234,217.94814 C206.274279,218.058146 206.366659,218.157674 206.499375,218.246726 C206.632092,218.335778 206.810346,218.418281 207.034142,218.494238 C207.257938,218.570194 207.53898,218.64484 207.877277,218.718177 C208.366506,218.822944 208.804984,218.946044 209.192724,219.08748 C209.580464,219.228916 209.908347,219.40178 210.176382,219.606076 C210.444417,219.810373 210.648693,220.051334 210.789216,220.328968 C210.929739,220.606602 211,220.936614 211,221.319015 C211,221.696178 210.91933,222.041905 210.757989,222.356207 C210.596647,222.67051 210.366349,222.941591 210.067086,223.16946 C209.767824,223.39733 209.407413,223.574122 208.985844,223.699843 C208.564274,223.825564 208.09587,223.888423 207.580618,223.888423 C207.002912,223.888423 206.491571,223.80592 206.046581,223.640911 C205.60159,223.475903 205.228168,223.259823 204.926304,222.992666 C204.624439,222.725509 204.396743,222.422998 204.243208,222.085123 C204.089673,221.747248 204.012907,221.40283 204.012907,221.05186 L205.855314,221.05186 C205.870928,221.313778 205.930779,221.533786 206.03487,221.711891 C206.138962,221.889996 206.271676,222.034049 206.433018,222.144054 C206.594359,222.25406 206.776516,222.333944 206.979494,222.383709 C207.182472,222.433473 207.390652,222.458355 207.604039,222.458355 C208.103677,222.458355 208.483604,222.362756 208.743833,222.171556 C209.004061,221.980355 209.134173,221.730227 209.134173,221.421163 Z" id="First-Steps" fill="#455A6A"></path>
        <path d="M137.964625,441.091193 L143.097498,441.091193 L143.097498,442.670141 L136,442.670141 L136,431.289213 L137.964625,431.289213 L137.964625,441.091193 Z M144.068162,438.36321 C144.068162,437.748303 144.157462,437.179002 144.336066,436.655289 C144.514669,436.131576 144.770922,435.676917 145.104832,435.291298 C145.438742,434.905678 145.846417,434.60344 146.327869,434.384575 C146.809321,434.16571 147.355476,434.056279 147.96635,434.056279 C148.582402,434.056279 149.133734,434.16571 149.620362,434.384575 C150.106991,434.60344 150.517255,434.905678 150.851165,435.291298 C151.185075,435.676917 151.440034,436.131576 151.616048,436.655289 C151.792063,437.179002 151.880069,437.748303 151.880069,438.36321 L151.880069,438.527358 C151.880069,439.142265 151.792063,439.712869 151.616048,440.239187 C151.440034,440.765505 151.185075,441.220165 150.851165,441.603179 C150.517255,441.986193 150.108285,442.285825 149.624245,442.502084 C149.140205,442.718344 148.592755,442.826472 147.981881,442.826472 C147.36583,442.826472 146.815792,442.718344 146.331752,442.502084 C145.847711,442.285825 145.438742,441.986193 145.104832,441.603179 C144.770922,441.220165 144.514669,440.765505 144.336066,440.239187 C144.157462,439.712869 144.068162,439.142265 144.068162,438.527358 L144.068162,438.36321 Z M145.955134,438.527358 C145.955134,438.907766 145.99396,439.267325 146.071613,439.606045 C146.149267,439.944765 146.270922,440.240489 146.436583,440.493226 C146.602244,440.745963 146.8132,440.945283 147.069456,441.091193 C147.325713,441.237103 147.629852,441.310057 147.981881,441.310057 C148.328733,441.310057 148.630283,441.237103 148.88654,441.091193 C149.142797,440.945283 149.352458,440.745963 149.515531,440.493226 C149.678603,440.240489 149.800258,439.944765 149.8805,439.606045 C149.960742,439.267325 150.000863,438.907766 150.000863,438.527358 L150.000863,438.36321 C150.000863,437.988013 149.960742,437.632362 149.8805,437.296248 C149.800258,436.960134 149.677309,436.665713 149.511648,436.412976 C149.345987,436.160238 149.135031,435.958312 148.878775,435.807191 C148.622518,435.65607 148.31838,435.580511 147.96635,435.580511 C147.614321,435.580511 147.312771,435.65607 147.061691,435.807191 C146.810611,435.958312 146.602244,436.160238 146.436583,436.412976 C146.270922,436.665713 146.149267,436.960134 146.071613,437.296248 C145.99396,437.632362 145.955134,437.988013 145.955134,438.36321 L145.955134,438.527358 Z M153.145815,438.378843 C153.145815,437.737881 153.223468,437.151644 153.378775,436.620115 C153.534082,436.088585 153.75798,435.632623 154.050475,435.252215 C154.34297,434.871806 154.696288,434.577385 155.11044,434.368942 C155.524592,434.160499 155.990506,434.056279 156.508197,434.056279 C157.015533,434.056279 157.452975,434.143563 157.820535,434.318134 C158.188095,434.492705 158.503881,434.74153 158.767903,435.064617 L158.853322,434.212611 L160.553926,434.212611 L160.553926,442.435644 C160.553926,443.003651 160.460743,443.509117 160.274374,443.952058 C160.088006,444.395 159.827871,444.767586 159.49396,445.069828 C159.16005,445.37207 158.758846,445.602657 158.290336,445.761595 C157.821827,445.920532 157.308027,446 156.748921,446 C156.515961,446 156.25712,445.975248 155.97239,445.925743 C155.68766,445.876237 155.400347,445.795467 155.11044,445.683429 C154.820533,445.571391 154.543573,445.426786 154.279551,445.249609 C154.015529,445.072433 153.790337,444.856176 153.603969,444.600834 L154.49698,443.459614 C154.807594,443.829601 155.145382,444.095361 155.510354,444.256905 C155.875325,444.418448 156.251939,444.499218 156.640207,444.499218 C157.266612,444.499218 157.760999,444.328558 158.123382,443.987233 C158.485765,443.645908 158.666954,443.144349 158.666954,442.482543 L158.666954,441.911933 C158.402932,442.208964 158.092323,442.435643 157.735116,442.591975 C157.37791,442.748307 156.963764,442.826472 156.492666,442.826472 C155.980153,442.826472 155.518121,442.718344 155.106557,442.502084 C154.694994,442.285825 154.34297,441.987495 154.050475,441.607087 C153.75798,441.226679 153.534082,440.774625 153.378775,440.250912 C153.223468,439.727199 153.145815,439.157898 153.145815,438.542991 L153.145815,438.378843 Z M155.025022,438.542991 C155.025022,438.918188 155.062554,439.271233 155.137619,439.602137 C155.212684,439.93304 155.330456,440.223553 155.49094,440.473684 C155.651424,440.723816 155.853321,440.920531 156.096635,441.063835 C156.339949,441.20714 156.63244,441.278791 156.974116,441.278791 C157.398622,441.278791 157.745469,441.188901 158.014668,441.009119 C158.283867,440.829337 158.501293,440.590934 158.666954,440.293903 L158.666954,436.573215 C158.501293,436.276184 158.282573,436.041689 158.010785,435.869724 C157.738998,435.697758 157.398622,435.611777 156.989646,435.611777 C156.647971,435.611777 156.352892,435.684731 156.1044,435.830641 C155.855909,435.976551 155.652719,436.174569 155.494823,436.4247 C155.336928,436.674832 155.219155,436.96795 155.141501,437.304065 C155.063848,437.640179 155.025022,437.998435 155.025022,438.378843 L155.025022,438.542991 Z M164.498706,442.670141 L162.611734,442.670141 L162.611734,434.212611 L164.498706,434.212611 L164.498706,442.670141 Z M162.495255,432.016154 C162.495255,431.724334 162.587143,431.482023 162.770923,431.289213 C162.954703,431.096403 163.217427,431 163.559103,431 C163.900778,431 164.164796,431.096403 164.351165,431.289213 C164.537533,431.482023 164.630716,431.724334 164.630716,432.016154 C164.630716,432.302763 164.537533,432.541166 164.351165,432.731371 C164.164796,432.921575 163.900778,433.016675 163.559103,433.016675 C163.217427,433.016675 162.954703,432.921575 162.770923,432.731371 C162.587143,432.541166 162.495255,432.302763 162.495255,432.016154 Z M171.262295,440.372069 C171.262295,440.236581 171.240294,440.110214 171.19629,439.992965 C171.152286,439.875716 171.065574,439.766285 170.936152,439.664669 C170.806729,439.563053 170.624246,439.467953 170.388697,439.379364 C170.153148,439.290776 169.846421,439.2074 169.468507,439.129234 C169.018117,439.035435 168.607853,438.918187 168.237705,438.777488 C167.867556,438.636789 167.550476,438.466129 167.286454,438.265503 C167.022432,438.064877 166.816653,437.829079 166.669111,437.558103 C166.52157,437.287127 166.4478,436.974468 166.4478,436.620115 C166.4478,436.276184 166.522864,435.949194 166.672994,435.639135 C166.823124,435.329076 167.039257,435.056802 167.321398,434.822303 C167.603539,434.587805 167.945209,434.401512 168.346419,434.263418 C168.747629,434.125325 169.196719,434.056279 169.693701,434.056279 C170.216569,434.056279 170.686365,434.125325 171.103106,434.263418 C171.519847,434.401512 171.873165,434.591713 172.163072,434.834028 C172.452978,435.076343 172.674287,435.361645 172.827006,435.689943 C172.979725,436.01824 173.056083,436.372588 173.056083,436.752996 L171.169111,436.752996 C171.169111,436.591453 171.13805,436.43382 171.075928,436.280094 C171.013805,436.126367 170.920622,435.989579 170.796376,435.869724 C170.672131,435.749869 170.51812,435.654768 170.33434,435.584419 C170.15056,435.514069 169.937016,435.478895 169.693701,435.478895 C169.455564,435.478895 169.248491,435.508858 169.072476,435.568786 C168.896462,435.628713 168.750216,435.706878 168.633736,435.803283 C168.517256,435.899688 168.430544,436.011724 168.373598,436.139396 C168.316652,436.267067 168.288179,436.40125 168.288179,436.541949 C168.288179,436.682648 168.314064,436.807712 168.365833,436.917144 C168.417602,437.026577 168.50949,437.125586 168.641501,437.214174 C168.773512,437.302762 168.950819,437.384835 169.173425,437.460396 C169.396032,437.535957 169.675581,437.610213 170.012079,437.683168 C170.498708,437.78739 170.934856,437.909848 171.320535,438.050547 C171.706214,438.191246 172.032354,438.363209 172.298965,438.566441 C172.565575,438.769673 172.768765,439.009379 172.908542,439.285565 C173.048318,439.561752 173.118205,439.890045 173.118205,440.270453 C173.118205,440.645651 173.037965,440.989576 172.877481,441.302241 C172.716997,441.614905 172.487922,441.884574 172.19025,442.111256 C171.892578,442.337938 171.534083,442.513809 171.114754,442.638874 C170.695425,442.76394 170.229511,442.826472 169.716997,442.826472 C169.142361,442.826472 168.633738,442.744399 168.191113,442.58025 C167.748488,442.416101 167.377051,442.201148 167.07679,441.935383 C166.77653,441.669618 166.550044,441.368683 166.397325,441.032569 C166.244607,440.696455 166.168248,440.353832 166.168248,440.00469 L168.000863,440.00469 C168.016394,440.265244 168.075927,440.484105 168.179465,440.661282 C168.283003,440.838458 168.415012,440.981761 168.575496,441.091193 C168.73598,441.200626 168.917169,441.280094 169.119068,441.329599 C169.320967,441.379104 169.52804,441.403856 169.740293,441.403856 C170.237276,441.403856 170.615184,441.308756 170.874029,441.118551 C171.132874,440.928347 171.262295,440.679522 171.262295,440.372069 Z M177.125108,432.156853 L177.125108,434.212611 L178.608283,434.212611 L178.608283,435.619594 L177.125108,435.619594 L177.125108,440.340803 C177.125108,440.533612 177.145815,440.689942 177.18723,440.809797 C177.228646,440.929651 177.288179,441.022147 177.365833,441.087285 C177.443486,441.152423 177.535375,441.196717 177.641501,441.220167 C177.747628,441.243617 177.865401,441.255341 177.994823,441.255341 C178.124246,441.255341 178.249784,441.246222 178.371441,441.227983 C178.493098,441.209745 178.587575,441.192809 178.654875,441.177176 L178.654875,442.646691 C178.504745,442.68838 178.330027,442.728765 178.130716,442.767848 C177.931405,442.806931 177.691977,442.826472 177.412425,442.826472 C177.10181,442.826472 176.813202,442.784784 176.546592,442.701407 C176.279981,442.61803 176.049613,442.482544 175.855479,442.294945 C175.661345,442.107347 175.509923,441.86243 175.401208,441.560188 C175.292493,441.257945 175.238136,440.887965 175.238136,440.450234 L175.238136,435.619594 L173.85591,435.619594 L173.85591,434.212611 L175.238136,434.212611 L175.238136,432.156853 L177.125108,432.156853 Z M182.056083,442.670141 L180.169111,442.670141 L180.169111,434.212611 L182.056083,434.212611 L182.056083,442.670141 Z M180.052632,432.016154 C180.052632,431.724334 180.14452,431.482023 180.3283,431.289213 C180.51208,431.096403 180.774804,431 181.11648,431 C181.458155,431 181.722173,431.096403 181.908542,431.289213 C182.09491,431.482023 182.188093,431.724334 182.188093,432.016154 C182.188093,432.302763 182.09491,432.541166 181.908542,432.731371 C181.722173,432.921575 181.458155,433.016675 181.11648,433.016675 C180.774804,433.016675 180.51208,432.921575 180.3283,432.731371 C180.14452,432.541166 180.052632,432.302763 180.052632,432.016154 Z M187.561691,441.310057 C187.789475,441.310057 188.003019,441.274883 188.20233,441.204534 C188.40164,441.134184 188.575064,441.035175 188.722606,440.907504 C188.870147,440.779833 188.989214,440.627411 189.07981,440.450234 C189.170406,440.273058 189.22088,440.080251 189.231234,439.871808 L191.009491,439.871808 C190.99396,440.278272 190.894306,440.66128 190.710526,441.020844 C190.526746,441.380408 190.280847,441.694371 189.972821,441.962741 C189.664796,442.231111 189.306301,442.442157 188.897325,442.595883 C188.48835,442.74961 188.050908,442.826472 187.584987,442.826472 C186.937874,442.826472 186.374895,442.714436 185.896031,442.49036 C185.417168,442.266283 185.018552,441.96144 184.700173,441.575821 C184.381793,441.190201 184.144953,440.73945 183.989646,440.223554 C183.834339,439.707658 183.756687,439.160503 183.756687,438.582074 L183.756687,438.308494 C183.756687,437.730065 183.834339,437.18291 183.989646,436.667014 C184.144953,436.151118 184.381793,435.699064 184.700173,435.310839 C185.018552,434.922614 185.415873,434.616468 185.892148,434.392392 C186.368423,434.168316 186.930109,434.056279 187.577222,434.056279 C188.084558,434.056279 188.54659,434.134444 188.96333,434.290776 C189.380071,434.447109 189.737272,434.66597 190.034944,434.947368 C190.332616,435.228766 190.565573,435.564876 190.733822,435.955706 C190.902072,436.346537 190.99396,436.776444 191.009491,437.24544 L189.231234,437.24544 C189.22088,437.021364 189.175583,436.807713 189.095341,436.604482 C189.015099,436.40125 188.903797,436.224076 188.761432,436.072955 C188.619067,435.921834 188.446938,435.801981 188.245039,435.713392 C188.04314,435.624804 187.815359,435.580511 187.561691,435.580511 C187.1786,435.580511 186.862814,435.659978 186.614323,435.818916 C186.365831,435.977854 186.169112,436.184991 186.024159,436.440334 C185.879205,436.695676 185.779552,436.987492 185.725194,437.315789 C185.670837,437.644087 185.643658,437.974985 185.643658,438.308494 L185.643658,438.582074 C185.643658,438.926005 185.670837,439.260811 185.725194,439.586503 C185.779552,439.912195 185.879205,440.202708 186.024159,440.458051 C186.169112,440.713394 186.364537,440.919228 186.61044,441.07556 C186.856343,441.231892 187.173423,441.310057 187.561691,441.310057 Z M197.14409,440.372069 C197.14409,440.236581 197.122088,440.110214 197.078085,439.992965 C197.034081,439.875716 196.947369,439.766285 196.817947,439.664669 C196.688524,439.563053 196.506041,439.467953 196.270492,439.379364 C196.034943,439.290776 195.728216,439.2074 195.350302,439.129234 C194.899911,439.035435 194.489648,438.918187 194.1195,438.777488 C193.749351,438.636789 193.432271,438.466129 193.168248,438.265503 C192.904226,438.064877 192.698448,437.829079 192.550906,437.558103 C192.403364,437.287127 192.329594,436.974468 192.329594,436.620115 C192.329594,436.276184 192.404658,435.949194 192.554789,435.639135 C192.704919,435.329076 192.921051,435.056802 193.203192,434.822303 C193.485334,434.587805 193.827004,434.401512 194.228214,434.263418 C194.629424,434.125325 195.078513,434.056279 195.575496,434.056279 C196.098363,434.056279 196.56816,434.125325 196.984901,434.263418 C197.401641,434.401512 197.75496,434.591713 198.044866,434.834028 C198.334773,435.076343 198.556082,435.361645 198.708801,435.689943 C198.861519,436.01824 198.937877,436.372588 198.937877,436.752996 L197.050906,436.752996 C197.050906,436.591453 197.019845,436.43382 196.957722,436.280094 C196.895599,436.126367 196.802416,435.989579 196.678171,435.869724 C196.553925,435.749869 196.399915,435.654768 196.216135,435.584419 C196.032355,435.514069 195.818811,435.478895 195.575496,435.478895 C195.337359,435.478895 195.130286,435.508858 194.954271,435.568786 C194.778256,435.628713 194.632011,435.706878 194.515531,435.803283 C194.39905,435.899688 194.312339,436.011724 194.255393,436.139396 C194.198447,436.267067 194.169974,436.40125 194.169974,436.541949 C194.169974,436.682648 194.195858,436.807712 194.247627,436.917144 C194.299396,437.026577 194.391285,437.125586 194.523296,437.214174 C194.655307,437.302762 194.832613,437.384835 195.05522,437.460396 C195.277827,437.535957 195.557375,437.610213 195.893874,437.683168 C196.380503,437.78739 196.81665,437.909848 197.20233,438.050547 C197.588009,438.191246 197.914149,438.363209 198.180759,438.566441 C198.44737,438.769673 198.65056,439.009379 198.790336,439.285565 C198.930113,439.561752 199,439.890045 199,440.270453 C199,440.645651 198.919759,440.989576 198.759275,441.302241 C198.598791,441.614905 198.369717,441.884574 198.072045,442.111256 C197.774373,442.337938 197.415878,442.513809 196.996549,442.638874 C196.57722,442.76394 196.111305,442.826472 195.598792,442.826472 C195.024156,442.826472 194.515533,442.744399 194.072908,442.58025 C193.630283,442.416101 193.258845,442.201148 192.958585,441.935383 C192.658325,441.669618 192.431839,441.368683 192.27912,441.032569 C192.126401,440.696455 192.050043,440.353832 192.050043,440.00469 L193.882657,440.00469 C193.898188,440.265244 193.957722,440.484105 194.06126,440.661282 C194.164798,440.838458 194.296807,440.981761 194.457291,441.091193 C194.617775,441.200626 194.798964,441.280094 195.000863,441.329599 C195.202762,441.379104 195.409835,441.403856 195.622088,441.403856 C196.119071,441.403856 196.496979,441.308756 196.755824,441.118551 C197.014669,440.928347 197.14409,440.679522 197.14409,440.372069 Z" id="Logistics" fill="#455A6A"></path>
        <g id="Group" transform="translate(557.000000, 305.000000)">
            <g id="Group-4">
                <g id="Group-2">
                    <g id="Container-/-Elevation-0-/-R16">
                        <mask id="mask-40" fill="white">
                            <use xlink:href="#path-39"></use>
                        </mask>
                        <use id="Container" fill-opacity="0" fill="#FFFFFF" fill-rule="evenodd" xlink:href="#path-39"></use>
                        <g id="Atom-/-Color-/-Primary-/-White" mask="url(#mask-40)" fill="#FFFFFF" fill-rule="evenodd">
                            <rect id="Rectangle-3" x="0" y="0" width="275.603123" height="190.105804"></rect>
                        </g>
                    </g>
                    <g id="Button-/-Flat-/-Icon-/-Medium-/-1-Normal" transform="translate(226.000000, 17.000000)">
                        <g id="Button-/-Call-to-action-/-Icon-/-Medium-/-1-Normal">
                            <rect id="BG" fill-opacity="0" fill="#FFFFFF" x="0" y="0" width="32.7049434" height="32.7049434" rx="8.42400058"></rect>
                            <g id="Atom-/-Icon-/-contextual-menu" transform="translate(7.154206, 7.154206)">
                                <mask id="mask-42" fill="white">
                                    <use xlink:href="#path-41"></use>
                                </mask>
                                <use id="Clip-2" fill-opacity="0" fill="#FFFFFF" fill-rule="nonzero" xlink:href="#path-41"></use>
                                <g id="Atom-/-Color-/-Shades-/-Grey-24" mask="url(#mask-42)" fill="#173145" fill-opacity="0.235450634" fill-rule="evenodd">
                                    <rect id="Rectangle-3" x="0" y="0" width="17.9712012" height="17.9712012"></rect>
                                </g>
                            </g>
                        </g>
                    </g>
                </g>
            </g>
            <g id="Group-2" transform="translate(24.000000, 26.000000)">
                <rect id="Rectangle-3" fill-opacity="0.162533967" fill="#67AFD5" x="209" y="87" width="19.8657446" height="19.3993319" rx="9.69966593"></rect>
                <text id="Team-(4/10)" font-family="BentonSans-Medium, BentonSans" font-size="12.5999997" font-weight="400" line-spacing="14.3999996" fill="#435868">
                    <tspan x="0" y="15">Team (4/10)</tspan>
                </text>
                <rect id="Rectangle-16" fill-opacity="0.3" fill="#A3ADB5" x="0" y="30" width="228.865745" height="26.0453968" rx="7.19999981"></rect>
                <rect id="Rectangle-8-Copy-8" fill-opacity="0.6" fill="#173145" x="0" y="92" width="116.732462" height="7.18493705" rx="3.59246852"></rect>
                <rect id="Rectangle-8-Copy-10" fill="#EDEFF0" x="0" y="111" width="184.635167" height="11.6755227" rx="5.83776135"></rect>
                <rect id="Rectangle-8-Copy-13" fill="#EDEFF0" x="0" y="128" width="184.635167" height="11.6755227" rx="5.83776135"></rect>
            </g>
        </g>
    </g>
</svg>