<?xml version="1.0" encoding="UTF-8"?>
<svg width="168px" height="168px" viewBox="0 0 168 168" version="1.1" xmlns="http://www.w3.org/2000/svg" xmlns:xlink="http://www.w3.org/1999/xlink">
    <!-- Generator: Sketch 49.1 (51147) - http://www.bohemiancoding.com/sketch -->
    <title>Group 6</title>
    <desc>Created with Sketch.</desc>
    <defs>
        <circle id="path-1" cx="69" cy="69" r="69"></circle>
        <filter x="-15.6%" y="-15.6%" width="134.1%" height="134.1%" filterUnits="objectBoundingBox" id="filter-2">
            <feMorphology radius="2.5" operator="dilate" in="SourceAlpha" result="shadowSpreadOuter1"></feMorphology>
            <feOffset dx="2" dy="2" in="shadowSpreadOuter1" result="shadowOffsetOuter1"></feOffset>
            <feGaussianBlur stdDeviation="5" in="shadowOffsetOuter1" result="shadowBlurOuter1"></feGaussianBlur>
            <feColorMatrix values="0 0 0 0 0   0 0 0 0 0   0 0 0 0 0  0 0 0 0.10266644 0" type="matrix" in="shadowBlurOuter1"></feColorMatrix>
        </filter>
    </defs>
    <g id="Homepage" stroke="none" stroke-width="1" fill="none" fill-rule="evenodd">
        <g id="Group-6" transform="translate(13.000000, 13.000000)">
            <g id="Group-2-Copy-2">
                <g id="Oval-2">
                    <use fill="black" fill-opacity="1" filter="url(#filter-2)" xlink:href="#path-1"></use>
                    <use fill="#6B6EB5" fill-rule="evenodd" xlink:href="#path-1"></use>
                </g>
            </g>
            <g id="Page-1" transform="translate(39.000000, 44.000000)" stroke="#FFFFFF" stroke-linecap="round" stroke-linejoin="round" stroke-width="4">
                <path d="M44,50 L44,44.3333333 C44,38.0745 39.07475,33 33,33 L11,33 C4.92525,33 0,38.0745 0,44.3333333 L0,50" id="Stroke-1"></path>
                <path d="M22.5,0 C28.850875,0 34,5.149125 34,11.5 C34,17.850875 28.850875,23 22.5,23 C16.149125,23 11,17.850875 11,11.5 C11,5.149125 16.149125,0 22.5,0 Z" id="Stroke-3"></path>
                <path d="M61,50 L61,44.548552 C60.9973333,39.5795571 57.7066667,35.2429302 53,34" id="Stroke-5"></path>
                <path d="M42,0 C47.6896697,1.5556129 51.1220827,7.74116129 49.6651018,13.816 C48.7026437,17.8356129 45.7620947,20.9723871 42,22" id="Stroke-7"></path>
            </g>
        </g>
    </g>
</svg>