<svg id="Logo" xmlns="http://www.w3.org/2000/svg" xmlns:xlink="http://www.w3.org/1999/xlink" viewBox="0 0 349.86 52.51"><defs><style>.cls-1,.cls-2,.cls-3{fill:#39abbb;}.cls-1{clip-rule:evenodd;}.cls-3{fill-rule:evenodd;}.cls-4{clip-path:url(#clip-path);}.cls-5{clip-path:url(#clip-path-2);}.cls-6{fill:#96a2ae;}</style><clipPath id="clip-path"><path class="cls-1" d="M108.66,24.62a16,16,0,0,1-5,11.78,16.19,16.19,0,0,1-11.8,4.95,16,16,0,0,1-11.72-4.9,16.11,16.11,0,0,1-4.9-11.82V5.4a4.17,4.17,0,0,1,1.24-3,4.12,4.12,0,0,1,6,0,4.17,4.17,0,0,1,1.24,3V24.62a8,8,0,0,0,2.35,5.83,7.82,7.82,0,0,0,5.78,2.37,8.34,8.34,0,0,0,8.37-8.2V5.4a4.24,4.24,0,0,1,1.2-3,3.83,3.83,0,0,1,2.91-1.29,4.21,4.21,0,0,1,3,1.29,4,4,0,0,1,1.32,3ZM17.24,1.14h2.87c6.7,0,6.7,8.52,0,8.52s-2.84,0-2.91,0A7.86,7.86,0,0,0,11.4,12,8,8,0,0,0,9,17.86V37.08a4.16,4.16,0,0,1-1.24,3,4,4,0,0,1-3,1.29,4,4,0,0,1-3-1.29,4.16,4.16,0,0,1-1.24-3V17.86A16.09,16.09,0,0,1,5.49,6,16.06,16.06,0,0,1,17.24,1.14ZM65.42,24.62a16,16,0,0,1-5,11.78,16.19,16.19,0,0,1-11.8,4.95,16,16,0,0,1-11.72-4.9A16.11,16.11,0,0,1,32,24.62V5.4a4.17,4.17,0,0,1,1.24-3,4.12,4.12,0,0,1,6,0,4.17,4.17,0,0,1,1.24,3V24.62a8,8,0,0,0,2.35,5.83,7.82,7.82,0,0,0,5.78,2.37A8.34,8.34,0,0,0,57,24.62V5.4a4.24,4.24,0,0,1,1.2-3,3.83,3.83,0,0,1,2.91-1.29,4.21,4.21,0,0,1,3,1.29,4,4,0,0,1,1.32,3Zm81.5,16.71h-.35a3.83,3.83,0,0,1-2.91-1.29,4.24,4.24,0,0,1-1.2-3V17.86a8.34,8.34,0,0,0-8.37-8.2A7.82,7.82,0,0,0,128.31,12,8,8,0,0,0,126,17.86V37.08a4.17,4.17,0,0,1-1.24,3,4.12,4.12,0,0,1-6,0,4.17,4.17,0,0,1-1.24-3V17.86A16.11,16.11,0,0,1,122.41,6a16,16,0,0,1,11.72-4.9,16.19,16.19,0,0,1,11.8,4.95q.53.52,1,1.07.48-.57,1-1.11a16,16,0,0,1,11.72-4.9,16.19,16.19,0,0,1,11.8,4.95,16,16,0,0,1,5,11.78V37.08a4,4,0,0,1-1.32,3,4.21,4.21,0,0,1-3,1.29,3.83,3.83,0,0,1-2.91-1.29,4.24,4.24,0,0,1-1.2-3V17.86a8.34,8.34,0,0,0-8.37-8.2A7.82,7.82,0,0,0,153.86,12a8,8,0,0,0-2.35,5.83V37.08a4.17,4.17,0,0,1-1.24,3,4,4,0,0,1-3,1.29Z"/></clipPath><clipPath id="clip-path-2"><rect class="cls-2" x="-31.72" y="-42.84" width="240.48" height="188.6"/></clipPath></defs><title>ruum_by_sap</title><path class="cls-3" d="M108.66,24.62a16,16,0,0,1-5,11.78,16.19,16.19,0,0,1-11.8,4.95,16,16,0,0,1-11.72-4.9,16.11,16.11,0,0,1-4.9-11.82V5.4a4.17,4.17,0,0,1,1.24-3,4.12,4.12,0,0,1,6,0,4.17,4.17,0,0,1,1.24,3V24.62a8,8,0,0,0,2.35,5.83,7.82,7.82,0,0,0,5.78,2.37,8.34,8.34,0,0,0,8.37-8.2V5.4a4.24,4.24,0,0,1,1.2-3,3.83,3.83,0,0,1,2.91-1.29,4.21,4.21,0,0,1,3,1.29,4,4,0,0,1,1.32,3ZM17.24,1.14h2.87c6.7,0,6.7,8.52,0,8.52s-2.84,0-2.91,0A7.86,7.86,0,0,0,11.4,12,8,8,0,0,0,9,17.86V37.08a4.16,4.16,0,0,1-1.24,3,4,4,0,0,1-3,1.29,4,4,0,0,1-3-1.29,4.16,4.16,0,0,1-1.24-3V17.86A16.09,16.09,0,0,1,5.49,6,16.06,16.06,0,0,1,17.24,1.14ZM65.42,24.62a16,16,0,0,1-5,11.78,16.19,16.19,0,0,1-11.8,4.95,16,16,0,0,1-11.72-4.9A16.11,16.11,0,0,1,32,24.62V5.4a4.17,4.17,0,0,1,1.24-3,4.12,4.12,0,0,1,6,0,4.17,4.17,0,0,1,1.24,3V24.62a8,8,0,0,0,2.35,5.83,7.82,7.82,0,0,0,5.78,2.37A8.34,8.34,0,0,0,57,24.62V5.4a4.24,4.24,0,0,1,1.2-3,3.83,3.83,0,0,1,2.91-1.29,4.21,4.21,0,0,1,3,1.29,4,4,0,0,1,1.32,3Zm81.5,16.71h-.35a3.83,3.83,0,0,1-2.91-1.29,4.24,4.24,0,0,1-1.2-3V17.86a8.34,8.34,0,0,0-8.37-8.2A7.82,7.82,0,0,0,128.31,12,8,8,0,0,0,126,17.86V37.08a4.17,4.17,0,0,1-1.24,3,4.12,4.12,0,0,1-6,0,4.17,4.17,0,0,1-1.24-3V17.86A16.11,16.11,0,0,1,122.41,6a16,16,0,0,1,11.72-4.9,16.19,16.19,0,0,1,11.8,4.95q.53.52,1,1.07.48-.57,1-1.11a16,16,0,0,1,11.72-4.9,16.19,16.19,0,0,1,11.8,4.95,16,16,0,0,1,5,11.78V37.08a4,4,0,0,1-1.32,3,4.21,4.21,0,0,1-3,1.29,3.83,3.83,0,0,1-2.91-1.29,4.24,4.24,0,0,1-1.2-3V17.86a8.34,8.34,0,0,0-8.37-8.2A7.82,7.82,0,0,0,153.86,12a8,8,0,0,0-2.35,5.83V37.08a4.17,4.17,0,0,1-1.24,3,4,4,0,0,1-3,1.29Z"/><g class="cls-4"><rect class="cls-2" x="-31.72" y="-42.84" width="240.48" height="188.6"/><g class="cls-5"><rect class="cls-2" x="-1.15" y="-0.58" width="179.33" height="43.64"/></g></g><path class="cls-6" d="M195.78,41V1.44h3.68v15.5a19.3,19.3,0,0,1,4-3.25,10.12,10.12,0,0,1,5.45-1.4,11.44,11.44,0,0,1,4.54.91,10,10,0,0,1,3.68,2.7,13.29,13.29,0,0,1,2.45,4.54,20.49,20.49,0,0,1,.91,6.44,20.51,20.51,0,0,1-.91,6.45,12.76,12.76,0,0,1-2.5,4.54,10.18,10.18,0,0,1-3.78,2.69,12.32,12.32,0,0,1-4.72.9,10.4,10.4,0,0,1-5-1.19,17.11,17.11,0,0,1-4.12-3.09V41Zm3.68-7.18a17.38,17.38,0,0,0,4.2,3.42,9.24,9.24,0,0,0,4.57,1.18,8.65,8.65,0,0,0,3.46-.68,7,7,0,0,0,2.7-2.06,10.14,10.14,0,0,0,1.76-3.55,18.42,18.42,0,0,0,.64-5.17,17.43,17.43,0,0,0-.67-5.09,10.22,10.22,0,0,0-1.85-3.59,7.6,7.6,0,0,0-2.73-2.12,8,8,0,0,0-3.31-.69,8.81,8.81,0,0,0-4.67,1.25,20.24,20.24,0,0,0-4.1,3.4Z"/><path class="cls-6" d="M220.89,51.25l.83-3.05a10.27,10.27,0,0,0,1.57.31,17.91,17.91,0,0,0,2.35.13,5.5,5.5,0,0,0,3.57-1,8.11,8.11,0,0,0,2.19-3.29l1.17-3.11L221.67,12.84h4l8.77,23.8h.1l8.71-23.8h3.84L234.93,44.25a20.82,20.82,0,0,1-1.49,3.29,8.87,8.87,0,0,1-1.9,2.35A7.54,7.54,0,0,1,229,51.31a11,11,0,0,1-3.47.48,19.81,19.81,0,0,1-2.71-.16A14.56,14.56,0,0,1,220.89,51.25Z"/><path class="cls-6" d="M258.28,31.27,261.7,30a11.79,11.79,0,0,0,4.21,6.25,11.67,11.67,0,0,0,7,2.08,12,12,0,0,0,7.15-1.9,6.12,6.12,0,0,0,2.65-5.26,8.07,8.07,0,0,0-.43-2.74,5.36,5.36,0,0,0-1.61-2.21,13.84,13.84,0,0,0-3.19-2,45.55,45.55,0,0,0-5.17-2q-3.19-1-5.59-2a15.36,15.36,0,0,1-4-2.29,8.58,8.58,0,0,1-2.39-3,9.81,9.81,0,0,1-.79-4.16,8.91,8.91,0,0,1,.91-4A10,10,0,0,1,263,3.68a12.17,12.17,0,0,1,3.86-2.17,14.73,14.73,0,0,1,5-.8,17.31,17.31,0,0,1,5,.67,12.85,12.85,0,0,1,3.88,1.87,12.33,12.33,0,0,1,2.85,2.9,14.54,14.54,0,0,1,1.87,3.68l-3.21,1.48a10.89,10.89,0,0,0-4.09-5.48,12.89,12.89,0,0,0-9.9-1.15A8.72,8.72,0,0,0,265.51,6a5.77,5.77,0,0,0-1.68,2,5.71,5.71,0,0,0-.59,2.55,6.72,6.72,0,0,0,.54,2.81,5.62,5.62,0,0,0,1.83,2.14,15,15,0,0,0,3.37,1.8q2.08.83,5.24,1.82a43.54,43.54,0,0,1,5.41,2,15.5,15.5,0,0,1,3.83,2.44,9.07,9.07,0,0,1,2.3,3.13,10.3,10.3,0,0,1,.77,4.15,9.5,9.5,0,0,1-1,4.46,10,10,0,0,1-2.86,3.39A13.81,13.81,0,0,1,278.25,41a18.56,18.56,0,0,1-5.47.78,15.22,15.22,0,0,1-9.35-2.8A14,14,0,0,1,258.28,31.27Z"/><path class="cls-6" d="M287,41,301,1.28h4.12l14,39.71h-4L310.9,28.81h-16L290.65,41Zm9.08-15.55h13.67L302.94,5.77h-.1Z"/><path class="cls-6" d="M322.34,41V1.44h13.11q6.46,0,10.15,2.67t3.69,8.12a11.5,11.5,0,0,1-1,5.12,9.25,9.25,0,0,1-2.93,3.47,12.88,12.88,0,0,1-4.51,2,24.06,24.06,0,0,1-5.72.64h-9V41Zm3.78-20.9h9.24q4.88,0,7.51-1.74t2.64-6q0-4-2.58-5.71t-7.62-1.71h-9.18Z"/></svg>