<svg xmlns="http://www.w3.org/2000/svg" width="349" height="52" viewBox="0 0 349 52">
  <g fill="none" fill-rule="evenodd">
    <path fill="#96A2AE" fill-rule="nonzero" d="M194.78 41L194.78 1.44 198.46 1.44 198.46 16.94C199.64204 15.6827109 200.987365 14.5896339 202.46 13.69 204.107791 12.717508 205.997515 12.2320744 207.91 12.29 209.469541 12.2807024 211.014515 12.5903777 212.45 13.2 213.868403 13.8042825 215.127872 14.7283498 216.13 15.9 217.235368 17.2387788 218.067714 18.7811661 218.58 20.44 219.224271 22.5245261 219.531474 24.6985751 219.49 26.88 219.532198 29.0647486 219.224991 31.2422038 218.58 33.33 218.066018 34.9984211 217.215135 36.5436238 216.08 37.87 215.043843 39.0456588 213.750252 39.96623 212.3 40.56 210.800986 41.1668813 209.197154 41.4726967 207.58 41.46 205.840022 41.4878981 204.120859 41.0787372 202.58 40.27 201.058633 39.4537652 199.669568 38.4119668 198.46 37.18L198.46 41 194.78 41zM198.46 33.82C199.672671 35.1724836 201.089876 36.3264938 202.66 37.24 204.055493 38.0223283 205.630201 38.4289268 207.23 38.42 208.41779 38.4333106 209.595592 38.2018351 210.69 37.74 211.745452 37.2853753 212.672741 36.5778879 213.39 35.68 214.204409 34.6239197 214.802493 33.4175585 215.15 32.13 215.607179 30.4456882 215.822667 28.7049504 215.79 26.96 215.819132 25.2395632 215.593351 23.5242947 215.12 21.87 214.74827 20.5621894 214.119325 19.3416964 213.27 18.28 212.534908 17.373032 211.600751 16.6476059 210.54 16.16 209.498427 15.6968052 208.369892 15.4615517 207.23 15.47 205.58723 15.4430573 203.969656 15.8760267 202.56 16.72 201.049526 17.6677741 199.670925 18.8110042 198.46 20.12L198.46 33.82zM219.89 51.25L220.72 48.2C221.234474 48.3440121 221.7594 48.44766 222.29 48.51 223.069636 48.6048119 223.854664 48.648239 224.64 48.64 225.90987 48.7298733 227.171593 48.3764493 228.21 47.64 229.200138 46.74071 229.952477 45.6104836 230.4 44.35L231.57 41.24 220.67 12.84 224.67 12.84 233.44 36.64 233.54 36.64 242.25 12.84 246.09 12.84 233.93 44.25C233.529571 45.3877564 233.031029 46.4885638 232.44 47.54 231.945752 48.4262488 231.303094 49.2211159 230.54 49.89 229.793571 50.5237739 228.93084 51.006088 228 51.31 226.8764 51.6543303 225.704881 51.8163847 224.53 51.79 223.624071 51.7986976 222.718612 51.7452388 221.82 51.63 221.168836 51.546985 220.524032 51.4200286 219.89 51.25zM257.28 31.27L260.7 30C261.381828 32.4877895 262.860735 34.6833158 264.91 36.25 266.96074 37.6743192 269.414236 38.403358 271.91 38.33 274.433956 38.4654831 276.936246 37.800539 279.06 36.43 280.784423 35.2449507 281.783914 33.2610555 281.71 31.17 281.725866 30.2386954 281.580385 29.311674 281.28 28.43 280.943413 27.5665359 280.388697 26.805094 279.67 26.22 278.702737 25.4111328 277.629474 24.738241 276.48 24.22 274.798869 23.4489908 273.072339 22.7810877 271.31 22.22 269.183333 21.5533333 267.32 20.8866667 265.72 20.22 264.279076 19.6621994 262.930564 18.8901763 261.72 17.93 260.707155 17.1231666 259.890073 16.0975414 259.33 14.93 258.766971 13.6173772 258.497358 12.1976422 258.54 10.77 258.52809 9.38403668 258.839681 8.01440629 259.45 6.77 260.08286 5.5785334 260.950265 4.52744295 262 3.68 263.143138 2.7267016 264.451457 1.99119549 265.86 1.51 267.467994.956717615 269.15965.686052618 270.86.71 272.550442.687971902 274.234994.913701784 275.86 1.38 277.249332 1.78059739 278.561088 2.4128097 279.74 3.25 280.843939 4.05228746 281.807031 5.03227595 282.59 6.15 283.385171 7.28149283 284.014848 8.52064392 284.46 9.83L281.25 11.31C280.510401 9.09158009 279.076345 7.17015542 277.16 5.83 274.147673 4.13478534 270.58071 3.72044115 267.26 4.68 266.272896 4.95500472 265.341989 5.40184009 264.51 6 263.804484 6.52948518 263.22976 7.21368051 262.83 8 262.438546 8.7928522 262.236573 9.66578321 262.24 10.55 262.216181 11.5145718 262.400356 12.4729621 262.78 13.36 263.198523 14.2170645 263.828289 14.9535122 264.61 15.5 265.652017 16.2411919 266.784535 16.8460974 267.98 17.3 269.366667 17.8533333 271.113333 18.46 273.22 19.12 275.065557 19.6663566 276.872855 20.3344889 278.63 21.12 280.019535 21.7408889 281.310049 22.563044 282.46 23.56 283.443694 24.4250055 284.228351 25.492821 284.76 26.69 285.300391 28.0053482 285.562562 29.4183449 285.53 30.84 285.564604 32.3858952 285.221335 33.9168714 284.53 35.3 283.842438 36.6298346 282.865067 37.7883259 281.67 38.69 280.349064 39.7218577 278.851312 40.5046192 277.25 41 275.475798 41.5314681 273.632038 41.7943808 271.78 41.78 268.440464 41.8983957 265.15478 40.9144476 262.43 38.98 259.88744 37.0695517 258.071113 34.350351 257.28 31.27zM286 41L300 1.28 304.12 1.28 318.12 40.99 314.12 40.99 309.9 28.81 293.9 28.81 289.65 41 286 41zM295.08 25.45L308.75 25.45 301.94 5.77 301.84 5.77 295.08 25.45zM321.34 41L321.34 1.44 334.45 1.44C338.756667 1.44 342.14 2.33 344.6 4.11 347.06 5.89 348.29 8.59666667 348.29 12.23 348.353276 13.9907365 348.011141 15.7424698 347.29 17.35 346.616871 18.7321815 345.609853 19.9247931 344.36 20.82 342.999584 21.7710475 341.468162 22.4501704 339.85 22.82 337.975811 23.2614451 336.055407 23.4763156 334.13 23.46L325.13 23.46 325.13 41 321.34 41zM325.12 20.1L334.36 20.1C337.613333 20.1 340.116667 19.52 341.87 18.36 343.623333 17.2 344.503333 15.2 344.51 12.36 344.51 9.69333333 343.65 7.79 341.93 6.65 340.21 5.51 337.67 4.94 334.31 4.94L325.13 4.94 325.12 20.1z"/>
    <path fill="#5CD0E0" d="M145.679827,40.9966786 L145.57237,40.9966786 C144.427195,40.9966786 143.45395,40.5797141 142.655704,39.7487849 C141.88292,38.9786495 141.452599,37.9415423 141.458336,36.8630306 L141.458336,18.2226183 C141.447743,16.0815488 140.540177,14.0381291 138.946932,12.5680999 C137.389574,11.0602229 135.275081,10.2305833 133.082898,10.2672959 C130.792547,10.2672959 128.864477,11.0352305 127.295617,12.5680999 C125.726758,14.1009693 124.940793,15.9878086 124.940793,18.2226183 L124.940793,36.8630306 C124.940793,37.9549376 124.529389,38.9178556 123.703512,39.7487849 C122.930886,40.5591759 121.843504,41.0124823 120.710091,40.9966786 C119.540355,40.9966786 118.542548,40.5797141 117.716671,39.7487849 C116.922887,38.9892108 116.47672,37.9486 116.47939,36.8630306 L116.47939,18.2226183 C116.47939,13.752999 118.115793,9.92832473 121.39167,6.75759479 C124.658337,3.58686484 128.56974,2 133.11667,2 C137.666669,2 141.602634,3.59886382 144.930704,6.79659146 C145.191669,7.04857 145.443423,7.30354829 145.682897,7.56152631 C145.931581,7.29154931 146.192546,7.0215723 146.465791,6.75759479 C149.741668,3.58686484 153.653072,2 158.200001,2 C162.750001,2 166.685965,3.59886382 170.010965,6.79659146 C173.335965,9.99431911 175,13.8039946 175,18.2226183 L175,36.8630306 C175,37.9549376 174.560965,38.9178556 173.682895,39.7487849 C172.885614,40.5477222 171.791613,40.9977869 170.649562,40.9966786 C169.507457,40.9966786 168.534211,40.5797141 167.735965,39.7487849 C166.963181,38.9786495 166.53286,37.9415423 166.538597,36.8630306 L166.538597,18.2226183 C166.528005,16.0815488 165.620438,14.0381291 164.027194,12.5680999 C162.469836,11.0602229 160.355342,10.2305833 158.163159,10.2672959 C155.872808,10.2672959 153.944738,11.0352305 152.375879,12.5680999 C150.803949,14.1009693 150.021054,15.9878086 150.021054,18.2226183 L150.021054,36.8630306 C150.021054,37.9549376 149.606581,38.9178556 148.783774,39.7487849 C147.985422,40.5878672 146.851385,41.043789 145.679827,40.9966786 Z M65.2074636,24.7740603 C65.2074636,29.1926839 63.5434286,33.0023595 60.2184289,36.2000871 C56.8934291,39.3978148 52.9605346,40.9966786 48.4074648,40.9966786 C43.8574651,40.9966786 39.949132,39.4098137 36.6763252,36.2390838 C33.4035184,33.0683538 31.767115,29.2466793 31.767115,24.7740603 L31.767115,6.13364793 C31.767115,5.04174093 32.1785185,4.07882294 33.0043956,3.24789371 C33.8302728,2.41696449 34.8280797,2 35.9978165,2 C37.1675532,2 38.1653602,2.41696449 38.9912373,3.24789371 C39.8140443,4.07882294 40.2285179,5.04174093 40.2285179,6.13364793 L40.2285179,24.7740603 C40.2285179,27.0088699 41.0114126,28.8957092 42.5802722,30.4285787 C44.1522019,31.9614481 46.0802719,32.7293827 48.3675525,32.7293827 C50.654833,32.7293827 52.6105346,31.9614481 54.2315872,30.4285787 C55.8270967,28.9595787 56.7369417,26.9160252 56.7491309,24.7740603 L56.7491309,6.13364793 C56.7491309,5.04174093 57.1482536,4.07882294 57.9464992,3.24789371 C58.7447448,2.41696449 59.7149201,2 60.8570253,2 C62.0022007,2 63.0122883,2.41696449 63.8903584,3.24789371 C64.7684286,4.07882294 65.2074636,5.04174093 65.2074636,6.13364793 L65.2074636,24.7740603 Z M16.6372915,2 L19.5079053,2 C26.194747,2 26.194747,10.2672959 19.5079053,10.2642961 C12.8179935,10.2582966 16.6741336,10.2672959 16.6004494,10.2672959 C14.3131688,10.2672959 12.3820286,11.0352305 10.8131691,12.5680999 C9.24430953,14.1009693 8.45834467,15.9878086 8.45834467,18.2226183 L8.45834467,36.8630306 C8.45834467,37.9549376 8.04694119,38.9178556 7.22413423,39.7487849 C6.45150785,40.5591759 5.36412605,41.0124823 4.23071338,40.9966786 C3.05790644,40.9966786 2.06316967,40.5797141 1.23729253,39.7487849 C0.44350898,38.9892108 -0.00265777581,37.9486 1.19121813e-05,36.8630306 L1.19121813e-05,18.2226183 C1.19121813e-05,13.752999 1.63641531,9.92832473 4.9092221,6.75759479 C8.17895872,3.58686484 12.0934321,2 16.6372915,2 Z M107.563601,24.7740603 C107.563601,29.1926839 105.899566,33.0023595 102.574566,36.2000871 C99.2495666,39.3978148 95.3136019,40.9966786 90.7636022,40.9966786 C86.2136025,40.9966786 82.3052695,39.4098137 79.0324627,36.2390838 C75.7596559,33.0683538 74.1232525,29.2466793 74.1232525,24.7740603 L74.1232525,6.13364793 C74.1232525,5.04174093 74.5377261,4.07882294 75.3605331,3.24789371 C76.1864102,2.41696449 77.1842172,2 78.3539539,2 C79.5236907,2 80.5214977,2.41696449 81.3473748,3.24789371 C82.1701818,4.07882294 82.5846554,5.04174093 82.5846554,6.13364793 L82.5846554,24.7740603 C82.5846554,27.0088699 83.3675501,28.8957092 84.9394798,30.4285787 C86.5052692,31.9614481 88.4364094,32.7293827 90.7236899,32.7293827 C93.0109705,32.7293827 94.9666721,31.9614481 96.5877246,30.4285787 C98.1832342,28.9595787 99.0930792,26.9160252 99.1052683,24.7740603 L99.1052683,6.13364793 C99.1052683,5.04174093 99.5043911,4.07882294 100.302637,3.24789371 C101.100882,2.41696449 102.071058,2 103.213163,2 C104.358338,2 105.368426,2.41696449 106.246496,3.24789371 C107.124566,4.07882294 107.563601,5.04174093 107.563601,6.13364793 L107.563601,24.7740603 Z"/>
  </g>
</svg>
