<svg xmlns="http://www.w3.org/2000/svg" width="88" height="20" viewBox="0 0 88 20">
  <path fill="#39ABBB" fill-rule="evenodd" d="M91.2559186,24.9993552 C91.2377944,24.9997851 91.2196028,25 91.2013438,25 C90.6261163,25 90.1378492,24.7866688 89.7365277,24.36 C89.3352062,23.9333312 89.1345484,23.4400028 89.1345484,22.88 L89.1345484,13.32 C89.1077937,12.1733276 88.6864124,11.2066706 87.870392,10.42 C87.0543717,9.6333294 86.0711488,9.24 84.9206938,9.24 C83.7702388,9.24 82.8003931,9.6333294 82.0111275,10.42 C81.2218619,11.2066706 80.827235,12.1733276 80.827235,13.32 L80.827235,22.88 C80.827235,23.4400028 80.6198887,23.9333312 80.2051898,24.36 C79.7904909,24.7866688 79.2888466,25 78.7002417,25 C78.1116368,25 77.6099925,24.7866688 77.1952936,24.36 C76.7805947,23.9333312 76.5732484,23.4400028 76.5732484,22.88 L76.5732484,13.32 C76.5732484,11.0266552 77.3959451,9.0666748 79.0413633,7.44 C80.6867814,5.8133252 82.6532272,5 84.9407598,5 C87.2282923,5 89.2081153,5.8199918 90.8802882,7.46 C91.0118127,7.58899453 91.1381645,7.71992734 91.2593438,7.85279847 C91.384814,7.71289329 91.5159755,7.57529381 91.6528282,7.44 C93.2982464,5.8133252 95.2646922,5 97.5522247,5 C99.8397573,5 101.81958,5.8199918 103.491753,7.46 C105.163926,9.1000082 106,11.053322 106,13.32 L106,22.88 C106,23.4400028 105.779276,23.9333312 105.337823,24.36 C104.896369,24.7866688 104.388036,25 103.812809,25 C103.237581,25 102.749314,24.7866688 102.347993,24.36 C101.946671,23.9333312 101.746013,23.4400028 101.746013,22.88 L101.746013,13.32 C101.719259,12.1733276 101.297877,11.2066706 100.481857,10.42 C99.6658366,9.6333294 98.6826137,9.24 97.5321588,9.24 C96.3817038,9.24 95.4118581,9.6333294 94.6225925,10.42 C93.8333269,11.2066706 93.4387,12.1733276 93.4387,13.32 L93.4387,22.88 C93.4387,23.4400028 93.2313536,23.9333312 92.8166548,24.36 C92.4019559,24.7866688 91.9003115,25 91.3117067,25 C91.293023,25 91.274427,24.9997851 91.2559186,24.9993552 Z M50.7898089,16.68 C50.7898089,18.946678 49.953735,20.8999918 48.2815621,22.54 C46.6093892,24.1800082 44.6295662,25 42.3420337,25 C40.0545011,25 38.0880553,24.1866748 36.4426372,22.56 C34.797219,20.9333252 33.9745223,18.9733448 33.9745223,16.68 L33.9745223,7.12 C33.9745223,6.5599972 34.1818686,6.0666688 34.5965675,5.64 C35.0112664,5.2133312 35.5129107,5 36.1015156,5 C36.6901205,5 37.1917648,5.2133312 37.6064637,5.64 C38.0211626,6.0666688 38.2285089,6.5599972 38.2285089,7.12 L38.2285089,16.68 C38.2285089,17.8266724 38.6231358,18.7933294 39.4124014,19.58 C40.201667,20.3666706 41.1715127,20.76 42.3219677,20.76 C43.4724226,20.76 44.4556456,20.3666706 45.2716659,19.58 C46.0876863,18.7933294 46.5090676,17.8266724 46.5358223,16.68 L46.5358223,7.12 C46.5358223,6.5599972 46.7364801,6.0666688 47.1378016,5.64 C47.5391231,5.2133312 48.0273902,5 48.6026177,5 C49.1778452,5 49.6861781,5.2133312 50.1276318,5.64 C50.5690854,6.0666688 50.7898089,6.5599972 50.7898089,7.12 L50.7898089,16.68 Z M26.3675114,5 L27.8089172,5 C31.1719745,5 31.1719745,9.24 27.8089172,9.23778004 C24.4458599,9.23556008 26.3849004,9.24 26.3474454,9.24 C25.1969904,9.24 24.2271447,9.6333294 23.4378791,10.42 C22.6486135,11.2066706 22.2539866,12.1733276 22.2539866,13.32 L22.2539866,22.88 C22.2539866,23.4400028 22.0466403,23.9333312 21.6319414,24.36 C21.2172425,24.7866688 20.7155982,25 20.1269933,25 C19.5383884,25 19.0367441,24.7866688 18.6220452,24.36 C18.2073463,23.9333312 18,23.4400028 18,22.88 L18,13.32 C18,11.0266552 18.8226967,9.0666748 20.4681149,7.44 C22.113533,5.8133252 24.0799788,5 26.3675114,5 Z M72.089172,16.68 C72.089172,18.946678 71.2530981,20.8999918 69.5809252,22.54 C67.9087523,24.1800082 65.9289292,25 63.6413967,25 C61.3538642,25 59.3874183,24.1866748 57.7420002,22.56 C56.0965821,20.9333252 55.2738854,18.9733448 55.2738854,16.68 L55.2738854,7.12 C55.2738854,6.5599972 55.4812317,6.0666688 55.8959306,5.64 C56.3106294,5.2133312 56.8122738,5 57.4008786,5 C57.9894835,5 58.4911279,5.2133312 58.9058267,5.64 C59.3205256,6.0666688 59.5278719,6.5599972 59.5278719,7.12 L59.5278719,16.68 C59.5278719,17.8266724 59.9224988,18.7933294 60.7117644,19.58 C61.50103,20.3666706 62.4708758,20.76 63.6213307,20.76 C64.7717857,20.76 65.7550086,20.3666706 66.571029,19.58 C67.3870494,18.7933294 67.8084306,17.8266724 67.8351854,16.68 L67.8351854,7.12 C67.8351854,6.5599972 68.0358431,6.0666688 68.4371646,5.64 C68.8384861,5.2133312 69.3267533,5 69.9019808,5 C70.4772082,5 70.9855412,5.2133312 71.4269948,5.64 C71.8684485,6.0666688 72.089172,6.5599972 72.089172,7.12 L72.089172,16.68 Z" transform="translate(-18 -5)"/>
</svg>
