<svg xmlns="http://www.w3.org/2000/svg" width="56" height="56" viewBox="0 0 56 56">
  <path fill="#5CD0E0" fill-rule="evenodd" d="M54.9007248,50.3909076 C55.8485523,52.6622337 54.1799081,55.1666667 51.71875,55.1666667 L27.5833333,55.1666667 C12.349479,55.1666667 0,42.8171877 0,27.5833333 C0,12.349479 12.349479,0 27.5833333,0 C42.8171877,0 55.1666667,12.349479 55.1666667,27.5833333 C55.1666667,32.6319887 53.8043641,37.4835869 51.2785555,41.7109231 L54.9007248,50.3909076 Z M46.8104753,41.3903639 L47.8447935,39.6592704 C50.0192291,36.0200121 51.1666667,31.8722563 51.1666667,27.5833333 C51.1666667,14.558618 40.6080487,4 27.5833333,4 C14.558618,4 4,14.558618 4,27.5833333 C4,40.6080487 14.558618,51.1666667 27.5833333,51.1666667 L50.8901397,51.1666667 L46.8104753,41.3903639 Z M23.4423594,37.7499562 C22.7455756,37.7557145 22.1775896,37.1925727 22.1773797,36.4957652 C22.1765868,33.863829 21.5485225,32.3477739 19.812399,29.8447516 C19.777371,29.7942507 19.4915447,29.3834832 19.4072654,29.2616037 C17.6958701,26.7866905 17,25.1454269 17,22.6051595 C17,16.1958069 22.1958069,11 28.6051595,11 C35.0145121,11 40.210319,16.1958069 40.210319,22.6051595 C40.210319,25.1626077 39.5092828,26.8016756 37.7733937,29.2964796 C37.6946913,29.40959 37.4279296,29.7909002 37.3955448,29.8373197 C35.6562265,32.3304037 35.0332036,33.8186155 35.0320969,36.4104265 C35.0318028,37.099075 34.4764782,37.6587689 33.7878531,37.6644598 L23.4423594,37.7499562 Z M31.2588172,33.6852234 C31.6375443,31.6276708 32.5192688,29.8359171 34.1150106,27.5486311 C34.1807942,27.4545061 34.1807942,27.4545061 34.3151958,27.2622586 C34.4232087,27.1076922 34.4232087,27.1076922 34.4900032,27.0118907 C35.8856055,25.0061436 36.210319,24.1441226 36.210319,22.6051595 C36.210319,18.4049459 32.8053731,15 28.6051595,15 C24.4049459,15 21,18.4049459 21,22.6051595 C21,24.1338066 21.3243566,25.0011281 22.6972818,26.986567 C22.7685764,27.0894275 22.7685764,27.0894275 22.8841398,27.2557198 C23.0283164,27.4630852 23.0283164,27.4630852 23.099162,27.5650172 C24.6868903,29.8540936 25.567642,31.6585905 25.9478625,33.7291138 L31.2588172,33.6852234 Z M25,44 C23.8954305,44 23,43.1045695 23,42 C23,40.8954305 23.8954305,40 25,40 L32,40 C33.1045695,40 34,40.8954305 34,42 C34,43.1045695 33.1045695,44 32,44 L25,44 Z"/>
</svg>
