<?xml version="1.0" encoding="UTF-8"?>
<svg width="168px" height="168px" viewBox="0 0 168 168" version="1.1" xmlns="http://www.w3.org/2000/svg" xmlns:xlink="http://www.w3.org/1999/xlink">
    <!-- Generator: Sketch 49.1 (51147) - http://www.bohemiancoding.com/sketch -->
    <title>Group 11 Copy</title>
    <desc>Created with Sketch.</desc>
    <defs>
        <circle id="path-1" cx="69" cy="69" r="69"></circle>
        <filter x="-15.6%" y="-15.6%" width="134.1%" height="134.1%" filterUnits="objectBoundingBox" id="filter-2">
            <feMorphology radius="2.5" operator="dilate" in="SourceAlpha" result="shadowSpreadOuter1"></feMorphology>
            <feOffset dx="2" dy="2" in="shadowSpreadOuter1" result="shadowOffsetOuter1"></feOffset>
            <feGaussianBlur stdDeviation="5" in="shadowOffsetOuter1" result="shadowBlurOuter1"></feGaussianBlur>
            <feColorMatrix values="0 0 0 0 0   0 0 0 0 0   0 0 0 0 0  0 0 0 0.10266644 0" type="matrix" in="shadowBlurOuter1"></feColorMatrix>
        </filter>
    </defs>
    <g id="Homepage" stroke="none" stroke-width="1" fill="none" fill-rule="evenodd">
        <g id="Group-11-Copy" transform="translate(13.000000, 13.000000)">
            <g id="Group-10-Copy">
                <g id="Group-2-Copy">
                    <g id="Oval-2">
                        <use fill="black" fill-opacity="1" filter="url(#filter-2)" xlink:href="#path-1"></use>
                        <use fill="#38607E" fill-rule="evenodd" xlink:href="#path-1"></use>
                    </g>
                </g>
            </g>
            <path d="M62.1664573,66.1525653 C62.1698958,69.6666345 63.9059981,72.9542418 66.8094981,74.944959 C65.7334969,76.8529065 64.1711747,78.443459 62.2806855,79.5556045 L62.1664573,79.4483802 C60.7720946,78.2222829 58.7744861,77.954636 57.1051143,78.7702428 C55.4357425,79.5858496 54.4233619,81.3240902 54.5400444,83.1744252 C54.6956842,85.5861505 56.6994878,87.4645054 59.1226114,87.4700992 L59.4182609,87.4700992 C61.9490286,87.3051017 63.8690992,85.1293878 63.7118978,82.604796 C66.2915533,81.1408713 68.4094597,78.9867896 69.8264667,76.3857858 C74.9617166,77.9081199 80.4349021,75.4121091 82.639621,70.5424296 C84.8443399,65.6727502 83.1023835,59.9273974 78.5615652,57.0921107 C78.5081369,51.0231272 78.1358246,44.9611069 77.4461603,38.9309925 C77.3525985,38.2333515 76.8318062,37.6684221 76.1426149,37.5169719 C75.0602062,37.282757 73.9620008,37.1282057 72.856874,37.054567 C71.238096,36.9435928 69.6121162,37.0019911 68.0055347,37.2288065 C67.0918472,37.3730432 66.4670358,38.2268887 66.6079189,39.1387396 C67.3436954,44.988475 67.7452625,50.875215 67.8106748,56.7704378 C64.3506051,58.6331121 62.1860875,62.2310917 62.1664573,66.1525653 Z M59.2099624,84.139444 C58.5328639,84.1808936 57.9487377,83.6704593 57.9009393,82.9955638 C57.8531409,82.3206684 58.3595246,81.7334087 59.0357421,81.6795187 C59.7119595,81.6256286 60.3054199,82.125238 60.3656831,82.7991401 C60.3953387,83.1307681 60.2892719,83.4602634 60.0716029,83.7126969 C59.8539339,83.9651304 59.5431634,84.1190466 59.2099624,84.139444 Z M70.1691514,40.3852223 C70.9992859,40.3331635 71.8318795,40.3331635 72.6620141,40.3852223 C73.1928393,40.4187299 73.7303838,40.4790436 74.2679284,40.5661633 C74.7785957,44.9154496 75.0809644,50.8529959 75.181754,55.6981946 C73.8578816,55.3983093 72.4874134,55.3641383 71.1501701,55.5976719 C71.0359419,50.8261899 70.7066959,44.8350313 70.1691514,40.3852223 Z M72.856874,58.7808937 C76.9389416,58.7808937 80.2481112,62.0813035 80.2481112,66.1525653 C80.2481112,70.2238271 76.9389416,73.5242369 72.856874,73.5242369 C68.7748064,73.5242369 65.4656368,70.2238271 65.4656368,66.1525653 C65.4656368,62.0813035 68.7748064,58.7808937 72.856874,58.7808937 Z M42.3176258,77.4513274 C41.8941247,76.497468 41.8941247,75.4096075 42.3176258,74.4557481 L46.1677884,65.8442954 C46.7194836,64.6130437 47.0034461,63.279212 47.0009824,61.9306079 C46.9699351,52.4080925 52.4094841,43.7091006 60.9972979,39.5475323 C61.8304108,39.1404061 62.8366992,39.4839488 63.244906,40.3148563 C63.6531127,41.1457638 63.3086583,42.1493885 62.4755454,42.5565146 C55.0470526,46.1610684 50.3459753,53.6915337 50.3807936,61.9306079 C50.3820819,63.7484103 49.9973604,65.5458764 49.2519501,67.2047039 L45.3883489,75.8161566 C45.3494602,75.9046167 45.3499167,76.0053579 45.3896056,76.0934637 C45.4292944,76.1815696 45.5045094,76.2488126 45.5966474,76.2785614 L49.2116343,77.4714319 C49.8973288,77.6992091 50.3600869,78.3388778 50.3606357,79.0596921 L50.3606357,87.905698 C50.3606357,89.289927 51.4857534,90.4120664 52.8736563,90.4120664 L61.897685,90.4120664 C62.6442746,90.4120664 63.3012735,90.9035111 63.5103186,91.6183399 L65.3850051,98.1657246 C65.494364,98.4991769 65.8430767,98.6920686 66.1846026,98.6080249 L90.327071,91.7590718 C90.6732799,91.6553623 90.8751752,91.2970584 90.7839838,90.9481879 L87.2093127,78.4766599 C87.0591494,77.9044933 87.2225918,77.295754 87.6393484,76.8749967 C91.8413856,72.5386955 94.0130113,66.6348554 93.6195312,60.6171101 C93.1140181,52.9694038 88.5973204,46.1562372 81.7397972,42.6972466 C80.9122508,42.2771664 80.582838,41.267541 81.0040332,40.4421852 C81.4252283,39.6168294 82.4375334,39.2882886 83.2650798,39.7083688 C91.1663766,43.7129894 96.3656913,51.5753653 96.9455879,60.3959599 C97.3864797,67.0199558 95.1340599,73.5419288 90.6966328,78.4900629 L94.009251,90.0702889 C94.5767222,92.1763174 93.3575174,94.3496168 91.2610546,94.9690997 L67.1051476,101.85156 C64.9785909,102.442338 62.7711077,101.217545 62.1530187,99.1039373 L60.6277361,93.7427216 L52.8803756,93.7427216 C49.6385224,93.7390286 47.0114046,91.1188651 47.0077017,87.8855935 L47.0077017,80.2793687 L44.5417162,79.4684848 C43.5481285,79.139306 42.7403101,78.4066484 42.3176258,77.4513274 Z" id="Shape" fill="#FFFFFF" fill-rule="nonzero"></path>
        </g>
    </g>
</svg>