<svg xmlns="http://www.w3.org/2000/svg" width="98" height="115" viewBox="0 0 98 115">
  <path fill="#5CD0E0" d="M35.6791167,51.577615 C35.6852003,57.794815 38.7567659,63.611351 43.8937274,67.133389 C41.990033,70.508988 39.2259244,73.323043 35.8812128,75.290685 L35.6791167,75.10098 C33.2121674,72.931731 29.677937,72.458202 26.724433,73.901199 C23.7709291,75.344195 21.9797941,78.419544 22.1862323,81.693214 C22.4615951,85.960112 26.0067861,89.283356 30.293851,89.293252 L30.8169231,89.293252 C35.2944352,89.001334 38.6914831,85.151994 38.4133576,80.685408 C42.9773636,78.095388 46.7244286,74.28432 49.2314411,69.682544 C58.3168832,72.375904 68.000211,67.959885 71.900868,59.344299 C75.801524,50.728712 72.719602,40.563857 64.685846,35.547581 C64.591319,24.810148 63.932613,14.085035 62.712438,3.416371 C62.546905,2.182083 61.625503,1.182593 60.4061648,0.914643 C58.491134,0.500262 56.5481552,0.226826 54.5929309,0.096542 C51.7289391,-0.099797 48.8522055,0.003523 46.0097921,0.404812 C44.393268,0.66 43.2878325,2.170649 43.5370873,3.783924 C44.8388457,14.133456 45.5493107,24.548457 45.66504,34.978467 C39.5433782,38.273968 35.7138472,44.639624 35.6791167,51.577615 Z M30.448395,83.400555 C29.2504515,83.473889 28.2169974,82.570813 28.132431,81.376767 C28.0478646,80.182721 28.9437743,79.143723 30.140159,79.048379 C31.3365438,78.953035 32.3865122,79.836959 32.4931317,81.029248 C32.5455993,81.615974 32.3579427,82.198928 31.9728359,82.645541 C31.5877292,83.092154 31.0379046,83.364467 30.448395,83.400555 Z M49.8377293,5.989239 C51.3064289,5.897135 52.7794792,5.897135 54.2481788,5.989239 C55.1873311,6.048522 56.1383714,6.155231 57.0894117,6.309366 C57.9929,14.004257 58.5278602,24.509147 58.7061802,33.081421 C56.3639444,32.550855 53.9392699,32.490398 51.5733779,32.903573 C51.3712818,24.461721 50.7887697,13.861978 49.8377293,5.989239 Z M54.5929309,38.535427 C61.81505,38.535427 67.669735,44.374614 67.669735,51.577615 C67.669735,58.780617 61.81505,64.619804 54.5929309,64.619804 C47.3708113,64.619804 41.5161266,58.780617 41.5161266,51.577615 C41.5161266,44.374614 47.3708113,38.535427 54.5929309,38.535427 Z M0.5619533,71.567733 C-0.1873178,69.880136 -0.1873178,67.955459 0.5619533,66.267862 L7.3737795,51.032215 C8.3498556,48.853847 8.8522509,46.49399 8.847892,44.107999 C8.7929622,27.260471 18.4167795,11.869947 33.6106041,4.507173 C35.084573,3.786872 36.8649294,4.394679 37.5871413,5.864746 C38.3093533,7.334813 37.6999339,9.110457 36.2259649,9.830757 C23.0832468,16.208044 14.7659564,29.531175 14.8275579,44.107999 C14.8298372,47.324111 14.1491761,50.504243 12.8303733,53.439091 L5.9947711,68.674739 C5.925968,68.831245 5.9267758,69.009479 5.9969945,69.165359 C6.0672132,69.321238 6.2002858,69.440207 6.3632992,69.492839 L12.7590453,71.603303 C13.9721972,72.006293 14.790923,73.138015 14.7918939,74.413301 L14.7918939,90.063927 C14.7918939,92.512948 16.7824867,94.498271 19.2380074,94.498271 L35.2035966,94.498271 C36.5244859,94.498271 37.6868685,95.36775 38.0567175,96.632448 L41.3734706,108.216282 C41.5669518,108.806236 42.1839049,109.147506 42.788143,108.998813 L85.501741,96.881435 C86.114264,96.697949 86.471464,96.064026 86.310125,95.446794 L79.985707,73.381783 C79.720034,72.369488 80.009201,71.292488 80.746539,70.548071 C88.180913,62.876154 92.02302,52.430898 91.326863,41.784118 C90.432494,28.253561 82.441413,16.199497 70.308872,10.079744 C68.844751,9.336525 68.261944,7.550265 69.007136,6.09002 C69.752327,4.629775 71.543328,4.048511 73.007449,4.791729 C86.986666,11.876827 96.185454,25.787185 97.211425,41.392852 C97.991464,53.11223 94.006414,64.651105 86.155581,73.405496 L92.016367,93.893588 C93.020355,97.619638 90.8633,101.464707 87.154174,102.560715 L44.4167996,114.737376 C40.6544301,115.782597 36.7488829,113.615656 35.6553407,109.876197 L32.9567638,100.390969 L19.2498954,100.390969 C13.5143089,100.384435 8.8663312,95.748761 8.85978,90.028358 L8.85978,76.571191 L4.4968826,75.13655 C2.7389965,74.554157 1.3097794,73.257916 0.5619533,71.567733 Z"/>
</svg>
