<?xml version="1.0" encoding="UTF-8"?>
<svg width="140px" height="32px" viewBox="0 0 140 32" version="1.1" xmlns="http://www.w3.org/2000/svg" xmlns:xlink="http://www.w3.org/1999/xlink">
    <!-- Generator: Sketch 40.3 (33839) - http://www.bohemiancoding.com/sketch -->
    <title>ruum</title>
    <desc>Created with Sketch.</desc>
    <defs></defs>
    <g id="site" stroke="none" stroke-width="1" fill="none" fill-rule="evenodd">
        <g id="Desktop" transform="translate(-250.000000, -129.000000)" fill="#FFFFFF">
            <path d="M366.548956,133.564478 C366.356171,133.351884 366.155156,133.142391 365.945913,132.936 C363.285638,130.311987 360.13592,129 356.496663,129 C352.857407,129 349.72897,130.30132 347.11126,132.904 C344.493549,135.50668 343.184713,138.642648 343.184713,142.312 L343.184713,157.608 C343.184713,158.504004 343.514583,159.29333 344.174331,159.976 C344.834079,160.65867 345.63215,161 346.568566,161 C347.504983,161 348.303054,160.65867 348.962802,159.976 C349.62255,159.29333 349.952419,158.504004 349.952419,157.608 L349.952419,142.312 C349.952419,140.477324 350.580235,138.930673 351.835885,137.672 C353.091534,136.413327 354.634471,135.784 356.46474,135.784 C358.295009,135.784 359.859228,136.413327 361.157442,137.672 C362.455656,138.930673 363.126035,140.477324 363.1686,142.312 L363.1686,157.608 C363.1686,158.504004 363.487828,159.29333 364.126294,159.976 C364.76476,160.65867 365.541549,161 366.456683,161 C366.485732,161 366.514673,160.999656 366.543507,160.998968 C366.572952,160.999656 366.602537,161 366.632261,161 C367.568677,161 368.366748,160.65867 369.026496,159.976 C369.686244,159.29333 370.016114,158.504004 370.016114,157.608 L370.016114,142.312 C370.016114,140.477324 370.643929,138.930673 371.899579,137.672 C373.155229,136.413327 374.698165,135.784 376.528434,135.784 C378.358704,135.784 379.922922,136.413327 381.221136,137.672 C382.51935,138.930673 383.18973,140.477324 383.232294,142.312 L383.232294,157.608 C383.232294,158.504004 383.551522,159.29333 384.189988,159.976 C384.828454,160.65867 385.605243,161 386.520378,161 C387.435512,161 388.244224,160.65867 388.946536,159.976 C389.648849,159.29333 390,158.504004 390,157.608 L390,142.312 C390,138.685315 388.669882,135.560013 386.009607,132.936 C383.349332,130.311987 380.199614,129 376.560358,129 C372.921101,129 369.792665,130.30132 367.174954,132.904 C366.957234,133.12047 366.748568,133.340629 366.548956,133.564478 Z M302.165605,147.688 C302.165605,151.314685 300.835488,154.439987 298.175212,157.064 C295.514937,159.688013 292.365219,161 288.725963,161 C285.086706,161 281.95827,159.69868 279.340559,157.096 C276.722848,154.49332 275.414013,151.357352 275.414013,147.688 L275.414013,132.392 C275.414013,131.495996 275.743882,130.70667 276.40363,130.024 C277.063378,129.34133 277.861449,129 278.797866,129 C279.734283,129 280.532353,129.34133 281.192101,130.024 C281.85185,130.70667 282.181719,131.495996 282.181719,132.392 L282.181719,147.688 C282.181719,149.522676 282.809534,151.069327 284.065184,152.328 C285.320834,153.586673 286.86377,154.216 288.694039,154.216 C290.524309,154.216 292.088527,153.586673 293.386741,152.328 C294.684955,151.069327 295.355335,149.522676 295.397899,147.688 L295.397899,132.392 C295.397899,131.495996 295.717127,130.70667 296.355593,130.024 C296.994059,129.34133 297.770848,129 298.685983,129 C299.601117,129 300.409829,129.34133 301.112141,130.024 C301.814454,130.70667 302.165605,131.495996 302.165605,132.392 L302.165605,147.688 Z M263.31195,129 C259.672694,129 256.544257,130.30132 253.926546,132.904 C251.308836,135.50668 250,138.642648 250,142.312 L250,157.608 C250,158.504004 250.329869,159.29333 250.989617,159.976 C251.649366,160.65867 252.447436,161 253.383853,161 C254.32027,161 255.11834,160.65867 255.778089,159.976 C256.437837,159.29333 256.767706,158.504004 256.767706,157.608 L256.767706,142.312 C256.767706,140.477324 257.395521,138.930673 258.651171,137.672 C259.906821,136.413327 261.449758,135.784 263.280027,135.784 C263.339614,135.784 260.254777,135.776896 265.605096,135.780448 C270.955414,135.784 270.955414,129 265.605096,129 L263.31195,129 Z M336.050955,147.688 C336.050955,151.314685 334.720838,154.439987 332.060563,157.064 C329.400288,159.688013 326.250569,161 322.611313,161 C318.972057,161 315.84362,159.69868 313.225909,157.096 C310.608199,154.49332 309.299363,151.357352 309.299363,147.688 L309.299363,132.392 C309.299363,131.495996 309.629232,130.70667 310.28898,130.024 C310.948729,129.34133 311.746799,129 312.683216,129 C313.619633,129 314.417703,129.34133 315.077452,130.024 C315.7372,130.70667 316.067069,131.495996 316.067069,132.392 L316.067069,147.688 C316.067069,149.522676 316.694884,151.069327 317.950534,152.328 C319.206184,153.586673 320.749121,154.216 322.57939,154.216 C324.409659,154.216 325.973877,153.586673 327.272092,152.328 C328.570306,151.069327 329.240685,149.522676 329.283249,147.688 L329.283249,132.392 C329.283249,131.495996 329.602478,130.70667 330.240944,130.024 C330.87941,129.34133 331.656198,129 332.571333,129 C333.486468,129 334.295179,129.34133 334.997492,130.024 C335.699804,130.70667 336.050955,131.495996 336.050955,132.392 L336.050955,147.688 Z" id="ruum"></path>
        </g>
    </g>
</svg>