<?xml version="1.0" encoding="UTF-8"?>
<svg width="113px" height="39px" viewBox="0 0 113 39" version="1.1" xmlns="http://www.w3.org/2000/svg" xmlns:xlink="http://www.w3.org/1999/xlink">
    <!-- Generator: Sketch 46.2 (44496) - http://www.bohemiancoding.com/sketch -->
    <title>Group 2</title>
    <desc>Created with Sketch.</desc>
    <defs></defs>
    <g id="Website" stroke="none" stroke-width="1" fill="none" fill-rule="evenodd">
        <g id="NewWebsite_Desktop_IMAGES-MISSING" transform="translate(-146.000000, -40.000000)">
            <g id="Group-2" transform="translate(146.000000, 40.000000)">
                <path d="M73.6501687,38.4831366 C73.6319469,38.4835713 73.6136574,38.4837886 73.5953001,38.4837886 C73.0169769,38.4837886 72.526082,38.268113 72.1226006,37.8367553 C71.7191193,37.4053977 71.5173816,36.9066479 71.5173816,36.340491 L71.5173816,26.675432 C71.4904829,25.5161584 71.0668338,24.5388784 70.2464218,23.7435627 C69.4260097,22.948247 68.4374953,22.5505952 67.2808488,22.5505952 C66.1242023,22.5505952 65.149137,22.948247 64.3556237,23.7435627 C63.5621105,24.5388784 63.1653598,25.5161584 63.1653598,26.675432 L63.1653598,36.340491 C63.1653598,36.9066479 62.9568975,37.4053977 62.5399668,37.8367553 C62.1230361,38.268113 61.618692,38.4837886 61.0269194,38.4837886 C60.4351467,38.4837886 59.9308026,38.268113 59.5138719,37.8367553 C59.0969412,37.4053977 58.888479,36.9066479 58.888479,36.340491 L58.888479,26.675432 C58.888479,24.3568847 59.7156033,22.3753652 61.3698768,20.7308142 C63.0241503,19.0862632 65.0011792,18.264 67.3010228,18.264 C69.6008664,18.264 71.5913444,19.093003 73.2725167,20.751034 C73.404749,20.8814461 73.5317808,21.0138178 73.6536122,21.1481491 C73.7797577,21.0067064 73.9116251,20.8675948 74.0492144,20.7308142 C75.7034878,19.0862632 77.6805167,18.264 79.9803603,18.264 C82.280204,18.264 84.270682,19.093003 85.9518543,20.751034 C87.6330265,22.4090649 88.4736,24.3838445 88.4736,26.675432 L88.4736,36.340491 C88.4736,36.9066479 88.2516886,37.4053977 87.8078591,37.8367553 C87.3640297,38.268113 86.852961,38.4837886 86.2746377,38.4837886 C85.6963145,38.4837886 85.2054195,38.268113 84.8019382,37.8367553 C84.3984569,37.4053977 84.1967192,36.9066479 84.1967192,36.340491 L84.1967192,26.675432 C84.1698205,25.5161584 83.7461714,24.5388784 82.9257594,23.7435627 C82.1053473,22.948247 81.1168329,22.5505952 79.9601864,22.5505952 C78.8035399,22.5505952 77.8284746,22.948247 77.0349613,23.7435627 C76.241448,24.5388784 75.8446973,25.5161584 75.8446973,26.675432 L75.8446973,36.340491 C75.8446973,36.9066479 75.6362351,37.4053977 75.2193044,37.8367553 C74.8023737,38.268113 74.2980296,38.4837886 73.7062569,38.4837886 C73.6874728,38.4837886 73.6687767,38.4835713 73.6501687,38.4831366 Z M32.9662777,30.0723565 C32.9662777,32.363944 32.1257042,34.3387236 30.444532,35.9967546 C28.7633597,37.6547855 26.7728817,38.4837886 24.4730381,38.4837886 C22.1731944,38.4837886 20.1961656,37.6615254 18.5418921,36.0169744 C16.8876186,34.3724233 16.0604943,32.3909039 16.0604943,30.0723565 L16.0604943,20.4072976 C16.0604943,19.8411407 16.2689565,19.3423909 16.6858872,18.9110332 C17.1028179,18.4796756 17.607162,18.264 18.1989347,18.264 C18.7907073,18.264 19.2950514,18.4796756 19.7119821,18.9110332 C20.1289128,19.3423909 20.337375,19.8411407 20.337375,20.4072976 L20.337375,30.0723565 C20.337375,31.2316302 20.7341257,32.2089102 21.527639,33.0042259 C22.3211523,33.7995415 23.2962176,34.1971934 24.4528641,34.1971934 C25.6095106,34.1971934 26.598025,33.7995415 27.4184371,33.0042259 C28.2388491,32.2089102 28.6624982,31.2316302 28.6893969,30.0723565 L28.6893969,20.4072976 C28.6893969,19.8411407 28.8911346,19.3423909 29.2946159,18.9110332 C29.6980972,18.4796756 30.1889922,18.264 30.7673154,18.264 C31.3456387,18.264 31.8567074,18.4796756 32.3005368,18.9110332 C32.7443663,19.3423909 32.9662777,19.8411407 32.9662777,20.4072976 L32.9662777,30.0723565 Z M8.41254379,18.264 L9.86170701,18.264 C13.2428637,18.264 13.2428637,22.5505952 9.86170701,22.5483508 C6.48055032,22.5461065 8.43002641,22.5505952 8.39236982,22.5505952 C7.23572333,22.5505952 6.26065806,22.948247 5.46714476,23.7435627 C4.67363147,24.5388784 4.27688077,25.5161584 4.27688077,26.675432 L4.27688077,36.340491 C4.27688077,36.9066479 4.06841854,37.4053977 3.65148783,37.8367553 C3.23455712,38.268113 2.73021301,38.4837886 2.13844039,38.4837886 C1.54666776,38.4837886 1.04232366,38.268113 0.625392943,37.8367553 C0.20846223,37.4053977 0,36.9066479 0,36.340491 L0,26.675432 C0,24.3568847 0.827124331,22.3753652 2.48139781,20.7308142 C4.13567128,19.0862632 6.11270017,18.264 8.41254379,18.264 Z M54.3802701,30.0723565 C54.3802701,32.363944 53.5396966,34.3387236 51.8585243,35.9967546 C50.1773521,37.6547855 48.186874,38.4837886 45.8870304,38.4837886 C43.5871868,38.4837886 41.6101579,37.6615254 39.9558844,36.0169744 C38.301611,34.3724233 37.4744866,32.3909039 37.4744866,30.0723565 L37.4744866,20.4072976 C37.4744866,19.8411407 37.6829489,19.3423909 38.0998796,18.9110332 C38.5168103,18.4796756 39.0211544,18.264 39.612927,18.264 C40.2046996,18.264 40.7090437,18.4796756 41.1259745,18.9110332 C41.5429052,19.3423909 41.7513674,19.8411407 41.7513674,20.4072976 L41.7513674,30.0723565 C41.7513674,31.2316302 42.1481181,32.2089102 42.9416314,33.0042259 C43.7351447,33.7995415 44.71021,34.1971934 45.8668564,34.1971934 C47.0235029,34.1971934 48.0120174,33.7995415 48.8324294,33.0042259 C49.6528415,32.2089102 50.0764905,31.2316302 50.1033893,30.0723565 L50.1033893,20.4072976 C50.1033893,19.8411407 50.3051269,19.3423909 50.7086083,18.9110332 C51.1120896,18.4796756 51.6029845,18.264 52.1813078,18.264 C52.759631,18.264 53.2706997,18.4796756 53.7145292,18.9110332 C54.1583587,19.3423909 54.3802701,19.8411407 54.3802701,20.4072976 L54.3802701,30.0723565 Z" id="ruum" fill="#39ABBB"></path>
                <path d="M79.7177782,9.84793527 C79.4602467,9.84793527 79.2178087,9.80814946 78.9904568,9.72857666 C78.7631048,9.64900386 78.5629174,9.53270689 78.3898885,9.37968227 C78.2168596,9.22665765 78.081054,9.03690996 77.9824678,8.81043352 C77.8838815,8.58395708 77.8345891,8.32789973 77.8345891,8.04225377 C77.8345891,7.27509033 78.1685702,6.67422267 78.8365423,6.23963274 C79.5045144,5.80504282 80.5627916,5.52858248 82.0114058,5.41024344 L82.0114058,5.25109863 C82.0114058,5.00625924 81.944006,4.81141081 81.8092044,4.6665475 C81.6744028,4.52168419 81.4460483,4.44925363 81.124134,4.44925363 C80.7056455,4.44925363 80.3163363,4.52576479 79.9561947,4.67878941 C79.5960531,4.83181403 79.26509,5.03074306 78.9632954,5.27558245 L78.1182747,4.1187221 C78.2832557,3.97181846 78.4713716,3.82695733 78.6826278,3.68413435 C78.893884,3.54131137 79.1312922,3.41379276 79.3948595,3.30157471 C79.6584268,3.18935665 79.957199,3.09958355 80.2911851,3.03225272 C80.6251711,2.96492189 80.9973789,2.93125698 81.4078196,2.93125698 C82.3132034,2.93125698 82.9640641,3.15262927 83.360421,3.59538051 C83.7567779,4.03813175 83.9549534,4.69000686 83.9549534,5.55102539 L83.9549534,8.12182617 C83.9549534,8.52173052 83.969037,8.85123859 83.9972045,9.11036028 C84.0253719,9.36948197 84.0736584,9.58269308 84.1420651,9.75 L82.1623023,9.75 C82.1220631,9.60717702 82.0868542,9.45619499 82.0566748,9.29704939 C82.0264953,9.13790378 82.0114058,8.96243818 82.0114058,8.77064732 C81.7096112,9.12158379 81.3746242,9.38886278 81.0064347,9.57249233 C80.6382453,9.75612187 80.2086974,9.84793527 79.7177782,9.84793527 Z M80.5084761,8.33605957 C80.8545339,8.33605957 81.1512942,8.28097153 81.3987658,8.17079381 C81.6462374,8.06061608 81.8504487,7.92187584 82.0114058,7.75456892 L82.0114058,6.51813616 C81.2227159,6.59974929 80.6533385,6.73848953 80.3032568,6.93436105 C79.953175,7.13023256 79.7781368,7.38322948 79.7781368,7.69335938 C79.7781368,7.90963417 79.8455366,8.07081769 79.9803382,8.17691476 C80.1151398,8.28301183 80.291184,8.33605957 80.5084761,8.33605957 Z M86.1215329,9.75 L86.1215329,0.470633371 L88.1012957,0.470633371 L88.1012957,9.75 L86.1215329,9.75 Z M90.3282337,12.2595912 L90.3282337,3.06591797 L92.3200682,3.06591797 L92.3200682,4.08199637 C92.5333364,3.78410844 92.8029356,3.5178496 93.1288738,3.28321184 C93.454812,3.04857409 93.8612226,2.93125698 94.3481179,2.93125698 C94.7183193,2.93125698 95.0593421,3.00470769 95.3711966,3.15161133 C95.683051,3.29851496 95.9506382,3.51580667 96.1739663,3.80349295 C96.3972943,4.09117924 96.5703206,4.45231193 96.6930504,4.88690186 C96.8157802,5.32149178 96.8771442,5.82646545 96.8771442,6.40183803 C96.8771442,6.97721061 96.8157802,7.48014398 96.6930504,7.91065325 C96.5703206,8.34116252 96.3952823,8.70127506 96.1679304,8.99100167 C95.9405785,9.28072829 95.6709793,9.4959797 95.3591249,9.63676235 C95.0472704,9.777545 94.7002118,9.84793527 94.3179386,9.84793527 C93.8753065,9.84793527 93.4930391,9.7714241 93.1711248,9.61839948 C92.8492106,9.46537486 92.5655279,9.24604286 92.3200682,8.9603969 L92.3200682,12.2595912 L90.3282337,12.2595912 Z M93.6419221,8.33605957 C94.0604106,8.33605957 94.3732663,8.16875516 94.5804986,7.83414132 C94.7877309,7.49952748 94.8913455,7.02617842 94.8913455,6.41407994 C94.8913455,5.85502999 94.7897429,5.41228539 94.5865345,5.08583287 C94.3833261,4.75938034 94.0604107,4.59615653 93.6177786,4.59615653 C93.3602472,4.59615653 93.1208271,4.66348635 92.899511,4.79814802 C92.678195,4.93280969 92.4850493,5.08379171 92.3200682,5.25109863 L92.3200682,7.71784319 C92.5333364,7.92595668 92.7405656,8.0810193 92.9417621,8.18303571 C93.1429585,8.28505213 93.3763428,8.33605957 93.6419221,8.33605957 Z M98.6876078,9.75 L98.6876078,0.470633371 L100.679442,0.470633371 L100.679442,4.1187221 C100.776017,3.98814109 100.894721,3.85348144 101.035558,3.71473912 C101.176396,3.5759968 101.341374,3.44847819 101.530499,3.33217948 C101.719624,3.21588077 101.931883,3.11998678 102.167282,3.04449463 C102.402682,2.96900248 102.663228,2.93125698 102.948926,2.93125698 C103.230601,2.93125698 103.489135,2.96900248 103.724535,3.04449463 C103.959935,3.11998678 104.164146,3.23526359 104.337175,3.39032854 C104.510204,3.54539349 104.643997,3.74534267 104.73856,3.99018206 C104.833122,4.23502145 104.880402,4.52882432 104.880402,4.87159947 L104.880402,9.75 L102.888568,9.75 L102.888568,5.51429967 C102.888568,5.21233108 102.829216,4.98381774 102.71051,4.82875279 C102.591804,4.67368784 102.39564,4.59615653 102.122013,4.59615653 C101.85241,4.59615653 101.599912,4.65940576 101.364513,4.78590611 C101.129113,4.91240646 100.900758,5.07154968 100.679442,5.26334054 L100.679442,9.75 L98.6876078,9.75 Z M108.423158,9.84793527 C108.165627,9.84793527 107.923189,9.80814946 107.695837,9.72857666 C107.468485,9.64900386 107.268298,9.53270689 107.095269,9.37968227 C106.92224,9.22665765 106.786434,9.03690996 106.687848,8.81043352 C106.589262,8.58395708 106.539969,8.32789973 106.539969,8.04225377 C106.539969,7.27509033 106.87395,6.67422267 107.541923,6.23963274 C108.209895,5.80504282 109.268172,5.52858248 110.716786,5.41024344 L110.716786,5.25109863 C110.716786,5.00625924 110.649386,4.81141081 110.514585,4.6665475 C110.379783,4.52168419 110.151429,4.44925363 109.829514,4.44925363 C109.411026,4.44925363 109.021717,4.52576479 108.661575,4.67878941 C108.301433,4.83181403 107.97047,5.03074306 107.668676,5.27558245 L106.823655,4.1187221 C106.988636,3.97181846 107.176752,3.82695733 107.388008,3.68413435 C107.599264,3.54131137 107.836672,3.41379276 108.10024,3.30157471 C108.363807,3.18935665 108.662579,3.09958355 108.996565,3.03225272 C109.330551,2.96492189 109.702759,2.93125698 110.1132,2.93125698 C111.018584,2.93125698 111.669444,3.15262927 112.065801,3.59538051 C112.462158,4.03813175 112.660334,4.69000686 112.660334,5.55102539 L112.660334,8.12182617 C112.660334,8.52173052 112.674417,8.85123859 112.702585,9.11036028 C112.730752,9.36948197 112.779039,9.58269308 112.847445,9.75 L110.867683,9.75 C110.827443,9.60717702 110.792234,9.45619499 110.762055,9.29704939 C110.731876,9.13790378 110.716786,8.96243818 110.716786,8.77064732 C110.414991,9.12158379 110.080004,9.38886278 109.711815,9.57249233 C109.343626,9.75612187 108.914078,9.84793527 108.423158,9.84793527 Z M109.213856,8.33605957 C109.559914,8.33605957 109.856674,8.28097153 110.104146,8.17079381 C110.351618,8.06061608 110.555829,7.92187584 110.716786,7.75456892 L110.716786,6.51813616 C109.928096,6.59974929 109.358719,6.73848953 109.008637,6.93436105 C108.658555,7.13023256 108.483517,7.38322948 108.483517,7.69335938 C108.483517,7.90963417 108.550917,8.07081769 108.685718,8.17691476 C108.82052,8.28301183 108.996564,8.33605957 109.213856,8.33605957 Z" id="alpha" fill="#ABAEAF"></path>
            </g>
        </g>
    </g>
</svg>